<?xml version="1.0" standalone="no"?>
<!DOCTYPE svg PUBLIC "-//W3C//DTD SVG 20010904//EN"
 "http://www.w3.org/TR/2001/REC-SVG-20010904/DTD/svg10.dtd">
<svg version="1.0" xmlns="http://www.w3.org/2000/svg"
 width="1000.000000pt" height="1000.000000pt" viewBox="0 0 1000.000000 1000.000000"
 preserveAspectRatio="xMidYMid meet">
<metadata>
Created by potrace 1.11, written by Peter Selinger 2001-2013
</metadata>
<g transform="translate(0.000000,1000.000000) scale(0.100000,-0.100000)"
fill="#000000" stroke="none">
<path d="M3099 6876 c-2 -2 -58 -6 -124 -10 -66 -4 -138 -8 -160 -11 -22 -2
-71 -7 -110 -10 -90 -8 -153 -15 -185 -20 -14 -2 -47 -7 -75 -10 -27 -4 -57
-8 -65 -10 -8 -2 -35 -7 -60 -10 -86 -11 -305 -57 -437 -91 -747 -193 -1242
-556 -1411 -1034 -46 -130 -64 -231 -67 -380 -4 -154 12 -252 65 -389 121
-313 408 -652 806 -953 500 -378 1134 -668 1729 -792 39 -8 90 -17 115 -20 25
-3 72 -11 105 -17 76 -14 449 -20 535 -9 36 5 85 11 110 14 189 22 424 79 670
162 720 243 1417 698 1799 1174 170 211 262 385 312 587 39 158 26 392 -31
575 -130 413 -471 728 -1030 953 -165 66 -470 153 -668 190 -77 14 -88 16
-172 30 -25 4 -54 9 -65 11 -11 2 -41 6 -66 9 -25 3 -55 7 -66 10 -12 2 -54 7
-95 10 -40 4 -75 8 -78 10 -3 2 -57 6 -120 10 -63 4 -128 9 -145 12 -34 6
-1010 15 -1016 9z m-59 -379 c75 -39 102 -125 74 -231 -15 -55 -94 -216 -106
-216 -5 0 -8 -5 -8 -11 0 -15 -111 -168 -198 -272 -41 -48 -134 -147 -206
-220 -73 -74 -138 -147 -143 -164 -24 -66 0 -143 44 -143 49 0 193 108 302
227 144 157 250 327 306 488 45 131 46 133 71 139 53 14 133 -65 139 -136 3
-30 0 -42 -30 -113 -38 -89 -45 -109 -40 -113 3 -3 5 -1 5 4 0 23 174 200 244
249 64 44 119 54 164 31 130 -67 146 -253 42 -483 -17 -37 -29 -68 -27 -70 5
-4 135 132 187 197 25 30 48 57 51 60 17 15 92 152 114 210 14 38 32 70 39 73
36 14 120 -51 134 -106 14 -51 4 -77 -108 -277 -132 -234 -162 -298 -149 -321
13 -25 18 -24 67 9 166 111 415 449 473 641 7 23 23 50 35 58 20 13 27 12 62
-6 52 -27 82 -65 82 -106 0 -18 -16 -70 -35 -115 l-35 -83 62 63 c121 121 295
234 378 245 69 8 160 -76 160 -149 0 -33 -37 -106 -139 -271 -98 -158 -181
-306 -181 -322 0 -36 78 10 155 90 54 57 179 210 230 282 186 268 447 371 593
235 17 -17 32 -35 32 -41 0 -22 18 -6 37 35 12 24 30 46 42 49 34 9 84 -24
110 -74 l25 -46 -36 -74 c-19 -41 -76 -144 -125 -230 -144 -250 -174 -353
-112 -388 23 -13 30 -13 63 5 49 25 122 87 171 146 22 26 51 50 63 54 50 14
85 -61 55 -119 -22 -43 -130 -153 -197 -201 -75 -53 -180 -96 -235 -96 -61 0
-119 27 -151 72 -24 33 -28 47 -25 91 2 29 7 66 11 82 7 28 6 29 -11 15 -10
-8 -30 -25 -43 -37 -51 -47 -129 -103 -178 -127 -148 -74 -265 25 -259 219 l2
50 -87 -85 c-171 -168 -300 -193 -362 -69 -41 80 -19 134 194 479 90 146 120
205 116 225 -3 15 -12 12 -72 -19 -98 -51 -242 -180 -336 -301 -17 -22 -37
-47 -44 -56 -55 -66 -153 -234 -174 -296 -30 -89 -47 -103 -103 -78 -27 13
-44 30 -59 60 -26 54 -25 92 4 159 18 39 20 53 10 49 -8 -3 -14 -9 -14 -14 0
-18 -170 -176 -224 -208 -108 -64 -200 -49 -244 40 -26 52 -21 82 35 194 l45
90 -64 -60 c-101 -94 -133 -121 -203 -169 -66 -45 -185 -106 -207 -106 -6 0
-26 -5 -43 -11 -47 -17 -120 -3 -155 29 -42 39 -62 91 -47 123 12 22 19 24 84
25 98 1 179 41 260 127 128 137 212 382 153 445 -25 26 -22 26 -67 7 -80 -34
-293 -286 -422 -500 -23 -38 -47 -77 -52 -85 -20 -32 -247 -509 -274 -575 -36
-88 -50 -105 -89 -105 -71 0 -148 98 -132 167 9 36 77 171 149 295 31 53 71
125 90 160 19 35 46 86 61 113 l27 50 -36 -40 c-242 -268 -409 -363 -519 -296
-53 33 -83 89 -85 160 -1 20 -13 12 -83 -61 -172 -178 -318 -230 -413 -147
-57 50 -65 103 -34 219 6 25 16 49 20 55 5 5 9 13 9 18 0 4 -33 -25 -72 -65
-205 -207 -348 -297 -486 -306 -200 -13 -317 135 -308 388 13 336 296 719 661
895 151 73 248 97 400 99 142 1 176 -3 259 -35 100 -37 180 -137 159 -196 -17
-50 -76 -71 -104 -37 -7 8 -29 24 -49 34 -140 72 -352 64 -535 -20 -217 -99
-419 -320 -494 -542 -40 -117 -44 -214 -10 -279 88 -174 374 3 652 403 25 37
81 124 123 195 42 70 84 133 93 140 68 52 176 -80 142 -174 -7 -19 -31 -66
-52 -104 -77 -136 -138 -261 -164 -334 -30 -88 -30 -90 -5 -115 15 -15 27 -19
48 -14 41 10 113 66 178 140 33 37 68 76 79 88 58 63 89 118 165 296 45 107
113 258 150 335 183 379 352 526 510 442z m1295 -106 c42 -19 105 -82 105
-106 0 -103 -169 -205 -241 -146 -22 18 -24 27 -24 108 0 75 3 94 23 126 20
32 29 37 60 37 20 0 55 -9 77 -19z m-622 -1591 c5 0 54 -47 110 -104 75 -78
112 -126 144 -188 99 -185 111 -203 160 -237 26 -19 89 -74 138 -123 l91 -88
62 19 63 20 102 -74 c94 -68 114 -77 250 -122 l149 -48 -62 -30 -61 -29 -108
36 c-81 27 -127 50 -180 89 -39 28 -73 50 -75 48 -2 -2 -19 -35 -38 -72 l-34
-68 -139 147 c-80 83 -177 174 -226 210 -93 68 -81 51 -192 294 -49 107 -169
232 -244 254 -29 8 -53 13 -53 11 0 -3 27 -48 61 -100 l61 -95 -28 -71 -28
-70 20 -89 20 -89 -35 -30 c-39 -33 -41 -27 21 -77 20 -16 27 -32 31 -73 l5
-52 -26 17 c-15 10 -49 35 -75 56 -27 21 -53 38 -58 38 -6 0 -23 -10 -39 -21
l-28 -22 126 -99 c70 -55 142 -112 160 -126 18 -15 37 -29 41 -32 10 -7 103
-180 97 -180 -2 0 -11 6 -18 13 -7 6 -31 25 -53 42 -22 16 -47 35 -55 42 -63
53 -356 283 -360 283 -3 -1 -18 -11 -34 -24 l-28 -24 98 -78 c281 -222 384
-303 431 -339 29 -22 52 -43 53 -47 0 -7 -20 -10 -90 -12 -11 -1 -72 40 -136
89 -64 50 -183 143 -266 207 l-150 117 -29 -21 c-16 -12 -29 -27 -29 -32 1 -6
46 -45 101 -86 55 -41 108 -82 117 -90 9 -8 60 -48 112 -87 52 -40 108 -83
123 -95 l28 -23 -63 -3 c-60 -2 -65 -1 -109 35 -26 21 -113 90 -194 153 -80
63 -158 126 -173 138 -36 31 -79 50 -180 77 -51 14 -78 17 -70 10 7 -7 130
-104 273 -215 l260 -202 -70 7 c-76 7 -77 8 -126 47 -19 15 -140 110 -269 211
l-235 184 -41 -20 c-50 -24 -58 -12 96 -132 63 -49 120 -94 126 -100 7 -5 53
-41 103 -79 50 -39 89 -71 87 -73 -2 -2 -27 2 -55 8 -55 12 -82 17 -92 18 -3
1 -66 48 -140 107 -208 164 -290 226 -293 222 -5 -5 -26 -70 -26 -78 0 -4 52
-47 115 -95 63 -49 113 -90 111 -92 -12 -12 -377 131 -576 226 l-85 40 45 19
c44 18 44 18 124 -5 83 -24 87 -23 126 17 3 3 25 21 50 40 25 19 56 45 70 57
28 26 47 27 137 13 l62 -10 138 87 c282 177 242 139 303 286 l54 130 81 54
c76 50 84 59 116 125 23 48 52 89 88 124 l55 52 85 -24 c47 -13 90 -24 94 -24z"/>
<path d="M2914 6290 c-43 -17 -96 -103 -231 -375 -51 -104 -98 -198 -103 -207
-22 -40 19 -2 87 80 149 180 281 385 290 449 6 45 -10 65 -43 53z"/>
<path d="M5626 5754 c-74 -27 -152 -100 -228 -213 -89 -130 -123 -246 -96
-326 11 -34 18 -40 45 -43 69 -7 193 90 307 240 52 68 145 213 161 251 14 33
13 36 -10 61 -44 47 -105 58 -179 30z"/>
<path d="M7415 5978 c-326 -27 -566 -240 -622 -553 -8 -43 -7 -172 1 -222 27
-165 144 -340 289 -431 194 -122 460 -143 674 -51 157 67 297 210 354 361 l20
53 -5 -47 c-35 -311 -343 -529 -756 -537 -199 -3 -260 -20 -335 -96 -62 -62
-113 -193 -82 -212 6 -4 144 -6 307 -6 233 1 310 5 365 18 182 42 327 158 409
327 67 137 91 241 101 428 3 52 8 129 11 170 4 41 7 238 8 438 2 358 2 362
-19 363 -78 4 -161 -4 -186 -16 -29 -15 -74 -87 -62 -99 14 -14 -10 -4 -69 28
-126 69 -257 96 -403 84z m182 -386 c94 -48 155 -151 156 -262 1 -129 -53
-228 -154 -282 -64 -33 -184 -32 -253 2 -208 105 -213 442 -8 541 26 13 63 25
82 27 19 2 36 5 38 6 7 8 105 -15 139 -32z"/>
<path d="M8868 5985 c-2 -2 -25 -5 -53 -9 -143 -17 -299 -94 -394 -195 -119
-127 -178 -264 -185 -431 -15 -381 286 -684 677 -682 238 1 438 98 570 275 41
54 93 172 107 242 16 79 14 236 -4 307 -61 232 -249 414 -487 472 -56 14 -222
29 -231 21z m164 -383 c131 -59 200 -213 163 -362 -18 -67 -39 -103 -90 -148
-124 -109 -324 -82 -415 56 -119 179 -36 427 157 471 55 12 137 5 185 -17z"/>
<path d="M7015 4180 c-91 -37 -92 -173 -2 -211 72 -30 157 25 157 102 0 84
-80 141 -155 109z"/>
<path d="M7619 4175 c-28 -15 -59 -70 -59 -105 0 -77 95 -134 163 -99 86 45
88 162 3 203 -41 19 -72 20 -107 1z"/>
</g>
</svg>
