<?xml version="1.0" standalone="no"?>
<!DOCTYPE svg PUBLIC "-//W3C//DTD SVG 20010904//EN"
 "http://www.w3.org/TR/2001/REC-SVG-20010904/DTD/svg10.dtd">
<svg version="1.0" xmlns="http://www.w3.org/2000/svg"
 width="216.000000pt" height="216.000000pt" viewBox="0 0 216.000000 216.000000"
 preserveAspectRatio="xMidYMid meet">
<metadata>
Created by potrace 1.11, written by Peter Selinger 2001-2013
</metadata>
<g transform="translate(0.000000,216.000000) scale(0.100000,-0.100000)"
fill="#000000" stroke="none">
<path d="M764 1539 c-4 -7 -3 -9 4 -5 5 3 13 0 15 -6 4 -9 6 -10 6 -1 1 17
-16 25 -25 12z"/>
<path d="M813 1530 c-6 -21 -34 -24 -62 -6 -10 6 -12 5 -7 -2 4 -7 3 -12 -3
-12 -5 0 -12 8 -14 18 -4 15 -5 15 -6 0 -1 -10 -9 -16 -20 -15 -11 0 -17 5
-15 9 3 4 0 8 -5 8 -6 0 -11 -4 -11 -10 0 -5 -5 -10 -11 -10 -5 0 -7 5 -4 11
4 6 -3 5 -14 -3 -18 -11 -23 -11 -31 2 -8 12 -10 12 -11 -5 l0 -20 -9 20 -9
20 -1 -20 c-1 -15 -3 -17 -8 -5 -4 8 -13 16 -21 18 -12 3 -12 0 -2 -11 10 -13
5 -15 -39 -13 -27 2 -50 0 -50 -3 0 -4 -19 -6 -42 -6 -24 0 -46 -4 -50 -9 -4
-6 -14 -4 -24 5 -10 8 -15 9 -11 3 6 -10 -13 -20 -45 -24 -4 0 -23 -7 -42 -15
-43 -18 -49 -19 -40 -2 4 7 3 9 -2 4 -5 -5 -9 -14 -9 -20 0 -7 -9 -11 -18 -11
-10 1 -16 -1 -13 -4 4 -3 -2 -15 -13 -26 -28 -31 -61 -97 -61 -123 0 -13 -6
-23 -12 -23 -9 0 -10 -3 -2 -8 6 -4 11 -30 10 -59 -1 -28 2 -49 7 -46 4 2 8
-6 9 -19 1 -22 3 -35 8 -50 6 -20 5 -34 -5 -40 -6 -5 -3 -8 6 -8 10 0 19 -11
22 -27 10 -56 17 -75 29 -91 9 -11 9 -13 1 -9 -15 9 50 -102 74 -126 15 -16
16 -19 3 -28 -11 -8 -9 -9 9 -4 20 6 23 4 17 -10 -4 -13 -2 -16 9 -12 8 4 18
1 22 -6 5 -7 17 -13 28 -15 33 -4 44 -8 51 -15 4 -4 22 -7 40 -7 18 0 36 -5
40 -11 5 -8 9 -8 14 1 6 10 12 9 29 -2 11 -8 18 -19 13 -24 -4 -5 2 -1 14 9
23 19 39 23 29 7 -3 -6 -1 -10 4 -10 6 0 11 5 11 12 0 6 7 3 15 -8 11 -14 14
-15 9 -2 -5 14 0 15 28 10 18 -4 49 -7 68 -7 19 1 38 -4 42 -10 5 -6 8 -5 8 4
0 11 4 9 14 -5 8 -10 18 -16 22 -11 4 4 2 7 -4 7 -7 0 -12 4 -12 9 0 13 54 11
62 -3 6 -8 8 -7 8 2 0 6 9 12 21 12 11 0 18 -4 15 -8 -3 -5 1 -9 9 -9 8 0 12
4 9 9 -3 4 6 8 20 8 23 0 31 -9 27 -33 -1 -5 3 -6 8 -3 5 3 6 16 3 29 -5 21
-5 21 12 5 21 -22 27 -23 20 -4 -7 19 24 15 38 -5 8 -11 9 -11 4 3 -3 10 -1
20 4 23 6 4 10 1 10 -6 0 -8 4 -8 16 2 13 10 17 10 25 -2 7 -11 9 -11 9 0 0 9
9 12 29 9 17 -2 28 -1 25 3 -2 4 0 10 6 14 5 3 10 1 10 -4 0 -6 5 -11 11 -11
5 0 8 4 4 9 -3 5 5 13 17 16 13 4 40 20 60 36 31 25 42 28 80 23 24 -4 45 -10
46 -15 2 -5 8 -9 13 -9 6 0 8 4 5 8 -3 5 5 8 17 8 25 -1 41 -21 31 -38 -5 -7
-3 -8 5 -4 7 5 10 14 7 22 -5 12 -2 12 15 3 12 -6 19 -7 15 -1 -3 6 8 9 27 8
23 -2 32 -7 31 -19 -1 -9 2 -14 7 -11 5 3 9 13 10 22 0 14 2 13 9 -3 8 -19 9
-19 9 -1 1 16 3 17 18 5 9 -8 14 -9 11 -4 -4 7 6 11 25 10 18 0 49 3 70 6 20
4 40 2 43 -2 3 -5 10 -9 15 -9 6 0 7 5 4 10 -3 6 -2 10 4 10 5 0 12 -6 14 -12
4 -10 6 -10 6 0 1 6 6 12 12 12 5 0 7 -4 4 -10 -3 -5 -1 -10 4 -10 6 0 11 6
11 14 0 8 9 12 25 11 14 -2 25 1 25 6 0 14 28 11 34 -3 3 -7 4 -4 3 6 -1 10 4
21 12 24 8 3 11 0 7 -6 -3 -6 -2 -13 3 -17 6 -3 8 4 6 15 -2 12 2 23 10 27 8
3 12 10 8 16 -4 6 0 8 11 4 9 -4 15 -3 12 2 -7 10 16 71 26 71 4 0 3 -12 -3
-27 -6 -16 -6 -24 -1 -18 16 17 24 55 12 55 -6 0 -8 5 -3 13 4 6 8 18 9 25 2
8 6 17 10 20 4 4 4 -1 1 -10 -3 -10 -3 -20 2 -22 4 -3 8 14 8 37 1 23 3 51 6
62 3 11 6 28 6 38 1 10 5 16 9 13 5 -3 5 17 2 44 -3 27 -6 59 -5 70 1 11 -1
20 -5 20 -10 0 -38 54 -33 67 2 6 -1 14 -6 18 -7 4 -8 0 -4 -10 5 -15 3 -15
-28 1 -19 9 -45 19 -59 21 -73 11 -140 17 -177 18 -24 0 -43 3 -43 6 0 3 -23
5 -51 3 -45 -2 -49 -1 -37 14 11 14 10 14 -8 0 -11 -10 -27 -18 -35 -18 -12 0
-11 2 1 10 9 6 10 10 3 10 -6 0 -15 -4 -18 -10 -3 -5 -15 -10 -26 -10 -13 0
-18 4 -13 12 4 7 3 8 -5 4 -18 -11 -63 -18 -57 -8 3 5 -1 9 -8 9 -8 0 -12 -6
-9 -14 3 -9 0 -11 -10 -7 -10 3 -13 12 -10 22 4 9 3 14 -1 10 -8 -7 -61 40
-61 53 0 4 -4 11 -9 16 -5 5 -6 3 -2 -4 10 -18 -5 -16 -32 3 -12 8 -20 20 -17
25 4 5 2 9 -4 9 -5 0 -11 -6 -14 -12 -3 -10 -7 -10 -18 -1 -8 6 -26 13 -39 15
-14 2 -29 6 -35 9 -5 3 -25 6 -44 8 -19 1 -41 7 -48 13 -9 8 -13 7 -13 -1 0
-7 -5 -9 -11 -5 -12 7 -32 9 -120 12 -27 1 -48 6 -45 11 3 5 -1 11 -9 14 -9 4
-12 1 -8 -9 3 -9 -1 -14 -12 -14 -9 0 -14 4 -11 8 3 5 -1 9 -9 9 -8 0 -12 -4
-9 -9 3 -4 0 -8 -7 -8 -6 0 -9 8 -6 20 3 11 3 20 0 20 -3 0 -7 -9 -10 -20z"/>
<path d="M406 1518 c6 -9 44 -6 44 3 0 4 -11 6 -24 5 -13 0 -22 -4 -20 -8z"/>
<path d="M506 1518 c3 -4 9 -8 15 -8 5 0 9 4 9 8 0 5 -7 9 -15 9 -8 0 -12 -4
-9 -9z"/>
<path d="M1186 1502 c-3 -4 4 -9 15 -9 23 -2 25 3 4 10 -8 4 -16 3 -19 -1z"/>
<path d="M1245 1480 c-3 -5 -1 -10 4 -10 6 0 11 5 11 10 0 6 -2 10 -4 10 -3 0
-8 -4 -11 -10z"/>
<path d="M235 1470 c-3 -6 1 -7 9 -4 18 7 21 14 7 14 -6 0 -13 -4 -16 -10z"/>
<path d="M1310 1450 c-9 -6 -10 -10 -3 -10 6 0 15 5 18 10 8 12 4 12 -15 0z"/>
<path d="M130 1441 c0 -6 4 -13 10 -16 6 -3 7 1 4 9 -7 18 -14 21 -14 7z"/>
<path d="M1370 1416 c0 -2 8 -10 18 -17 15 -13 16 -12 3 4 -13 16 -21 21 -21
13z"/>
<path d="M125 1400 c-3 -6 1 -7 9 -4 18 7 21 14 7 14 -6 0 -13 -4 -16 -10z"/>
<path d="M1415 1380 c3 -5 8 -10 11 -10 2 0 4 5 4 10 0 6 -5 10 -11 10 -5 0
-7 -4 -4 -10z"/>
<path d="M76 1361 c-3 -5 2 -15 12 -22 15 -12 16 -12 5 2 -7 9 -10 19 -6 22 3
4 4 7 0 7 -3 0 -8 -4 -11 -9z"/>
<path d="M1650 1360 c-9 -6 -10 -10 -3 -10 6 0 15 5 18 10 8 12 4 12 -15 0z"/>
<path d="M1700 1360 c0 -5 5 -10 11 -10 5 0 7 5 4 10 -3 6 -8 10 -11 10 -2 0
-4 -4 -4 -10z"/>
<path d="M1797 1357 c-3 -7 3 -13 14 -13 13 0 15 3 7 13 -6 7 -12 13 -13 13
-2 0 -5 -6 -8 -13z"/>
<path d="M1853 1355 c0 -8 4 -12 9 -9 5 3 6 10 3 15 -9 13 -12 11 -12 -6z"/>
<path d="M1910 1340 c-9 -6 -10 -10 -3 -10 6 0 15 5 18 10 8 12 4 12 -15 0z"/>
<path d="M2025 1260 c-3 -6 1 -7 9 -4 18 7 21 14 7 14 -6 0 -13 -4 -16 -10z"/>
<path d="M2050 1240 c-9 -6 -10 -10 -3 -10 6 0 15 5 18 10 8 12 4 12 -15 0z"/>
<path d="M55 1220 c3 -5 8 -10 11 -10 2 0 4 5 4 10 0 6 -5 10 -11 10 -5 0 -7
-4 -4 -10z"/>
<path d="M2056 1187 c3 -10 9 -15 12 -12 3 3 0 11 -7 18 -10 9 -11 8 -5 -6z"/>
<path d="M55 1171 c-3 -5 -2 -12 3 -15 5 -3 9 1 9 9 0 17 -3 19 -12 6z"/>
<path d="M82 1081 c-11 -6 -10 -10 0 -19 11 -8 14 -7 14 9 0 10 0 19 -1 19 0
0 -6 -4 -13 -9z"/>
<path d="M156 833 c-6 -14 -5 -15 5 -6 7 7 10 15 7 18 -3 3 -9 -2 -12 -12z"/>
<path d="M175 820 c-3 -5 -1 -10 4 -10 6 0 11 5 11 10 0 6 -2 10 -4 10 -3 0
-8 -4 -11 -10z"/>
<path d="M1265 733 c-11 -25 -15 -46 -7 -38 4 4 7 10 7 13 0 4 4 13 9 20 4 7
6 15 3 18 -2 3 -8 -3 -12 -13z"/>
<path d="M1630 719 c0 -5 5 -7 10 -4 6 3 10 8 10 11 0 2 -4 4 -10 4 -5 0 -10
-5 -10 -11z"/>
<path d="M1690 719 c0 -5 5 -7 10 -4 6 3 10 8 10 11 0 2 -4 4 -10 4 -5 0 -10
-5 -10 -11z"/>
<path d="M1716 713 c-6 -14 -5 -15 5 -6 7 7 10 15 7 18 -3 3 -9 -2 -12 -12z"/>
<path d="M1185 680 c-3 -6 1 -7 9 -4 18 7 21 14 7 14 -6 0 -13 -4 -16 -10z"/>
<path d="M433 645 c0 -8 4 -12 9 -9 5 3 6 10 3 15 -9 13 -12 11 -12 -6z"/>
<path d="M1046 643 c-6 -14 -5 -15 5 -6 7 7 10 15 7 18 -3 3 -9 -2 -12 -12z"/>
<path d="M475 640 c-3 -5 -1 -10 4 -10 6 0 11 5 11 10 0 6 -2 10 -4 10 -3 0
-8 -4 -11 -10z"/>
<path d="M660 636 c0 -2 7 -7 16 -10 8 -3 12 -2 9 4 -6 10 -25 14 -25 6z"/>
</g>
</svg>
