<?xml version="1.0" standalone="no"?>
<!DOCTYPE svg PUBLIC "-//W3C//DTD SVG 1.1//EN" "http://www.w3.org/Graphics/SVG/1.1/DTD/svg11.dtd" >
<svg xmlns="http://www.w3.org/2000/svg" xmlns:xlink="http://www.w3.org/1999/xlink" version="1.1">
<metadata>
Created by FontForge 20170924 at Mon Mar 23 22:41:34 2020
 By www-data

</metadata>
<defs>
<font id="AlpinaSans-Bold" horiz-adv-x="500" >
  <font-face 
    font-family="Alpina Sans"
    font-weight="676"
    font-stretch="normal"
    units-per-em="1000"
    panose-1="2 15 0 3 4 5 0 0 0 3"
    ascent="750"
    descent="-250"
    x-height="469"
    cap-height="628"
    bbox="-178.485 -250 1730 845"
    underline-thickness="0"
    underline-position="0"
    unicode-range="U+0020-FB04"
  />
<missing-glyph horiz-adv-x="723" 
d="M69 -169v819h585v-819h-585zM222 -33h279v548h-279v-548z" />
    <glyph glyph-name="f_b" unicode="fb" horiz-adv-x="969" 
d="M37 333c-20 0 -35 32 -35 61v14c0 28 11 61 32 61h37v8c0 120 101 193 224 193c41 0 77 -7 108 -19c4 19 41 29 75 29h16c36 0 75 -11 75 -33v-243c37 49 95 77 162 77c124 0 212 -89 212 -241c0 -154 -99 -253 -222 -253c-63 0 -117 23 -152 68v-33
c0 -21 -39 -32 -77 -32h-16c-35 0 -74 11 -74 32v517c-22 13 -45 20 -75 20c-54 0 -88 -39 -88 -88v-2h88c20 0 31 -33 31 -63v-12c0 -30 -11 -61 -31 -61h-88v-311c0 -21 -40 -32 -76 -32h-16c-37 0 -76 11 -76 32v311h-34zM672 94c66 0 110 55 110 140s-42 138 -107 138
c-61 0 -106 -49 -106 -121v-41c0 -70 44 -116 103 -116z" />
    <glyph glyph-name="f_f" unicode="ff" horiz-adv-x="679" 
d="M37 333c-20 0 -35 32 -35 61v14c0 28 11 61 32 61h37v8c0 120 101 193 224 193c66 0 119 -18 161 -44c35 29 84 44 139 44c40 0 70 -6 92 -15c23 -9 37 -34 30 -68c-6 -33 -27 -47 -47 -42c-12 3 -26 8 -47 8c-32 0 -54 -24 -54 -57v-27h79c21 0 32 -33 32 -63v-12
c0 -30 -11 -61 -32 -61h-79v-311c0 -21 -39 -32 -75 -32h-16c-37 0 -76 11 -76 32v311h-163v-311c0 -21 -40 -32 -76 -32h-16c-37 0 -76 11 -76 32v311h-34zM239 471v-2h163v32c0 13 1 25 3 37c-22 13 -47 21 -78 21c-54 0 -88 -39 -88 -88z" />
    <glyph glyph-name="f_f_i" unicode="ffi" horiz-adv-x="952" 
d="M37 333c-20 0 -35 32 -35 61v14c0 28 11 61 32 61h37v8c0 120 101 193 224 193c76 0 135 -25 179 -57c46 41 113 64 196 64c65 0 110 -12 151 -33c22 -10 38 -34 32 -68c-7 -32 -28 -50 -49 -42c-28 14 -61 26 -112 26c-66 0 -113 -33 -122 -91h254c37 0 76 -12 76 -33
v-414c0 -21 -40 -32 -77 -32h-16c-35 0 -75 11 -75 32v311h-163v-311c0 -21 -39 -32 -75 -32h-16c-37 0 -76 11 -76 32v311h-163v-311c0 -21 -40 -32 -76 -32h-16c-37 0 -76 11 -76 32v311h-34zM239 471v-2h164c2 22 6 43 13 62c-24 16 -53 28 -89 28c-54 0 -88 -39 -88 -88
z" />
    <glyph glyph-name="f_f_l" unicode="ffl" horiz-adv-x="952" 
d="M37 333c-20 0 -35 32 -35 61v14c0 28 11 61 32 61h37v8c0 120 101 193 224 193c73 0 129 -23 172 -52c41 34 97 52 159 52c41 0 76 -7 107 -19c8 17 43 26 75 26h16c37 0 76 -11 76 -32v-623c0 -21 -40 -32 -77 -32h-16c-35 0 -75 11 -75 32v518c-21 12 -43 19 -73 19
c-53 0 -90 -39 -90 -88v-2h88c20 0 32 -33 32 -63v-12c0 -30 -12 -61 -32 -61h-88v-311c0 -21 -39 -32 -75 -32h-16c-37 0 -76 11 -76 32v311h-163v-311c0 -21 -40 -32 -76 -32h-16c-37 0 -76 11 -76 32v311h-34zM239 471v-2h163v8c0 21 3 40 9 57c-23 15 -50 25 -84 25
c-54 0 -88 -39 -88 -88z" />
    <glyph glyph-name="f_h" unicode="fh" horiz-adv-x="965" 
d="M37 333c-20 0 -35 32 -35 61v14c0 28 11 61 32 61h37v8c0 120 101 193 224 193c41 0 77 -7 108 -19c4 19 41 29 75 29h16c36 0 75 -11 75 -33v-242c36 48 94 76 164 76c109 0 181 -68 181 -170v-289c0 -21 -40 -32 -77 -32h-16c-36 0 -75 11 -75 32v254
c0 57 -32 94 -84 94c-55 0 -93 -45 -93 -111v-237c0 -21 -39 -32 -77 -32h-16c-35 0 -74 11 -74 32v517c-22 13 -45 20 -75 20c-54 0 -88 -39 -88 -88v-2h88c20 0 31 -33 31 -63v-12c0 -30 -11 -61 -31 -61h-88v-311c0 -21 -40 -32 -76 -32h-16c-37 0 -76 11 -76 32v311h-34
z" />
    <glyph glyph-name="f_j" unicode="fj" horiz-adv-x="621" 
d="M37 333c-20 0 -35 32 -35 61v14c0 28 11 61 32 61h38c10 124 110 208 267 208c65 0 111 -12 152 -33c22 -10 37 -34 31 -68c-7 -32 -28 -50 -48 -42c-28 14 -61 26 -113 26c-65 0 -112 -33 -121 -91h254c36 0 75 -12 75 -33v-459c0 -111 -84 -167 -190 -167
c-36 0 -64 5 -87 14c-22 9 -36 34 -30 67c7 33 28 47 48 43c13 -3 24 -7 41 -7c32 0 51 23 51 55v351h-163v-311c0 -21 -40 -32 -76 -32h-16c-37 0 -76 11 -76 32v311h-34z" />
    <glyph glyph-name="f_k" unicode="fk" horiz-adv-x="918" 
d="M37 333c-20 0 -35 32 -35 61v14c0 28 11 61 32 61h37v8c0 120 101 193 224 193c41 0 77 -7 108 -19c4 19 41 29 75 29h16c36 0 75 -11 75 -33v-340h9c81 0 153 86 153 139c0 21 37 33 69 33h15c34 0 73 -16 73 -37c0 -52 -43 -132 -126 -193c84 -61 137 -152 137 -222
c0 -22 -39 -37 -77 -37h-16c-36 0 -75 11 -75 33c0 54 -74 163 -154 163h-8v-164c0 -21 -39 -32 -77 -32h-16c-35 0 -74 11 -74 32v517c-22 13 -45 20 -75 20c-54 0 -88 -39 -88 -88v-2h88c20 0 31 -33 31 -63v-12c0 -30 -11 -61 -31 -61h-88v-311c0 -21 -40 -32 -76 -32
h-16c-37 0 -76 11 -76 32v311h-34z" />
    <glyph glyph-name="f_l" unicode="fl" horiz-adv-x="621" 
d="M37 333c-20 0 -35 32 -35 61v14c0 28 11 61 32 61h37v8c0 120 101 193 224 193c41 0 77 -7 108 -19c4 19 41 29 75 29h16c36 0 75 -11 75 -33v-625c0 -21 -39 -32 -77 -32h-16c-35 0 -74 11 -74 32v517c-22 13 -45 20 -75 20c-54 0 -88 -39 -88 -88v-2h88
c20 0 31 -33 31 -63v-12c0 -30 -11 -61 -31 -61h-88v-311c0 -21 -40 -32 -76 -32h-16c-37 0 -76 11 -76 32v311h-34z" />
    <glyph glyph-name="fi" unicode="fi" horiz-adv-x="621" 
d="M37 333c-20 0 -35 32 -35 61v14c0 28 11 61 32 61h38c10 124 110 208 267 208c65 0 111 -12 152 -33c22 -10 37 -34 31 -68c-7 -32 -28 -50 -48 -42c-28 14 -61 26 -113 26c-65 0 -112 -33 -121 -91h254c36 0 75 -12 75 -33v-414c0 -21 -39 -32 -77 -32h-16
c-35 0 -74 11 -74 32v311h-163v-311c0 -21 -40 -32 -76 -32h-16c-37 0 -76 11 -76 32v311h-34z" />
    <glyph glyph-name="logoalpina_1" unicode="&#x40;LP" horiz-adv-x="1802" 
d="M900 750c581 0 830 -187 830 -432c0 -263 -489 -568 -829 -568c-341 0 -829 305 -829 568c0 245 247 432 828 432zM551 518c10 -10 28 -1 28 16c0 14 -17 38 -52 49c-100 32 -246 -36 -312 -158c-53 -99 -28 -177 15 -196c49 -22 107 9 186 96c-8 -19 -14 -38 -14 -53
c0 -14 10 -27 23 -34c25 -13 70 3 123 70v-14c1 -18 13 -33 27 -40c21 -11 72 6 144 97c-40 -77 -90 -154 -90 -172c0 -20 11 -32 26 -39c13 -6 24 0 28 12c8 26 46 103 77 163c52 94 119 167 139 161c16 -5 14 -41 -9 -86s-67 -78 -104 -69c-12 3 -17 -8 -15 -17
c2 -14 13 -26 24 -30c10 -4 22 -4 36 0c39 12 85 42 132 91c-15 -27 -26 -50 -26 -59c0 -18 12 -31 27 -37c25 -9 63 15 111 76c-10 -19 -16 -34 -16 -41c0 -17 8 -35 27 -40c9 -3 16 2 18 11c1 8 4 19 11 31c74 128 146 162 157 162c19 0 -86 -138 -86 -169
c0 -19 10 -35 28 -40c21 -6 48 7 97 62c-2 -12 -2 -23 -1 -32c3 -30 19 -42 37 -47c16 -5 45 7 95 55c-4 -13 -6 -25 -6 -36c0 -15 13 -30 27 -35c40 -15 100 27 133 73c9 13 3 29 -4 34c-6 4 -13 1 -19 -6c-31 -37 -57 -55 -70 -49c-12 6 -8 31 8 64c16 30 62 105 63 118
c1 12 -10 28 -22 33s-19 -2 -23 -11c-2 -5 -5 -11 -7 -15c-7 16 -24 32 -50 32c-46 0 -85 -31 -122 -85c-2 -3 -5 -8 -5 -8c-55 -70 -83 -92 -91 -87c-10 6 84 139 84 156c0 24 -20 44 -40 44c-17 0 -69 -26 -120 -83c11 24 20 44 20 52c0 15 -11 26 -27 32
c-10 3 -16 0 -19 -10c-1 -6 -4 -15 -8 -24c-45 -101 -124 -164 -134 -159c-12 6 9 37 29 74c17 35 38 65 38 78c0 20 -12 31 -28 38c-9 4 -14 0 -16 -9s-6 -20 -13 -33c-18 -34 -54 -75 -89 -106c3 4 5 7 8 13c41 81 24 132 -15 142c-22 6 -62 -29 -104 -80
c14 30 23 52 23 57c0 17 -13 34 -27 40c-10 3 -18 0 -21 -10c-5 -16 -11 -34 -18 -53c-59 -113 -141 -167 -154 -162c-11 4 -17 14 -8 45c88 82 133 143 160 191c28 51 21 91 -17 101c-43 11 -89 -37 -144 -164c-16 -38 -29 -70 -40 -96c-57 -73 -85 -94 -98 -89
c-14 5 -13 17 8 63c20 43 48 82 48 97c0 19 -17 40 -30 40c-9 0 -15 -5 -24 -22c-84 -150 -164 -207 -200 -193c-24 9 -36 52 1 123c44 83 145 147 236 123c16 -4 28 -10 36 -17zM1084 625c-21 -10 -23 -70 -5 -76c18 -9 60 15 60 41c0 18 -35 39 -55 35zM654 453
c55 112 74 145 88 141c8 -2 10 -15 -4 -38c-18 -30 -40 -67 -94 -125c3 7 6 14 10 22zM1505 433c-55 -104 -110 -141 -128 -136c-16 5 -20 43 9 89c31 50 62 70 86 70c18 0 33 -10 33 -23zM1283 -50l-80 26l-53 39l-34 -11l-41 43l-31 21l-42 78l-51 52l-51 14l-28 -26
l-19 -39l-43 -29l-29 -68l-102 -64l-44 6l-52 -43l-43 12l-23 -10c52 -25 102 -49 181 -74l-67 52l8 23l112 -88l45 -9l-124 97l21 12l148 -116l38 -3l-146 114l57 -16l124 -98l33 2l-129 100l16 15l144 -112l29 5l-156 123l16 14l131 -104l-25 48l-89 70l17 13l42 -32
l-1 28l-24 19l20 15l-11 46l15 38l-34 53l30 -9l42 -44l36 -79l40 -29l79 -82l19 38l38 -27l57 -20z" />
    <glyph glyph-name="logoalpina_2" unicode="F&#x40;LP" horiz-adv-x="1802" 
d="M900 750c581 0 830 -187 830 -432c0 -264 -489 -568 -829 -568c-342 0 -829 304 -829 568c0 245 247 432 828 432zM1104 -102l-306 240l33 29l270 -213l-52 98l-183 144l35 27l87 -66l-2 58l-49 39l41 31l-23 97l31 78l-70 109l62 -19l85 -90l75 -165l84 -60l163 -169
l40 79l57 -41c11 9 25 23 36 35l-102 76l-70 -23l-84 89l-66 45l-87 161l-104 107l-106 28l-57 -53l-40 -80l-88 -60l-60 -142l-210 -132l-90 12l-54 -43c92 -89 213 -160 348 -209l-218 170l43 25l293 -229c27 -6 57 -11 87 -14l-298 232l117 -33l256 -201c22 2 49 5 64 7
l-262 202l33 31l285 -222c20 5 38 10 56 15z" />
    <glyph glyph-name=".notdef" horiz-adv-x="723" 
d="M69 -169v819h585v-819h-585zM222 -33h279v548h-279v-548z" />
    <glyph glyph-name="A" unicode="A" horiz-adv-x="656" 
d="M179 24c0 -21 -38 -33 -70 -33h-19c-33 0 -73 16 -73 37c0 149 114 482 199 574c18 19 65 27 120 27c52 0 96 -9 112 -28c77 -91 191 -422 191 -573c0 -21 -40 -37 -78 -37h-20c-35 0 -75 11 -75 33c0 28 -7 76 -19 133h-248c-13 -57 -20 -105 -20 -133zM233 287h181
c-25 81 -56 164 -92 224c-34 -63 -65 -144 -89 -224z" />
    <glyph glyph-name="Aacute" unicode="&#xc1;" horiz-adv-x="656" 
d="M377 690c-13 -17 -31 -30 -65 -30h-14c-32 0 -56 11 -47 30l64 122c10 22 48 33 83 33h15c39 0 75 -18 62 -34zM179 24c0 -21 -38 -33 -70 -33h-19c-33 0 -73 16 -73 37c0 149 114 482 199 574c18 19 65 27 120 27c52 0 96 -9 112 -28c77 -91 191 -422 191 -573
c0 -21 -40 -37 -78 -37h-20c-35 0 -75 11 -75 33c0 28 -7 76 -19 133h-248c-13 -57 -20 -105 -20 -133zM233 287h181c-25 81 -56 164 -92 224c-34 -63 -65 -144 -89 -224z" />
    <glyph glyph-name="B" unicode="B" horiz-adv-x="594" 
d="M61 598c0 22 17 27 42 27h205c129 0 234 -60 234 -170c0 -66 -39 -110 -96 -135c67 -24 117 -70 117 -149c0 -121 -114 -176 -236 -176h-224c-25 0 -42 12 -42 34v569zM294 511h-58v-149h59c46 0 81 32 81 75c0 46 -40 74 -82 74zM313 262h-77v-153h77c47 0 87 29 87 76
c0 46 -42 77 -87 77z" />
    <glyph glyph-name="C" unicode="C" horiz-adv-x="647" 
d="M608 510c7 -22 -11 -52 -44 -70c-36 -19 -67 -15 -78 1c-26 40 -67 62 -122 62c-92 0 -151 -75 -151 -194c0 -110 61 -193 151 -193c62 0 109 29 134 79c8 18 39 24 77 7c36 -16 54 -41 48 -61c-30 -94 -134 -161 -266 -161c-204 0 -323 139 -323 330s125 329 329 329
c114 0 217 -52 245 -129z" />
    <glyph glyph-name="C.alt" horiz-adv-x="656" 
d="M611 63c-48 -51 -132 -83 -245 -83c-206 0 -332 139 -332 330s125 329 316 329c148 0 265 -82 265 -211c0 -120 -91 -173 -171 -173c-42 0 -76 16 -76 59c0 21 8 42 22 42c38 0 69 22 69 67c0 48 -45 78 -97 78c-90 0 -149 -72 -149 -181c0 -118 89 -203 192 -203
c68 0 117 18 157 50c17 14 40 -3 53 -30c11 -24 14 -55 -4 -74z" />
    <glyph glyph-name="D" unicode="D" horiz-adv-x="696" 
d="M320 -5h-217c-25 0 -42 12 -42 34v569c0 22 17 27 42 27h214c203 0 345 -124 345 -315c0 -192 -138 -315 -342 -315zM309 497h-73v-374h77c97 0 170 64 170 186c0 116 -79 188 -174 188z" />
    <glyph glyph-name="E" unicode="E" horiz-adv-x="539" 
d="M61 598c0 22 17 27 42 27h357c19 0 31 -32 31 -60v-11c0 -28 -12 -58 -31 -58h-224v-119h206c20 0 32 -32 32 -60v-10c0 -28 -12 -58 -32 -58h-206v-126h234c19 0 31 -32 31 -60v-11c0 -28 -12 -57 -31 -57h-367c-25 0 -42 12 -42 34v569z" />
    <glyph glyph-name="E.alt" horiz-adv-x="536" 
d="M293 -20c-165 0 -262 65 -262 179c0 74 43 131 126 159c-77 25 -114 76 -114 146c0 100 97 175 232 175c110 0 174 -41 211 -81c20 -17 24 -46 13 -77c-11 -33 -44 -55 -69 -42c-31 27 -63 66 -127 66c-59 0 -94 -26 -94 -68c0 -48 56 -73 166 -73c21 0 31 -24 31 -46
v-13c0 -31 -12 -48 -33 -48c-124 0 -178 -26 -178 -74c0 -46 47 -67 108 -67c65 0 108 33 139 60c25 14 59 -14 69 -47c10 -30 8 -60 -13 -77c-37 -38 -116 -72 -205 -72z" />
    <glyph glyph-name="Eacute" unicode="&#xc9;" horiz-adv-x="539" 
d="M307 690c-13 -17 -31 -30 -65 -30h-14c-32 0 -56 11 -47 30l64 122c10 22 48 33 83 33h15c39 0 75 -18 62 -34zM61 598c0 22 17 27 42 27h357c19 0 31 -32 31 -60v-11c0 -28 -12 -58 -31 -58h-224v-119h206c20 0 32 -32 32 -60v-10c0 -28 -12 -58 -32 -58h-206v-126h234
c19 0 31 -32 31 -60v-11c0 -28 -12 -57 -31 -57h-367c-25 0 -42 12 -42 34v569z" />
    <glyph glyph-name="Eacute.alt" horiz-adv-x="536" 
d="M308 690c-13 -17 -31 -30 -65 -30h-14c-32 0 -56 11 -47 30l64 122c10 22 48 33 83 33h15c39 0 75 -18 62 -34zM293 -20c-165 0 -262 65 -262 179c0 74 43 131 126 159c-77 25 -114 76 -114 146c0 100 97 175 232 175c110 0 174 -41 211 -81c20 -17 24 -46 13 -77
c-11 -33 -44 -55 -69 -42c-31 27 -63 66 -127 66c-59 0 -94 -26 -94 -68c0 -48 56 -73 166 -73c21 0 31 -24 31 -46v-13c0 -31 -12 -48 -33 -48c-124 0 -178 -26 -178 -74c0 -46 47 -67 108 -67c65 0 108 33 139 60c25 14 59 -14 69 -47c10 -30 8 -60 -13 -77
c-37 -38 -116 -72 -205 -72z" />
    <glyph glyph-name="Euro" unicode="&#x20ac;" horiz-adv-x="674" 
d="M24 205c-13 0 -24 19 -24 40v8c0 19 8 40 22 40h36v17v16h-34c-13 0 -24 20 -24 40v9c0 19 8 39 22 39h50c37 135 150 225 315 225c114 0 217 -52 245 -129c7 -22 -11 -52 -44 -70c-36 -19 -67 -15 -78 1c-26 40 -67 62 -122 62c-61 0 -107 -33 -132 -89h182
c14 0 22 -20 22 -40v-9c0 -20 -8 -39 -22 -39h-201v-17v-16h201c14 0 22 -21 22 -41v-8c0 -20 -8 -39 -22 -39h-180c26 -54 72 -89 130 -89c62 0 109 29 134 79c8 18 39 24 77 7c36 -16 54 -41 48 -61c-30 -94 -134 -161 -266 -161c-164 0 -273 90 -310 225h-47z" />
    <glyph glyph-name="F" unicode="F" horiz-adv-x="525" 
d="M236 24c0 -22 -42 -34 -80 -34h-17c-37 0 -78 12 -78 34v574c0 22 17 27 42 27h357c19 0 31 -32 31 -60v-11c0 -28 -12 -58 -31 -58h-224v-131h206c20 0 32 -32 32 -60v-11c0 -28 -12 -58 -32 -58h-206v-212z" />
    <glyph glyph-name="G" unicode="G" horiz-adv-x="686" 
d="M381 117c73 0 128 42 128 98v13h-134c-17 0 -26 30 -26 56v12c0 26 9 55 26 55h246c21 0 34 -10 34 -28v-139c0 -106 -114 -204 -295 -204c-206 0 -326 137 -326 322c0 197 133 336 337 337c115 1 218 -53 254 -128c9 -22 -11 -53 -45 -71c-35 -19 -65 -15 -77 1
c-26 35 -71 62 -130 62c-93 0 -160 -75 -160 -194c0 -120 65 -192 168 -192z" />
    <glyph glyph-name="H" unicode="H" horiz-adv-x="703" 
d="M61 593c0 22 42 35 80 35h16c37 0 79 -12 79 -35v-198h231v198c0 22 41 35 79 35h17c37 0 78 -12 78 -35v-568c0 -22 -42 -34 -80 -34h-16c-37 0 -78 12 -78 34v225h-231v-225c0 -22 -42 -34 -80 -34h-17c-37 0 -78 12 -78 34v568z" />
    <glyph glyph-name="I" unicode="I" horiz-adv-x="297" 
d="M61 590c0 22 42 38 80 38h16c37 0 79 -12 79 -35v-568c0 -22 -42 -34 -80 -34h-17c-37 0 -78 12 -78 34v565z" />
    <glyph glyph-name="Iacute" unicode="&#xcd;" horiz-adv-x="297" 
d="M197 690c-13 -17 -31 -30 -65 -30h-14c-32 0 -56 11 -47 30l64 122c10 22 48 33 83 33h15c39 0 75 -18 62 -34zM61 590c0 22 42 38 80 38h16c37 0 79 -12 79 -35v-568c0 -22 -42 -34 -80 -34h-17c-37 0 -78 12 -78 34v565z" />
    <glyph glyph-name="J" unicode="J" horiz-adv-x="498" 
d="M440 202c0 -140 -105 -222 -239 -222c-76 0 -141 31 -173 68c-19 19 -24 50 -5 86c18 33 46 50 66 42c24 -20 50 -48 94 -48s83 33 83 83v379c0 22 41 38 79 38h17c37 0 78 -12 78 -35v-391z" />
    <glyph glyph-name="J.alt" horiz-adv-x="543" 
d="M43 486c-20 0 -32 34 -32 64v12c0 30 12 62 32 62h465c20 0 35 -32 35 -62v-13c0 -29 -11 -63 -31 -63h-23c-33 -16 -51 -35 -51 -77c0 -48 21 -161 21 -222c0 -125 -100 -207 -220 -207c-74 0 -135 21 -173 54c-18 12 -23 40 -13 73c9 33 30 51 50 45
c26 -19 55 -40 100 -40s82 30 82 76c0 51 -21 131 -21 201c0 43 21 75 52 97h-273z" />
    <glyph glyph-name="K" unicode="K" horiz-adv-x="646" 
d="M436 23c0 76 -96 224 -181 224h-19v-222c0 -22 -42 -34 -80 -34h-17c-37 0 -78 12 -78 34v565c0 22 42 38 80 38h16c37 0 79 -12 79 -35v-213h17c77 0 172 141 172 214c0 22 40 33 80 33h17c43 0 83 -16 83 -38c0 -84 -57 -191 -156 -271c103 -85 166 -204 166 -291
c0 -21 -40 -37 -83 -37h-16c-40 0 -80 11 -80 33z" />
    <glyph glyph-name="K.alt" horiz-adv-x="648" 
d="M238 255h-2v-230c0 -22 -42 -34 -80 -34h-17c-37 0 -78 12 -78 34v565c0 22 42 38 80 38h16c37 0 79 -12 79 -35v-204h3c95 0 186 132 186 205c0 22 40 33 80 33h17c43 0 83 -16 83 -38c0 -96 -64 -198 -157 -263c42 -136 89 -177 129 -177c8 0 15 1 22 2
c24 3 40 -30 47 -66c6 -34 0 -72 -22 -81c-23 -8 -43 -14 -72 -14c-120 0 -197 70 -253 271c-20 -4 -40 -6 -61 -6z" />
    <glyph glyph-name="L" unicode="L" horiz-adv-x="504" 
d="M61 590c0 22 42 38 80 38h16c37 0 79 -12 79 -35v-453h234c19 0 31 -36 31 -68v-12c0 -32 -12 -65 -31 -65h-367c-25 0 -42 12 -42 34v561z" />
    <glyph glyph-name="L.alt" horiz-adv-x="543" 
d="M84 432c0 125 100 207 220 207c74 0 135 -21 173 -54c18 -12 23 -40 13 -73c-9 -33 -30 -51 -50 -45c-26 19 -55 40 -100 40s-82 -30 -82 -76c0 -51 21 -131 21 -201c0 -43 -21 -75 -52 -97h273c20 0 32 -34 32 -64v-12c0 -30 -12 -62 -32 -62h-465c-20 0 -35 32 -35 62
v13c0 29 11 63 31 63h23c33 16 51 35 51 77c0 48 -21 161 -21 222z" />
    <glyph glyph-name="M" unicode="M" horiz-adv-x="866" 
d="M221 24c0 -22 -34 -34 -73 -34h-16c-37 0 -71 12 -71 34v553c0 29 27 53 80 53h58c93 0 187 -96 241 -245c55 149 149 245 242 245h43c53 0 80 -24 80 -53v-553c0 -22 -34 -34 -71 -34h-16c-38 0 -73 12 -73 34v429c-91 -102 -133 -265 -136 -429c0 -22 -35 -34 -68 -34
h-18c-32 0 -66 12 -66 34c-3 164 -45 327 -136 429v-429z" />
    <glyph glyph-name="N" unicode="N" horiz-adv-x="705" 
d="M388 398c35 -87 66 -148 96 -191v388c0 22 35 35 73 35h16c37 0 71 -13 71 -35l-1 -557c0 -29 -33 -48 -71 -48h-26c-92 0 -171 72 -235 231c-36 85 -66 147 -96 191v-387c0 -22 -35 -35 -73 -35h-16c-38 0 -71 13 -71 35l1 557c0 29 33 48 71 48h26
c93 0 170 -75 235 -232z" />
    <glyph glyph-name="Ntilde" unicode="&#xd1;" horiz-adv-x="705" 
d="M166 665c-23 12 -32 30 -28 45c18 64 65 115 135 115c74 0 102 -48 149 -48c30 0 49 17 62 45c6 13 31 17 56 4c23 -12 32 -30 28 -45c-18 -64 -65 -116 -135 -116c-74 0 -102 49 -149 49c-30 0 -49 -17 -63 -45c-5 -13 -30 -17 -55 -4zM388 398c35 -87 66 -148 96 -191
v388c0 22 35 35 73 35h16c37 0 71 -13 71 -35l-1 -557c0 -29 -33 -48 -71 -48h-26c-92 0 -171 72 -235 231c-36 85 -66 147 -96 191v-387c0 -22 -35 -35 -73 -35h-16c-38 0 -71 13 -71 35l1 557c0 29 33 48 71 48h26c93 0 170 -75 235 -232z" />
    <glyph glyph-name="O" unicode="O" horiz-adv-x="725" 
d="M363 -20c-204 0 -329 139 -329 330s125 329 329 329c203 0 328 -138 328 -329s-125 -330 -328 -330zM362 109c97 0 150 74 150 200c0 116 -55 201 -150 201c-96 0 -149 -75 -149 -201c0 -117 55 -200 149 -200z" />
    <glyph glyph-name="O.alt" horiz-adv-x="725" 
d="M363 -20c-202 0 -329 140 -329 321c0 43 7 86 22 129c6 19 39 26 76 21c7 105 99 188 235 188c199 0 324 -138 324 -329s-125 -330 -328 -330zM321 263c-41 0 -78 9 -108 25c5 -102 60 -179 149 -179c97 0 150 74 150 200c0 116 -58 201 -149 201c-58 0 -83 -34 -83 -70
c0 -37 32 -66 79 -66c21 0 31 -24 26 -56c-6 -36 -21 -55 -64 -55z" />
    <glyph glyph-name="Oacute" unicode="&#xd3;" horiz-adv-x="725" 
d="M386 690c-13 -17 -31 -30 -65 -30h-14c-32 0 -56 11 -47 30l64 122c10 22 48 33 83 33h15c39 0 75 -18 62 -34zM363 -20c-204 0 -329 139 -329 330s125 329 329 329c203 0 328 -138 328 -329s-125 -330 -328 -330zM362 109c97 0 150 74 150 200c0 116 -55 201 -150 201
c-96 0 -149 -75 -149 -201c0 -117 55 -200 149 -200z" />
    <glyph glyph-name="Oacute.alt" horiz-adv-x="725" 
d="M381 690c-13 -17 -31 -30 -65 -30h-14c-32 0 -56 11 -47 30l64 122c10 22 48 33 83 33h15c39 0 75 -18 62 -34zM363 -20c-202 0 -329 140 -329 321c0 43 7 86 22 129c6 19 39 26 76 21c7 105 99 188 235 188c199 0 324 -138 324 -329s-125 -330 -328 -330zM321 263
c-41 0 -78 9 -108 25c5 -102 60 -179 149 -179c97 0 150 74 150 200c0 116 -58 201 -149 201c-58 0 -83 -34 -83 -70c0 -37 32 -66 79 -66c21 0 31 -24 26 -56c-6 -36 -21 -55 -64 -55z" />
    <glyph glyph-name="P" unicode="P" horiz-adv-x="585" 
d="M318 204h-82v-179c0 -22 -42 -34 -80 -34h-17c-37 0 -78 12 -78 34v573c0 22 17 27 42 27h213c144 0 247 -80 247 -211c0 -130 -100 -210 -245 -210zM296 504h-60v-179h63c56 0 92 39 92 89c0 52 -41 90 -95 90z" />
    <glyph glyph-name="Q" unicode="Q" horiz-adv-x="725" 
d="M363 -20c-204 0 -329 139 -329 330s125 329 329 329c203 0 328 -138 328 -329c0 -62 -13 -118 -38 -166c31 -41 49 -85 49 -123c0 -18 -29 -31 -58 -31h-17c-27 0 -57 9 -57 28c0 6 -2 14 -5 22c-53 -38 -122 -60 -202 -60zM362 109c41 0 73 13 98 37
c-31 19 -66 31 -100 31c-18 0 -32 26 -32 52v10c0 27 10 52 32 52c54 0 104 -12 149 -33c2 16 3 33 3 51c0 116 -55 201 -150 201c-96 0 -149 -75 -149 -201c0 -117 55 -200 149 -200z" />
    <glyph glyph-name="Q.alt" horiz-adv-x="723" 
d="M647 -161c-29 -9 -52 -12 -79 -12c-152 0 -338 89 -381 214c-5 11 -5 23 3 35c14 22 38 38 56 28c20 -11 44 -15 73 -15c102 0 193 95 193 218c0 120 -59 203 -156 203c-98 0 -147 -77 -147 -149s28 -119 76 -119c41 0 59 33 59 67c0 14 17 21 40 21c24 0 40 -9 43 -26
c16 -91 -58 -187 -181 -187c-131 0 -212 108 -212 242c0 151 125 280 328 280c204 0 329 -139 329 -330c0 -172 -131 -289 -306 -310c52 -29 117 -42 168 -42c27 0 48 4 67 8c26 7 44 -17 52 -54c6 -35 0 -64 -25 -72z" />
    <glyph glyph-name="R" unicode="R" horiz-adv-x="611" 
d="M61 598c0 22 17 27 42 27h213c144 0 247 -80 247 -211c0 -78 -36 -138 -97 -174c75 -65 114 -144 114 -212c0 -21 -39 -37 -78 -37h-17c-36 0 -75 11 -75 33c0 31 -28 105 -105 180h-69v-179c0 -22 -42 -34 -80 -34h-17c-37 0 -78 12 -78 34v573zM296 504h-60v-179h63
c56 0 92 39 92 89c0 52 -41 90 -95 90z" />
    <glyph glyph-name="R.alt" horiz-adv-x="617" 
d="M584 4c-23 -8 -43 -14 -72 -14c-108 0 -179 58 -229 214h-47v-179c0 -22 -42 -34 -80 -34h-17c-37 0 -78 12 -78 34v573c0 22 17 27 42 27h213c144 0 247 -80 247 -211c0 -85 -43 -149 -113 -183c28 -61 58 -82 87 -82c8 0 15 1 22 2c24 3 40 -30 47 -66
c6 -34 0 -72 -22 -81zM296 504h-60v-179h63c56 0 92 39 92 89c0 52 -41 90 -95 90z" />
    <glyph glyph-name="S" unicode="S" horiz-adv-x="564" 
d="M271 -20c-110 0 -187 36 -224 74c-21 16 -21 50 -9 81c11 32 39 62 63 48c30 -25 88 -68 158 -68c60 0 101 27 101 64c0 44 -56 52 -150 72c-108 23 -166 81 -166 181c0 124 106 207 262 207c86 0 159 -30 196 -69c21 -18 23 -47 13 -79c-11 -33 -45 -62 -69 -49
c-30 25 -77 61 -142 61c-62 0 -96 -24 -96 -60c0 -45 66 -50 160 -70c110 -22 166 -84 166 -183c0 -125 -111 -210 -263 -210z" />
    <glyph glyph-name="T" unicode="T" horiz-adv-x="589" 
d="M38 480c-20 0 -35 34 -35 65v14c0 30 11 66 32 66h519c20 0 32 -36 32 -68v-12c0 -32 -12 -65 -32 -65h-172v-456c0 -22 -42 -34 -80 -34h-17c-37 0 -78 12 -78 34v456h-169z" />
    <glyph glyph-name="U" unicode="U" horiz-adv-x="689" 
d="M344 -20c-168 0 -286 102 -286 247v366c0 23 41 35 78 35h17c38 0 79 -16 79 -38v-357c0 -57 49 -107 112 -107s113 50 113 107v357c0 22 42 38 80 38h16c37 0 79 -12 79 -35v-366c0 -145 -119 -247 -288 -247z" />
    <glyph glyph-name="Uacute" unicode="&#xda;" horiz-adv-x="689" 
d="M378 690c-13 -17 -31 -30 -65 -30h-14c-32 0 -56 11 -47 30l64 122c10 22 48 33 83 33h15c39 0 75 -18 62 -34zM344 -20c-168 0 -286 102 -286 247v366c0 23 41 35 78 35h17c38 0 79 -16 79 -38v-357c0 -57 49 -107 112 -107s113 50 113 107v357c0 22 42 38 80 38h16
c37 0 79 -12 79 -35v-366c0 -145 -119 -247 -288 -247z" />
    <glyph glyph-name="Udieresis" unicode="&#xdc;" horiz-adv-x="689" 
d="M246 662c-52 0 -83 31 -83 76c0 43 31 74 83 74c53 0 83 -31 83 -74c0 -45 -30 -76 -83 -76zM448 662c-52 0 -83 31 -83 76c0 43 31 74 83 74c53 0 83 -31 83 -74c0 -45 -30 -76 -83 -76zM344 -20c-168 0 -286 102 -286 247v366c0 23 41 35 78 35h17c38 0 79 -16 79 -38
v-357c0 -57 49 -107 112 -107s113 50 113 107v357c0 22 42 38 80 38h16c37 0 79 -12 79 -35v-366c0 -145 -119 -247 -288 -247z" />
    <glyph glyph-name="V" unicode="V" horiz-adv-x="656" 
d="M441 17c-17 -20 -66 -27 -121 -27c-52 0 -96 8 -111 28c-78 91 -192 422 -192 573c0 22 40 37 78 37h20c36 0 75 -11 75 -33c0 -82 63 -322 144 -463c79 147 143 382 143 463c0 21 38 33 70 33h19c33 0 73 -15 73 -37c0 -149 -114 -482 -198 -574z" />
    <glyph glyph-name="W" unicode="W" horiz-adv-x="995" 
d="M832 17c-16 -19 -60 -27 -112 -27c-54 0 -110 9 -116 34l-107 387l-106 -387c-6 -25 -62 -34 -116 -34c-52 0 -96 8 -112 27c-77 103 -136 372 -136 574c0 22 41 37 78 37h20c36 0 75 -11 75 -33c0 -115 18 -293 75 -427l113 421c5 25 49 39 113 39c63 0 100 -16 105 -39
l114 -422c57 135 75 313 75 428c0 22 39 33 75 33h20c37 0 78 -15 78 -37c0 -202 -59 -471 -136 -574z" />
    <glyph glyph-name="X" unicode="X" horiz-adv-x="664" 
d="M210 24c0 -22 -40 -33 -80 -33h-16c-43 0 -83 16 -83 37c0 95 64 194 177 282c-101 89 -167 186 -167 280c0 22 40 38 83 38h16c41 0 81 -12 81 -33c0 -42 24 -99 112 -177c85 73 110 137 110 177c0 21 40 33 80 33h17c43 0 83 -16 83 -38c0 -92 -62 -182 -170 -268
c107 -92 180 -190 180 -294c0 -21 -40 -37 -83 -37h-16c-40 0 -80 11 -80 33c0 44 -30 105 -122 186c-90 -78 -122 -144 -122 -186z" />
    <glyph glyph-name="Y" unicode="Y" horiz-adv-x="625" 
d="M399 24c0 -22 -42 -34 -81 -34h-16c-37 0 -78 12 -78 34v184c-125 106 -205 283 -205 382c0 22 37 38 80 38h17c40 0 77 -12 77 -33c0 -41 34 -143 120 -239c85 96 120 198 120 239c0 21 37 33 77 33h16c43 0 81 -16 81 -38c0 -100 -82 -278 -208 -384v-182z" />
    <glyph glyph-name="Z" unicode="Z" horiz-adv-x="608" 
d="M564 545c0 -181 -260 -282 -339 -405h321c20 0 31 -36 31 -68v-12c0 -32 -11 -65 -31 -65h-480c-20 0 -35 34 -35 65v14c0 186 260 287 339 406h-291c-20 0 -35 34 -35 65v14c0 30 10 66 31 66h458c20 0 31 -36 31 -68v-12z" />
    <glyph glyph-name="a" unicode="a" horiz-adv-x="619" 
d="M567 23c0 -22 -40 -33 -77 -33h-16c-35 0 -74 11 -74 33v41c-37 -49 -95 -77 -162 -77c-124 0 -212 88 -212 241c0 154 99 253 222 253c63 0 117 -23 152 -67v32c0 21 39 33 75 33h16c37 0 76 -12 76 -33v-423zM297 375c-66 0 -110 -55 -110 -140s42 -138 107 -138
c61 0 106 49 106 120v42c0 70 -44 116 -103 116z" />
    <glyph glyph-name="a.alt" horiz-adv-x="647" 
d="M238 -13c-124 0 -212 88 -212 241c0 154 99 253 222 253c63 0 117 -23 152 -67v32c0 22 39 33 75 33h16c37 0 76 -11 76 -33v-297c0 -32 15 -43 48 -43c19 0 30 -18 30 -46c0 -36 -34 -70 -100 -70h-19c-67 0 -108 33 -121 81c-36 -53 -97 -84 -167 -84zM187 235
c0 -85 42 -138 107 -138c61 0 106 49 106 120v42c0 70 -44 116 -103 116c-66 0 -110 -55 -110 -140z" />
    <glyph glyph-name="aacute" unicode="&#xe1;" horiz-adv-x="619" 
d="M357 548c-12 -16 -31 -30 -65 -30h-14c-32 0 -55 11 -47 30l61 135c9 22 48 33 83 33h14c39 0 75 -17 63 -33zM567 23c0 -22 -40 -33 -77 -33h-16c-35 0 -74 11 -74 33v41c-37 -49 -95 -77 -162 -77c-124 0 -212 88 -212 241c0 154 99 253 222 253c63 0 117 -23 152 -67
v32c0 21 39 33 75 33h16c37 0 76 -12 76 -33v-423zM297 375c-66 0 -110 -55 -110 -140s42 -138 107 -138c61 0 106 49 106 120v42c0 70 -44 116 -103 116z" />
    <glyph glyph-name="aacute.alt" horiz-adv-x="647" 
d="M357 548c-12 -16 -31 -30 -65 -30h-14c-32 0 -55 11 -47 30l61 135c9 22 48 33 83 33h14c39 0 75 -17 63 -33zM238 -13c-124 0 -212 88 -212 241c0 154 99 253 222 253c63 0 117 -23 152 -67v32c0 22 39 33 75 33h16c37 0 76 -11 76 -33v-297c0 -32 15 -43 48 -43
c19 0 30 -18 30 -46c0 -36 -34 -70 -100 -70h-19c-67 0 -108 33 -121 81c-36 -53 -97 -84 -167 -84zM187 235c0 -85 42 -138 107 -138c61 0 106 49 106 120v42c0 70 -44 116 -103 116c-66 0 -110 -55 -110 -140z" />
    <glyph glyph-name="acute" unicode="&#xb4;" 
d="M264 548c-12 -16 -31 -30 -65 -30h-14c-32 0 -55 11 -47 30l61 135c9 22 48 33 83 33h14c39 0 75 -17 63 -33z" />
    <glyph glyph-name="acute.cap" 
d="M264 690c-13 -17 -31 -30 -65 -30h-14c-32 0 -56 11 -47 30l64 122c10 22 48 33 83 33h15c39 0 75 -18 62 -34z" />
    <glyph glyph-name="ampersand" unicode="&#x26;" horiz-adv-x="675" 
d="M574 -8c-26 20 -50 39 -72 57c-62 -46 -139 -68 -217 -68c-165 0 -267 76 -267 189c0 71 37 128 109 159c-43 42 -55 81 -55 124c0 112 105 187 255 187c85 0 156 -30 193 -70c19 -17 22 -47 12 -78c-10 -34 -44 -62 -67 -49c-30 25 -76 61 -141 61
c-57 0 -91 -23 -91 -57c0 -29 13 -48 92 -95c47 -26 94 -57 155 -101c10 28 15 61 15 97c0 25 35 37 72 37c35 -1 69 -13 69 -38c0 -73 -14 -134 -39 -184c18 -14 37 -30 58 -46c22 -16 20 -55 -1 -89c-20 -32 -57 -53 -80 -36zM177 191c0 -46 51 -85 121 -85
c33 0 66 10 95 28c-68 52 -120 90 -174 126c-28 -19 -42 -44 -42 -69z" />
    <glyph glyph-name="asciitilde" unicode="~" horiz-adv-x="572" 
d="M388 189c-98 0 -128 63 -192 63c-43 0 -64 -25 -83 -64c-8 -17 -39 -23 -70 -6c-29 15 -43 38 -38 57c24 81 85 148 178 148c98 0 129 -62 192 -62c44 0 65 24 83 64c8 16 39 22 71 5c29 -16 42 -38 38 -56c-24 -82 -85 -149 -179 -149z" />
    <glyph glyph-name="asterisk" unicode="*" horiz-adv-x="407" 
d="M156 284c-8 -14 -39 -3 -61 13l-10 6c-23 18 -39 42 -28 55l53 59l-78 20c-16 4 -15 36 -7 62l4 11c9 28 27 51 42 43l77 -35l-8 88c-2 16 30 26 58 26h11c29 0 55 -11 54 -27l-9 -89l82 37c15 8 33 -15 42 -43l3 -11c9 -26 10 -58 -7 -62l-77 -20l52 -59
c11 -13 -4 -38 -28 -54l-9 -7c-23 -14 -53 -27 -62 -13l-47 80z" />
    <glyph glyph-name="at" unicode="@" horiz-adv-x="886" 
d="M391 77c-93 0 -163 64 -163 182c0 120 80 192 170 192c48 0 92 -17 120 -51v24c0 17 29 26 57 26h13c28 0 57 -9 57 -26v-208c0 -27 14 -37 36 -37c25 0 48 36 48 114c0 155 -105 231 -283 231c-185 0 -288 -110 -288 -268c0 -165 117 -252 264 -252c56 0 104 9 153 29
c20 7 38 -13 47 -39c10 -28 5 -53 -17 -63c-52 -28 -111 -41 -183 -41c-228 0 -388 126 -388 363c0 224 174 386 412 386c259 0 406 -128 406 -338c0 -160 -108 -224 -198 -224c-67 0 -115 26 -130 66c-30 -43 -79 -66 -133 -66zM351 264c0 -67 37 -104 83 -104
c44 0 84 35 84 91v32c0 55 -39 87 -82 87c-46 0 -85 -38 -85 -106z" />
    <glyph glyph-name="b" unicode="b" horiz-adv-x="619" 
d="M219 37c0 -29 -40 -47 -77 -47h-16c-35 0 -74 11 -74 32v606c0 22 40 33 75 33h16c37 0 76 -11 76 -33v-224c37 49 95 77 162 77c124 0 211 -89 211 -241c0 -154 -98 -253 -221 -253c-63 0 -117 23 -152 68v-18zM321 94c67 0 110 55 110 140s-41 138 -106 138
c-61 0 -106 -49 -106 -121v-41c0 -70 43 -116 102 -116z" />
    <glyph glyph-name="backslash" unicode="\" horiz-adv-x="418" 
d="M155 595l257 -563c10 -22 -13 -42 -51 -42h-16c-38 0 -70 7 -82 35l-257 562c-9 22 14 43 51 43h16c38 0 70 -7 82 -35z" />
    <glyph glyph-name="bar" unicode="|" horiz-adv-x="277" 
d="M61 592c0 21 35 36 70 36h15c35 0 70 -11 70 -32v-694c0 -20 -36 -31 -71 -31h-15c-34 0 -69 11 -69 31v690z" />
    <glyph glyph-name="braceleft" unicode="{" horiz-adv-x="320" 
d="M271 604c18 -31 23 -68 7 -74c-34 -16 -51 -33 -51 -66c0 -41 7 -76 7 -135c0 -36 -27 -68 -62 -89c35 -21 62 -53 62 -88c0 -60 -7 -95 -7 -137c0 -32 17 -49 51 -65c16 -7 11 -43 -7 -75c-15 -27 -38 -51 -59 -47c-70 19 -127 67 -127 142c0 74 13 102 13 151
c0 30 -15 52 -43 58c-30 4 -30 119 0 122c28 6 43 28 43 59c0 48 -13 76 -13 150c0 75 57 123 127 141c21 5 44 -18 59 -47z" />
    <glyph glyph-name="braceright" unicode="}" horiz-adv-x="320" 
d="M49 -124c-18 31 -23 68 -7 74c34 16 51 33 51 66c0 41 -7 76 -7 135c0 36 27 68 62 89c-35 21 -62 53 -62 88c0 60 7 95 7 137c0 32 -17 49 -51 65c-16 7 -11 43 7 75c15 27 38 51 59 47c70 -19 127 -67 127 -142c0 -74 -13 -102 -13 -151c0 -30 15 -52 43 -58
c30 -4 30 -119 0 -122c-28 -6 -43 -28 -43 -59c0 -48 13 -76 13 -150c0 -75 -57 -123 -127 -141c-21 -5 -44 18 -59 47z" />
    <glyph glyph-name="bracketleft" unicode="[" horiz-adv-x="306" 
d="M60 -137v750c0 22 14 33 34 33h170c21 0 32 -33 32 -61v-13c0 -30 -15 -62 -35 -62h-60v-545h60c20 0 35 -32 35 -61v-13c0 -28 -11 -61 -32 -61h-170c-20 0 -34 11 -34 33z" />
    <glyph glyph-name="bracketright" unicode="]" horiz-adv-x="306" 
d="M246 613v-750c0 -22 -14 -33 -34 -33h-170c-21 0 -32 33 -32 61v13c0 30 15 62 35 62h60v545h-60c-20 0 -35 32 -35 61v13c0 28 11 61 32 61h170c20 0 34 -11 34 -33z" />
    <glyph glyph-name="brokenbar" unicode="&#xa6;" horiz-adv-x="277" 
d="M61 592c0 21 35 36 70 36h15c35 0 70 -11 70 -32v-259c0 -21 -36 -32 -71 -32h-15c-34 0 -69 11 -69 32v255zM61 158c0 21 35 36 70 36h15c35 0 70 -12 70 -32v-260c0 -20 -36 -31 -71 -31h-15c-34 0 -69 11 -69 31v256z" />
    <glyph glyph-name="c" unicode="c" horiz-adv-x="513" 
d="M289 -20c-170 0 -263 115 -263 253c0 140 100 256 270 256c76 0 131 -23 165 -55c21 -16 28 -51 13 -77s-38 -45 -59 -32c-29 24 -62 42 -106 42c-68 0 -122 -49 -122 -132c0 -82 56 -134 123 -134c53 0 82 21 115 50c19 12 46 -4 60 -32c14 -29 4 -59 -15 -76
c-39 -39 -97 -63 -181 -63z" />
    <glyph glyph-name="cent" unicode="&#xa2;" horiz-adv-x="513" 
d="M367 -116c1 -22 -39 -34 -75 -34h-14c-39 0 -73 14 -72 34l8 104c-122 29 -188 129 -188 245c0 115 68 215 187 246l-7 106c-1 22 40 33 75 33h15c38 0 72 -13 71 -34l-8 -101c45 -9 78 -27 102 -49c21 -16 28 -51 13 -77s-38 -45 -59 -32c-29 24 -62 42 -106 42
c-68 0 -122 -49 -122 -132c0 -82 56 -134 123 -134c53 0 82 21 115 50c19 12 46 -4 60 -32c14 -29 4 -59 -15 -76c-27 -27 -63 -47 -110 -56z" />
    <glyph glyph-name="colon" unicode=":" horiz-adv-x="228" 
d="M113 236c-57 0 -91 34 -91 84c0 48 34 82 91 82c59 0 93 -34 93 -82c0 -50 -34 -84 -93 -84zM113 -10c-57 0 -91 34 -91 84c0 48 34 82 91 82c59 0 93 -34 93 -82c0 -50 -34 -84 -93 -84z" />
    <glyph glyph-name="comma" unicode="," horiz-adv-x="228" 
d="M147 -98c-5 -20 -24 -30 -58 -30h-14c-32 0 -56 10 -54 30l17 221c2 22 40 33 75 33h15c38 0 76 -14 71 -34z" />
    <glyph glyph-name="copyright" unicode="&#xa9;" horiz-adv-x="719" 
d="M360 -19c-181 0 -329 148 -329 329c0 180 148 329 329 329c180 0 329 -149 329 -329c0 -181 -149 -329 -329 -329zM360 61c137 0 248 112 248 249s-111 249 -248 249s-250 -112 -250 -249s113 -249 250 -249zM506 426c4 -15 -8 -32 -29 -43c-21 -12 -41 -9 -47 1
c-15 20 -36 32 -64 32c-48 0 -81 -39 -81 -105c0 -59 34 -104 81 -104c32 0 57 16 71 43c5 11 24 14 48 4c22 -10 33 -25 30 -38c-17 -55 -77 -93 -154 -93c-117 0 -186 79 -186 189s72 189 189 189c67 0 126 -31 142 -75z" />
    <glyph glyph-name="currency" unicode="&#xa4;" horiz-adv-x="655" 
d="M328 0c-54 0 -104 15 -146 41l-56 -55c-14 -14 -45 1 -66 22l-9 9c-20 21 -33 54 -18 68l53 53c-25 42 -39 91 -39 143c0 53 15 102 40 144l-54 54c-15 15 1 46 22 67l8 9c22 21 52 35 65 21l55 -55c43 25 92 40 145 40c52 0 101 -14 143 -40l55 55c14 14 44 0 65 -21
l9 -9c21 -21 37 -52 22 -67l-54 -54c26 -42 41 -91 41 -144c0 -52 -15 -101 -40 -144l53 -52c15 -14 2 -47 -18 -68l-10 -9c-20 -21 -51 -36 -65 -22l-56 55c-42 -26 -92 -41 -145 -41zM328 126c86 0 156 70 156 155c0 86 -70 156 -156 156c-85 0 -155 -70 -155 -156
c0 -85 70 -155 155 -155z" />
    <glyph glyph-name="d" unicode="d" horiz-adv-x="619" 
d="M567 22c0 -21 -40 -32 -77 -32h-16c-35 0 -74 11 -74 32v42c-37 -49 -95 -77 -162 -77c-124 0 -212 88 -212 241c0 154 99 253 222 253c63 0 117 -23 152 -67v214c0 22 39 33 75 33h16c37 0 76 -12 76 -33v-606zM297 375c-66 0 -110 -55 -110 -140s42 -138 107 -138
c61 0 106 49 106 120v42c0 70 -44 116 -103 116z" />
    <glyph glyph-name="d.alt" horiz-adv-x="647" 
d="M567 149c0 -32 16 -43 48 -43c19 0 30 -18 30 -46c0 -36 -34 -70 -100 -70h-19c-67 0 -108 33 -121 81c-36 -53 -97 -84 -167 -84c-124 0 -212 88 -212 241c0 154 99 253 222 253c63 0 117 -23 152 -67v214c0 22 40 33 75 33h16c37 0 76 -11 76 -33v-479zM297 375
c-66 0 -110 -55 -110 -140s42 -138 107 -138c61 0 106 49 106 120v42c0 70 -44 116 -103 116z" />
    <glyph glyph-name="dieresis" unicode="&#xa8;" 
d="M149 533c-52 0 -83 31 -83 76c0 43 31 74 83 74c53 0 83 -31 83 -74c0 -45 -30 -76 -83 -76zM351 533c-52 0 -83 31 -83 76c0 43 31 74 83 74c53 0 83 -31 83 -74c0 -45 -30 -76 -83 -76z" />
    <glyph glyph-name="dieresis.cap" 
d="M149 662c-52 0 -83 31 -83 76c0 43 31 74 83 74c53 0 83 -31 83 -74c0 -45 -30 -76 -83 -76zM351 662c-52 0 -83 31 -83 76c0 43 31 74 83 74c53 0 83 -31 83 -74c0 -45 -30 -76 -83 -76z" />
    <glyph glyph-name="divide" unicode="&#xf7;" 
d="M252 364c-50 0 -81 30 -81 74c0 43 31 73 81 73c52 0 82 -30 82 -73c0 -44 -30 -74 -82 -74zM63 192c-20 0 -35 31 -35 61v13c0 28 10 62 31 62h382c20 0 31 -34 31 -63v-13c0 -29 -11 -60 -31 -60h-378zM252 15c-50 0 -81 30 -81 74c0 43 31 73 81 73
c52 0 82 -30 82 -73c0 -44 -30 -74 -82 -74z" />
    <glyph glyph-name="dollar" unicode="$" horiz-adv-x="564" 
d="M364 -108c1 -21 -39 -33 -75 -33h-14c-39 0 -73 14 -71 34l6 91c-78 10 -133 39 -163 70c-21 16 -21 50 -9 81c11 32 39 62 63 48c30 -25 88 -68 158 -68c60 0 101 27 101 64c0 44 -56 52 -150 72c-108 23 -166 81 -166 181c0 97 65 169 169 196l-7 100
c-1 22 40 33 75 33h15c38 0 72 -13 71 -34l-7 -92c62 -10 113 -35 142 -65c21 -18 23 -47 13 -79c-11 -33 -45 -62 -69 -49c-30 25 -77 61 -142 61c-62 0 -96 -24 -96 -60c0 -45 66 -50 160 -70c110 -22 166 -84 166 -183c0 -100 -71 -174 -177 -200z" />
    <glyph glyph-name="e" unicode="e" horiz-adv-x="550" 
d="M299 -20c-183 0 -273 120 -273 256s89 253 253 253c147 0 239 -90 237 -235c0 -17 -1 -36 -5 -56h-329c12 -61 51 -101 138 -101c55 0 99 25 131 54c19 10 41 -11 51 -36c10 -26 7 -53 -11 -67c-41 -41 -103 -68 -192 -68zM283 382c-58 0 -91 -40 -101 -100h194
c-9 60 -40 100 -93 100z" />
    <glyph glyph-name="e.alt" horiz-adv-x="539" 
d="M291 -20c-187 0 -265 119 -265 255c0 143 96 254 259 254c146 0 221 -75 221 -162c0 -83 -64 -143 -208 -143c-39 0 -79 6 -116 15c12 -61 54 -103 142 -103c52 0 96 16 131 38c19 11 42 -13 51 -36c7 -25 4 -50 -16 -64c-41 -32 -111 -54 -199 -54zM285 382
c-60 0 -93 -40 -103 -100c32 -7 65 -10 93 -10c53 0 91 20 91 52c0 29 -26 58 -81 58z" />
    <glyph glyph-name="eacute" unicode="&#xe9;" horiz-adv-x="550" 
d="M310 548c-12 -16 -31 -30 -65 -30h-14c-32 0 -55 11 -47 30l61 135c9 22 48 33 83 33h14c39 0 75 -17 63 -33zM299 -20c-183 0 -273 120 -273 256s89 253 253 253c147 0 239 -90 237 -235c0 -17 -1 -36 -5 -56h-329c12 -61 51 -101 138 -101c55 0 99 25 131 54
c19 10 41 -11 51 -36c10 -26 7 -53 -11 -67c-41 -41 -103 -68 -192 -68zM283 382c-58 0 -91 -40 -101 -100h194c-9 60 -40 100 -93 100z" />
    <glyph glyph-name="eacute.alt" horiz-adv-x="539" 
d="M318 548c-12 -16 -31 -30 -65 -30h-14c-32 0 -55 11 -47 30l61 135c9 22 48 33 83 33h14c39 0 75 -17 63 -33zM291 -20c-187 0 -265 119 -265 255c0 143 96 254 259 254c146 0 221 -75 221 -162c0 -83 -64 -143 -208 -143c-39 0 -79 6 -116 15c12 -61 54 -103 142 -103
c52 0 96 16 131 38c19 11 42 -13 51 -36c7 -25 4 -50 -16 -64c-41 -32 -111 -54 -199 -54zM285 382c-60 0 -93 -40 -103 -100c32 -7 65 -10 93 -10c53 0 91 20 91 52c0 29 -26 58 -81 58z" />
    <glyph glyph-name="eight" unicode="8" horiz-adv-x="588" 
d="M562 174c0 -110 -105 -194 -275 -194c-162 0 -261 82 -261 192c0 65 35 121 98 156c-54 29 -80 76 -80 133c0 102 87 178 250 178c161 0 250 -72 250 -174c0 -57 -30 -104 -85 -134c66 -33 103 -89 103 -157zM294 371c62 0 92 37 92 78c0 45 -32 79 -92 79
c-63 0 -92 -39 -92 -79c0 -45 32 -78 92 -78zM294 97c67 0 104 43 104 91c0 52 -39 92 -104 92c-67 0 -104 -45 -104 -92c0 -53 40 -91 104 -91z" />
    <glyph glyph-name="eight.dnom" horiz-adv-x="316" 
d="M303 89c0 -56 -57 -99 -149 -99c-87 0 -141 41 -141 97c0 33 18 60 50 78c-27 15 -40 37 -40 66c0 52 47 90 135 90s135 -36 135 -88c0 -28 -15 -51 -43 -67c34 -16 53 -43 53 -77zM159 188c29 0 45 17 45 36c0 20 -16 36 -45 36c-31 0 -46 -18 -46 -36
c0 -21 16 -36 46 -36zM159 56c32 0 50 18 50 40c0 25 -19 42 -50 42c-33 0 -52 -21 -52 -42c0 -24 20 -40 52 -40z" />
    <glyph glyph-name="eight.numr" horiz-adv-x="316" 
d="M303 406c0 -56 -57 -99 -149 -99c-87 0 -141 41 -141 97c0 33 18 60 50 78c-27 15 -40 37 -40 66c0 52 47 90 135 90s135 -36 135 -88c0 -28 -15 -51 -43 -67c34 -16 53 -43 53 -77zM159 505c29 0 45 17 45 36c0 20 -16 36 -45 36c-31 0 -46 -18 -46 -36
c0 -21 16 -36 46 -36zM159 373c32 0 50 18 50 40c0 25 -19 42 -50 42c-33 0 -52 -21 -52 -42c0 -24 20 -40 52 -40z" />
    <glyph glyph-name="equal" unicode="=" 
d="M63 287c-20 0 -35 31 -35 61v13c0 28 10 62 31 62h382c20 0 31 -34 31 -63v-13c0 -29 -11 -60 -31 -60h-378zM63 96c-20 0 -35 31 -35 61v13c0 28 10 62 31 62h382c20 0 31 -34 31 -63v-13c0 -29 -11 -60 -31 -60h-378z" />
    <glyph glyph-name="exclam" unicode="!" horiz-adv-x="293" 
d="M52 590c-1 22 42 38 87 38h16c45 0 87 -12 86 -35l-17 -370c-1 -22 -32 -34 -70 -34h-17c-37 0 -67 12 -68 34zM145 -10c-57 0 -91 32 -91 79c0 45 34 78 91 78c59 0 93 -33 93 -78c0 -47 -34 -79 -93 -79z" />
    <glyph glyph-name="exclamdown" unicode="&#xa1;" horiz-adv-x="293" 
d="M148 488c57 0 91 -32 91 -79c0 -45 -34 -78 -91 -78c-59 0 -93 33 -93 78c0 47 34 79 93 79zM241 -112c1 -22 -42 -38 -87 -38h-16c-45 0 -87 12 -86 35l17 370c1 22 32 34 70 34h17c37 0 67 -12 68 -34z" />
    <glyph glyph-name="f" unicode="f" horiz-adv-x="348" 
d="M37 333c-20 0 -35 32 -35 61v14c0 28 11 61 32 61h37v32c0 112 86 169 194 169c39 0 69 -6 92 -15c22 -9 36 -34 30 -68c-7 -33 -28 -47 -48 -42c-12 3 -26 8 -46 8c-33 0 -54 -24 -54 -57v-27h79c20 0 31 -33 31 -63v-12c0 -30 -11 -61 -31 -61h-79v-311
c0 -21 -40 -32 -76 -32h-16c-37 0 -76 11 -76 32v311h-34z" />
    <glyph glyph-name="f.alt" horiz-adv-x="352" 
d="M37 333c-20 0 -35 32 -35 61v14c0 28 11 61 32 61h37v32c0 112 86 169 194 169c39 0 69 -6 92 -15c22 -9 36 -34 30 -68c-7 -33 -28 -47 -48 -42c-12 3 -26 8 -46 8c-33 0 -54 -24 -54 -57v-27h79c20 0 31 -33 31 -63v-12c0 -30 -11 -61 -31 -61h-79v-481
c0 -22 -40 -33 -76 -33h-16c-37 0 -76 11 -76 33v481h-34z" />
    <glyph glyph-name="f_t" horiz-adv-x="649" 
d="M37 333c-20 0 -35 32 -35 61v14c0 28 11 61 32 61h37v39c0 112 86 169 194 169c39 0 69 -5 92 -14c22 -9 36 -33 30 -66c-7 -33 -28 -47 -48 -43c-12 3 -26 6 -46 6c-33 0 -54 -23 -54 -57v-34h163v56c0 22 40 36 76 36h16c36 0 75 -11 75 -33v-59h51c20 0 32 -33 32 -63
v-12c0 -30 -12 -61 -32 -61h-51v-311c0 -21 -39 -32 -77 -32h-16c-35 0 -74 11 -74 32v311h-163v-311c0 -21 -40 -32 -76 -32h-16c-37 0 -76 11 -76 32v311h-34z" />
    <glyph glyph-name="five" unicode="5" horiz-adv-x="535" 
d="M240 -20c-83 0 -157 24 -195 61c-20 18 -22 47 -12 77c11 33 42 57 66 45c31 -24 73 -50 134 -50c67 0 114 40 114 96s-48 94 -120 94c-46 0 -81 -16 -111 -39c-17 -11 -40 -5 -55 6c-16 12 -25 28 -22 51l25 277c3 22 17 27 42 27h355c20 0 31 -32 31 -60v-11
c0 -28 -11 -58 -31 -58h-264l-9 -96c28 8 61 12 103 12c129 0 221 -77 221 -207c0 -131 -105 -225 -272 -225z" />
    <glyph glyph-name="five.dnom" horiz-adv-x="286" 
d="M128 -10c-44 0 -84 11 -104 29c-12 9 -13 26 -7 42c5 18 23 32 37 26c17 -10 38 -23 70 -23s56 18 56 42c0 26 -25 41 -60 41c-23 0 -41 -7 -57 -17c-10 -6 -22 -3 -31 3c-9 7 -14 15 -13 28l14 139c1 12 9 14 24 14h190c11 0 18 -17 18 -33v-6c0 -16 -7 -32 -18 -32
h-139l-4 -40c15 3 32 5 53 5c68 0 118 -37 118 -104s-58 -114 -147 -114z" />
    <glyph glyph-name="five.numr" horiz-adv-x="289" 
d="M128 307c-44 0 -84 11 -104 29c-12 9 -13 26 -7 42c5 18 23 32 37 26c17 -10 38 -23 70 -23s56 18 56 42c0 26 -25 41 -60 41c-23 0 -41 -7 -57 -17c-10 -6 -22 -3 -31 3c-9 7 -14 15 -13 28l14 139c1 12 9 14 24 14h190c11 0 18 -17 18 -33v-6c0 -16 -7 -32 -18 -32
h-139l-4 -40c15 3 32 5 53 5c68 0 118 -37 118 -104s-58 -114 -147 -114z" />
    <glyph glyph-name="four" unicode="4" horiz-adv-x="586" 
d="M488 24c0 -22 -35 -34 -73 -34h-16c-38 0 -71 12 -71 34v65h-286c-20 0 -39 28 -39 62v13c0 26 4 48 13 70c45 126 141 265 244 356c24 25 64 41 104 41h60c37 0 64 -12 64 -35v-379h66c20 0 32 -32 32 -60v-11c0 -28 -12 -57 -32 -57h-66v-65zM144 217h184v278
c-73 -61 -151 -179 -184 -278z" />
    <glyph glyph-name="four.dnom" horiz-adv-x="315" 
d="M265 14c0 -12 -20 -19 -43 -19h-8c-22 0 -41 7 -41 19v28h-150c-11 0 -22 16 -22 34v7c0 15 3 27 7 40c24 60 73 124 125 171c14 14 37 24 61 24h34c21 0 37 -7 37 -20v-185h32c12 0 18 -17 18 -32v-7c0 -15 -6 -32 -18 -32h-32v-28zM82 113h91v129
c-36 -29 -74 -83 -91 -129z" />
    <glyph glyph-name="four.numr" horiz-adv-x="315" 
d="M265 331c0 -12 -20 -19 -43 -19h-8c-22 0 -41 7 -41 19v28h-150c-11 0 -22 16 -22 34v7c0 15 3 27 7 40c24 60 73 124 125 171c14 14 37 24 61 24h34c21 0 37 -7 37 -20v-185h32c12 0 18 -17 18 -32v-7c0 -15 -6 -32 -18 -32h-32v-28zM82 430h91v129
c-36 -29 -74 -83 -91 -129z" />
    <glyph glyph-name="fraction" unicode="&#x2044;" horiz-adv-x="152" 
d="M191 595c17 26 37 35 75 35h16c38 0 57 -22 44 -43l-366 -562c-17 -26 -36 -35 -74 -35h-17c-37 0 -57 21 -43 42z" />
    <glyph glyph-name="g" unicode="g" horiz-adv-x="619" 
d="M400 38v39c-37 -48 -95 -75 -162 -75c-124 0 -212 86 -212 233c0 150 99 246 222 246c63 0 117 -22 152 -65v30c0 21 39 33 75 33h16c37 0 76 -12 76 -33v-407c0 -135 -126 -229 -293 -229c-64 0 -119 11 -162 33c-22 10 -39 34 -32 67c6 33 27 50 48 42
c28 -13 69 -25 124 -25c81 0 148 41 148 111zM297 379c-66 0 -110 -54 -110 -137s42 -135 107 -135c61 0 106 48 106 118v40c0 69 -44 114 -103 114z" />
    <glyph glyph-name="g.alt" horiz-adv-x="588" 
d="M287 8c-170 0 -261 102 -261 241s98 240 268 240c41 0 78 -6 110 -17c11 27 33 60 47 82c13 21 41 23 75 4l12 -7c32 -18 51 -38 36 -60c-13 -20 -48 -56 -74 -78c40 -42 62 -99 62 -164c0 -78 -33 -144 -91 -187c50 -15 87 -50 87 -108c0 -73 -90 -144 -281 -144
c-91 0 -153 14 -195 36c-23 10 -42 37 -35 70s29 50 51 42c30 -13 78 -31 155 -31c91 0 144 23 144 56c0 17 -10 28 -27 34c-25 -6 -53 -9 -83 -9zM294 119c67 0 107 46 107 131c0 77 -40 131 -107 131s-107 -48 -107 -132c0 -77 40 -130 107 -130z" />
    <glyph glyph-name="greater" unicode="&#x3e;" 
d="M61 52l-7 11c-15 26 -20 60 -3 68l237 128l-237 127c-17 9 -12 43 3 69l7 11c14 25 40 48 58 38l326 -184c15 -8 21 -38 21 -61s-6 -53 -21 -62l-326 -184c-18 -9 -44 13 -58 39z" />
    <glyph glyph-name="guillemetleft" unicode="&#xab;" horiz-adv-x="416" 
d="M20 321l71 130c10 22 36 28 67 28h14c31 0 50 -17 42 -33l-78 -148l77 -149c9 -16 -10 -32 -41 -32h-14c-32 0 -57 5 -68 27l-70 129c-8 15 -9 32 0 48zM199 321l70 130c11 22 37 28 68 28h14c31 0 50 -17 42 -33l-78 -148l77 -149c9 -16 -11 -32 -42 -32h-13
c-32 0 -58 5 -68 27l-70 129c-8 15 -8 32 0 48z" />
    <glyph glyph-name="guillemetright" unicode="&#xbb;" horiz-adv-x="416" 
d="M396 274l-71 -130c-10 -22 -36 -28 -67 -28h-14c-31 0 -50 17 -42 33l78 148l-77 149c-9 16 10 32 41 32h14c32 0 57 -5 68 -27l70 -129c8 -15 9 -32 0 -48zM217 274l-70 -130c-11 -22 -37 -28 -68 -28h-14c-31 0 -50 17 -42 33l78 148l-77 149c-9 16 11 32 42 32h13
c32 0 58 -5 68 -27l70 -129c8 -15 8 -32 0 -48z" />
    <glyph glyph-name="h" unicode="h" horiz-adv-x="615" 
d="M219 22c0 -21 -40 -32 -77 -32h-16c-35 0 -74 11 -74 32v606c0 22 40 33 75 33h16c37 0 76 -11 76 -33v-223c36 48 94 76 164 76c109 0 181 -68 181 -170v-289c0 -21 -40 -32 -78 -32h-16c-35 0 -74 11 -74 32v254c0 57 -32 94 -84 94c-55 0 -93 -45 -93 -111v-237z" />
    <glyph glyph-name="hyphen" unicode="-" horiz-adv-x="344" 
d="M47 191c-20 0 -35 32 -35 61v13c0 28 10 61 31 61h257c21 0 32 -33 32 -62v-13c0 -29 -11 -60 -32 -60h-253z" />
    <glyph glyph-name="i" unicode="i" horiz-adv-x="271" 
d="M135 518c-57 0 -91 32 -91 76s34 74 91 74c58 0 92 -30 92 -74s-34 -76 -92 -76zM219 22c0 -21 -40 -32 -77 -32h-16c-35 0 -74 11 -74 32v417c0 22 40 33 75 33h16c37 0 76 -11 76 -33v-417z" />
    <glyph glyph-name="i.alt" horiz-adv-x="299" 
d="M135 524c-57 0 -91 31 -91 76c0 43 34 74 91 74c58 0 92 -31 92 -74c0 -45 -34 -76 -92 -76zM219 149c0 -32 16 -43 48 -43c19 0 30 -18 30 -46c0 -36 -34 -70 -100 -70h-19c-84 0 -126 51 -126 119v330c0 22 40 33 75 33h16c37 0 76 -11 76 -33v-290z" />
    <glyph glyph-name="iacute" unicode="&#xed;" horiz-adv-x="271" 
d="M190 548c-12 -16 -31 -30 -65 -30h-14c-32 0 -55 11 -47 30l61 135c9 22 48 33 83 33h14c39 0 75 -17 63 -33zM219 22c0 -21 -40 -32 -77 -32h-16c-35 0 -74 11 -74 32v425c0 21 40 33 75 33h16c37 0 76 -12 76 -33v-425z" />
    <glyph glyph-name="iacute.alt" horiz-adv-x="299" 
d="M190 548c-12 -16 -31 -30 -65 -30h-14c-32 0 -55 11 -47 30l61 135c9 22 48 33 83 33h14c39 0 75 -17 63 -33zM219 149c0 -32 16 -43 48 -43c19 0 30 -18 30 -46c0 -36 -34 -70 -100 -70h-19c-84 0 -126 51 -126 119v338c0 21 40 33 75 33h16c37 0 76 -12 76 -33v-298z
" />
    <glyph glyph-name="j" unicode="j" horiz-adv-x="271" 
d="M135 524c-57 0 -91 31 -91 76c0 43 34 74 91 74c59 0 92 -31 92 -74c0 -45 -33 -76 -92 -76zM52 -18v457c0 22 40 33 75 33h16c37 0 76 -11 76 -33v-462c0 -111 -84 -167 -190 -167c-36 0 -64 5 -87 14c-22 9 -36 34 -30 67c7 33 28 47 48 43c12 -3 24 -7 40 -7
c32 0 52 23 52 55z" />
    <glyph glyph-name="k" unicode="k" horiz-adv-x="568" 
d="M219 22c0 -21 -40 -32 -77 -32h-16c-35 0 -74 11 -74 32v606c0 22 40 33 75 33h16c37 0 76 -11 76 -33v-321h9c81 0 153 86 153 139c0 21 37 33 69 33h15c34 0 73 -16 73 -37c0 -52 -43 -132 -126 -193c84 -61 137 -152 137 -222c0 -22 -39 -37 -77 -37h-16
c-36 0 -75 11 -75 33c0 54 -75 163 -154 163h-8v-164z" />
    <glyph glyph-name="k.alt" horiz-adv-x="586" 
d="M219 22c0 -21 -40 -32 -77 -32h-16c-35 0 -74 11 -74 32v606c0 22 40 33 75 33h16c37 0 76 -11 76 -33v-313h5c88 0 157 78 157 131c0 21 37 33 69 33h15c34 0 73 -16 73 -37c0 -78 -54 -147 -130 -191c31 -84 68 -113 99 -113c8 0 15 2 22 2c22 1 36 -28 43 -62
c6 -31 0 -67 -21 -75c-20 -8 -40 -14 -67 -14c-104 0 -171 60 -218 215c-15 -2 -29 -3 -44 -3h-3v-179z" />
    <glyph glyph-name="l" unicode="l" horiz-adv-x="271" 
d="M219 22c0 -21 -40 -32 -77 -32h-16c-35 0 -74 11 -74 32v606c0 22 40 33 75 33h16c37 0 76 -11 76 -33v-606z" />
    <glyph glyph-name="l.alt" horiz-adv-x="304" 
d="M219 149c0 -32 16 -43 48 -43c19 0 30 -18 30 -46c0 -36 -34 -70 -100 -70h-19c-84 0 -126 51 -126 119v519c0 22 40 33 75 33h16c37 0 76 -11 76 -33v-479z" />
    <glyph glyph-name="less" unicode="&#x3c;" 
d="M439 52c-14 -26 -40 -48 -58 -39l-326 184c-15 9 -21 39 -21 62s6 53 21 61l326 184c18 10 44 -13 58 -38l7 -11c15 -26 20 -60 3 -69l-237 -127l237 -128c17 -8 12 -42 -3 -68z" />
    <glyph glyph-name="litre" unicode="&#x2113;" horiz-adv-x="394" 
d="M65 408c0 166 74 244 170 244c102 0 141 -64 141 -159c0 -74 -39 -162 -143 -230v-98c0 -29 17 -44 47 -45h7c22 0 38 -16 38 -56c0 -41 -34 -74 -100 -74h-14c-84 0 -146 55 -146 134v67c-7 -2 -15 -4 -22 -6c-17 -3 -32 13 -37 35c-6 23 -3 44 13 49c16 4 32 9 46 14
v125zM233 438v-65c41 40 53 81 53 119c0 39 -9 58 -23 58c-17 0 -30 -22 -30 -112z" />
    <glyph glyph-name="m" unicode="m" horiz-adv-x="940" 
d="M219 22c0 -21 -40 -32 -77 -32h-16c-35 0 -74 11 -74 32v424c0 22 40 33 75 33h16c37 0 76 -11 76 -33v-41c35 48 92 76 159 76c76 0 136 -37 162 -97c33 61 96 97 172 97c105 0 176 -68 176 -170v-289c0 -21 -40 -32 -77 -32h-16c-35 0 -75 11 -75 32v254
c0 57 -31 94 -79 94c-50 0 -87 -45 -87 -111v-237c0 -21 -40 -32 -78 -32h-16c-35 0 -74 11 -74 32v254c0 57 -32 94 -79 94c-50 0 -88 -45 -88 -111v-237z" />
    <glyph glyph-name="minus" unicode="&#x2212;" 
d="M63 192c-20 0 -35 31 -35 61v13c0 28 10 62 31 62h382c20 0 31 -34 31 -63v-13c0 -29 -11 -60 -31 -60h-378z" />
    <glyph glyph-name="multiply" unicode="&#xd7;" 
d="M164 77c-14 -15 -47 -3 -68 18l-9 10c-20 19 -36 50 -22 66l89 89l-88 88c-14 15 1 46 22 67l9 9c21 21 51 35 65 21l89 -89l89 89c14 14 46 -2 66 -23l10 -9c20 -20 34 -50 20 -65l-89 -88l87 -87c14 -15 2 -48 -18 -68l-10 -10c-20 -19 -51 -36 -66 -21l-89 89z" />
    <glyph glyph-name="n" unicode="n" horiz-adv-x="615" 
d="M219 22c0 -21 -40 -32 -77 -32h-16c-35 0 -74 11 -74 32v424c0 22 40 33 75 33h16c37 0 76 -11 76 -33v-41c36 48 94 76 164 76c109 0 181 -68 181 -170v-289c0 -21 -40 -32 -78 -32h-16c-35 0 -74 11 -74 32v254c0 57 -32 94 -84 94c-55 0 -93 -45 -93 -111v-237z" />
    <glyph glyph-name="nine" unicode="9" horiz-adv-x="598" 
d="M564 316c0 -203 -131 -336 -314 -336c-91 0 -151 27 -187 65c-20 18 -23 47 -13 79c11 33 45 59 70 46c29 -25 63 -54 127 -54c83 0 130 46 144 137c-35 -29 -81 -47 -138 -47c-134 0 -231 83 -231 206s94 227 259 227c180 0 283 -132 283 -323zM181 415
c0 -63 40 -106 101 -106c60 0 108 46 108 111c-4 19 -9 36 -18 52c-17 32 -47 52 -90 52c-60 0 -101 -45 -101 -109z" />
    <glyph glyph-name="nine.dnom" horiz-adv-x="320" 
d="M303 159c0 -104 -72 -169 -170 -169c-48 0 -80 12 -100 30c-12 10 -13 26 -8 43c6 18 26 32 40 25c16 -11 33 -24 66 -24c41 0 64 19 73 61c-18 -13 -42 -21 -70 -21c-71 0 -124 41 -124 103s51 114 140 114c98 0 153 -65 153 -162zM101 208c0 -29 21 -47 50 -47
c27 0 49 17 53 46c-2 10 -5 18 -9 25c-8 16 -22 26 -44 26c-29 0 -50 -21 -50 -50z" />
    <glyph glyph-name="nine.numr" horiz-adv-x="320" 
d="M307 476c0 -104 -72 -169 -170 -169c-48 0 -80 12 -100 30c-12 10 -13 26 -8 43c6 18 26 32 40 25c16 -11 33 -24 66 -24c41 0 64 19 73 61c-18 -13 -42 -21 -70 -21c-71 0 -124 41 -124 103s51 114 140 114c98 0 153 -65 153 -162zM105 525c0 -29 21 -47 50 -47
c27 0 49 17 53 46c-2 10 -5 18 -9 25c-8 16 -22 26 -44 26c-29 0 -50 -21 -50 -50z" />
    <glyph glyph-name="ntilde" unicode="&#xf1;" horiz-adv-x="615" 
d="M172 540c-6 -13 -31 -18 -55 -4c-24 12 -34 30 -31 45c18 64 65 116 139 116s99 -45 146 -45c31 0 48 17 63 48c6 14 31 19 56 5c23 -13 33 -31 30 -45c-17 -64 -65 -116 -139 -116c-73 0 -99 45 -146 45c-31 0 -48 -17 -63 -49zM219 22c0 -21 -40 -32 -77 -32h-16
c-35 0 -74 11 -74 32v424c0 22 40 33 75 33h16c37 0 76 -11 76 -33v-41c36 48 94 76 164 76c109 0 181 -68 181 -170v-289c0 -21 -40 -32 -78 -32h-16c-35 0 -74 11 -74 32v254c0 57 -32 94 -84 94c-55 0 -93 -45 -93 -111v-237z" />
    <glyph glyph-name="numbersign" unicode="#" horiz-adv-x="692" 
d="M38 135c-20 0 -35 32 -35 61v13c0 28 11 61 32 61h104l25 89h-60c-21 0 -35 31 -35 61v13c0 28 10 61 31 61h103l26 93c9 30 46 43 84 43h16c38 0 58 -20 51 -43l-27 -93h89l26 93c9 30 46 43 84 43h16c38 0 58 -20 51 -43l-27 -93h65c20 0 32 -33 32 -63v-12
c0 -29 -12 -60 -32 -60h-103l-25 -89h63c20 0 31 -33 31 -62v-13c0 -29 -11 -60 -31 -60h-102l-29 -102c-9 -29 -46 -43 -84 -43h-16c-38 0 -58 19 -51 42l29 103h-88l-29 -102c-9 -29 -46 -43 -84 -43h-16c-38 0 -58 19 -51 42l29 103h-62zM290 270h88l25 89h-88z" />
    <glyph glyph-name="o" unicode="o" horiz-adv-x="588" 
d="M294 -20c-170 0 -268 108 -268 255c0 146 98 254 268 254s268 -108 268 -254c0 -147 -98 -255 -268 -255zM294 97c67 0 107 50 107 139c0 80 -40 139 -107 139s-107 -52 -107 -140c0 -81 40 -138 107 -138z" />
    <glyph glyph-name="oacute" unicode="&#xf3;" horiz-adv-x="588" 
d="M326 548c-12 -16 -31 -30 -65 -30h-14c-32 0 -55 11 -47 30l61 135c9 22 48 33 83 33h14c39 0 75 -17 63 -33zM294 -20c-170 0 -268 108 -268 255c0 146 98 254 268 254s268 -108 268 -254c0 -147 -98 -255 -268 -255zM294 97c67 0 107 50 107 139c0 80 -40 139 -107 139
s-107 -52 -107 -140c0 -81 40 -138 107 -138z" />
    <glyph glyph-name="one" unicode="1" horiz-adv-x="404" 
d="M80 393c-17 -9 -46 16 -60 45l-6 13c-12 27 -17 63 1 72l171 89c17 9 45 16 69 16h16c37 0 72 -12 72 -35v-569c0 -22 -42 -34 -81 -34h-16c-37 0 -78 12 -78 34v415z" />
    <glyph glyph-name="one.dnom" horiz-adv-x="223" 
d="M46 190c-10 -5 -26 9 -34 25l-4 7c-7 15 -10 35 1 40l92 45c9 5 25 9 39 9h9c22 0 41 -6 41 -19v-283c0 -12 -24 -19 -46 -19h-9c-22 0 -45 7 -45 19v197z" />
    <glyph glyph-name="one.numr" horiz-adv-x="223" 
d="M46 507c-10 -5 -26 9 -34 25l-4 7c-7 15 -10 35 1 40l92 45c9 5 25 9 39 9h9c22 0 41 -6 41 -19v-283c0 -12 -24 -19 -46 -19h-9c-22 0 -45 7 -45 19v197z" />
    <glyph glyph-name="onehalf" unicode="&#xbd;" horiz-adv-x="708" 
d="M70 507c-10 -5 -26 9 -34 25l-4 7c-7 15 -10 35 1 40l92 45c9 5 25 9 39 9h9c22 0 41 -6 41 -19v-283c0 -12 -24 -19 -46 -19h-9c-22 0 -45 7 -45 19v197zM439 595c17 26 37 35 75 35h16c38 0 57 -22 44 -43l-366 -562c-17 -26 -36 -35 -74 -35h-17c-37 0 -57 21 -43 42z
M540 321c84 0 133 -46 133 -107c0 -50 -45 -97 -121 -138h118c11 0 20 -19 20 -36v-8c0 -17 -7 -37 -18 -37h-242c-11 0 -17 20 -17 38v7c0 12 0 26 9 32c115 63 150 102 150 132c0 23 -18 40 -43 40s-43 -13 -53 -35c-5 -10 -21 -13 -41 -4c-19 9 -28 23 -26 33
c15 49 65 83 131 83z" />
    <glyph glyph-name="onequarter" unicode="&#xbc;" horiz-adv-x="708" 
d="M79 507c-10 -5 -26 9 -34 25l-4 7c-7 15 -10 35 1 40l92 45c9 5 25 9 39 9h9c22 0 41 -6 41 -19v-283c0 -12 -24 -19 -46 -19h-9c-22 0 -45 7 -45 19v197zM456 595c17 26 37 35 75 35h16c38 0 57 -22 44 -43l-366 -562c-17 -26 -36 -35 -74 -35h-17c-37 0 -57 21 -43 42z
M630 14c0 -12 -20 -19 -43 -19h-8c-22 0 -41 7 -41 19v28h-150c-11 0 -22 16 -22 34v7c0 15 3 27 7 40c24 60 73 124 125 171c14 14 37 24 61 24h34c21 0 37 -7 37 -20v-185h32c12 0 18 -17 18 -32v-7c0 -15 -6 -32 -18 -32h-32v-28zM447 113h91v129
c-36 -29 -74 -83 -91 -129z" />
    <glyph glyph-name="ordfeminine" unicode="&#xaa;" horiz-adv-x="405" 
d="M374 345c0 -15 -28 -22 -54 -22h-12c-24 0 -52 7 -52 22v21c-24 -29 -61 -45 -103 -45c-80 0 -137 53 -137 150s65 158 143 158c40 0 74 -13 97 -39v16c0 14 28 22 54 22h11c26 0 53 -8 53 -22v-261zM194 556c-39 0 -65 -31 -65 -80c0 -51 25 -79 64 -79
c35 0 63 26 63 68v25c0 41 -26 66 -62 66z" />
    <glyph glyph-name="ordmasculine" unicode="&#xba;" horiz-adv-x="385" 
d="M192 316c-111 0 -176 67 -176 160c0 92 65 158 176 158c112 0 177 -66 177 -158c0 -93 -65 -160 -177 -160zM192 397c40 0 65 26 65 79c0 47 -25 80 -65 80c-39 0 -64 -28 -64 -80c0 -48 25 -79 64 -79z" />
    <glyph glyph-name="p" unicode="p" horiz-adv-x="619" 
d="M219 -148c0 -22 -40 -33 -77 -33h-16c-35 0 -74 11 -74 33v594c0 22 40 33 75 33h16c37 0 76 -11 76 -33v-42c37 49 95 77 162 77c124 0 211 -89 211 -241c0 -154 -98 -253 -221 -253c-63 0 -117 23 -152 68v-203zM321 94c67 0 110 55 110 140s-41 138 -106 138
c-61 0 -106 -49 -106 -121v-41c0 -70 43 -116 102 -116z" />
    <glyph glyph-name="paragraph" unicode="&#xb6;" horiz-adv-x="756" 
d="M39 384c0 152 113 244 271 244h99c35 0 69 -11 69 -32v-713c0 -21 -35 -32 -70 -32h-15c-35 0 -69 11 -69 32v256h-16c-159 0 -269 93 -269 245zM547 592c0 21 35 36 70 36h15c34 0 69 -11 69 -32v-713c0 -21 -36 -32 -71 -32h-15c-34 0 -68 11 -68 32v709z" />
    <glyph glyph-name="parenleft" unicode="(" horiz-adv-x="316" 
d="M218 652c19 6 45 -18 59 -47l2 -3c15 -32 24 -67 8 -77c-49 -21 -86 -121 -86 -284c0 -164 37 -264 86 -285c16 -9 10 -45 -8 -76l-2 -4c-16 -28 -40 -53 -59 -47c-97 25 -166 161 -166 412c0 236 69 386 166 411z" />
    <glyph glyph-name="parenright" unicode=")" horiz-adv-x="316" 
d="M98 -171c-19 -6 -45 18 -59 47l-2 3c-15 32 -24 67 -8 77c49 21 86 121 86 284c0 164 -37 264 -86 285c-16 9 -10 45 8 76l2 4c16 28 40 53 59 47c97 -25 166 -161 166 -412c0 -236 -69 -386 -166 -411z" />
    <glyph glyph-name="percent" unicode="%" horiz-adv-x="708" 
d="M166 307c-97 0 -153 69 -153 166s56 165 153 165s153 -68 153 -165s-56 -166 -153 -166zM466 595c17 26 37 35 75 35h16c38 0 57 -22 44 -43l-366 -562c-17 -26 -36 -35 -74 -35h-17c-37 0 -57 21 -43 42zM166 386c35 0 52 32 52 86c0 49 -18 88 -52 88
c-36 0 -53 -33 -53 -87c0 -49 18 -87 53 -87zM542 -10c-97 0 -153 69 -153 166s56 165 153 165s153 -68 153 -165s-56 -166 -153 -166zM542 69c35 0 52 32 52 86c0 49 -18 88 -52 88c-36 0 -53 -33 -53 -87c0 -49 18 -87 53 -87z" />
    <glyph glyph-name="period" unicode="." horiz-adv-x="228" 
d="M113 -10c-57 0 -91 34 -91 84c0 48 34 82 91 82c59 0 93 -34 93 -82c0 -50 -34 -84 -93 -84z" />
    <glyph glyph-name="periodcentered" unicode="&#xb7;" horiz-adv-x="228" 
d="M113 194c-57 0 -91 34 -91 84c0 48 34 82 91 82c59 0 93 -34 93 -82c0 -50 -34 -84 -93 -84z" />
    <glyph glyph-name="plus" unicode="+" 
d="M63 192c-20 0 -35 31 -35 61v13c0 28 10 62 31 62h123v125c0 20 34 32 63 32h13c29 0 60 -12 60 -32v-125h123c20 0 31 -34 31 -63v-13c0 -29 -11 -60 -31 -60h-123v-123c0 -20 -31 -35 -61 -35h-13c-28 0 -62 11 -62 31v127h-119z" />
    <glyph glyph-name="plusminus" unicode="&#xb1;" 
d="M63 300c-20 0 -35 32 -35 62v13c0 28 10 61 31 61h123v71c0 20 34 31 63 31h13c29 0 60 -11 60 -31v-71h123c20 0 31 -33 31 -62v-13c0 -29 -11 -61 -31 -61h-123v-67c0 -20 -31 -35 -61 -35h-13c-28 0 -62 11 -62 32v70h-119zM63 36c-20 0 -35 31 -35 61v13
c0 28 10 62 31 62h382c20 0 31 -34 31 -63v-13c0 -29 -11 -60 -31 -60h-378z" />
    <glyph glyph-name="q" unicode="q" horiz-adv-x="619" 
d="M567 -148c0 -22 -40 -33 -77 -33h-16c-35 0 -74 11 -74 33v212c-37 -49 -95 -77 -162 -77c-124 0 -212 88 -212 241c0 154 99 253 222 253c63 0 117 -23 152 -67v25c0 29 39 40 75 40h16c37 0 76 -11 76 -33v-594zM297 375c-66 0 -110 -55 -110 -140s42 -138 107 -138
c61 0 106 49 106 120v42c0 70 -44 116 -103 116z" />
    <glyph glyph-name="q.alt" horiz-adv-x="588" 
d="M574 -179c-28 -8 -50 -11 -76 -11c-108 0 -218 58 -265 175c-132 23 -207 122 -207 250c0 146 98 254 268 254s268 -108 268 -254c0 -122 -67 -217 -187 -246c33 -37 75 -50 120 -50c18 0 34 4 53 8c25 6 43 -21 49 -54c7 -32 0 -65 -23 -72zM294 97c67 0 107 50 107 139
c0 80 -40 139 -107 139s-107 -52 -107 -140c0 -81 40 -138 107 -138z" />
    <glyph glyph-name="question" unicode="?" horiz-adv-x="521" 
d="M325 419c0 50 -38 84 -84 84c-51 0 -90 -29 -113 -79c-8 -18 -41 -22 -75 -5c-33 16 -44 39 -40 59c29 94 121 161 243 161c144 0 247 -81 247 -217c0 -149 -151 -217 -280 -234c-19 -2 -36 27 -41 60c-4 31 -2 61 15 63c60 14 128 49 128 108zM252 -10
c-57 0 -91 32 -91 79c0 45 34 78 91 78c59 0 93 -33 93 -78c0 -47 -34 -79 -93 -79z" />
    <glyph glyph-name="questiondown" unicode="&#xbf;" horiz-adv-x="521" 
d="M263 638c57 0 91 -32 91 -79c0 -45 -34 -78 -91 -78c-59 0 -93 33 -93 78c0 47 34 79 93 79zM190 209c0 -50 38 -84 84 -84c51 0 90 29 113 79c8 18 41 22 75 5c33 -16 44 -39 40 -59c-29 -94 -121 -161 -243 -161c-144 0 -247 81 -247 217c0 149 151 217 280 234
c19 2 36 -27 41 -60c4 -31 2 -61 -15 -63c-60 -14 -128 -49 -128 -108z" />
    <glyph glyph-name="quotedbl" unicode="&#x22;" horiz-adv-x="407" 
d="M169 406c-2 -20 -23 -30 -57 -30h-14c-32 0 -53 10 -54 30l-18 192c-2 22 40 34 75 34h15c39 0 74 -14 71 -34zM363 406c-2 -20 -23 -30 -57 -30h-14c-32 0 -53 10 -54 30l-18 192c-2 22 40 34 75 34h15c39 0 74 -14 71 -34z" />
    <glyph glyph-name="quotedblleft" unicode="&#x201c;" horiz-adv-x="437" 
d="M77 607c11 14 26 25 56 25h13c29 0 46 -14 40 -32c-8 -21 -17 -50 -22 -83c26 -14 43 -41 43 -74c0 -49 -34 -83 -91 -83c-59 0 -93 41 -93 107c0 52 39 120 54 140zM285 607c11 14 26 25 56 25h13c29 0 46 -14 40 -32c-8 -21 -17 -50 -22 -83c26 -14 43 -41 43 -74
c0 -49 -34 -83 -91 -83c-59 0 -93 41 -93 107c0 52 39 120 54 140z" />
    <glyph glyph-name="quotedblright" unicode="&#x201d;" horiz-adv-x="437" 
d="M152 385c-11 -14 -26 -25 -56 -25h-13c-29 0 -46 14 -40 32c8 21 17 50 22 83c-26 14 -43 41 -43 74c0 49 34 83 91 83c59 0 93 -41 93 -107c0 -52 -39 -120 -54 -140zM360 385c-11 -14 -26 -25 -56 -25h-13c-29 0 -46 14 -40 32c8 21 17 50 22 83c-26 14 -43 41 -43 74
c0 49 34 83 91 83c59 0 93 -41 93 -107c0 -52 -39 -120 -54 -140z" />
    <glyph glyph-name="quoteleft" unicode="&#x2018;" horiz-adv-x="229" 
d="M77 607c11 14 26 25 56 25h13c29 0 46 -14 40 -32c-8 -21 -17 -50 -22 -83c26 -14 43 -41 43 -74c0 -49 -34 -83 -91 -83c-59 0 -93 41 -93 107c0 52 39 120 54 140z" />
    <glyph glyph-name="quoteright" unicode="&#x2019;" horiz-adv-x="229" 
d="M152 385c-11 -14 -26 -25 -56 -25h-13c-29 0 -46 14 -40 32c8 21 17 50 22 83c-26 14 -43 41 -43 74c0 49 34 83 91 83c59 0 93 -41 93 -107c0 -52 -39 -120 -54 -140z" />
    <glyph glyph-name="quotesingle" unicode="'" horiz-adv-x="214" 
d="M169 406c-2 -20 -23 -30 -57 -30h-14c-32 0 -53 10 -54 30l-18 192c-2 22 40 34 75 34h15c39 0 74 -14 71 -34z" />
    <glyph glyph-name="r" unicode="r" horiz-adv-x="412" 
d="M219 22c0 -21 -40 -32 -77 -32h-16c-35 0 -74 11 -74 32v424c0 22 40 33 75 33h16c37 0 76 -11 76 -33v-47c33 54 83 82 137 82c15 0 30 -1 42 -5c21 -7 22 -32 14 -70c-7 -39 -22 -65 -42 -61c-15 2 -27 6 -45 6c-64 0 -106 -56 -106 -126v-203z" />
    <glyph glyph-name="r_t" horiz-adv-x="682" 
d="M219 22c0 -21 -40 -32 -77 -32h-16c-35 0 -74 11 -74 32v424c0 22 40 33 75 33h16c37 0 76 -11 76 -33v-53c34 52 87 78 145 78h29v71c0 22 40 33 76 33h16c37 0 76 -11 76 -33v-71h70c21 0 32 -33 32 -62v-12c0 -30 -11 -61 -32 -61h-70v-171c0 -29 16 -45 49 -45h8
c22 0 38 -16 38 -56c0 -41 -34 -74 -100 -74h-29c-85 0 -134 53 -134 119v227h-60c-71 0 -114 -46 -114 -114v-200z" />
    <glyph glyph-name="registered" unicode="&#xae;" horiz-adv-x="632" 
d="M316 108c-165 0 -301 134 -301 301c0 165 136 301 301 301c166 0 301 -136 301 -301c0 -167 -135 -301 -301 -301zM316 181c125 0 228 102 228 228c0 125 -103 227 -228 227s-227 -102 -227 -227c0 -126 102 -228 227 -228zM172 556c0 12 10 15 25 15h123
c83 0 141 -42 141 -110c0 -40 -19 -71 -51 -90c38 -33 58 -71 58 -107c0 -12 -24 -21 -48 -21h-11c-22 0 -47 7 -47 19c0 15 -13 50 -51 88h-31v-87c0 -13 -26 -20 -50 -20h-10c-23 0 -48 7 -48 20v293zM307 502h-27v-83h29c28 0 45 19 45 42s-20 41 -47 41z" />
    <glyph glyph-name="s" unicode="s" horiz-adv-x="520" 
d="M240 -20c-78 0 -157 22 -191 52c-19 13 -19 37 -9 61c10 27 30 50 54 41c29 -19 75 -40 139 -40s97 15 97 42c0 29 -47 36 -138 53c-98 17 -150 52 -150 141c0 97 84 159 234 159c77 0 145 -20 179 -50c19 -13 22 -35 11 -62c-11 -28 -32 -47 -56 -40
c-29 18 -71 38 -133 38c-61 0 -86 -14 -86 -41c0 -29 46 -33 140 -49c99 -18 155 -56 155 -145c0 -96 -88 -160 -246 -160z" />
    <glyph glyph-name="section" unicode="&#xa7;" horiz-adv-x="549" 
d="M496 22c0 -113 -101 -190 -239 -190c-101 0 -170 32 -204 67c-19 14 -19 45 -8 73c9 30 35 57 57 44c28 -23 82 -61 144 -61c54 0 91 24 91 58c0 39 -67 47 -153 65c-98 21 -151 69 -151 160c0 58 27 104 73 135c-30 27 -47 63 -47 109c0 113 97 188 239 188
c78 0 144 -27 178 -62c18 -16 21 -43 12 -71c-10 -31 -41 -57 -64 -46c-27 23 -69 56 -129 56c-56 0 -86 -22 -86 -55c0 -40 74 -45 159 -63c100 -20 151 -70 151 -160c0 -60 -28 -104 -74 -133c32 -29 51 -67 51 -114zM183 255c0 -34 42 -45 105 -58c44 5 73 26 73 55
c0 34 -36 45 -100 59c-50 -4 -78 -25 -78 -56z" />
    <glyph glyph-name="semicolon" unicode=";" horiz-adv-x="228" 
d="M113 236c-57 0 -91 34 -91 84c0 48 34 82 91 82c59 0 93 -34 93 -82c0 -50 -34 -84 -93 -84zM147 -98c-5 -20 -24 -30 -58 -30h-14c-32 0 -56 10 -54 30l17 221c2 22 40 33 75 33h15c38 0 76 -14 71 -34z" />
    <glyph glyph-name="seven" unicode="7" horiz-adv-x="543" 
d="M54 480c-20 0 -35 34 -35 65v14c0 30 10 66 31 66h450c20 0 31 -36 31 -68v-12c0 -22 -5 -46 -15 -57c-110 -123 -185 -359 -185 -466c0 -20 -33 -32 -79 -32h-16c-47 0 -82 15 -82 37c0 109 65 310 172 453h-272z" />
    <glyph glyph-name="seven.dnom" horiz-adv-x="292" 
d="M29 233c-11 0 -20 20 -20 37v7c0 18 7 37 18 37h241c11 0 18 -19 18 -37v-7c0 -13 -3 -26 -9 -32c-58 -61 -95 -176 -95 -225c0 -11 -19 -18 -46 -18h-8c-28 0 -48 8 -48 20c0 51 32 147 87 218h-138z" />
    <glyph glyph-name="seven.numr" horiz-adv-x="292" 
d="M29 550c-11 0 -20 20 -20 37v7c0 18 7 37 18 37h241c11 0 18 -19 18 -37v-7c0 -13 -3 -26 -9 -32c-58 -61 -95 -176 -95 -225c0 -11 -19 -18 -46 -18h-8c-28 0 -48 8 -48 20c0 51 32 147 87 218h-138z" />
    <glyph glyph-name="six" unicode="6" horiz-adv-x="598" 
d="M576 207c0 -123 -94 -227 -259 -227c-180 0 -283 132 -283 323c0 203 131 336 314 336c91 0 151 -27 187 -65c20 -18 23 -47 13 -79c-11 -33 -45 -59 -70 -46c-29 25 -63 54 -127 54c-83 0 -130 -46 -144 -137c35 29 81 47 138 47c134 0 231 -83 231 -206zM226 147
c17 -32 47 -52 90 -52c60 0 101 45 101 109c0 63 -40 106 -101 106c-60 0 -108 -46 -108 -111c4 -19 9 -36 18 -52z" />
    <glyph glyph-name="six.dnom" horiz-adv-x="321" 
d="M310 105c0 -62 -50 -115 -140 -115c-97 0 -153 65 -153 162c0 105 72 169 170 169c49 0 80 -11 100 -29c12 -10 14 -26 8 -44c-7 -18 -25 -33 -40 -26c-16 11 -33 23 -66 23c-41 0 -64 -17 -73 -58c19 13 42 21 70 21c71 0 124 -41 124 -103zM124 78c9 -15 23 -24 46 -24
c28 0 49 20 49 50c0 28 -21 47 -51 47c-28 0 -52 -19 -52 -51c2 -8 4 -15 8 -22z" />
    <glyph glyph-name="six.numr" horiz-adv-x="321" 
d="M310 422c0 -62 -50 -115 -140 -115c-97 0 -153 65 -153 162c0 105 72 169 170 169c49 0 80 -11 100 -29c12 -10 14 -26 8 -44c-7 -18 -25 -33 -40 -26c-16 11 -33 23 -66 23c-41 0 -64 -17 -73 -58c19 13 42 21 70 21c71 0 124 -41 124 -103zM124 395
c9 -15 23 -24 46 -24c28 0 49 20 49 50c0 28 -21 47 -51 47c-28 0 -52 -19 -52 -51c2 -8 4 -15 8 -22z" />
    <glyph glyph-name="slash" unicode="/" horiz-adv-x="418" 
d="M263 595c12 28 44 35 82 35h16c37 0 60 -21 51 -43l-257 -562c-12 -28 -44 -35 -82 -35h-16c-38 0 -61 20 -51 42z" />
    <glyph glyph-name="soundcopyright" unicode="&#x2117;" horiz-adv-x="632" 
d="M316 108c-165 0 -301 134 -301 301c0 165 136 301 301 301c166 0 301 -136 301 -301c0 -167 -135 -301 -301 -301zM316 181c125 0 228 102 228 228c0 125 -103 227 -228 227s-227 -102 -227 -227c0 -126 102 -228 227 -228zM340 350h-41v-87c0 -13 -26 -20 -50 -20h-10
c-23 0 -48 7 -48 20v293c0 12 10 15 26 15h122c83 0 141 -42 141 -110c0 -69 -56 -111 -140 -111zM326 502h-27v-83h29c28 0 45 19 45 42s-19 41 -47 41z" />
    <glyph glyph-name="space" unicode=" " horiz-adv-x="211" 
 />
    <glyph glyph-name="sterling" unicode="&#xa3;" horiz-adv-x="546" 
d="M48 201c-14 0 -25 20 -25 40v9c0 19 8 40 23 40h55c-2 11 -3 22 -4 33h-49c-14 0 -25 20 -25 40v8c0 20 8 40 23 40h42c-1 7 -1 15 -1 21c0 125 100 207 220 207c74 0 135 -21 173 -54c18 -12 23 -40 13 -73c-9 -33 -30 -51 -50 -45c-26 19 -55 40 -100 40
s-82 -30 -82 -76c0 -6 0 -13 1 -20h183c13 0 22 -20 22 -40v-9c0 -20 -9 -39 -22 -39h-171c1 -11 3 -22 4 -33h167c13 0 22 -21 22 -41v-8c0 -21 -9 -40 -22 -40h-166c-8 -29 -26 -51 -49 -68h273c20 0 32 -34 32 -64v-12c0 -30 -12 -62 -32 -62h-465c-20 0 -35 32 -35 62
v13c0 29 11 63 31 63h23c30 15 48 32 51 68h-60z" />
    <glyph glyph-name="t" unicode="t" horiz-adv-x="331" 
d="M249 22c0 -21 -40 -32 -77 -32h-16c-36 0 -75 11 -75 32v311h-46c-20 0 -35 32 -35 61v14c0 28 10 61 31 61h50v73c0 22 40 33 76 33h16c37 0 76 -11 76 -33v-73h51c20 0 31 -33 31 -63v-12c0 -30 -11 -61 -31 -61h-51v-311z" />
    <glyph glyph-name="t.alt" horiz-adv-x="371" 
d="M245 -10h-29c-84 0 -134 53 -134 119v224h-40c-20 0 -35 32 -35 61v14c0 28 10 61 31 61h44v73c0 22 40 33 76 33h16c37 0 76 -11 76 -33v-73h71c20 0 31 -33 31 -63v-12c0 -30 -11 -61 -31 -61h-71v-168c0 -29 17 -45 49 -45h8c22 0 38 -16 38 -56
c0 -41 -34 -74 -100 -74z" />
    <glyph glyph-name="t_t" horiz-adv-x="655" 
d="M242 22c0 -21 -39 -32 -77 -32h-16c-35 0 -74 11 -74 32v311h-40c-20 0 -35 32 -35 61v14c0 28 10 61 31 61h44v73c0 22 40 33 76 33h16c36 0 75 -11 75 -33v-73h163v73c0 22 40 33 76 33h16c37 0 76 -11 76 -33v-73h51c20 0 31 -33 31 -63v-12c0 -30 -11 -61 -31 -61
h-51v-311c0 -21 -40 -32 -77 -32h-16c-35 0 -75 11 -75 32v311h-163v-311z" />
    <glyph glyph-name="three" unicode="3" horiz-adv-x="544" 
d="M241 -20c-90 0 -159 34 -195 72c-21 17 -24 47 -13 77c10 33 44 61 69 47c30 -27 71 -60 136 -60c63 0 111 23 111 69c0 48 -55 72 -178 72c-22 0 -33 17 -33 48v13c0 22 10 46 31 46c110 0 166 26 166 74c0 42 -38 67 -94 67c-64 0 -97 -39 -127 -66
c-25 -13 -59 9 -69 42c-11 31 -8 60 13 77c36 40 106 81 211 81c134 0 231 -67 231 -167c0 -72 -36 -125 -111 -152c83 -24 124 -76 124 -152c0 -113 -105 -188 -272 -188z" />
    <glyph glyph-name="three.dnom" horiz-adv-x="291" 
d="M128 -10c-47 0 -84 16 -104 34c-12 8 -13 25 -8 42c6 18 25 34 40 27c16 -11 37 -27 70 -27c31 0 56 9 56 29c0 22 -28 31 -92 31c-12 0 -19 9 -19 27v7c0 13 6 25 18 25c56 0 85 10 85 33c0 18 -18 29 -47 29c-32 0 -48 -19 -65 -31c-14 -6 -34 6 -39 25
c-7 16 -5 32 7 42c20 19 57 38 114 38c73 0 125 -34 125 -85c0 -35 -18 -61 -56 -75c42 -13 62 -38 62 -75c0 -59 -56 -96 -147 -96z" />
    <glyph glyph-name="three.numr" horiz-adv-x="291" 
d="M128 307c-47 0 -84 16 -104 34c-12 8 -13 25 -8 42c6 18 25 34 40 27c16 -11 37 -27 70 -27c31 0 56 9 56 29c0 22 -28 31 -92 31c-12 0 -19 9 -19 27v7c0 13 6 25 18 25c56 0 85 10 85 33c0 18 -18 29 -47 29c-32 0 -48 -19 -65 -31c-14 -6 -34 6 -39 25
c-7 16 -5 32 7 42c20 19 57 38 114 38c73 0 125 -34 125 -85c0 -35 -18 -61 -56 -75c42 -13 62 -38 62 -75c0 -59 -56 -96 -147 -96z" />
    <glyph glyph-name="threequarters" unicode="&#xbe;" horiz-adv-x="708" 
d="M140 307c-47 0 -84 16 -104 34c-12 8 -13 25 -8 42c6 18 25 34 40 27c16 -11 37 -27 70 -27c31 0 56 9 56 29c0 22 -28 31 -92 31c-12 0 -19 9 -19 27v7c0 13 6 25 18 25c56 0 85 10 85 33c0 18 -18 29 -47 29c-32 0 -48 -19 -65 -31c-14 -6 -34 6 -39 25
c-7 16 -5 32 7 42c20 19 57 38 114 38c73 0 125 -34 125 -85c0 -35 -18 -61 -56 -75c42 -13 62 -38 62 -75c0 -59 -56 -96 -147 -96zM476 595c17 26 37 35 75 35h16c38 0 57 -22 44 -43l-366 -562c-17 -26 -36 -35 -74 -35h-17c-37 0 -57 21 -43 42zM637 14
c0 -12 -20 -19 -43 -19h-8c-22 0 -41 7 -41 19v28h-150c-11 0 -22 16 -22 34v7c0 15 3 27 7 40c24 60 73 124 125 171c14 14 37 24 61 24h34c21 0 37 -7 37 -20v-185h32c12 0 18 -17 18 -32v-7c0 -15 -6 -32 -18 -32h-32v-28zM454 113h91v129c-36 -29 -74 -83 -91 -129z" />
    <glyph glyph-name="tilde" unicode="&#x2dc;" 
d="M119 540c-6 -13 -31 -18 -55 -4c-24 12 -34 30 -31 45c18 64 65 116 139 116s99 -45 146 -45c31 0 48 17 63 48c6 14 31 19 56 5c23 -13 33 -31 30 -45c-17 -64 -65 -116 -139 -116c-73 0 -99 45 -146 45c-31 0 -48 -17 -63 -49z" />
    <glyph glyph-name="tilde.cap" 
d="M63 665c-23 12 -32 30 -28 45c18 64 65 115 135 115c74 0 102 -48 149 -48c30 0 49 17 62 45c6 13 31 17 56 4c23 -12 32 -30 28 -45c-18 -64 -65 -116 -135 -116c-74 0 -102 49 -149 49c-30 0 -49 -17 -63 -45c-5 -13 -30 -17 -55 -4z" />
    <glyph glyph-name="two" unicode="2" horiz-adv-x="550" 
d="M259 639c152 0 246 -88 246 -212c0 -105 -93 -202 -248 -292h243c20 0 35 -35 35 -66v-14c0 -30 -11 -65 -32 -65h-449c-20 0 -31 35 -31 67v13c0 21 -1 48 15 57c219 130 290 215 290 280c0 58 -38 92 -88 92c-51 0 -86 -27 -108 -75c-8 -18 -37 -24 -71 -7
c-33 16 -49 41 -44 61c29 94 120 161 242 161z" />
    <glyph glyph-name="two.dnom" horiz-adv-x="297" 
d="M139 321c84 0 133 -46 133 -107c0 -50 -45 -97 -121 -138h118c11 0 20 -19 20 -36v-8c0 -17 -7 -37 -18 -37h-242c-11 0 -17 20 -17 38v7c0 12 0 26 9 32c115 63 150 102 150 132c0 23 -18 40 -43 40s-43 -13 -53 -35c-5 -10 -21 -13 -41 -4c-19 9 -28 23 -26 33
c15 49 65 83 131 83z" />
    <glyph glyph-name="two.numr" horiz-adv-x="297" 
d="M139 638c84 0 133 -46 133 -107c0 -50 -45 -97 -121 -138h118c11 0 20 -19 20 -36v-8c0 -17 -7 -37 -18 -37h-242c-11 0 -17 20 -17 38v7c0 12 0 26 9 32c115 63 150 102 150 132c0 23 -18 40 -43 40s-43 -13 -53 -35c-5 -10 -21 -13 -41 -4c-19 9 -28 23 -26 33
c15 49 65 83 131 83z" />
    <glyph glyph-name="u" unicode="u" horiz-adv-x="605" 
d="M52 446c0 22 40 33 77 33h16c35 0 74 -11 74 -33v-254c0 -57 31 -94 79 -94c52 0 88 45 88 112v236c0 22 40 33 77 33h16c35 0 75 -11 75 -33v-424c0 -21 -40 -32 -76 -32h-16c-37 0 -76 11 -76 32v40c-35 -47 -92 -75 -159 -75c-105 0 -175 68 -175 171v288z" />
    <glyph glyph-name="u.alt" horiz-adv-x="633" 
d="M52 446c0 22 40 33 77 33h16c35 0 74 -11 74 -33v-254c0 -57 31 -94 79 -94c52 0 88 45 88 112v236c0 22 40 33 76 33h16c36 0 76 -11 76 -33v-297c0 -32 15 -43 48 -43c18 0 30 -18 30 -46c0 -36 -35 -70 -101 -70h-19c-67 0 -107 32 -121 79c-35 -51 -93 -82 -164 -82
c-105 0 -175 68 -175 171v288z" />
    <glyph glyph-name="uacute" unicode="&#xfa;" horiz-adv-x="605" 
d="M346 548c-12 -16 -31 -30 -65 -30h-14c-32 0 -55 11 -47 30l61 135c9 22 48 33 83 33h14c39 0 75 -17 63 -33zM52 446c0 22 40 33 77 33h16c35 0 74 -11 74 -33v-254c0 -57 31 -94 79 -94c52 0 88 45 88 112v236c0 22 40 33 77 33h16c35 0 75 -11 75 -33v-424
c0 -21 -40 -32 -76 -32h-16c-37 0 -76 11 -76 32v40c-35 -47 -92 -75 -159 -75c-105 0 -175 68 -175 171v288z" />
    <glyph glyph-name="uacute.alt" horiz-adv-x="633" 
d="M346 548c-12 -16 -31 -30 -65 -30h-14c-32 0 -55 11 -47 30l61 135c9 22 48 33 83 33h14c39 0 75 -17 63 -33zM52 446c0 22 40 33 77 33h16c35 0 74 -11 74 -33v-254c0 -57 31 -94 79 -94c52 0 88 45 88 112v236c0 22 40 33 76 33h16c36 0 76 -11 76 -33v-297
c0 -32 15 -43 48 -43c18 0 30 -18 30 -46c0 -36 -35 -70 -101 -70h-19c-67 0 -107 32 -121 79c-35 -51 -93 -82 -164 -82c-105 0 -175 68 -175 171v288z" />
    <glyph glyph-name="udieresis" unicode="&#xfc;" horiz-adv-x="605" 
d="M205 533c-52 0 -83 31 -83 76c0 43 31 74 83 74c53 0 83 -31 83 -74c0 -45 -30 -76 -83 -76zM407 533c-52 0 -83 31 -83 76c0 43 31 74 83 74c53 0 83 -31 83 -74c0 -45 -30 -76 -83 -76zM52 446c0 22 40 33 77 33h16c35 0 74 -11 74 -33v-254c0 -57 31 -94 79 -94
c52 0 88 45 88 112v236c0 22 40 33 77 33h16c35 0 75 -11 75 -33v-424c0 -21 -40 -32 -76 -32h-16c-37 0 -76 11 -76 32v40c-35 -47 -92 -75 -159 -75c-105 0 -175 68 -175 171v288z" />
    <glyph glyph-name="underscore" unicode="_" horiz-adv-x="438" 
d="M47 -155c-20 0 -35 31 -35 61v13c0 28 10 61 31 61h351c21 0 32 -33 32 -62v-13c0 -29 -11 -60 -32 -60h-347z" />
    <glyph glyph-name="v" unicode="v" horiz-adv-x="561" 
d="M388 17c-17 -20 -61 -27 -115 -27c-53 0 -91 8 -107 27c-68 77 -152 321 -152 425c0 21 40 37 77 37h17c36 0 74 -11 74 -33c0 -41 36 -215 104 -328c65 118 103 287 103 328c0 21 38 33 69 33h16c33 0 72 -16 72 -37c0 -102 -83 -348 -158 -425z" />
    <glyph glyph-name="w" unicode="w" horiz-adv-x="881" 
d="M749 17c-15 -19 -55 -27 -107 -27c-54 0 -111 10 -118 36l-83 266l-84 -266c-7 -26 -64 -36 -118 -36c-52 0 -92 8 -107 27c-64 93 -114 292 -114 425c0 21 39 37 77 37h16c36 0 75 -11 75 -33c0 -65 9 -207 65 -324l90 318c6 26 57 38 111 38c52 0 96 -14 102 -38
l91 -317c56 116 65 258 65 323c0 22 38 33 74 33h17c37 0 62 -16 62 -37c0 -133 -50 -332 -114 -425z" />
    <glyph glyph-name="x" unicode="x" horiz-adv-x="552" 
d="M182 23c0 -22 -39 -33 -75 -33h-16c-37 0 -77 15 -77 37c0 75 49 154 136 227c-90 62 -123 131 -123 188c0 21 41 37 74 37h16c32 0 69 -12 69 -33c0 -29 22 -76 96 -130c62 55 85 103 85 130c0 21 37 33 69 33h15c34 0 75 -16 75 -37c0 -56 -43 -129 -136 -195
c96 -66 148 -143 148 -220c0 -22 -39 -37 -77 -37h-16c-36 0 -75 11 -75 33c0 30 -24 92 -99 152c-69 -64 -89 -120 -89 -152z" />
    <glyph glyph-name="y" unicode="y" horiz-adv-x="566" 
d="M221 -177c-22 -16 -64 -17 -94 -2l-13 7c-37 18 -45 53 -24 71c33 24 70 52 110 96c-120 115 -186 355 -186 447c0 21 40 37 77 37h17c36 0 74 -11 74 -33c0 -39 39 -206 111 -325c59 108 102 282 102 325c0 21 37 33 69 33h15c34 0 73 -16 73 -37
c0 -84 -59 -256 -117 -359c-71 -125 -156 -223 -214 -260z" />
    <glyph glyph-name="y.alt" horiz-adv-x="605" 
d="M386 38v41c-35 -46 -92 -74 -159 -74c-105 0 -175 67 -175 170v271c0 22 40 33 77 33h16c35 0 74 -11 74 -33v-236c0 -57 31 -94 79 -94c52 0 88 44 88 111v219c0 21 40 33 76 33h16c36 0 76 -12 76 -33v-407c0 -135 -124 -229 -290 -229c-65 0 -117 11 -160 33
c-22 10 -39 34 -32 67c6 33 27 50 48 42c29 -13 66 -25 121 -25c81 0 145 41 145 111z" />
    <glyph glyph-name="yen" unicode="&#xa5;" horiz-adv-x="625" 
d="M76 67c-13 0 -24 20 -24 40v9c0 19 8 39 22 39h150v34h-148c-13 0 -24 20 -24 40v8c0 20 8 40 22 40h82c-85 103 -137 233 -137 313c0 22 37 38 80 38h17c40 0 77 -12 77 -33c0 -41 34 -143 120 -239c85 96 120 198 120 239c0 21 37 33 77 33h16c43 0 81 -16 81 -38
c0 -80 -52 -210 -138 -313h75c14 0 22 -20 22 -40v-9c0 -20 -8 -39 -22 -39h-145v-34h145c14 0 22 -20 22 -40v-9c0 -20 -8 -39 -22 -39h-145v-43c0 -22 -42 -34 -81 -34h-16c-37 0 -78 12 -78 34v43h-148z" />
    <glyph glyph-name="z" unicode="z" horiz-adv-x="504" 
d="M490 55c0 -29 -12 -55 -32 -55h-404c-20 0 -32 19 -32 47v4c0 160 194 208 262 292h-220c-21 0 -36 27 -36 57v13c0 28 11 56 32 56h381c20 0 31 -21 31 -51v-4c0 -155 -200 -201 -264 -289h250c20 0 32 -28 32 -57v-13z" />
    <glyph glyph-name="zero" unicode="0" horiz-adv-x="634" 
d="M317 -20c-181 0 -283 139 -283 330s102 329 283 329c180 0 283 -138 283 -329s-103 -330 -283 -330zM316 109c74 0 105 74 105 200c0 116 -33 201 -105 201s-103 -75 -103 -201c0 -117 33 -200 103 -200z" />
    <glyph glyph-name="zero.dnom" horiz-adv-x="340" 
d="M170 -10c-97 0 -153 69 -153 166s56 165 153 165s153 -68 153 -165s-56 -166 -153 -166zM170 69c35 0 52 32 52 86c0 49 -18 88 -52 88c-36 0 -53 -33 -53 -87c0 -49 18 -87 53 -87z" />
    <glyph glyph-name="zero.numr" horiz-adv-x="340" 
d="M170 307c-97 0 -153 69 -153 166s56 165 153 165s153 -68 153 -165s-56 -166 -153 -166zM170 386c35 0 52 32 52 86c0 49 -18 88 -52 88c-36 0 -53 -33 -53 -87c0 -49 18 -87 53 -87z" />
    </font>
</defs>
</svg>
