<?xml version="1.0" standalone="no"?>
<!DOCTYPE svg PUBLIC "-//W3C//DTD SVG 1.1//EN" "http://www.w3.org/Graphics/SVG/1.1/DTD/svg11.dtd" >
<svg xmlns="http://www.w3.org/2000/svg" xmlns:xlink="http://www.w3.org/1999/xlink" version="1.1">
<metadata>
Created by FontForge 20170924 at Mon Mar 23 22:40:36 2020
 By www-data

</metadata>
<defs>
<font id="AlpinaSans-Black" horiz-adv-x="500" >
  <font-face 
    font-family="Alpina Sans"
    font-weight="900"
    font-stretch="normal"
    units-per-em="1000"
    panose-1="2 15 0 3 4 5 0 0 0 3"
    ascent="750"
    descent="-250"
    x-height="481"
    cap-height="640"
    bbox="-201.311 -250 1730 876"
    underline-thickness="0"
    underline-position="0"
    unicode-range="U+0020-FB04"
  />
<missing-glyph horiz-adv-x="743" 
d="M60 -169v825h623v-825h-623zM263 10h217v467h-217v-467z" />
    <glyph glyph-name="f_b" unicode="fb" horiz-adv-x="993" 
d="M44 302c-25 0 -44 42 -44 81v17c0 37 13 81 39 81h21v2c0 122 108 192 233 192c40 0 76 -6 107 -16c15 17 57 26 95 26h21c49 0 101 -14 101 -41v-217c37 41 90 63 149 63c117 0 209 -81 209 -242c0 -163 -105 -257 -220 -257c-55 0 -103 17 -138 53v-12
c0 -27 -53 -41 -103 -41h-21c-47 0 -99 14 -99 41v485c-17 9 -34 12 -56 12c-32 0 -52 -24 -55 -48h52c25 0 39 -44 39 -83v-16c0 -39 -14 -80 -39 -80h-52v-270c0 -27 -53 -41 -101 -41h-21c-49 0 -101 14 -101 41v270h-16zM687 130c42 0 75 37 75 110s-33 107 -73 107
c-38 0 -72 -32 -72 -92v-36c0 -58 32 -89 70 -89z" />
    <glyph glyph-name="f_f" unicode="ff" horiz-adv-x="713" 
d="M44 302c-25 0 -44 42 -44 81v17c0 37 13 81 39 81h21v2c0 122 108 192 233 192c69 0 124 -17 169 -45c40 30 94 45 155 45c44 0 76 -6 102 -16c28 -11 46 -43 38 -87c-8 -43 -34 -62 -60 -57c-12 2 -22 6 -40 6c-24 0 -38 -17 -40 -40h59c25 0 39 -44 39 -83v-16
c0 -39 -14 -80 -39 -80h-59v-270c0 -27 -53 -41 -101 -41h-21c-49 0 -101 14 -101 41v270h-111v-270c0 -27 -53 -41 -101 -41h-21c-49 0 -101 14 -101 41v270h-16zM338 529c-32 0 -52 -24 -55 -48h111v2c0 12 1 23 2 33c-17 9 -35 13 -58 13z" />
    <glyph glyph-name="f_f_i" unicode="ffi" horiz-adv-x="987" 
d="M44 302c-25 0 -44 42 -44 81v17c0 37 13 81 39 81h21v2c0 122 108 192 233 192c77 0 135 -21 183 -54c51 41 123 64 212 64c67 0 112 -9 156 -28c28 -12 49 -43 41 -87c-8 -43 -34 -66 -60 -57s-55 18 -106 18c-46 0 -81 -17 -95 -50h226c49 0 101 -14 101 -41v-408
c0 -27 -53 -41 -103 -41h-21c-47 0 -99 14 -99 41v270h-111v-270c0 -27 -53 -41 -101 -41h-21c-49 0 -101 14 -101 41v270h-111v-270c0 -27 -53 -41 -101 -41h-21c-49 0 -101 14 -101 41v270h-16zM338 529c-32 0 -52 -24 -55 -48h114c1 11 4 21 7 31c-20 12 -40 17 -66 17z
" />
    <glyph glyph-name="f_f_l" unicode="ffl" horiz-adv-x="987" 
d="M44 302c-25 0 -44 42 -44 81v17c0 37 13 81 39 81h21v2c0 122 108 192 233 192c72 0 128 -19 174 -48c42 31 99 48 160 48c40 0 76 -6 108 -16c15 17 56 26 94 26h21c49 0 101 -14 101 -41v-612c0 -27 -53 -41 -103 -41h-21c-47 0 -99 14 -99 41v486c-16 8 -32 11 -54 11
c-32 0 -54 -23 -57 -48h52c25 0 39 -44 39 -83v-16c0 -39 -14 -80 -39 -80h-52v-270c0 -27 -53 -41 -101 -41h-21c-49 0 -101 14 -101 41v270h-111v-270c0 -27 -53 -41 -101 -41h-21c-49 0 -101 14 -101 41v270h-16zM338 529c-32 0 -52 -24 -55 -48h111v2c0 12 1 23 3 33
c-18 9 -36 13 -59 13z" />
    <glyph glyph-name="f_h" unicode="fh" horiz-adv-x="987" 
d="M44 302c-25 0 -44 42 -44 81v17c0 37 13 81 39 81h21v2c0 122 108 192 233 192c40 0 76 -6 107 -16c15 17 57 26 95 26h21c49 0 101 -14 101 -41v-216c37 40 91 62 156 62c107 0 178 -64 178 -159v-299c0 -27 -53 -41 -103 -41h-21c-47 0 -99 14 -99 41v253
c0 36 -19 60 -53 60s-58 -26 -58 -80v-233c0 -27 -53 -41 -103 -41h-21c-47 0 -99 14 -99 41v485c-17 9 -34 12 -56 12c-32 0 -52 -24 -55 -48h52c25 0 39 -44 39 -83v-16c0 -39 -14 -80 -39 -80h-52v-270c0 -27 -53 -41 -101 -41h-21c-49 0 -101 14 -101 41v270h-16z" />
    <glyph glyph-name="f_j" unicode="fj" horiz-adv-x="653" 
d="M44 302c-25 0 -44 42 -44 81v17c0 37 13 81 39 81h24c18 122 124 204 291 204c67 0 112 -9 156 -28c28 -12 49 -43 41 -87c-8 -43 -34 -66 -60 -57s-55 18 -106 18c-46 0 -81 -17 -95 -50h226c49 0 101 -14 101 -41v-438c0 -130 -98 -192 -223 -192c-44 0 -76 6 -102 16
c-28 11 -46 43 -38 87c8 43 34 62 60 57c12 -2 22 -6 40 -6c26 0 40 19 40 45v293h-111v-270c0 -27 -53 -41 -101 -41h-21c-49 0 -101 14 -101 41v270h-16z" />
    <glyph glyph-name="f_k" unicode="fk" horiz-adv-x="953" 
d="M44 302c-25 0 -44 42 -44 81v17c0 37 13 81 39 81h21v2c0 122 108 192 233 192c40 0 76 -6 107 -16c15 17 57 26 95 26h21c49 0 101 -14 101 -41v-312h4c66 0 100 60 100 117c0 26 50 41 92 41h20c44 0 97 -20 97 -47c0 -51 -23 -123 -90 -186c69 -61 101 -144 101 -219
c0 -27 -53 -47 -103 -47h-21c-48 0 -100 14 -100 41c0 58 -33 141 -96 141h-4v-141c0 -27 -53 -41 -103 -41h-21c-47 0 -99 14 -99 41v485c-17 9 -34 12 -56 12c-32 0 -52 -24 -55 -48h52c25 0 39 -44 39 -83v-16c0 -39 -14 -80 -39 -80h-52v-270c0 -27 -53 -41 -101 -41
h-21c-49 0 -101 14 -101 41v270h-16z" />
    <glyph glyph-name="f_l" unicode="fl" horiz-adv-x="653" 
d="M44 302c-25 0 -44 42 -44 81v17c0 37 13 81 39 81h21v2c0 122 108 192 233 192c40 0 76 -6 107 -16c15 17 57 26 95 26h21c49 0 101 -14 101 -41v-612c0 -27 -53 -41 -103 -41h-21c-47 0 -99 14 -99 41v485c-17 9 -34 12 -56 12c-32 0 -52 -24 -55 -48h52
c25 0 39 -44 39 -83v-16c0 -39 -14 -80 -39 -80h-52v-270c0 -27 -53 -41 -101 -41h-21c-49 0 -101 14 -101 41v270h-16z" />
    <glyph glyph-name="fi" unicode="fi" horiz-adv-x="653" 
d="M44 302c-25 0 -44 42 -44 81v17c0 37 13 81 39 81h24c18 122 124 204 291 204c67 0 112 -9 156 -28c28 -12 49 -43 41 -87c-8 -43 -34 -66 -60 -57s-55 18 -106 18c-46 0 -81 -17 -95 -50h226c49 0 101 -14 101 -41v-408c0 -27 -53 -41 -103 -41h-21c-47 0 -99 14 -99 41
v270h-111v-270c0 -27 -53 -41 -101 -41h-21c-49 0 -101 14 -101 41v270h-16z" />
    <glyph glyph-name="logoalpina_1" unicode="&#x40;LP" horiz-adv-x="1802" 
d="M900 750c581 0 830 -187 830 -432c0 -263 -489 -568 -829 -568c-341 0 -829 305 -829 568c0 245 247 432 828 432zM551 518c10 -10 28 -1 28 16c0 14 -17 38 -52 49c-100 32 -246 -36 -312 -158c-53 -99 -28 -177 15 -196c49 -22 107 9 186 96c-8 -19 -14 -38 -14 -53
c0 -14 10 -27 23 -34c25 -13 70 3 123 70v-14c1 -18 13 -33 27 -40c21 -11 72 6 144 97c-40 -77 -90 -154 -90 -172c0 -20 11 -32 26 -39c13 -6 24 0 28 12c8 26 46 103 77 163c52 94 119 167 139 161c16 -5 14 -41 -9 -86s-67 -78 -104 -69c-12 3 -17 -8 -15 -17
c2 -14 13 -26 24 -30c10 -4 22 -4 36 0c39 12 85 42 132 91c-15 -27 -26 -50 -26 -59c0 -18 12 -31 27 -37c25 -9 63 15 111 76c-10 -19 -16 -34 -16 -41c0 -17 8 -35 27 -40c9 -3 16 2 18 11c1 8 4 19 11 31c74 128 146 162 157 162c19 0 -86 -138 -86 -169
c0 -19 10 -35 28 -40c21 -6 48 7 97 62c-2 -12 -2 -23 -1 -32c3 -30 19 -42 37 -47c16 -5 45 7 95 55c-4 -13 -6 -25 -6 -36c0 -15 13 -30 27 -35c40 -15 100 27 133 73c9 13 3 29 -4 34c-6 4 -13 1 -19 -6c-31 -37 -57 -55 -70 -49c-12 6 -8 31 8 64c16 30 62 105 63 118
c1 12 -10 28 -22 33s-19 -2 -23 -11c-2 -5 -5 -11 -7 -15c-7 16 -24 32 -50 32c-46 0 -85 -31 -122 -85c-2 -3 -5 -8 -5 -8c-55 -70 -83 -92 -91 -87c-10 6 84 139 84 156c0 24 -20 44 -40 44c-17 0 -69 -26 -120 -83c11 24 20 44 20 52c0 15 -11 26 -27 32
c-10 3 -16 0 -19 -10c-1 -6 -4 -15 -8 -24c-45 -101 -124 -164 -134 -159c-12 6 9 37 29 74c17 35 38 65 38 78c0 20 -12 31 -28 38c-9 4 -14 0 -16 -9s-6 -20 -13 -33c-18 -34 -54 -75 -89 -106c3 4 5 7 8 13c41 81 24 132 -15 142c-22 6 -62 -29 -104 -80
c14 30 23 52 23 57c0 17 -13 34 -27 40c-10 3 -18 0 -21 -10c-5 -16 -11 -34 -18 -53c-59 -113 -141 -167 -154 -162c-11 4 -17 14 -8 45c88 82 133 143 160 191c28 51 21 91 -17 101c-43 11 -89 -37 -144 -164c-16 -38 -29 -70 -40 -96c-57 -73 -85 -94 -98 -89
c-14 5 -13 17 8 63c20 43 48 82 48 97c0 19 -17 40 -30 40c-9 0 -15 -5 -24 -22c-84 -150 -164 -207 -200 -193c-24 9 -36 52 1 123c44 83 145 147 236 123c16 -4 28 -10 36 -17zM1084 625c-21 -10 -23 -70 -5 -76c18 -9 60 15 60 41c0 18 -35 39 -55 35zM654 453
c55 112 74 145 88 141c8 -2 10 -15 -4 -38c-18 -30 -40 -67 -94 -125c3 7 6 14 10 22zM1505 433c-55 -104 -110 -141 -128 -136c-16 5 -20 43 9 89c31 50 62 70 86 70c18 0 33 -10 33 -23zM1283 -50l-80 26l-53 39l-34 -11l-41 43l-31 21l-42 78l-51 52l-51 14l-28 -26
l-19 -39l-43 -29l-29 -68l-102 -64l-44 6l-52 -43l-43 12l-23 -10c52 -25 102 -49 181 -74l-67 52l8 23l112 -88l45 -9l-124 97l21 12l148 -116l38 -3l-146 114l57 -16l124 -98l33 2l-129 100l16 15l144 -112l29 5l-156 123l16 14l131 -104l-25 48l-89 70l17 13l42 -32
l-1 28l-24 19l20 15l-11 46l15 38l-34 53l30 -9l42 -44l36 -79l40 -29l79 -82l19 38l38 -27l57 -20z" />
    <glyph glyph-name="logoalpina_2" unicode="F&#x40;LP" horiz-adv-x="1802" 
d="M900 750c581 0 830 -187 830 -432c0 -264 -489 -568 -829 -568c-342 0 -829 304 -829 568c0 245 247 432 828 432zM1104 -102l-306 240l33 29l270 -213l-52 98l-183 144l35 27l87 -66l-2 58l-49 39l41 31l-23 97l31 78l-70 109l62 -19l85 -90l75 -165l84 -60l163 -169
l40 79l57 -41c11 9 25 23 36 35l-102 76l-70 -23l-84 89l-66 45l-87 161l-104 107l-106 28l-57 -53l-40 -80l-88 -60l-60 -142l-210 -132l-90 12l-54 -43c92 -89 213 -160 348 -209l-218 170l43 25l293 -229c27 -6 57 -11 87 -14l-298 232l117 -33l256 -201c22 2 49 5 64 7
l-262 202l33 31l285 -222c20 5 38 10 56 15z" />
    <glyph glyph-name=".notdef" horiz-adv-x="743" 
d="M60 -169v825h623v-825h-623zM263 10h217v467h-217v-467z" />
    <glyph glyph-name="A" unicode="A" horiz-adv-x="686" 
d="M228 32c0 -26 -51 -41 -93 -41h-25c-44 0 -98 20 -98 47c0 137 108 485 183 568c22 24 87 34 159 34c69 0 128 -11 147 -35c65 -82 173 -427 173 -567c0 -27 -54 -47 -104 -47h-26c-48 0 -101 14 -101 41c0 17 -3 49 -10 90h-194c-7 -41 -11 -73 -11 -90zM277 294h120
c-17 63 -37 126 -61 178c-22 -53 -42 -116 -59 -178z" />
    <glyph glyph-name="Aacute" unicode="&#xc1;" horiz-adv-x="686" 
d="M409 704c-16 -20 -39 -37 -84 -37h-19c-42 0 -73 13 -62 37l57 131c12 27 62 41 109 41h19c51 0 100 -22 84 -42zM228 32c0 -26 -51 -41 -93 -41h-25c-44 0 -98 20 -98 47c0 137 108 485 183 568c22 24 87 34 159 34c69 0 128 -11 147 -35c65 -82 173 -427 173 -567
c0 -27 -54 -47 -104 -47h-26c-48 0 -101 14 -101 41c0 17 -3 49 -10 90h-194c-7 -41 -11 -73 -11 -90zM277 294h120c-17 63 -37 126 -61 178c-22 -53 -42 -116 -59 -178z" />
    <glyph glyph-name="B" unicode="B" horiz-adv-x="633" 
d="M48 602c0 28 20 33 54 33h232c144 0 254 -62 254 -176c0 -64 -35 -107 -88 -133c64 -25 109 -71 109 -147c0 -128 -121 -183 -252 -183h-255c-34 0 -54 15 -54 43v563zM314 486h-34v-106h34c30 0 54 24 54 53c0 31 -24 53 -54 53zM338 251h-58v-106h58c30 0 54 23 54 53
c0 28 -23 53 -54 53z" />
    <glyph glyph-name="C" unicode="C" horiz-adv-x="646" 
d="M616 514c8 -29 -17 -67 -61 -90c-47 -25 -88 -19 -101 1c-19 30 -47 45 -87 45c-58 0 -105 -49 -105 -155c0 -92 47 -154 105 -154c46 0 79 22 99 64c11 23 50 30 101 8c48 -21 72 -52 66 -77c-26 -102 -136 -175 -276 -175c-209 0 -333 135 -333 335s132 334 341 334
c119 0 230 -56 251 -136z" />
    <glyph glyph-name="C.alt" horiz-adv-x="658" 
d="M618 64c-47 -52 -137 -83 -251 -83c-213 0 -343 135 -343 335s132 334 323 334c155 0 279 -84 279 -220c0 -132 -98 -183 -173 -183c-54 0 -100 20 -100 77c0 28 9 55 26 55c23 0 41 13 41 44c0 30 -25 45 -57 45c-55 0 -101 -45 -101 -138c0 -104 83 -168 160 -168
c53 0 97 13 133 40c22 17 51 -7 67 -42c14 -31 18 -72 -4 -96z" />
    <glyph glyph-name="D" unicode="D" horiz-adv-x="712" 
d="M337 -4h-235c-34 0 -54 15 -54 43v563c0 28 20 33 54 33h233c208 0 353 -119 353 -319s-141 -320 -351 -320zM324 466h-44v-301h47c65 0 123 40 123 150c0 100 -61 151 -126 151z" />
    <glyph glyph-name="E" unicode="E" horiz-adv-x="557" 
d="M48 602c0 28 20 33 54 33h376c25 0 39 -42 39 -79v-14c0 -37 -14 -76 -39 -76h-198v-66h178c25 0 39 -42 39 -79v-14c0 -37 -14 -76 -39 -76h-178v-66h208c25 0 39 -42 39 -79v-14c0 -37 -14 -76 -39 -76h-386c-34 0 -54 15 -54 43v563z" />
    <glyph glyph-name="E.alt" horiz-adv-x="550" 
d="M310 -19c-182 0 -286 65 -286 186c0 73 38 127 111 156c-70 27 -100 78 -100 144c0 103 102 183 249 183c111 0 179 -35 219 -68c27 -22 31 -59 19 -99c-12 -44 -56 -77 -89 -61c-32 16 -59 51 -111 51c-46 0 -68 -15 -68 -43c0 -35 45 -47 143 -47c26 0 39 -30 39 -59
v-17c0 -42 -14 -63 -41 -63c-108 0 -154 -8 -154 -43c0 -32 37 -41 82 -41c52 0 87 27 119 43c33 16 77 -23 89 -67c12 -40 9 -78 -19 -99c-40 -30 -120 -56 -202 -56z" />
    <glyph glyph-name="Eacute" unicode="&#xc9;" horiz-adv-x="557" 
d="M339 704c-16 -20 -39 -37 -84 -37h-19c-42 0 -73 13 -62 37l57 131c12 27 62 41 109 41h19c51 0 100 -22 84 -42zM48 602c0 28 20 33 54 33h376c25 0 39 -42 39 -79v-14c0 -37 -14 -76 -39 -76h-198v-66h178c25 0 39 -42 39 -79v-14c0 -37 -14 -76 -39 -76h-178v-66h208
c25 0 39 -42 39 -79v-14c0 -37 -14 -76 -39 -76h-386c-34 0 -54 15 -54 43v563z" />
    <glyph glyph-name="Eacute.alt" horiz-adv-x="550" 
d="M329 704c-16 -20 -39 -37 -84 -37h-19c-42 0 -73 13 -62 37l57 131c12 27 62 41 109 41h19c51 0 100 -22 84 -42zM310 -19c-182 0 -286 65 -286 186c0 73 38 127 111 156c-70 27 -100 78 -100 144c0 103 102 183 249 183c111 0 179 -35 219 -68c27 -22 31 -59 19 -99
c-12 -44 -56 -77 -89 -61c-32 16 -59 51 -111 51c-46 0 -68 -15 -68 -43c0 -35 45 -47 143 -47c26 0 39 -30 39 -59v-17c0 -42 -14 -63 -41 -63c-108 0 -154 -8 -154 -43c0 -32 37 -41 82 -41c52 0 87 27 119 43c33 16 77 -23 89 -67c12 -40 9 -78 -19 -99
c-40 -30 -120 -56 -202 -56z" />
    <glyph glyph-name="Euro" unicode="&#x20ac;" horiz-adv-x="680" 
d="M29 195c-16 0 -29 25 -29 51v11c0 25 9 51 26 51h28v8v9h-25c-16 0 -29 25 -29 51v11c0 25 9 51 26 51h47c43 131 159 212 322 212c119 0 230 -56 251 -136c8 -29 -17 -67 -61 -90c-47 -25 -88 -19 -101 1c-19 30 -47 45 -87 45c-27 0 -51 -10 -70 -32h113
c16 0 26 -26 26 -52v-11c0 -26 -10 -50 -26 -50h-148v-10v-7h148c16 0 26 -26 26 -52v-11c0 -26 -10 -50 -26 -50h-111c19 -22 42 -34 68 -34c46 0 79 22 99 64c11 23 50 30 101 8c48 -21 72 -52 66 -77c-26 -102 -136 -175 -276 -175c-163 0 -275 82 -316 214h-42z" />
    <glyph glyph-name="F" unicode="F" horiz-adv-x="541" 
d="M280 34c0 -28 -56 -43 -107 -43h-21c-50 0 -104 15 -104 43v568c0 28 20 33 54 33h376c25 0 39 -42 39 -79v-14c0 -37 -14 -76 -39 -76h-198v-76h178c25 0 39 -42 39 -79v-14c0 -37 -14 -76 -39 -76h-178v-187z" />
    <glyph glyph-name="G" unicode="G" horiz-adv-x="694" 
d="M387 162c45 0 82 24 89 58h-103c-20 0 -31 39 -31 74v15c0 35 11 72 31 72h254c27 0 43 -12 43 -34v-159c0 -106 -119 -207 -313 -207c-209 0 -333 133 -333 325c0 208 141 343 351 344c119 1 229 -56 260 -135c11 -28 -17 -68 -61 -91c-47 -25 -86 -19 -101 1
c-18 24 -51 45 -96 45c-59 0 -115 -49 -115 -155c0 -107 52 -153 125 -153z" />
    <glyph glyph-name="H" unicode="H" horiz-adv-x="716" 
d="M48 596c0 28 55 44 106 44h21c50 0 105 -15 105 -44v-172h156v172c0 28 55 44 106 44h21c50 0 105 -15 105 -44v-562c0 -28 -56 -43 -107 -43h-21c-50 0 -104 15 -104 43v198h-156v-198c0 -28 -56 -43 -107 -43h-21c-50 0 -104 15 -104 43v562z" />
    <glyph glyph-name="I" unicode="I" horiz-adv-x="328" 
d="M48 591c0 28 55 49 106 49h21c50 0 105 -15 105 -44v-562c0 -28 -56 -43 -107 -43h-21c-50 0 -104 15 -104 43v557z" />
    <glyph glyph-name="Iacute" unicode="&#xcd;" horiz-adv-x="328" 
d="M229 704c-16 -20 -39 -37 -84 -37h-19c-42 0 -73 13 -62 37l57 131c12 27 62 41 109 41h19c51 0 100 -22 84 -42zM48 591c0 28 55 49 106 49h21c50 0 105 -15 105 -44v-562c0 -28 -56 -43 -107 -43h-21c-50 0 -104 15 -104 43v557z" />
    <glyph glyph-name="J" unicode="J" horiz-adv-x="506" 
d="M461 222c0 -156 -115 -241 -263 -241c-67 0 -137 20 -169 49c-25 23 -32 63 -9 110c22 44 58 69 85 61c23 -7 42 -25 68 -25c30 0 56 23 56 58v357c0 28 55 49 106 49h21c50 0 105 -15 105 -44v-374z" />
    <glyph glyph-name="J.alt" horiz-adv-x="548" 
d="M45 452c-25 0 -39 45 -39 85v16c0 40 14 82 39 82h459c25 0 44 -43 44 -83v-17c0 -38 -13 -83 -39 -83h-5c-34 -13 -53 -29 -53 -71c0 -43 20 -131 20 -188c0 -130 -108 -212 -233 -212c-66 0 -126 9 -166 31c-25 14 -31 50 -20 94c11 43 37 69 63 63
c25 -6 46 -14 74 -14c26 0 50 14 50 40c0 44 -19 87 -19 158c0 42 22 75 55 99h-230z" />
    <glyph glyph-name="K" unicode="K" horiz-adv-x="679" 
d="M416 32c0 70 -55 198 -129 198h-7v-196c0 -28 -56 -43 -107 -43h-21c-50 0 -104 15 -104 43v557c0 28 55 49 106 49h21c50 0 105 -15 105 -44v-191h5c63 0 120 127 120 194c0 27 53 41 107 41h22c57 0 111 -20 111 -47c0 -88 -42 -186 -125 -269
c88 -87 135 -197 135 -286c0 -27 -54 -47 -111 -47h-21c-54 0 -107 14 -107 41z" />
    <glyph glyph-name="K.alt" horiz-adv-x="683" 
d="M287 240h-7v-206c0 -28 -56 -43 -107 -43h-21c-50 0 -104 15 -104 43v557c0 28 55 49 106 49h21c50 0 105 -15 105 -44v-179h5c63 0 120 115 120 182c0 27 53 41 107 41h22c57 0 111 -20 111 -47c0 -100 -51 -196 -128 -262c25 -98 54 -130 84 -130c7 0 13 1 20 2
c30 4 50 -41 59 -89c8 -44 0 -95 -27 -106c-28 -11 -52 -18 -86 -18c-132 0 -204 71 -248 252c-11 -1 -21 -2 -32 -2z" />
    <glyph glyph-name="L" unicode="L" horiz-adv-x="527" 
d="M48 591c0 28 55 49 106 49h21c50 0 105 -15 105 -44v-408h208c25 0 39 -47 39 -89v-17c0 -42 -14 -86 -39 -86h-386c-34 0 -54 15 -54 43v552z" />
    <glyph glyph-name="L.alt" horiz-adv-x="548" 
d="M77 438c0 130 108 212 233 212c66 0 126 -9 166 -31c25 -14 31 -50 20 -94c-11 -43 -37 -69 -63 -63c-25 6 -46 14 -74 14c-26 0 -50 -14 -50 -40c0 -44 19 -87 19 -158c0 -42 -22 -75 -55 -99h230c25 0 39 -45 39 -85v-16c0 -40 -14 -82 -39 -82h-459
c-25 0 -44 43 -44 83v17c0 38 13 83 39 83h5c34 13 53 29 53 71c0 43 -20 131 -20 188z" />
    <glyph glyph-name="M" unicode="M" horiz-adv-x="877" 
d="M260 34c0 -28 -46 -43 -97 -43h-21c-50 0 -94 15 -94 43v537c0 38 35 69 106 69h79c85 0 164 -69 215 -179c52 110 131 179 216 179h59c71 0 106 -31 106 -69v-537c0 -28 -44 -43 -94 -43h-21c-51 0 -97 15 -97 43v346c-65 -103 -78 -229 -78 -346c0 -28 -46 -43 -90 -43
h-23c-43 0 -88 15 -88 43c0 117 -13 243 -78 346v-346z" />
    <glyph glyph-name="N" unicode="N" horiz-adv-x="708" 
d="M404 433c15 -45 30 -81 44 -112v276c0 28 46 43 97 43h21c50 0 94 -15 94 -43l-1 -543c0 -38 -44 -63 -95 -63h-34c-94 0 -175 55 -226 205c-15 43 -29 80 -44 112v-274c0 -28 -46 -43 -97 -43h-21c-50 0 -94 15 -94 43l1 543c0 38 44 63 95 63h34c95 0 178 -65 226 -207
z" />
    <glyph glyph-name="Ntilde" unicode="&#xd1;" horiz-adv-x="708" 
d="M155 668c-30 15 -43 38 -39 57c17 76 73 137 151 137c76 0 106 -49 151 -49c28 0 45 15 56 42c7 16 39 21 71 5c30 -15 43 -38 39 -57c-17 -76 -73 -137 -151 -137c-76 0 -106 49 -151 49c-28 0 -45 -15 -56 -42c-7 -16 -39 -21 -71 -5zM404 433c15 -45 30 -81 44 -112
v276c0 28 46 43 97 43h21c50 0 94 -15 94 -43l-1 -543c0 -38 -44 -63 -95 -63h-34c-94 0 -175 55 -226 205c-15 43 -29 80 -44 112v-274c0 -28 -46 -43 -97 -43h-21c-50 0 -94 15 -94 43l1 543c0 38 44 63 95 63h34c95 0 178 -65 226 -207z" />
    <glyph glyph-name="O" unicode="O" horiz-adv-x="729" 
d="M365 -19c-209 0 -341 135 -341 335s132 334 341 334c208 0 340 -134 340 -334s-132 -335 -340 -335zM364 151c65 0 103 48 103 164c0 100 -38 165 -103 165c-64 0 -102 -49 -102 -165c0 -102 38 -164 102 -164z" />
    <glyph glyph-name="O.alt" horiz-adv-x="729" 
d="M365 -19c-207 0 -341 136 -341 323c0 37 4 75 15 115c6 20 36 29 73 28c4 119 106 203 253 203c208 0 340 -134 340 -334s-132 -335 -340 -335zM308 267c-15 0 -30 1 -44 3c10 -71 47 -119 100 -119c65 0 103 48 103 164c0 100 -42 166 -107 166c-37 0 -51 -14 -51 -36
c0 -23 25 -33 51 -33c27 0 38 -32 31 -74c-8 -47 -27 -71 -83 -71z" />
    <glyph glyph-name="Oacute" unicode="&#xd3;" horiz-adv-x="729" 
d="M409 704c-16 -20 -39 -37 -84 -37h-19c-42 0 -73 13 -62 37l57 131c12 27 62 41 109 41h19c51 0 100 -22 84 -42zM365 -19c-209 0 -341 135 -341 335s132 334 341 334c208 0 340 -134 340 -334s-132 -335 -340 -335zM364 151c65 0 103 48 103 164c0 100 -38 165 -103 165
c-64 0 -102 -49 -102 -165c0 -102 38 -164 102 -164z" />
    <glyph glyph-name="Oacute.alt" horiz-adv-x="729" 
d="M399 704c-16 -20 -39 -37 -84 -37h-19c-42 0 -73 13 -62 37l57 131c12 27 62 41 109 41h19c51 0 100 -22 84 -42zM365 -19c-207 0 -341 136 -341 323c0 37 4 75 15 115c6 20 36 29 73 28c4 119 106 203 253 203c208 0 340 -134 340 -334s-132 -335 -340 -335zM308 267
c-15 0 -30 1 -44 3c10 -71 47 -119 100 -119c65 0 103 48 103 164c0 100 -42 166 -107 166c-37 0 -51 -14 -51 -36c0 -23 25 -33 51 -33c27 0 38 -32 31 -74c-8 -47 -27 -71 -83 -71z" />
    <glyph glyph-name="P" unicode="P" horiz-adv-x="625" 
d="M344 186h-64v-152c0 -28 -56 -43 -107 -43h-21c-50 0 -104 15 -104 43v568c0 28 20 33 54 33h240c161 0 271 -84 271 -224s-106 -225 -269 -225zM314 476h-34v-131h37c43 0 68 31 68 66s-27 65 -71 65z" />
    <glyph glyph-name="Q" unicode="Q" horiz-adv-x="729" 
d="M365 -19c-209 0 -341 135 -341 335s132 334 341 334c208 0 340 -134 340 -334c0 -54 -10 -104 -28 -147c33 -45 52 -95 52 -140c0 -22 -39 -38 -77 -38h-22c-36 0 -75 11 -75 34v4c-52 -31 -116 -48 -190 -48zM364 151c20 0 37 4 51 14c-18 7 -37 11 -56 11
c-22 0 -40 35 -40 68v14c0 35 12 68 40 68c38 0 74 -5 108 -15v4c0 100 -38 165 -103 165c-64 0 -102 -49 -102 -165c0 -102 38 -164 102 -164z" />
    <glyph glyph-name="Q.alt" horiz-adv-x="727" 
d="M653 -151c-36 -12 -63 -15 -94 -15c-184 0 -390 109 -420 233c-3 13 -1 26 8 41c18 28 50 49 72 35s51 -20 85 -20c72 0 163 77 163 188c0 107 -43 169 -112 169c-65 0 -99 -48 -99 -97c0 -47 11 -72 35 -72s26 25 26 45c0 17 22 25 51 25c30 0 50 -12 55 -32
c21 -92 -53 -201 -186 -201c-131 0 -213 102 -213 232c0 151 132 270 340 270c209 0 341 -135 341 -335c0 -158 -113 -262 -264 -299c32 -7 64 -11 95 -11c33 0 59 4 82 10c33 9 56 -24 66 -72c8 -46 1 -85 -31 -94z" />
    <glyph glyph-name="R" unicode="R" horiz-adv-x="646" 
d="M48 602c0 28 20 33 54 33h240c161 0 271 -84 271 -224c0 -76 -31 -135 -85 -174c61 -62 94 -128 94 -199c0 -27 -53 -47 -104 -47h-22c-48 0 -101 14 -101 41s-20 83 -78 154h-37v-152c0 -28 -56 -43 -107 -43h-21c-50 0 -104 15 -104 43v568zM314 476h-34v-131h37
c43 0 68 31 68 66s-27 65 -71 65z" />
    <glyph glyph-name="R.alt" horiz-adv-x="655" 
d="M613 8c-28 -11 -52 -18 -86 -18c-118 0 -187 56 -232 196h-15v-152c0 -28 -56 -43 -107 -43h-21c-50 0 -104 15 -104 43v568c0 28 20 33 54 33h240c161 0 271 -84 271 -224c0 -81 -35 -143 -96 -181c14 -21 29 -29 44 -29c7 0 13 1 20 2c30 4 50 -41 59 -89
c8 -44 0 -95 -27 -106zM314 476h-34v-131h37c43 0 68 31 68 66s-27 65 -71 65z" />
    <glyph glyph-name="S" unicode="S" horiz-adv-x="577" 
d="M274 -19c-115 0 -193 27 -233 56c-28 20 -27 64 -14 104c13 43 49 85 82 69c30 -15 88 -50 148 -50c43 0 70 11 70 32c0 31 -56 25 -139 43c-101 22 -159 89 -159 191c0 135 117 224 292 224c83 0 158 -21 198 -52c27 -22 30 -60 19 -101c-13 -45 -57 -85 -90 -70
c-31 14 -75 44 -131 44c-50 0 -70 -11 -70 -31c0 -32 70 -26 154 -44c103 -22 158 -89 158 -191c0 -135 -121 -224 -285 -224z" />
    <glyph glyph-name="T" unicode="T" horiz-adv-x="612" 
d="M44 443c-25 0 -44 45 -44 87v18c0 40 13 87 39 87h534c25 0 39 -47 39 -89v-17c0 -42 -14 -86 -39 -86h-151v-409c0 -28 -56 -43 -107 -43h-21c-50 0 -104 15 -104 43v409h-146z" />
    <glyph glyph-name="U" unicode="U" horiz-adv-x="700" 
d="M350 -19c-178 0 -305 98 -305 254v361c0 29 55 44 105 44h21c51 0 106 -21 106 -49v-347c0 -38 33 -69 73 -69s73 31 73 69v347c0 28 55 49 106 49h21c50 0 105 -15 105 -44v-361c0 -156 -127 -254 -305 -254z" />
    <glyph glyph-name="Uacute" unicode="&#xda;" horiz-adv-x="700" 
d="M399 704c-16 -20 -39 -37 -84 -37h-19c-42 0 -73 13 -62 37l57 131c12 27 62 41 109 41h19c51 0 100 -22 84 -42zM350 -19c-178 0 -305 98 -305 254v361c0 29 55 44 105 44h21c51 0 106 -21 106 -49v-347c0 -38 33 -69 73 -69s73 31 73 69v347c0 28 55 49 106 49h21
c50 0 105 -15 105 -44v-361c0 -156 -127 -254 -305 -254z" />
    <glyph glyph-name="Udieresis" unicode="&#xdc;" horiz-adv-x="700" 
d="M235 660c-67 0 -106 39 -106 96c0 55 39 94 106 94c68 0 106 -39 106 -94c0 -57 -38 -96 -106 -96zM465 660c-67 0 -106 39 -106 96c0 55 39 94 106 94c68 0 106 -39 106 -94c0 -57 -38 -96 -106 -96zM350 -19c-178 0 -305 98 -305 254v361c0 29 55 44 105 44h21
c51 0 106 -21 106 -49v-347c0 -38 33 -69 73 -69s73 31 73 69v347c0 28 55 49 106 49h21c50 0 105 -15 105 -44v-361c0 -156 -127 -254 -305 -254z" />
    <glyph glyph-name="V" unicode="V" horiz-adv-x="686" 
d="M491 25c-21 -24 -87 -34 -159 -34c-69 0 -128 11 -147 35c-65 82 -173 427 -173 567c0 27 54 47 104 47h26c48 0 101 -14 101 -41c0 -54 44 -261 106 -404c62 148 109 350 109 404c0 26 51 41 93 41h25c44 0 98 -20 98 -47c0 -137 -108 -485 -183 -568z" />
    <glyph glyph-name="W" unicode="W" horiz-adv-x="1020" 
d="M873 26c-19 -24 -78 -35 -147 -35c-72 0 -145 12 -152 43l-65 278l-63 -278c-7 -31 -80 -43 -152 -43c-69 0 -128 11 -147 35c-65 82 -123 357 -123 567c0 27 54 47 104 47h26c48 0 101 -14 101 -41c0 -89 8 -223 39 -338l72 330c7 31 63 49 149 49c83 0 131 -20 137 -49
l74 -332c31 116 39 250 39 340c0 27 53 41 101 41h26c50 0 104 -20 104 -47c0 -210 -58 -485 -123 -567z" />
    <glyph glyph-name="X" unicode="X" horiz-adv-x="693" 
d="M263 32c0 -27 -53 -41 -107 -41h-21c-57 0 -111 20 -111 47c0 102 63 186 165 278c-90 88 -155 173 -155 277c0 27 54 47 111 47h22c54 0 107 -14 107 -41c0 -37 13 -68 75 -132c55 62 70 98 70 132c0 27 53 41 107 41h22c57 0 111 -20 111 -47
c0 -103 -64 -176 -161 -265c97 -91 171 -178 171 -290c0 -27 -54 -47 -111 -47h-21c-54 0 -107 14 -107 41c0 36 -20 72 -86 138c-61 -66 -81 -104 -81 -138z" />
    <glyph glyph-name="Y" unicode="Y" horiz-adv-x="641" 
d="M435 34c0 -28 -56 -43 -107 -43h-21c-50 0 -104 15 -104 43v163c-111 115 -191 285 -191 396c0 27 50 47 107 47h22c54 0 103 -14 103 -41c0 -33 22 -104 77 -185c54 81 76 152 76 185c0 27 49 41 103 41h22c57 0 107 -20 107 -47c0 -112 -82 -285 -194 -399v-160z" />
    <glyph glyph-name="Z" unicode="Z" horiz-adv-x="610" 
d="M576 529c0 -150 -182 -250 -273 -341h244c25 0 39 -47 39 -89v-17c0 -42 -14 -86 -39 -86h-479c-25 0 -44 45 -44 87v18c0 150 183 251 274 342h-220c-25 0 -44 45 -44 87v18c0 40 13 87 39 87h464c25 0 39 -47 39 -89v-17z" />
    <glyph glyph-name="a" unicode="a" horiz-adv-x="635" 
d="M599 32c0 -27 -53 -41 -103 -41h-21c-47 0 -99 14 -99 41v22c-37 -41 -90 -63 -149 -63c-117 0 -209 80 -209 241c0 163 105 258 220 258c55 0 103 -17 138 -53v12c0 27 53 41 101 41h21c49 0 101 -14 101 -41v-417zM306 351c-42 0 -75 -37 -75 -110s33 -107 73 -107
c38 0 72 32 72 92v36c0 58 -32 89 -70 89z" />
    <glyph glyph-name="a.alt" horiz-adv-x="665" 
d="M227 -9c-117 0 -209 80 -209 241c0 163 105 258 220 258c55 0 103 -17 138 -53v12c0 27 53 41 101 41h21c49 0 101 -14 101 -41v-280c0 -20 8 -26 30 -26s36 -23 36 -59c0 -47 -46 -93 -134 -93h-21c-68 0 -108 30 -125 74c-37 -48 -94 -74 -158 -74zM231 241
c0 -73 33 -107 73 -107c38 0 72 32 72 92v36c0 58 -32 89 -70 89c-42 0 -75 -37 -75 -110z" />
    <glyph glyph-name="aacute" unicode="&#xe1;" horiz-adv-x="635" 
d="M389 562c-15 -20 -39 -37 -84 -37h-19c-42 0 -72 13 -62 37l57 141c11 27 62 41 109 41h19c51 0 99 -22 84 -42zM599 32c0 -27 -53 -41 -103 -41h-21c-47 0 -99 14 -99 41v22c-37 -41 -90 -63 -149 -63c-117 0 -209 80 -209 241c0 163 105 258 220 258
c55 0 103 -17 138 -53v12c0 27 53 41 101 41h21c49 0 101 -14 101 -41v-417zM306 351c-42 0 -75 -37 -75 -110s33 -107 73 -107c38 0 72 32 72 92v36c0 58 -32 89 -70 89z" />
    <glyph glyph-name="aacute.alt" horiz-adv-x="665" 
d="M389 562c-15 -20 -39 -37 -84 -37h-19c-42 0 -72 13 -62 37l57 141c11 27 62 41 109 41h19c51 0 99 -22 84 -42zM227 -9c-117 0 -209 80 -209 241c0 163 105 258 220 258c55 0 103 -17 138 -53v12c0 27 53 41 101 41h21c49 0 101 -14 101 -41v-280c0 -20 8 -26 30 -26
s36 -23 36 -59c0 -47 -46 -93 -134 -93h-21c-68 0 -108 30 -125 74c-37 -48 -94 -74 -158 -74zM231 241c0 -73 33 -107 73 -107c38 0 72 32 72 92v36c0 58 -32 89 -70 89c-42 0 -75 -37 -75 -110z" />
    <glyph glyph-name="acute" unicode="&#xb4;" 
d="M279 562c-15 -20 -39 -37 -84 -37h-19c-42 0 -72 13 -62 37l57 141c11 27 62 41 109 41h19c51 0 99 -22 84 -42z" />
    <glyph glyph-name="acute.cap" 
d="M279 704c-16 -20 -39 -37 -84 -37h-19c-42 0 -73 13 -62 37l57 131c12 27 62 41 109 41h19c51 0 100 -22 84 -42z" />
    <glyph glyph-name="ampersand" unicode="&#x26;" horiz-adv-x="698" 
d="M572 -4c-20 16 -39 30 -57 44c-65 -40 -143 -58 -220 -58c-179 0 -289 75 -289 196c0 71 34 125 100 157c-35 38 -45 75 -45 112c0 124 113 204 284 204c81 0 154 -21 193 -52c26 -22 29 -60 18 -101c-12 -45 -55 -85 -87 -70c-30 14 -73 44 -128 44
c-47 0 -67 -15 -67 -34s12 -30 85 -66c38 -18 76 -39 123 -70c5 20 7 41 7 65c0 31 47 46 95 46c46 -1 91 -16 91 -46c0 -70 -12 -129 -33 -178l36 -27c28 -21 25 -71 -2 -116c-26 -43 -75 -72 -104 -50zM217 207c0 -32 41 -61 96 -61c16 0 33 3 49 8c-49 36 -89 63 -130 89
c-10 -11 -15 -24 -15 -36z" />
    <glyph glyph-name="asciitilde" unicode="~" horiz-adv-x="600" 
d="M402 178c-97 0 -130 57 -187 57c-36 0 -55 -20 -71 -60c-9 -21 -50 -28 -90 -7c-39 19 -58 49 -53 72c21 96 92 174 196 174c97 0 130 -56 187 -56c37 0 55 20 71 60c9 21 50 28 91 7c38 -20 57 -49 53 -72c-21 -96 -93 -175 -197 -175z" />
    <glyph glyph-name="asterisk" unicode="*" horiz-adv-x="460" 
d="M180 229c-10 -17 -49 -2 -78 19l-12 8c-31 23 -51 53 -38 68l56 60l-81 20c-20 5 -17 46 -7 80l5 14c12 36 34 66 52 57l82 -40l-11 94c-2 20 39 31 75 31h14c38 0 72 -13 70 -32l-11 -96l87 43c18 9 40 -21 52 -57l4 -14c11 -34 14 -75 -6 -80l-81 -20l56 -60
c13 -15 -6 -47 -38 -68l-12 -8c-29 -19 -68 -37 -78 -19l-50 88z" />
    <glyph glyph-name="at" unicode="@" horiz-adv-x="910" 
d="M387 80c-90 0 -158 59 -158 179c0 122 79 193 166 193c43 0 80 -13 107 -40v6c0 20 38 31 75 31h16c38 0 76 -11 76 -31v-187c0 -15 8 -19 25 -19c20 0 31 34 31 91c0 141 -94 197 -264 197c-185 0 -276 -95 -276 -243c0 -157 110 -227 245 -227c53 0 93 5 146 22
c25 8 47 -19 59 -54c13 -37 5 -68 -23 -81c-54 -26 -109 -37 -182 -37c-240 0 -406 120 -406 373c0 234 182 397 437 397c276 0 425 -126 425 -336c0 -167 -124 -234 -229 -234c-73 0 -124 24 -145 59c-28 -39 -73 -59 -125 -59zM390 266c0 -54 26 -80 57 -80
c28 0 55 25 55 69v27c0 43 -25 66 -55 66c-31 0 -57 -27 -57 -82z" />
    <glyph glyph-name="b" unicode="b" horiz-adv-x="635" 
d="M397 -9c-56 0 -104 18 -139 54c-6 -33 -56 -54 -102 -54h-21c-47 0 -99 14 -99 41v592c0 27 53 41 101 41h21c49 0 101 -14 101 -41v-197c37 41 90 63 149 63c117 0 209 -81 209 -242c0 -163 -105 -257 -220 -257zM329 130c42 0 75 37 75 110s-33 107 -73 107
c-38 0 -72 -32 -72 -92v-36c0 -58 32 -89 70 -89z" />
    <glyph glyph-name="backslash" unicode="\" horiz-adv-x="447" 
d="M200 596l244 -551c12 -28 -18 -54 -68 -54h-21c-51 0 -92 8 -108 44l-244 551c-12 28 18 54 68 54h21c51 0 92 -8 108 -44z" />
    <glyph glyph-name="bar" unicode="|" horiz-adv-x="300" 
d="M48 595c0 26 46 45 93 45h19c46 0 92 -14 92 -40v-698c0 -26 -47 -39 -94 -39h-19c-46 0 -91 13 -91 39v693z" />
    <glyph glyph-name="braceleft" unicode="{" horiz-adv-x="328" 
d="M294 605c22 -42 31 -89 10 -97c-34 -13 -52 -26 -52 -55c0 -34 9 -68 9 -125c0 -30 -25 -60 -59 -82c34 -21 59 -51 59 -81c0 -57 -9 -92 -9 -126c0 -28 18 -42 52 -55c21 -8 12 -55 -10 -97c-20 -36 -49 -69 -76 -64c-85 16 -154 72 -154 153c0 75 17 101 17 146
c0 25 -12 42 -40 45c-38 4 -38 155 0 159c27 3 40 19 40 45c0 44 -17 70 -17 145c0 81 69 137 154 153c27 5 56 -27 76 -64z" />
    <glyph glyph-name="braceright" unicode="}" horiz-adv-x="328" 
d="M34 -113c-22 42 -31 89 -10 97c34 13 52 26 52 55c0 34 -9 68 -9 125c0 30 25 60 59 82c-34 21 -59 51 -59 81c0 57 9 92 9 126c0 28 -18 42 -52 55c-21 8 -12 55 10 97c20 36 49 69 76 64c85 -16 154 -72 154 -153c0 -75 -17 -101 -17 -146c0 -25 12 -42 40 -45
c38 -4 38 -155 0 -159c-27 -3 -40 -19 -40 -45c0 -44 17 -70 17 -145c0 -81 -69 -137 -154 -153c-27 -5 -56 27 -76 64z" />
    <glyph glyph-name="bracketleft" unicode="[" horiz-adv-x="332" 
d="M48 -129v753c0 27 17 41 43 41h202c26 0 39 -44 39 -81v-17c0 -39 -19 -81 -44 -81h-55v-477h55c25 0 44 -42 44 -81v-17c0 -37 -13 -81 -39 -81h-202c-26 0 -43 14 -43 41z" />
    <glyph glyph-name="bracketright" unicode="]" horiz-adv-x="332" 
d="M284 624v-753c0 -27 -17 -41 -43 -41h-202c-26 0 -39 44 -39 81v17c0 39 19 81 44 81h55v477h-55c-25 0 -44 42 -44 81v17c0 37 13 81 39 81h202c26 0 43 -14 43 -41z" />
    <glyph glyph-name="brokenbar" unicode="&#xa6;" horiz-adv-x="300" 
d="M48 595c0 26 46 45 93 45h19c46 0 92 -14 92 -40v-258c0 -26 -47 -39 -94 -39h-19c-46 0 -91 13 -91 39v253zM48 155c0 26 46 45 93 45h19c46 0 92 -14 92 -40v-258c0 -26 -47 -39 -94 -39h-19c-46 0 -91 13 -91 39v253z" />
    <glyph glyph-name="c" unicode="c" horiz-adv-x="509" 
d="M296 -19c-180 0 -278 116 -278 258c0 145 107 261 287 261c72 0 126 -17 160 -42c27 -20 36 -65 18 -99s-48 -61 -75 -46c-29 16 -53 28 -84 28c-44 0 -94 -28 -94 -99c0 -70 52 -102 95 -102c40 0 58 13 90 31c26 14 61 -10 77 -47c17 -39 3 -79 -22 -98
c-40 -30 -94 -45 -174 -45z" />
    <glyph glyph-name="cent" unicode="&#xa2;" horiz-adv-x="509" 
d="M398 -108c2 -27 -52 -41 -99 -41h-19c-51 0 -96 17 -94 42l9 102c-115 35 -177 131 -177 244c0 112 64 207 177 244l-9 106c-2 27 52 41 99 41h19c51 0 96 -17 94 -42l-8 -97c31 -8 56 -19 75 -33c27 -20 36 -65 18 -99s-48 -61 -75 -46c-29 16 -53 28 -84 28
c-44 0 -94 -28 -94 -99c0 -70 52 -102 95 -102c40 0 58 13 90 31c26 14 61 -10 77 -47c17 -39 3 -79 -22 -98c-22 -16 -48 -28 -80 -36z" />
    <glyph glyph-name="colon" unicode=":" horiz-adv-x="261" 
d="M130 224c-74 0 -118 44 -118 108c0 62 44 105 118 105c76 0 119 -43 119 -105c0 -64 -43 -108 -119 -108zM130 -9c-74 0 -118 44 -118 108c0 62 44 105 118 105c76 0 119 -43 119 -105c0 -64 -43 -108 -119 -108z" />
    <glyph glyph-name="comma" unicode="," horiz-adv-x="261" 
d="M179 -98c-6 -24 -30 -37 -75 -37h-19c-42 0 -73 13 -71 37l17 261c2 27 52 41 99 41h19c51 0 100 -17 94 -42z" />
    <glyph glyph-name="copyright" unicode="&#xa9;" horiz-adv-x="716" 
d="M358 -18c-183 0 -334 151 -334 334s151 334 334 334s334 -151 334 -334s-151 -334 -334 -334zM358 84c128 0 232 104 232 232s-104 233 -232 233s-233 -105 -233 -233s105 -232 233 -232zM506 428c5 -18 -11 -40 -38 -54c-27 -15 -52 -11 -60 1c-10 14 -23 22 -42 22
c-27 0 -52 -23 -52 -80c0 -48 25 -79 52 -79c22 0 39 11 49 34c7 13 30 17 61 4c29 -13 43 -32 40 -47c-14 -58 -76 -99 -156 -99c-118 0 -188 75 -188 188s74 188 192 188c68 0 131 -33 142 -78z" />
    <glyph glyph-name="currency" unicode="&#xa4;" horiz-adv-x="666" 
d="M334 9c-48 0 -93 12 -132 32l-54 -53c-18 -18 -58 3 -85 30l-12 12c-27 27 -44 70 -26 88l52 51c-19 38 -30 82 -30 127c0 46 11 90 31 129l-53 52c-18 18 3 59 31 86l11 12c28 27 67 46 84 29l53 -53c39 20 83 31 130 31c46 0 90 -11 129 -30l52 52c17 17 56 -2 84 -29
l11 -12c28 -27 49 -68 31 -86l-51 -51c20 -39 31 -83 31 -130c0 -46 -11 -90 -30 -128l50 -50c18 -18 1 -61 -26 -88l-12 -12c-27 -27 -67 -48 -85 -30l-53 53c-40 -21 -84 -32 -131 -32zM334 174c68 0 123 55 123 122c0 68 -55 123 -123 123c-67 0 -122 -55 -122 -123
c0 -67 55 -122 122 -122z" />
    <glyph glyph-name="d" unicode="d" horiz-adv-x="635" 
d="M599 32c0 -27 -53 -41 -103 -41h-21c-47 0 -99 14 -99 41v22c-37 -41 -90 -63 -149 -63c-117 0 -209 80 -209 241c0 163 105 258 220 258c55 0 103 -17 138 -53v187c0 27 53 41 101 41h21c49 0 101 -15 101 -41v-592zM306 351c-42 0 -75 -37 -75 -110s33 -107 73 -107
c38 0 72 32 72 92v36c0 58 -32 89 -70 89z" />
    <glyph glyph-name="d.alt" horiz-adv-x="665" 
d="M599 169c0 -20 8 -26 30 -26s36 -23 36 -59c0 -47 -46 -93 -134 -93h-21c-68 0 -108 30 -125 74c-37 -48 -94 -74 -158 -74c-117 0 -209 80 -209 241c0 163 105 258 220 258c55 0 103 -17 138 -53v187c0 27 53 41 101 41h21c49 0 101 -14 101 -41v-455zM306 351
c-42 0 -75 -37 -75 -110s33 -107 73 -107c38 0 72 32 72 92v36c0 58 -32 89 -70 89z" />
    <glyph glyph-name="dieresis" unicode="&#xa8;" 
d="M135 520c-67 0 -106 39 -106 96c0 55 39 94 106 94c68 0 106 -39 106 -94c0 -57 -38 -96 -106 -96zM365 520c-67 0 -106 39 -106 96c0 55 39 94 106 94c68 0 106 -39 106 -94c0 -57 -38 -96 -106 -96z" />
    <glyph glyph-name="dieresis.cap" 
d="M135 660c-67 0 -106 39 -106 96c0 55 39 94 106 94c68 0 106 -39 106 -94c0 -57 -38 -96 -106 -96zM365 660c-67 0 -106 39 -106 96c0 55 39 94 106 94c68 0 106 -39 106 -94c0 -57 -38 -96 -106 -96z" />
    <glyph glyph-name="divide" unicode="&#xf7;" 
d="M250 371c-62 0 -99 37 -99 91c0 52 37 88 99 88c64 0 100 -36 100 -88c0 -54 -36 -91 -100 -91zM62 182c-25 0 -44 42 -44 81v17c0 37 13 81 39 81h386c25 0 39 -44 39 -83v-16c0 -39 -14 -80 -39 -80h-381zM250 -7c-62 0 -99 37 -99 91c0 52 37 88 99 88
c64 0 100 -36 100 -88c0 -54 -36 -91 -100 -91z" />
    <glyph glyph-name="dollar" unicode="$" horiz-adv-x="577" 
d="M394 -98c2 -27 -52 -41 -99 -41h-19c-51 0 -96 17 -94 42l7 83c-69 10 -119 30 -148 51c-28 20 -27 64 -14 104c13 43 49 85 82 69c30 -15 88 -50 148 -50c43 0 70 11 70 32c0 31 -56 25 -139 43c-101 22 -159 89 -159 191c0 99 63 173 165 206l-8 97c-2 27 52 41 99 41
h19c51 0 96 -17 94 -42l-7 -83c54 -8 100 -25 128 -47c27 -22 30 -60 19 -101c-13 -45 -57 -85 -90 -70c-31 14 -75 44 -131 44c-50 0 -70 -11 -70 -31c0 -32 70 -26 154 -44c103 -22 158 -89 158 -191s-69 -177 -173 -208z" />
    <glyph glyph-name="e" unicode="e" horiz-adv-x="556" 
d="M310 -19c-198 0 -292 122 -292 261c0 140 92 258 264 258c148 0 251 -79 250 -237c0 -24 -2 -50 -7 -77h-295c14 -34 45 -52 109 -52c40 0 79 15 112 29c25 11 53 -19 64 -53s7 -70 -17 -85c-44 -27 -104 -44 -188 -44zM287 361c-36 0 -56 -25 -63 -67h122
c-8 45 -28 67 -59 67z" />
    <glyph glyph-name="e.alt" horiz-adv-x="549" 
d="M292 -19c-198 0 -274 122 -274 261c0 149 101 258 272 258c157 0 241 -76 241 -175c0 -89 -66 -150 -220 -150c-26 0 -53 3 -80 8c14 -33 46 -51 108 -51c46 0 87 15 122 32c24 12 54 -22 63 -53c8 -32 3 -64 -21 -80c-44 -30 -115 -50 -211 -50zM290 361
c-39 0 -60 -25 -67 -69c22 -3 42 -4 57 -4c36 0 68 11 68 33s-20 40 -58 40z" />
    <glyph glyph-name="eacute" unicode="&#xe9;" horiz-adv-x="556" 
d="M339 562c-15 -20 -39 -37 -84 -37h-19c-42 0 -72 13 -62 37l57 141c11 27 62 41 109 41h19c51 0 99 -22 84 -42zM310 -19c-198 0 -292 122 -292 261c0 140 92 258 264 258c148 0 251 -79 250 -237c0 -24 -2 -50 -7 -77h-295c14 -34 45 -52 109 -52c40 0 79 15 112 29
c25 11 53 -19 64 -53s7 -70 -17 -85c-44 -27 -104 -44 -188 -44zM287 361c-36 0 -56 -25 -63 -67h122c-8 45 -28 67 -59 67z" />
    <glyph glyph-name="eacute.alt" horiz-adv-x="549" 
d="M339 562c-15 -20 -39 -37 -84 -37h-19c-42 0 -72 13 -62 37l57 141c11 27 62 41 109 41h19c51 0 99 -22 84 -42zM292 -19c-198 0 -274 122 -274 261c0 149 101 258 272 258c157 0 241 -76 241 -175c0 -89 -66 -150 -220 -150c-26 0 -53 3 -80 8c14 -33 46 -51 108 -51
c46 0 87 15 122 32c24 12 54 -22 63 -53c8 -32 3 -64 -21 -80c-44 -30 -115 -50 -211 -50zM290 361c-39 0 -60 -25 -67 -69c22 -3 42 -4 57 -4c36 0 68 11 68 33s-20 40 -58 40z" />
    <glyph glyph-name="eight" unicode="8" horiz-adv-x="605" 
d="M587 183c0 -118 -115 -202 -294 -202c-169 0 -275 81 -275 199c0 63 30 117 86 152c-47 30 -70 74 -70 131c0 110 95 187 268 187c172 0 268 -72 268 -182c0 -55 -26 -100 -75 -131c59 -34 92 -87 92 -154zM303 389c39 0 59 27 59 57c0 35 -23 58 -59 58
c-41 0 -60 -30 -60 -58c0 -36 23 -57 60 -57zM303 135c41 0 67 31 67 67c0 42 -28 68 -67 68c-42 0 -68 -34 -68 -68c0 -43 29 -67 68 -67z" />
    <glyph glyph-name="eight.dnom" horiz-adv-x="324" 
d="M315 93c0 -60 -62 -102 -158 -102c-90 0 -148 40 -148 100c0 32 16 58 44 76c-23 15 -35 37 -35 65c0 56 51 95 144 95s144 -36 144 -92c0 -28 -13 -50 -38 -65c30 -18 47 -44 47 -77zM163 197c17 0 27 12 27 25c0 16 -11 26 -27 26c-19 0 -28 -13 -28 -26
c0 -16 11 -25 28 -25zM163 74c18 0 31 13 31 29c0 20 -14 30 -31 30c-19 0 -32 -15 -32 -30c0 -19 14 -29 32 -29z" />
    <glyph glyph-name="eight.numr" horiz-adv-x="324" 
d="M315 416c0 -60 -62 -102 -158 -102c-90 0 -148 40 -148 100c0 32 16 58 44 76c-23 15 -35 37 -35 65c0 56 51 95 144 95s144 -36 144 -92c0 -28 -13 -50 -38 -65c30 -18 47 -44 47 -77zM163 520c17 0 27 12 27 25c0 16 -11 26 -27 26c-19 0 -28 -13 -28 -26
c0 -16 11 -25 28 -25zM163 397c18 0 31 13 31 29c0 20 -14 30 -31 30c-19 0 -32 -15 -32 -30c0 -19 14 -29 32 -29z" />
    <glyph glyph-name="equal" unicode="=" 
d="M62 287c-25 0 -44 42 -44 81v17c0 37 13 81 39 81h386c25 0 39 -44 39 -83v-16c0 -39 -14 -80 -39 -80h-381zM62 76c-25 0 -44 42 -44 81v17c0 37 13 81 39 81h386c25 0 39 -44 39 -83v-16c0 -39 -14 -80 -39 -80h-381z" />
    <glyph glyph-name="exclam" unicode="!" horiz-adv-x="324" 
d="M36 591c-2 28 55 49 116 49h21c60 0 117 -15 115 -44l-23 -346c-2 -28 -43 -43 -94 -43h-21c-50 0 -89 15 -91 43zM161 -9c-74 0 -118 40 -118 100c0 57 44 97 118 97c76 0 119 -40 119 -97c0 -60 -43 -100 -119 -100z" />
    <glyph glyph-name="exclamdown" unicode="&#xa1;" horiz-adv-x="324" 
d="M163 500c74 0 118 -40 118 -100c0 -57 -44 -97 -118 -97c-76 0 -119 40 -119 97c0 60 43 100 119 100zM288 -100c2 -28 -55 -49 -116 -49h-21c-60 0 -117 15 -115 44l23 346c2 28 43 43 94 43h21c50 0 89 -15 91 -43z" />
    <glyph glyph-name="f" unicode="f" horiz-adv-x="379" 
d="M44 302c-25 0 -44 42 -44 81v17c0 37 13 81 39 81h21v2c0 130 98 192 223 192c44 0 76 -6 102 -16c28 -11 46 -43 38 -87c-8 -43 -34 -62 -60 -57c-12 2 -22 6 -40 6c-24 0 -38 -17 -40 -40h59c25 0 39 -44 39 -83v-16c0 -39 -14 -80 -39 -80h-59v-270
c0 -27 -53 -41 -101 -41h-21c-49 0 -101 14 -101 41v270h-16z" />
    <glyph glyph-name="f.alt" horiz-adv-x="379" 
d="M44 302c-25 0 -44 42 -44 81v17c0 37 13 81 39 81h21v2c0 130 98 192 223 192c44 0 76 -6 102 -16c28 -11 46 -43 38 -87c-8 -43 -34 -62 -60 -57c-12 2 -22 6 -40 6c-24 0 -38 -17 -40 -40h59c25 0 39 -44 39 -83v-16c0 -39 -14 -80 -39 -80h-59v-441
c0 -27 -53 -41 -101 -41h-21c-49 0 -101 14 -101 41v441h-16z" />
    <glyph glyph-name="f_t" horiz-adv-x="686" 
d="M44 302c-25 0 -44 42 -44 81v17c0 37 13 81 39 81h21v12c0 130 98 192 223 192c44 0 76 -5 102 -15c28 -11 46 -41 38 -85c-8 -43 -34 -61 -60 -57c-12 2 -23 3 -40 3c-26 0 -40 -19 -40 -45v-5h111v39c0 27 53 45 101 45h21c49 0 101 -14 101 -41v-43h30
c25 0 39 -44 39 -83v-16c0 -39 -14 -80 -39 -80h-30v-270c0 -27 -53 -41 -103 -41h-21c-47 0 -99 14 -99 41v270h-111v-270c0 -27 -53 -41 -101 -41h-21c-49 0 -101 14 -101 41v270h-16z" />
    <glyph glyph-name="five" unicode="5" horiz-adv-x="545" 
d="M237 -19c-79 0 -157 19 -195 49c-26 21 -29 59 -18 99c12 44 53 78 85 64c30 -13 66 -36 118 -36c42 0 82 23 82 62c0 40 -42 60 -90 60c-35 0 -62 -12 -92 -29c-22 -12 -50 -4 -70 10s-32 34 -29 64l25 278c3 28 20 33 54 33h366c25 0 39 -42 39 -79v-14
c0 -37 -14 -76 -39 -76h-245l-4 -50c23 4 50 6 83 6c121 0 220 -70 220 -208c0 -140 -115 -233 -290 -233z" />
    <glyph glyph-name="five.dnom" horiz-adv-x="290" 
d="M125 -9c-41 0 -83 8 -103 22c-15 11 -16 32 -10 53c6 24 29 43 47 36c16 -5 34 -16 61 -16c19 0 39 9 39 25c0 18 -22 24 -44 24c-17 0 -30 -5 -46 -12c-13 -7 -28 -2 -39 5c-11 8 -18 18 -17 34l14 140c1 15 11 17 30 17h195c14 0 22 -22 22 -42v-8
c0 -20 -8 -41 -22 -41h-127l-2 -17c12 1 26 2 42 2c63 0 116 -34 116 -105s-62 -117 -156 -117z" />
    <glyph glyph-name="five.numr" horiz-adv-x="290" 
d="M125 314c-41 0 -83 8 -103 22c-15 11 -16 32 -10 53c6 24 29 43 47 36c16 -5 34 -16 61 -16c19 0 39 9 39 25c0 18 -22 24 -44 24c-17 0 -30 -5 -46 -12c-13 -7 -28 -2 -39 5c-11 8 -18 18 -17 34l14 140c1 15 11 17 30 17h195c14 0 22 -22 22 -42v-8
c0 -20 -8 -41 -22 -41h-127l-2 -17c12 1 26 2 42 2c63 0 116 -34 116 -105s-62 -117 -156 -117z" />
    <glyph glyph-name="four" unicode="4" horiz-adv-x="611" 
d="M525 34c0 -28 -46 -43 -97 -43h-21c-50 0 -94 15 -94 43v42h-264c-25 0 -49 37 -49 82v17c0 35 6 63 17 91c43 113 115 221 203 318c32 35 85 56 139 56h81c50 0 85 -15 85 -44v-351h47c25 0 39 -42 39 -79v-14c0 -37 -14 -76 -39 -76h-47v-42zM183 245h130v213
c-51 -52 -103 -137 -130 -213z" />
    <glyph glyph-name="four.dnom" horiz-adv-x="327" 
d="M283 19c0 -15 -26 -23 -55 -23h-11c-28 0 -53 8 -53 23v17h-137c-14 0 -27 20 -27 44v9c0 19 3 34 9 50c23 54 58 102 102 152c18 19 48 31 79 31h45c28 0 48 -8 48 -24v-171h22c14 0 22 -22 22 -42v-8c0 -20 -8 -41 -22 -41h-22v-17zM103 127h61v96
c-24 -24 -48 -62 -61 -96z" />
    <glyph glyph-name="four.numr" horiz-adv-x="327" 
d="M283 342c0 -15 -26 -23 -55 -23h-11c-28 0 -53 8 -53 23v17h-137c-14 0 -27 20 -27 44v9c0 19 3 34 9 50c23 54 58 102 102 152c18 19 48 31 79 31h45c28 0 48 -8 48 -24v-171h22c14 0 22 -22 22 -42v-8c0 -20 -8 -41 -22 -41h-22v-17zM103 450h61v96
c-24 -24 -48 -62 -61 -96z" />
    <glyph glyph-name="fraction" unicode="&#x2044;" horiz-adv-x="149" 
d="M168 596c22 33 47 44 98 44h21c50 0 75 -28 58 -54l-364 -551c-22 -33 -47 -44 -98 -44h-21c-50 0 -75 28 -58 54z" />
    <glyph glyph-name="g" unicode="g" horiz-adv-x="635" 
d="M376 49v22c-37 -39 -90 -60 -149 -60c-117 0 -209 77 -209 231c0 157 105 248 220 248c55 0 103 -17 138 -51v10c0 27 53 41 101 41h21c49 0 101 -14 101 -41v-397c0 -143 -136 -242 -317 -242c-65 0 -118 9 -162 28c-28 12 -50 43 -42 87c8 43 34 66 60 57
s62 -18 113 -18c67 0 125 30 125 85zM306 357c-42 0 -75 -36 -75 -106s33 -103 73 -103c38 0 72 31 72 88v35c0 56 -32 86 -70 86z" />
    <glyph glyph-name="g.alt" horiz-adv-x="605" 
d="M293 11c-180 0 -275 100 -275 245s105 244 285 244c32 0 61 -3 88 -9c8 33 18 61 39 95c16 27 52 30 98 5l16 -9c43 -23 69 -48 50 -77c-19 -28 -43 -54 -75 -79c44 -42 68 -101 68 -170c0 -76 -32 -140 -88 -184c51 -16 87 -51 87 -112c0 -72 -88 -150 -301 -150
c-101 0 -160 14 -203 32c-29 12 -54 47 -46 91c9 43 36 66 64 57s71 -26 152 -26c79 0 120 15 120 37c0 7 -3 12 -9 16c-22 -4 -45 -6 -70 -6zM302 155c42 0 73 28 73 102c0 64 -31 103 -73 103c-41 0 -72 -30 -72 -103c0 -65 31 -102 72 -102z" />
    <glyph glyph-name="greater" unicode="&#x3e;" 
d="M51 59l-8 14c-20 34 -28 78 -7 89l207 109l-207 108c-21 11 -13 55 7 89l8 14c19 34 53 64 75 52l323 -183c19 -11 27 -50 27 -80c0 -31 -8 -70 -27 -81l-323 -183c-22 -12 -56 18 -75 52z" />
    <glyph glyph-name="guillemetleft" unicode="&#xab;" horiz-adv-x="445" 
d="M7 327l63 130c13 27 46 33 88 33h18c41 0 65 -20 55 -41l-72 -148l72 -152c10 -20 -14 -40 -55 -40h-18c-42 0 -75 6 -88 33l-63 129c-9 18 -9 38 0 56zM213 327l62 130c13 27 47 33 89 33h17c41 0 66 -20 56 -41l-72 -148l72 -152c10 -20 -15 -40 -56 -40h-17
c-42 0 -76 6 -89 33l-62 129c-9 18 -9 38 0 56z" />
    <glyph glyph-name="guillemetright" unicode="&#xbb;" horiz-adv-x="445" 
d="M438 272l-63 -130c-13 -27 -46 -33 -88 -33h-18c-41 0 -65 20 -55 41l72 148l-72 152c-10 20 14 40 55 40h18c42 0 75 -6 88 -33l63 -129c9 -18 9 -38 0 -56zM232 272l-62 -130c-13 -27 -47 -33 -89 -33h-17c-41 0 -66 20 -56 41l72 148l-72 152c-10 20 15 40 56 40h17
c42 0 76 -6 89 -33l62 -129c9 -18 9 -38 0 -56z" />
    <glyph glyph-name="h" unicode="h" horiz-adv-x="629" 
d="M259 32c0 -27 -53 -41 -103 -41h-21c-47 0 -99 14 -99 41v592c0 27 53 41 101 41h21c49 0 101 -14 101 -41v-196c37 40 91 62 156 62c107 0 178 -64 178 -159v-299c0 -27 -53 -41 -103 -41h-21c-47 0 -99 14 -99 41v253c0 36 -19 60 -53 60s-58 -26 -58 -80v-233z" />
    <glyph glyph-name="hyphen" unicode="-" horiz-adv-x="385" 
d="M56 182c-25 0 -44 42 -44 81v17c0 37 13 81 39 81h283c25 0 39 -44 39 -83v-16c0 -39 -14 -80 -39 -80h-278z" />
    <glyph glyph-name="i" unicode="i" horiz-adv-x="295" 
d="M147 500c-74 0 -118 39 -118 96c0 55 44 94 118 94c76 0 119 -39 119 -94c0 -57 -43 -96 -119 -96zM259 32c0 -27 -53 -41 -103 -41h-21c-47 0 -99 14 -99 41v408c0 27 53 41 101 41h21c49 0 101 -14 101 -41v-408z" />
    <glyph glyph-name="i.alt" horiz-adv-x="325" 
d="M147 500c-74 0 -118 39 -118 96c0 55 44 94 118 94c76 0 119 -39 119 -94c0 -57 -43 -96 -119 -96zM259 169c0 -20 8 -26 30 -26s36 -23 36 -59c0 -47 -46 -93 -134 -93h-21c-93 0 -134 57 -134 128v321c0 27 53 41 101 41h21c49 0 101 -14 101 -41v-271z" />
    <glyph glyph-name="iacute" unicode="&#xed;" horiz-adv-x="295" 
d="M219 562c-15 -20 -39 -37 -84 -37h-19c-42 0 -72 13 -62 37l57 141c11 27 62 41 109 41h19c51 0 99 -22 84 -42zM259 32c0 -27 -53 -41 -103 -41h-21c-47 0 -99 14 -99 41v418c0 27 53 41 101 41h21c49 0 101 -14 101 -41v-418z" />
    <glyph glyph-name="iacute.alt" horiz-adv-x="325" 
d="M219 562c-15 -20 -39 -37 -84 -37h-19c-42 0 -72 13 -62 37l57 141c11 27 62 41 109 41h19c51 0 99 -22 84 -42zM259 169c0 -20 8 -26 30 -26s36 -23 36 -59c0 -47 -46 -93 -134 -93h-21c-93 0 -134 57 -134 128v331c0 27 53 41 101 41h21c49 0 101 -14 101 -41v-281z
" />
    <glyph glyph-name="j" unicode="j" horiz-adv-x="295" 
d="M147 500c-74 0 -118 39 -118 96c0 55 44 94 118 94c76 0 119 -39 119 -94c0 -57 -43 -96 -119 -96zM36 9v431c0 27 53 41 101 41h21c49 0 101 -14 101 -41v-438c0 -130 -98 -192 -223 -192c-44 0 -76 6 -102 16c-28 11 -46 43 -38 87c8 43 34 62 60 57c12 -2 22 -6 40 -6
c26 0 40 19 40 45z" />
    <glyph glyph-name="k" unicode="k" horiz-adv-x="595" 
d="M259 32c0 -27 -53 -41 -103 -41h-21c-47 0 -99 14 -99 41v592c0 27 53 41 101 41h21c49 0 101 -14 101 -41v-292h4c66 0 100 60 100 117c0 26 50 41 92 41h20c44 0 97 -20 97 -47c0 -51 -23 -123 -90 -186c69 -61 101 -144 101 -219c0 -27 -53 -47 -103 -47h-21
c-48 0 -100 14 -100 41c0 58 -33 141 -96 141h-4v-141z" />
    <glyph glyph-name="k.alt" horiz-adv-x="616" 
d="M259 32c0 -27 -53 -41 -103 -41h-21c-47 0 -99 14 -99 41v592c0 27 53 41 101 41h21c49 0 101 -14 101 -41v-282h4c66 0 100 50 100 107c0 26 50 41 92 41h20c44 0 97 -20 97 -47c0 -85 -41 -149 -103 -191c18 -48 37 -65 58 -65c7 0 13 2 19 2c28 0 46 -38 55 -83
c7 -41 0 -89 -26 -99s-48 -17 -80 -17c-115 0 -174 58 -214 203h-18h-4v-161z" />
    <glyph glyph-name="l" unicode="l" horiz-adv-x="295" 
d="M259 32c0 -27 -53 -41 -103 -41h-21c-47 0 -99 14 -99 41v592c0 27 53 41 101 41h21c49 0 101 -14 101 -41v-592z" />
    <glyph glyph-name="l.alt" horiz-adv-x="325" 
d="M259 169c0 -20 8 -26 30 -26s36 -23 36 -59c0 -47 -46 -93 -134 -93h-21c-93 0 -134 57 -134 128v505c0 27 53 41 101 41h21c49 0 101 -14 101 -41v-455z" />
    <glyph glyph-name="less" unicode="&#x3c;" 
d="M449 59c-19 -34 -53 -64 -75 -52l-323 183c-19 11 -27 50 -27 81c0 30 8 69 27 80l323 183c22 12 56 -18 75 -52l8 -14c20 -34 28 -78 7 -89l-207 -108l207 -109c21 -11 13 -55 -7 -89z" />
    <glyph glyph-name="litre" unicode="&#x2113;" horiz-adv-x="440" 
d="M61 414c0 149 90 236 203 236c123 0 170 -70 170 -169c0 -59 -38 -142 -150 -210v-80c0 -17 11 -28 31 -28h8c27 0 47 -21 47 -73c0 -55 -45 -99 -134 -99h-14c-93 0 -161 63 -161 148v45c-5 -1 -9 -2 -14 -3c-20 -4 -37 17 -44 46s-4 56 14 61c15 4 30 8 44 13v113z
M284 454v-45c28 28 35 52 35 70c0 27 -6 39 -16 39c-11 0 -19 -16 -19 -64z" />
    <glyph glyph-name="m" unicode="m" horiz-adv-x="943" 
d="M259 32c0 -27 -53 -41 -103 -41h-21c-47 0 -99 14 -99 41v417c0 27 53 41 101 41h21c49 0 101 -14 101 -41v-21c36 40 89 62 151 62c72 0 129 -32 156 -84c35 53 95 84 168 84c102 0 173 -64 173 -159v-299c0 -27 -53 -41 -103 -41h-21c-47 0 -99 14 -99 41v253
c0 36 -19 60 -48 60s-53 -26 -53 -80v-233c0 -27 -53 -41 -103 -41h-21c-47 0 -99 14 -99 41v253c0 36 -19 60 -48 60s-53 -26 -53 -80v-233z" />
    <glyph glyph-name="minus" unicode="&#x2212;" 
d="M62 182c-25 0 -44 42 -44 81v17c0 37 13 81 39 81h386c25 0 39 -44 39 -83v-16c0 -39 -14 -80 -39 -80h-381z" />
    <glyph glyph-name="multiply" unicode="&#xd7;" 
d="M181 75c-18 -18 -61 -2 -88 26l-12 12c-26 26 -48 66 -30 85l74 74l-73 72c-18 18 3 59 31 86l11 12c28 27 67 46 84 29l73 -73l73 73c18 17 59 -4 86 -32l12 -11c27 -27 46 -66 29 -84l-73 -73l70 -70c17 -18 1 -61 -26 -88l-12 -12c-27 -26 -67 -48 -85 -30l-74 74z
" />
    <glyph glyph-name="n" unicode="n" horiz-adv-x="629" 
d="M259 32c0 -27 -53 -41 -103 -41h-21c-47 0 -99 14 -99 41v417c0 27 53 41 101 41h21c49 0 101 -14 101 -41v-21c37 40 91 62 156 62c107 0 178 -64 178 -159v-299c0 -27 -53 -41 -103 -41h-21c-47 0 -99 14 -99 41v253c0 36 -19 60 -53 60s-58 -26 -58 -80v-233z" />
    <glyph glyph-name="nine" unicode="9" horiz-adv-x="614" 
d="M590 323c0 -217 -149 -342 -340 -342c-90 0 -148 17 -188 48c-27 22 -30 60 -19 101c13 45 57 81 90 66c31 -14 58 -35 113 -35c59 0 95 19 111 76c-30 -16 -65 -25 -106 -25c-132 0 -239 77 -239 204s98 234 277 234c189 0 301 -127 301 -327zM364 432l1 -1
c-2 9 -4 17 -7 25c-11 27 -33 44 -68 44c-37 0 -67 -30 -67 -80c0 -48 32 -75 69 -75c35 0 72 27 72 87z" />
    <glyph glyph-name="nine.dnom" horiz-adv-x="326" 
d="M315 163c0 -111 -81 -172 -183 -172c-48 0 -78 7 -100 21c-15 12 -17 32 -11 54c7 24 32 42 51 34c16 -5 30 -14 58 -14s45 7 54 31c-15 -6 -32 -10 -52 -10c-70 0 -127 38 -127 102s52 118 148 118c102 0 162 -63 162 -164zM123 211c0 -22 16 -32 32 -32s34 11 34 34
c-1 4 -2 8 -3 11c-5 13 -14 22 -32 22c-17 0 -31 -13 -31 -35z" />
    <glyph glyph-name="nine.numr" horiz-adv-x="326" 
d="M320 486c0 -111 -81 -172 -183 -172c-48 0 -78 7 -100 21c-15 12 -17 32 -11 54c7 24 32 42 51 34c16 -5 30 -14 58 -14s45 7 54 31c-15 -6 -32 -10 -52 -10c-70 0 -127 38 -127 102s52 118 148 118c102 0 162 -63 162 -164zM128 534c0 -22 16 -32 32 -32s34 11 34 34
c-1 4 -2 8 -3 11c-5 13 -14 22 -32 22c-17 0 -31 -13 -31 -35z" />
    <glyph glyph-name="ntilde" unicode="&#xf1;" horiz-adv-x="629" 
d="M188 533c-7 -16 -39 -22 -71 -5c-31 15 -46 38 -42 57c17 76 73 137 155 137c77 0 103 -44 148 -44c29 0 44 16 56 47c7 17 40 23 72 6c30 -16 45 -39 42 -57c-16 -76 -73 -138 -156 -138c-76 0 -103 45 -148 45c-28 0 -43 -16 -56 -48zM259 32c0 -27 -53 -41 -103 -41
h-21c-47 0 -99 14 -99 41v417c0 27 53 41 101 41h21c49 0 101 -14 101 -41v-21c37 40 91 62 156 62c107 0 178 -64 178 -159v-299c0 -27 -53 -41 -103 -41h-21c-47 0 -99 14 -99 41v253c0 36 -19 60 -53 60s-58 -26 -58 -80v-233z" />
    <glyph glyph-name="numbersign" unicode="#" horiz-adv-x="728" 
d="M44 108c-25 0 -44 42 -44 81v17c0 37 13 81 39 81h88l17 58h-33c-25 0 -44 42 -44 81v17c0 37 13 81 39 81h89l17 61c11 38 60 55 111 55h21c50 0 76 -25 68 -54l-18 -62h61l17 61c11 38 60 55 111 55h21c50 0 76 -25 68 -54l-18 -62h35c25 0 39 -44 39 -83v-16
c0 -39 -14 -80 -39 -80h-86l-16 -58h35c25 0 39 -44 39 -83v-16c0 -39 -14 -80 -39 -80h-86l-18 -62c-11 -38 -60 -55 -111 -55h-21c-50 0 -76 25 -68 54l18 63h-60l-18 -62c-11 -38 -60 -55 -111 -55h-21c-50 0 -76 25 -68 54l18 63h-32zM327 287h60l17 58h-61z" />
    <glyph glyph-name="o" unicode="o" horiz-adv-x="605" 
d="M303 -19c-180 0 -285 106 -285 260s105 259 285 259c179 0 284 -105 284 -259s-105 -260 -284 -260zM302 134c42 0 73 30 73 108c0 68 -31 109 -73 109c-41 0 -72 -31 -72 -109c0 -69 31 -108 72 -108z" />
    <glyph glyph-name="oacute" unicode="&#xf3;" horiz-adv-x="605" 
d="M349 562c-15 -20 -39 -37 -84 -37h-19c-42 0 -72 13 -62 37l57 141c11 27 62 41 109 41h19c51 0 99 -22 84 -42zM303 -19c-180 0 -285 106 -285 260s105 259 285 259c179 0 284 -105 284 -259s-105 -260 -284 -260zM302 134c42 0 73 30 73 108c0 68 -31 109 -73 109
c-41 0 -72 -31 -72 -109c0 -69 31 -108 72 -108z" />
    <glyph glyph-name="one" unicode="1" horiz-adv-x="446" 
d="M100 354c-22 -12 -59 22 -77 60l-8 17c-17 36 -24 83 -1 95l175 92c23 12 61 22 93 22h21c50 0 95 -15 95 -44v-562c0 -28 -56 -43 -107 -43h-21c-50 0 -104 15 -104 43v354z" />
    <glyph glyph-name="one.dnom" horiz-adv-x="243" 
d="M57 170c-13 -6 -33 12 -43 33l-5 9c-10 20 -14 45 -1 51l94 47c12 7 34 12 52 12h12c28 0 53 -8 53 -24v-279c0 -15 -31 -23 -60 -23h-12c-28 0 -58 8 -58 23v167z" />
    <glyph glyph-name="one.numr" horiz-adv-x="243" 
d="M57 493c-13 -6 -33 12 -43 33l-5 9c-10 20 -14 45 -1 51l94 47c12 7 34 12 52 12h12c28 0 53 -8 53 -24v-279c0 -15 -31 -23 -60 -23h-12c-28 0 -58 8 -58 23v167z" />
    <glyph glyph-name="onehalf" unicode="&#xbd;" horiz-adv-x="750" 
d="M75 493c-13 -6 -33 12 -43 33l-5 9c-10 20 -14 45 -1 51l94 47c12 7 34 12 52 12h12c28 0 53 -8 53 -24v-279c0 -15 -31 -23 -60 -23h-12c-28 0 -58 8 -58 23v167zM446 596c22 33 47 44 98 44h21c50 0 75 -28 58 -54l-364 -551c-22 -33 -47 -44 -98 -44h-21
c-50 0 -75 28 -58 54zM572 327c92 0 143 -49 143 -112c0 -45 -34 -83 -92 -115h83c14 0 25 -25 25 -47v-10c0 -22 -8 -47 -22 -47h-248c-14 0 -21 25 -21 48v9c0 16 -1 35 10 41c110 57 133 85 133 107c0 15 -10 26 -26 26s-30 -9 -37 -27c-6 -12 -26 -16 -52 -4
c-24 11 -36 28 -34 41c12 52 67 90 138 90z" />
    <glyph glyph-name="onequarter" unicode="&#xbc;" horiz-adv-x="750" 
d="M87 493c-13 -6 -33 12 -43 33l-5 9c-10 20 -14 45 -1 51l94 47c12 7 34 12 52 12h12c28 0 53 -8 53 -24v-279c0 -15 -31 -23 -60 -23h-12c-28 0 -58 8 -58 23v167zM458 596c22 33 47 44 98 44h21c50 0 75 -28 58 -54l-364 -551c-22 -33 -47 -44 -98 -44h-21
c-50 0 -75 28 -58 54zM673 19c0 -15 -26 -23 -55 -23h-11c-28 0 -53 8 -53 23v17h-137c-14 0 -27 20 -27 44v9c0 19 3 34 9 50c23 54 58 102 102 152c18 19 48 31 79 31h45c28 0 48 -8 48 -24v-171h22c14 0 22 -22 22 -42v-8c0 -20 -8 -41 -22 -41h-22v-17zM493 127h61v96
c-24 -24 -48 -62 -61 -96z" />
    <glyph glyph-name="ordfeminine" unicode="&#xaa;" horiz-adv-x="416" 
d="M395 355c0 -18 -37 -27 -71 -27h-15c-32 0 -68 9 -68 27v10c-24 -24 -58 -37 -95 -37c-75 0 -136 48 -136 150c0 103 70 161 143 161c35 0 66 -10 88 -31v4c0 18 36 27 70 27h14c34 0 70 -9 70 -27v-257zM200 546c-23 0 -43 -20 -43 -62c0 -43 20 -60 42 -60
c21 0 42 16 42 51v21c0 34 -19 50 -41 50z" />
    <glyph glyph-name="ordmasculine" unicode="&#xba;" horiz-adv-x="396" 
d="M198 321c-118 0 -188 66 -188 163s70 161 188 161s188 -64 188 -161s-70 -163 -188 -163zM198 424c23 0 42 14 42 60c0 40 -19 62 -42 62s-42 -15 -42 -62c0 -40 19 -60 42 -60z" />
    <glyph glyph-name="p" unicode="p" horiz-adv-x="635" 
d="M259 -139c0 -27 -53 -41 -103 -41h-21c-47 0 -99 14 -99 41v588c0 27 53 41 101 41h21c49 0 101 -14 101 -41v-22c37 41 90 63 149 63c117 0 209 -81 209 -242c0 -163 -105 -257 -220 -257c-55 0 -103 17 -138 53v-183zM329 130c42 0 75 37 75 110s-33 107 -73 107
c-38 0 -72 -32 -72 -92v-36c0 -58 32 -89 70 -89z" />
    <glyph glyph-name="paragraph" unicode="&#xb6;" horiz-adv-x="834" 
d="M36 380c0 162 118 260 292 260h96c46 0 92 -14 92 -40v-698c0 -26 -47 -39 -94 -39h-19c-46 0 -91 13 -91 39v216c-168 5 -276 103 -276 262zM582 595c0 26 46 45 93 45h19c46 0 92 -14 92 -40v-698c0 -26 -47 -39 -94 -39h-19c-46 0 -91 13 -91 39v693z" />
    <glyph glyph-name="parenleft" unicode="(" horiz-adv-x="327" 
d="M209 668c24 8 59 -22 78 -61l2 -4c21 -42 36 -88 16 -102c-45 -29 -73 -112 -73 -255s28 -226 73 -255c20 -13 9 -61 -15 -101l-3 -5c-22 -37 -54 -69 -78 -61c-103 34 -173 165 -173 422c0 237 70 388 173 422z" />
    <glyph glyph-name="parenright" unicode=")" horiz-adv-x="327" 
d="M118 -176c-24 -8 -59 22 -78 61l-2 4c-21 42 -36 88 -16 102c45 29 73 112 73 255s-28 226 -73 255c-20 13 -9 61 15 101l3 5c22 37 54 69 78 61c103 -34 173 -165 173 -422c0 -237 -70 -388 -173 -422z" />
    <glyph glyph-name="percent" unicode="%" horiz-adv-x="750" 
d="M172 314c-101 0 -162 67 -162 168c0 102 61 168 162 168s162 -66 162 -168s-61 -168 -162 -168zM465 596c22 33 47 44 98 44h21c50 0 75 -28 58 -54l-364 -551c-22 -33 -47 -44 -98 -44h-21c-50 0 -75 28 -58 54zM172 416c20 0 31 19 31 65c0 38 -11 67 -31 67
s-31 -20 -31 -66c0 -39 11 -66 31 -66zM578 -9c-101 0 -162 67 -162 168c0 102 61 168 162 168s162 -66 162 -168s-61 -168 -162 -168zM578 93c20 0 31 19 31 65c0 38 -11 67 -31 67s-31 -20 -31 -66c0 -39 11 -66 31 -66z" />
    <glyph glyph-name="period" unicode="." horiz-adv-x="261" 
d="M130 -9c-74 0 -118 44 -118 108c0 62 44 105 118 105c76 0 119 -43 119 -105c0 -64 -43 -108 -119 -108z" />
    <glyph glyph-name="periodcentered" unicode="&#xb7;" horiz-adv-x="261" 
d="M130 181c-74 0 -118 44 -118 108c0 62 44 105 118 105c76 0 119 -43 119 -105c0 -64 -43 -108 -119 -108z" />
    <glyph glyph-name="plus" unicode="+" 
d="M62 182c-25 0 -44 42 -44 81v17c0 37 13 81 39 81h104v103c0 25 44 39 83 39h16c39 0 80 -14 80 -39v-103h103c25 0 39 -44 39 -83v-16c0 -39 -14 -80 -39 -80h-103v-99c0 -25 -42 -44 -81 -44h-17c-37 0 -81 13 -81 39v104h-99z" />
    <glyph glyph-name="plusminus" unicode="&#xb1;" 
d="M62 302c-25 0 -44 42 -44 81v17c0 37 13 81 39 81h104v53c0 25 44 39 83 39h16c39 0 80 -14 80 -39v-53h103c25 0 39 -44 39 -83v-16c0 -39 -14 -80 -39 -80h-103v-49c0 -25 -42 -44 -81 -44h-17c-37 0 -81 13 -81 39v54h-99zM62 16c-25 0 -44 42 -44 81v17
c0 37 13 81 39 81h386c25 0 39 -44 39 -83v-16c0 -39 -14 -80 -39 -80h-381z" />
    <glyph glyph-name="q" unicode="q" horiz-adv-x="635" 
d="M599 -139c0 -27 -53 -41 -103 -41h-21c-47 0 -99 14 -99 41v193c-37 -41 -90 -63 -149 -63c-117 0 -209 80 -209 241c0 163 105 258 220 258c55 0 103 -17 138 -53v2c0 37 53 51 101 51h21c49 0 101 -14 101 -41v-588zM306 351c-42 0 -75 -37 -75 -110s33 -107 73 -107
c38 0 72 32 72 92v36c0 58 -32 89 -70 89z" />
    <glyph glyph-name="q.alt" horiz-adv-x="605" 
d="M590 -177c-34 -10 -60 -13 -90 -13c-120 0 -233 64 -275 178c-132 27 -207 123 -207 253c0 154 105 259 285 259c179 0 284 -105 284 -259c0 -117 -61 -207 -169 -243c20 -13 46 -18 76 -18c22 0 40 4 63 10c31 8 54 -29 62 -72c9 -42 1 -86 -29 -95zM302 134
c42 0 73 30 73 108c0 68 -31 109 -73 109c-41 0 -72 -31 -72 -109c0 -69 31 -108 72 -108z" />
    <glyph glyph-name="question" unicode="?" horiz-adv-x="546" 
d="M298 426c0 26 -20 44 -48 44c-36 0 -67 -22 -85 -64c-10 -23 -52 -27 -98 -5c-44 21 -59 49 -54 74c24 102 125 175 257 175c157 0 264 -80 264 -220c0 -154 -163 -219 -310 -230c-24 -2 -45 38 -51 82c-5 40 -2 79 20 81c51 5 105 29 105 63zM263 -9
c-74 0 -118 40 -118 100c0 57 44 97 118 97c76 0 119 -40 119 -97c0 -60 -43 -100 -119 -100z" />
    <glyph glyph-name="questiondown" unicode="&#xbf;" horiz-adv-x="546" 
d="M283 650c74 0 118 -40 118 -100c0 -57 -44 -97 -118 -97c-76 0 -119 40 -119 97c0 60 43 100 119 100zM248 215c0 -26 20 -44 48 -44c36 0 67 22 85 64c10 23 52 27 98 5c44 -21 59 -49 54 -74c-24 -102 -125 -175 -257 -175c-157 0 -264 80 -264 220
c0 154 163 219 310 230c24 2 45 -38 51 -82c5 -40 2 -79 -20 -81c-51 -5 -105 -29 -105 -63z" />
    <glyph glyph-name="quotedbl" unicode="&#x22;" horiz-adv-x="478" 
d="M206 378c-3 -24 -30 -37 -75 -37h-19c-42 0 -69 13 -71 37l-23 221c-3 27 52 41 99 41h19c51 0 97 -17 94 -42zM436 378c-3 -24 -30 -37 -75 -37h-19c-42 0 -69 13 -71 37l-23 221c-3 27 52 41 99 41h19c51 0 97 -17 94 -42z" />
    <glyph glyph-name="quotedblleft" unicode="&#x201c;" horiz-adv-x="511" 
d="M79 610c13 16 32 30 72 30h17c38 0 60 -17 53 -39c-8 -23 -17 -56 -22 -94c30 -19 50 -52 50 -93c0 -62 -44 -105 -118 -105c-76 0 -119 52 -119 135c0 62 50 144 67 166zM329 610c13 16 32 30 72 30h17c38 0 60 -17 53 -39c-8 -23 -17 -56 -22 -94c30 -19 50 -52 50 -93
c0 -62 -44 -105 -118 -105c-76 0 -119 52 -119 135c0 62 50 144 67 166z" />
    <glyph glyph-name="quotedblright" unicode="&#x201d;" horiz-adv-x="511" 
d="M182 339c-13 -16 -32 -30 -72 -30h-17c-38 0 -60 17 -53 39c8 23 17 56 22 94c-30 19 -50 52 -50 93c0 62 44 105 118 105c76 0 119 -52 119 -135c0 -62 -50 -144 -67 -166zM432 339c-13 -16 -32 -30 -72 -30h-17c-38 0 -60 17 -53 39c8 23 17 56 22 94
c-30 19 -50 52 -50 93c0 62 44 105 118 105c76 0 119 -52 119 -135c0 -62 -50 -144 -67 -166z" />
    <glyph glyph-name="quoteleft" unicode="&#x2018;" horiz-adv-x="261" 
d="M79 610c13 16 32 30 72 30h17c38 0 60 -17 53 -39c-8 -23 -17 -56 -22 -94c30 -19 50 -52 50 -93c0 -62 -44 -105 -118 -105c-76 0 -119 52 -119 135c0 62 50 144 67 166z" />
    <glyph glyph-name="quoteright" unicode="&#x2019;" horiz-adv-x="261" 
d="M182 339c-13 -16 -32 -30 -72 -30h-17c-38 0 -60 17 -53 39c8 23 17 56 22 94c-30 19 -50 52 -50 93c0 62 44 105 118 105c76 0 119 -52 119 -135c0 -62 -50 -144 -67 -166z" />
    <glyph glyph-name="quotesingle" unicode="'" horiz-adv-x="248" 
d="M206 378c-3 -24 -30 -37 -75 -37h-19c-42 0 -69 13 -71 37l-23 221c-3 27 52 41 99 41h19c51 0 97 -17 94 -42z" />
    <glyph glyph-name="r" unicode="r" horiz-adv-x="442" 
d="M259 32c0 -27 -53 -41 -103 -41h-21c-47 0 -99 14 -99 41v417c0 27 53 41 101 41h21c49 0 101 -14 101 -41v-26c31 45 74 67 119 67c17 0 35 -2 49 -7c25 -8 25 -41 15 -92s-29 -86 -54 -81c-16 3 -31 8 -53 8c-46 0 -76 -41 -76 -100v-186z" />
    <glyph glyph-name="r_t" horiz-adv-x="704" 
d="M259 32c0 -27 -53 -41 -103 -41h-21c-47 0 -99 14 -99 41v417c0 27 53 41 101 41h21c49 0 101 -14 101 -41v-30c31 42 74 62 119 62h2v63c0 27 53 41 101 41h21c49 0 101 -14 101 -41v-63h50c25 0 39 -44 39 -83v-16c0 -39 -14 -80 -39 -80h-50v-111c0 -17 11 -28 31 -28
h8c27 0 47 -21 47 -73c0 -55 -45 -99 -134 -99h-31c-93 0 -144 58 -144 128v183h-45c-46 0 -76 -32 -76 -88v-182z" />
    <glyph glyph-name="registered" unicode="&#xae;" horiz-adv-x="654" 
d="M327 90c-173 0 -315 141 -315 315c0 173 142 315 315 315s315 -142 315 -315c0 -174 -142 -315 -315 -315zM327 182c122 0 223 100 223 223s-101 223 -223 223c-123 0 -223 -100 -223 -223s100 -223 223 -223zM165 548c0 15 12 18 32 18h138c93 0 155 -44 155 -116
c0 -38 -16 -68 -45 -88c31 -31 48 -62 48 -99c0 -15 -32 -26 -63 -26h-13c-29 0 -61 8 -61 23c0 13 -9 38 -38 73h-13v-72c0 -15 -34 -24 -65 -24h-13c-30 0 -62 9 -62 24v287zM318 478h-13v-57h15c21 0 32 14 32 29c0 14 -12 28 -34 28z" />
    <glyph glyph-name="s" unicode="s" horiz-adv-x="531" 
d="M241 -19c-76 0 -157 16 -191 38c-24 16 -24 47 -13 78c12 34 37 67 68 57c29 -9 68 -24 126 -24c51 0 68 3 68 17c0 15 -43 15 -125 31c-89 17 -141 57 -141 151c0 105 89 171 256 171c73 0 144 -13 178 -35c24 -16 28 -43 16 -78c-13 -37 -40 -65 -71 -57
c-29 8 -69 21 -122 21c-49 0 -60 -3 -60 -17c0 -15 44 -15 130 -31c90 -17 147 -57 147 -151c0 -105 -92 -171 -266 -171z" />
    <glyph glyph-name="section" unicode="&#xa7;" horiz-adv-x="564" 
d="M521 44c0 -123 -110 -204 -259 -204c-105 0 -176 24 -213 51c-25 18 -24 58 -12 94c11 40 44 78 74 63c28 -13 80 -45 135 -45c39 0 64 10 64 29c0 28 -71 23 -147 39c-92 20 -145 71 -145 164c0 56 22 101 62 134c-23 28 -37 62 -37 102c0 123 107 204 266 204
c76 0 144 -19 181 -47c24 -20 27 -55 17 -92c-12 -41 -52 -78 -82 -64c-28 13 -68 40 -119 40c-46 0 -64 -10 -64 -28c0 -29 84 -24 160 -40c94 -20 144 -71 144 -164c0 -57 -23 -100 -63 -131c24 -28 38 -63 38 -105zM217 258c0 -19 27 -23 67 -29c31 2 51 12 51 29
c0 19 -22 23 -60 28c-42 -1 -58 -11 -58 -28z" />
    <glyph glyph-name="semicolon" unicode=";" horiz-adv-x="261" 
d="M130 224c-74 0 -118 44 -118 108c0 62 44 105 118 105c76 0 119 -43 119 -105c0 -64 -43 -108 -119 -108zM179 -98c-6 -24 -30 -37 -75 -37h-19c-42 0 -73 13 -71 37l17 261c2 27 52 41 99 41h19c51 0 100 -17 94 -42z" />
    <glyph glyph-name="seven" unicode="7" horiz-adv-x="566" 
d="M56 443c-25 0 -44 45 -44 87v18c0 40 13 87 39 87h464c25 0 39 -47 39 -89v-17c0 -29 -6 -60 -19 -75c-107 -121 -160 -341 -160 -422c0 -26 -43 -41 -105 -41h-21c-64 0 -110 20 -110 47c0 88 48 265 146 405h-229z" />
    <glyph glyph-name="seven.dnom" horiz-adv-x="303" 
d="M30 215c-14 0 -25 25 -25 47v10c0 22 8 47 22 47h248c14 0 22 -25 22 -48v-9c0 -16 -4 -33 -11 -41c-56 -60 -82 -167 -82 -203c0 -14 -24 -22 -59 -22h-11c-36 0 -62 10 -62 25c0 41 23 125 73 194h-115z" />
    <glyph glyph-name="seven.numr" horiz-adv-x="303" 
d="M30 538c-14 0 -25 25 -25 47v10c0 22 8 47 22 47h248c14 0 22 -25 22 -48v-9c0 -16 -4 -33 -11 -41c-56 -60 -82 -167 -82 -203c0 -14 -24 -22 -59 -22h-11c-36 0 -62 10 -62 25c0 41 23 125 73 194h-115z" />
    <glyph glyph-name="six" unicode="6" horiz-adv-x="614" 
d="M602 215c0 -127 -98 -234 -277 -234c-189 0 -301 127 -301 327c0 217 149 342 340 342c90 0 148 -17 188 -48c27 -22 30 -60 19 -101c-13 -45 -57 -81 -90 -66c-31 14 -58 35 -113 35c-59 0 -95 -19 -111 -76c30 16 65 25 106 25c132 0 239 -77 239 -204zM250 199l-1 1
c2 -9 4 -17 7 -25c11 -27 33 -44 68 -44c37 0 67 30 67 80c0 48 -32 75 -69 75c-35 0 -72 -27 -72 -87z" />
    <glyph glyph-name="six.dnom" horiz-adv-x="327" 
d="M322 109c0 -64 -52 -118 -149 -118c-101 0 -162 62 -162 164c0 111 82 172 184 172c48 0 78 -7 100 -21c15 -12 17 -32 11 -55c-8 -24 -32 -44 -51 -36c-16 5 -30 14 -58 14c-27 0 -45 -6 -53 -28c14 6 31 10 51 10c69 0 127 -38 127 -102zM138 101h-1l3 -9
c5 -12 15 -20 33 -20c16 0 31 12 31 35c0 21 -16 32 -33 32c-15 0 -33 -10 -33 -38z" />
    <glyph glyph-name="six.numr" horiz-adv-x="327" 
d="M322 432c0 -64 -52 -118 -149 -118c-101 0 -162 62 -162 164c0 111 82 172 184 172c48 0 78 -7 100 -21c15 -12 17 -32 11 -55c-8 -24 -32 -44 -51 -36c-16 5 -30 14 -58 14c-27 0 -45 -6 -53 -28c14 6 31 10 51 10c69 0 127 -38 127 -102zM138 424h-1l3 -9
c5 -12 15 -20 33 -20c16 0 31 12 31 35c0 21 -16 32 -33 32c-15 0 -33 -10 -33 -38z" />
    <glyph glyph-name="slash" unicode="/" horiz-adv-x="447" 
d="M247 596c16 36 57 44 108 44h21c50 0 80 -26 68 -54l-244 -551c-16 -36 -57 -44 -108 -44h-21c-50 0 -80 26 -68 54z" />
    <glyph glyph-name="soundcopyright" unicode="&#x2117;" horiz-adv-x="654" 
d="M327 90c-173 0 -315 141 -315 315c0 173 142 315 315 315s315 -142 315 -315c0 -174 -142 -315 -315 -315zM327 182c122 0 223 100 223 223s-101 223 -223 223c-123 0 -223 -100 -223 -223s100 -223 223 -223zM355 333h-31v-72c0 -15 -34 -24 -65 -24h-13
c-30 0 -62 9 -62 24v287c0 15 12 18 32 18h138c93 0 155 -44 155 -116c0 -73 -60 -117 -154 -117zM337 478h-13v-57h15c21 0 32 14 32 29c0 14 -12 28 -34 28z" />
    <glyph glyph-name="space" unicode=" " horiz-adv-x="200" 
 />
    <glyph glyph-name="sterling" unicode="&#xa3;" horiz-adv-x="548" 
d="M53 202c-16 0 -29 25 -29 51v11c0 25 9 51 26 51h40c0 6 -1 11 -2 17h-35c-16 0 -29 25 -29 51v11c0 25 9 51 26 51h27c4 126 110 205 233 205c66 0 126 -9 166 -31c25 -14 31 -50 20 -94c-11 -43 -37 -69 -63 -63c-25 6 -46 14 -74 14c-23 0 -44 -11 -49 -31h154
c16 0 26 -26 26 -52v-11c0 -26 -10 -50 -26 -50h-140c1 -5 2 -11 2 -17h138c16 0 26 -26 26 -52v-11c0 -26 -10 -50 -26 -50h-165c-8 -8 -16 -16 -26 -23h230c25 0 39 -45 39 -85v-16c0 -40 -14 -82 -39 -82h-459c-25 0 -44 43 -44 83v17c0 38 13 83 39 83h5
c16 6 29 13 38 23h-29z" />
    <glyph glyph-name="t" unicode="t" horiz-adv-x="361" 
d="M292 32c0 -27 -53 -41 -103 -41h-21c-47 0 -99 14 -99 41v270h-25c-25 0 -44 42 -44 81v17c0 37 13 81 39 81h30v63c0 27 53 41 101 41h21c49 0 101 -14 101 -41v-63h30c25 0 39 -44 39 -83v-16c0 -39 -14 -80 -39 -80h-30v-270z" />
    <glyph glyph-name="t.alt" horiz-adv-x="393" 
d="M244 -9h-31c-93 0 -144 58 -144 128v183h-25c-25 0 -44 42 -44 81v17c0 37 13 81 39 81h30v63c0 27 53 41 101 41h21c49 0 101 -14 101 -41v-63h50c25 0 39 -44 39 -83v-16c0 -39 -14 -80 -39 -80h-50v-111c0 -17 11 -28 31 -28h8c27 0 47 -21 47 -73
c0 -55 -45 -99 -134 -99z" />
    <glyph glyph-name="t_t" horiz-adv-x="686" 
d="M283 32c0 -27 -53 -41 -103 -41h-21c-47 0 -99 14 -99 41v270h-16c-25 0 -44 42 -44 81v17c0 37 13 81 39 81h21v63c0 27 53 41 101 41h21c49 0 101 -14 101 -41v-63h111v63c0 27 53 41 101 41h21c49 0 101 -14 101 -41v-63h30c25 0 39 -44 39 -83v-16
c0 -39 -14 -80 -39 -80h-30v-270c0 -27 -53 -41 -103 -41h-21c-47 0 -99 14 -99 41v270h-111v-270z" />
    <glyph glyph-name="three" unicode="3" horiz-adv-x="556" 
d="M237 -19c-82 0 -153 26 -193 56c-28 21 -31 59 -19 99c12 44 56 83 89 67c32 -16 67 -43 119 -43c45 0 82 9 82 41c0 35 -46 43 -154 43c-27 0 -41 21 -41 63v17c0 29 13 59 39 59c98 0 143 12 143 47c0 28 -22 43 -68 43c-52 0 -79 -35 -111 -51c-33 -16 -77 17 -89 61
c-12 40 -8 77 19 99c40 33 113 68 219 68c147 0 249 -70 249 -173c0 -70 -29 -123 -96 -152c71 -25 107 -73 107 -148c0 -121 -113 -196 -295 -196z" />
    <glyph glyph-name="three.dnom" horiz-adv-x="296" 
d="M125 -9c-42 0 -80 11 -102 25c-16 11 -17 32 -11 53c7 24 31 45 50 37c17 -6 35 -18 61 -18c21 0 40 2 40 15c0 16 -24 17 -79 17c-15 0 -23 11 -23 34v9c0 16 8 32 22 32c50 0 73 3 73 19c0 11 -10 17 -33 17c-26 0 -39 -17 -57 -23c-18 -8 -43 10 -49 34
c-7 21 -5 41 10 53c22 15 61 32 118 32c79 0 134 -36 134 -88c0 -34 -14 -61 -48 -75c35 -13 53 -37 53 -74c0 -62 -61 -99 -159 -99z" />
    <glyph glyph-name="three.numr" horiz-adv-x="296" 
d="M125 314c-42 0 -80 11 -102 25c-16 11 -17 32 -11 53c7 24 31 45 50 37c17 -6 35 -18 61 -18c21 0 40 2 40 15c0 16 -24 17 -79 17c-15 0 -23 11 -23 34v9c0 16 8 32 22 32c50 0 73 3 73 19c0 11 -10 17 -33 17c-26 0 -39 -17 -57 -23c-18 -8 -43 10 -49 34
c-7 21 -5 41 10 53c22 15 61 32 118 32c79 0 134 -36 134 -88c0 -34 -14 -61 -48 -75c35 -13 53 -37 53 -74c0 -62 -61 -99 -159 -99z" />
    <glyph glyph-name="threequarters" unicode="&#xbe;" horiz-adv-x="750" 
d="M145 314c-42 0 -80 11 -102 25c-16 11 -17 32 -11 53c7 24 31 45 50 37c17 -6 35 -18 61 -18c21 0 40 2 40 15c0 16 -24 17 -79 17c-15 0 -23 11 -23 34v9c0 16 8 32 22 32c50 0 73 3 73 19c0 11 -10 17 -33 17c-26 0 -39 -17 -57 -23c-18 -8 -43 10 -49 34
c-7 21 -5 41 10 53c22 15 61 32 118 32c79 0 134 -36 134 -88c0 -34 -14 -61 -48 -75c35 -13 53 -37 53 -74c0 -62 -61 -99 -159 -99zM478 596c22 33 47 44 98 44h21c50 0 75 -28 58 -54l-364 -551c-22 -33 -47 -44 -98 -44h-21c-50 0 -75 28 -58 54zM683 19
c0 -15 -26 -23 -55 -23h-11c-28 0 -53 8 -53 23v17h-137c-14 0 -27 20 -27 44v9c0 19 3 34 9 50c23 54 58 102 102 152c18 19 48 31 79 31h45c28 0 48 -8 48 -24v-171h22c14 0 22 -22 22 -42v-8c0 -20 -8 -41 -22 -41h-22v-17zM503 127h61v96c-24 -24 -48 -62 -61 -96z" />
    <glyph glyph-name="tilde" unicode="&#x2dc;" 
d="M127 533c-7 -16 -39 -22 -71 -5c-31 15 -46 38 -42 57c17 76 73 137 155 137c77 0 103 -44 148 -44c29 0 44 16 56 47c7 17 40 23 72 6c30 -16 45 -39 42 -57c-16 -76 -73 -138 -156 -138c-76 0 -103 45 -148 45c-28 0 -43 -16 -56 -48z" />
    <glyph glyph-name="tilde.cap" 
d="M55 668c-30 15 -43 38 -39 57c17 76 73 137 151 137c76 0 106 -49 151 -49c28 0 45 15 56 42c7 16 39 21 71 5c30 -15 43 -38 39 -57c-17 -76 -73 -137 -151 -137c-76 0 -106 49 -151 49c-28 0 -45 -15 -56 -42c-7 -16 -39 -21 -71 -5z" />
    <glyph glyph-name="two" unicode="2" horiz-adv-x="576" 
d="M270 650c168 0 265 -96 265 -220c0 -96 -73 -178 -195 -247h180c25 0 44 -45 44 -87v-18c0 -40 -13 -87 -39 -87h-464c-25 0 -39 47 -39 89v17c0 29 -1 64 19 75c209 118 259 183 259 231c0 37 -23 62 -57 62c-35 0 -62 -20 -78 -59c-10 -23 -46 -30 -92 -8
c-44 21 -65 52 -60 77c24 102 125 175 257 175z" />
    <glyph glyph-name="two.dnom" horiz-adv-x="309" 
d="M144 327c92 0 143 -49 143 -112c0 -45 -34 -83 -92 -115h83c14 0 25 -25 25 -47v-10c0 -22 -8 -47 -22 -47h-248c-14 0 -21 25 -21 48v9c0 16 -1 35 10 41c110 57 133 85 133 107c0 15 -10 26 -26 26s-30 -9 -37 -27c-6 -12 -26 -16 -52 -4c-24 11 -36 28 -34 41
c12 52 67 90 138 90z" />
    <glyph glyph-name="two.numr" horiz-adv-x="309" 
d="M144 650c92 0 143 -49 143 -112c0 -45 -34 -83 -92 -115h83c14 0 25 -25 25 -47v-10c0 -22 -8 -47 -22 -47h-248c-14 0 -21 25 -21 48v9c0 16 -1 35 10 41c110 57 133 85 133 107c0 15 -10 26 -26 26s-30 -9 -37 -27c-6 -12 -26 -16 -52 -4c-24 11 -36 28 -34 41
c12 52 67 90 138 90z" />
    <glyph glyph-name="u" unicode="u" horiz-adv-x="619" 
d="M36 449c0 27 53 41 103 41h21c47 0 99 -14 99 -41v-253c0 -36 19 -60 48 -60s53 26 53 80v233c0 27 53 41 103 41h21c47 0 99 -14 99 -41v-417c0 -27 -53 -41 -101 -41h-21c-49 0 -101 14 -101 41v21c-36 -40 -89 -62 -151 -62c-102 0 -173 64 -173 159v299z" />
    <glyph glyph-name="u.alt" horiz-adv-x="649" 
d="M36 449c0 27 53 41 103 41h21c47 0 99 -14 99 -41v-253c0 -36 19 -60 48 -60s53 26 53 80v233c0 27 53 41 101 41h21c49 0 101 -14 101 -41v-280c0 -20 8 -26 30 -26s36 -23 36 -59c0 -47 -46 -93 -134 -93h-21c-67 0 -107 30 -124 73c-36 -47 -93 -73 -161 -73
c-102 0 -173 64 -173 159v299z" />
    <glyph glyph-name="uacute" unicode="&#xfa;" horiz-adv-x="619" 
d="M369 562c-15 -20 -39 -37 -84 -37h-19c-42 0 -72 13 -62 37l57 141c11 27 62 41 109 41h19c51 0 99 -22 84 -42zM36 449c0 27 53 41 103 41h21c47 0 99 -14 99 -41v-253c0 -36 19 -60 48 -60s53 26 53 80v233c0 27 53 41 103 41h21c47 0 99 -14 99 -41v-417
c0 -27 -53 -41 -101 -41h-21c-49 0 -101 14 -101 41v21c-36 -40 -89 -62 -151 -62c-102 0 -173 64 -173 159v299z" />
    <glyph glyph-name="uacute.alt" horiz-adv-x="649" 
d="M369 562c-15 -20 -39 -37 -84 -37h-19c-42 0 -72 13 -62 37l57 141c11 27 62 41 109 41h19c51 0 99 -22 84 -42zM36 449c0 27 53 41 103 41h21c47 0 99 -14 99 -41v-253c0 -36 19 -60 48 -60s53 26 53 80v233c0 27 53 41 101 41h21c49 0 101 -14 101 -41v-280
c0 -20 8 -26 30 -26s36 -23 36 -59c0 -47 -46 -93 -134 -93h-21c-67 0 -107 30 -124 73c-36 -47 -93 -73 -161 -73c-102 0 -173 64 -173 159v299z" />
    <glyph glyph-name="udieresis" unicode="&#xfc;" horiz-adv-x="619" 
d="M195 520c-67 0 -106 39 -106 96c0 55 39 94 106 94c68 0 106 -39 106 -94c0 -57 -38 -96 -106 -96zM425 520c-67 0 -106 39 -106 96c0 55 39 94 106 94c68 0 106 -39 106 -94c0 -57 -38 -96 -106 -96zM36 449c0 27 53 41 103 41h21c47 0 99 -14 99 -41v-253
c0 -36 19 -60 48 -60s53 26 53 80v233c0 27 53 41 103 41h21c47 0 99 -14 99 -41v-417c0 -27 -53 -41 -101 -41h-21c-49 0 -101 14 -101 41v21c-36 -40 -89 -62 -151 -62c-102 0 -173 64 -173 159v299z" />
    <glyph glyph-name="underscore" unicode="_" horiz-adv-x="465" 
d="M56 -198c-25 0 -44 42 -44 81v17c0 37 13 81 39 81h363c25 0 39 -44 39 -83v-16c0 -39 -14 -80 -39 -80h-358z" />
    <glyph glyph-name="v" unicode="v" horiz-adv-x="580" 
d="M431 25c-21 -25 -80 -34 -152 -34c-69 0 -121 11 -140 35c-55 72 -133 317 -133 417c0 27 53 47 103 47h21c48 0 100 -14 100 -41c0 -22 19 -161 66 -271c47 114 69 248 69 271c0 26 50 41 92 41h20c44 0 97 -20 97 -47c0 -97 -78 -345 -143 -418z" />
    <glyph glyph-name="w" unicode="w" horiz-adv-x="930" 
d="M811 26c-19 -24 -71 -35 -140 -35c-72 0 -146 12 -155 43l-51 183l-51 -183c-9 -31 -83 -43 -155 -43c-69 0 -121 11 -140 35c-55 72 -113 277 -113 417c0 27 53 47 103 47h21c48 0 100 -14 100 -41c0 -52 6 -171 44 -272l62 267c7 32 73 46 145 46c69 0 126 -17 133 -47
l62 -266c38 101 44 220 44 272c0 27 52 41 100 41h21c50 0 83 -20 83 -47c0 -140 -58 -345 -113 -417z" />
    <glyph glyph-name="x" unicode="x" horiz-adv-x="569" 
d="M230 32c0 -27 -52 -41 -100 -41h-21c-50 0 -103 20 -103 47c0 82 42 150 119 223c-83 62 -107 124 -107 182c0 27 56 47 100 47h20c42 0 92 -15 92 -41c0 -23 12 -53 58 -94c37 42 51 74 51 94c0 26 50 41 92 41h20c44 0 100 -20 100 -47c0 -56 -37 -121 -122 -189
c87 -65 134 -133 134 -216c0 -27 -53 -47 -103 -47h-21c-48 0 -100 14 -100 41c0 24 -13 67 -57 114c-43 -51 -52 -89 -52 -114z" />
    <glyph glyph-name="y" unicode="y" horiz-adv-x="580" 
d="M283 -173c-27 -21 -83 -22 -124 -4l-18 8c-51 23 -62 70 -36 94c22 20 48 41 76 72c-120 118 -175 359 -175 446c0 27 53 47 103 47h21c48 0 100 -14 100 -41c0 -21 22 -152 70 -264c42 108 65 242 65 264c0 26 50 41 92 41h20c44 0 97 -20 97 -47
c0 -73 -43 -232 -94 -338c-64 -133 -152 -242 -197 -278z" />
    <glyph glyph-name="y.alt" horiz-adv-x="619" 
d="M360 49v24c-36 -40 -89 -62 -151 -62c-102 0 -173 64 -173 159v279c0 27 53 41 103 41h21c47 0 99 -14 99 -41v-233c0 -36 19 -60 48 -60s53 26 53 80v213c0 27 53 41 101 41h21c49 0 101 -14 101 -41v-397c0 -143 -136 -242 -317 -242c-65 0 -118 9 -162 28
c-28 12 -50 43 -42 87c8 43 34 66 60 57s62 -18 113 -18c67 0 125 30 125 85z" />
    <glyph glyph-name="yen" unicode="&#xa5;" horiz-adv-x="641" 
d="M76 45c-16 0 -29 25 -29 51v11c0 25 9 51 26 51h130v17h-127c-16 0 -29 25 -29 51v11c0 25 9 51 26 51h56c-71 102 -117 221 -117 305c0 27 50 47 107 47h22c54 0 103 -14 103 -41c0 -33 22 -104 77 -185c54 81 76 152 76 185c0 27 49 41 103 41h22c57 0 107 -20 107 -47
c0 -84 -46 -203 -117 -305h50c16 0 26 -26 26 -52v-11c0 -26 -10 -50 -26 -50h-127v-17h127c16 0 26 -26 26 -52v-11c0 -26 -10 -50 -26 -50h-127v-11c0 -28 -56 -43 -107 -43h-21c-50 0 -104 15 -104 43v11h-127z" />
    <glyph glyph-name="z" unicode="z" horiz-adv-x="510" 
d="M508 73c0 -39 -14 -73 -39 -73h-418c-24 0 -39 25 -39 61v5c0 145 136 192 210 250h-161c-25 0 -44 35 -44 74v17c0 37 13 74 39 74h393c25 0 39 -27 39 -66v-5c0 -141 -140 -185 -213 -245h194c25 0 39 -37 39 -76v-16z" />
    <glyph glyph-name="zero" unicode="0" horiz-adv-x="649" 
d="M325 -19c-189 0 -301 135 -301 335s112 334 301 334c188 0 300 -134 300 -334s-112 -335 -300 -335zM324 151c45 0 63 48 63 164c0 100 -18 165 -63 165c-44 0 -62 -49 -62 -165c0 -102 18 -164 62 -164z" />
    <glyph glyph-name="zero.dnom" horiz-adv-x="346" 
d="M173 -9c-101 0 -162 67 -162 168c0 102 61 168 162 168s162 -66 162 -168s-61 -168 -162 -168zM173 93c20 0 31 19 31 65c0 38 -11 67 -31 67s-31 -20 -31 -66c0 -39 11 -66 31 -66z" />
    <glyph glyph-name="zero.numr" horiz-adv-x="346" 
d="M173 314c-101 0 -162 67 -162 168c0 102 61 168 162 168s162 -66 162 -168s-61 -168 -162 -168zM173 416c20 0 31 19 31 65c0 38 -11 67 -31 67s-31 -20 -31 -66c0 -39 11 -66 31 -66z" />
    </font>
</defs>
</svg>
