<?xml version="1.0" standalone="no"?>
<!DOCTYPE svg PUBLIC "-//W3C//DTD SVG 1.1//EN" "http://www.w3.org/Graphics/SVG/1.1/DTD/svg11.dtd" >
<svg xmlns="http://www.w3.org/2000/svg" xmlns:xlink="http://www.w3.org/1999/xlink" version="1.1">
<metadata>
Created by FontForge 20170924 at Mon Mar 23 22:47:19 2020
 By www-data

</metadata>
<defs>
<font id="AlpinaSans-BoldItalic" horiz-adv-x="500" >
  <font-face 
    font-family="Alpina Sans"
    font-weight="676"
    font-style="italic"
    font-stretch="normal"
    units-per-em="1000"
    panose-1="2 15 0 3 4 5 0 0 0 3"
    ascent="750"
    descent="-250"
    x-height="469"
    cap-height="630"
    bbox="-176.444 -250 1730 845"
    underline-thickness="0"
    underline-position="0"
    slope="-7"
    unicode-range="U+0020-FB01"
  />
<missing-glyph horiz-adv-x="723" 
d="M48 -169l101 819h586l-102 -819h-585zM219 -33h278l68 548h-279z" />
    <glyph glyph-name="f_b" unicode="fb" horiz-adv-x="969" 
d="M78 333c-20 0 -31 32 -27 61l1 14c4 28 18 61 39 61h38l1 8c14 120 124 193 247 193c41 0 76 -7 105 -19c8 19 45 29 79 29h16c37 0 74 -11 72 -33l-30 -240c42 47 101 74 166 74c118 0 204 -95 186 -248c-19 -153 -128 -246 -251 -246c-62 0 -114 24 -144 69l-4 -34
c-2 -21 -44 -32 -81 -32h-16c-35 0 -73 11 -70 32l63 517c-20 13 -42 20 -72 20c-54 0 -93 -39 -100 -88v-2h88c20 0 28 -33 24 -63l-2 -12c-3 -30 -18 -61 -38 -61h-89l-37 -311c-3 -21 -44 -32 -80 -32h-16c-37 0 -74 11 -72 32l38 311h-34zM683 94c67 0 117 55 127 140
s-28 138 -90 138c-58 0 -107 -45 -119 -113l-7 -54c-5 -67 34 -111 89 -111z" />
    <glyph glyph-name="f_f" unicode="ff" horiz-adv-x="679" 
d="M78 333c-20 0 -31 32 -27 61l1 14c4 28 18 61 39 61h38l1 8c14 120 124 193 247 193c67 0 117 -18 156 -45c39 30 90 45 145 45c39 0 68 -6 90 -15c21 -9 32 -34 21 -68c-10 -33 -32 -47 -53 -42c-12 3 -24 8 -45 8c-32 0 -56 -24 -61 -57l-3 -27h79c20 0 27 -33 24 -63
l-2 -12c-4 -30 -19 -61 -39 -61h-79l-38 -311c-2 -21 -44 -32 -80 -32h-16c-36 0 -74 11 -71 32l38 311h-164l-37 -311c-3 -21 -44 -32 -80 -32h-16c-37 0 -74 11 -72 32l38 311h-34zM296 471v-2h163l4 32c2 13 4 25 8 37c-21 13 -45 21 -75 21c-54 0 -93 -39 -100 -88z" />
    <glyph glyph-name="f_f_i" unicode="ffi" horiz-adv-x="952" 
d="M78 333c-20 0 -31 32 -27 61l1 14c4 28 18 61 39 61h38l1 8c14 120 124 193 247 193c76 0 132 -25 173 -57c51 41 120 64 203 64c65 0 109 -12 148 -33c20 -10 33 -34 22 -68c-10 -32 -33 -50 -53 -42c-27 14 -58 26 -110 26c-65 0 -115 -33 -131 -91h253
c37 0 74 -12 71 -33l-50 -414c-3 -21 -44 -32 -81 -32h-16c-36 0 -73 11 -71 32l38 311h-162l-39 -311c-2 -21 -44 -32 -80 -32h-16c-36 0 -74 11 -71 32l38 311h-164l-37 -311c-3 -21 -44 -32 -80 -32h-16c-37 0 -74 11 -72 32l38 311h-34zM296 471v-2h164
c5 22 12 42 22 61c-23 17 -50 29 -86 29c-54 0 -93 -39 -100 -88z" />
    <glyph glyph-name="f_f_l" unicode="ffl" horiz-adv-x="952" 
d="M78 333c-20 0 -31 32 -27 61l1 14c4 28 18 61 39 61h38l1 8c14 120 124 193 247 193c72 0 126 -23 166 -52c45 34 103 52 165 52c41 0 76 -7 105 -18c10 16 46 25 78 25h16c37 0 74 -11 72 -32l-76 -623c-3 -21 -44 -32 -81 -32h-16c-36 0 -73 11 -71 32l63 518
c-19 12 -41 19 -70 19c-54 0 -94 -39 -101 -88v-2h88c20 0 27 -33 24 -63l-2 -12c-4 -30 -19 -61 -39 -61h-88l-38 -311c-2 -21 -44 -32 -80 -32h-16c-36 0 -74 11 -71 32l38 311h-164l-37 -311c-3 -21 -44 -32 -80 -32h-16c-37 0 -74 11 -72 32l38 311h-34zM296 471v-2h163
l1 8c3 21 8 40 16 58c-22 14 -47 24 -80 24c-54 0 -93 -39 -100 -88z" />
    <glyph glyph-name="f_h" unicode="fh" horiz-adv-x="965" 
d="M78 333c-20 0 -31 32 -27 61l1 14c4 28 18 61 39 61h38l1 8c14 120 124 193 247 193c41 0 76 -7 105 -19c8 19 45 29 79 29h16c37 0 74 -11 72 -33l-30 -242c42 48 104 76 173 76c109 0 172 -68 160 -170l-35 -289c-3 -21 -44 -32 -82 -32h-16c-35 0 -72 11 -70 32
l31 254c7 57 -21 94 -73 94c-55 0 -98 -45 -105 -111h-1l-29 -237c-2 -21 -44 -32 -81 -32h-16c-35 0 -73 11 -70 32l63 517c-20 13 -42 20 -72 20c-54 0 -93 -39 -100 -88v-2h88c20 0 28 -33 24 -63l-2 -12c-3 -30 -18 -61 -38 -61h-89l-37 -311c-3 -21 -44 -32 -80 -32
h-16c-37 0 -74 11 -72 32l38 311h-34z" />
    <glyph glyph-name="f_j" unicode="fj" horiz-adv-x="621" 
d="M78 333c-20 0 -31 32 -27 61l1 14c4 28 18 61 39 61h38c26 124 137 208 293 208c65 0 109 -12 148 -33c20 -10 33 -34 23 -68c-11 -32 -34 -50 -54 -42c-26 14 -58 26 -109 26c-66 0 -116 -33 -132 -91h253c37 0 74 -12 72 -33l-57 -459c-13 -111 -104 -167 -210 -167
c-36 0 -64 5 -85 14c-22 9 -33 34 -22 67s33 47 53 43c12 -3 23 -7 40 -7c32 0 54 23 57 55l43 351h-162l-38 -311c-3 -21 -44 -32 -80 -32h-16c-37 0 -74 11 -72 32l38 311h-34z" />
    <glyph glyph-name="f_k" unicode="fk" horiz-adv-x="918" 
d="M78 333c-20 0 -31 32 -27 61l1 14c4 28 18 61 39 61h38l1 8c14 120 124 193 247 193c41 0 76 -7 105 -19c8 19 45 29 79 29h16c37 0 74 -11 72 -33l-42 -340h9c81 0 163 86 170 139c2 21 41 33 73 33h15c33 0 71 -16 68 -37c-6 -53 -59 -132 -149 -194
c76 -60 118 -151 110 -221c-3 -22 -44 -37 -82 -37h-16c-36 0 -74 11 -71 33c6 54 -55 163 -135 163h-7l-20 -164c-2 -21 -44 -32 -81 -32h-16c-35 0 -73 11 -70 32l63 517c-20 13 -42 20 -72 20c-54 0 -93 -39 -100 -88v-2h88c20 0 28 -33 24 -63l-2 -12
c-3 -30 -18 -61 -38 -61h-89l-37 -311c-3 -21 -44 -32 -80 -32h-16c-37 0 -74 11 -72 32l38 311h-34z" />
    <glyph glyph-name="f_l" unicode="fl" horiz-adv-x="621" 
d="M78 333c-20 0 -31 32 -27 61l1 14c4 28 18 61 39 61h38l1 8c14 120 124 193 247 193c41 0 76 -7 105 -19c8 19 45 29 79 29h16c37 0 74 -11 72 -33l-77 -625c-2 -21 -44 -32 -81 -32h-16c-35 0 -73 11 -70 32l63 517c-20 13 -42 20 -72 20c-54 0 -93 -39 -100 -88v-2h88
c20 0 28 -33 24 -63l-2 -12c-3 -30 -18 -61 -38 -61h-89l-37 -311c-3 -21 -44 -32 -80 -32h-16c-37 0 -74 11 -72 32l38 311h-34z" />
    <glyph glyph-name="fi" unicode="fi" horiz-adv-x="621" 
d="M78 333c-20 0 -31 32 -27 61l1 14c4 28 18 61 39 61h38c26 124 137 208 293 208c65 0 109 -12 148 -33c20 -10 33 -34 23 -68c-11 -32 -34 -50 -54 -42c-26 14 -58 26 -109 26c-66 0 -116 -33 -132 -91h253c37 0 74 -12 72 -33l-51 -414c-2 -21 -44 -32 -81 -32h-16
c-35 0 -73 11 -70 32l38 311h-163l-38 -311c-3 -21 -44 -32 -80 -32h-16c-37 0 -74 11 -72 32l38 311h-34z" />
    <glyph glyph-name="logoalpina_1" unicode="&#x40;LP" horiz-adv-x="1802" 
d="M900 750c581 0 830 -187 830 -432c0 -263 -489 -568 -829 -568c-341 0 -829 305 -829 568c0 245 247 432 828 432zM551 518c10 -10 28 -1 28 16c0 14 -17 38 -52 49c-100 32 -246 -36 -312 -158c-53 -99 -28 -177 15 -196c49 -22 107 9 186 96c-8 -19 -14 -38 -14 -53
c0 -14 10 -27 23 -34c25 -13 70 3 123 70v-14c1 -18 13 -33 27 -40c21 -11 72 6 144 97c-40 -77 -90 -154 -90 -172c0 -20 11 -32 26 -39c13 -6 24 0 28 12c8 26 46 103 77 163c52 94 119 167 139 161c16 -5 14 -41 -9 -86s-67 -78 -104 -69c-12 3 -17 -8 -15 -17
c2 -14 13 -26 24 -30c10 -4 22 -4 36 0c39 12 85 42 132 91c-15 -27 -26 -50 -26 -59c0 -18 12 -31 27 -37c25 -9 63 15 111 76c-10 -19 -16 -34 -16 -41c0 -17 8 -35 27 -40c9 -3 16 2 18 11c1 8 4 19 11 31c74 128 146 162 157 162c19 0 -86 -138 -86 -169
c0 -19 10 -35 28 -40c21 -6 48 7 97 62c-2 -12 -2 -23 -1 -32c3 -30 19 -42 37 -47c16 -5 45 7 95 55c-4 -13 -6 -25 -6 -36c0 -15 13 -30 27 -35c40 -15 100 27 133 73c9 13 3 29 -4 34c-6 4 -13 1 -19 -6c-31 -37 -57 -55 -70 -49c-12 6 -8 31 8 64c16 30 62 105 63 118
c1 12 -10 28 -22 33s-19 -2 -23 -11c-2 -5 -5 -11 -7 -15c-7 16 -24 32 -50 32c-46 0 -85 -31 -122 -85c-2 -3 -5 -8 -5 -8c-55 -70 -83 -92 -91 -87c-10 6 84 139 84 156c0 24 -20 44 -40 44c-17 0 -69 -26 -120 -83c11 24 20 44 20 52c0 15 -11 26 -27 32
c-10 3 -16 0 -19 -10c-1 -6 -4 -15 -8 -24c-45 -101 -124 -164 -134 -159c-12 6 9 37 29 74c17 35 38 65 38 78c0 20 -12 31 -28 38c-9 4 -14 0 -16 -9s-6 -20 -13 -33c-18 -34 -54 -75 -89 -106c3 4 5 7 8 13c41 81 24 132 -15 142c-22 6 -62 -29 -104 -80
c14 30 23 52 23 57c0 17 -13 34 -27 40c-10 3 -18 0 -21 -10c-5 -16 -11 -34 -18 -53c-59 -113 -141 -167 -154 -162c-11 4 -17 14 -8 45c88 82 133 143 160 191c28 51 21 91 -17 101c-43 11 -89 -37 -144 -164c-16 -38 -29 -70 -40 -96c-57 -73 -85 -94 -98 -89
c-14 5 -13 17 8 63c20 43 48 82 48 97c0 19 -17 40 -30 40c-9 0 -15 -5 -24 -22c-84 -150 -164 -207 -200 -193c-24 9 -36 52 1 123c44 83 145 147 236 123c16 -4 28 -10 36 -17zM1084 625c-21 -10 -23 -70 -5 -76c18 -9 60 15 60 41c0 18 -35 39 -55 35zM654 453
c55 112 74 145 88 141c8 -2 10 -15 -4 -38c-18 -30 -40 -67 -94 -125c3 7 6 14 10 22zM1505 433c-55 -104 -110 -141 -128 -136c-16 5 -20 43 9 89c31 50 62 70 86 70c18 0 33 -10 33 -23zM1283 -50l-80 26l-53 39l-34 -11l-41 43l-31 21l-42 78l-51 52l-51 14l-28 -26
l-19 -39l-43 -29l-29 -68l-102 -64l-44 6l-52 -43l-43 12l-23 -10c52 -25 102 -49 181 -74l-67 52l8 23l112 -88l45 -9l-124 97l21 12l148 -116l38 -3l-146 114l57 -16l124 -98l33 2l-129 100l16 15l144 -112l29 5l-156 123l16 14l131 -104l-25 48l-89 70l17 13l42 -32
l-1 28l-24 19l20 15l-11 46l15 38l-34 53l30 -9l42 -44l36 -79l40 -29l79 -82l19 38l38 -27l57 -20z" />
    <glyph glyph-name="logoalpina_2" unicode="F&#x40;LP" horiz-adv-x="1802" 
d="M900 750c581 0 830 -187 830 -432c0 -264 -489 -568 -829 -568c-342 0 -829 304 -829 568c0 245 247 432 828 432zM1104 -102l-306 240l33 29l270 -213l-52 98l-183 144l35 27l87 -66l-2 58l-49 39l41 31l-23 97l31 78l-70 109l62 -19l85 -90l75 -165l84 -60l163 -169
l40 79l57 -41c11 9 25 23 36 35l-102 76l-70 -23l-84 89l-66 45l-87 161l-104 107l-106 28l-57 -53l-40 -80l-88 -60l-60 -142l-210 -132l-90 12l-54 -43c92 -89 213 -160 348 -209l-218 170l43 25l293 -229c27 -6 57 -11 87 -14l-298 232l117 -33l256 -201c22 2 49 5 64 7
l-262 202l33 31l285 -222c20 5 38 10 56 15z" />
    <glyph glyph-name=".notdef" horiz-adv-x="723" 
d="M48 -169l101 819h586l-102 -819h-585zM219 -33h278l68 548h-279z" />
    <glyph glyph-name="A" unicode="A" horiz-adv-x="656" 
d="M182 24c-3 -21 -42 -33 -74 -33h-19c-33 0 -72 16 -68 37c17 149 172 482 268 574c20 19 70 27 124 27c53 0 95 -9 108 -28c66 -92 140 -422 122 -573c-4 -21 -45 -37 -83 -37h-20c-35 0 -74 11 -71 33c3 28 2 76 -3 133h-248c-19 -57 -32 -105 -36 -133zM268 287h181
c-14 82 -35 164 -64 224c-42 -62 -83 -144 -117 -224z" />
    <glyph glyph-name="Aacute" unicode="&#xc1;" horiz-adv-x="656" 
d="M464 690c-14 -17 -34 -30 -67 -30h-15c-32 0 -55 11 -43 30l79 122c12 22 52 33 87 33h15c39 0 73 -18 57 -34zM182 24c-3 -21 -42 -33 -74 -33h-19c-33 0 -72 16 -68 37c17 149 172 482 268 574c20 19 70 27 124 27c53 0 95 -9 108 -28c66 -92 140 -422 122 -573
c-4 -21 -45 -37 -83 -37h-20c-35 0 -74 11 -71 33c3 28 2 76 -3 133h-248c-19 -57 -32 -105 -36 -133zM268 287h181c-14 82 -35 164 -64 224c-42 -62 -83 -144 -117 -224z" />
    <glyph glyph-name="B" unicode="B" horiz-adv-x="594" 
d="M135 598c2 22 19 27 45 27h205c129 0 226 -60 213 -170c-8 -66 -53 -110 -113 -135c65 -24 109 -70 99 -149c-15 -121 -135 -176 -258 -176h-223c-26 0 -41 12 -38 34zM357 511h-59l-18 -149h59c47 0 85 32 90 75c6 46 -31 74 -72 74zM345 262h-77l-19 -153h78
c46 0 90 29 95 76c6 46 -31 77 -77 77z" />
    <glyph glyph-name="C" unicode="C" horiz-adv-x="640" 
d="M668 510c5 -22 -17 -52 -53 -70c-38 -19 -69 -15 -78 1c-21 40 -59 62 -114 62c-88 0 -157 -72 -172 -191c-14 -110 42 -196 128 -196c64 0 112 29 143 79c10 18 42 24 79 7c33 -16 48 -41 40 -61c-42 -94 -152 -161 -285 -161c-188 0 -307 142 -283 332
c23 191 165 327 365 327c115 0 212 -52 230 -129z" />
    <glyph glyph-name="C.alt" horiz-adv-x="656" 
d="M619 63c-54 -51 -133 -83 -245 -83c-206 0 -325 149 -301 340c23 191 175 319 356 319c146 0 253 -82 238 -211c-14 -120 -112 -173 -192 -173c-42 0 -73 16 -68 59c2 21 13 42 28 42c38 0 70 22 76 67c6 48 -35 78 -88 78c-85 0 -157 -69 -170 -179
c-15 -118 67 -205 170 -205c67 0 115 18 160 50c18 14 39 -3 49 -30c8 -24 7 -55 -13 -74z" />
    <glyph glyph-name="D" unicode="D" horiz-adv-x="696" 
d="M320 -5h-217c-26 0 -41 12 -38 34l70 569c2 22 19 27 45 27h207c203 0 336 -126 313 -315c-23 -192 -176 -315 -380 -315zM370 497h-73l-46 -374h77c97 0 178 64 193 186c14 116 -56 188 -151 188z" />
    <glyph glyph-name="E" unicode="E" horiz-adv-x="539" 
d="M135 598c2 22 19 27 45 27h356c20 0 28 -32 24 -60l-1 -11c-4 -28 -19 -58 -39 -58h-224l-14 -119h207c19 0 27 -32 23 -60v-10c-4 -28 -19 -58 -39 -58h-207l-15 -126h233c20 0 28 -32 25 -60l-2 -11c-3 -28 -18 -57 -38 -57h-366c-26 0 -41 12 -38 34z" />
    <glyph glyph-name="E.alt" horiz-adv-x="536" 
d="M291 -20c-165 0 -254 75 -239 189c8 74 61 126 147 151c-73 27 -106 81 -98 151c12 100 118 168 253 168c109 0 169 -41 200 -81c19 -17 19 -46 4 -77c-14 -33 -51 -55 -74 -42c-27 27 -55 66 -119 66c-59 0 -98 -26 -103 -68c-6 -48 48 -73 157 -73c21 0 28 -24 26 -46
l-2 -13c-3 -31 -17 -48 -38 -48c-123 0 -182 -23 -187 -71c-6 -46 39 -70 99 -70c65 0 113 33 147 60c26 14 56 -14 63 -47c7 -30 0 -60 -22 -77c-42 -38 -125 -72 -214 -72z" />
    <glyph glyph-name="Eacute" unicode="&#xc9;" horiz-adv-x="539" 
d="M391 690c-14 -17 -34 -30 -67 -30h-15c-32 0 -55 11 -43 30l79 122c12 22 52 33 87 33h15c39 0 73 -18 57 -34zM135 598c2 22 19 27 45 27h356c20 0 28 -32 24 -60l-1 -11c-4 -28 -19 -58 -39 -58h-224l-14 -119h207c19 0 27 -32 23 -60v-10c-4 -28 -19 -58 -39 -58h-207
l-15 -126h233c20 0 28 -32 25 -60l-2 -11c-3 -28 -18 -57 -38 -57h-366c-26 0 -41 12 -38 34z" />
    <glyph glyph-name="Eacute.alt" horiz-adv-x="536" 
d="M392 690c-14 -17 -34 -30 -67 -30h-15c-32 0 -55 11 -43 30l79 122c12 22 52 33 87 33h15c39 0 73 -18 57 -34zM291 -20c-165 0 -254 75 -239 189c8 74 61 126 147 151c-73 27 -106 81 -98 151c12 100 118 168 253 168c109 0 169 -41 200 -81c19 -17 19 -46 4 -77
c-14 -33 -51 -55 -74 -42c-27 27 -55 66 -119 66c-59 0 -98 -26 -103 -68c-6 -48 48 -73 157 -73c21 0 28 -24 26 -46l-2 -13c-3 -31 -17 -48 -38 -48c-123 0 -182 -23 -187 -71c-6 -46 39 -70 99 -70c65 0 113 33 147 60c26 14 56 -14 63 -47c7 -30 0 -60 -22 -77
c-42 -38 -125 -72 -214 -72z" />
    <glyph glyph-name="Euro" unicode="&#x20ac;" horiz-adv-x="674" 
d="M49 205c-13 0 -21 19 -19 40l1 8c3 19 13 40 27 40h37c1 6 1 13 2 19c1 5 1 9 2 14h-34c-14 0 -23 20 -20 40l1 9c3 19 13 39 27 39h49c54 136 178 225 340 225c115 0 212 -52 230 -129c5 -22 -17 -52 -53 -70c-38 -19 -69 -15 -78 1c-21 40 -59 62 -114 62
c-59 0 -109 -32 -141 -89h183c14 0 20 -20 17 -40l-1 -9c-2 -20 -13 -39 -26 -39h-202c-1 -5 -1 -9 -2 -14c-1 -6 -1 -13 -2 -19h201c14 0 20 -21 17 -41l-1 -8c-2 -20 -13 -39 -27 -39h-178c20 -54 63 -89 118 -89c64 0 112 29 143 79c10 18 42 24 79 7
c33 -16 48 -41 40 -61c-42 -94 -152 -161 -285 -161c-151 0 -257 91 -281 225h-50z" />
    <glyph glyph-name="F" unicode="F" horiz-adv-x="525" 
d="M239 24c-3 -22 -47 -34 -85 -34h-16c-37 0 -76 12 -74 34l71 574c2 22 19 27 45 27h356c20 0 28 -32 24 -60l-1 -11c-4 -28 -19 -58 -39 -58h-223l-16 -131h206c20 0 28 -32 24 -60l-2 -11c-2 -28 -18 -58 -38 -58h-206z" />
    <glyph glyph-name="G" unicode="G" horiz-adv-x="686" 
d="M396 117c70 0 132 42 139 98l2 13h-134c-17 0 -22 30 -19 56l1 12c3 26 17 55 33 55h246c21 0 33 -10 31 -28l-17 -139c-13 -106 -138 -204 -314 -204c-197 0 -315 148 -291 333c23 196 172 325 376 326c115 1 212 -53 238 -128c7 -22 -17 -53 -53 -71
c-38 -19 -67 -15 -77 1c-22 35 -64 62 -123 62c-92 0 -168 -72 -183 -191c-14 -120 43 -195 145 -195z" />
    <glyph glyph-name="H" unicode="H" horiz-adv-x="703" 
d="M134 595c3 22 46 35 84 35h17c37 0 77 -13 74 -35l-25 -200h231l25 200c3 22 46 35 84 35h16c38 0 77 -13 74 -35l-70 -571c-2 -22 -46 -34 -84 -34h-16c-38 0 -76 12 -74 34l28 226h-231l-28 -226c-3 -22 -46 -34 -85 -34h-16c-37 0 -76 12 -74 34z" />
    <glyph glyph-name="I" unicode="I" horiz-adv-x="297" 
d="M134 591c3 22 46 39 84 39h17c37 0 77 -13 74 -35l-70 -571c-3 -22 -47 -34 -85 -34h-16c-37 0 -76 12 -74 34z" />
    <glyph glyph-name="Iacute" unicode="&#xcd;" horiz-adv-x="297" 
d="M281 690c-14 -17 -34 -30 -67 -30h-15c-32 0 -55 11 -43 30l79 122c12 22 52 33 87 33h15c39 0 73 -18 57 -34zM134 591c3 22 46 39 84 39h17c37 0 77 -13 74 -35l-70 -571c-3 -22 -47 -34 -85 -34h-16c-37 0 -76 12 -74 34z" />
    <glyph glyph-name="J" unicode="J" horiz-adv-x="498" 
d="M465 202c-17 -140 -131 -222 -266 -222c-76 0 -138 31 -165 68c-16 19 -18 50 5 86c22 33 52 50 72 42c22 -20 44 -48 88 -48s86 33 93 82l47 381c2 22 46 39 84 39h16c38 0 77 -13 74 -35z" />
    <glyph glyph-name="J.alt" horiz-adv-x="543" 
d="M102 486c-20 0 -27 34 -24 64l2 12c3 30 19 62 39 62h465c20 0 31 -32 28 -62l-2 -13c-3 -29 -18 -63 -39 -63h-22c-36 -16 -56 -35 -61 -77c-6 -48 2 -161 -6 -222c-15 -125 -124 -207 -246 -207c-74 0 -132 21 -165 54c-17 12 -19 40 -5 73s37 51 55 45
c24 -19 51 -40 96 -40s86 30 91 76c7 51 -5 131 4 201c5 43 30 75 64 97h-274z" />
    <glyph glyph-name="K" unicode="K" horiz-adv-x="646" 
d="M439 23c9 77 -67 224 -154 224h-19l-27 -223c-3 -22 -47 -34 -85 -34h-16c-37 0 -76 12 -74 34l70 567c3 22 46 39 84 39h17c37 0 77 -13 74 -35l-26 -215h17c77 0 189 141 198 214c3 22 44 33 85 33h16c43 0 81 -16 78 -38c-10 -84 -80 -191 -189 -271
c93 -85 141 -204 131 -291c-4 -21 -46 -37 -88 -37h-16c-41 0 -79 11 -76 33z" />
    <glyph glyph-name="K.alt" horiz-adv-x="648" 
d="M269 255h-2l-28 -230c-3 -22 -46 -34 -84 -34h-17c-37 0 -76 12 -74 34l70 565c3 22 46 38 84 38h16c38 0 78 -12 74 -35l-25 -204h4c94 0 202 132 211 205c3 22 44 33 85 33h16c43 0 81 -16 78 -38c-11 -96 -88 -198 -189 -264c25 -135 68 -176 107 -176c8 0 15 1 23 2
c24 3 36 -30 38 -66c3 -34 -9 -72 -31 -81c-24 -8 -45 -14 -74 -14c-120 0 -189 70 -221 271c-20 -4 -41 -6 -61 -6z" />
    <glyph glyph-name="L" unicode="L" horiz-adv-x="504" 
d="M134 591c3 22 46 39 84 39h17c37 0 77 -13 74 -35l-56 -455h234c20 0 26 -36 23 -68l-2 -12c-3 -32 -19 -65 -39 -65h-366c-26 0 -41 12 -38 34z" />
    <glyph glyph-name="L.alt" horiz-adv-x="543" 
d="M137 432c15 125 124 207 246 207c74 0 132 -21 165 -54c17 -12 19 -40 5 -73s-37 -51 -55 -45c-24 19 -51 40 -96 40s-86 -30 -91 -76c-7 -51 5 -131 -4 -201c-5 -43 -30 -75 -64 -97h274c20 0 27 -34 24 -64l-2 -12c-3 -30 -19 -62 -39 -62h-465c-20 0 -31 32 -28 62
l2 13c3 29 18 63 39 63h22c36 16 56 35 61 77c6 48 -2 161 6 222z" />
    <glyph glyph-name="M" unicode="M" horiz-adv-x="866" 
d="M224 24c-2 -22 -39 -34 -77 -34h-16c-37 0 -69 12 -67 34l68 553c4 29 34 53 86 53h44c97 0 182 -105 216 -266c73 161 184 266 281 266h44c52 0 76 -24 72 -53l-67 -553c-3 -22 -38 -34 -75 -34h-17c-38 0 -71 12 -68 34l52 429c-104 -102 -165 -265 -188 -429
c-3 -22 -39 -34 -72 -34h-18c-32 0 -65 12 -62 34c17 163 -4 327 -83 428z" />
    <glyph glyph-name="N" unicode="N" horiz-adv-x="705" 
d="M437 398c24 -86 47 -147 72 -191l48 388c3 22 39 35 77 35h17c37 0 69 -13 66 -35l-69 -557c-4 -29 -40 -48 -78 -48h-25c-92 0 -162 72 -207 231c-25 85 -48 146 -72 190l-48 -386c-3 -22 -39 -35 -77 -35h-16c-38 0 -70 13 -67 35l69 557c4 29 40 48 78 48h25
c94 0 161 -75 207 -232z" />
    <glyph glyph-name="Ntilde" unicode="&#xd1;" horiz-adv-x="705" 
d="M248 665c-22 12 -28 30 -23 45c26 64 79 115 150 115c73 0 95 -48 142 -48c31 0 52 17 68 45c8 13 34 17 57 4c21 -12 28 -30 22 -45c-26 -64 -79 -116 -149 -116c-74 0 -96 49 -143 49c-31 0 -51 -17 -68 -45c-8 -13 -33 -17 -56 -4zM437 398c24 -86 47 -147 72 -191
l48 388c3 22 39 35 77 35h17c37 0 69 -13 66 -35l-69 -557c-4 -29 -40 -48 -78 -48h-25c-92 0 -162 72 -207 231c-25 85 -48 146 -72 190l-48 -386c-3 -22 -39 -35 -77 -35h-16c-38 0 -70 13 -67 35l69 557c4 29 40 48 78 48h25c94 0 161 -75 207 -232z" />
    <glyph glyph-name="O" unicode="O" horiz-adv-x="725" 
d="M370 -20c-196 0 -321 142 -297 332c23 191 168 327 358 327c196 0 321 -141 298 -332c-24 -191 -168 -327 -359 -327zM379 109c93 0 155 71 171 198c14 115 -33 203 -128 203c-93 0 -155 -72 -171 -198c-14 -117 33 -203 128 -203z" />
    <glyph glyph-name="O.alt" horiz-adv-x="725" 
d="M363 -20c-199 0 -315 140 -292 321c5 43 17 86 37 129c8 19 41 26 77 21c20 106 121 188 259 188c196 0 308 -138 285 -329c-24 -192 -163 -330 -366 -330zM354 263c-41 0 -77 9 -105 25c-7 -101 43 -179 130 -179c93 0 155 73 171 200c14 116 -37 201 -125 201
c-59 0 -88 -33 -92 -69c-4 -37 25 -67 72 -67c22 0 28 -24 19 -56c-10 -36 -28 -55 -70 -55z" />
    <glyph glyph-name="Oacute" unicode="&#xd3;" horiz-adv-x="725" 
d="M470 690c-14 -17 -34 -30 -67 -30h-15c-32 0 -55 11 -43 30l79 122c12 22 52 33 87 33h15c39 0 73 -18 57 -34zM370 -20c-196 0 -321 142 -297 332c23 191 168 327 358 327c196 0 321 -141 298 -332c-24 -191 -168 -327 -359 -327zM379 109c93 0 155 71 171 198
c14 115 -33 203 -128 203c-93 0 -155 -72 -171 -198c-14 -117 33 -203 128 -203z" />
    <glyph glyph-name="Oacute.alt" horiz-adv-x="725" 
d="M465 690c-14 -17 -34 -30 -67 -30h-15c-32 0 -55 11 -43 30l79 122c12 22 52 33 87 33h15c39 0 73 -18 57 -34zM363 -20c-199 0 -315 140 -292 321c5 43 17 86 37 129c8 19 41 26 77 21c20 106 121 188 259 188c196 0 308 -138 285 -329c-24 -192 -163 -330 -366 -330z
M354 263c-41 0 -77 9 -105 25c-7 -101 43 -179 130 -179c93 0 155 73 171 200c14 116 -37 201 -125 201c-59 0 -88 -33 -92 -69c-4 -37 25 -67 72 -67c22 0 28 -24 19 -56c-10 -36 -28 -55 -70 -55z" />
    <glyph glyph-name="P" unicode="P" horiz-adv-x="585" 
d="M338 204h-77l-22 -179c-3 -22 -46 -34 -84 -34h-17c-37 0 -76 12 -74 34l71 573c2 22 19 27 45 27h212c141 0 237 -88 221 -218c-16 -129 -134 -203 -275 -203zM357 504h-59l-22 -179h57c61 0 103 39 109 87c6 52 -30 92 -85 92z" />
    <glyph glyph-name="Q" unicode="Q" horiz-adv-x="725" 
d="M370 -20c-196 0 -321 142 -297 332c23 191 168 327 358 327c196 0 321 -141 298 -332c-8 -61 -28 -116 -57 -163c26 -41 38 -85 33 -123c-2 -18 -33 -31 -62 -31h-17c-28 0 -56 9 -54 28c1 6 0 13 -2 21c-57 -38 -125 -59 -200 -59zM379 109c39 0 73 13 100 37
c-29 18 -63 31 -97 31c-18 0 -29 26 -26 52l1 10c3 27 17 52 39 52c54 0 103 -12 145 -33c4 15 7 32 9 49c14 115 -33 203 -128 203c-93 0 -155 -72 -171 -198c-14 -117 33 -203 128 -203z" />
    <glyph glyph-name="Q.alt" horiz-adv-x="723" 
d="M627 -161c-30 -9 -53 -12 -80 -12c-153 0 -332 91 -357 219h1c-2 9 1 20 8 30c17 22 43 38 60 28c18 -11 42 -15 71 -15c98 0 205 95 219 218c15 120 -36 203 -131 203s-155 -74 -165 -146c-8 -72 16 -122 65 -122c39 0 60 33 64 67c2 14 20 21 43 21c24 0 38 -9 40 -26
c4 -91 -80 -187 -202 -187c-131 0 -200 110 -184 245c18 151 158 277 361 277c201 0 312 -139 289 -330c-22 -172 -168 -289 -344 -310c48 -29 112 -42 163 -42c27 0 48 4 68 8c27 7 42 -17 45 -54c1 -35 -7 -64 -34 -72z" />
    <glyph glyph-name="R" unicode="R" horiz-adv-x="611" 
d="M135 598c2 22 19 27 45 27h212c141 0 237 -88 221 -218c-9 -76 -54 -133 -118 -166c67 -66 97 -146 89 -214c-4 -22 -45 -37 -83 -37h-17c-36 0 -74 11 -72 33c4 31 -15 105 -82 181h-69l-22 -179c-3 -22 -46 -34 -84 -34h-17c-37 0 -76 12 -74 34zM357 504h-59l-22 -179
h57c61 0 103 39 109 87c6 52 -30 92 -85 92z" />
    <glyph glyph-name="R.alt" horiz-adv-x="617" 
d="M585 4c-24 -8 -45 -14 -74 -14c-108 0 -172 58 -203 214h-47l-22 -179c-3 -22 -46 -34 -84 -34h-17c-37 0 -76 12 -74 34l71 573c2 22 19 27 45 27h212c144 0 238 -80 221 -211c-10 -85 -60 -149 -135 -183c21 -61 49 -82 77 -82c8 0 15 1 23 2c24 3 36 -30 38 -66
c3 -34 -9 -72 -31 -81zM357 504h-59l-22 -179h62c56 0 98 39 104 89c6 52 -30 90 -85 90z" />
    <glyph glyph-name="S" unicode="S" horiz-adv-x="564" 
d="M271 -20c-105 0 -185 36 -217 74c-19 16 -15 50 0 81c15 32 47 62 70 48c26 -25 76 -68 149 -68c62 0 104 25 109 65c4 42 -49 51 -141 71c-105 23 -155 92 -144 191c16 122 132 197 287 197c87 0 156 -30 188 -69c19 -18 17 -47 4 -79c-16 -33 -53 -62 -76 -49
c-27 25 -66 61 -131 61c-66 0 -102 -23 -106 -61c-6 -42 59 -49 151 -69c107 -22 154 -94 142 -193c-15 -124 -134 -200 -285 -200z" />
    <glyph glyph-name="T" unicode="T" horiz-adv-x="589" 
d="M97 480c-20 0 -31 34 -27 65l2 14c4 30 19 66 39 66h520c20 0 27 -36 23 -68l-1 -12c-4 -32 -20 -65 -40 -65h-172l-56 -456c-3 -22 -47 -34 -85 -34h-16c-37 0 -76 12 -74 34l56 456h-169z" />
    <glyph glyph-name="U" unicode="U" horiz-adv-x="689" 
d="M349 -20c-161 0 -281 102 -263 247l45 368c2 22 45 35 83 35h16c38 0 77 -17 75 -39l-44 -358c-8 -57 38 -107 101 -107s117 50 124 107l44 358c3 22 46 39 84 39h17c37 0 77 -13 74 -35l-45 -368c-18 -145 -147 -247 -311 -247z" />
    <glyph glyph-name="Uacute" unicode="&#xda;" horiz-adv-x="689" 
d="M462 690c-14 -17 -34 -30 -67 -30h-15c-32 0 -55 11 -43 30l79 122c12 22 52 33 87 33h15c39 0 73 -18 57 -34zM349 -20c-161 0 -281 102 -263 247l45 368c2 22 45 35 83 35h16c38 0 77 -17 75 -39l-44 -358c-8 -57 38 -107 101 -107s117 50 124 107l44 358
c3 22 46 39 84 39h17c37 0 77 -13 74 -35l-45 -368c-18 -145 -147 -247 -311 -247z" />
    <glyph glyph-name="Udieresis" unicode="&#xdc;" horiz-adv-x="689" 
d="M327 662c-52 0 -79 31 -73 76c5 43 39 74 92 74c52 0 79 -31 74 -74c-6 -45 -40 -76 -93 -76zM529 662c-52 0 -79 31 -73 76c5 43 39 74 92 74c52 0 79 -31 74 -74c-6 -45 -40 -76 -93 -76zM349 -20c-161 0 -281 102 -263 247l45 368c2 22 45 35 83 35h16
c38 0 77 -17 75 -39l-44 -358c-8 -57 38 -107 101 -107s117 50 124 107l44 358c3 22 46 39 84 39h17c37 0 77 -13 74 -35l-45 -368c-18 -145 -147 -247 -311 -247z" />
    <glyph glyph-name="V" unicode="V" horiz-adv-x="656" 
d="M442 17c-19 -20 -69 -27 -123 -27c-52 0 -95 8 -108 28c-67 91 -140 422 -121 573c2 22 45 37 82 37h20c36 0 74 -11 72 -33c-11 -82 22 -321 86 -463c96 147 190 382 200 463c3 21 42 33 74 33h19c33 0 71 -15 69 -37c-19 -149 -173 -482 -270 -574z" />
    <glyph glyph-name="W" unicode="W" horiz-adv-x="995" 
d="M834 17c-18 -19 -63 -27 -115 -27c-55 0 -109 9 -112 34l-59 387l-154 -387c-10 -25 -66 -34 -120 -34c-53 0 -96 8 -109 27c-65 103 -90 372 -65 575c3 21 45 37 83 37h19c36 0 74 -11 72 -33c-14 -116 -18 -294 21 -428l165 422c9 24 54 39 119 39c62 0 97 -16 100 -39
l62 -422c73 134 113 312 127 428c3 22 44 33 80 33h20c37 0 75 -16 72 -37c-24 -203 -116 -472 -206 -575z" />
    <glyph glyph-name="X" unicode="X" horiz-adv-x="664" 
d="M213 24c-2 -22 -44 -33 -84 -33h-16c-43 0 -82 16 -79 37c12 95 88 193 212 282c-91 89 -145 186 -133 280c3 22 45 38 88 38h17c40 0 78 -12 76 -33c-5 -42 12 -99 90 -177c94 73 128 137 133 177c2 21 44 33 84 33h16c43 0 81 -16 79 -38c-12 -92 -86 -182 -204 -268
c97 -92 158 -190 145 -294c-3 -21 -45 -37 -88 -37h-16c-40 0 -78 11 -76 33c6 44 -17 105 -99 186c-99 -78 -140 -144 -145 -186z" />
    <glyph glyph-name="Y" unicode="Y" horiz-adv-x="625" 
d="M401 24c-2 -22 -46 -34 -84 -34h-16c-37 0 -76 12 -74 34l23 183c-112 107 -171 283 -159 382c3 22 42 38 85 38h17c40 0 75 -11 73 -33c-5 -40 17 -142 90 -239c98 97 145 199 150 239c2 22 41 33 81 33h17c43 0 77 -16 75 -38c-12 -100 -116 -279 -255 -385z" />
    <glyph glyph-name="Z" unicode="Z" horiz-adv-x="608" 
d="M631 545c-22 -181 -294 -283 -389 -405h321c20 0 27 -36 23 -68l-2 -12c-3 -32 -19 -65 -39 -65h-480c-19 0 -31 34 -27 65l1 14c24 186 297 288 390 406h-292c-20 0 -30 34 -27 65l2 14c4 30 19 66 40 66h457c20 0 28 -36 24 -68z" />
    <glyph glyph-name="a" unicode="a" horiz-adv-x="619" 
d="M570 23c-2 -22 -44 -33 -81 -33h-16c-35 0 -73 11 -71 33l4 35c-40 -45 -96 -71 -158 -71c-120 0 -211 96 -192 248c18 154 128 246 251 246c61 0 113 -23 143 -67l4 32c3 21 44 33 80 33h16c37 0 74 -12 72 -33zM343 375c-66 0 -116 -55 -127 -140
c-10 -85 28 -138 90 -138c59 0 108 46 119 114l6 48c9 70 -31 116 -88 116z" />
    <glyph glyph-name="a.alt" horiz-adv-x="647" 
d="M525 -10c-67 0 -103 32 -111 80c-42 -53 -104 -83 -173 -83c-117 0 -204 96 -185 248c18 154 128 246 251 246c61 0 113 -23 143 -67l4 32c3 22 44 33 80 33h16c37 0 74 -11 72 -33l-36 -297c-5 -32 10 -43 43 -43c18 0 27 -18 23 -46c-4 -36 -43 -70 -109 -70h-18z
M343 375c-66 0 -116 -55 -127 -140c-10 -85 28 -138 90 -138c61 0 111 49 120 120l5 42c9 70 -31 116 -88 116z" />
    <glyph glyph-name="aacute" unicode="&#xe1;" horiz-adv-x="619" 
d="M431 548c-13 -16 -34 -30 -68 -30h-15c-31 0 -53 11 -42 30l76 135c13 22 52 33 88 33h14c38 0 73 -17 59 -33zM570 23c-2 -22 -44 -33 -81 -33h-16c-35 0 -73 11 -71 33l4 35c-40 -45 -96 -71 -158 -71c-120 0 -211 96 -192 248c18 154 128 246 251 246
c61 0 113 -23 143 -67l4 32c3 21 44 33 80 33h16c37 0 74 -12 72 -33zM343 375c-66 0 -116 -55 -127 -140c-10 -85 28 -138 90 -138c59 0 108 46 119 114l6 48c9 70 -31 116 -88 116z" />
    <glyph glyph-name="aacute.alt" horiz-adv-x="647" 
d="M424 548c-13 -16 -34 -30 -68 -30h-15c-31 0 -53 11 -42 30l76 135c13 22 52 33 88 33h14c38 0 73 -17 59 -33zM525 -10c-67 0 -103 32 -111 80c-42 -53 -104 -83 -173 -83c-117 0 -204 96 -185 248c18 154 128 246 251 246c61 0 113 -23 143 -67l4 32c3 22 44 33 80 33
h16c37 0 74 -11 72 -33l-36 -297c-5 -32 10 -43 43 -43c18 0 27 -18 23 -46c-4 -36 -43 -70 -109 -70h-18zM343 375c-66 0 -116 -55 -127 -140c-10 -85 28 -138 90 -138c61 0 111 49 120 120l5 42c9 70 -31 116 -88 116z" />
    <glyph glyph-name="acute" unicode="&#xb4;" 
d="M331 548c-13 -16 -34 -30 -68 -30h-15c-31 0 -53 11 -42 30l76 135c13 22 52 33 88 33h14c38 0 73 -17 59 -33z" />
    <glyph glyph-name="acute.cap" 
d="M348 690c-14 -17 -34 -30 -67 -30h-15c-32 0 -55 11 -43 30l79 122c12 22 52 33 87 33h15c39 0 73 -18 57 -34z" />
    <glyph glyph-name="ampersand" unicode="&#x26;" horiz-adv-x="675" 
d="M573 -8c-23 20 -45 39 -65 57c-67 -46 -147 -68 -225 -68c-165 0 -258 76 -244 189c8 71 52 128 129 159c-39 42 -46 81 -40 124c14 112 127 187 278 187c84 0 152 -30 184 -70c17 -17 16 -47 2 -78c-14 -34 -51 -62 -73 -49c-27 25 -68 61 -133 61
c-56 0 -94 -23 -98 -57c-4 -29 7 -48 81 -95c43 -26 86 -57 142 -101c12 29 22 61 26 97c4 25 40 37 77 37c35 -1 68 -13 64 -38c-9 -73 -31 -134 -61 -184c16 -14 33 -30 52 -46c20 -16 13 -55 -11 -89c-25 -32 -64 -53 -85 -36zM200 191c-5 -46 41 -85 111 -85
c33 0 67 10 99 28c-62 52 -110 90 -159 126c-31 -18 -48 -44 -51 -69z" />
    <glyph glyph-name="asciitilde" unicode="~" horiz-adv-x="572" 
d="M411 189c-97 0 -120 63 -184 63c-43 0 -68 -25 -91 -64c-10 -17 -42 -23 -70 -6c-28 15 -38 38 -32 57c34 81 103 148 197 148c97 0 120 -62 184 -62c44 0 67 24 91 64c10 16 42 22 71 5c27 -16 37 -38 31 -56c-33 -82 -103 -149 -197 -149z" />
    <glyph glyph-name="asterisk" unicode="*" horiz-adv-x="407" 
d="M191 284c-10 -14 -39 -3 -60 13l-9 6c-21 18 -33 42 -21 55l60 59l-75 20c-16 4 -11 36 0 62l5 11c13 28 33 51 48 43l73 -35l2 88c1 16 34 26 61 26h12c29 0 53 -11 50 -27l-19 -89l85 37c17 8 32 -15 37 -43l2 -11c5 -26 3 -58 -14 -62l-80 -20l45 -59
c9 -13 -8 -38 -35 -54l-10 -7c-24 -14 -56 -27 -63 -13l-37 80z" />
    <glyph glyph-name="at" unicode="@" horiz-adv-x="886" 
d="M400 77c-88 0 -155 71 -140 189c15 120 105 185 193 185c48 0 90 -17 114 -51l3 24c3 17 32 26 60 26h13c28 0 57 -9 54 -26l-25 -208c-3 -27 9 -37 31 -37c25 0 52 34 62 112c19 154 -76 233 -255 233c-178 0 -301 -100 -320 -258c-21 -165 93 -262 233 -262
c56 0 104 9 156 29c21 7 36 -13 43 -39c6 -28 -3 -53 -26 -63c-55 -28 -116 -41 -187 -41c-207 0 -372 136 -343 373c28 224 220 376 458 376c244 0 389 -138 364 -348c-20 -160 -138 -214 -225 -214c-66 0 -111 26 -122 66c-34 -43 -86 -66 -141 -66zM384 264
c-8 -67 24 -104 70 -104c41 0 83 31 94 83l6 49c2 49 -32 78 -72 78c-47 0 -90 -38 -98 -106z" />
    <glyph glyph-name="b" unicode="b" horiz-adv-x="619" 
d="M224 37c-4 -29 -46 -47 -83 -47h-16c-35 0 -73 11 -70 32l74 606c2 22 44 33 80 33h16c37 0 74 -11 72 -33l-27 -221c41 47 100 74 165 74c118 0 204 -95 186 -248c-19 -153 -128 -246 -251 -246c-62 0 -114 23 -144 68zM333 94c67 0 116 55 127 140
c10 85 -28 138 -90 138c-57 0 -105 -44 -118 -109l-8 -62c-4 -65 35 -107 89 -107z" />
    <glyph glyph-name="backslash" unicode="\" horiz-adv-x="418" 
d="M193 595l257 -563c9 -22 -14 -42 -51 -42h-16c-38 0 -70 7 -82 35l-257 562c-10 22 13 43 51 43h16c38 0 69 -7 82 -35z" />
    <glyph glyph-name="bar" unicode="|" horiz-adv-x="277" 
d="M134 592c3 21 40 36 75 36h15c34 0 67 -11 65 -32l-85 -694c-3 -20 -40 -31 -75 -31h-15c-34 0 -67 11 -65 31z" />
    <glyph glyph-name="braceleft" unicode="{" horiz-adv-x="321" 
d="M256 -124c-19 -28 -45 -52 -65 -47c-68 18 -119 67 -110 142c9 73 25 102 32 151c3 29 -8 52 -36 58c-29 4 -15 118 15 122c29 6 46 28 50 58c6 48 -4 77 5 150c10 75 72 124 145 142c21 5 41 -18 54 -47c13 -32 14 -68 -3 -75c-36 -16 -55 -32 -59 -65
c-5 -41 -2 -76 -9 -136c-4 -35 -36 -67 -74 -88c33 -21 56 -53 52 -88c-7 -60 -19 -95 -24 -137c-4 -32 11 -49 43 -65c15 -7 5 -43 -16 -75z" />
    <glyph glyph-name="braceright" unicode="}" horiz-adv-x="320" 
d="M87 -171c-21 -5 -41 18 -54 47c-13 32 -14 68 3 75c36 16 55 32 59 65c5 41 2 76 9 136c4 35 36 67 74 88c-33 21 -56 53 -52 88c7 60 19 95 24 137c4 32 -11 49 -43 65c-15 7 -5 43 16 75c19 28 45 52 65 47c68 -18 119 -67 110 -142c-9 -73 -25 -102 -32 -151
c-3 -29 8 -52 36 -58c29 -4 15 -118 -15 -122c-29 -6 -46 -28 -50 -58c-6 -48 4 -77 -5 -150c-10 -75 -72 -124 -145 -142z" />
    <glyph glyph-name="bracketleft" unicode="[" horiz-adv-x="307" 
d="M43 -137l93 750c2 22 18 33 38 33h170c21 0 27 -33 24 -61l-1 -13c-4 -30 -23 -62 -43 -62h-60l-68 -545h61c20 0 31 -32 27 -61l-1 -13c-3 -28 -18 -61 -39 -61h-170c-20 0 -33 11 -31 33z" />
    <glyph glyph-name="bracketright" unicode="]" horiz-adv-x="306" 
d="M322 613l-93 -750c-2 -22 -18 -33 -38 -33h-170c-21 0 -27 33 -24 61l1 13c4 30 23 62 43 62h60l68 545h-61c-20 0 -31 32 -27 61l1 13c3 28 18 61 39 61h170c20 0 33 -11 31 -33z" />
    <glyph glyph-name="brokenbar" unicode="&#xa6;" horiz-adv-x="277" 
d="M134 592c3 21 40 36 75 36h15c34 0 67 -11 65 -32l-32 -259c-2 -21 -40 -32 -75 -32h-15c-34 0 -67 11 -64 32zM81 158c2 21 39 36 75 36h14c35 0 68 -12 66 -32l-32 -260c-3 -20 -40 -31 -75 -31h-15c-34 0 -67 11 -65 31z" />
    <glyph glyph-name="c" unicode="c" horiz-adv-x="513" 
d="M294 -20c-162 0 -256 115 -239 253c17 140 131 256 300 256c77 0 129 -24 159 -55c19 -17 22 -51 3 -77c-17 -26 -43 -45 -63 -33c-26 24 -56 43 -99 43c-68 0 -130 -49 -139 -132c-11 -82 44 -134 108 -134c52 0 83 19 120 49c21 12 46 -5 56 -32c10 -29 -2 -60 -24 -76
c-44 -40 -104 -62 -182 -62z" />
    <glyph glyph-name="cent" unicode="&#xa2;" horiz-adv-x="513" 
d="M353 -116c-2 -22 -44 -34 -79 -34h-15c-38 0 -71 14 -67 34l21 107c-111 31 -172 129 -158 242c14 116 94 215 217 246l6 106c2 22 43 33 79 33h14c39 0 72 -13 68 -34l-20 -101c43 -9 74 -28 95 -49c19 -17 22 -51 3 -77c-17 -26 -43 -45 -63 -33c-26 24 -56 43 -99 43
c-68 0 -130 -49 -139 -132c-11 -82 44 -134 108 -134c52 0 83 19 120 49c21 12 46 -5 56 -32c10 -29 -2 -60 -24 -76c-31 -28 -70 -47 -118 -56z" />
    <glyph glyph-name="colon" unicode=":" horiz-adv-x="228" 
d="M143 236c-57 0 -87 34 -81 84c6 48 44 82 102 82s88 -34 82 -82c-7 -50 -44 -84 -103 -84zM112 -10c-57 0 -87 34 -81 84c6 48 44 82 102 82s88 -34 82 -82c-7 -50 -44 -84 -103 -84z" />
    <glyph glyph-name="comma" unicode="," horiz-adv-x="228" 
d="M135 -98c-8 -20 -28 -30 -62 -30h-14c-32 0 -54 10 -50 30l44 221c4 22 44 33 80 33h14c38 0 74 -14 67 -34z" />
    <glyph glyph-name="copyright" unicode="&#xa9;" horiz-adv-x="719" 
d="M357 -19c-180 0 -311 148 -288 329c22 180 189 329 369 329s311 -149 289 -329c-23 -181 -189 -329 -370 -329zM367 61c137 0 262 112 279 249s-81 249 -218 249s-262 -112 -279 -249c-18 -137 81 -249 218 -249zM558 426c2 -15 -11 -32 -34 -43c-22 -12 -42 -9 -47 1
c-12 20 -32 32 -60 32c-48 0 -86 -39 -94 -105c-7 -59 24 -104 69 -104c32 0 59 16 75 43c7 11 26 14 49 4c21 -10 30 -25 25 -38c-23 -55 -88 -93 -164 -93c-108 0 -177 79 -163 189c13 110 95 189 212 189c66 0 122 -31 132 -75z" />
    <glyph glyph-name="currency" unicode="&#xa4;" horiz-adv-x="655" 
d="M328 0c-54 0 -102 15 -141 41l-62 -55c-17 -14 -46 1 -64 22l-8 9c-18 21 -26 54 -10 68l60 54c-19 41 -27 90 -21 142c6 53 27 102 58 144l-48 54c-13 15 6 46 30 67l10 9c23 21 55 35 67 21l49 -55c45 25 96 40 148 40c53 0 100 -15 140 -40l61 55c15 14 44 0 63 -21
l7 -9c19 -21 30 -52 15 -67l-61 -55c20 -42 28 -91 22 -143s-27 -101 -57 -143l46 -53c13 -14 -3 -47 -26 -68l-11 -9c-23 -21 -56 -36 -68 -22l-49 55c-45 -26 -97 -41 -150 -41zM343 126c86 0 165 70 175 155c11 86 -51 156 -137 156c-85 0 -163 -70 -174 -156
c-10 -85 51 -155 136 -155z" />
    <glyph glyph-name="d" unicode="d" horiz-adv-x="619" 
d="M570 22c-2 -21 -44 -32 -81 -32h-16c-36 0 -73 11 -71 32l5 37c-40 -46 -96 -72 -159 -72c-120 0 -211 96 -192 248c18 154 128 246 251 246c62 0 113 -23 143 -68l27 215c2 22 44 33 80 33h16c36 0 74 -12 71 -33zM343 375c-66 0 -116 -55 -127 -140
c-10 -85 28 -138 90 -138c61 0 111 49 120 120l5 42c9 70 -31 116 -88 116z" />
    <glyph glyph-name="d.alt" horiz-adv-x="647" 
d="M544 -10h-19c-67 0 -103 32 -111 80c-42 -53 -104 -83 -173 -83c-117 0 -204 96 -185 248c18 154 128 246 251 246c62 0 113 -23 144 -68l26 215c2 22 44 33 80 33h16c37 0 74 -11 72 -33l-59 -479c-5 -32 10 -43 43 -43c18 0 27 -18 23 -46c-3 -36 -43 -70 -108 -70z
M343 375c-66 0 -116 -55 -127 -140c-10 -85 28 -138 90 -138c61 0 111 49 120 120l6 42h-1c9 70 -31 116 -88 116z" />
    <glyph glyph-name="dieresis" unicode="&#xa8;" 
d="M214 533c-52 0 -78 31 -73 76c5 43 39 74 92 74c52 0 79 -31 74 -74c-6 -45 -40 -76 -93 -76zM416 533c-52 0 -78 31 -73 76c5 43 39 74 92 74c52 0 79 -31 74 -74c-6 -45 -40 -76 -93 -76z" />
    <glyph glyph-name="dieresis.cap" 
d="M230 662c-52 0 -79 31 -73 76c5 43 39 74 92 74c52 0 79 -31 74 -74c-6 -45 -40 -76 -93 -76zM432 662c-52 0 -79 31 -73 76c5 43 39 74 92 74c52 0 79 -31 74 -74c-6 -45 -40 -76 -93 -76z" />
    <glyph glyph-name="divide" unicode="&#xf7;" 
d="M296 364c-50 0 -77 30 -72 74c6 43 39 73 91 73c51 0 78 -30 72 -73c-6 -44 -39 -74 -91 -74zM86 192c-20 0 -31 31 -28 61l2 13c4 28 18 62 39 62h382c20 0 28 -34 24 -63l-2 -13c-4 -29 -19 -60 -39 -60h-378zM254 15c-50 0 -77 30 -72 74c6 43 39 73 91 73
c51 0 78 -30 72 -73c-6 -44 -39 -74 -91 -74z" />
    <glyph glyph-name="dollar" unicode="$" horiz-adv-x="564" 
d="M351 -108c-1 -21 -44 -33 -79 -33h-14c-39 0 -71 14 -68 34l18 91c-74 11 -129 40 -154 70c-19 16 -15 50 0 81c15 32 47 62 70 48c26 -25 76 -68 149 -68c62 0 104 25 109 65c4 42 -49 51 -141 71c-105 23 -155 92 -144 191c13 96 87 163 194 187l5 99c1 22 44 33 79 33
h14c39 0 71 -13 67 -34l-17 -92c61 -10 108 -35 133 -65c19 -18 17 -47 4 -79c-16 -33 -53 -62 -76 -49c-27 25 -66 61 -131 61c-66 0 -102 -23 -106 -61c-6 -42 59 -49 151 -69c107 -22 154 -94 142 -193s-91 -168 -200 -191z" />
    <glyph glyph-name="e" unicode="e" horiz-adv-x="550" 
d="M299 -20c-179 0 -260 123 -243 258c16 137 119 251 283 251c145 0 229 -90 208 -235c-2 -18 -6 -37 -11 -56h-328c4 -61 40 -101 124 -101c53 0 101 20 138 49c19 10 39 -11 46 -36c6 -25 1 -53 -19 -67c-47 -40 -111 -63 -198 -63zM329 382c-57 0 -94 -40 -112 -100h193
c-1 60 -28 100 -81 100z" />
    <glyph glyph-name="e.alt" horiz-adv-x="539" 
d="M303 -20c-184 0 -264 124 -247 260c17 142 126 249 288 249c147 0 213 -75 203 -162c-11 -83 -83 -143 -227 -143c-39 0 -77 6 -112 15c5 -61 42 -103 128 -103c52 0 98 16 135 38c21 11 41 -13 47 -37c4 -24 -2 -49 -23 -63c-46 -32 -104 -54 -192 -54zM331 382
c-60 0 -98 -39 -115 -100c32 -7 64 -10 92 -10c53 0 95 20 98 52c4 29 -20 58 -75 58z" />
    <glyph glyph-name="eacute" unicode="&#xe9;" horiz-adv-x="550" 
d="M383 548c-13 -16 -34 -30 -68 -30h-15c-31 0 -53 11 -42 30l76 135c13 22 52 33 88 33h14c38 0 73 -17 59 -33zM299 -20c-179 0 -260 123 -243 258c16 137 119 251 283 251c145 0 229 -90 208 -235c-2 -18 -6 -37 -11 -56h-328c4 -61 40 -101 124 -101
c53 0 101 20 138 49c19 10 39 -11 46 -36c6 -25 1 -53 -19 -67c-47 -40 -111 -63 -198 -63zM329 382c-57 0 -94 -40 -112 -100h193c-1 60 -28 100 -81 100z" />
    <glyph glyph-name="eacute.alt" horiz-adv-x="539" 
d="M385 548c-13 -16 -34 -30 -68 -30h-15c-31 0 -53 11 -42 30l76 135c13 22 52 33 88 33h14c38 0 73 -17 59 -33zM303 -20c-184 0 -264 124 -247 260c17 142 126 249 288 249c147 0 213 -75 203 -162c-11 -83 -83 -143 -227 -143c-39 0 -77 6 -112 15
c5 -61 42 -103 128 -103c52 0 98 16 135 38c21 11 41 -13 47 -37c4 -24 -2 -49 -23 -63c-46 -32 -104 -54 -192 -54zM331 382c-60 0 -98 -39 -115 -100c32 -7 64 -10 92 -10c53 0 95 20 98 52c4 29 -20 58 -75 58z" />
    <glyph glyph-name="eight" unicode="8" horiz-adv-x="588" 
d="M582 166c-13 -110 -131 -186 -292 -186c-167 0 -255 91 -242 200c8 66 49 118 117 150c-51 32 -71 82 -64 140c12 101 116 169 267 169c158 0 245 -81 232 -182c-7 -57 -42 -99 -101 -128c63 -35 92 -95 83 -163zM340 371c62 0 97 36 102 77c5 44 -23 80 -83 80
c-63 0 -97 -38 -102 -78c-6 -45 23 -79 83 -79zM307 97c66 0 108 42 114 90c6 52 -28 93 -93 93c-66 0 -109 -44 -114 -91c-7 -53 28 -92 93 -92z" />
    <glyph glyph-name="eight.dnom" horiz-adv-x="316" 
d="M313 89c-6 -56 -68 -99 -160 -99c-87 0 -136 41 -129 97c4 33 25 60 60 78c-26 14 -36 37 -33 66c6 52 59 90 147 90c87 0 131 -36 124 -88c-3 -28 -21 -51 -51 -67c32 -16 47 -44 42 -77zM182 188c29 0 47 17 49 36c3 20 -12 36 -41 36c-31 0 -47 -18 -50 -36
c-2 -21 12 -36 42 -36zM166 56c31 0 53 18 56 40c2 25 -16 42 -47 42c-32 0 -54 -21 -55 -42c-4 -24 14 -40 46 -40z" />
    <glyph glyph-name="eight.numr" horiz-adv-x="316" 
d="M342 406c-6 -56 -68 -99 -160 -99c-87 0 -136 41 -129 97c4 33 25 60 60 78c-26 14 -36 37 -33 66c6 52 59 90 147 90c87 0 131 -36 124 -88c-3 -28 -21 -51 -51 -67c32 -16 47 -44 42 -77zM211 505c29 0 47 17 49 36c3 20 -12 36 -41 36c-31 0 -47 -18 -50 -36
c-2 -21 12 -36 42 -36zM195 373c31 0 53 18 56 40c2 25 -16 42 -47 42c-32 0 -54 -21 -55 -42c-4 -24 14 -40 46 -40z" />
    <glyph glyph-name="equal" unicode="=" 
d="M97 287c-20 0 -31 31 -28 61l2 13c4 28 18 62 39 62h382c20 0 28 -34 24 -63l-2 -13c-4 -29 -19 -60 -39 -60h-378zM75 96c-20 0 -31 31 -28 61l2 13c4 28 18 62 39 62h382c20 0 28 -34 24 -63l-2 -13c-4 -29 -19 -60 -39 -60h-378z" />
    <glyph glyph-name="exclam" unicode="!" horiz-adv-x="293" 
d="M125 590c1 22 46 38 91 38h16c45 0 86 -12 82 -35l-62 -370c-5 -22 -37 -34 -76 -34h-16c-37 0 -65 12 -64 34zM144 -10c-57 0 -87 32 -81 79c6 45 44 78 102 78s88 -33 82 -78c-7 -47 -44 -79 -103 -79z" />
    <glyph glyph-name="exclamdown" unicode="&#xa1;" horiz-adv-x="292" 
d="M208 488c57 0 87 -32 81 -79c-6 -45 -44 -78 -102 -78s-88 33 -82 78c7 47 44 79 103 79zM227 -112c-1 -22 -46 -38 -91 -38h-16c-45 0 -86 12 -82 35l62 370c5 22 37 34 76 34h16c37 0 65 -12 64 -34z" />
    <glyph glyph-name="f" unicode="f" horiz-adv-x="348" 
d="M78 333c-20 0 -31 32 -27 61l1 14c4 28 18 61 39 61h37l4 32c14 112 108 169 215 169c39 0 69 -6 90 -15c22 -9 33 -34 22 -68c-11 -33 -33 -47 -53 -42c-12 3 -25 8 -45 8c-33 0 -57 -24 -62 -57l-3 -27h79c20 0 28 -33 24 -63l-2 -12c-3 -30 -18 -61 -38 -61h-80
l-37 -311c-3 -21 -44 -32 -80 -32h-16c-37 0 -74 11 -72 32l38 311h-34z" />
    <glyph glyph-name="f.alt" horiz-adv-x="352" 
d="M236 -23c-14 -111 -104 -167 -211 -167c-36 0 -64 5 -85 14s-32 34 -22 67c11 33 34 47 53 43c13 -3 23 -7 40 -7c32 0 54 23 58 55l43 351h-34c-20 0 -31 32 -27 61l1 14c4 28 18 61 39 61h37l4 32c14 112 108 169 215 169c39 0 69 -6 90 -15c22 -9 33 -34 22 -68
c-11 -33 -33 -47 -53 -42c-12 3 -25 8 -45 8c-33 0 -57 -24 -62 -57l-3 -27h79c20 0 28 -33 24 -63l-2 -12c-3 -30 -18 -61 -38 -61h-80z" />
    <glyph glyph-name="f_t" horiz-adv-x="649" 
d="M78 333c-20 0 -31 32 -27 61l1 14c4 28 18 61 39 61h38l5 39c13 112 107 169 214 169c39 0 69 -5 90 -14c22 -9 32 -33 22 -66s-33 -47 -53 -43c-12 3 -26 6 -46 6c-32 0 -56 -23 -60 -57l-4 -34h162l7 56c3 22 44 36 80 36h16c37 0 75 -11 72 -33l-7 -59h51
c20 0 27 -33 23 -63l-1 -12c-4 -30 -19 -61 -39 -61h-51l-38 -311c-2 -21 -44 -32 -81 -32h-16c-35 0 -73 11 -70 32l38 311h-163l-38 -311c-3 -21 -44 -32 -80 -32h-16c-37 0 -74 11 -72 32l38 311h-34z" />
    <glyph glyph-name="five" unicode="5" horiz-adv-x="535" 
d="M238 -20c-83 0 -155 24 -188 61c-18 18 -16 47 -2 77c14 33 48 57 71 45c28 -24 67 -50 128 -50c67 0 119 40 126 96s-40 94 -109 94c-46 0 -83 -16 -115 -39c-19 -11 -41 -5 -55 6c-14 12 -21 28 -16 51l60 277c5 22 19 27 45 27h355c20 0 27 -32 24 -60l-1 -11
c-4 -28 -19 -58 -39 -58h-265l-20 -95c29 7 64 11 105 11c118 0 210 -84 194 -214c-16 -131 -139 -218 -298 -218z" />
    <glyph glyph-name="five.dnom" horiz-adv-x="286" 
d="M127 -10c-44 0 -83 11 -101 29c-11 9 -9 26 -2 42c8 18 27 32 41 26c15 -10 35 -23 67 -23c33 0 59 18 61 42c4 26 -20 41 -55 41c-23 0 -41 -7 -59 -17c-11 -6 -22 -3 -30 3c-9 7 -13 15 -10 28l31 139c3 12 11 14 25 14h190c12 0 16 -17 14 -33v-6
c-2 -16 -11 -32 -22 -32h-139l-9 -40c15 3 33 5 54 5c67 0 112 -37 104 -104c-7 -67 -71 -114 -160 -114z" />
    <glyph glyph-name="five.numr" horiz-adv-x="289" 
d="M156 307c-44 0 -83 11 -101 29c-11 9 -9 26 -2 42c8 18 27 32 41 26c15 -10 35 -23 67 -23c33 0 59 18 61 42c4 26 -20 41 -55 41c-23 0 -41 -7 -59 -17c-11 -6 -22 -3 -30 3c-9 7 -13 15 -10 28l31 139c3 12 11 14 25 14h190c12 0 16 -17 14 -33v-6
c-2 -16 -11 -32 -22 -32h-139l-9 -40c15 3 33 5 54 5c67 0 112 -37 104 -104c-7 -67 -71 -114 -160 -114z" />
    <glyph glyph-name="four" unicode="4" horiz-adv-x="586" 
d="M491 24c-3 -22 -39 -34 -77 -34h-16c-38 0 -69 12 -67 34l8 65h-286c-21 0 -36 28 -32 62l1 13c4 26 11 48 22 70c61 129 175 265 289 356c27 25 69 41 109 41h60c37 0 62 -12 59 -35l-46 -379h66c20 0 28 -32 24 -60l-1 -11c-4 -28 -19 -57 -39 -57h-66zM171 217h184
l34 278c-80 -61 -174 -178 -218 -278z" />
    <glyph glyph-name="four.dnom" horiz-adv-x="315" 
d="M266 14c-1 -12 -22 -19 -44 -19h-9c-21 0 -40 7 -39 19l4 28h-150c-11 0 -19 16 -17 34l1 7c1 15 5 27 11 40c32 60 89 124 147 171c15 14 40 24 63 24h34c21 0 36 -7 35 -20l-23 -185h32c12 0 16 -17 14 -32l-1 -7c-1 -15 -11 -32 -22 -32h-32zM96 113h91l16 130
c-39 -29 -84 -84 -107 -130z" />
    <glyph glyph-name="four.numr" horiz-adv-x="315" 
d="M295 331c-1 -12 -22 -19 -44 -19h-9c-21 0 -40 7 -39 19l4 28h-150c-11 0 -19 16 -17 34l1 7c1 15 5 27 11 40c32 60 89 124 147 171c15 14 40 24 63 24h34c21 0 36 -7 35 -20l-23 -185h32c12 0 16 -17 14 -32l-1 -7c-1 -15 -11 -32 -22 -32h-32zM125 430h91l16 130
c-39 -29 -84 -84 -107 -130z" />
    <glyph glyph-name="fraction" unicode="&#x2044;" horiz-adv-x="152" 
d="M264 595c21 26 41 35 80 35h16c37 0 54 -22 38 -43l-435 -562c-20 -26 -41 -35 -79 -35h-16c-37 0 -55 21 -38 42z" />
    <glyph glyph-name="g" unicode="g" horiz-adv-x="619" 
d="M404 38l4 32c-42 -47 -101 -74 -167 -74c-117 0 -204 94 -185 244c18 150 128 241 251 241c61 0 113 -23 143 -66l4 31c3 21 44 33 80 33h16c37 0 74 -12 72 -33l-50 -407c-16 -135 -154 -229 -321 -229c-64 0 -118 11 -159 33c-20 10 -34 34 -23 67c10 33 33 50 53 42
c27 -13 66 -25 121 -25c81 0 152 41 161 111zM343 377c-66 0 -116 -54 -127 -138c-10 -84 28 -136 90 -136c61 0 111 49 120 119h1l5 41h-1c9 69 -31 114 -88 114z" />
    <glyph glyph-name="g.alt" horiz-adv-x="588" 
d="M288 8c-152 0 -248 102 -231 241s127 240 297 240c39 0 75 -7 107 -19c14 27 41 61 58 84c15 21 44 23 76 4l10 -7c31 -18 47 -38 29 -60c-16 -21 -59 -60 -88 -81c36 -42 54 -97 46 -161c-9 -78 -50 -144 -114 -187c49 -15 81 -50 74 -108c-9 -73 -107 -144 -298 -144
c-91 0 -152 14 -191 36c-22 10 -38 37 -27 70c12 33 35 50 57 42c28 -13 74 -31 151 -31c91 0 146 23 150 56c3 17 -6 28 -21 34c-27 -6 -55 -9 -85 -9zM308 119c67 0 113 46 124 131c9 77 -29 131 -92 131c-66 0 -112 -48 -123 -132c-9 -77 29 -130 91 -130z" />
    <glyph glyph-name="greater" unicode="&#x3e;" 
d="M119 466c17 26 46 48 62 39l304 -184c13 -9 17 -39 14 -62s-13 -53 -30 -61l-348 -184c-19 -10 -42 13 -53 38l-5 11c-12 26 -14 60 4 69l254 127l-223 128c-16 8 -6 42 13 68z" />
    <glyph glyph-name="guillemetleft" unicode="&#xab;" horiz-adv-x="416" 
d="M59 321l87 130c13 22 39 28 71 28h14c31 0 48 -17 38 -33l-96 -148l58 -149c7 -16 -14 -32 -45 -32h-14c-32 0 -56 5 -65 27l-54 129c-6 15 -4 32 6 48zM238 321l87 130c13 22 39 28 71 28h13c31 0 49 -17 39 -33l-96 -148l58 -149c7 -16 -15 -32 -46 -32h-13
c-32 0 -57 5 -65 27l-54 129c-6 15 -4 32 6 48z" />
    <glyph glyph-name="guillemetright" unicode="&#xbb;" horiz-adv-x="412" 
d="M406 274l-87 -130c-13 -22 -39 -28 -71 -28h-14c-31 0 -48 17 -38 33l96 148l-58 149c-7 16 14 32 45 32h14c32 0 56 -5 65 -27l54 -129c6 -15 4 -32 -6 -48zM227 274l-87 -130c-13 -22 -39 -28 -71 -28h-13c-31 0 -49 17 -39 33l96 148l-58 149c-7 16 15 32 46 32h13
c32 0 57 -5 65 -27l54 -129c6 -15 4 -32 -6 -48z" />
    <glyph glyph-name="h" unicode="h" horiz-adv-x="615" 
d="M222 22c-2 -21 -44 -32 -81 -32h-16c-35 0 -73 11 -70 32l74 606c2 22 44 33 80 33h16c37 0 74 -11 72 -33l-28 -222c42 47 104 75 173 75c109 0 172 -68 160 -170l-36 -289c-2 -21 -44 -32 -81 -32h-16c-35 0 -73 11 -70 32l31 254c7 57 -21 94 -73 94
s-93 -40 -104 -100z" />
    <glyph glyph-name="hyphen" unicode="-" horiz-adv-x="344" 
d="M70 191c-20 0 -30 32 -27 61l1 13c4 28 18 61 39 61h257c20 0 28 -33 24 -62l-1 -13c-4 -29 -19 -60 -39 -60h-254z" />
    <glyph glyph-name="i" unicode="i" horiz-adv-x="271" 
d="M199 524c-57 0 -87 31 -82 76c5 43 44 74 101 74c58 0 88 -31 83 -74c-6 -45 -44 -76 -102 -76zM222 22c-2 -21 -44 -32 -81 -32h-16c-35 0 -73 11 -70 32l51 417c2 22 43 33 79 33h16c37 0 75 -11 72 -33z" />
    <glyph glyph-name="i.alt" horiz-adv-x="299" 
d="M199 524c-57 0 -87 31 -82 76c5 43 44 74 101 74c58 0 88 -31 83 -74c-6 -45 -44 -76 -102 -76zM65 109l41 330c2 22 43 33 79 33h16c37 0 75 -11 72 -33l-35 -290c-5 -32 10 -43 43 -43c18 0 27 -18 23 -46c-3 -36 -43 -70 -108 -70h-19c-84 0 -120 51 -112 119z" />
    <glyph glyph-name="iacute" unicode="&#xed;" horiz-adv-x="271" 
d="M257 548c-13 -16 -34 -30 -68 -30h-15c-31 0 -53 11 -42 30l76 135c13 22 52 33 88 33h14c38 0 73 -17 59 -33zM222 22c-2 -21 -44 -32 -81 -32h-16c-35 0 -73 11 -70 32l51 425c4 21 44 33 80 33h16c37 0 75 -12 72 -33z" />
    <glyph glyph-name="iacute.alt" horiz-adv-x="299" 
d="M257 548c-13 -16 -34 -30 -68 -30h-15c-31 0 -53 11 -42 30l76 135c13 22 52 33 88 33h14c38 0 73 -17 59 -33zM238 149c-5 -32 10 -43 43 -43c18 0 27 -18 23 -46c-3 -36 -43 -70 -108 -70h-19c-84 0 -120 51 -112 119l41 338c4 21 44 33 80 33h16c37 0 75 -12 72 -33z
" />
    <glyph glyph-name="j" unicode="j" horiz-adv-x="271" 
d="M199 524c-57 0 -87 31 -82 76c6 43 44 74 101 74c59 0 88 -31 83 -74c-6 -45 -43 -76 -102 -76zM49 -18l57 457c2 22 43 33 79 33h16c37 0 75 -11 72 -33l-57 -462c-13 -111 -104 -167 -210 -167c-36 0 -64 5 -85 14c-22 9 -33 34 -22 67s33 47 52 43c13 -3 24 -7 41 -7
c32 0 54 23 57 55z" />
    <glyph glyph-name="k" unicode="k" horiz-adv-x="568" 
d="M222 22c-2 -21 -44 -32 -81 -32h-16c-35 0 -73 11 -70 32l74 606c2 22 44 33 80 33h16c37 0 74 -11 72 -33l-40 -321h9c80 0 163 86 170 139c2 21 41 33 73 33h15c33 0 71 -16 68 -37c-6 -53 -59 -132 -149 -194c76 -60 118 -151 110 -221c-3 -22 -44 -37 -82 -37h-17
c-36 0 -73 11 -70 33c6 54 -55 163 -135 163h-7z" />
    <glyph glyph-name="k.alt" horiz-adv-x="586" 
d="M222 22c-2 -21 -44 -32 -81 -32h-16c-35 0 -73 11 -70 32l74 606c2 22 44 33 80 33h16c37 0 74 -11 72 -33l-39 -313h5c88 0 166 78 173 131c2 21 41 33 73 33h15c33 0 71 -16 68 -37c-10 -78 -72 -148 -154 -192c22 -83 54 -112 86 -112c8 0 15 2 22 2
c22 1 34 -28 36 -62c2 -31 -9 -67 -30 -75c-22 -8 -42 -14 -69 -14c-104 0 -164 60 -192 215c-15 -2 -29 -3 -44 -3h-3z" />
    <glyph glyph-name="l" unicode="l" horiz-adv-x="271" 
d="M222 22c-2 -21 -44 -32 -81 -32h-16c-35 0 -73 11 -70 32l74 606c2 22 44 33 80 33h16c37 0 74 -11 72 -33z" />
    <glyph glyph-name="l.alt" horiz-adv-x="304" 
d="M196 -10h-19c-84 0 -120 51 -112 119l64 519c2 22 44 33 80 33h16c37 0 74 -11 72 -33l-59 -479c-5 -32 10 -43 43 -43c18 0 27 -18 23 -46c-3 -36 -43 -70 -108 -70z" />
    <glyph glyph-name="less" unicode="&#x3c;" 
d="M445 52c-17 -26 -46 -48 -62 -39l-304 184c-13 9 -17 39 -14 62s13 53 30 61l348 184c19 10 42 -13 53 -38l5 -11c12 -26 14 -60 -4 -69l-254 -127l223 -128c16 -8 6 -42 -13 -68z" />
    <glyph glyph-name="litre" unicode="&#x2113;" horiz-adv-x="394" 
d="M115 408c21 166 105 244 200 244c94 0 133 -64 121 -159c-9 -74 -59 -162 -171 -230l-12 -98c-4 -29 11 -44 42 -45h7c22 0 36 -16 31 -56c-5 -41 -43 -74 -109 -74h-14c-85 0 -139 55 -130 134l8 67c-7 -2 -15 -4 -23 -6c-17 -3 -30 13 -32 35c-3 23 3 44 18 49
c17 5 33 9 49 14zM287 438l-8 -64c46 40 63 81 67 118c5 40 -1 58 -15 58c-17 0 -33 -22 -44 -112z" />
    <glyph glyph-name="m" unicode="m" horiz-adv-x="940" 
d="M222 22c-2 -21 -44 -32 -81 -32h-16c-35 0 -73 11 -70 32l51 424c3 22 44 33 80 33h16c37 0 74 -11 72 -33l-5 -40c41 47 101 75 168 75c77 0 131 -37 150 -97c40 60 108 97 184 97c105 0 168 -68 155 -170l-35 -289c-3 -21 -44 -32 -82 -32h-16c-35 0 -72 11 -70 32
l31 254c7 57 -20 94 -68 94c-50 0 -93 -45 -100 -111l-30 -237c-2 -21 -44 -32 -81 -32h-16c-35 0 -73 11 -70 32l31 254c7 57 -21 94 -68 94c-50 0 -93 -45 -100 -107z" />
    <glyph glyph-name="minus" unicode="&#x2212;" 
d="M86 192c-20 0 -31 31 -28 61l2 13c4 28 18 62 39 62h382c20 0 28 -34 24 -63l-2 -13c-4 -29 -19 -60 -39 -60h-378z" />
    <glyph glyph-name="multiply" unicode="&#xd7;" 
d="M173 77c-16 -15 -47 -3 -65 18l-9 10c-17 19 -29 50 -13 66l100 89l-77 88c-13 15 6 46 30 67l10 9c24 21 55 35 67 21l78 -89l100 89c16 14 46 -2 64 -23l9 -9c17 -20 27 -50 12 -65l-100 -89l76 -86c12 -15 -4 -48 -27 -68l-10 -10c-23 -19 -56 -36 -68 -21l-79 90z
" />
    <glyph glyph-name="n" unicode="n" horiz-adv-x="615" 
d="M222 22c-2 -21 -44 -32 -81 -32h-16c-35 0 -73 11 -70 32l51 424c3 22 44 33 80 33h16c37 0 74 -11 72 -33l-5 -41c42 48 103 76 173 76c109 0 172 -68 160 -170l-36 -289c-2 -21 -44 -32 -81 -32h-16c-35 0 -73 11 -70 32l31 254c7 57 -21 94 -73 94
c-54 0 -96 -43 -105 -106z" />
    <glyph glyph-name="nine" unicode="9" horiz-adv-x="598" 
d="M602 316c-24 -203 -172 -336 -350 -336c-91 0 -153 30 -185 68c-18 18 -16 44 -2 76c15 33 52 59 76 46c26 -25 56 -54 120 -54c83 0 135 46 161 136c-39 -28 -87 -46 -144 -46c-129 0 -220 89 -205 213c15 122 123 220 280 220c173 0 273 -132 249 -323zM232 415
c-8 -63 30 -106 88 -106c57 0 108 42 121 108c0 21 -4 39 -10 55c-15 32 -43 52 -86 52c-58 0 -106 -45 -113 -109z" />
    <glyph glyph-name="nine.dnom" horiz-adv-x="320" 
d="M322 159c-12 -104 -92 -169 -190 -169c-48 0 -78 12 -97 30c-10 10 -10 26 -2 43c8 18 29 32 43 25c15 -11 31 -24 64 -24c40 0 66 19 79 61c-20 -13 -44 -21 -72 -21c-71 0 -119 41 -111 103s64 114 153 114c98 0 145 -65 133 -162zM127 208c-4 -29 15 -47 44 -47
c27 0 51 17 58 46c0 10 -2 18 -5 25c-7 16 -20 26 -42 26c-29 0 -51 -21 -55 -50z" />
    <glyph glyph-name="nine.numr" horiz-adv-x="319" 
d="M350 476c-12 -104 -92 -169 -190 -169c-48 0 -78 12 -97 30c-10 10 -10 26 -2 43c8 18 29 32 43 25c15 -11 31 -24 64 -24c40 0 66 19 79 61c-20 -13 -44 -21 -72 -21c-71 0 -119 41 -111 103s64 114 153 114c98 0 145 -65 133 -162zM155 525c-4 -29 15 -47 44 -47
c27 0 51 17 58 46c0 10 -2 18 -5 25c-7 16 -20 26 -42 26c-29 0 -51 -21 -55 -50z" />
    <glyph glyph-name="ntilde" unicode="&#xf1;" horiz-adv-x="615" 
d="M187 536c-22 12 -30 30 -24 45c25 64 79 116 152 116c75 0 94 -45 141 -45c31 0 50 17 68 48c8 14 35 19 58 5c21 -13 29 -31 24 -45c-25 -64 -79 -116 -153 -116c-73 0 -94 45 -141 45c-31 0 -50 -17 -69 -49c-7 -13 -32 -18 -56 -4zM222 22c-2 -21 -44 -32 -81 -32h-16
c-35 0 -73 11 -70 32l51 424c3 22 44 33 80 33h16c37 0 74 -11 72 -33l-5 -41c42 48 103 76 173 76c109 0 172 -68 160 -170l-36 -289c-2 -21 -44 -32 -81 -32h-16c-35 0 -73 11 -70 32l31 254c7 57 -21 94 -73 94c-54 0 -96 -43 -105 -106z" />
    <glyph glyph-name="numbersign" unicode="#" horiz-adv-x="692" 
d="M55 135c-20 0 -31 32 -28 61l2 13c4 28 18 61 39 61h104l36 89h-61c-20 0 -30 31 -27 61l2 13c3 28 18 61 38 61h103l38 93c12 30 52 43 90 43h16c37 0 55 -20 46 -43l-38 -93h87l38 93c12 30 52 43 90 43h16c37 0 55 -20 46 -43l-38 -93h63c21 0 28 -33 24 -63l-1 -12
c-4 -29 -19 -60 -39 -60h-102l-37 -89h63c20 0 27 -33 24 -62l-2 -13c-4 -29 -19 -60 -39 -60h-101l-42 -102c-12 -29 -51 -43 -90 -43h-16c-37 0 -55 19 -45 42l42 103h-88l-42 -102c-12 -29 -51 -43 -90 -43h-16c-37 0 -55 19 -45 42l42 103h-62zM323 270h88l36 89h-87z
" />
    <glyph glyph-name="o" unicode="o" horiz-adv-x="588" 
d="M292 -20c-160 0 -254 112 -236 258c17 147 129 251 297 251c160 0 254 -111 236 -258c-18 -146 -129 -251 -297 -251zM305 97c65 0 114 49 125 137c10 81 -27 141 -91 141s-113 -50 -123 -138c-10 -82 26 -140 89 -140z" />
    <glyph glyph-name="oacute" unicode="&#xf3;" horiz-adv-x="588" 
d="M393 548c-13 -16 -34 -30 -68 -30h-15c-31 0 -53 11 -42 30l76 135c13 22 52 33 88 33h14c38 0 73 -17 59 -33zM292 -20c-160 0 -254 112 -236 258c17 147 129 251 297 251c160 0 254 -111 236 -258c-18 -146 -129 -251 -297 -251zM305 97c65 0 114 49 125 137
c10 81 -27 141 -91 141s-113 -50 -123 -138c-10 -82 26 -140 89 -140z" />
    <glyph glyph-name="one" unicode="1" horiz-adv-x="404" 
d="M128 393c-18 -9 -44 16 -54 45l-4 13c-10 27 -10 63 10 72l181 89c18 9 48 16 71 16h16c38 0 70 -12 67 -35l-70 -569c-2 -22 -46 -34 -84 -34h-16c-37 0 -76 12 -74 34l51 415z" />
    <glyph glyph-name="one.dnom" horiz-adv-x="223" 
d="M69 190c-11 -5 -25 9 -30 25l-3 7c-6 15 -6 35 5 40l97 45c10 5 27 9 41 9h10c21 0 40 -6 38 -19l-35 -283c-2 -12 -26 -19 -48 -19h-10c-21 0 -44 7 -42 19l24 198z" />
    <glyph glyph-name="one.numr" horiz-adv-x="224" 
d="M98 507c-11 -5 -25 9 -30 25l-3 7c-6 15 -6 35 5 40l97 45c10 5 27 9 41 9h10c21 0 40 -6 38 -19l-35 -283c-2 -12 -26 -19 -48 -19h-10c-21 0 -44 7 -42 19l24 198z" />
    <glyph glyph-name="onehalf" unicode="&#xbd;" horiz-adv-x="708" 
d="M122 507c-11 -5 -25 9 -30 25l-3 7c-6 15 -6 35 5 40l97 45c10 5 27 9 41 9h10c21 0 40 -6 38 -19l-35 -283c-2 -12 -26 -19 -48 -19h-10c-21 0 -44 7 -42 19l24 198zM512 595c21 26 41 35 80 35h16c37 0 54 -22 38 -43l-435 -562c-20 -26 -41 -35 -79 -35h-16
c-37 0 -55 21 -38 42zM580 321c83 0 127 -46 119 -107c-6 -50 -57 -97 -137 -138h117c11 0 17 -19 16 -36l-2 -8c-1 -17 -10 -37 -21 -37h-242c-11 0 -15 20 -13 38l2 7c0 12 2 26 12 32c123 63 162 102 166 132c3 23 -13 40 -38 40s-44 -13 -58 -35c-6 -10 -22 -13 -41 -4
c-18 9 -24 23 -21 33c20 49 74 83 141 83z" />
    <glyph glyph-name="onequarter" unicode="&#xbc;" horiz-adv-x="708" 
d="M131 507c-11 -5 -25 9 -30 25l-3 7c-6 15 -6 35 5 40l97 45c10 5 27 9 41 9h10c21 0 40 -6 38 -19l-35 -283c-2 -12 -26 -19 -48 -19h-10c-21 0 -44 7 -42 19l24 198zM529 595c21 26 41 35 80 35h16c37 0 54 -22 38 -43l-435 -562c-20 -26 -41 -35 -79 -35h-16
c-37 0 -55 21 -38 42zM631 14c-1 -12 -22 -19 -44 -19h-9c-21 0 -40 7 -39 19l4 28h-150c-11 0 -19 16 -17 34l1 7c1 15 5 27 11 40c32 60 89 124 147 171c15 14 40 24 63 24h34c21 0 36 -7 35 -20l-23 -185h32c12 0 16 -17 14 -32l-1 -7c-1 -15 -11 -32 -22 -32h-32z
M461 113h91l16 130c-39 -29 -84 -84 -107 -130z" />
    <glyph glyph-name="ordfeminine" unicode="&#xaa;" horiz-adv-x="405" 
d="M417 345c-3 -15 -32 -22 -58 -22h-11c-25 0 -52 7 -49 22l3 22c-28 -29 -67 -46 -110 -46c-80 0 -131 53 -118 150c11 97 84 158 162 158c40 0 73 -13 92 -39l2 16c2 14 30 22 56 22h11c26 0 53 -8 51 -22zM263 556c-39 0 -69 -31 -76 -80c-6 -51 16 -79 54 -79
c36 0 67 26 72 68l3 25c5 41 -18 66 -53 66z" />
    <glyph glyph-name="ordmasculine" unicode="&#xba;" horiz-adv-x="385" 
d="M231 316c-112 0 -168 67 -157 160c11 92 84 158 196 158s169 -66 158 -158c-11 -93 -85 -160 -197 -160zM241 397c39 0 68 26 74 79c6 47 -15 80 -54 80s-68 -28 -75 -80c-5 -48 16 -79 55 -79z" />
    <glyph glyph-name="p" unicode="p" horiz-adv-x="619" 
d="M201 -148c-2 -22 -44 -33 -81 -33h-16c-35 0 -73 11 -70 33l72 594c3 22 44 33 80 33h16c37 0 74 -11 72 -33l-5 -40c42 48 101 75 166 75c118 0 204 -95 186 -248c-19 -153 -128 -246 -251 -246c-62 0 -114 24 -144 69zM333 94c67 0 116 55 127 140
c10 85 -28 138 -90 138c-59 0 -110 -48 -120 -119l-5 -43c-8 -70 32 -116 88 -116z" />
    <glyph glyph-name="paragraph" unicode="&#xb6;" horiz-adv-x="756" 
d="M87 384c19 152 143 244 301 244h98c35 0 68 -11 66 -32l-88 -713c-2 -21 -39 -32 -75 -32h-14c-35 0 -67 11 -65 32l31 256h-16c-160 0 -257 93 -238 245zM619 592c3 21 40 36 75 36h15c34 0 68 -11 65 -32l-88 -713c-2 -21 -39 -32 -74 -32h-15c-35 0 -67 11 -65 32z
" />
    <glyph glyph-name="parenleft" unicode="(" horiz-adv-x="317" 
d="M298 652c20 6 43 -18 53 -47l2 -3c10 -32 16 -67 -2 -77c-51 -21 -101 -121 -121 -284c-20 -164 5 -264 51 -285c16 -9 4 -45 -16 -76l-4 -4c-18 -28 -46 -53 -64 -47c-94 25 -146 161 -115 412c29 236 116 386 216 411z" />
    <glyph glyph-name="parenright" unicode=")" horiz-adv-x="316" 
d="M77 -171c-20 -6 -43 18 -53 47l-2 3c-10 32 -16 67 2 77c51 21 101 121 121 284c20 164 -5 264 -51 285c-16 9 -4 45 16 76l4 4c18 28 46 53 64 47c94 -25 146 -161 115 -412c-29 -236 -116 -386 -216 -411z" />
    <glyph glyph-name="percent" unicode="%" horiz-adv-x="708" 
d="M205 307c-97 0 -145 69 -133 166s76 165 173 165s145 -68 133 -165s-76 -166 -173 -166zM539 595c21 26 41 35 80 35h16c37 0 54 -22 38 -43l-435 -562c-20 -26 -41 -35 -79 -35h-16c-37 0 -55 21 -38 42zM214 386c36 0 57 32 63 86c6 49 -7 88 -41 88
c-36 0 -57 -33 -63 -87c-6 -49 7 -87 41 -87zM541 -10c-97 0 -145 69 -133 166s76 165 173 165s145 -68 133 -165s-76 -166 -173 -166zM550 69c36 0 57 32 63 86c6 49 -7 88 -41 88c-36 0 -57 -33 -63 -87c-6 -49 7 -87 41 -87z" />
    <glyph glyph-name="period" unicode="." horiz-adv-x="228" 
d="M112 -10c-57 0 -87 34 -81 84c6 48 44 82 102 82s88 -34 82 -82c-7 -50 -44 -84 -103 -84z" />
    <glyph glyph-name="periodcentered" unicode="&#xb7;" horiz-adv-x="228" 
d="M137 194c-57 0 -87 34 -81 84c6 48 44 82 102 82s88 -34 82 -82c-7 -50 -44 -84 -103 -84z" />
    <glyph glyph-name="plus" unicode="+" 
d="M86 192c-20 0 -31 31 -28 61l2 13c4 28 18 62 39 62h124l15 125c2 20 37 32 67 32h13c29 0 58 -12 56 -32l-15 -125h122c20 0 28 -34 24 -63l-2 -13c-4 -29 -19 -60 -39 -60h-122l-15 -123c-3 -20 -36 -35 -66 -35h-13c-28 0 -61 11 -57 31l15 127h-120z" />
    <glyph glyph-name="plusminus" unicode="&#xb1;" 
d="M99 300c-20 0 -31 32 -27 62l1 13c4 28 19 61 40 61h123l9 71c2 20 36 31 66 31h13c29 0 59 -11 57 -31l-9 -71h123c20 0 27 -33 23 -62l-1 -13c-4 -29 -19 -61 -39 -61h-123l-8 -67c-2 -20 -36 -35 -65 -35h-14c-28 0 -60 11 -58 32l9 70h-120zM67 36
c-20 0 -31 31 -28 61l2 13c4 28 18 62 39 62h382c20 0 28 -34 24 -63l-2 -13c-4 -29 -19 -60 -39 -60h-378z" />
    <glyph glyph-name="q" unicode="q" horiz-adv-x="619" 
d="M549 -148c-2 -22 -44 -33 -81 -33h-16c-36 0 -73 11 -71 33l26 207c-40 -46 -96 -72 -159 -72c-120 0 -211 96 -192 248c18 154 128 246 251 246c62 0 114 -23 144 -68l3 26c3 29 44 40 80 40h16c37 0 74 -11 72 -33zM343 375c-66 0 -116 -55 -127 -140
c-10 -85 28 -138 90 -138c61 0 111 49 120 120l6 42h-1c9 70 -31 116 -88 116z" />
    <glyph glyph-name="q.alt" horiz-adv-x="588" 
d="M551 -179c-28 -8 -50 -11 -76 -11c-108 0 -212 58 -243 176c-123 24 -192 125 -176 252c17 147 129 251 297 251c160 0 254 -111 236 -258c-15 -121 -93 -214 -215 -242c28 -37 69 -50 114 -50c18 0 34 4 54 8c25 6 39 -21 42 -54c3 -32 -8 -65 -33 -72zM305 97
c65 0 114 49 125 137c10 81 -27 141 -91 141s-113 -50 -123 -138c-10 -82 26 -140 89 -140z" />
    <glyph glyph-name="question" unicode="?" horiz-adv-x="521" 
d="M376 419c6 50 -28 84 -73 84c-52 0 -94 -29 -122 -79c-11 -18 -44 -22 -77 -5c-31 16 -39 39 -32 59c40 94 140 161 262 161c138 0 237 -86 221 -217c-19 -149 -175 -220 -306 -236c-19 -2 -33 27 -34 60c0 31 6 61 24 63c61 13 130 51 137 110zM251 -10
c-57 0 -87 32 -81 79c6 45 44 78 102 78s88 -33 82 -78c-7 -47 -44 -79 -103 -79z" />
    <glyph glyph-name="questiondown" unicode="&#xbf;" horiz-adv-x="521" 
d="M332 508c57 0 87 -32 81 -79c-6 -45 -44 -78 -102 -78s-88 33 -82 78c7 47 44 79 103 79zM207 79c-6 -50 28 -84 73 -84c52 0 94 29 122 79c11 18 44 22 77 5c31 -16 39 -39 32 -59c-40 -94 -140 -161 -262 -161c-138 0 -237 86 -221 217c19 149 175 220 306 236
c19 2 33 -27 34 -60c0 -31 -6 -61 -24 -63c-61 -13 -130 -51 -137 -110z" />
    <glyph glyph-name="quotedbl" unicode="&#x22;" horiz-adv-x="407" 
d="M219 406c-5 -20 -27 -30 -61 -30h-14c-31 0 -52 10 -51 30l7 192c0 22 44 34 79 34h15c38 0 71 -14 66 -34zM413 406c-5 -20 -27 -30 -61 -30h-14c-31 0 -52 10 -51 30l7 192c0 22 44 34 79 34h15c38 0 71 -14 66 -34z" />
    <glyph glyph-name="quotedblleft" unicode="&#x201c;" horiz-adv-x="437" 
d="M151 607c13 14 29 25 60 25h13c28 0 44 -14 36 -32c-11 -21 -24 -50 -32 -83c24 -14 38 -41 33 -74c-5 -49 -44 -83 -101 -83c-59 0 -88 41 -80 107c7 52 55 120 71 140zM359 607c13 14 29 25 60 25h13c28 0 44 -14 36 -32c-11 -21 -24 -50 -32 -83c24 -14 38 -41 33 -74
c-5 -49 -44 -83 -101 -83c-59 0 -88 41 -80 107c7 52 55 120 71 140z" />
    <glyph glyph-name="quotedblright" unicode="&#x201d;" horiz-adv-x="437" 
d="M200 385c-13 -14 -29 -25 -60 -25h-13c-28 0 -44 14 -36 32c11 21 24 50 32 83c-24 14 -38 41 -33 74c5 49 44 83 101 83c59 0 88 -41 80 -107c-7 -52 -55 -120 -71 -140zM408 385c-13 -14 -29 -25 -60 -25h-13c-28 0 -44 14 -36 32c11 21 24 50 32 83
c-24 14 -38 41 -33 74c5 49 44 83 101 83c59 0 88 -41 80 -107c-7 -52 -55 -120 -71 -140z" />
    <glyph glyph-name="quoteleft" unicode="&#x2018;" horiz-adv-x="229" 
d="M151 607c13 14 29 25 60 25h13c28 0 44 -14 36 -32c-11 -21 -24 -50 -32 -83c24 -14 38 -41 33 -74c-5 -49 -44 -83 -101 -83c-59 0 -88 41 -80 107c7 52 55 120 71 140z" />
    <glyph glyph-name="quoteright" unicode="&#x2019;" horiz-adv-x="229" 
d="M200 385c-13 -14 -29 -25 -60 -25h-13c-28 0 -44 14 -36 32c11 21 24 50 32 83c-24 14 -38 41 -33 74c5 49 44 83 101 83c59 0 88 -41 80 -107c-7 -52 -55 -120 -71 -140z" />
    <glyph glyph-name="quotesingle" unicode="'" horiz-adv-x="214" 
d="M219 406c-5 -20 -27 -30 -61 -30h-14c-31 0 -52 10 -51 30l7 192c0 22 44 34 79 34h15c38 0 71 -14 66 -34z" />
    <glyph glyph-name="r" unicode="r" horiz-adv-x="420" 
d="M222 22c-2 -21 -44 -32 -81 -32h-16c-35 0 -73 11 -70 32l51 424c3 22 44 33 80 33h16c37 0 74 -11 72 -33l-6 -47c40 54 93 82 147 82c15 0 29 -1 42 -5c19 -7 17 -32 5 -70c-12 -39 -31 -65 -50 -61c-14 2 -26 6 -44 6c-64 0 -113 -56 -121 -126z" />
    <glyph glyph-name="r_t" horiz-adv-x="682" 
d="M222 22c-2 -21 -44 -32 -81 -32h-16c-35 0 -73 11 -70 32l51 424c3 22 44 33 80 33h16c37 0 74 -11 72 -33l-7 -53c41 52 97 78 155 78h29l9 71c2 22 44 33 80 33h16c36 0 74 -11 71 -33l-9 -71h71c21 0 28 -33 24 -62l-1 -12c-4 -30 -19 -61 -39 -61h-71l-21 -171
c-4 -29 11 -45 43 -45h9c22 0 35 -16 31 -56c-5 -41 -43 -74 -110 -74h-28c-85 0 -128 53 -119 119l28 227h-60c-68 0 -114 -41 -127 -103z" />
    <glyph glyph-name="registered" unicode="&#xae;" horiz-adv-x="632" 
d="M329 108c-165 0 -284 134 -263 301c20 165 172 301 337 301s285 -136 264 -301c-21 -167 -172 -301 -338 -301zM338 181c125 0 241 102 257 228c15 125 -76 227 -201 227s-240 -102 -255 -227c-15 -126 74 -228 199 -228zM240 556c2 12 12 15 27 15h122
c84 0 136 -42 128 -110c-5 -40 -27 -71 -61 -90c34 -33 49 -71 44 -107c-1 -12 -27 -21 -51 -21h-10c-22 0 -46 7 -44 19c2 15 -8 50 -42 88h-30l-11 -87c-1 -13 -28 -20 -52 -20h-10c-23 0 -47 7 -46 20zM369 502h-28l-10 -83h30c28 0 47 19 49 42c3 23 -14 41 -41 41z" />
    <glyph glyph-name="s" unicode="s" horiz-adv-x="520" 
d="M238 -20c-78 0 -155 22 -185 52c-17 13 -15 37 -2 61c14 27 37 50 60 41c26 -19 70 -40 133 -40c65 0 99 15 102 42c4 29 -41 36 -131 53c-95 17 -142 61 -133 141c12 97 104 159 253 159c78 0 144 -20 174 -50c17 -13 18 -35 4 -62c-15 -28 -38 -47 -61 -40
c-27 18 -68 38 -130 38c-60 0 -87 -14 -90 -41c-4 -29 42 -33 134 -49c97 -18 147 -65 138 -145c-12 -96 -109 -160 -266 -160z" />
    <glyph glyph-name="section" unicode="&#xa7;" horiz-adv-x="549" 
d="M497 12c-14 -113 -123 -180 -260 -180c-101 0 -167 32 -197 67c-17 14 -12 45 1 73c13 30 43 57 63 44c25 -23 75 -61 137 -61c53 0 94 21 98 55c5 39 -62 50 -145 68c-96 21 -143 80 -131 170c7 58 40 102 89 130c-26 30 -39 69 -33 114c14 113 121 178 260 178
c79 0 142 -27 172 -62c16 -16 15 -43 3 -71c-14 -31 -48 -57 -69 -46c-24 23 -64 56 -123 56c-54 0 -89 -19 -93 -52c-5 -41 69 -48 152 -66c97 -20 141 -82 130 -170c-7 -60 -40 -102 -90 -128c29 -31 42 -72 36 -119zM214 257c-4 -34 37 -46 100 -60c44 4 75 23 78 53
c4 33 -31 46 -94 61c-50 -3 -80 -24 -84 -54z" />
    <glyph glyph-name="semicolon" unicode=";" horiz-adv-x="228" 
d="M143 236c-57 0 -87 34 -81 84c6 48 44 82 102 82s88 -34 82 -82c-7 -50 -44 -84 -103 -84zM135 -98c-8 -20 -28 -30 -62 -30h-14c-32 0 -54 10 -50 30l44 221c4 22 44 33 80 33h14c38 0 74 -14 67 -34z" />
    <glyph glyph-name="seven" unicode="7" horiz-adv-x="543" 
d="M112 480c-20 0 -30 34 -26 65l1 14c4 30 19 66 40 66h449c20 0 27 -36 23 -68l-1 -12c-3 -22 -10 -46 -22 -57c-125 -123 -229 -359 -242 -466c-3 -20 -37 -32 -83 -32h-16c-48 0 -80 15 -77 37c13 109 102 310 227 453h-273z" />
    <glyph glyph-name="seven.dnom" horiz-adv-x="292" 
d="M57 233c-11 0 -18 20 -15 37v7c3 18 12 37 23 37h242c11 0 15 -19 13 -37l-1 -7c-2 -13 -6 -26 -12 -32c-66 -61 -118 -176 -124 -225c-1 -11 -20 -18 -47 -18h-8c-28 0 -47 8 -45 20c6 51 49 147 113 218h-139z" />
    <glyph glyph-name="seven.numr" horiz-adv-x="292" 
d="M86 550c-11 0 -18 20 -15 37v7c3 18 12 37 23 37h242c11 0 15 -19 13 -37l-1 -7c-2 -13 -6 -26 -12 -32c-66 -61 -118 -176 -124 -225c-1 -11 -20 -18 -47 -18h-8c-28 0 -47 8 -45 20c6 51 49 147 113 218h-139z" />
    <glyph glyph-name="six" unicode="6" horiz-adv-x="598" 
d="M601 200c-15 -122 -123 -220 -280 -220c-173 0 -273 132 -249 323c24 203 172 336 350 336c91 0 153 -30 185 -68c18 -18 16 -44 2 -76c-15 -33 -52 -59 -76 -46c-26 25 -56 54 -120 54c-83 0 -135 -46 -161 -136c39 28 87 46 144 46c129 0 220 -89 205 -213zM243 147
c15 -32 43 -52 86 -52c58 0 106 45 113 109c8 63 -30 106 -88 106c-57 0 -108 -42 -121 -108c0 -21 4 -39 10 -55z" />
    <glyph glyph-name="six.dnom" horiz-adv-x="321" 
d="M323 105c-7 -62 -64 -115 -154 -115c-97 0 -145 65 -134 162c13 105 94 169 192 169c48 0 78 -11 96 -29c11 -10 10 -26 3 -44c-9 -18 -30 -33 -44 -26c-14 11 -30 23 -63 23c-41 0 -66 -17 -80 -58c20 13 45 21 73 21c70 0 118 -41 111 -103zM134 78
c7 -15 20 -24 42 -24c29 0 52 20 56 50c3 28 -15 47 -45 47c-29 0 -55 -19 -58 -49c0 -9 2 -17 5 -24z" />
    <glyph glyph-name="six.numr" horiz-adv-x="321" 
d="M352 422c-7 -62 -64 -115 -154 -115c-97 0 -145 65 -134 162c13 105 94 169 192 169c48 0 78 -11 96 -29c11 -10 10 -26 3 -44c-9 -18 -30 -33 -44 -26c-14 11 -30 23 -63 23c-41 0 -66 -17 -80 -58c20 13 45 21 73 21c70 0 118 -41 111 -103zM163 395
c7 -15 20 -24 42 -24c29 0 52 20 56 50c3 28 -15 47 -45 47c-29 0 -55 -19 -58 -49c0 -9 2 -17 5 -24z" />
    <glyph glyph-name="slash" unicode="/" horiz-adv-x="418" 
d="M336 595c16 28 48 35 86 35h16c38 0 58 -21 46 -43l-326 -562c-16 -28 -48 -35 -86 -35h-17c-37 0 -58 20 -45 42z" />
    <glyph glyph-name="soundcopyright" unicode="&#x2117;" horiz-adv-x="632" 
d="M329 108c-165 0 -284 134 -263 301c20 165 172 301 337 301s285 -136 264 -301c-21 -167 -172 -301 -338 -301zM338 181c125 0 241 102 257 228c15 125 -76 227 -201 227s-240 -102 -255 -227c-15 -126 74 -228 199 -228zM383 350h-41l-10 -87c-2 -13 -29 -20 -53 -20
h-10c-23 0 -47 7 -45 20l35 293c2 12 12 15 27 15h123c83 0 136 -42 127 -110c-8 -69 -69 -111 -153 -111zM388 502h-27l-10 -83h29c28 0 47 19 50 42s-15 41 -42 41z" />
    <glyph glyph-name="space" unicode=" " horiz-adv-x="211" 
 />
    <glyph glyph-name="sterling" unicode="&#xa3;" horiz-adv-x="546" 
d="M73 201c-14 0 -22 20 -20 40l1 9c2 19 13 40 27 40h55v33h-48c-14 0 -22 20 -20 40l1 8c2 20 13 40 27 40h42c0 8 1 15 2 21c15 125 124 207 246 207c74 0 132 -21 165 -54c17 -12 19 -40 5 -73s-37 -51 -55 -45c-24 19 -51 40 -96 40s-86 -30 -91 -76
c-1 -6 -1 -13 -2 -20h184c13 0 19 -20 16 -40v-9c-3 -20 -14 -39 -27 -39h-172c0 -11 1 -22 0 -33h168c13 0 19 -21 16 -41v-8c-3 -21 -14 -40 -27 -40h-167c-11 -29 -31 -51 -57 -68h274c20 0 27 -34 24 -64l-2 -12c-3 -30 -19 -62 -39 -62h-465c-20 0 -31 32 -28 62l2 13
c3 29 18 63 39 63h22c33 15 53 32 60 68h-60z" />
    <glyph glyph-name="t" unicode="t" horiz-adv-x="327" 
d="M250 22c-3 -21 -44 -32 -82 -32h-16c-35 0 -72 11 -70 32l38 311h-41c-20 0 -31 32 -27 61l1 14c4 28 18 61 39 61h45l9 73c2 22 44 33 80 33h16c36 0 74 -11 71 -33l-9 -73h45c21 0 28 -33 24 -63l-1 -12c-4 -30 -19 -61 -39 -61h-45z" />
    <glyph glyph-name="t.alt" horiz-adv-x="374" 
d="M236 -10h-21c-85 0 -127 53 -119 119l27 224h-40c-21 0 -32 32 -28 61l2 14c3 28 18 61 39 61h44l9 73c3 22 44 33 80 33h16c37 0 74 -11 72 -33l-9 -73h70c21 0 28 -33 24 -63l-1 -12c-4 -30 -19 -61 -39 -61h-71l-21 -168c-3 -29 11 -43 43 -45h10c18 0 28 -18 24 -53
c-6 -41 -45 -77 -111 -77z" />
    <glyph glyph-name="t_t" horiz-adv-x="655" 
d="M245 22c-2 -21 -44 -32 -81 -32h-16c-35 0 -73 11 -70 32l38 311h-40c-20 0 -31 32 -28 61l2 14c4 28 18 61 39 61h44l9 73c2 22 44 33 80 33h15c37 0 75 -11 72 -33l-9 -73h163l9 73c3 22 44 33 80 33h16c37 0 74 -11 72 -33l-9 -73h50c21 0 28 -33 24 -63l-1 -12
c-4 -30 -19 -61 -39 -61h-51l-38 -311c-3 -21 -44 -32 -81 -32h-16c-36 0 -73 11 -71 32l38 311h-163z" />
    <glyph glyph-name="three" unicode="3" horiz-adv-x="544" 
d="M246 -20c-91 0 -162 34 -194 72c-19 17 -17 47 -3 77c14 33 51 61 74 47c28 -27 64 -60 130 -60c62 0 114 23 119 69c6 48 -46 72 -170 72c-21 0 -30 17 -26 48l1 13c3 22 16 46 37 46c109 0 168 26 175 74c5 42 -30 67 -86 67c-64 0 -101 -39 -135 -66
c-27 -13 -58 9 -64 42c-8 31 0 60 22 77c42 40 117 81 221 81c135 0 223 -75 211 -175c-9 -72 -51 -121 -129 -146c79 -26 113 -81 104 -157c-14 -113 -134 -181 -287 -181z" />
    <glyph glyph-name="three.dnom" horiz-adv-x="291" 
d="M127 -10c-47 0 -82 16 -100 34c-11 8 -10 25 -3 42c8 18 30 34 43 27c15 -11 34 -27 68 -27c30 0 56 9 59 29c3 22 -25 31 -89 31c-11 0 -17 9 -15 27l1 7c1 13 9 25 21 25c56 0 86 10 89 33c3 18 -15 29 -44 29c-32 0 -51 -19 -69 -31c-14 -6 -32 6 -36 25
c-4 16 0 32 12 42c23 19 63 38 119 38c73 0 121 -38 114 -88c-5 -34 -26 -59 -64 -72c39 -13 57 -38 53 -75c-8 -59 -68 -96 -159 -96z" />
    <glyph glyph-name="three.numr" horiz-adv-x="290" 
d="M155 307c-47 0 -82 16 -100 34c-11 8 -10 25 -3 42c8 18 30 34 43 27c15 -11 34 -27 68 -27c30 0 56 9 59 29c3 22 -25 31 -89 31c-11 0 -17 9 -15 27l1 7c1 13 9 25 21 25c56 0 86 10 89 33c3 18 -15 29 -44 29c-32 0 -51 -19 -69 -31c-14 -6 -32 6 -36 25
c-4 16 0 32 12 42c23 19 63 38 119 38c73 0 121 -38 114 -88c-5 -34 -26 -59 -64 -72c39 -13 57 -38 53 -75c-8 -59 -68 -96 -159 -96z" />
    <glyph glyph-name="threequarters" unicode="&#xbe;" horiz-adv-x="708" 
d="M174 307c-47 0 -82 16 -100 34c-11 8 -10 25 -3 42c8 18 30 34 43 27c15 -11 34 -27 68 -27c30 0 56 9 59 29c3 22 -25 31 -89 31c-11 0 -17 9 -15 27l1 7c1 13 9 25 21 25c56 0 86 10 89 33c3 18 -15 29 -44 29c-32 0 -51 -19 -69 -31c-14 -6 -32 6 -36 25
c-4 16 0 32 12 42c23 19 63 38 119 38c73 0 121 -38 114 -88c-5 -34 -26 -59 -64 -72c39 -13 57 -38 53 -75c-8 -59 -68 -96 -159 -96zM549 595c21 26 41 35 80 35h16c37 0 54 -22 38 -43l-435 -562c-20 -26 -41 -35 -79 -35h-16c-37 0 -55 21 -38 42zM638 14
c-1 -12 -22 -19 -44 -19h-9c-21 0 -40 7 -39 19l4 28h-150c-11 0 -19 16 -17 34l1 7c1 15 5 27 11 40c32 60 89 124 147 171c15 14 40 24 63 24h34c21 0 36 -7 35 -20l-23 -185h32c12 0 16 -17 14 -32l-1 -7c-1 -15 -11 -32 -22 -32h-32zM468 113h91l16 130
c-39 -29 -84 -84 -107 -130z" />
    <glyph glyph-name="tilde" unicode="&#x2dc;" 
d="M129 536c-22 12 -30 30 -24 45c25 64 79 116 152 116c75 0 94 -45 141 -45c31 0 50 17 68 48c8 14 35 19 58 5c21 -13 29 -31 24 -45c-25 -64 -79 -116 -153 -116c-73 0 -94 45 -141 45c-31 0 -50 -17 -69 -49c-7 -13 -32 -18 -56 -4z" />
    <glyph glyph-name="tilde.cap" 
d="M145 665c-22 12 -28 30 -23 45c26 64 79 115 150 115c73 0 95 -48 142 -48c31 0 52 17 68 45c8 13 34 17 57 4c21 -12 28 -30 22 -45c-26 -64 -79 -116 -149 -116c-74 0 -96 49 -143 49c-31 0 -51 -17 -68 -45c-8 -13 -33 -17 -56 -4z" />
    <glyph glyph-name="two" unicode="2" horiz-adv-x="550" 
d="M338 639c149 0 236 -97 219 -217c-13 -101 -117 -198 -284 -287h243c20 0 31 -35 28 -66l-2 -14c-4 -30 -19 -65 -40 -65h-449c-20 0 -27 35 -23 67l1 13c2 21 6 48 23 57c235 130 317 217 324 282c7 54 -30 90 -77 90c-51 0 -89 -27 -117 -75c-10 -18 -40 -24 -72 -7
c-31 16 -44 41 -37 61c41 94 141 161 263 161z" />
    <glyph glyph-name="two.dnom" horiz-adv-x="297" 
d="M179 321c83 0 127 -46 119 -107c-6 -50 -57 -97 -137 -138h117c11 0 17 -19 16 -36l-2 -8c-1 -17 -10 -37 -21 -37h-242c-11 0 -15 20 -13 38l2 7c0 12 2 26 12 32c123 63 162 102 166 132c3 23 -13 40 -38 40s-44 -13 -58 -35c-6 -10 -22 -13 -41 -4
c-18 9 -24 23 -21 33c20 49 74 83 141 83z" />
    <glyph glyph-name="two.numr" horiz-adv-x="297" 
d="M208 638c83 0 127 -46 119 -107c-6 -50 -57 -97 -137 -138h117c11 0 17 -19 16 -36l-2 -8c-1 -17 -10 -37 -21 -37h-242c-11 0 -15 20 -13 38l2 7c0 12 2 26 12 32c123 63 162 102 166 132c3 23 -13 40 -38 40s-44 -13 -58 -35c-6 -10 -22 -13 -41 -4
c-18 9 -24 23 -21 33c20 49 74 83 141 83z" />
    <glyph glyph-name="u" unicode="u" horiz-adv-x="605" 
d="M106 446c3 22 44 33 82 33h15c36 0 73 -11 71 -33l-31 -254c-7 -57 19 -94 68 -94c51 0 93 45 101 112l29 236c2 22 43 33 81 33h16c35 0 73 -11 70 -33l-52 -424c-2 -21 -44 -32 -79 -32h-16c-37 0 -75 11 -72 32l5 41c-41 -48 -101 -76 -168 -76
c-106 0 -167 68 -155 171z" />
    <glyph glyph-name="u.alt" horiz-adv-x="633" 
d="M106 446c3 22 44 33 82 33h15c36 0 73 -11 71 -33l-31 -254c-7 -57 19 -94 68 -94c51 0 93 45 101 112l29 236c2 22 43 33 79 33h16c37 0 75 -11 72 -33l-36 -297c-4 -32 10 -43 43 -43c18 0 28 -18 24 -46c-4 -36 -43 -70 -109 -70h-19c-67 0 -103 32 -111 80
c-41 -52 -104 -83 -174 -83c-106 0 -167 68 -155 171z" />
    <glyph glyph-name="uacute" unicode="&#xfa;" horiz-adv-x="605" 
d="M427 548c-13 -16 -34 -30 -68 -30h-15c-31 0 -53 11 -42 30l76 135c13 22 52 33 88 33h14c38 0 73 -17 59 -33zM106 446c3 22 44 33 82 33h15c36 0 73 -11 71 -33l-31 -254c-7 -57 19 -94 68 -94c51 0 93 45 101 112l29 236c2 22 43 33 81 33h16c35 0 73 -11 70 -33
l-52 -424c-2 -21 -44 -32 -79 -32h-16c-37 0 -75 11 -72 32l5 41c-41 -48 -101 -76 -168 -76c-106 0 -167 68 -155 171z" />
    <glyph glyph-name="uacute.alt" horiz-adv-x="633" 
d="M413 548c-13 -16 -34 -30 -68 -30h-15c-31 0 -53 11 -42 30l76 135c13 22 52 33 88 33h14c38 0 73 -17 59 -33zM106 446c3 22 44 33 82 33h15c36 0 73 -11 71 -33l-31 -254c-7 -57 19 -94 68 -94c51 0 93 45 101 112l29 236c2 22 43 33 79 33h16c37 0 75 -11 72 -33
l-36 -297c-4 -32 10 -43 43 -43c18 0 28 -18 24 -46c-4 -36 -43 -70 -109 -70h-19c-67 0 -103 32 -111 80c-41 -52 -104 -83 -174 -83c-106 0 -167 68 -155 171z" />
    <glyph glyph-name="udieresis" unicode="&#xfc;" horiz-adv-x="605" 
d="M270 533c-52 0 -78 31 -73 76c5 43 39 74 92 74c52 0 79 -31 74 -74c-6 -45 -40 -76 -93 -76zM472 533c-52 0 -78 31 -73 76c5 43 39 74 92 74c52 0 79 -31 74 -74c-6 -45 -40 -76 -93 -76zM106 446c3 22 44 33 82 33h15c36 0 73 -11 71 -33l-31 -254
c-7 -57 19 -94 68 -94c51 0 93 45 101 112l29 236c2 22 43 33 81 33h16c35 0 73 -11 70 -33l-52 -424c-2 -21 -44 -32 -79 -32h-16c-37 0 -75 11 -72 32l5 41c-41 -48 -101 -76 -168 -76c-106 0 -167 68 -155 171z" />
    <glyph glyph-name="underscore" unicode="_" horiz-adv-x="438" 
d="M28 -155c-20 0 -31 31 -27 61l1 13c3 28 18 61 39 61h351c20 0 27 -33 23 -62v-13c-4 -29 -19 -60 -40 -60h-347z" />
    <glyph glyph-name="v" unicode="v" horiz-adv-x="561" 
d="M390 17c-20 -20 -64 -27 -119 -27c-52 0 -90 8 -103 27c-58 77 -112 321 -100 425c4 21 45 37 82 37h16c36 0 74 -11 71 -33c-4 -41 10 -214 63 -328c80 119 140 287 144 328c3 21 41 33 73 33h15c34 0 71 -16 68 -37c-12 -102 -126 -348 -210 -425z" />
    <glyph glyph-name="w" unicode="w" horiz-adv-x="881" 
d="M750 17c-17 -19 -57 -27 -109 -27c-55 0 -110 10 -115 36l-50 264l-116 -264c-11 -26 -68 -36 -122 -36c-52 0 -91 8 -104 27c-53 93 -78 292 -62 425c3 21 44 37 81 37h17c36 0 73 -11 70 -33c-8 -65 -15 -207 27 -323l129 317c8 26 60 38 114 38c53 0 95 -14 98 -38
l51 -317c70 117 97 258 105 323c3 22 43 33 79 33h16c38 0 61 -16 58 -37c-16 -133 -90 -332 -167 -425z" />
    <glyph glyph-name="x" unicode="x" horiz-adv-x="552" 
d="M185 23c-2 -22 -43 -33 -79 -33h-16c-38 0 -75 15 -72 37c9 75 68 154 163 226c-83 63 -107 132 -100 189c3 21 46 37 79 37h16c31 0 67 -12 65 -33c-4 -29 12 -76 80 -130c68 55 97 103 100 130c3 21 42 33 74 33h15c33 0 73 -16 70 -37c-7 -56 -58 -129 -159 -195
c88 -66 130 -143 121 -220c-3 -22 -45 -37 -82 -37h-16c-36 0 -73 11 -71 33c4 30 -13 91 -80 152c-76 -65 -103 -120 -108 -152z" />
    <glyph glyph-name="y" unicode="y" horiz-adv-x="566" 
d="M199 -177c-24 -16 -65 -17 -94 -2l-12 7c-35 18 -38 53 -15 71c36 24 76 52 121 96c-106 116 -142 355 -131 447c4 21 45 37 82 37h16c36 0 74 -11 71 -33c-4 -39 12 -206 70 -325c72 108 138 283 143 325c2 21 41 33 73 33h15c33 0 71 -16 68 -37
c-11 -84 -90 -256 -161 -359c-86 -125 -184 -223 -246 -260z" />
    <glyph glyph-name="y.alt" horiz-adv-x="603" 
d="M388 38l5 41c-41 -47 -101 -74 -167 -74c-106 0 -168 67 -155 170l33 271c3 22 44 33 81 33h16c35 0 73 -11 71 -33l-29 -236c-7 -57 19 -94 67 -94s89 40 100 101l29 229c2 21 43 33 79 33h16c37 0 75 -12 72 -33l-50 -407c-16 -135 -151 -229 -317 -229
c-65 0 -116 11 -157 33c-20 10 -34 34 -23 67c10 33 33 50 53 42c27 -13 63 -25 118 -25c81 0 150 41 158 111z" />
    <glyph glyph-name="yen" unicode="&#xa5;" horiz-adv-x="625" 
d="M85 67c-14 0 -22 20 -20 40l1 9c2 19 12 39 27 39h150l5 34h-149c-14 0 -21 20 -19 40l1 8c2 20 13 40 27 40h82c-72 103 -109 233 -99 312c3 22 42 38 85 38h17c40 0 75 -11 73 -33c-5 -40 17 -142 90 -239c98 97 145 199 150 239c2 22 41 33 81 33h17
c43 0 77 -16 75 -38c-10 -79 -77 -209 -175 -312h74c13 0 20 -20 17 -40l-1 -9c-3 -20 -13 -39 -27 -39h-145l-4 -34h145c13 0 20 -20 17 -40v-9c-4 -20 -14 -39 -27 -39h-147l-5 -43c-2 -22 -46 -34 -84 -34h-16c-37 0 -76 12 -74 34l5 43h-147z" />
    <glyph glyph-name="z" unicode="z" horiz-adv-x="504" 
d="M496 55c-3 -29 -18 -55 -38 -55h-404c-20 0 -29 19 -27 47l1 4c20 160 221 208 298 292h-220c-20 0 -32 27 -28 57l1 13c4 28 18 56 39 56h380c21 0 29 -21 26 -51l-1 -4c-19 -155 -225 -201 -300 -289h250c21 0 29 -28 25 -57z" />
    <glyph glyph-name="zero" unicode="0" horiz-adv-x="634" 
d="M315 -20c-178 0 -267 139 -243 330c23 191 143 329 324 329c177 0 265 -138 242 -329c-24 -191 -143 -330 -323 -330zM330 109c73 0 113 74 129 200c14 116 -11 201 -80 201c-72 0 -112 -75 -128 -201c-15 -117 11 -200 79 -200z" />
    <glyph glyph-name="zero.dnom" horiz-adv-x="340" 
d="M169 -10c-97 0 -145 69 -133 166s76 165 173 165s145 -68 133 -165s-76 -166 -173 -166zM178 69c36 0 57 32 63 86c6 49 -7 88 -41 88c-36 0 -57 -33 -63 -87c-6 -49 7 -87 41 -87z" />
    <glyph glyph-name="zero.numr" horiz-adv-x="340" 
d="M197 307c-97 0 -145 69 -133 166s76 165 173 165s145 -68 133 -165s-76 -166 -173 -166zM206 386c36 0 57 32 63 86c6 49 -7 88 -41 88c-36 0 -57 -33 -63 -87c-6 -49 7 -87 41 -87z" />
    </font>
</defs>
</svg>
