<?xml version="1.0" standalone="no"?>
<!DOCTYPE svg PUBLIC "-//W3C//DTD SVG 1.1//EN" "http://www.w3.org/Graphics/SVG/1.1/DTD/svg11.dtd" >
<svg xmlns="http://www.w3.org/2000/svg" xmlns:xlink="http://www.w3.org/1999/xlink" version="1.1">
<metadata>
Created by FontForge 20170924 at Mon Mar 23 22:44:33 2020
 By www-data

</metadata>
<defs>
<font id="AlpinaSans-Semilight" horiz-adv-x="500" >
  <font-face 
    font-family="Alpina Sans"
    font-weight="244"
    font-stretch="normal"
    units-per-em="1000"
    panose-1="2 15 0 3 4 5 0 0 0 3"
    ascent="750"
    descent="-250"
    x-height="445"
    cap-height="606"
    bbox="-134.899 -250 1730 785"
    underline-thickness="0"
    underline-position="0"
    unicode-range="U+0020-FB04"
  />
<missing-glyph horiz-adv-x="686" 
d="M86 -170v810h513v-810h-513zM144 -117h398v704h-398v-704z" />
    <glyph glyph-name="f_b" unicode="fb" horiz-adv-x="922" 
d="M24 394c-11 0 -17 12 -17 23v5c0 11 5 23 16 23h70v20c0 117 86 196 206 196c49 0 87 -15 118 -34v27c0 11 14 17 27 17h6c13 0 28 -6 28 -17v-302c31 67 99 113 185 113c139 0 217 -104 217 -241c0 -136 -86 -244 -225 -244c-81 0 -147 40 -177 104v-80
c0 -11 -15 -17 -28 -17h-6c-13 0 -27 6 -27 17v574c-30 21 -64 39 -110 39c-92 0 -154 -62 -154 -156v-16h157c11 0 17 -12 17 -23v-6c0 -11 -6 -22 -17 -22h-157v-390c0 -11 -14 -17 -27 -17h-6c-13 0 -27 6 -27 17v390h-69zM642 24c114 0 177 90 177 199
c0 108 -57 197 -171 197c-106 0 -170 -83 -170 -176v-52c0 -92 64 -168 164 -168z" />
    <glyph glyph-name="f_f" unicode="ff" horiz-adv-x="614" 
d="M24 394c-11 0 -17 12 -17 23v5c0 11 5 23 16 23h70v20c0 117 86 196 206 196c60 0 111 -21 146 -46c26 30 65 46 108 46c31 0 58 -8 73 -14c12 -6 18 -16 15 -30c-4 -13 -15 -18 -24 -15c-12 5 -33 12 -58 12c-45 0 -81 -32 -81 -81v-88h117c11 0 17 -12 17 -23v-6
c0 -11 -6 -22 -17 -22h-117v-390c0 -11 -15 -17 -28 -17h-6c-13 0 -27 6 -27 17v390h-264v-390c0 -11 -14 -17 -27 -17h-6c-13 0 -27 6 -27 17v390h-69zM153 461v-16h264v90c0 15 2 29 7 42c-31 22 -71 40 -117 40c-92 0 -154 -62 -154 -156z" />
    <glyph glyph-name="f_f_i" unicode="ffi" horiz-adv-x="885" 
d="M24 394c-11 0 -17 12 -17 23v5c0 11 5 23 16 23h70v20c0 117 86 196 206 196c75 0 135 -35 170 -63c38 41 96 65 165 65c62 0 109 -20 144 -44c10 -6 16 -18 12 -31c-4 -12 -15 -18 -26 -13c-31 22 -72 42 -125 42c-96 0 -161 -62 -161 -161v-11h297c12 0 27 -6 27 -17
v-424c0 -11 -15 -17 -28 -17h-6c-13 0 -27 6 -27 17v390h-263v-390c0 -11 -15 -17 -28 -17h-6c-13 0 -27 6 -27 17v390h-264v-390c0 -11 -14 -17 -27 -17h-6c-13 0 -27 6 -27 17v390h-69zM153 461v-16h264v13c0 40 9 75 27 105c-31 25 -80 54 -137 54
c-92 0 -154 -62 -154 -156z" />
    <glyph glyph-name="f_f_l" unicode="ffl" horiz-adv-x="885" 
d="M24 394c-11 0 -17 12 -17 23v5c0 11 5 23 16 23h70v20c0 117 86 196 206 196c74 0 133 -34 169 -62c37 39 91 62 155 62c49 0 87 -14 118 -33v18c0 11 15 17 27 17h7c12 0 27 -6 27 -17v-642c0 -11 -15 -17 -28 -17h-6c-13 0 -27 6 -27 17v574c-30 21 -64 39 -110 39
c-92 0 -153 -62 -153 -156v-16h157c11 0 16 -12 16 -23v-6c0 -11 -5 -22 -16 -22h-157v-390c0 -11 -15 -17 -28 -17h-6c-13 0 -27 6 -27 17v390h-264v-390c0 -11 -14 -17 -27 -17h-6c-13 0 -27 6 -27 17v390h-69zM153 461v-16h264v20c0 38 9 71 25 100
c-30 24 -78 52 -135 52c-92 0 -154 -62 -154 -156z" />
    <glyph glyph-name="f_h" unicode="fh" horiz-adv-x="924" 
d="M24 394c-11 0 -17 12 -17 23v5c0 11 5 23 16 23h70v20c0 117 86 196 206 196c49 0 87 -15 118 -34v27c0 11 14 17 27 17h6c13 0 28 -6 28 -17v-300c31 66 97 111 178 111c113 0 186 -76 186 -194v-267c0 -11 -15 -17 -28 -17h-6c-12 0 -27 6 -27 17v256
c0 97 -57 159 -144 159c-95 0 -159 -81 -159 -173v-242c0 -11 -15 -17 -28 -17h-6c-13 0 -27 6 -27 17v574c-30 21 -64 39 -110 39c-92 0 -154 -62 -154 -156v-16h157c11 0 17 -12 17 -23v-6c0 -11 -6 -22 -17 -22h-157v-390c0 -11 -14 -17 -27 -17h-6c-13 0 -27 6 -27 17
v390h-69z" />
    <glyph glyph-name="f_j" unicode="fj" horiz-adv-x="560" 
d="M24 394c-11 0 -17 12 -17 23v5c0 11 5 23 16 23h70v13c0 121 87 205 217 205c62 0 108 -20 143 -44c11 -6 17 -18 13 -31c-4 -12 -15 -18 -26 -13c-32 22 -72 42 -125 42c-97 0 -162 -62 -162 -161v-11h297c13 0 28 -6 28 -17v-500c0 -72 -57 -118 -128 -118
c-20 0 -41 4 -57 9c-12 5 -18 16 -14 30s14 18 24 15c13 -4 26 -7 41 -7c43 0 73 30 73 72v465h-264v-390c0 -11 -14 -17 -27 -17h-6c-13 0 -27 6 -27 17v390h-69z" />
    <glyph glyph-name="f_k" unicode="fk" horiz-adv-x="851" 
d="M24 394c-11 0 -17 12 -17 23v5c0 11 5 23 16 23h70v20c0 117 86 196 206 196c49 0 87 -15 118 -34v27c0 11 14 17 27 17h6c13 0 28 -6 28 -17v-397h18c108 0 255 139 255 183c0 11 13 17 24 17h6c13 0 26 -7 26 -18c0 -52 -100 -156 -211 -205c113 -51 223 -168 223 -228
c0 -11 -13 -18 -27 -18h-8c-13 0 -26 6 -26 17c0 47 -154 205 -267 205h-13v-206c0 -11 -15 -17 -28 -17h-6c-13 0 -27 6 -27 17v574c-30 21 -64 39 -110 39c-92 0 -154 -62 -154 -156v-16h157c11 0 17 -12 17 -23v-6c0 -11 -6 -22 -17 -22h-157v-390c0 -11 -14 -17 -27 -17
h-6c-13 0 -27 6 -27 17v390h-69z" />
    <glyph glyph-name="f_l" unicode="fl" horiz-adv-x="560" 
d="M24 394c-11 0 -17 12 -17 23v5c0 11 5 23 16 23h70v20c0 117 86 196 206 196c49 0 87 -15 118 -34v27c0 11 14 17 27 17h6c13 0 28 -6 28 -17v-650c0 -11 -15 -17 -28 -17h-6c-13 0 -27 6 -27 17v574c-30 21 -64 39 -110 39c-92 0 -154 -62 -154 -156v-16h157
c11 0 17 -12 17 -23v-6c0 -11 -6 -22 -17 -22h-157v-390c0 -11 -14 -17 -27 -17h-6c-13 0 -27 6 -27 17v390h-69z" />
    <glyph glyph-name="fi" unicode="fi" horiz-adv-x="560" 
d="M24 394c-11 0 -17 12 -17 23v5c0 11 5 23 16 23h70v13c0 121 87 205 217 205c62 0 108 -20 143 -44c11 -6 17 -18 13 -31c-4 -12 -15 -18 -26 -13c-32 22 -72 42 -125 42c-97 0 -162 -62 -162 -161v-11h297c13 0 28 -6 28 -17v-424c0 -11 -15 -17 -28 -17h-6
c-13 0 -27 6 -27 17v390h-264v-390c0 -11 -14 -17 -27 -17h-6c-13 0 -27 6 -27 17v390h-69z" />
    <glyph glyph-name="logoalpina_1" unicode="&#x40;LP" horiz-adv-x="1802" 
d="M900 750c581 0 830 -187 830 -432c0 -263 -489 -568 -829 -568c-341 0 -829 305 -829 568c0 245 247 432 828 432zM551 518c10 -10 28 -1 28 16c0 14 -17 38 -52 49c-100 32 -246 -36 -312 -158c-53 -99 -28 -177 15 -196c49 -22 107 9 186 96c-8 -19 -14 -38 -14 -53
c0 -14 10 -27 23 -34c25 -13 70 3 123 70v-14c1 -18 13 -33 27 -40c21 -11 72 6 144 97c-40 -77 -90 -154 -90 -172c0 -20 11 -32 26 -39c13 -6 24 0 28 12c8 26 46 103 77 163c52 94 119 167 139 161c16 -5 14 -41 -9 -86s-67 -78 -104 -69c-12 3 -17 -8 -15 -17
c2 -14 13 -26 24 -30c10 -4 22 -4 36 0c39 12 85 42 132 91c-15 -27 -26 -50 -26 -59c0 -18 12 -31 27 -37c25 -9 63 15 111 76c-10 -19 -16 -34 -16 -41c0 -17 8 -35 27 -40c9 -3 16 2 18 11c1 8 4 19 11 31c74 128 146 162 157 162c19 0 -86 -138 -86 -169
c0 -19 10 -35 28 -40c21 -6 48 7 97 62c-2 -12 -2 -23 -1 -32c3 -30 19 -42 37 -47c16 -5 45 7 95 55c-4 -13 -6 -25 -6 -36c0 -15 13 -30 27 -35c40 -15 100 27 133 73c9 13 3 29 -4 34c-6 4 -13 1 -19 -6c-31 -37 -57 -55 -70 -49c-12 6 -8 31 8 64c16 30 62 105 63 118
c1 12 -10 28 -22 33s-19 -2 -23 -11c-2 -5 -5 -11 -7 -15c-7 16 -24 32 -50 32c-46 0 -85 -31 -122 -85c-2 -3 -5 -8 -5 -8c-55 -70 -83 -92 -91 -87c-10 6 84 139 84 156c0 24 -20 44 -40 44c-17 0 -69 -26 -120 -83c11 24 20 44 20 52c0 15 -11 26 -27 32
c-10 3 -16 0 -19 -10c-1 -6 -4 -15 -8 -24c-45 -101 -124 -164 -134 -159c-12 6 9 37 29 74c17 35 38 65 38 78c0 20 -12 31 -28 38c-9 4 -14 0 -16 -9s-6 -20 -13 -33c-18 -34 -54 -75 -89 -106c3 4 5 7 8 13c41 81 24 132 -15 142c-22 6 -62 -29 -104 -80
c14 30 23 52 23 57c0 17 -13 34 -27 40c-10 3 -18 0 -21 -10c-5 -16 -11 -34 -18 -53c-59 -113 -141 -167 -154 -162c-11 4 -17 14 -8 45c88 82 133 143 160 191c28 51 21 91 -17 101c-43 11 -89 -37 -144 -164c-16 -38 -29 -70 -40 -96c-57 -73 -85 -94 -98 -89
c-14 5 -13 17 8 63c20 43 48 82 48 97c0 19 -17 40 -30 40c-9 0 -15 -5 -24 -22c-84 -150 -164 -207 -200 -193c-24 9 -36 52 1 123c44 83 145 147 236 123c16 -4 28 -10 36 -17zM1084 625c-21 -10 -23 -70 -5 -76c18 -9 60 15 60 41c0 18 -35 39 -55 35zM654 453
c55 112 74 145 88 141c8 -2 10 -15 -4 -38c-18 -30 -40 -67 -94 -125c3 7 6 14 10 22zM1505 433c-55 -104 -110 -141 -128 -136c-16 5 -20 43 9 89c31 50 62 70 86 70c18 0 33 -10 33 -23zM1283 -50l-80 26l-53 39l-34 -11l-41 43l-31 21l-42 78l-51 52l-51 14l-28 -26
l-19 -39l-43 -29l-29 -68l-102 -64l-44 6l-52 -43l-43 12l-23 -10c52 -25 102 -49 181 -74l-67 52l8 23l112 -88l45 -9l-124 97l21 12l148 -116l38 -3l-146 114l57 -16l124 -98l33 2l-129 100l16 15l144 -112l29 5l-156 123l16 14l131 -104l-25 48l-89 70l17 13l42 -32
l-1 28l-24 19l20 15l-11 46l15 38l-34 53l30 -9l42 -44l36 -79l40 -29l79 -82l19 38l38 -27l57 -20z" />
    <glyph glyph-name="logoalpina_2" unicode="F&#x40;LP" horiz-adv-x="1802" 
d="M900 750c581 0 830 -187 830 -432c0 -264 -489 -568 -829 -568c-342 0 -829 304 -829 568c0 245 247 432 828 432zM1104 -102l-306 240l33 29l270 -213l-52 98l-183 144l35 27l87 -66l-2 58l-49 39l41 31l-23 97l31 78l-70 109l62 -19l85 -90l75 -165l84 -60l163 -169
l40 79l57 -41c11 9 25 23 36 35l-102 76l-70 -23l-84 89l-66 45l-87 161l-104 107l-106 28l-57 -53l-40 -80l-88 -60l-60 -142l-210 -132l-90 12l-54 -43c92 -89 213 -160 348 -209l-218 170l43 25l293 -229c27 -6 57 -11 87 -14l-298 232l117 -33l256 -201c22 2 49 5 64 7
l-262 202l33 31l285 -222c20 5 38 10 56 15z" />
    <glyph glyph-name=".notdef" horiz-adv-x="686" 
d="M86 -170v810h513v-810h-513zM144 -117h398v704h-398v-704z" />
    <glyph glyph-name="A" unicode="A" horiz-adv-x="598" 
d="M85 8c0 -11 -14 -17 -25 -17h-7c-13 0 -26 7 -26 18c0 173 125 475 229 585c9 10 24 13 45 13c20 0 35 -3 43 -13c102 -110 228 -412 228 -585c0 -11 -14 -18 -27 -18h-8c-13 0 -27 6 -27 17c0 56 -16 134 -42 216h-341c-26 -82 -42 -160 -42 -216zM144 274h306
c-40 110 -96 220 -154 289c-58 -70 -113 -180 -152 -289z" />
    <glyph glyph-name="Aacute" unicode="&#xc1;" horiz-adv-x="598" 
d="M317 662c-8 -10 -16 -16 -28 -16h-6c-11 0 -22 7 -17 16l75 107c7 10 21 16 36 16h5c15 0 27 -10 21 -17zM85 8c0 -11 -14 -17 -25 -17h-7c-13 0 -26 7 -26 18c0 173 125 475 229 585c9 10 24 13 45 13c20 0 35 -3 43 -13c102 -110 228 -412 228 -585
c0 -11 -14 -18 -27 -18h-8c-13 0 -27 6 -27 17c0 56 -16 134 -42 216h-341c-26 -82 -42 -160 -42 -216zM144 274h306c-40 110 -96 220 -154 289c-58 -70 -113 -180 -152 -289z" />
    <glyph glyph-name="B" unicode="B" horiz-adv-x="519" 
d="M87 589c0 11 9 16 19 16h153c99 0 194 -55 194 -157c0 -69 -46 -118 -112 -140c75 -19 134 -69 134 -153c0 -107 -101 -163 -207 -163h-162c-10 0 -19 7 -19 17v580zM255 558h-105v-230h107c80 0 134 46 134 116c0 77 -72 114 -136 114zM265 285h-115v-247h115
c79 0 149 41 149 121c0 82 -76 126 -149 126z" />
    <glyph glyph-name="C" unicode="C" horiz-adv-x="649" 
d="M594 503c5 -10 0 -24 -13 -32c-13 -9 -27 -6 -33 2c-39 58 -105 93 -189 93c-158 0 -240 -124 -240 -269c0 -143 88 -267 240 -267c93 0 167 42 200 107c4 9 19 12 33 5c12 -7 17 -18 13 -29c-38 -80 -133 -134 -248 -134c-193 0 -303 145 -303 318
c0 174 111 320 304 320c106 0 194 -44 236 -114z" />
    <glyph glyph-name="C.alt" horiz-adv-x="651" 
d="M598 60c-49 -47 -124 -81 -234 -81c-193 0 -310 145 -310 318c0 174 112 320 302 320c134 0 236 -78 236 -192c0 -99 -77 -155 -166 -155c-17 0 -29 8 -29 24c0 10 5 19 16 19c66 0 120 39 120 111c0 83 -81 142 -174 142c-155 0 -240 -124 -240 -266
c0 -145 101 -270 255 -270c94 0 154 28 201 70c9 8 20 3 27 -7c5 -10 6 -24 -4 -33z" />
    <glyph glyph-name="D" unicode="D" horiz-adv-x="664" 
d="M287 -8h-181c-10 0 -19 7 -19 17v580c0 11 9 16 19 16h177c193 0 328 -132 328 -308c0 -174 -130 -305 -324 -305zM281 555h-131v-514h135c159 0 261 110 261 256c0 148 -113 258 -265 258z" />
    <glyph glyph-name="E" unicode="E" horiz-adv-x="505" 
d="M87 589c0 11 9 16 19 16h318c10 0 17 -13 17 -24v-4c0 -10 -7 -22 -17 -22h-274v-221h262c10 0 17 -13 17 -24v-4c0 -11 -7 -23 -17 -23h-262v-241h284c10 0 17 -12 17 -23v-4c0 -11 -7 -23 -17 -23h-328c-10 0 -19 7 -19 17v580z" />
    <glyph glyph-name="E.alt" horiz-adv-x="509" 
d="M260 -21c-131 0 -216 64 -216 166c0 76 56 141 168 163c-95 19 -152 70 -152 150c0 94 87 159 198 159c107 0 165 -51 195 -105c7 -9 10 -23 2 -34c-8 -12 -23 -15 -32 -6c-27 47 -69 94 -158 94c-82 0 -144 -46 -144 -115c0 -73 79 -124 210 -124c12 0 16 -11 16 -20v-5
c0 -12 -6 -20 -17 -20c-154 0 -225 -61 -225 -133c0 -73 68 -119 158 -119c92 0 151 47 179 95c8 8 23 3 30 -9c8 -13 7 -26 -1 -35c-30 -53 -108 -102 -211 -102z" />
    <glyph glyph-name="Eacute" unicode="&#xc9;" horiz-adv-x="505" 
d="M247 662c-8 -10 -16 -16 -28 -16h-6c-11 0 -22 7 -17 16l75 107c7 10 21 16 36 16h5c15 0 27 -10 21 -17zM87 589c0 11 9 16 19 16h318c10 0 17 -13 17 -24v-4c0 -10 -7 -22 -17 -22h-274v-221h262c10 0 17 -13 17 -24v-4c0 -11 -7 -23 -17 -23h-262v-241h284
c10 0 17 -12 17 -23v-4c0 -11 -7 -23 -17 -23h-328c-10 0 -19 7 -19 17v580z" />
    <glyph glyph-name="Eacute.alt" horiz-adv-x="509" 
d="M270 662c-8 -10 -16 -16 -28 -16h-6c-11 0 -22 7 -17 16l75 107c7 10 21 16 36 16h5c15 0 27 -10 21 -17zM260 -21c-131 0 -216 64 -216 166c0 76 56 141 168 163c-95 19 -152 70 -152 150c0 94 87 159 198 159c107 0 165 -51 195 -105c7 -9 10 -23 2 -34
c-8 -12 -23 -15 -32 -6c-27 47 -69 94 -158 94c-82 0 -144 -46 -144 -115c0 -73 79 -124 210 -124c12 0 16 -11 16 -20v-5c0 -12 -6 -20 -17 -20c-154 0 -225 -61 -225 -133c0 -73 68 -119 158 -119c92 0 151 47 179 95c8 8 23 3 30 -9c8 -13 7 -26 -1 -35
c-30 -53 -108 -102 -211 -102z" />
    <glyph glyph-name="Euro" unicode="&#x20ac;" horiz-adv-x="661" 
d="M15 224c-9 0 -15 9 -15 18v4c0 8 6 18 15 18h52c-1 11 -1 22 -1 33s0 22 1 32h-52c-9 0 -15 10 -15 18v4c0 9 6 18 15 18h58c26 140 131 248 297 248c106 0 194 -44 236 -114c5 -10 0 -24 -13 -32c-13 -9 -27 -6 -33 2c-39 58 -105 93 -189 93c-131 0 -210 -85 -233 -197
h297c9 0 15 -9 15 -18v-4c0 -9 -6 -18 -15 -18h-303c-1 -10 -1 -21 -1 -32s1 -22 2 -33h302c9 0 15 -10 15 -19v-3c0 -9 -6 -18 -15 -18h-296c25 -110 107 -194 232 -194c93 0 167 42 200 107c4 9 19 12 33 5c12 -7 17 -18 13 -29c-38 -80 -133 -134 -248 -134
c-165 0 -269 106 -296 245h-58z" />
    <glyph glyph-name="F" unicode="F" horiz-adv-x="494" 
d="M150 4c0 -10 -15 -17 -28 -17h-7c-13 0 -28 7 -28 17v585c0 11 9 16 19 16h318c10 0 17 -13 17 -24v-4c0 -10 -7 -22 -17 -22h-274v-240h262c10 0 17 -12 17 -23v-4c0 -11 -7 -23 -17 -23h-262v-261z" />
    <glyph glyph-name="G" unicode="G" horiz-adv-x="670" 
d="M370 30c116 0 200 68 200 154v60h-192c-9 0 -15 12 -15 22v4c0 11 6 22 15 22h232c9 0 17 -6 17 -16v-99c0 -107 -106 -198 -263 -198c-199 0 -310 145 -310 316c0 176 117 322 310 322c106 0 197 -45 241 -114c6 -9 1 -24 -12 -32c-14 -9 -27 -6 -33 2
c-40 56 -110 93 -195 93c-159 0 -246 -124 -246 -269c0 -146 91 -267 251 -267z" />
    <glyph glyph-name="H" unicode="H" horiz-adv-x="677" 
d="M87 588c0 11 15 18 28 18h8c13 0 27 -7 27 -18v-249h378v249c0 11 14 18 27 18h7c13 0 28 -7 28 -18v-579c0 -11 -15 -18 -28 -18h-7c-13 0 -27 7 -27 18v275h-378v-275c0 -11 -15 -18 -28 -18h-7c-13 0 -28 7 -28 18v579z" />
    <glyph glyph-name="I" unicode="I" horiz-adv-x="238" 
d="M87 587c0 11 15 19 28 19h8c13 0 27 -7 27 -18v-579c0 -11 -15 -18 -28 -18h-7c-13 0 -28 7 -28 18v578z" />
    <glyph glyph-name="Iacute" unicode="&#xcd;" horiz-adv-x="238" 
d="M137 662c-8 -10 -16 -16 -28 -16h-6c-11 0 -22 7 -17 16l75 107c7 10 21 16 36 16h5c15 0 27 -10 21 -17zM87 587c0 11 15 19 28 19h8c13 0 27 -7 27 -18v-579c0 -11 -15 -18 -28 -18h-7c-13 0 -28 7 -28 18v578z" />
    <glyph glyph-name="J" unicode="J" horiz-adv-x="482" 
d="M400 163c0 -109 -87 -184 -193 -184c-93 0 -149 51 -180 105c-7 10 -9 25 1 37s23 13 30 6c27 -45 65 -93 145 -93c71 0 134 55 134 133v420c0 11 15 19 28 19h7c14 0 28 -7 28 -18v-425z" />
    <glyph glyph-name="J.alt" horiz-adv-x="533" 
d="M436 177c0 -117 -86 -197 -197 -197c-88 0 -151 44 -184 98c-7 7 -9 21 -1 33c7 12 18 15 25 9c28 -45 74 -90 152 -90c81 0 143 62 143 145c0 64 -26 216 -26 286c0 44 18 71 42 91h-353c-10 0 -16 13 -16 25v4c0 12 6 24 16 24h478c10 0 18 -13 18 -24v-5
c0 -11 -6 -24 -17 -24h-57c-31 -22 -48 -45 -48 -88c0 -58 25 -218 25 -287z" />
    <glyph glyph-name="K" unicode="K" horiz-adv-x="581" 
d="M474 5c0 90 -174 275 -281 275h-43v-271c0 -11 -15 -18 -28 -18h-7c-13 0 -28 7 -28 18v578c0 11 15 19 28 19h8c13 0 27 -7 27 -18v-257h42c104 0 272 169 272 252c0 13 15 20 28 20h7c15 0 29 -8 29 -21c0 -75 -100 -209 -235 -276c139 -69 245 -216 245 -300
c0 -11 -14 -18 -29 -18h-6c-14 0 -29 6 -29 17z" />
    <glyph glyph-name="K.alt" horiz-adv-x="581" 
d="M569 -3c-13 -4 -27 -7 -45 -7c-94 0 -187 68 -270 312c-33 -11 -68 -17 -104 -18v-275c0 -11 -15 -18 -28 -18h-7c-13 0 -28 7 -28 18v578c0 11 15 19 28 19h8c13 0 27 -7 27 -18v-252h1c155 0 313 164 313 247c0 13 15 20 28 20h7c15 0 29 -8 29 -21
c0 -79 -91 -197 -218 -258c75 -216 161 -276 220 -276c10 0 19 1 28 3c12 2 19 -9 22 -22c3 -14 -1 -28 -11 -32z" />
    <glyph glyph-name="L" unicode="L" horiz-adv-x="461" 
d="M87 587c0 11 15 19 28 19h8c13 0 27 -7 27 -18v-542h284c10 0 17 -13 17 -25v-5c0 -11 -7 -24 -17 -24h-328c-10 0 -19 7 -19 17v578z" />
    <glyph glyph-name="L.alt" horiz-adv-x="533" 
d="M97 420c0 117 86 197 197 197c88 0 151 -44 184 -98c7 -7 9 -21 1 -33c-7 -12 -18 -15 -25 -9c-28 45 -74 90 -152 90c-81 0 -143 -62 -143 -145c0 -64 26 -216 26 -286c0 -44 -18 -71 -42 -91h353c10 0 16 -13 16 -25v-4c0 -12 -6 -24 -16 -24h-478c-10 0 -18 13 -18 24
v5c0 11 6 24 17 24h57c31 22 48 45 48 88c0 58 -25 218 -25 287z" />
    <glyph glyph-name="M" unicode="M" horiz-adv-x="845" 
d="M147 4c0 -10 -13 -17 -27 -17h-7c-13 0 -26 7 -26 17v583c0 13 12 23 28 23h18c107 0 242 -169 291 -417c49 248 185 417 292 417h14c16 0 28 -10 28 -23v-583c0 -10 -13 -17 -26 -17h-7c-14 0 -27 7 -27 17v551c-116 -53 -236 -285 -247 -551c0 -10 -13 -17 -25 -17h-7
c-12 0 -25 7 -25 17c-11 266 -131 498 -247 551v-551z" />
    <glyph glyph-name="N" unicode="N" horiz-adv-x="700" 
d="M356 330c81 -155 139 -250 197 -280v542c0 11 13 18 26 18h8c13 0 25 -7 25 -18v-584c0 -13 -13 -21 -26 -21h-9c-88 0 -163 107 -252 282c-87 167 -140 254 -197 281v-543c0 -11 -13 -18 -26 -18h-8c-13 0 -25 7 -25 18v584c0 13 13 21 26 21h9c90 0 155 -95 252 -282z
" />
    <glyph glyph-name="Ntilde" unicode="&#xd1;" horiz-adv-x="700" 
d="M186 658c-10 7 -10 16 -7 24c20 39 50 73 106 73c68 0 93 -47 143 -47c35 0 57 19 75 49c5 7 16 11 26 4c11 -7 11 -16 7 -24c-19 -40 -49 -73 -105 -73c-68 0 -93 47 -143 47c-36 0 -57 -19 -76 -49c-4 -7 -15 -11 -26 -4zM356 330c81 -155 139 -250 197 -280v542
c0 11 13 18 26 18h8c13 0 25 -7 25 -18v-584c0 -13 -13 -21 -26 -21h-9c-88 0 -163 107 -252 282c-87 167 -140 254 -197 281v-543c0 -11 -13 -18 -26 -18h-8c-13 0 -25 7 -25 18v584c0 13 13 21 26 21h9c90 0 155 -95 252 -282z" />
    <glyph glyph-name="O" unicode="O" horiz-adv-x="717" 
d="M358 -21c-193 0 -304 145 -304 318c0 174 111 320 304 320c194 0 305 -145 305 -318c0 -174 -111 -320 -305 -320zM358 28c160 0 240 124 240 271c0 144 -87 269 -240 269c-159 0 -239 -125 -239 -271c0 -145 87 -269 239 -269z" />
    <glyph glyph-name="O.alt" horiz-adv-x="717" 
d="M358 -21c-193 0 -304 145 -304 316c0 55 11 109 34 156c5 12 23 14 38 9c16 -6 26 -16 22 -27c-20 -42 -29 -89 -29 -137c0 -143 87 -268 239 -268c160 0 240 124 240 271c0 144 -88 268 -228 268c-100 0 -147 -74 -147 -136c0 -64 45 -129 134 -129c10 0 16 -10 15 -23
c-1 -14 -9 -23 -25 -23c-117 0 -180 76 -180 174c0 92 77 187 204 187c181 0 292 -145 292 -318c0 -174 -111 -320 -305 -320z" />
    <glyph glyph-name="Oacute" unicode="&#xd3;" horiz-adv-x="717" 
d="M341 662c-8 -10 -16 -16 -28 -16h-6c-11 0 -22 7 -17 16l75 107c7 10 21 16 36 16h5c15 0 27 -10 21 -17zM358 -21c-193 0 -304 145 -304 318c0 174 111 320 304 320c194 0 305 -145 305 -318c0 -174 -111 -320 -305 -320zM358 28c160 0 240 124 240 271
c0 144 -87 269 -240 269c-159 0 -239 -125 -239 -271c0 -145 87 -269 239 -269z" />
    <glyph glyph-name="Oacute.alt" horiz-adv-x="717" 
d="M348 662c-8 -10 -16 -16 -28 -16h-6c-11 0 -22 7 -17 16l75 107c7 10 21 16 36 16h5c15 0 27 -10 21 -17zM358 -21c-193 0 -304 145 -304 316c0 55 11 109 34 156c5 12 23 14 38 9c16 -6 26 -16 22 -27c-20 -42 -29 -89 -29 -137c0 -143 87 -268 239 -268
c160 0 240 124 240 271c0 144 -88 268 -228 268c-100 0 -147 -74 -147 -136c0 -64 45 -129 134 -129c10 0 16 -10 15 -23c-1 -14 -9 -23 -25 -23c-117 0 -180 76 -180 174c0 92 77 187 204 187c181 0 292 -145 292 -318c0 -174 -111 -320 -305 -320z" />
    <glyph glyph-name="P" unicode="P" horiz-adv-x="508" 
d="M268 239h-118v-230c0 -11 -15 -18 -28 -18h-7c-13 0 -28 7 -28 18v580c0 11 9 16 19 16h159c111 0 201 -71 201 -184c0 -111 -87 -182 -198 -182zM260 557h-110v-270h113c81 0 140 55 140 134c0 83 -68 136 -143 136z" />
    <glyph glyph-name="Q" unicode="Q" horiz-adv-x="717" 
d="M358 -21c-193 0 -304 145 -304 318c0 174 111 320 304 320c194 0 305 -145 305 -318c0 -74 -20 -144 -59 -198c30 -35 47 -71 47 -97c0 -10 -10 -16 -22 -16h-8c-11 0 -22 5 -22 16c0 14 -10 35 -28 57c-51 -51 -123 -82 -213 -82zM358 28c76 0 135 28 174 74
c-45 40 -108 76 -171 76c-9 0 -17 11 -17 21v4c0 10 7 21 17 21c76 0 147 -36 200 -81c25 45 37 99 37 156c0 144 -87 269 -240 269c-159 0 -239 -125 -239 -271c0 -145 87 -269 239 -269z" />
    <glyph glyph-name="Q.alt" horiz-adv-x="716" 
d="M636 -179c-16 -5 -30 -7 -50 -7c-95 0 -254 57 -313 188h1c-2 4 -2 8 0 13c4 10 14 17 25 14c15 -4 31 -6 48 -6c161 0 251 129 251 275c0 145 -88 270 -241 270c-160 0 -240 -132 -240 -249c0 -120 61 -211 157 -211c72 0 123 49 123 109c0 10 8 16 19 16s19 -6 20 -17
c4 -88 -70 -159 -173 -159c-130 0 -209 118 -209 262c0 150 111 298 304 298c194 0 305 -145 305 -318c0 -174 -120 -317 -314 -317h-7c62 -84 179 -116 243 -116c15 0 28 1 40 4c12 2 19 -6 23 -20c3 -14 -1 -26 -12 -29z" />
    <glyph glyph-name="R" unicode="R" horiz-adv-x="543" 
d="M87 589c0 11 9 16 19 16h159c111 0 201 -71 201 -184c0 -87 -54 -150 -130 -172c109 -64 163 -181 163 -240c0 -11 -13 -18 -27 -18h-8c-13 0 -26 6 -26 17c0 41 -51 161 -173 231h-115v-230c0 -11 -15 -18 -28 -18h-7c-13 0 -28 7 -28 18v580zM260 557h-110v-270h113
c81 0 140 55 140 134c0 83 -68 136 -143 136z" />
    <glyph glyph-name="R.alt" horiz-adv-x="544" 
d="M529 -3c-13 -4 -27 -7 -45 -7c-85 0 -163 58 -224 249h-110v-230c0 -11 -15 -18 -28 -18h-7c-13 0 -28 7 -28 18v580c0 11 9 16 19 16h159c111 0 201 -71 201 -184c0 -93 -61 -158 -145 -176c53 -151 118 -197 169 -197c10 0 19 1 28 3c12 2 19 -9 22 -22
c3 -14 -1 -28 -11 -32zM260 557h-110v-270h113c81 0 140 55 140 134c0 83 -68 136 -143 136z" />
    <glyph glyph-name="S" unicode="S" horiz-adv-x="538" 
d="M266 -21c-101 0 -175 54 -208 108c-7 9 -8 24 0 35c7 13 20 19 29 10c28 -46 88 -102 176 -102c93 0 160 57 160 125s-54 104 -170 128c-121 24 -180 65 -180 159c0 104 85 175 205 175c92 0 160 -46 193 -102c7 -9 8 -22 1 -34c-8 -13 -22 -18 -31 -11
c-28 47 -80 96 -163 96c-86 0 -145 -50 -145 -119s57 -95 170 -117c124 -24 182 -76 182 -170c0 -104 -90 -181 -219 -181z" />
    <glyph glyph-name="T" unicode="T" horiz-adv-x="545" 
d="M28 550c-11 0 -18 13 -18 25v5c0 11 6 25 17 25h491c10 0 17 -14 17 -25v-5c0 -12 -7 -25 -17 -25h-214v-546c0 -10 -15 -17 -28 -17h-7c-14 0 -28 7 -28 17v546h-213z" />
    <glyph glyph-name="U" unicode="U" horiz-adv-x="669" 
d="M334 -21c-150 0 -252 110 -252 234v375c0 11 15 18 28 18h7c13 0 28 -8 28 -19v-375c0 -93 81 -180 189 -180c107 0 190 87 190 180v375c0 11 15 19 28 19h7c13 0 28 -7 28 -18v-375c0 -124 -104 -234 -253 -234z" />
    <glyph glyph-name="Uacute" unicode="&#xda;" horiz-adv-x="669" 
d="M340 662c-8 -10 -16 -16 -28 -16h-6c-11 0 -22 7 -17 16l75 107c7 10 21 16 36 16h5c15 0 27 -10 21 -17zM334 -21c-150 0 -252 110 -252 234v375c0 11 15 18 28 18h7c13 0 28 -8 28 -19v-375c0 -93 81 -180 189 -180c107 0 190 87 190 180v375c0 11 15 19 28 19h7
c13 0 28 -7 28 -18v-375c0 -124 -104 -234 -253 -234z" />
    <glyph glyph-name="Udieresis" unicode="&#xdc;" horiz-adv-x="669" 
d="M267 665c-24 0 -38 16 -38 37c0 20 14 36 38 36c23 0 38 -16 38 -36c0 -21 -15 -37 -38 -37zM415 665c-24 0 -38 16 -38 37c0 20 14 36 38 36c23 0 38 -16 38 -36c0 -21 -15 -37 -38 -37zM334 -21c-150 0 -252 110 -252 234v375c0 11 15 18 28 18h7c13 0 28 -8 28 -19
v-375c0 -93 81 -180 189 -180c107 0 190 87 190 180v375c0 11 15 19 28 19h7c13 0 28 -7 28 -18v-375c0 -124 -104 -234 -253 -234z" />
    <glyph glyph-name="V" unicode="V" horiz-adv-x="598" 
d="M343 0c-9 -10 -25 -13 -45 -13s-36 4 -44 14c-102 111 -227 413 -227 586c0 12 14 19 27 19h8c12 0 26 -6 26 -18c0 -141 104 -419 214 -552c109 135 212 411 212 552c0 12 13 18 25 18h7c13 0 26 -7 26 -19c0 -173 -125 -476 -229 -587z" />
    <glyph glyph-name="W" unicode="W" horiz-adv-x="947" 
d="M752 1c-8 -11 -23 -14 -43 -14c-21 0 -42 5 -46 19l-189 537l-190 -537c-4 -14 -25 -19 -46 -19c-20 0 -35 3 -43 14c-102 142 -161 400 -161 586c0 12 14 19 27 19h8c12 0 26 -6 26 -18c0 -151 42 -383 144 -542l190 539c4 13 22 21 46 21c23 0 40 -8 43 -21l190 -540
c103 160 144 392 144 543c0 12 14 18 26 18h8c13 0 27 -7 27 -19c0 -186 -59 -444 -161 -586z" />
    <glyph glyph-name="X" unicode="X" horiz-adv-x="608" 
d="M107 8c0 -10 -14 -17 -28 -17h-6c-15 0 -29 8 -29 18c0 82 69 214 208 292c-132 81 -198 211 -198 284c0 12 14 21 29 21h6c14 0 28 -8 28 -20c0 -50 54 -174 185 -249c141 78 188 201 188 249c0 12 15 20 29 20h6c15 0 29 -9 29 -21c0 -72 -61 -201 -198 -277
c143 -84 208 -215 208 -299c0 -10 -14 -18 -29 -18h-6c-14 0 -28 7 -28 17c0 60 -54 184 -195 263c-144 -79 -199 -205 -199 -263z" />
    <glyph glyph-name="Y" unicode="Y" horiz-adv-x="595" 
d="M328 4c0 -10 -15 -17 -28 -17h-7c-13 0 -28 7 -28 17v228c-154 86 -233 277 -233 353c0 12 13 21 28 21h6c14 0 28 -8 28 -20c0 -50 60 -213 204 -308c143 95 203 258 203 308c0 12 14 20 28 20h6c15 0 28 -9 28 -21c0 -76 -79 -267 -235 -354v-227z" />
    <glyph glyph-name="Z" unicode="Z" horiz-adv-x="603" 
d="M542 575c0 -231 -404 -319 -435 -529h436c10 0 17 -13 17 -25v-5c0 -11 -7 -24 -17 -24h-482c-10 0 -17 13 -17 25v4c0 246 405 336 434 529h-398c-11 0 -18 13 -18 25v5c0 11 6 25 17 25h446c10 0 17 -14 17 -25v-5z" />
    <glyph glyph-name="a" unicode="a" horiz-adv-x="587" 
d="M506 6c0 -12 -15 -17 -28 -17h-6c-13 0 -27 5 -27 17v87c-31 -67 -99 -113 -185 -113c-139 0 -217 104 -217 241c0 135 86 244 225 244c80 0 147 -40 177 -105v79c0 12 14 17 27 17h6c13 0 28 -5 28 -17v-433zM281 421c-115 0 -178 -90 -178 -199
c0 -108 58 -197 171 -197c107 0 171 83 171 176v52c0 92 -65 168 -164 168z" />
    <glyph glyph-name="a.alt" horiz-adv-x="612" 
d="M260 -20c-139 0 -217 104 -217 241c0 135 86 244 225 244c80 0 147 -40 177 -105v80c0 11 14 17 27 17h6c13 0 28 -6 28 -17v-330c0 -54 29 -76 83 -76c11 0 18 -8 18 -21c0 -14 -13 -26 -36 -26h-14c-68 0 -112 41 -112 104v2c-31 -67 -99 -113 -185 -113zM103 222
c0 -108 58 -197 171 -197c107 0 171 83 171 176v52c0 92 -65 168 -164 168c-115 0 -178 -90 -178 -199z" />
    <glyph glyph-name="aacute" unicode="&#xe1;" horiz-adv-x="587" 
d="M297 522c-7 -10 -16 -17 -28 -17h-6c-11 0 -21 8 -17 17l67 124c6 12 21 17 34 17h6c13 0 27 -9 22 -18zM506 6c0 -12 -15 -17 -28 -17h-6c-13 0 -27 5 -27 17v87c-31 -67 -99 -113 -185 -113c-139 0 -217 104 -217 241c0 135 86 244 225 244c80 0 147 -40 177 -105v79
c0 12 14 17 27 17h6c13 0 28 -5 28 -17v-433zM281 421c-115 0 -178 -90 -178 -199c0 -108 58 -197 171 -197c107 0 171 83 171 176v52c0 92 -65 168 -164 168z" />
    <glyph glyph-name="aacute.alt" horiz-adv-x="612" 
d="M296 522c-7 -10 -16 -17 -28 -17h-6c-11 0 -21 8 -17 17l67 124c6 12 21 17 34 17h6c13 0 27 -9 22 -18zM260 -20c-139 0 -217 104 -217 241c0 135 86 244 225 244c80 0 147 -40 177 -105v80c0 11 14 17 27 17h6c13 0 28 -6 28 -17v-330c0 -54 29 -76 83 -76
c11 0 18 -8 18 -21c0 -14 -13 -26 -36 -26h-14c-68 0 -112 41 -112 104v2c-31 -67 -99 -113 -185 -113zM103 222c0 -108 58 -197 171 -197c107 0 171 83 171 176v52c0 92 -65 168 -164 168c-115 0 -178 -90 -178 -199z" />
    <glyph glyph-name="acute" unicode="&#xb4;" 
d="M236 522c-7 -10 -16 -17 -28 -17h-6c-11 0 -21 8 -17 17l67 124c6 12 21 17 34 17h6c13 0 27 -9 22 -18z" />
    <glyph glyph-name="acute.cap" 
d="M236 662c-8 -10 -16 -16 -28 -16h-6c-11 0 -22 7 -17 16l75 107c7 10 21 16 36 16h5c15 0 27 -10 21 -17z" />
    <glyph glyph-name="ampersand" unicode="&#x26;" horiz-adv-x="631" 
d="M578 -15c-37 32 -71 60 -103 87c-54 -60 -130 -93 -210 -93c-137 0 -225 77 -225 176c0 69 43 133 129 162c-60 53 -75 93 -75 148c0 89 88 152 199 152c91 0 159 -46 192 -102c7 -9 8 -22 0 -34c-7 -12 -21 -18 -29 -10c-28 46 -80 95 -163 95c-77 0 -140 -40 -140 -103
c0 -47 17 -82 108 -148c61 -44 125 -94 208 -163c22 43 36 96 36 158c0 14 14 20 28 20s27 -6 27 -20c0 -76 -19 -141 -50 -192c31 -26 64 -55 100 -86c11 -9 10 -25 2 -38c-8 -12 -23 -18 -34 -9zM101 159c0 -73 70 -131 169 -131c63 0 122 27 166 77
c-89 73 -157 127 -223 176c-3 2 -5 4 -8 6c-71 -24 -104 -76 -104 -128z" />
    <glyph glyph-name="asciitilde" unicode="~" horiz-adv-x="518" 
d="M361 211c-99 0 -125 72 -201 72c-58 0 -83 -32 -107 -71c-5 -9 -18 -12 -30 -3c-12 8 -14 18 -10 27c29 53 70 98 144 98c98 0 125 -74 201 -74c58 0 83 33 107 72c5 9 18 12 30 4c12 -9 14 -19 10 -28c-29 -53 -70 -97 -144 -97z" />
    <glyph glyph-name="asterisk" unicode="*" horiz-adv-x="303" 
d="M109 391c-5 -8 -19 -6 -28 1l-5 3c-10 6 -16 19 -9 27l47 58l-72 20c-10 2 -11 16 -8 27l2 6c3 12 13 21 23 17l69 -27l-4 76c0 10 13 16 24 16h6c12 0 24 -6 23 -16l-3 -76l70 27c10 4 20 -5 24 -17l1 -6c4 -11 2 -25 -7 -27l-72 -20l46 -57c6 -8 0 -21 -9 -28l-5 -3
c-9 -6 -24 -9 -29 -1l-42 65z" />
    <glyph glyph-name="at" unicode="@" horiz-adv-x="840" 
d="M398 72c-97 0 -171 72 -171 188c0 114 81 190 178 190c57 0 118 -28 145 -80v66c0 10 11 15 22 15h5c11 0 23 -5 23 -15v-248c0 -52 24 -73 55 -73c35 0 81 42 81 160c0 181 -125 296 -319 296c-185 0 -312 -141 -312 -317c0 -179 131 -299 302 -299c61 0 123 16 167 42
c9 5 19 -2 23 -11c5 -11 4 -22 -6 -29c-48 -31 -115 -48 -184 -48c-205 0 -353 137 -353 344c0 204 157 364 363 364c225 0 370 -132 370 -340c0 -146 -77 -205 -140 -205c-54 0 -92 32 -97 87c-27 -55 -89 -87 -152 -87zM277 261c0 -92 57 -151 132 -151
c74 0 141 54 141 134v40c0 78 -67 129 -135 129c-75 0 -138 -59 -138 -152z" />
    <glyph glyph-name="b" unicode="b" horiz-adv-x="587" 
d="M143 8c0 -14 -15 -21 -28 -21h-6c-13 0 -27 6 -27 17v631c0 12 14 18 27 18h6c13 0 28 -6 28 -18v-282c31 67 99 112 185 112c139 0 217 -104 217 -241c0 -136 -86 -244 -225 -244c-80 0 -146 40 -177 103v-75zM307 24c114 0 177 90 177 199c0 108 -57 197 -171 197
c-106 0 -170 -83 -170 -176v-52c0 -92 64 -168 164 -168z" />
    <glyph glyph-name="backslash" unicode="\" horiz-adv-x="361" 
d="M68 592l282 -586c4 -10 -5 -19 -18 -19h-7c-14 0 -27 6 -32 18l-282 585c-4 10 5 20 18 20h7c14 0 26 -5 32 -18z" />
    <glyph glyph-name="bar" unicode="|" horiz-adv-x="233" 
d="M87 588c0 10 14 18 26 18h7c12 0 25 -7 25 -17v-686c0 -11 -13 -17 -26 -17h-6c-13 0 -26 6 -26 17v685z" />
    <glyph glyph-name="braceleft" unicode="{" horiz-adv-x="305" 
d="M228 605c8 -13 7 -28 -1 -33c-32 -22 -48 -44 -48 -85c0 -55 4 -92 4 -156c0 -51 -28 -82 -61 -102c33 -20 61 -51 61 -101c0 -65 -4 -101 -4 -157c0 -40 16 -63 48 -85c8 -6 9 -20 1 -32c-7 -12 -19 -18 -28 -14c-42 22 -75 56 -75 119c0 72 5 104 5 161
c0 39 -18 71 -49 84c-12 3 -12 48 0 51c30 12 49 45 49 84c0 56 -5 88 -5 159c0 64 33 98 75 121c9 4 21 -3 28 -14z" />
    <glyph glyph-name="braceright" unicode="}" horiz-adv-x="305" 
d="M77 -147c-8 13 -7 28 1 33c32 22 48 44 48 85c0 55 -4 92 -4 156c0 51 28 82 61 102c-33 20 -61 51 -61 101c0 65 4 101 4 157c0 40 -16 63 -48 85c-8 6 -9 20 -1 32c7 12 19 18 28 14c42 -22 75 -56 75 -119c0 -72 -5 -104 -5 -161c0 -39 18 -71 49 -84
c12 -3 12 -48 0 -51c-30 -12 -49 -45 -49 -84c0 -56 5 -88 5 -159c0 -64 -33 -98 -75 -121c-9 -4 -21 3 -28 14z" />
    <glyph glyph-name="bracketleft" unicode="[" horiz-adv-x="257" 
d="M85 -153v746c0 10 7 17 16 17h110c10 0 16 -13 16 -24v-4c0 -11 -7 -24 -17 -24h-71v-676h71c10 0 17 -13 17 -24v-4c0 -11 -6 -24 -16 -24h-110c-9 0 -16 7 -16 17z" />
    <glyph glyph-name="bracketright" unicode="]" horiz-adv-x="257" 
d="M172 593v-746c0 -10 -7 -17 -16 -17h-110c-10 0 -16 13 -16 24v4c0 11 7 24 17 24h71v676h-71c-10 0 -17 13 -17 24v4c0 11 6 24 16 24h110c9 0 16 -7 16 -17z" />
    <glyph glyph-name="brokenbar" unicode="&#xa6;" horiz-adv-x="233" 
d="M87 588c0 10 14 18 26 18h7c12 0 25 -7 25 -17v-263c0 -10 -13 -16 -26 -16h-6c-13 0 -26 6 -26 16v262zM87 164c0 10 14 18 26 18h7c12 0 25 -7 25 -17v-262c0 -11 -13 -17 -26 -17h-6c-13 0 -26 6 -26 17v261z" />
    <glyph glyph-name="c" unicode="c" horiz-adv-x="521" 
d="M276 -21c-151 0 -233 113 -233 244c0 130 84 243 235 243c84 0 142 -34 176 -78c9 -9 13 -23 4 -34s-21 -14 -29 -6c-29 39 -79 70 -148 70c-115 0 -178 -89 -178 -196c0 -105 63 -195 179 -195c76 0 126 34 161 86c8 8 19 6 28 -3c8 -9 8 -22 -1 -33
c-38 -58 -101 -98 -194 -98z" />
    <glyph glyph-name="cent" unicode="&#xa2;" horiz-adv-x="521" 
d="M307 -133c0 -11 -15 -18 -28 -18h-6c-14 0 -27 8 -27 19l4 112c-135 13 -207 120 -207 243c0 122 74 228 207 242l-4 113c0 11 15 18 28 18h5c15 0 28 -8 28 -19l-4 -112c71 -6 121 -38 151 -77c9 -9 13 -23 4 -34s-21 -14 -29 -6c-29 39 -79 70 -148 70
c-115 0 -178 -89 -178 -196c0 -105 63 -195 179 -195c76 0 126 34 161 86c8 8 19 6 28 -3c8 -9 8 -22 -1 -33c-34 -52 -88 -90 -167 -97z" />
    <glyph glyph-name="colon" unicode=":" horiz-adv-x="163" 
d="M82 259c-25 0 -40 16 -40 38s15 39 40 39s40 -17 40 -39s-15 -38 -40 -38zM82 -13c-25 0 -40 16 -40 38s15 39 40 39s40 -17 40 -39s-15 -38 -40 -38z" />
    <glyph glyph-name="comma" unicode="," horiz-adv-x="163" 
d="M84 -99c-3 -11 -10 -16 -23 -16h-6c-11 0 -22 5 -21 16l18 145c1 11 17 18 30 18h6c13 0 29 -7 26 -18z" />
    <glyph glyph-name="copyright" unicode="&#xa9;" horiz-adv-x="726" 
d="M363 -21c-176 0 -319 143 -319 319s143 319 319 319c175 0 319 -143 319 -319s-144 -319 -319 -319zM363 18c155 0 280 125 280 280c0 154 -125 281 -280 281c-154 0 -281 -127 -281 -281c0 -155 127 -280 281 -280zM505 421c3 -7 -1 -16 -10 -22c-10 -6 -20 -4 -23 1
c-23 33 -60 53 -107 53c-88 0 -135 -70 -135 -153c0 -82 50 -152 135 -152c53 0 94 24 113 61c3 6 13 8 23 3s14 -13 11 -21c-22 -48 -79 -81 -149 -81c-115 0 -181 86 -181 190s67 190 183 190c63 0 116 -27 140 -69z" />
    <glyph glyph-name="currency" unicode="&#xa4;" horiz-adv-x="633" 
d="M316 -16c-64 0 -123 23 -169 61l-63 -62c-7 -7 -20 -3 -28 5l-5 5c-7 7 -11 22 -4 29l61 61c-37 46 -60 106 -60 170s23 123 61 169l-62 62c-7 7 -3 21 5 29l4 4c9 8 21 12 29 5l62 -61c46 37 105 60 169 60c65 0 124 -23 170 -61l63 62c7 7 20 3 28 -5l4 -4
c8 -8 12 -22 5 -29l-62 -62c38 -46 61 -105 61 -169s-23 -123 -60 -170l61 -61c7 -7 4 -22 -4 -29l-4 -5c-9 -8 -21 -12 -29 -5l-62 63c-46 -39 -106 -62 -171 -62zM317 34c120 0 220 98 220 219c0 120 -100 218 -220 218c-121 0 -219 -98 -219 -218
c0 -121 98 -219 219 -219z" />
    <glyph glyph-name="d" unicode="d" horiz-adv-x="587" 
d="M506 4c0 -11 -15 -17 -28 -17h-6c-13 0 -27 6 -27 17v89c-31 -67 -99 -113 -185 -113c-139 0 -217 104 -217 241c0 135 86 244 225 244c80 0 147 -40 177 -105v275c0 12 14 18 27 18h6c13 0 28 -6 28 -18v-631zM281 421c-115 0 -178 -90 -178 -199
c0 -108 58 -197 171 -197c107 0 171 83 171 176v52c0 92 -65 168 -164 168z" />
    <glyph glyph-name="d.alt" horiz-adv-x="612" 
d="M506 110c0 -54 29 -76 83 -76c11 0 18 -8 18 -21c0 -14 -13 -26 -36 -26h-14c-68 0 -112 41 -112 104v2c-31 -67 -99 -113 -185 -113c-139 0 -217 104 -217 241c0 135 86 244 225 244c80 0 147 -40 177 -105v275c0 12 14 18 27 18h6c13 0 28 -6 28 -18v-525zM281 421
c-115 0 -178 -90 -178 -199c0 -108 58 -197 171 -197c107 0 171 83 171 176v52c0 92 -65 168 -164 168z" />
    <glyph glyph-name="dieresis" unicode="&#xa8;" 
d="M176 558c-24 0 -38 16 -38 37c0 20 14 35 38 35c23 0 38 -15 38 -35c0 -21 -15 -37 -38 -37zM324 558c-24 0 -38 16 -38 37c0 20 14 35 38 35c23 0 38 -15 38 -35c0 -21 -15 -37 -38 -37z" />
    <glyph glyph-name="dieresis.cap" 
d="M176 665c-24 0 -38 16 -38 37c0 20 14 36 38 36c23 0 38 -16 38 -36c0 -21 -15 -37 -38 -37zM324 665c-24 0 -38 16 -38 37c0 20 14 36 38 36c23 0 38 -16 38 -36c0 -21 -15 -37 -38 -37z" />
    <glyph glyph-name="divide" unicode="&#xf7;" 
d="M252 347c-25 0 -39 16 -39 37c0 22 14 38 39 38c24 0 38 -16 38 -38c0 -21 -14 -37 -38 -37zM64 210c-11 0 -18 12 -18 23v7c0 11 6 23 17 23h374c11 0 17 -12 17 -24v-6c0 -11 -6 -23 -17 -23h-373zM252 55c-25 0 -39 16 -39 37c0 22 14 38 39 38c24 0 38 -16 38 -38
c0 -21 -14 -37 -38 -37z" />
    <glyph glyph-name="dollar" unicode="$" horiz-adv-x="538" 
d="M306 -126c1 -11 -15 -18 -28 -18h-5c-14 0 -28 7 -28 18l4 106c-93 5 -160 56 -191 107c-7 9 -8 24 0 35c7 13 20 19 29 10c28 -46 88 -102 176 -102c93 0 160 57 160 125s-54 104 -170 128c-121 24 -180 65 -180 159c0 96 72 163 177 174l-4 111c0 11 15 18 28 18h5
c15 0 28 -8 28 -19l-4 -110c80 -8 138 -50 168 -101c7 -9 8 -22 1 -34c-8 -13 -22 -18 -31 -11c-28 47 -80 96 -163 96c-86 0 -145 -50 -145 -119s57 -95 170 -117c124 -24 182 -76 182 -170s-73 -166 -183 -179z" />
    <glyph glyph-name="e" unicode="e" horiz-adv-x="540" 
d="M279 -21c-155 0 -236 114 -236 244c0 129 81 243 231 243c144 0 216 -110 212 -229c0 -5 0 -11 -1 -17h-384c1 -104 60 -194 183 -194c82 0 138 43 167 102c7 7 18 5 25 -4c8 -9 9 -21 2 -31c-36 -68 -101 -114 -199 -114zM275 422c-103 0 -160 -73 -172 -163h328
c-5 81 -54 163 -156 163z" />
    <glyph glyph-name="e.alt" horiz-adv-x="519" 
d="M288 -21c-164 0 -245 113 -245 243c0 131 83 244 231 244c126 0 185 -70 185 -135c0 -70 -60 -130 -187 -130c-66 0 -124 13 -171 37v-15c0 -106 67 -198 195 -198c63 0 112 20 147 52c10 8 20 4 27 -5c6 -9 6 -23 -4 -32c-37 -37 -104 -61 -178 -61zM274 422
c-96 0 -152 -65 -168 -148c47 -23 99 -34 160 -34c85 0 136 39 136 89c0 44 -40 93 -128 93z" />
    <glyph glyph-name="eacute" unicode="&#xe9;" horiz-adv-x="540" 
d="M255 522c-7 -10 -16 -17 -28 -17h-6c-11 0 -21 8 -17 17l67 124c6 12 21 17 34 17h6c13 0 27 -9 22 -18zM279 -21c-155 0 -236 114 -236 244c0 129 81 243 231 243c144 0 216 -110 212 -229c0 -5 0 -11 -1 -17h-384c1 -104 60 -194 183 -194c82 0 138 43 167 102
c7 7 18 5 25 -4c8 -9 9 -21 2 -31c-36 -68 -101 -114 -199 -114zM275 422c-103 0 -160 -73 -172 -163h328c-5 81 -54 163 -156 163z" />
    <glyph glyph-name="eacute.alt" horiz-adv-x="519" 
d="M280 522c-7 -10 -16 -17 -28 -17h-6c-11 0 -21 8 -17 17l67 124c6 12 21 17 34 17h6c13 0 27 -9 22 -18zM288 -21c-164 0 -245 113 -245 243c0 131 83 244 231 244c126 0 185 -70 185 -135c0 -70 -60 -130 -187 -130c-66 0 -124 13 -171 37v-15c0 -106 67 -198 195 -198
c63 0 112 20 147 52c10 8 20 4 27 -5c6 -9 6 -23 -4 -32c-37 -37 -104 -61 -178 -61zM274 422c-96 0 -152 -65 -168 -148c47 -23 99 -34 160 -34c85 0 136 39 136 89c0 44 -40 93 -128 93z" />
    <glyph glyph-name="eight" unicode="8" horiz-adv-x="555" 
d="M512 158c0 -95 -85 -179 -236 -179c-150 0 -233 84 -233 178c0 69 44 133 128 162c-72 26 -109 80 -109 139c0 85 74 159 215 159c142 0 216 -73 216 -158c0 -59 -37 -113 -109 -140c83 -29 128 -92 128 -161zM278 337c106 0 155 56 155 118c0 63 -50 119 -155 119
c-107 0 -156 -57 -156 -119c0 -63 50 -118 156 -118zM278 25c114 0 173 65 173 136c0 72 -59 137 -173 137c-115 0 -174 -66 -174 -137c0 -73 59 -136 174 -136z" />
    <glyph glyph-name="eight.dnom" horiz-adv-x="301" 
d="M279 81c0 -49 -47 -92 -129 -92s-128 42 -128 91c0 34 23 65 65 80c-37 14 -55 41 -55 70c0 43 41 81 119 81c77 0 118 -36 118 -81c0 -29 -18 -55 -55 -69c42 -15 65 -45 65 -80zM151 172c54 0 79 26 79 55c0 30 -26 55 -79 55c-55 0 -80 -26 -80 -55
c0 -30 26 -55 80 -55zM151 20c58 0 88 29 88 63s-30 64 -88 64c-59 0 -89 -31 -89 -64c0 -34 31 -63 89 -63z" />
    <glyph glyph-name="eight.numr" horiz-adv-x="301" 
d="M279 388c0 -49 -47 -92 -129 -92s-128 42 -128 91c0 34 23 65 65 80c-37 14 -55 41 -55 70c0 43 41 81 119 81c77 0 118 -36 118 -81c0 -29 -18 -55 -55 -69c42 -15 65 -45 65 -80zM151 479c54 0 79 26 79 55c0 30 -26 55 -79 55c-55 0 -80 -26 -80 -55
c0 -30 26 -55 80 -55zM151 327c58 0 88 29 88 63s-30 64 -88 64c-59 0 -89 -31 -89 -64c0 -34 31 -63 89 -63z" />
    <glyph glyph-name="equal" unicode="=" 
d="M64 285c-11 0 -18 12 -18 23v7c0 11 6 23 17 23h374c11 0 17 -12 17 -24v-6c0 -11 -6 -23 -17 -23h-373zM64 133c-11 0 -18 12 -18 23v7c0 11 6 23 17 23h374c11 0 17 -12 17 -24v-6c0 -11 -6 -23 -17 -23h-373z" />
    <glyph glyph-name="exclam" unicode="!" horiz-adv-x="234" 
d="M84 587c-1 11 14 19 29 19h8c14 0 30 -7 29 -18l-4 -418c0 -10 -13 -17 -26 -17h-7c-13 0 -25 7 -25 17zM117 -13c-25 0 -40 16 -40 38c0 21 15 38 40 38s40 -17 40 -38c0 -22 -15 -38 -40 -38z" />
    <glyph glyph-name="exclamdown" unicode="&#xa1;" horiz-adv-x="234" 
d="M117 466c25 0 40 -16 40 -38c0 -21 -15 -38 -40 -38s-40 17 -40 38c0 22 15 38 40 38zM150 -134c1 -11 -14 -19 -29 -19h-8c-14 0 -30 7 -29 18l4 418c0 10 13 17 26 17h7c13 0 25 -7 25 -17z" />
    <glyph glyph-name="f" unicode="f" horiz-adv-x="290" 
d="M24 394c-11 0 -17 12 -17 23v5c0 11 5 23 16 23h70v90c0 79 63 126 136 126c31 0 58 -8 73 -14c12 -6 18 -16 14 -30c-3 -13 -14 -18 -24 -15c-12 5 -32 12 -58 12c-44 0 -81 -32 -81 -81v-88h118c11 0 17 -12 17 -23v-6c0 -11 -6 -22 -17 -22h-118v-390
c0 -11 -14 -17 -27 -17h-6c-13 0 -27 6 -27 17v390h-69z" />
    <glyph glyph-name="f.alt" horiz-adv-x="299" 
d="M24 394c-11 0 -17 12 -17 23v5c0 11 5 23 16 23h70v90c0 79 63 126 136 126c31 0 58 -8 73 -14c12 -6 18 -16 14 -30c-3 -13 -14 -18 -24 -15c-12 5 -32 12 -58 12c-44 0 -81 -32 -81 -81v-88h118c11 0 17 -12 17 -23v-6c0 -11 -6 -22 -17 -22h-118v-560
c0 -11 -14 -17 -27 -17h-6c-13 0 -27 6 -27 17v560h-69z" />
    <glyph glyph-name="f_t" horiz-adv-x="579" 
d="M24 394c-11 0 -17 12 -17 23v5c0 11 5 23 16 23h70v91c0 80 63 127 136 127c31 0 58 -8 73 -14c12 -6 18 -16 14 -30c-3 -13 -14 -18 -24 -15c-12 6 -32 12 -58 12c-44 0 -81 -32 -81 -81v-90h264v90c0 11 14 18 27 18h6c13 0 28 -6 28 -18v-90h90c11 0 17 -12 17 -23v-6
c0 -11 -6 -22 -17 -22h-90v-390c0 -11 -15 -17 -28 -17h-6c-13 0 -27 6 -27 17v390h-264v-390c0 -11 -14 -17 -27 -17h-6c-13 0 -27 6 -27 17v390h-69z" />
    <glyph glyph-name="five" unicode="5" horiz-adv-x="515" 
d="M247 -21c-92 0 -160 34 -197 85c-9 9 -7 23 0 33c8 10 20 15 29 7c35 -43 87 -75 166 -75c115 0 176 73 176 160c0 86 -61 160 -177 160c-70 0 -120 -25 -149 -59c-8 -7 -20 -5 -27 0c-8 6 -10 15 -9 26l28 273c1 11 8 16 18 16h333c10 0 17 -13 17 -24v-4
c0 -10 -7 -22 -17 -22h-301l-20 -199c37 24 86 37 142 37c144 0 224 -91 224 -204c0 -115 -86 -210 -236 -210z" />
    <glyph glyph-name="five.dnom" horiz-adv-x="279" 
d="M132 -11c-49 0 -85 17 -105 40c-6 6 -5 15 -1 21c4 8 13 12 18 8c19 -20 46 -35 87 -35c59 0 90 33 90 73s-32 74 -91 74c-36 0 -61 -11 -77 -27c-5 -4 -12 -3 -17 1c-5 3 -6 8 -6 15l15 136c1 6 5 9 12 9h180c6 0 10 -8 10 -15v-3c0 -7 -4 -15 -10 -15h-160l-9 -89
c19 10 44 16 74 16c76 0 120 -44 120 -102c0 -59 -48 -107 -130 -107z" />
    <glyph glyph-name="five.numr" horiz-adv-x="288" 
d="M132 296c-49 0 -85 17 -105 40c-6 6 -5 15 -1 21c4 8 13 12 18 8c19 -20 46 -35 87 -35c59 0 90 33 90 73s-32 74 -91 74c-36 0 -61 -11 -77 -27c-5 -4 -12 -3 -17 1c-5 3 -6 8 -6 15l15 136c1 6 5 9 12 9h180c6 0 10 -8 10 -15v-3c0 -7 -4 -15 -10 -15h-160l-9 -89
c19 10 44 16 74 16c76 0 120 -44 120 -102c0 -59 -48 -107 -130 -107z" />
    <glyph glyph-name="four" unicode="4" horiz-adv-x="537" 
d="M417 4c0 -10 -13 -17 -27 -17h-7c-13 0 -26 7 -26 17v109h-328c-12 0 -21 11 -21 24v4c0 12 2 22 5 30c49 152 193 351 325 429c9 8 23 14 37 14h17c14 0 25 -7 25 -18v-433h103c11 0 17 -12 17 -23v-4c0 -11 -6 -23 -17 -23h-103v-109zM64 163h293v396
c-120 -76 -247 -257 -293 -396z" />
    <glyph glyph-name="four.dnom" horiz-adv-x="293" 
d="M229 4c0 -7 -8 -10 -17 -10h-5c-8 0 -17 3 -17 10v50h-174c-6 0 -12 7 -12 15v4c0 7 1 13 3 18c26 74 101 168 170 209c6 5 15 9 24 9h13c8 0 15 -4 15 -11v-211h53c7 0 11 -8 11 -15v-3c0 -7 -4 -15 -11 -15h-53v-50zM41 87h149v187c-61 -37 -125 -121 -149 -187z" />
    <glyph glyph-name="four.numr" horiz-adv-x="293" 
d="M229 311c0 -7 -8 -10 -17 -10h-5c-8 0 -17 3 -17 10v50h-174c-6 0 -12 7 -12 15v4c0 7 1 13 3 18c26 74 101 168 170 209c6 5 15 9 24 9h13c8 0 15 -4 15 -11v-211h53c7 0 11 -8 11 -15v-3c0 -7 -4 -15 -11 -15h-53v-50zM41 394h149v187c-61 -37 -125 -121 -149 -187z
" />
    <glyph glyph-name="fraction" unicode="&#x2044;" horiz-adv-x="156" 
d="M236 592c8 12 17 18 30 18h7c13 0 23 -10 16 -20l-369 -585c-7 -11 -16 -18 -30 -18h-7c-13 0 -22 10 -16 19z" />
    <glyph glyph-name="g" unicode="g" horiz-adv-x="587" 
d="M445 17v79c-31 -66 -99 -112 -185 -112c-139 0 -217 103 -217 238s86 243 225 243c80 0 147 -40 177 -104v78c0 12 14 17 27 17h6c13 0 28 -5 28 -17v-424c0 -121 -109 -205 -246 -205c-63 0 -123 14 -164 42c-11 6 -17 18 -13 30s15 19 25 13c34 -22 83 -39 145 -39
c108 0 192 62 192 161zM281 422c-115 0 -178 -90 -178 -198s58 -197 171 -197c107 0 171 83 171 175v53c0 92 -65 167 -164 167z" />
    <glyph glyph-name="g.alt" horiz-adv-x="555" 
d="M276 4c-152 0 -233 104 -233 232c0 126 83 230 235 230c61 0 111 -17 149 -46c20 24 61 68 65 73c6 8 19 8 30 1l5 -4c11 -6 16 -17 8 -27c-3 -4 -54 -55 -74 -75c33 -41 51 -94 51 -153c0 -80 -34 -151 -97 -193c51 -13 88 -45 88 -101c0 -74 -92 -131 -243 -131
c-69 0 -138 15 -179 43c-11 6 -18 18 -14 31c4 12 16 18 26 13c34 -23 93 -41 161 -41c114 0 190 39 190 92c0 40 -28 62 -71 73c-29 -11 -61 -17 -97 -17zM277 48c115 0 175 83 175 188c0 101 -60 186 -175 186c-114 0 -174 -83 -174 -187c0 -102 60 -187 174 -187z" />
    <glyph glyph-name="greater" unicode="&#x3e;" 
d="M80 39l-3 4c-6 11 -7 25 2 30l296 164l-296 163c-9 5 -8 19 -2 29l3 5c5 10 17 18 25 13l332 -185c7 -5 11 -16 11 -25c0 -10 -4 -21 -11 -26l-332 -185c-8 -5 -20 3 -25 13z" />
    <glyph glyph-name="guillemetleft" unicode="&#xab;" horiz-adv-x="360" 
d="M44 309l87 132c6 11 16 15 28 15h6c12 0 21 -8 16 -17l-93 -146l91 -145c5 -8 -4 -16 -15 -16h-7c-11 0 -22 4 -28 15l-85 130c-6 10 -7 21 0 32zM171 309l87 132c6 11 16 15 28 15h6c12 0 21 -8 16 -17l-93 -146l92 -145c5 -8 -5 -16 -16 -16h-7c-11 0 -21 4 -28 15
l-85 130c-6 10 -6 21 0 32z" />
    <glyph glyph-name="guillemetright" unicode="&#xbb;" horiz-adv-x="360" 
d="M316 279l-87 -132c-6 -11 -16 -15 -28 -15h-6c-12 0 -21 8 -16 17l93 146l-91 145c-5 8 4 16 15 16h7c11 0 22 -4 28 -15l85 -130c6 -10 7 -21 0 -32zM189 279l-87 -132c-6 -11 -16 -15 -28 -15h-6c-12 0 -21 8 -16 17l93 146l-92 145c-5 8 5 16 16 16h7
c11 0 21 -4 28 -15l85 -130c6 -10 6 -21 0 -32z" />
    <glyph glyph-name="h" unicode="h" horiz-adv-x="589" 
d="M143 4c0 -11 -15 -17 -28 -17h-6c-13 0 -27 6 -27 17v631c0 12 14 18 27 18h6c13 0 28 -6 28 -18v-281c31 66 97 111 178 111c113 0 186 -76 186 -194v-267c0 -11 -15 -17 -28 -17h-6c-12 0 -27 6 -27 17v256c0 97 -57 159 -144 159c-95 0 -159 -81 -159 -173v-242z" />
    <glyph glyph-name="hyphen" unicode="-" horiz-adv-x="264" 
d="M30 208c-11 0 -18 12 -18 23v6c0 10 6 22 17 22h207c11 0 16 -12 16 -23v-5c0 -11 -5 -23 -16 -23h-206z" />
    <glyph glyph-name="i" unicode="i" horiz-adv-x="224" 
d="M112 554c-25 0 -40 16 -40 37s15 36 40 36c24 0 40 -15 40 -36s-16 -37 -40 -37zM143 4c0 -11 -15 -17 -28 -17h-6c-13 0 -27 6 -27 17v434c0 12 14 18 27 18h6c13 0 28 -6 28 -18v-434z" />
    <glyph glyph-name="i.alt" horiz-adv-x="249" 
d="M112 571c-25 0 -40 16 -40 36c0 21 15 36 40 36c24 0 40 -15 40 -36c0 -20 -16 -36 -40 -36zM143 110c0 -54 29 -76 83 -76c11 0 18 -8 18 -21c0 -14 -13 -26 -36 -26h-14c-68 0 -112 41 -112 104v347c0 12 14 18 27 18h6c13 0 28 -6 28 -18v-328z" />
    <glyph glyph-name="iacute" unicode="&#xed;" horiz-adv-x="224" 
d="M135 522c-7 -10 -16 -17 -28 -17h-6c-11 0 -21 8 -17 17l67 124c6 12 21 17 34 17h6c13 0 27 -9 22 -18zM143 4c0 -11 -15 -17 -28 -17h-6c-13 0 -27 6 -27 17v436c0 12 14 17 27 17h6c13 0 28 -5 28 -17v-436z" />
    <glyph glyph-name="iacute.alt" horiz-adv-x="249" 
d="M135 522c-7 -10 -16 -17 -28 -17h-6c-11 0 -21 8 -17 17l67 124c6 12 21 17 34 17h6c13 0 27 -9 22 -18zM143 110c0 -54 29 -76 83 -76c11 0 18 -8 18 -21c0 -14 -13 -26 -36 -26h-14c-68 0 -112 41 -112 104v349c0 12 14 17 27 17h6c13 0 28 -5 28 -17v-330z" />
    <glyph glyph-name="j" unicode="j" horiz-adv-x="224" 
d="M113 571c-25 0 -41 16 -41 36c0 21 16 36 41 36c24 0 40 -15 40 -36c0 -20 -16 -36 -40 -36zM82 -71v509c0 12 14 18 27 18h6c13 0 28 -6 28 -18v-510c0 -72 -57 -118 -128 -118c-21 0 -41 4 -57 9c-12 5 -18 16 -14 30c3 14 14 18 23 15c14 -4 27 -7 42 -7
c43 0 73 30 73 72z" />
    <glyph glyph-name="k" unicode="k" horiz-adv-x="515" 
d="M143 4c0 -11 -15 -17 -28 -17h-6c-13 0 -27 6 -27 17v631c0 12 14 18 27 18h6c13 0 28 -6 28 -18v-378h18c108 0 254 139 254 183c0 11 14 17 25 17h6c13 0 26 -7 26 -18c0 -52 -100 -156 -211 -205c113 -51 223 -168 223 -228c0 -11 -13 -18 -27 -18h-8
c-13 0 -26 6 -26 17c0 47 -154 205 -267 205h-13v-206z" />
    <glyph glyph-name="k.alt" horiz-adv-x="529" 
d="M143 4c0 -11 -15 -17 -28 -17h-6c-13 0 -27 6 -27 17v631c0 12 14 18 27 18h6c13 0 28 -6 28 -18v-373h6c131 0 266 134 266 178c0 11 14 17 25 17h6c13 0 26 -7 26 -18c0 -54 -83 -143 -189 -190c57 -149 135 -205 186 -205c10 0 19 1 27 2c12 1 18 -8 21 -21
c3 -12 0 -26 -11 -29c-11 -5 -25 -8 -43 -8c-82 0 -169 65 -232 242c-28 -8 -58 -13 -87 -13h-1v-213z" />
    <glyph glyph-name="l" unicode="l" horiz-adv-x="224" 
d="M143 4c0 -11 -15 -17 -28 -17h-6c-13 0 -27 6 -27 17v631c0 12 14 18 27 18h6c13 0 28 -6 28 -18v-631z" />
    <glyph glyph-name="l.alt" horiz-adv-x="264" 
d="M143 110c0 -54 29 -76 83 -76c11 0 18 -8 18 -21c0 -14 -13 -26 -36 -26h-14c-68 0 -112 41 -112 104v544c0 12 14 18 27 18h6c13 0 28 -6 28 -18v-525z" />
    <glyph glyph-name="less" unicode="&#x3c;" 
d="M420 39c-5 -10 -17 -18 -25 -13l-332 185c-7 5 -11 16 -11 26c0 9 4 20 11 25l332 185c8 5 20 -3 25 -13l3 -5c6 -10 7 -24 -2 -29l-296 -163l296 -164c9 -5 8 -19 2 -30z" />
    <glyph glyph-name="litre" unicode="&#x2113;" horiz-adv-x="305" 
d="M73 397c0 198 44 260 106 260c61 0 86 -52 86 -140c0 -109 -44 -211 -131 -274v-129c0 -52 28 -75 78 -76h7c12 0 20 -8 20 -23c0 -16 -12 -28 -36 -28h-13c-68 0 -117 42 -117 108v113c-12 -5 -25 -10 -39 -14c-11 -3 -20 3 -23 13s1 21 11 24c18 6 35 13 51 20v146z
M134 408v-115c61 55 87 134 87 224c0 64 -12 96 -36 96c-28 0 -51 -36 -51 -205z" />
    <glyph glyph-name="m" unicode="m" horiz-adv-x="933" 
d="M143 4c0 -11 -15 -17 -28 -17h-6c-13 0 -27 6 -27 17v436c0 11 14 17 27 17h6c13 0 28 -6 28 -17v-86c30 66 96 111 173 111c89 0 153 -50 174 -132c25 77 95 132 180 132c109 0 181 -76 181 -194v-267c0 -11 -14 -17 -27 -17h-7c-12 0 -26 6 -26 17v256
c0 97 -57 159 -139 159c-92 0 -155 -81 -155 -173v-242c0 -11 -15 -17 -28 -17h-6c-12 0 -27 6 -27 17v256c0 97 -56 159 -139 159c-91 0 -154 -81 -154 -173v-242z" />
    <glyph glyph-name="minus" unicode="&#x2212;" 
d="M64 210c-11 0 -18 12 -18 23v7c0 11 6 23 17 23h374c11 0 17 -12 17 -24v-6c0 -11 -6 -23 -17 -23h-373z" />
    <glyph glyph-name="multiply" unicode="&#xd7;" 
d="M131 80c-7 -7 -21 -4 -29 5l-5 4c-7 7 -12 21 -4 29l119 119l-119 119c-7 8 -3 22 5 30l4 4c9 8 21 12 28 5l120 -120l120 120c7 7 20 2 29 -6l4 -4c7 -8 12 -21 5 -29l-120 -119l119 -119c7 -7 3 -21 -4 -29l-4 -4c-9 -8 -22 -13 -29 -6l-120 120z" />
    <glyph glyph-name="n" unicode="n" horiz-adv-x="589" 
d="M143 4c0 -11 -15 -17 -28 -17h-6c-13 0 -27 6 -27 17v436c0 11 14 17 27 17h6c13 0 28 -6 28 -17v-86c31 66 97 111 178 111c113 0 186 -76 186 -194v-267c0 -11 -15 -17 -28 -17h-6c-12 0 -27 6 -27 17v256c0 97 -57 159 -144 159c-95 0 -159 -81 -159 -173v-242z" />
    <glyph glyph-name="nine" unicode="9" horiz-adv-x="568" 
d="M514 303c0 -177 -97 -324 -262 -324c-93 0 -157 45 -187 98c-7 9 -8 22 -1 34c7 13 22 17 30 10c28 -48 74 -91 157 -91c135 0 201 125 201 274v10c-33 -68 -100 -119 -195 -119c-136 0 -216 93 -216 210c0 114 87 212 226 212c163 0 247 -141 247 -314zM101 405
c0 -92 56 -166 164 -166c104 0 172 78 176 170c-8 35 -22 67 -40 93c-31 43 -76 70 -134 70c-103 0 -166 -76 -166 -167z" />
    <glyph glyph-name="nine.dnom" horiz-adv-x="307" 
d="M280 152c0 -90 -55 -163 -145 -163c-49 0 -83 21 -101 46c-4 5 -5 14 -1 22s13 12 19 8c16 -22 39 -42 82 -42c71 0 105 57 105 128c-19 -30 -54 -52 -101 -52c-74 0 -117 45 -117 104s47 108 123 108c90 0 136 -70 136 -159zM59 203c0 -43 30 -77 85 -77
c54 0 89 38 89 78c-5 17 -11 32 -20 44c-16 20 -39 33 -69 33c-52 0 -85 -35 -85 -78z" />
    <glyph glyph-name="nine.numr" horiz-adv-x="307" 
d="M281 459c0 -90 -55 -163 -145 -163c-49 0 -83 21 -101 46c-4 5 -5 14 -1 22s13 12 19 8c16 -22 39 -42 82 -42c71 0 105 57 105 128c-19 -30 -54 -52 -101 -52c-74 0 -117 45 -117 104s47 108 123 108c90 0 136 -70 136 -159zM60 510c0 -43 30 -77 85 -77
c54 0 89 38 89 78c-5 17 -11 32 -20 44c-16 20 -39 33 -69 33c-52 0 -85 -35 -85 -78z" />
    <glyph glyph-name="ntilde" unicode="&#xf1;" horiz-adv-x="589" 
d="M143 554c-4 -7 -15 -10 -26 -3c-10 7 -11 16 -7 23c20 40 50 73 106 73c69 0 93 -45 143 -45c35 0 57 19 75 50c5 7 16 11 26 4c11 -7 12 -16 8 -24c-19 -40 -49 -73 -106 -73c-69 0 -93 46 -143 46c-36 0 -56 -19 -76 -51zM143 4c0 -11 -15 -17 -28 -17h-6
c-13 0 -27 6 -27 17v436c0 11 14 17 27 17h6c13 0 28 -6 28 -17v-86c31 66 97 111 178 111c113 0 186 -76 186 -194v-267c0 -11 -15 -17 -28 -17h-6c-12 0 -27 6 -27 17v256c0 97 -57 159 -144 159c-95 0 -159 -81 -159 -173v-242z" />
    <glyph glyph-name="numbersign" unicode="#" horiz-adv-x="622" 
d="M28 187c-11 0 -18 11 -18 23v5c0 11 5 23 17 23h134l42 147h-113c-11 0 -18 12 -18 23v5c0 11 6 23 17 23h129l44 154c4 14 19 20 32 20h7c13 0 21 -10 18 -20l-44 -154h142l44 154c4 14 19 20 32 20h7c13 0 21 -10 18 -20l-44 -154h122c11 0 16 -12 16 -23v-5
c0 -11 -5 -23 -16 -23h-137l-42 -147h116c12 0 17 -12 17 -23v-6c0 -11 -5 -22 -17 -22h-130l-52 -180c-4 -12 -19 -20 -33 -20h-7c-13 0 -21 9 -18 19l52 181h-141l-52 -180c-3 -12 -19 -20 -32 -20h-7c-13 0 -21 9 -18 19l52 181h-119zM218 238h142l42 147h-142z" />
    <glyph glyph-name="o" unicode="o" horiz-adv-x="555" 
d="M278 -21c-152 0 -235 111 -235 244c0 132 83 243 235 243c151 0 234 -111 234 -244c0 -132 -83 -243 -234 -243zM277 26c115 0 175 90 175 197c0 105 -60 197 -175 197c-114 0 -174 -90 -174 -198c0 -105 60 -196 174 -196z" />
    <glyph glyph-name="oacute" unicode="&#xf3;" horiz-adv-x="555" 
d="M281 522c-7 -10 -16 -17 -28 -17h-6c-11 0 -21 8 -17 17l67 124c6 12 21 17 34 17h6c13 0 27 -9 22 -18zM278 -21c-152 0 -235 111 -235 244c0 132 83 243 235 243c151 0 234 -111 234 -244c0 -132 -83 -243 -234 -243zM277 26c115 0 175 90 175 197
c0 105 -60 197 -175 197c-114 0 -174 -90 -174 -198c0 -105 60 -196 174 -196z" />
    <glyph glyph-name="one" unicode="1" horiz-adv-x="323" 
d="M42 469c-9 -5 -21 5 -26 15l-3 4c-4 11 -4 25 5 30l163 82c6 3 14 6 21 6h8c13 0 26 -7 26 -18v-584c0 -10 -15 -17 -29 -17h-7c-13 0 -27 7 -27 17v531z" />
    <glyph glyph-name="one.dnom" horiz-adv-x="186" 
d="M25 227c-5 -2 -12 3 -16 10l-2 4c-3 7 -3 16 3 19l88 41c4 2 9 4 15 4h5c8 0 17 -4 17 -10v-291c0 -7 -10 -10 -19 -10h-5c-8 0 -18 3 -18 10v255z" />
    <glyph glyph-name="one.numr" horiz-adv-x="186" 
d="M25 534c-5 -2 -12 3 -16 10l-2 4c-3 7 -3 16 3 19l88 41c4 2 9 4 15 4h5c8 0 17 -4 17 -10v-291c0 -7 -10 -10 -19 -10h-5c-8 0 -18 3 -18 10v255z" />
    <glyph glyph-name="onehalf" unicode="&#xbd;" horiz-adv-x="627" 
d="M61 534c-5 -2 -12 3 -16 10l-2 4c-3 7 -3 16 3 19l88 41c4 2 9 4 15 4h5c8 0 17 -4 17 -10v-291c0 -7 -10 -10 -19 -10h-5c-8 0 -18 3 -18 10v255zM426 592c8 12 17 18 30 18h7c13 0 23 -10 16 -20l-369 -585c-7 -11 -16 -18 -30 -18h-7c-13 0 -22 10 -16 19zM478 311
c67 0 114 -40 114 -98c0 -56 -62 -119 -174 -184h181c6 0 10 -8 10 -15v-4c0 -8 -4 -16 -10 -16h-229c-5 0 -9 8 -9 16v4c0 5 0 11 6 14c126 75 183 135 183 181c0 41 -35 67 -75 67c-42 0 -69 -19 -86 -50c-3 -5 -11 -8 -20 -3c-7 5 -10 12 -8 18c19 41 60 70 117 70z" />
    <glyph glyph-name="onequarter" unicode="&#xbc;" horiz-adv-x="627" 
d="M63 534c-5 -2 -12 3 -16 10l-2 4c-3 7 -3 16 3 19l88 41c4 2 9 4 15 4h5c8 0 17 -4 17 -10v-291c0 -7 -10 -10 -19 -10h-5c-8 0 -18 3 -18 10v255zM453 592c8 12 17 18 30 18h7c13 0 23 -10 16 -20l-369 -585c-7 -11 -16 -18 -30 -18h-7c-13 0 -22 10 -16 19zM545 4
c0 -7 -8 -10 -17 -10h-5c-8 0 -17 3 -17 10v50h-174c-6 0 -12 7 -12 15v4c0 7 1 13 3 18c26 74 101 168 170 209c6 5 15 9 24 9h13c8 0 15 -4 15 -11v-211h53c7 0 11 -8 11 -15v-3c0 -7 -4 -15 -11 -15h-53v-50zM357 87h149v187c-61 -37 -125 -121 -149 -187z" />
    <glyph glyph-name="ordfeminine" unicode="&#xaa;" horiz-adv-x="385" 
d="M334 325c0 -8 -11 -12 -22 -12h-5c-10 0 -22 4 -22 12v50c-21 -41 -64 -67 -118 -67c-89 0 -141 63 -141 150c0 86 57 152 146 152c51 0 92 -23 113 -61v44c0 8 12 12 22 12h5c11 0 22 -4 22 -12v-268zM184 576c-70 0 -109 -52 -109 -117c0 -64 36 -115 105 -115
c65 0 105 48 105 102v31c0 55 -40 99 -101 99z" />
    <glyph glyph-name="ordmasculine" unicode="&#xba;" horiz-adv-x="364" 
d="M182 307c-100 0 -156 69 -156 152c0 84 56 152 156 152s156 -68 156 -152c0 -83 -56 -152 -156 -152zM182 344c70 0 107 51 107 115c0 63 -37 116 -107 116s-107 -51 -107 -116c0 -62 37 -115 107 -115z" />
    <glyph glyph-name="p" unicode="p" horiz-adv-x="587" 
d="M143 -166c0 -11 -15 -17 -28 -17h-6c-13 0 -27 6 -27 17v606c0 11 14 17 27 17h6c13 0 28 -6 28 -17v-87c31 67 99 112 185 112c139 0 217 -104 217 -241c0 -136 -86 -244 -225 -244c-80 0 -146 40 -177 103v-249zM307 24c114 0 177 90 177 199c0 108 -57 197 -171 197
c-106 0 -170 -83 -170 -176v-52c0 -92 64 -168 164 -168z" />
    <glyph glyph-name="paragraph" unicode="&#xb6;" horiz-adv-x="604" 
d="M46 391c0 132 103 215 230 215h105c12 0 25 -7 25 -17v-744c0 -10 -13 -16 -26 -16h-7c-12 0 -25 6 -25 16v334h-75c-127 0 -227 83 -227 212zM479 588c0 10 13 18 25 18h7c13 0 26 -7 26 -17v-744c0 -10 -14 -16 -26 -16h-7c-12 0 -25 6 -25 16v743z" />
    <glyph glyph-name="parenleft" unicode="(" horiz-adv-x="296" 
d="M235 620c10 2 21 -9 24 -20l1 -2c3 -12 2 -25 -7 -27c-57 -6 -112 -138 -112 -342c0 -203 55 -335 112 -341c9 -2 11 -16 7 -27l-1 -2c-4 -11 -14 -22 -24 -20c-84 6 -150 152 -150 390c0 235 66 385 150 391z" />
    <glyph glyph-name="parenright" unicode=")" horiz-adv-x="296" 
d="M61 -161c-10 -2 -21 9 -24 20l-1 2c-3 12 -2 25 7 27c57 6 112 138 112 342c0 203 -55 335 -112 341c-9 2 -11 16 -7 27l1 2c4 11 14 22 24 20c84 -6 150 -152 150 -390c0 -235 -66 -385 -150 -391z" />
    <glyph glyph-name="percent" unicode="%" horiz-adv-x="627" 
d="M154 296c-89 0 -136 72 -136 161c0 88 47 161 136 161c91 0 137 -72 137 -160c0 -89 -46 -162 -137 -162zM467 592c8 12 17 18 30 18h7c13 0 23 -10 16 -20l-369 -585c-7 -11 -16 -18 -30 -18h-7c-13 0 -22 10 -16 19zM154 330c66 0 94 58 94 128c0 67 -31 126 -94 126
c-65 0 -93 -58 -93 -127s31 -127 93 -127zM472 -11c-89 0 -136 72 -136 161c0 88 47 161 136 161c91 0 137 -72 137 -160c0 -89 -46 -162 -137 -162zM472 23c66 0 94 58 94 128c0 67 -31 126 -94 126c-65 0 -93 -58 -93 -127s31 -127 93 -127z" />
    <glyph glyph-name="period" unicode="." horiz-adv-x="163" 
d="M82 -13c-25 0 -40 16 -40 38s15 39 40 39s40 -17 40 -39s-15 -38 -40 -38z" />
    <glyph glyph-name="periodcentered" unicode="&#xb7;" horiz-adv-x="163" 
d="M82 218c-25 0 -40 16 -40 38s15 39 40 39s40 -17 40 -39s-15 -38 -40 -38z" />
    <glyph glyph-name="plus" unicode="+" 
d="M64 210c-11 0 -18 12 -18 23v7c0 11 6 23 17 23h160v170c0 10 13 17 24 17h6c12 0 24 -7 24 -17v-170h160c11 0 17 -12 17 -24v-6c0 -11 -6 -23 -17 -23h-160v-168c0 -10 -13 -18 -24 -18h-6c-11 0 -24 7 -24 17v169h-159z" />
    <glyph glyph-name="plusminus" unicode="&#xb1;" 
d="M64 297c-11 0 -18 13 -18 24v6c0 11 6 24 17 24h160v103c0 10 13 17 24 17h6c12 0 24 -7 24 -17v-103h160c11 0 17 -13 17 -24v-6c0 -12 -6 -24 -17 -24h-160v-101c0 -11 -13 -18 -24 -18h-6c-11 0 -24 6 -24 17v102h-159zM64 74c-11 0 -18 12 -18 23v7c0 11 6 23 17 23
h374c11 0 17 -12 17 -24v-6c0 -11 -6 -23 -17 -23h-373z" />
    <glyph glyph-name="q" unicode="q" horiz-adv-x="587" 
d="M506 -166c0 -11 -15 -17 -28 -17h-6c-13 0 -27 6 -27 17v259c-31 -67 -99 -113 -185 -113c-139 0 -217 104 -217 241c0 135 86 244 225 244c80 0 147 -40 177 -105v78c0 13 14 19 27 19h6c13 0 28 -6 28 -17v-606zM281 421c-115 0 -178 -90 -178 -199
c0 -108 58 -197 171 -197c107 0 171 83 171 176v52c0 92 -65 168 -164 168z" />
    <glyph glyph-name="q.alt" horiz-adv-x="555" 
d="M542 -184c-15 -4 -29 -6 -49 -6c-83 0 -188 47 -247 171c-132 14 -203 119 -203 242c0 132 83 243 235 243c151 0 234 -111 234 -244c0 -125 -75 -231 -211 -242c53 -88 135 -119 195 -119c13 0 24 2 36 4c12 3 19 -7 22 -19c3 -13 0 -26 -12 -30zM277 26
c115 0 175 90 175 197c0 105 -60 197 -175 197c-114 0 -174 -90 -174 -198c0 -105 60 -196 174 -196z" />
    <glyph glyph-name="question" unicode="?" horiz-adv-x="474" 
d="M378 406c0 94 -75 160 -153 160c-82 0 -135 -43 -167 -108c-5 -9 -20 -11 -33 -4c-12 7 -15 18 -11 29c38 80 111 134 214 134c119 0 214 -83 214 -211c0 -138 -126 -214 -220 -241c-9 -2 -19 6 -23 19c-3 12 -1 25 7 27c77 30 172 86 172 195zM233 -13
c-25 0 -40 16 -40 38c0 21 15 38 40 38s40 -17 40 -38c0 -22 -15 -38 -40 -38z" />
    <glyph glyph-name="questiondown" unicode="&#xbf;" horiz-adv-x="474" 
d="M221 617c25 0 40 -16 40 -38c0 -21 -15 -38 -40 -38s-40 17 -40 38c0 22 15 38 40 38zM76 198c0 -94 75 -160 153 -160c82 0 135 43 167 108c5 9 20 11 33 4c12 -7 15 -18 11 -29c-38 -80 -111 -134 -214 -134c-119 0 -214 83 -214 211c0 138 126 214 220 241
c9 2 19 -6 23 -19c3 -12 1 -25 -7 -27c-77 -30 -172 -86 -172 -195z" />
    <glyph glyph-name="quotedbl" unicode="&#x22;" horiz-adv-x="271" 
d="M99 460c-1 -11 -11 -16 -23 -16h-5c-12 0 -21 5 -22 16l-6 137c-1 12 15 18 28 18h7c14 0 28 -7 27 -18zM222 460c-1 -11 -11 -16 -23 -16h-5c-12 0 -21 5 -22 16l-6 137c-1 12 15 18 28 18h7c14 0 28 -7 27 -18z" />
    <glyph glyph-name="quotedblleft" unicode="&#x201c;" horiz-adv-x="293" 
d="M72 601c6 9 13 15 24 15h6c11 0 20 -8 16 -19c-8 -17 -18 -39 -21 -63c16 -5 27 -19 27 -37c0 -22 -15 -38 -40 -38s-42 18 -42 53c0 31 20 73 30 89zM199 601c6 9 13 15 24 15h6c11 0 20 -8 16 -19c-8 -17 -18 -39 -21 -63c16 -5 27 -19 27 -37c0 -22 -15 -38 -40 -38
s-42 18 -42 53c0 31 20 73 30 89z" />
    <glyph glyph-name="quotedblright" unicode="&#x201d;" horiz-adv-x="293" 
d="M94 473c-6 -9 -13 -15 -24 -15h-6c-11 0 -20 8 -16 19c8 17 18 39 21 63c-16 5 -27 19 -27 37c0 22 15 38 40 38s42 -18 42 -53c0 -31 -20 -73 -30 -89zM221 473c-6 -9 -13 -15 -24 -15h-6c-11 0 -20 8 -16 19c8 17 18 39 21 63c-16 5 -27 19 -27 37c0 22 15 38 40 38
s42 -18 42 -53c0 -31 -20 -73 -30 -89z" />
    <glyph glyph-name="quoteleft" unicode="&#x2018;" horiz-adv-x="166" 
d="M72 601c6 9 13 15 24 15h6c11 0 20 -8 16 -19c-8 -17 -18 -39 -21 -63c16 -5 27 -19 27 -37c0 -22 -15 -38 -40 -38s-42 18 -42 53c0 31 20 73 30 89z" />
    <glyph glyph-name="quoteright" unicode="&#x2019;" horiz-adv-x="166" 
d="M94 473c-6 -9 -13 -15 -24 -15h-6c-11 0 -20 8 -16 19c8 17 18 39 21 63c-16 5 -27 19 -27 37c0 22 15 38 40 38s42 -18 42 -53c0 -31 -20 -73 -30 -89z" />
    <glyph glyph-name="quotesingle" unicode="'" horiz-adv-x="148" 
d="M99 460c-1 -11 -11 -16 -23 -16h-5c-12 0 -21 5 -22 16l-6 137c-1 12 15 18 28 18h7c14 0 28 -7 27 -18z" />
    <glyph glyph-name="r" unicode="r" horiz-adv-x="355" 
d="M143 4c0 -11 -15 -17 -28 -17h-6c-13 0 -27 6 -27 17v436c0 11 14 17 27 17h6c13 0 28 -6 28 -17v-90c30 69 96 115 171 115c10 0 19 -1 29 -3c12 -3 15 -14 12 -28s-10 -24 -21 -22c-10 1 -18 2 -29 2c-97 0 -162 -84 -162 -176v-234z" />
    <glyph glyph-name="r_t" horiz-adv-x="638" 
d="M143 4c0 -11 -15 -17 -28 -17h-6c-13 0 -27 6 -27 17v436c0 11 14 17 27 17h6c13 0 28 -6 28 -17v-96c32 68 106 109 195 109h81v86c0 12 14 17 27 17h6c13 0 27 -5 27 -17v-86h111c11 0 17 -12 17 -23v-5c0 -11 -6 -23 -17 -23h-111v-288c0 -51 28 -76 84 -76h9
c13 0 20 -8 20 -23c0 -16 -12 -28 -35 -28h-25c-67 0 -113 44 -113 104v311h-89c-121 0 -187 -73 -187 -165v-233z" />
    <glyph glyph-name="registered" unicode="&#xae;" horiz-adv-x="591" 
d="M295 142c-150 0 -273 123 -273 274s123 274 273 274c151 0 274 -123 274 -274s-123 -274 -274 -274zM296 179c130 0 238 106 238 237c0 130 -108 237 -238 237c-131 0 -237 -107 -237 -237c0 -131 106 -237 237 -237zM186 572c0 7 5 10 12 10h92c64 0 114 -39 114 -100
c0 -45 -27 -77 -66 -91c55 -35 82 -92 82 -124c0 -8 -10 -12 -20 -12h-5c-10 0 -20 4 -20 11c0 20 -24 78 -85 117h-58v-117c0 -7 -11 -11 -22 -11h-4c-10 0 -20 4 -20 11v306zM285 549h-53v-134h55c42 0 71 28 71 67c0 41 -34 67 -73 67z" />
    <glyph glyph-name="s" unicode="s" 
d="M238 -21c-81 0 -157 33 -190 77c-9 9 -11 20 -3 30c8 11 18 16 28 8c29 -38 89 -69 163 -69c91 0 152 38 152 90c0 57 -52 76 -162 94c-114 19 -167 43 -167 124c0 80 75 133 191 133c87 0 149 -32 182 -76c8 -9 11 -20 3 -31s-19 -15 -29 -8c-29 38 -76 69 -155 69
c-82 0 -136 -33 -136 -85c0 -57 52 -69 161 -86c116 -18 170 -51 170 -132c0 -80 -82 -138 -208 -138z" />
    <glyph glyph-name="section" unicode="&#xa7;" horiz-adv-x="520" 
d="M446 -20c0 -94 -82 -165 -198 -165c-94 0 -159 49 -188 99c-7 8 -8 21 0 32c6 11 18 16 26 9c26 -42 85 -93 159 -93c84 0 145 52 145 113c0 62 -61 95 -165 116c-110 22 -164 65 -164 151c0 68 45 118 111 141c-54 24 -82 60 -82 120c0 93 77 158 185 158
c84 0 145 -42 175 -92c7 -9 8 -21 1 -31c-7 -12 -20 -17 -28 -10c-25 42 -73 87 -148 87c-77 0 -131 -46 -131 -108s57 -86 159 -106c112 -22 164 -69 164 -154c0 -68 -44 -117 -112 -139c59 -26 91 -68 91 -128zM256 358c-77 0 -140 -48 -140 -110s52 -94 154 -114
c1 0 3 -1 4 -1c80 3 137 48 137 108c0 61 -49 96 -154 117h-1z" />
    <glyph glyph-name="semicolon" unicode=";" horiz-adv-x="163" 
d="M82 259c-25 0 -40 16 -40 38s15 39 40 39s40 -17 40 -39s-15 -38 -40 -38zM84 -99c-3 -11 -10 -16 -23 -16h-6c-11 0 -22 5 -21 16l18 145c1 11 17 18 30 18h6c13 0 29 -7 26 -18z" />
    <glyph glyph-name="seven" unicode="7" horiz-adv-x="499" 
d="M49 550c-10 0 -17 13 -17 25v5c0 11 6 25 17 25h421c10 0 17 -14 17 -25v-5c0 -9 -4 -17 -8 -22c-116 -125 -233 -393 -233 -549c0 -11 -12 -17 -28 -17h-6c-16 0 -29 7 -29 18c0 155 107 409 224 545h-358z" />
    <glyph glyph-name="seven.dnom" horiz-adv-x="272" 
d="M27 268c-6 0 -11 9 -11 17v3c0 8 4 16 10 16h229c6 0 10 -8 10 -17v-2c0 -6 -2 -12 -4 -15c-62 -62 -123 -193 -123 -266c0 -7 -8 -10 -18 -10h-4c-11 0 -19 4 -19 11c0 72 54 193 115 263h-185z" />
    <glyph glyph-name="seven.numr" horiz-adv-x="272" 
d="M27 575c-6 0 -11 9 -11 17v3c0 8 4 16 10 16h229c6 0 10 -8 10 -17v-2c0 -6 -2 -12 -4 -15c-62 -62 -123 -193 -123 -266c0 -7 -8 -10 -18 -10h-4c-11 0 -19 4 -19 11c0 72 54 193 115 263h-185z" />
    <glyph glyph-name="six" unicode="6" horiz-adv-x="568" 
d="M527 191c0 -114 -87 -212 -226 -212c-163 0 -247 141 -247 314c0 177 97 324 262 324c93 0 157 -45 187 -98c7 -9 8 -22 1 -34c-7 -13 -22 -17 -30 -10c-28 48 -74 91 -157 91c-135 0 -201 -125 -201 -274v-10c33 68 100 119 195 119c136 0 216 -93 216 -210zM167 94
c31 -43 76 -70 134 -70c103 0 166 76 166 167c0 92 -56 166 -164 166c-104 0 -172 -78 -176 -170c8 -35 22 -67 40 -93z" />
    <glyph glyph-name="six.dnom" horiz-adv-x="308" 
d="M287 98c0 -59 -47 -109 -124 -109c-89 0 -136 71 -136 159c0 91 55 163 146 163c50 0 83 -21 100 -46c5 -5 5 -14 1 -21c-4 -9 -13 -13 -19 -9c-15 22 -39 42 -82 42c-70 0 -105 -57 -105 -128c19 30 53 53 102 53c73 0 117 -46 117 -104zM94 52c16 -20 39 -33 69 -33
c52 0 85 35 85 78c0 42 -30 77 -84 77c-55 0 -90 -38 -90 -78c5 -17 11 -32 20 -44z" />
    <glyph glyph-name="six.numr" horiz-adv-x="308" 
d="M287 405c0 -59 -47 -109 -124 -109c-89 0 -136 71 -136 159c0 91 55 163 146 163c50 0 83 -21 100 -46c5 -5 5 -14 1 -21c-4 -9 -13 -13 -19 -9c-15 22 -39 42 -82 42c-70 0 -105 -57 -105 -128c19 30 53 53 102 53c73 0 117 -46 117 -104zM94 359c16 -20 39 -33 69 -33
c52 0 85 35 85 78c0 42 -30 77 -84 77c-55 0 -90 -38 -90 -78c5 -17 11 -32 20 -44z" />
    <glyph glyph-name="slash" unicode="/" horiz-adv-x="361" 
d="M293 592c6 13 18 18 32 18h7c13 0 22 -10 18 -20l-282 -585c-5 -12 -18 -18 -32 -18h-7c-13 0 -22 9 -18 19z" />
    <glyph glyph-name="soundcopyright" unicode="&#x2117;" horiz-adv-x="591" 
d="M295 142c-150 0 -273 123 -273 274s123 274 273 274c151 0 274 -123 274 -274s-123 -274 -274 -274zM296 179c130 0 238 106 238 237c0 130 -108 237 -238 237c-131 0 -237 -107 -237 -237c0 -131 106 -237 237 -237zM312 383h-60v-117c0 -7 -11 -11 -22 -11h-4
c-10 0 -21 4 -21 11v306c0 7 6 10 13 10h92c64 0 114 -39 114 -100s-49 -99 -112 -99zM305 549h-53v-134h55c42 0 71 28 71 67c0 41 -35 67 -73 67z" />
    <glyph glyph-name="space" unicode=" " horiz-adv-x="233" 
 />
    <glyph glyph-name="sterling" unicode="&#xa3;" horiz-adv-x="543" 
d="M37 200c-8 0 -15 10 -15 19v3c0 9 6 18 15 18h86c-2 22 -5 44 -7 66h-79c-8 0 -15 9 -15 18v4c0 8 6 18 15 18h75c-3 29 -5 55 -5 74c0 117 86 197 197 197c88 0 151 -44 184 -98c7 -7 9 -21 1 -33c-7 -12 -18 -15 -25 -9c-28 45 -74 90 -152 90
c-81 0 -143 -62 -143 -145c0 -19 2 -46 6 -76h233c9 0 15 -10 15 -19v-3c0 -9 -6 -18 -15 -18h-229c3 -22 5 -44 8 -66h221c9 0 15 -9 15 -18v-4c0 -8 -6 -18 -15 -18h-217c2 -25 4 -47 4 -64c0 -44 -18 -71 -42 -91h353c10 0 16 -13 16 -25v-4c0 -12 -6 -24 -16 -24h-478
c-10 0 -18 13 -18 24v5c0 11 6 24 17 24h57c31 22 48 45 48 88c0 16 -2 40 -5 67h-90z" />
    <glyph glyph-name="t" unicode="t" horiz-adv-x="273" 
d="M166 4c0 -11 -15 -17 -28 -17h-6c-13 0 -27 6 -27 17v390h-87c-11 0 -18 12 -18 23v5c0 11 6 23 17 23h88v94c0 12 15 17 27 17h7c12 0 27 -5 27 -17v-94h90c11 0 17 -12 17 -23v-6c0 -11 -6 -22 -17 -22h-90v-390z" />
    <glyph glyph-name="t.alt" horiz-adv-x="328" 
d="M246 -13h-24c-68 0 -114 44 -114 104v303h-71c-11 0 -17 12 -17 23v5c0 11 5 23 17 23h71v94c0 12 15 17 28 17h6c13 0 27 -5 27 -17v-94h111c11 0 17 -12 17 -23v-6c0 -11 -6 -22 -17 -22h-111v-280c0 -51 27 -76 83 -76h10c12 0 20 -8 20 -23c0 -16 -12 -28 -36 -28z
" />
    <glyph glyph-name="t_t" horiz-adv-x="596" 
d="M164 4c0 -11 -14 -17 -27 -17h-7c-12 0 -27 6 -27 17v390h-85c-11 0 -18 12 -18 23v5c0 11 6 23 17 23h86v94c0 12 15 17 28 17h6c13 0 27 -5 27 -17v-94h264v94c0 12 14 17 27 17h6c13 0 27 -5 27 -17v-94h91c11 0 17 -12 17 -23v-6c0 -11 -6 -22 -17 -22h-91v-390
c0 -11 -14 -17 -27 -17h-7c-12 0 -26 6 -26 17v390h-264v-390z" />
    <glyph glyph-name="three" unicode="3" horiz-adv-x="520" 
d="M250 -21c-108 0 -171 49 -201 102c-8 9 -9 22 -1 35c7 12 22 17 30 9c28 -48 79 -95 171 -95c96 0 166 51 166 124c0 72 -71 128 -225 128c-11 0 -18 8 -18 20v5c0 9 5 20 17 20c131 0 210 52 210 126c0 69 -68 113 -144 113c-89 0 -131 -47 -158 -94c-9 -9 -24 -6 -32 6
c-9 11 -5 25 2 34c30 54 93 105 195 105c111 0 198 -62 198 -156c0 -76 -57 -132 -152 -152c113 -20 168 -79 168 -157c0 -99 -88 -173 -226 -173z" />
    <glyph glyph-name="three.dnom" horiz-adv-x="281" 
d="M134 -11c-57 0 -91 24 -108 49c-5 5 -5 13 -1 21s13 13 19 8c15 -21 42 -44 89 -44c50 0 86 24 86 57c0 34 -37 59 -119 59c-6 0 -9 4 -9 13v3c0 5 3 12 9 12c69 0 110 24 110 58c0 32 -34 53 -74 53c-46 0 -68 -24 -83 -45c-6 -5 -15 -2 -20 7c-4 7 -2 15 2 21
c17 25 51 50 107 50c61 0 108 -31 108 -79c0 -38 -29 -66 -79 -77c59 -10 88 -38 88 -77c0 -52 -49 -89 -125 -89z" />
    <glyph glyph-name="three.numr" horiz-adv-x="281" 
d="M134 296c-57 0 -91 24 -108 49c-5 5 -5 13 -1 21s13 13 19 8c15 -21 42 -44 89 -44c50 0 86 24 86 57c0 34 -37 59 -119 59c-6 0 -9 4 -9 13v3c0 5 3 12 9 12c69 0 110 24 110 58c0 32 -34 53 -74 53c-46 0 -68 -24 -83 -45c-6 -5 -15 -2 -20 7c-4 7 -2 15 2 21
c17 25 51 50 107 50c61 0 108 -31 108 -79c0 -38 -29 -66 -79 -77c59 -10 88 -38 88 -77c0 -52 -49 -89 -125 -89z" />
    <glyph glyph-name="threequarters" unicode="&#xbe;" horiz-adv-x="627" 
d="M129 296c-57 0 -91 24 -108 49c-5 5 -5 13 -1 21s13 13 19 8c15 -21 42 -44 89 -44c50 0 86 24 86 57c0 34 -37 59 -119 59c-6 0 -9 4 -9 13v3c0 5 3 12 9 12c69 0 110 24 110 58c0 32 -34 53 -74 53c-46 0 -68 -24 -83 -45c-6 -5 -15 -2 -20 7c-4 7 -2 15 2 21
c17 25 51 50 107 50c61 0 108 -31 108 -79c0 -38 -29 -66 -79 -77c59 -10 88 -38 88 -77c0 -52 -49 -89 -125 -89zM473 592c8 12 17 18 30 18h7c13 0 23 -10 16 -20l-369 -585c-7 -11 -16 -18 -30 -18h-7c-13 0 -22 10 -16 19zM547 4c0 -7 -8 -10 -17 -10h-5
c-8 0 -17 3 -17 10v50h-174c-6 0 -12 7 -12 15v4c0 7 1 13 3 18c26 74 101 168 170 209c6 5 15 9 24 9h13c8 0 15 -4 15 -11v-211h53c7 0 11 -8 11 -15v-3c0 -7 -4 -15 -11 -15h-53v-50zM359 87h149v187c-61 -37 -125 -121 -149 -187z" />
    <glyph glyph-name="tilde" unicode="&#x2dc;" 
d="M104 554c-4 -7 -15 -10 -26 -3c-10 7 -11 16 -7 23c20 40 50 73 106 73c69 0 93 -45 143 -45c35 0 57 19 75 50c5 7 16 11 26 4c11 -7 12 -16 8 -24c-19 -40 -49 -73 -106 -73c-69 0 -93 46 -143 46c-36 0 -56 -19 -76 -51z" />
    <glyph glyph-name="tilde.cap" 
d="M78 658c-10 7 -10 16 -7 24c20 39 50 73 106 73c68 0 93 -47 143 -47c35 0 57 19 75 49c5 7 16 11 26 4c11 -7 11 -16 7 -24c-19 -40 -49 -73 -105 -73c-68 0 -93 47 -143 47c-36 0 -57 -19 -76 -49c-4 -7 -15 -11 -26 -4z" />
    <glyph glyph-name="two" unicode="2" horiz-adv-x="501" 
d="M239 617c121 0 207 -72 207 -196c0 -112 -119 -242 -333 -380h348c10 0 18 -13 18 -25v-4c0 -12 -7 -25 -17 -25h-421c-11 0 -17 13 -17 25v5c0 7 1 17 10 22c237 155 348 279 348 377c0 97 -68 149 -148 149c-81 0 -133 -42 -166 -107c-4 -9 -19 -11 -31 -4
s-17 18 -13 29c38 80 112 134 215 134z" />
    <glyph glyph-name="two.dnom" horiz-adv-x="273" 
d="M130 311c67 0 114 -40 114 -98c0 -56 -62 -119 -174 -184h181c6 0 10 -8 10 -15v-4c0 -8 -4 -16 -10 -16h-229c-5 0 -9 8 -9 16v4c0 5 0 11 6 14c126 75 183 135 183 181c0 41 -35 67 -75 67c-42 0 -69 -19 -86 -50c-3 -5 -11 -8 -20 -3c-7 5 -10 12 -8 18
c19 41 60 70 117 70z" />
    <glyph glyph-name="two.numr" horiz-adv-x="273" 
d="M130 618c67 0 114 -40 114 -98c0 -56 -62 -119 -174 -184h181c6 0 10 -8 10 -15v-4c0 -8 -4 -16 -10 -16h-229c-5 0 -9 8 -9 16v4c0 5 0 11 6 14c126 75 183 135 183 181c0 41 -35 67 -75 67c-42 0 -69 -19 -86 -50c-3 -5 -11 -8 -20 -3c-7 5 -10 12 -8 18
c19 41 60 70 117 70z" />
    <glyph glyph-name="u" unicode="u" horiz-adv-x="579" 
d="M82 440c0 11 14 17 27 17h7c12 0 27 -6 27 -17v-255c0 -97 53 -159 139 -159c94 0 154 81 154 173v241c0 11 15 17 28 17h6c13 0 27 -6 27 -17v-436c0 -11 -15 -17 -27 -17h-7c-12 0 -27 6 -27 17v86c-30 -66 -94 -110 -173 -110c-113 0 -181 76 -181 194v266z" />
    <glyph glyph-name="u.alt" horiz-adv-x="603" 
d="M82 440c0 11 14 17 27 17h7c12 0 27 -6 27 -17v-255c0 -97 53 -159 139 -159c94 0 154 81 154 173v241c0 11 15 17 27 17h7c13 0 27 -6 27 -17v-330c0 -54 29 -76 83 -76c12 0 18 -8 18 -21c0 -14 -12 -26 -35 -26h-15c-67 0 -112 41 -112 103
c-30 -65 -94 -110 -173 -110c-113 0 -181 76 -181 194v266z" />
    <glyph glyph-name="uacute" unicode="&#xfa;" horiz-adv-x="579" 
d="M301 522c-7 -10 -16 -17 -28 -17h-6c-11 0 -21 8 -17 17l67 124c6 12 21 17 34 17h6c13 0 27 -9 22 -18zM82 440c0 11 14 17 27 17h7c12 0 27 -6 27 -17v-255c0 -97 53 -159 139 -159c94 0 154 81 154 173v241c0 11 15 17 28 17h6c13 0 27 -6 27 -17v-436
c0 -11 -15 -17 -27 -17h-7c-12 0 -27 6 -27 17v86c-30 -66 -94 -110 -173 -110c-113 0 -181 76 -181 194v266z" />
    <glyph glyph-name="uacute.alt" horiz-adv-x="603" 
d="M301 522c-7 -10 -16 -17 -28 -17h-6c-11 0 -21 8 -17 17l67 124c6 12 21 17 34 17h6c13 0 27 -9 22 -18zM82 440c0 11 14 17 27 17h7c12 0 27 -6 27 -17v-255c0 -97 53 -159 139 -159c94 0 154 81 154 173v241c0 11 15 17 27 17h7c13 0 27 -6 27 -17v-330
c0 -54 29 -76 83 -76c12 0 18 -8 18 -21c0 -14 -12 -26 -35 -26h-15c-67 0 -112 41 -112 103c-30 -65 -94 -110 -173 -110c-113 0 -181 76 -181 194v266z" />
    <glyph glyph-name="udieresis" unicode="&#xfc;" horiz-adv-x="579" 
d="M223 558c-24 0 -38 16 -38 37c0 20 14 35 38 35c23 0 38 -15 38 -35c0 -21 -15 -37 -38 -37zM371 558c-24 0 -38 16 -38 37c0 20 14 35 38 35c23 0 38 -15 38 -35c0 -21 -15 -37 -38 -37zM82 440c0 11 14 17 27 17h7c12 0 27 -6 27 -17v-255c0 -97 53 -159 139 -159
c94 0 154 81 154 173v241c0 11 15 17 28 17h6c13 0 27 -6 27 -17v-436c0 -11 -15 -17 -27 -17h-7c-12 0 -27 6 -27 17v86c-30 -66 -94 -110 -173 -110c-113 0 -181 76 -181 194v266z" />
    <glyph glyph-name="underscore" unicode="_" horiz-adv-x="385" 
d="M30 -73c-11 0 -18 12 -18 23v6c0 11 6 23 17 23h328c11 0 16 -12 16 -24v-5c0 -11 -5 -23 -16 -23h-327z" />
    <glyph glyph-name="v" unicode="v" horiz-adv-x="523" 
d="M305 0c-11 -10 -25 -13 -45 -13s-33 4 -42 14c-92 84 -187 328 -187 438c0 11 13 18 26 18h7c13 0 27 -6 27 -17c0 -80 75 -302 174 -408c99 109 171 328 171 408c0 11 13 17 25 17h6c13 0 26 -7 26 -18c0 -109 -95 -354 -188 -439z" />
    <glyph glyph-name="w" unicode="w" horiz-adv-x="787" 
d="M628 1c-7 -10 -22 -14 -42 -14c-21 0 -42 7 -48 22l-145 385l-145 -385c-5 -15 -27 -22 -47 -22s-36 4 -43 14c-83 133 -118 321 -118 438c0 11 14 18 27 18h7c13 0 26 -6 26 -17c0 -87 18 -256 105 -403l147 396c4 14 23 21 44 21c20 0 37 -7 42 -21l147 -396
c87 147 105 316 105 403c0 11 13 17 26 17h7c13 0 23 -7 23 -18c0 -117 -34 -305 -118 -438z" />
    <glyph glyph-name="x" unicode="x" horiz-adv-x="521" 
d="M90 5c0 -11 -14 -17 -26 -17h-7c-14 0 -26 7 -26 18c0 62 64 168 176 229c-109 60 -164 146 -164 204c0 11 15 18 27 18h7c11 0 24 -6 24 -17c0 -39 43 -120 165 -184c108 62 155 143 155 184c0 11 13 17 25 17h6c13 0 26 -7 26 -18c0 -56 -58 -148 -169 -205
c116 -63 181 -165 181 -228c0 -11 -14 -18 -27 -18h-7c-13 0 -26 6 -26 17c0 40 -50 138 -177 206c-112 -66 -163 -163 -163 -206z" />
    <glyph glyph-name="y" unicode="y" horiz-adv-x="540" 
d="M294 53c77 97 159 304 159 387c0 11 13 17 25 17h6c12 0 25 -7 25 -18c0 -103 -88 -303 -162 -399c-83 -109 -163 -187 -247 -226c-10 -6 -25 -5 -34 2l-5 6c-10 8 -11 20 1 28c58 29 114 70 177 139c-118 111 -208 348 -208 450c0 11 13 18 26 18h7c13 0 27 -6 27 -17
c0 -76 74 -288 185 -410c6 8 12 15 18 23z" />
    <glyph glyph-name="y.alt" horiz-adv-x="579" 
d="M436 17v85c-30 -66 -94 -110 -173 -110c-113 0 -181 76 -181 194v254c0 11 14 17 27 17h7c12 0 27 -6 27 -17v-243c0 -97 53 -159 139 -159c94 0 154 81 154 173v228c0 12 15 17 27 17h7c13 0 27 -5 27 -17v-424c0 -121 -100 -205 -238 -205c-63 0 -114 14 -155 42
c-11 6 -17 18 -13 30s15 19 25 13c34 -22 75 -39 137 -39c107 0 183 62 183 161z" />
    <glyph glyph-name="yen" unicode="&#xa5;" horiz-adv-x="595" 
d="M76 111c-9 0 -15 9 -15 18v3c0 9 6 19 14 19h190v65h-189c-9 0 -15 9 -15 18v4c0 8 6 18 14 18h153c-130 93 -196 260 -196 329c0 12 13 21 28 21h6c14 0 28 -8 28 -20c0 -50 60 -213 204 -308c143 95 203 258 203 308c0 12 14 20 28 20h6c15 0 28 -9 28 -21
c0 -69 -66 -235 -196 -329h143c8 0 14 -10 14 -18v-4c0 -9 -6 -18 -14 -18h-182v-65h182c8 0 14 -10 14 -19v-3c0 -9 -6 -18 -14 -18h-182v-107c0 -10 -15 -17 -28 -17h-7c-13 0 -28 7 -28 17v107h-189z" />
    <glyph glyph-name="z" unicode="z" horiz-adv-x="494" 
d="M454 21c0 -11 -6 -21 -17 -21h-379c-10 0 -16 9 -16 19v4c0 173 301 238 335 373h-309c-11 0 -17 11 -17 22v5c0 11 5 22 16 22h358c11 0 17 -9 17 -20v-4c0 -164 -304 -228 -336 -372h331c11 0 17 -11 17 -22v-6z" />
    <glyph glyph-name="zero" unicode="0" horiz-adv-x="604" 
d="M302 -21c-165 0 -248 145 -248 318c0 174 83 320 248 320s248 -145 248 -318c0 -174 -83 -320 -248 -320zM302 28c129 0 183 124 183 271c0 144 -61 269 -183 269c-129 0 -183 -125 -183 -271c0 -145 61 -269 183 -269z" />
    <glyph glyph-name="zero.dnom" horiz-adv-x="327" 
d="M163 -11c-89 0 -136 72 -136 161c0 88 47 161 136 161c91 0 137 -72 137 -160c0 -89 -46 -162 -137 -162zM163 23c66 0 94 58 94 128c0 67 -31 126 -94 126c-65 0 -93 -58 -93 -127s31 -127 93 -127z" />
    <glyph glyph-name="zero.numr" horiz-adv-x="327" 
d="M164 296c-89 0 -136 72 -136 161c0 88 47 161 136 161c91 0 137 -72 137 -160c0 -89 -46 -162 -137 -162zM164 330c66 0 94 58 94 128c0 67 -31 126 -94 126c-65 0 -93 -58 -93 -127s31 -127 93 -127z" />
    </font>
</defs>
</svg>
