<?xml version="1.0" standalone="no"?>
<!DOCTYPE svg PUBLIC "-//W3C//DTD SVG 1.1//EN" "http://www.w3.org/Graphics/SVG/1.1/DTD/svg11.dtd" >
<svg xmlns="http://www.w3.org/2000/svg" xmlns:xlink="http://www.w3.org/1999/xlink" version="1.1">
<metadata>
Created by FontForge 20170924 at Mon Mar 23 22:35:38 2020
 By www-data

</metadata>
<defs>
<font id="AlpinaSans-SemiboldItalic" horiz-adv-x="500" >
  <font-face 
    font-family="Alpina Sans"
    font-weight="484"
    font-style="italic"
    font-stretch="normal"
    units-per-em="1000"
    panose-1="2 15 0 3 4 5 0 0 0 3"
    ascent="750"
    descent="-250"
    x-height="458"
    cap-height="621"
    bbox="-158.081 -250 1730 818"
    underline-thickness="0"
    underline-position="0"
    slope="-7"
    unicode-range="U+0020-FB01"
  />
<missing-glyph horiz-adv-x="707" 
d="M56 -170l100 816h553l-100 -816h-553zM179 -71h331l76 618h-331z" />
    <glyph glyph-name="f_b" unicode="fb" horiz-adv-x="948" 
d="M76 360c-16 0 -25 23 -22 44l1 10c3 20 14 44 31 44h51l2 14c14 118 118 194 240 194c44 0 80 -10 109 -24l1 8c2 17 31 26 57 26h11c26 0 54 -9 52 -26l-33 -265c42 55 107 89 179 89c122 0 205 -100 188 -245c-18 -146 -123 -245 -252 -245c-68 0 -125 30 -154 83
l-6 -53c-2 -17 -32 -26 -59 -26h-12c-25 0 -51 9 -50 26l67 542c-23 17 -50 29 -87 29c-71 0 -123 -49 -132 -118l-1 -9h119c16 0 22 -24 19 -45l-1 -9c-3 -21 -14 -44 -30 -44h-119l-42 -346c-2 -17 -32 -26 -58 -26h-12c-26 0 -52 9 -50 26l42 346h-49zM667 63
c87 0 148 70 159 166c12 95 -35 164 -116 164c-74 0 -133 -56 -148 -130l-8 -64c-9 -79 41 -136 113 -136z" />
    <glyph glyph-name="f_f" unicode="ff" horiz-adv-x="650" 
d="M76 360c-16 0 -25 23 -22 44l1 10c3 20 14 44 31 44h51l2 14c14 118 118 194 240 194c63 0 112 -19 148 -45c35 30 82 45 131 45c36 0 64 -7 82 -15c17 -7 26 -26 17 -50c-9 -25 -26 -35 -41 -31c-12 4 -27 10 -50 10c-38 0 -69 -27 -75 -68l-7 -54h97
c16 0 22 -24 19 -45l-1 -9c-3 -21 -14 -44 -30 -44h-96l-42 -346c-2 -17 -32 -26 -58 -26h-12c-26 0 -52 9 -51 26l43 346h-208l-42 -346c-2 -17 -32 -26 -58 -26h-12c-26 0 -52 9 -50 26l42 346h-49zM258 467l-1 -9h208l7 58c2 14 5 27 10 40c-25 17 -55 29 -92 29
c-71 0 -123 -49 -132 -118z" />
    <glyph glyph-name="f_f_i" unicode="ffi" horiz-adv-x="922" 
d="M76 360c-16 0 -25 23 -22 44l1 10c3 20 14 44 31 44h51l2 14c14 118 118 194 240 194c76 0 131 -29 168 -59c47 41 112 64 189 64c64 0 108 -16 144 -38c15 -8 24 -27 16 -52c-8 -23 -26 -35 -42 -28c-27 17 -62 33 -114 33c-81 0 -142 -48 -155 -128h274
c26 0 52 -9 50 -26l-51 -418c-2 -17 -32 -26 -58 -26h-12c-25 0 -52 9 -50 26l42 346h-207l-42 -346c-2 -17 -32 -26 -58 -26h-12c-26 0 -52 9 -51 26l43 346h-208l-42 -346c-2 -17 -32 -26 -58 -26h-12c-26 0 -52 9 -50 26l42 346h-49zM258 467l-1 -9h208c5 32 15 61 30 88
c-25 20 -60 39 -105 39c-71 0 -123 -49 -132 -118z" />
    <glyph glyph-name="f_f_l" unicode="ffl" horiz-adv-x="922" 
d="M76 360c-16 0 -25 23 -22 44l1 10c3 20 14 44 31 44h51l2 14c14 118 118 194 240 194c73 0 127 -27 164 -55c43 35 101 55 163 55c44 0 79 -9 109 -23v2c2 17 32 26 58 26h12c26 0 52 -9 50 -26l-77 -631c-2 -17 -32 -26 -58 -26h-12c-25 0 -52 9 -50 26l66 543
c-23 17 -49 28 -85 28c-71 0 -124 -49 -133 -118l-1 -9h119c16 0 22 -24 19 -45l-1 -9c-3 -21 -14 -44 -31 -44h-118l-42 -346c-2 -17 -32 -26 -58 -26h-12c-26 0 -52 9 -51 26l43 346h-208l-42 -346c-2 -17 -32 -26 -58 -26h-12c-26 0 -52 9 -50 26l42 346h-49zM258 467
l-1 -9h208l2 14c3 28 12 54 24 76c-25 19 -58 37 -101 37c-71 0 -123 -49 -132 -118z" />
    <glyph glyph-name="f_h" unicode="fh" horiz-adv-x="947" 
d="M76 360c-16 0 -25 23 -22 44l1 10c3 20 14 44 31 44h51l2 14c14 118 118 194 240 194c44 0 80 -10 109 -24l1 8c2 17 31 26 57 26h11c26 0 54 -9 52 -26l-32 -265c41 55 106 89 180 89c111 0 174 -71 161 -181l-34 -279c-2 -17 -32 -26 -59 -26h-11c-26 0 -52 9 -50 26
l31 255c9 75 -29 123 -96 123c-69 0 -124 -55 -137 -127l-31 -251c-2 -17 -32 -26 -59 -26h-12c-25 0 -51 9 -50 26l67 542c-23 17 -50 29 -87 29c-71 0 -123 -49 -132 -118l-1 -9h119c16 0 22 -24 19 -45l-1 -9c-3 -21 -14 -44 -30 -44h-119l-42 -346
c-2 -17 -32 -26 -58 -26h-12c-26 0 -52 9 -50 26l42 346h-49z" />
    <glyph glyph-name="f_j" unicode="fj" horiz-adv-x="594" 
d="M76 360c-16 0 -25 23 -22 44l1 10c3 20 14 44 31 44h51c18 126 124 213 271 213c64 0 108 -16 144 -38c16 -8 24 -27 16 -52c-8 -23 -26 -35 -42 -28c-27 17 -61 33 -113 33c-82 0 -143 -49 -156 -128h274c26 0 53 -9 51 -26l-59 -477c-11 -93 -89 -145 -180 -145
c-29 0 -54 4 -72 12c-17 7 -25 26 -17 50c9 25 26 34 40 31c13 -4 25 -7 41 -7c37 0 64 26 68 63l50 401h-208l-42 -346c-2 -17 -32 -26 -58 -26h-12c-26 0 -52 9 -50 26l42 346h-49z" />
    <glyph glyph-name="f_k" unicode="fk" horiz-adv-x="888" 
d="M76 360c-16 0 -25 23 -22 44l1 10c3 20 14 44 31 44h51l2 14c14 118 118 194 240 194c44 0 80 -10 109 -24l1 8c2 17 31 26 57 26h11c26 0 54 -9 52 -26l-45 -365h13c93 0 211 110 217 158c2 17 30 26 52 26h12c24 0 50 -11 48 -29c-6 -52 -82 -141 -185 -199
c89 -58 152 -158 145 -223c-3 -17 -32 -29 -59 -29h-12c-26 0 -52 9 -50 26c6 51 -88 181 -182 181h-10l-22 -182c-2 -17 -32 -26 -59 -26h-12c-25 0 -51 9 -50 26l67 542c-23 17 -50 29 -87 29c-71 0 -123 -49 -132 -118l-1 -9h119c16 0 22 -24 19 -45l-1 -9
c-3 -21 -14 -44 -30 -44h-119l-42 -346c-2 -17 -32 -26 -58 -26h-12c-26 0 -52 9 -50 26l42 346h-49z" />
    <glyph glyph-name="f_l" unicode="fl" horiz-adv-x="594" 
d="M76 360c-16 0 -25 23 -22 44l1 10c3 20 14 44 31 44h51l2 14c14 118 118 194 240 194c44 0 80 -10 109 -24l1 8c2 17 31 26 57 26h11c26 0 54 -9 52 -26l-78 -636c-2 -17 -32 -26 -59 -26h-12c-25 0 -51 9 -50 26l67 542c-23 17 -50 29 -87 29c-71 0 -123 -49 -132 -118
l-1 -9h119c16 0 22 -24 19 -45l-1 -9c-3 -21 -14 -44 -30 -44h-119l-42 -346c-2 -17 -32 -26 -58 -26h-12c-26 0 -52 9 -50 26l42 346h-49z" />
    <glyph glyph-name="fi" unicode="fi" horiz-adv-x="594" 
d="M76 360c-16 0 -25 23 -22 44l1 10c3 20 14 44 31 44h51c18 126 124 213 271 213c64 0 108 -16 144 -38c16 -8 24 -27 16 -52c-8 -23 -26 -35 -42 -28c-27 17 -61 33 -113 33c-82 0 -143 -49 -156 -128h274c26 0 53 -9 51 -26l-51 -418c-2 -17 -32 -26 -59 -26h-12
c-25 0 -51 9 -50 26l43 346h-208l-42 -346c-2 -17 -32 -26 -58 -26h-12c-26 0 -52 9 -50 26l42 346h-49z" />
    <glyph glyph-name="logoalpina_1" unicode="&#x40;LP" horiz-adv-x="1802" 
d="M900 750c581 0 830 -187 830 -432c0 -263 -489 -568 -829 -568c-341 0 -829 305 -829 568c0 245 247 432 828 432zM551 518c10 -10 28 -1 28 16c0 14 -17 38 -52 49c-100 32 -246 -36 -312 -158c-53 -99 -28 -177 15 -196c49 -22 107 9 186 96c-8 -19 -14 -38 -14 -53
c0 -14 10 -27 23 -34c25 -13 70 3 123 70v-14c1 -18 13 -33 27 -40c21 -11 72 6 144 97c-40 -77 -90 -154 -90 -172c0 -20 11 -32 26 -39c13 -6 24 0 28 12c8 26 46 103 77 163c52 94 119 167 139 161c16 -5 14 -41 -9 -86s-67 -78 -104 -69c-12 3 -17 -8 -15 -17
c2 -14 13 -26 24 -30c10 -4 22 -4 36 0c39 12 85 42 132 91c-15 -27 -26 -50 -26 -59c0 -18 12 -31 27 -37c25 -9 63 15 111 76c-10 -19 -16 -34 -16 -41c0 -17 8 -35 27 -40c9 -3 16 2 18 11c1 8 4 19 11 31c74 128 146 162 157 162c19 0 -86 -138 -86 -169
c0 -19 10 -35 28 -40c21 -6 48 7 97 62c-2 -12 -2 -23 -1 -32c3 -30 19 -42 37 -47c16 -5 45 7 95 55c-4 -13 -6 -25 -6 -36c0 -15 13 -30 27 -35c40 -15 100 27 133 73c9 13 3 29 -4 34c-6 4 -13 1 -19 -6c-31 -37 -57 -55 -70 -49c-12 6 -8 31 8 64c16 30 62 105 63 118
c1 12 -10 28 -22 33s-19 -2 -23 -11c-2 -5 -5 -11 -7 -15c-7 16 -24 32 -50 32c-46 0 -85 -31 -122 -85c-2 -3 -5 -8 -5 -8c-55 -70 -83 -92 -91 -87c-10 6 84 139 84 156c0 24 -20 44 -40 44c-17 0 -69 -26 -120 -83c11 24 20 44 20 52c0 15 -11 26 -27 32
c-10 3 -16 0 -19 -10c-1 -6 -4 -15 -8 -24c-45 -101 -124 -164 -134 -159c-12 6 9 37 29 74c17 35 38 65 38 78c0 20 -12 31 -28 38c-9 4 -14 0 -16 -9s-6 -20 -13 -33c-18 -34 -54 -75 -89 -106c3 4 5 7 8 13c41 81 24 132 -15 142c-22 6 -62 -29 -104 -80
c14 30 23 52 23 57c0 17 -13 34 -27 40c-10 3 -18 0 -21 -10c-5 -16 -11 -34 -18 -53c-59 -113 -141 -167 -154 -162c-11 4 -17 14 -8 45c88 82 133 143 160 191c28 51 21 91 -17 101c-43 11 -89 -37 -144 -164c-16 -38 -29 -70 -40 -96c-57 -73 -85 -94 -98 -89
c-14 5 -13 17 8 63c20 43 48 82 48 97c0 19 -17 40 -30 40c-9 0 -15 -5 -24 -22c-84 -150 -164 -207 -200 -193c-24 9 -36 52 1 123c44 83 145 147 236 123c16 -4 28 -10 36 -17zM1084 625c-21 -10 -23 -70 -5 -76c18 -9 60 15 60 41c0 18 -35 39 -55 35zM654 453
c55 112 74 145 88 141c8 -2 10 -15 -4 -38c-18 -30 -40 -67 -94 -125c3 7 6 14 10 22zM1505 433c-55 -104 -110 -141 -128 -136c-16 5 -20 43 9 89c31 50 62 70 86 70c18 0 33 -10 33 -23zM1283 -50l-80 26l-53 39l-34 -11l-41 43l-31 21l-42 78l-51 52l-51 14l-28 -26
l-19 -39l-43 -29l-29 -68l-102 -64l-44 6l-52 -43l-43 12l-23 -10c52 -25 102 -49 181 -74l-67 52l8 23l112 -88l45 -9l-124 97l21 12l148 -116l38 -3l-146 114l57 -16l124 -98l33 2l-129 100l16 15l144 -112l29 5l-156 123l16 14l131 -104l-25 48l-89 70l17 13l42 -32
l-1 28l-24 19l20 15l-11 46l15 38l-34 53l30 -9l42 -44l36 -79l40 -29l79 -82l19 38l38 -27l57 -20z" />
    <glyph glyph-name="logoalpina_2" unicode="F&#x40;LP" horiz-adv-x="1802" 
d="M900 750c581 0 830 -187 830 -432c0 -264 -489 -568 -829 -568c-342 0 -829 304 -829 568c0 245 247 432 828 432zM1104 -102l-306 240l33 29l270 -213l-52 98l-183 144l35 27l87 -66l-2 58l-49 39l41 31l-23 97l31 78l-70 109l62 -19l85 -90l75 -165l84 -60l163 -169
l40 79l57 -41c11 9 25 23 36 35l-102 76l-70 -23l-84 89l-66 45l-87 161l-104 107l-106 28l-57 -53l-40 -80l-88 -60l-60 -142l-210 -132l-90 12l-54 -43c92 -89 213 -160 348 -209l-218 170l43 25l293 -229c27 -6 57 -11 87 -14l-298 232l117 -33l256 -201c22 2 49 5 64 7
l-262 202l33 31l285 -222c20 5 38 10 56 15z" />
    <glyph glyph-name=".notdef" horiz-adv-x="707" 
d="M56 -170l100 816h553l-100 -816h-553zM179 -71h331l76 618h-331z" />
    <glyph glyph-name="A" unicode="A" horiz-adv-x="630" 
d="M139 17c-2 -17 -30 -26 -53 -26h-13c-25 0 -52 12 -49 29c19 159 177 478 283 578c16 15 50 21 90 21c37 0 67 -7 78 -22c76 -99 156 -416 136 -577c-2 -17 -32 -29 -58 -29h-15c-25 0 -52 9 -50 26c5 40 2 101 -7 169h-293c-26 -68 -44 -129 -49 -169zM229 282h236
c-20 95 -50 191 -88 255c-53 -67 -106 -162 -148 -255z" />
    <glyph glyph-name="Aacute" unicode="&#xc1;" horiz-adv-x="630" 
d="M438 677c-12 -13 -26 -24 -50 -24h-11c-23 0 -40 10 -31 24l83 116c11 16 39 25 66 25h10c28 0 52 -14 40 -26zM139 17c-2 -17 -30 -26 -53 -26h-13c-25 0 -52 12 -49 29c19 159 177 478 283 578c16 15 50 21 90 21c37 0 67 -7 78 -22c76 -99 156 -416 136 -577
c-2 -17 -32 -29 -58 -29h-15c-25 0 -52 9 -50 26c5 40 2 101 -7 169h-293c-26 -68 -44 -129 -49 -169zM229 282h236c-20 95 -50 191 -88 255c-53 -67 -106 -162 -148 -255z" />
    <glyph glyph-name="B" unicode="B" horiz-adv-x="561" 
d="M146 594c2 17 15 22 34 22h182c115 0 209 -58 196 -164c-8 -67 -57 -113 -120 -137c68 -22 116 -70 106 -151c-14 -115 -129 -171 -244 -171h-196c-19 0 -31 10 -29 27zM342 532h-79l-23 -185h81c61 0 109 38 116 93c7 60 -43 92 -95 92zM325 272h-94l-24 -195h94
c62 0 119 35 126 96c8 62 -44 99 -102 99z" />
    <glyph glyph-name="C" unicode="C" horiz-adv-x="643" 
d="M659 507c4 -17 -11 -40 -37 -53c-28 -15 -50 -11 -58 1c-26 48 -75 76 -143 76c-114 0 -196 -92 -212 -222c-16 -124 52 -231 164 -231c79 0 138 35 173 91c8 15 33 19 59 6c24 -12 34 -30 27 -47c-45 -88 -149 -149 -276 -149c-185 0 -298 147 -275 330
c22 184 159 320 351 320c111 0 202 -49 227 -122z" />
    <glyph glyph-name="C.alt" horiz-adv-x="654" 
d="M613 61c-55 -48 -129 -82 -241 -82c-200 0 -314 152 -291 335s169 315 349 315c138 0 242 -80 227 -202c-13 -111 -105 -165 -189 -165c-31 0 -53 12 -50 43c2 16 11 32 24 32c51 0 95 30 102 87c8 63 -48 106 -119 106c-110 0 -200 -90 -215 -214
c-16 -130 71 -237 196 -237c80 0 131 22 179 59c14 11 31 -1 39 -21c6 -17 5 -41 -11 -56z" />
    <glyph glyph-name="D" unicode="D" horiz-adv-x="682" 
d="M305 -7h-201c-19 0 -31 10 -29 27l71 574c2 17 15 22 34 22h193c198 0 326 -128 304 -312c-23 -184 -173 -311 -372 -311zM361 523h-99l-54 -437h103c125 0 221 85 237 218c16 130 -67 219 -187 219z" />
    <glyph glyph-name="E" unicode="E" horiz-adv-x="524" 
d="M146 594c2 17 15 22 34 22h339c16 0 23 -24 20 -44l-1 -8c-3 -20 -15 -42 -31 -42h-245l-20 -164h231c15 0 22 -23 19 -44v-8c-3 -20 -15 -42 -31 -42h-231l-22 -177h256c16 0 22 -23 20 -44l-1 -7c-2 -21 -14 -43 -30 -43h-349c-19 0 -31 10 -29 27z" />
    <glyph glyph-name="E.alt" horiz-adv-x="524" 
d="M276 -21c-150 0 -233 75 -220 184c9 75 66 129 163 152c-81 24 -120 78 -111 151c12 97 113 163 237 163c108 0 164 -45 192 -91c13 -14 14 -36 1 -58c-12 -24 -39 -38 -56 -26c-24 35 -56 78 -131 78c-69 0 -120 -34 -127 -88c-7 -60 55 -96 174 -96c17 0 22 -18 20 -35
l-1 -9c-3 -23 -13 -36 -30 -36c-135 0 -204 -36 -211 -95c-7 -58 45 -95 119 -95c77 0 132 39 166 76c19 10 42 -7 48 -31c6 -22 2 -45 -15 -58c-39 -44 -123 -86 -218 -86z" />
    <glyph glyph-name="Eacute" unicode="&#xc9;" horiz-adv-x="524" 
d="M363 677c-12 -13 -26 -24 -50 -24h-11c-23 0 -40 10 -31 24l83 116c11 16 39 25 66 25h10c28 0 52 -14 40 -26zM146 594c2 17 15 22 34 22h339c16 0 23 -24 20 -44l-1 -8c-3 -20 -15 -42 -31 -42h-245l-20 -164h231c15 0 22 -23 19 -44v-8c-3 -20 -15 -42 -31 -42h-231
l-22 -177h256c16 0 22 -23 20 -44l-1 -7c-2 -21 -14 -43 -30 -43h-349c-19 0 -31 10 -29 27z" />
    <glyph glyph-name="Eacute.alt" horiz-adv-x="524" 
d="M374 677c-12 -13 -26 -24 -50 -24h-11c-23 0 -40 10 -31 24l83 116c11 16 39 25 66 25h10c28 0 52 -14 40 -26zM276 -21c-150 0 -233 75 -220 184c9 75 66 129 163 152c-81 24 -120 78 -111 151c12 97 113 163 237 163c108 0 164 -45 192 -91c13 -14 14 -36 1 -58
c-12 -24 -39 -38 -56 -26c-24 35 -56 78 -131 78c-69 0 -120 -34 -127 -88c-7 -60 55 -96 174 -96c17 0 22 -18 20 -35l-1 -9c-3 -23 -13 -36 -30 -36c-135 0 -204 -36 -211 -95c-7 -58 45 -95 119 -95c77 0 132 39 166 76c19 10 42 -7 48 -31c6 -22 2 -45 -15 -58
c-39 -44 -123 -86 -218 -86z" />
    <glyph glyph-name="Euro" unicode="&#x20ac;" horiz-adv-x="669" 
d="M46 213c-11 0 -18 15 -16 30l1 7c1 14 10 30 22 30h44c1 10 2 19 3 29c1 6 2 13 3 19h-42c-12 0 -19 15 -17 30l1 6c2 15 10 30 22 30h52c49 139 171 235 332 235c111 0 202 -49 227 -122c4 -17 -11 -40 -37 -53c-28 -15 -50 -11 -58 1c-26 48 -75 76 -143 76
c-87 0 -156 -54 -190 -137h235c11 0 17 -15 15 -30v-7c-2 -15 -11 -29 -23 -29h-246c-1 -6 -2 -13 -3 -19c-1 -10 -2 -19 -2 -29h245c12 0 17 -16 15 -31v-6c-2 -15 -12 -30 -23 -30h-230c19 -79 78 -135 159 -135c79 0 138 35 173 91c8 15 33 19 59 6c24 -12 34 -30 27 -47
c-45 -88 -149 -149 -276 -149c-151 0 -254 98 -274 234h-55z" />
    <glyph glyph-name="F" unicode="F" horiz-adv-x="511" 
d="M200 15c-2 -17 -34 -27 -61 -27h-12c-27 0 -54 10 -52 27l71 579c2 17 15 22 34 22h339c16 0 23 -24 20 -44l-1 -8c-3 -20 -15 -42 -31 -42h-245l-22 -179h231c16 0 22 -24 19 -44l-1 -8c-2 -20 -14 -42 -29 -42h-231z" />
    <glyph glyph-name="G" unicode="G" horiz-adv-x="679" 
d="M386 79c88 0 167 53 175 122l4 34h-160c-13 0 -19 22 -16 41l1 9c2 19 13 40 26 40h240c16 0 25 -9 24 -23l-16 -121c-13 -107 -136 -202 -301 -202c-194 0 -305 152 -282 331c23 187 164 319 364 319c110 1 203 -49 233 -122c6 -16 -10 -40 -36 -53
c-28 -15 -50 -11 -58 1c-27 45 -80 76 -151 76c-119 0 -208 -91 -224 -222s51 -230 177 -230z" />
    <glyph glyph-name="H" unicode="H" horiz-adv-x="692" 
d="M146 593c2 17 33 28 60 28h12c27 0 55 -10 53 -28l-27 -223h296l27 223c2 17 33 28 60 28h12c27 0 55 -10 52 -28l-71 -578c-1 -17 -33 -27 -60 -27h-12c-27 0 -54 10 -52 27l31 250h-296l-31 -250c-2 -17 -34 -27 -61 -27h-12c-26 0 -54 10 -52 27z" />
    <glyph glyph-name="I" unicode="I" horiz-adv-x="271" 
d="M146 591c1 17 33 30 60 30h12c27 0 55 -10 53 -28l-71 -578c-2 -17 -34 -27 -61 -27h-12c-27 0 -54 10 -52 27z" />
    <glyph glyph-name="Iacute" unicode="&#xcd;" horiz-adv-x="271" 
d="M253 677c-12 -13 -26 -24 -50 -24h-11c-23 0 -40 10 -31 24l83 116c11 16 39 25 66 25h10c28 0 52 -14 40 -26zM146 591c1 17 33 30 60 30h12c27 0 55 -10 53 -28l-71 -578c-2 -17 -34 -27 -61 -27h-12c-27 0 -54 10 -52 27z" />
    <glyph glyph-name="J" unicode="J" horiz-adv-x="491" 
d="M445 185c-15 -126 -119 -206 -244 -206c-83 0 -140 40 -165 85c-12 15 -13 39 5 64c17 24 40 34 54 26c21 -31 47 -68 107 -68c56 0 111 43 119 103l50 402c1 17 33 30 60 30h12c26 0 54 -10 53 -28z" />
    <glyph glyph-name="J.alt" horiz-adv-x="539" 
d="M472 182c-15 -121 -115 -202 -235 -202c-80 0 -139 31 -168 73c-12 10 -13 32 -1 56c11 23 29 35 42 29c23 -31 56 -63 116 -63s114 44 122 107c7 57 -3 168 6 239c5 43 28 73 60 94h-310c-16 0 -21 25 -19 47l1 9c2 21 15 45 30 45h471c16 0 25 -24 22 -46l-1 -9
c-2 -21 -14 -46 -31 -46h-37c-35 -18 -55 -39 -60 -82c-7 -52 0 -186 -8 -251z" />
    <glyph glyph-name="K" unicode="K" horiz-adv-x="617" 
d="M455 15c10 83 -98 247 -196 247h-29l-30 -247c-2 -17 -34 -27 -61 -27h-12c-27 0 -54 10 -52 27l71 576c1 17 33 30 60 30h12c27 0 55 -10 53 -28l-29 -235h28c90 0 235 154 245 231c2 18 32 28 60 28h13c30 0 57 -13 55 -31c-10 -80 -97 -196 -220 -273
c107 -80 170 -209 160 -295c-2 -17 -32 -29 -63 -29h-12c-28 0 -55 9 -53 26z" />
    <glyph glyph-name="K.alt" horiz-adv-x="619" 
d="M599 1c-18 -7 -36 -11 -61 -11c-107 0 -184 69 -224 289c-28 -7 -57 -11 -83 -11l-31 -250c-2 -17 -33 -27 -60 -27h-12c-27 0 -55 10 -53 27l70 570c2 17 33 30 60 30h13c26 0 55 -10 52 -27l-27 -225h2c121 0 260 146 270 223c2 18 32 28 60 28h13c30 0 57 -13 55 -31
c-11 -90 -100 -198 -216 -263c35 -170 93 -219 142 -219c9 0 17 1 25 3c19 2 28 -21 30 -47c2 -25 -7 -52 -25 -59z" />
    <glyph glyph-name="L" unicode="L" horiz-adv-x="485" 
d="M146 591c1 17 33 30 60 30h12c27 0 55 -10 53 -28l-61 -495h256c15 0 21 -26 18 -48l-1 -10c-2 -22 -14 -47 -30 -47h-349c-19 0 -31 10 -29 27z" />
    <glyph glyph-name="L.alt" horiz-adv-x="539" 
d="M142 427c15 121 115 202 235 202c80 0 139 -31 168 -73c12 -10 13 -32 1 -56c-11 -23 -29 -35 -42 -29c-23 31 -56 63 -116 63s-114 -44 -122 -107c-7 -57 3 -168 -6 -239c-5 -43 -28 -73 -60 -94h310c16 0 21 -25 19 -47l-1 -9c-2 -21 -15 -45 -30 -45h-471
c-16 0 -25 24 -22 46l1 9c2 21 14 46 31 46h37c35 18 55 39 60 82c7 52 0 186 8 251z" />
    <glyph glyph-name="M" unicode="M" horiz-adv-x="857" 
d="M190 15c-2 -17 -28 -27 -56 -27h-12c-26 0 -49 10 -47 27l70 566c2 22 24 40 61 40h30c101 0 200 -132 228 -329c77 197 207 329 309 329h31c36 0 54 -18 51 -40l-69 -566c-2 -17 -28 -27 -55 -27h-12c-27 0 -51 10 -49 27l61 489c-118 -87 -214 -282 -246 -489
c-2 -17 -28 -27 -52 -27h-13c-23 0 -47 10 -45 27c19 207 -29 401 -125 489z" />
    <glyph glyph-name="N" unicode="N" horiz-adv-x="703" 
d="M419 367c40 -117 74 -194 111 -237l58 464c1 17 28 27 55 27h12c27 0 50 -10 48 -27l-70 -569c-3 -22 -29 -37 -56 -37h-19c-90 0 -156 88 -211 254c-41 121 -74 197 -111 239l-58 -464c-2 -17 -28 -27 -55 -27h-12c-27 0 -50 10 -48 27l71 569c2 22 28 36 55 36h19
c91 0 153 -84 211 -255z" />
    <glyph glyph-name="Ntilde" unicode="&#xd1;" horiz-adv-x="703" 
d="M256 662c-16 10 -19 24 -14 35c25 54 70 97 134 97c71 0 92 -48 140 -48c32 0 55 18 74 47c7 10 26 14 43 4c16 -10 19 -24 14 -36c-25 -53 -69 -96 -133 -96c-72 0 -92 47 -141 47c-33 0 -54 -17 -74 -46c-6 -11 -26 -15 -43 -4zM419 367c40 -117 74 -194 111 -237
l58 464c1 17 28 27 55 27h12c27 0 50 -10 48 -27l-70 -569c-3 -22 -29 -37 -56 -37h-19c-90 0 -156 88 -211 254c-41 121 -74 197 -111 239l-58 -464c-2 -17 -28 -27 -55 -27h-12c-27 0 -50 10 -48 27l71 569c2 22 28 36 55 36h19c91 0 153 -84 211 -255z" />
    <glyph glyph-name="O" unicode="O" horiz-adv-x="721" 
d="M368 -21c-194 0 -310 147 -287 330c22 184 160 320 347 320c194 0 310 -146 287 -329s-160 -321 -347 -321zM375 74c118 0 195 90 212 225c16 128 -45 237 -166 237c-118 0 -195 -92 -212 -227c-16 -129 46 -235 166 -235z" />
    <glyph glyph-name="O.alt" horiz-adv-x="721" 
d="M364 -21c-194 0 -307 143 -285 319c6 49 21 97 45 141c8 18 42 22 72 13l4 -1c20 97 111 178 244 178c185 0 294 -141 272 -325s-154 -325 -352 -325zM208 300c-15 -124 52 -226 167 -226c118 0 196 94 213 229c15 130 -51 233 -158 233c-77 0 -118 -51 -123 -98
c-6 -49 28 -96 93 -96c17 0 23 -18 16 -41c-7 -27 -21 -41 -51 -41c-71 0 -124 28 -151 75c-2 -11 -4 -23 -6 -35z" />
    <glyph glyph-name="Oacute" unicode="&#xd3;" horiz-adv-x="721" 
d="M448 677c-12 -13 -26 -24 -50 -24h-11c-23 0 -40 10 -31 24l83 116c11 16 39 25 66 25h10c28 0 52 -14 40 -26zM368 -21c-194 0 -310 147 -287 330c22 184 160 320 347 320c194 0 310 -146 287 -329s-160 -321 -347 -321zM375 74c118 0 195 90 212 225
c16 128 -45 237 -166 237c-118 0 -195 -92 -212 -227c-16 -129 46 -235 166 -235z" />
    <glyph glyph-name="Oacute.alt" horiz-adv-x="721" 
d="M449 677c-12 -13 -26 -24 -50 -24h-11c-23 0 -40 10 -31 24l83 116c11 16 39 25 66 25h10c28 0 52 -14 40 -26zM364 -21c-194 0 -307 143 -285 319c6 49 21 97 45 141c8 18 42 22 72 13l4 -1c20 97 111 178 244 178c185 0 294 -141 272 -325s-154 -325 -352 -325z
M208 300c-15 -124 52 -226 167 -226c118 0 196 94 213 229c15 130 -51 233 -158 233c-77 0 -118 -51 -123 -98c-6 -49 28 -96 93 -96c17 0 23 -18 16 -41c-7 -27 -21 -41 -51 -41c-71 0 -124 28 -151 75c-2 -11 -4 -23 -6 -35z" />
    <glyph glyph-name="P" unicode="P" horiz-adv-x="551" 
d="M312 220h-87l-25 -202c-2 -17 -33 -27 -60 -27h-12c-27 0 -55 10 -53 27l71 576c2 17 15 22 34 22h189c127 0 217 -83 201 -206c-14 -118 -124 -190 -258 -190zM344 527h-81l-27 -219h74c77 0 130 46 137 106c9 65 -38 113 -103 113z" />
    <glyph glyph-name="Q" unicode="Q" horiz-adv-x="721" 
d="M368 -21c-194 0 -310 147 -287 330c22 184 160 320 347 320c194 0 310 -146 287 -329c-8 -66 -32 -127 -67 -177c25 -38 38 -77 34 -110c-2 -14 -25 -24 -46 -24h-13c-20 0 -40 7 -38 22c1 10 -2 23 -9 37c-57 -44 -128 -69 -208 -69zM375 74c54 0 100 19 135 53
c-36 28 -81 50 -127 50c-15 0 -23 20 -22 38l1 8c3 20 14 39 31 39c65 0 124 -22 171 -54c11 27 19 58 23 91c16 128 -45 237 -166 237c-118 0 -195 -92 -212 -227c-16 -129 46 -235 166 -235z" />
    <glyph glyph-name="Q.alt" horiz-adv-x="720" 
d="M621 -169c-23 -7 -43 -9 -66 -9c-128 0 -295 75 -328 204h1c-2 7 0 15 5 23c12 17 31 29 45 22c17 -8 37 -11 61 -11c121 0 232 110 248 243c16 131 -48 233 -166 233c-120 0 -198 -96 -210 -188c-11 -94 27 -166 97 -166c52 0 86 41 93 86c1 12 15 19 33 19
s29 -8 30 -22c-1 -90 -82 -175 -194 -175c-130 0 -201 118 -184 256c18 151 152 283 351 283c194 0 301 -142 279 -324c-21 -177 -172 -304 -358 -315c53 -51 139 -73 199 -73c22 0 40 2 56 6c20 5 31 -13 34 -39c1 -25 -6 -47 -26 -53z" />
    <glyph glyph-name="R" unicode="R" horiz-adv-x="580" 
d="M312 220h-87l-25 -202c-2 -17 -33 -27 -60 -27h-12c-27 0 -55 10 -53 27l71 576c2 17 15 22 34 22h189c127 0 217 -83 201 -206c-9 -77 -59 -135 -130 -165c80 -68 114 -163 106 -227c-2 -17 -31 -29 -59 -29h-13c-25 0 -52 9 -50 26c4 35 -21 129 -107 205h-5zM344 527
h-81l-27 -219h74c77 0 130 46 137 106c9 65 -38 113 -103 113z" />
    <glyph glyph-name="R.alt" horiz-adv-x="585" 
d="M559 1c-18 -7 -36 -11 -61 -11c-99 0 -166 59 -198 230h-75l-25 -202c-2 -17 -33 -27 -60 -27h-12c-27 0 -55 10 -53 27l71 576c2 17 15 22 34 22h189c129 0 217 -76 202 -199c-11 -88 -69 -152 -149 -181c27 -99 68 -132 107 -132c9 0 17 1 25 3c19 2 28 -21 30 -47
c2 -25 -7 -52 -25 -59zM344 527h-81l-27 -219h85c67 0 119 46 126 109c9 66 -39 110 -103 110z" />
    <glyph glyph-name="S" unicode="S" horiz-adv-x="552" 
d="M271 -21c-104 0 -181 45 -210 90c-14 13 -11 38 1 60c13 24 37 43 53 32c25 -35 77 -84 157 -84c76 0 130 37 136 89c6 55 -45 78 -146 99c-111 24 -162 86 -151 181c14 112 120 183 258 183c91 0 157 -37 186 -84c13 -13 12 -36 1 -58c-13 -25 -40 -43 -57 -32
c-24 34 -66 76 -140 76s-124 -34 -129 -85c-7 -53 53 -72 153 -92c113 -23 160 -91 149 -188c-13 -113 -121 -187 -261 -187z" />
    <glyph glyph-name="T" unicode="T" horiz-adv-x="569" 
d="M96 511c-16 0 -24 25 -21 48l1 9c3 22 14 48 31 48h507c15 0 22 -26 19 -49l-1 -9c-3 -23 -16 -47 -32 -47h-190l-61 -496c-2 -17 -33 -27 -60 -27h-13c-26 0 -54 10 -52 27l61 496h-189z" />
    <glyph glyph-name="U" unicode="U" horiz-adv-x="680" 
d="M345 -21c-155 0 -266 106 -249 242l45 372c2 18 33 28 60 28h12c27 0 55 -13 53 -30l-45 -367c-9 -73 50 -139 133 -139c84 0 151 66 160 139l46 367c1 17 33 30 60 30h12c27 0 55 -10 53 -28l-46 -372c-17 -137 -137 -242 -294 -242z" />
    <glyph glyph-name="Uacute" unicode="&#xda;" horiz-adv-x="680" 
d="M444 677c-12 -13 -26 -24 -50 -24h-11c-23 0 -40 10 -31 24l83 116c11 16 39 25 66 25h10c28 0 52 -14 40 -26zM345 -21c-155 0 -266 106 -249 242l45 372c2 18 33 28 60 28h12c27 0 55 -13 53 -30l-45 -367c-9 -73 50 -139 133 -139c84 0 151 66 160 139l46 367
c1 17 33 30 60 30h12c27 0 55 -10 53 -28l-46 -372c-17 -137 -137 -242 -294 -242z" />
    <glyph glyph-name="Udieresis" unicode="&#xdc;" horiz-adv-x="680" 
d="M337 663c-40 0 -60 25 -56 59c4 33 30 57 70 57c39 0 60 -24 56 -57c-5 -34 -31 -59 -70 -59zM515 663c-40 0 -60 25 -56 59c4 33 30 57 70 57c39 0 60 -24 56 -57c-5 -34 -31 -59 -70 -59zM345 -21c-155 0 -266 106 -249 242l45 372c2 18 33 28 60 28h12
c27 0 55 -13 53 -30l-45 -367c-9 -73 50 -139 133 -139c84 0 151 66 160 139l46 367c1 17 33 30 60 30h12c27 0 55 -10 53 -28l-46 -372c-17 -137 -137 -242 -294 -242z" />
    <glyph glyph-name="V" unicode="V" horiz-adv-x="630" 
d="M398 9c-15 -15 -50 -21 -89 -21c-38 0 -69 7 -79 22c-76 101 -156 418 -136 579c2 17 32 29 58 29h15c26 0 53 -9 51 -26c-14 -108 35 -367 112 -505c110 143 223 398 236 505c2 17 30 26 53 26h14c24 0 50 -12 48 -29c-19 -160 -177 -479 -283 -580z" />
    <glyph glyph-name="W" unicode="W" horiz-adv-x="974" 
d="M797 10c-14 -16 -46 -22 -83 -22c-40 0 -79 8 -82 28l-86 461l-201 -461c-7 -20 -49 -28 -88 -28c-38 0 -69 6 -79 22c-73 121 -99 385 -75 580c2 18 32 29 59 29h14c26 0 53 -9 51 -26c-17 -133 -14 -338 46 -484l206 479c6 20 40 31 87 31c45 0 71 -12 74 -31l88 -480
c96 147 149 352 165 485c2 17 32 26 57 26h15c26 0 53 -11 51 -29c-24 -195 -115 -459 -219 -580z" />
    <glyph glyph-name="X" unicode="X" horiz-adv-x="639" 
d="M166 17c-1 -17 -31 -26 -60 -26h-12c-30 0 -57 12 -55 29c11 89 91 201 224 286c-102 87 -154 197 -144 282c2 17 32 30 62 30h12c29 0 57 -10 55 -27c-6 -46 19 -130 116 -210c120 76 167 166 173 210c2 17 32 27 60 27h12c31 0 58 -13 56 -30
c-10 -83 -85 -190 -215 -272c110 -90 166 -200 155 -296c-2 -17 -32 -29 -63 -29h-11c-29 0 -56 9 -54 26c6 51 -23 138 -125 222c-126 -81 -179 -172 -186 -222z" />
    <glyph glyph-name="Y" unicode="Y" horiz-adv-x="612" 
d="M369 15c-2 -17 -33 -27 -60 -27h-12c-27 0 -55 10 -53 27l25 202c-125 99 -183 280 -173 369c2 18 31 31 61 31h13c28 0 53 -10 51 -28c-5 -45 25 -173 124 -274c123 101 185 229 190 274c2 18 31 28 59 28h12c31 0 55 -13 53 -31c-11 -89 -113 -272 -265 -371z" />
    <glyph glyph-name="Z" unicode="Z" horiz-adv-x="606" 
d="M623 558c-25 -205 -363 -303 -443 -460h376c16 0 22 -26 19 -48l-1 -10c-2 -22 -14 -47 -30 -47h-481c-15 0 -24 25 -22 48l1 10c26 213 366 313 442 460h-343c-15 0 -24 25 -21 48l1 9c3 22 15 48 31 48h453c15 0 22 -26 19 -49z" />
    <glyph glyph-name="a" unicode="a" horiz-adv-x="605" 
d="M542 15c-2 -17 -32 -26 -58 -26h-12c-25 0 -52 9 -50 26l7 57c-41 -55 -103 -88 -174 -88c-124 0 -210 100 -193 246c18 145 123 244 252 244c68 0 125 -30 154 -84l6 53c2 17 32 26 57 26h12c26 0 53 -9 51 -26zM338 395c-87 0 -148 -70 -160 -166
c-11 -95 35 -164 117 -164c76 0 136 59 149 135l7 56c10 80 -41 139 -113 139z" />
    <glyph glyph-name="a.alt" horiz-adv-x="631" 
d="M538 -12c-67 0 -104 36 -107 89c-41 -58 -107 -93 -181 -93c-122 0 -205 100 -188 246c18 145 123 244 252 244c68 0 125 -30 154 -84l6 53c2 17 32 26 57 26h12c26 0 53 -9 51 -26l-38 -311c-6 -42 14 -58 57 -58c15 0 23 -14 20 -35c-3 -26 -31 -51 -78 -51h-17z
M338 395c-87 0 -148 -70 -160 -166c-11 -95 35 -164 117 -164c74 0 133 56 149 131l7 60c10 80 -41 139 -113 139z" />
    <glyph glyph-name="aacute" unicode="&#xe1;" horiz-adv-x="605" 
d="M401 537c-11 -14 -27 -24 -51 -24h-10c-23 0 -39 9 -31 24l79 130c11 17 39 26 64 26h11c27 0 52 -14 42 -27zM542 15c-2 -17 -32 -26 -58 -26h-12c-25 0 -52 9 -50 26l7 57c-41 -55 -103 -88 -174 -88c-124 0 -210 100 -193 246c18 145 123 244 252 244
c68 0 125 -30 154 -84l6 53c2 17 32 26 57 26h12c26 0 53 -9 51 -26zM338 395c-87 0 -148 -70 -160 -166c-11 -95 35 -164 117 -164c76 0 136 59 149 135l7 56c10 80 -41 139 -113 139z" />
    <glyph glyph-name="aacute.alt" horiz-adv-x="631" 
d="M396 537c-11 -14 -27 -24 -51 -24h-10c-23 0 -39 9 -31 24l79 130c11 17 39 26 64 26h11c27 0 52 -14 42 -27zM538 -12c-67 0 -104 36 -107 89c-41 -58 -107 -93 -181 -93c-122 0 -205 100 -188 246c18 145 123 244 252 244c68 0 125 -30 154 -84l6 53c2 17 32 26 57 26
h12c26 0 53 -9 51 -26l-38 -311c-6 -42 14 -58 57 -58c15 0 23 -14 20 -35c-3 -26 -31 -51 -78 -51h-17zM338 395c-87 0 -148 -70 -160 -166c-11 -95 35 -164 117 -164c74 0 133 56 149 131l7 60c10 80 -41 139 -113 139z" />
    <glyph glyph-name="acute" unicode="&#xb4;" 
d="M317 537c-11 -14 -27 -24 -51 -24h-10c-23 0 -39 9 -31 24l79 130c11 17 39 26 64 26h11c27 0 52 -14 42 -27z" />
    <glyph glyph-name="acute.cap" 
d="M334 677c-12 -13 -26 -24 -50 -24h-11c-23 0 -40 10 -31 24l83 116c11 16 39 25 66 25h10c28 0 52 -14 40 -26z" />
    <glyph glyph-name="ampersand" unicode="&#x26;" horiz-adv-x="655" 
d="M575 -11c-28 25 -53 48 -77 69c-66 -52 -146 -78 -224 -78c-153 0 -239 76 -226 183c8 71 55 130 137 161c-45 46 -53 86 -47 134c13 102 119 172 252 172c87 0 152 -37 181 -84c13 -14 12 -36 0 -59c-12 -24 -39 -42 -54 -32c-25 35 -69 77 -141 77
c-64 0 -117 -31 -122 -78c-5 -37 6 -63 84 -118c49 -35 99 -74 164 -129c19 35 32 77 38 124c3 20 29 29 56 29c26 0 49 -9 47 -29c-9 -75 -34 -138 -68 -189c22 -19 44 -40 69 -63c16 -13 11 -41 -7 -66c-18 -23 -47 -38 -62 -24zM165 177c-8 -58 47 -106 129 -106
c47 0 94 17 135 49c-73 63 -127 109 -184 153c-49 -22 -75 -59 -80 -96z" />
    <glyph glyph-name="asciitilde" unicode="~" horiz-adv-x="548" 
d="M401 199c-98 0 -119 67 -188 67c-50 0 -76 -28 -103 -68c-7 -13 -31 -17 -52 -4c-21 12 -26 29 -20 43c34 69 94 126 178 126c98 0 119 -67 188 -67c50 0 76 28 101 67c9 14 33 18 54 5c20 -12 26 -29 20 -44c-34 -69 -94 -125 -178 -125z" />
    <glyph glyph-name="asterisk" unicode="*" horiz-adv-x="361" 
d="M176 331c-8 -11 -31 -4 -46 8l-7 5c-15 12 -24 32 -14 42l57 59l-72 20c-14 3 -11 27 -3 47l4 8c10 21 26 38 38 32l70 -32l4 83c0 14 25 21 46 21h8c22 0 40 -8 38 -22l-17 -83l81 33c13 6 26 -11 30 -32l1 -8c4 -20 1 -44 -12 -47l-78 -20l43 -58c7 -11 -6 -31 -26 -43
l-8 -4c-17 -11 -42 -20 -48 -8l-35 73z" />
    <glyph glyph-name="at" unicode="@" horiz-adv-x="866" 
d="M403 75c-91 0 -158 72 -144 189c15 118 105 187 197 187c52 0 100 -22 124 -65l5 43c2 14 24 22 44 22h9c21 0 42 -8 40 -22l-28 -225c-4 -39 12 -53 38 -53c30 0 68 33 79 129c21 167 -81 265 -267 265c-181 0 -313 -114 -334 -280c-22 -171 94 -283 247 -283
c58 0 114 12 163 35c16 6 29 -8 34 -27c5 -20 -1 -39 -18 -48c-54 -29 -119 -44 -189 -44c-203 0 -356 141 -328 365c26 215 212 366 435 366c234 0 374 -139 348 -348c-19 -154 -122 -206 -198 -206c-61 0 -102 28 -107 74c-35 -48 -92 -74 -150 -74zM351 263
c-10 -79 30 -125 89 -125c54 0 108 38 121 99l6 47c8 64 -39 105 -93 105c-59 0 -114 -47 -123 -126z" />
    <glyph glyph-name="b" unicode="b" horiz-adv-x="605" 
d="M188 24c-2 -22 -33 -36 -60 -36h-11c-25 0 -52 9 -50 26l76 617c2 17 32 26 57 26h12c26 0 53 -9 51 -26l-30 -247c41 56 106 90 179 90c121 0 205 -100 187 -245c-18 -146 -122 -245 -252 -245c-68 0 -125 30 -153 85zM323 63c87 0 148 70 160 166
c12 95 -35 164 -116 164c-80 0 -141 -64 -151 -145l-6 -46c-10 -80 41 -139 113 -139z" />
    <glyph glyph-name="backslash" unicode="\" horiz-adv-x="392" 
d="M154 593l268 -572c7 -17 -10 -33 -37 -33h-12c-27 0 -50 7 -59 28l-268 573c-8 16 9 32 36 32h12c27 0 50 -6 60 -28z" />
    <glyph glyph-name="bar" unicode="|" horiz-adv-x="257" 
d="M145 590c2 16 29 28 54 28h11c25 0 49 -9 47 -25l-85 -690c-2 -17 -28 -25 -53 -25h-12c-24 0 -48 8 -46 25z" />
    <glyph glyph-name="braceleft" unicode="{" horiz-adv-x="314" 
d="M236 -134c-15 -20 -35 -37 -50 -32c-55 20 -96 62 -88 131c9 73 22 103 29 156c4 34 -9 60 -37 69c-22 4 -11 88 11 91c30 9 50 35 54 70c7 51 1 81 9 154c9 70 61 112 121 132c16 5 32 -11 42 -32c10 -23 9 -50 -5 -56c-34 -19 -53 -38 -59 -74c-5 -48 -4 -83 -11 -145
c-5 -41 -37 -75 -75 -95c33 -20 57 -53 52 -94c-8 -62 -18 -97 -24 -145c-4 -36 10 -55 40 -74c12 -7 7 -33 -9 -56z" />
    <glyph glyph-name="braceright" unicode="}" horiz-adv-x="313" 
d="M86 -166c-16 -5 -32 11 -42 32c-10 23 -9 50 5 56c34 19 53 38 59 74c5 48 4 83 11 145c5 41 37 75 75 95c-33 20 -57 53 -52 94c8 62 18 97 24 145c4 36 -10 55 -40 74c-12 7 -7 33 9 56c15 20 35 37 50 32c55 -20 96 -62 88 -131c-9 -73 -22 -103 -29 -156
c-4 -34 9 -60 37 -69c22 -4 11 -88 -11 -91c-30 -9 -50 -35 -54 -70c-7 -51 -1 -81 -9 -154c-9 -70 -61 -112 -121 -132z" />
    <glyph glyph-name="bracketleft" unicode="[" horiz-adv-x="285" 
d="M53 -144l92 748c2 17 15 26 30 26h143c16 0 22 -24 20 -45l-2 -9c-2 -21 -17 -44 -32 -44h-65l-74 -604h65c15 0 24 -23 21 -44l-1 -10c-2 -20 -14 -44 -30 -44h-143c-15 0 -26 9 -24 26z" />
    <glyph glyph-name="bracketright" unicode="]" horiz-adv-x="284" 
d="M288 604l-92 -748c-2 -17 -15 -26 -30 -26h-143c-16 0 -22 24 -20 45l2 9c2 21 17 44 32 44h65l74 604h-65c-15 0 -24 23 -21 44l1 10c2 20 14 44 30 44h143c15 0 26 -9 24 -26z" />
    <glyph glyph-name="brokenbar" unicode="&#xa6;" horiz-adv-x="257" 
d="M145 590c2 16 29 28 54 28h11c25 0 49 -9 47 -25l-32 -261c-2 -16 -29 -25 -54 -25h-11c-25 0 -48 9 -46 25zM92 161c2 16 30 28 55 28h11c25 0 48 -10 46 -26l-32 -260c-2 -17 -28 -25 -53 -25h-12c-24 0 -48 8 -46 25z" />
    <glyph glyph-name="c" unicode="c" horiz-adv-x="517" 
d="M287 -21c-153 0 -242 115 -225 250c16 135 124 250 284 250c80 0 133 -29 162 -66c14 -13 16 -39 1 -58c-14 -20 -33 -32 -48 -21c-25 31 -61 56 -116 56c-87 0 -156 -67 -167 -160c-12 -93 48 -162 131 -162c62 0 103 24 141 63c16 11 35 1 43 -18c10 -21 2 -44 -15 -57
c-44 -48 -107 -77 -191 -77z" />
    <glyph glyph-name="cent" unicode="&#xa2;" horiz-adv-x="517" 
d="M325 -124c-1 -17 -32 -26 -58 -26h-10c-27 0 -51 11 -48 27l20 108c-117 25 -182 127 -167 244c14 118 98 221 226 245l7 108c2 17 32 26 58 26h10c27 0 52 -11 49 -27l-19 -106c54 -8 92 -33 115 -62c14 -13 16 -39 1 -58c-14 -20 -33 -32 -48 -21
c-25 31 -61 56 -116 56c-87 0 -156 -67 -167 -160c-12 -93 48 -162 131 -162c62 0 103 24 141 63c16 11 35 1 43 -18c10 -21 2 -44 -15 -57c-36 -39 -84 -65 -145 -74z" />
    <glyph glyph-name="colon" unicode=":" horiz-adv-x="199" 
d="M130 245c-43 0 -65 27 -61 64c5 37 34 63 76 63c44 0 67 -26 62 -63s-33 -64 -77 -64zM98 -12c-43 0 -65 27 -61 64c5 37 34 63 76 63c44 0 67 -26 62 -63s-33 -64 -77 -64z" />
    <glyph glyph-name="comma" unicode="," horiz-adv-x="199" 
d="M107 -99c-6 -15 -21 -24 -45 -24h-11c-23 0 -40 9 -37 24l41 188c3 17 33 26 58 26h11c27 0 54 -11 48 -27z" />
    <glyph glyph-name="copyright" unicode="&#xa9;" horiz-adv-x="722" 
d="M359 -20c-179 0 -307 146 -285 325c21 178 186 324 365 324c177 0 306 -146 284 -324c-22 -179 -187 -325 -364 -325zM366 42c145 0 277 117 295 263c18 144 -85 263 -230 263s-278 -119 -296 -263c-18 -146 86 -263 231 -263zM558 424c1 -11 -8 -25 -25 -34
s-32 -7 -36 1c-16 26 -42 41 -78 41c-66 0 -112 -52 -121 -126c-9 -69 31 -125 91 -125c41 0 75 19 94 51c6 9 21 11 38 3c15 -7 22 -20 17 -30c-25 -52 -87 -87 -160 -87c-108 0 -175 81 -162 189c13 107 93 189 209 189c65 0 119 -29 133 -72z" />
    <glyph glyph-name="currency" unicode="&#xa4;" horiz-adv-x="645" 
d="M321 -7c-58 0 -110 18 -150 49l-65 -57c-13 -11 -35 -1 -48 14l-6 8c-13 14 -18 39 -6 50l63 56c-25 44 -36 98 -29 155c7 58 32 112 68 156l-49 57c-11 11 3 35 20 50l8 7c17 15 40 25 50 14l50 -57c49 31 104 49 162 49s110 -18 151 -49l64 57c12 11 33 1 47 -14l6 -7
c13 -15 21 -39 9 -50l-64 -57c25 -44 36 -98 29 -156c-7 -57 -31 -111 -67 -155l49 -56c10 -11 -1 -36 -18 -50l-8 -8c-17 -15 -41 -25 -51 -14l-51 58c-49 -32 -105 -50 -164 -50zM333 85c101 0 195 83 207 183c13 102 -60 184 -162 184c-101 0 -193 -82 -205 -184
c-13 -100 59 -183 160 -183z" />
    <glyph glyph-name="d" unicode="d" horiz-adv-x="605" 
d="M542 14c-2 -17 -32 -26 -59 -26h-12c-25 0 -51 9 -49 26l7 59c-40 -56 -103 -89 -174 -89c-124 0 -210 100 -193 246c18 145 123 244 252 244c68 0 125 -30 154 -84l29 241c2 17 32 26 58 26h11c27 0 53 -9 51 -26zM338 395c-87 0 -148 -70 -160 -166
c-11 -95 35 -164 117 -164c77 0 137 60 150 138l6 53c10 80 -41 139 -113 139z" />
    <glyph glyph-name="d.alt" horiz-adv-x="631" 
d="M555 -12h-16c-68 0 -104 36 -107 90c-41 -58 -107 -94 -182 -94c-122 0 -205 100 -188 246c18 145 123 244 252 244c68 0 126 -31 154 -85l30 242c2 17 32 26 57 26h12c26 0 53 -9 51 -26l-62 -499c-5 -42 15 -58 57 -58c15 0 23 -14 20 -35c-3 -26 -31 -51 -78 -51z
M338 395c-87 0 -148 -70 -160 -166c-11 -95 35 -164 117 -164c79 0 141 64 151 145l6 47l-1 -1c10 80 -41 139 -113 139z" />
    <glyph glyph-name="dieresis" unicode="&#xa8;" 
d="M228 544c-40 0 -60 24 -56 58s30 58 70 58c39 0 60 -24 56 -58s-31 -58 -70 -58zM406 544c-40 0 -60 24 -56 58s30 58 70 58c39 0 60 -24 56 -58s-31 -58 -70 -58z" />
    <glyph glyph-name="dieresis.cap" 
d="M243 663c-40 0 -60 25 -56 59c4 33 30 57 70 57c39 0 60 -24 56 -57c-5 -34 -31 -59 -70 -59zM421 663c-40 0 -60 25 -56 59c4 33 30 57 70 57c39 0 60 -24 56 -57c-5 -34 -31 -59 -70 -59z" />
    <glyph glyph-name="divide" unicode="&#xf7;" 
d="M296 356c-39 0 -60 25 -56 59c5 34 32 58 70 58c41 0 62 -24 58 -58c-5 -34 -31 -59 -72 -59zM88 200c-16 0 -25 23 -22 44l1 11c2 20 14 44 30 44h379c16 0 22 -24 19 -45l-1 -10c-3 -22 -14 -44 -30 -44h-376zM256 33c-39 0 -60 25 -56 59c5 34 32 58 70 58
c41 0 62 -24 58 -58c-5 -34 -31 -59 -72 -59z" />
    <glyph glyph-name="dollar" unicode="$" horiz-adv-x="552" 
d="M324 -116c-1 -17 -32 -26 -57 -26h-11c-27 0 -51 11 -48 27l17 97c-80 11 -139 49 -164 87c-14 13 -11 38 1 60c13 24 37 43 53 32c25 -35 77 -84 157 -84c76 0 130 37 136 89c6 55 -45 78 -146 99c-111 24 -162 86 -151 181c12 94 89 160 195 178l7 103
c1 18 32 27 58 27h10c28 0 51 -11 48 -27l-18 -101c70 -9 120 -42 144 -81c13 -13 12 -36 1 -58c-13 -25 -40 -43 -57 -32c-24 34 -66 76 -140 76s-124 -34 -129 -85c-7 -53 53 -72 153 -92c113 -23 160 -91 149 -188c-11 -96 -91 -164 -201 -182z" />
    <glyph glyph-name="e" unicode="e" horiz-adv-x="546" 
d="M289 -21c-164 0 -243 120 -227 253s117 247 273 247c143 0 218 -100 198 -233c-2 -12 -4 -25 -8 -38h-354c-1 -81 42 -143 141 -143c64 0 118 25 156 67c15 9 31 -4 38 -22c6 -18 3 -39 -13 -51c-47 -52 -114 -80 -204 -80zM328 399c-76 0 -126 -54 -147 -127h254
c1 70 -35 127 -107 127z" />
    <glyph glyph-name="e.alt" horiz-adv-x="530" 
d="M296 -21c-172 0 -250 122 -234 255c16 138 121 245 277 245c137 0 196 -73 187 -150c-10 -77 -80 -137 -217 -137c-50 0 -97 8 -138 23c-2 -83 43 -151 149 -151c56 0 105 18 143 45c16 9 31 -7 37 -23c5 -18 1 -37 -16 -49c-44 -35 -106 -58 -188 -58zM329 399
c-77 0 -127 -51 -148 -123c38 -12 80 -18 122 -18c67 0 115 28 119 68c5 36 -23 73 -93 73z" />
    <glyph glyph-name="eacute" unicode="&#xe9;" horiz-adv-x="546" 
d="M361 537c-11 -14 -27 -24 -51 -24h-10c-23 0 -39 9 -31 24l79 130c11 17 39 26 64 26h11c27 0 52 -14 42 -27zM289 -21c-164 0 -243 120 -227 253s117 247 273 247c143 0 218 -100 198 -233c-2 -12 -4 -25 -8 -38h-354c-1 -81 42 -143 141 -143c64 0 118 25 156 67
c15 9 31 -4 38 -22c6 -18 3 -39 -13 -51c-47 -52 -114 -80 -204 -80zM328 399c-76 0 -126 -54 -147 -127h254c1 70 -35 127 -107 127z" />
    <glyph glyph-name="eacute.alt" horiz-adv-x="530" 
d="M367 537c-11 -14 -27 -24 -51 -24h-10c-23 0 -39 9 -31 24l79 130c11 17 39 26 64 26h11c27 0 52 -14 42 -27zM296 -21c-172 0 -250 122 -234 255c16 138 121 245 277 245c137 0 196 -73 187 -150c-10 -77 -80 -137 -217 -137c-50 0 -97 8 -138 23
c-2 -83 43 -151 149 -151c56 0 105 18 143 45c16 9 31 -7 37 -23c5 -18 1 -37 -16 -49c-44 -35 -106 -58 -188 -58zM329 399c-77 0 -127 -51 -148 -123c38 -12 80 -18 122 -18c67 0 115 28 119 68c5 36 -23 73 -93 73z" />
    <glyph glyph-name="eight" unicode="8" horiz-adv-x="573" 
d="M560 160c-13 -103 -121 -181 -277 -181c-159 0 -241 90 -228 193c8 67 53 122 128 153c-57 31 -81 84 -74 142c11 94 106 162 252 162c150 0 228 -79 216 -174c-7 -57 -45 -103 -110 -130c69 -34 101 -96 93 -165zM331 356c81 0 126 43 132 94c6 52 -29 98 -109 98
c-83 0 -126 -45 -132 -94c-7 -53 28 -98 109 -98zM295 65c88 0 141 51 148 109c7 61 -34 114 -121 114c-88 0 -142 -53 -148 -110c-8 -62 34 -113 121 -113z" />
    <glyph glyph-name="eight.dnom" horiz-adv-x="309" 
d="M303 85c-7 -53 -65 -95 -152 -95c-84 0 -130 41 -124 94c4 33 28 62 66 79c-29 14 -42 38 -38 67c6 49 56 87 139 87s123 -36 117 -85c-4 -29 -23 -53 -56 -68c35 -16 52 -45 48 -79zM177 181c41 0 63 21 66 44c3 25 -15 45 -55 45c-41 0 -63 -22 -66 -45
c-3 -25 15 -44 55 -44zM160 40c44 0 70 23 74 51c3 28 -19 51 -62 51c-44 0 -71 -25 -73 -51c-4 -29 18 -51 61 -51z" />
    <glyph glyph-name="eight.numr" horiz-adv-x="309" 
d="M322 398c-7 -53 -65 -95 -152 -95c-84 0 -130 41 -124 94c4 33 28 62 66 79c-29 14 -42 38 -38 67c6 49 56 87 139 87s123 -36 117 -85c-4 -29 -23 -53 -56 -68c35 -16 52 -45 48 -79zM196 494c41 0 63 21 66 44c3 25 -15 45 -55 45c-41 0 -63 -22 -66 -45
c-3 -25 15 -44 55 -44zM179 353c44 0 70 23 74 51c3 28 -19 51 -62 51c-44 0 -71 -25 -73 -51c-4 -29 18 -51 61 -51z" />
    <glyph glyph-name="equal" unicode="=" 
d="M98 286c-16 0 -25 23 -22 44l1 11c2 20 14 44 30 44h379c16 0 22 -24 19 -45l-1 -10c-3 -22 -14 -44 -30 -44h-376zM78 112c-16 0 -25 23 -22 44l1 11c2 20 14 44 30 44h379c16 0 22 -24 19 -45l-1 -10c-3 -22 -14 -44 -30 -44h-376z" />
    <glyph glyph-name="exclam" unicode="!" horiz-adv-x="267" 
d="M139 588c1 17 33 30 64 30h13c31 0 61 -10 57 -27l-59 -391c-3 -18 -27 -27 -54 -27h-13c-26 0 -47 9 -45 27zM132 -12c-43 0 -65 26 -61 62c5 36 34 61 76 61c44 0 67 -25 62 -61s-33 -62 -77 -62z" />
    <glyph glyph-name="exclamdown" unicode="&#xa1;" horiz-adv-x="266" 
d="M192 479c43 0 65 -26 61 -62c-5 -36 -34 -61 -76 -61c-44 0 -67 25 -62 61s33 62 77 62zM185 -121c-1 -17 -33 -30 -64 -30h-13c-31 0 -61 10 -57 27l59 391c3 18 27 27 54 27h13c26 0 47 -9 45 -27z" />
    <glyph glyph-name="f" unicode="f" horiz-adv-x="322" 
d="M76 360c-16 0 -25 23 -22 44l1 10c3 20 14 44 31 44h51l7 58c12 98 95 150 187 150c35 0 63 -7 81 -15c18 -7 26 -26 17 -50c-8 -25 -25 -35 -41 -31c-11 4 -27 10 -50 10c-38 0 -69 -27 -74 -68l-7 -54h96c16 0 22 -24 19 -45l-1 -9c-3 -21 -14 -44 -30 -44h-96
l-42 -346c-2 -17 -32 -26 -58 -26h-12c-26 0 -52 9 -50 26l42 346h-49z" />
    <glyph glyph-name="f.alt" horiz-adv-x="329" 
d="M195 -45c-11 -93 -89 -145 -180 -145c-29 0 -53 4 -72 12c-17 7 -25 26 -17 50c9 25 26 34 41 31c13 -4 24 -7 40 -7c37 0 64 26 69 63l49 401h-49c-16 0 -25 23 -22 44l1 10c3 20 14 44 31 44h51l7 58c12 98 95 150 187 150c35 0 63 -7 81 -15c18 -7 26 -26 17 -50
c-8 -25 -25 -35 -41 -31c-11 4 -27 10 -50 10c-38 0 -69 -27 -74 -68l-7 -54h96c16 0 22 -24 19 -45l-1 -9c-3 -21 -14 -44 -30 -44h-96z" />
    <glyph glyph-name="f_t" horiz-adv-x="618" 
d="M76 360c-16 0 -25 23 -22 44l1 10c3 20 14 44 31 44h51l8 63c11 97 94 150 186 150c36 0 64 -7 82 -15c17 -7 25 -24 17 -49c-8 -24 -26 -34 -41 -31c-11 4 -28 9 -50 9c-38 0 -69 -27 -75 -68l-7 -59h208l9 71c2 17 32 28 57 28h12c26 0 53 -9 51 -26l-9 -73h68
c17 0 23 -24 20 -45l-1 -9c-3 -21 -14 -44 -31 -44h-68l-42 -346c-2 -17 -32 -26 -59 -26h-12c-25 0 -51 9 -50 26l43 346h-208l-42 -346c-2 -17 -32 -26 -58 -26h-12c-26 0 -52 9 -50 26l42 346h-49z" />
    <glyph glyph-name="five" unicode="5" horiz-adv-x="526" 
d="M241 -21c-88 0 -155 29 -187 72c-14 14 -11 37 0 58c12 22 37 38 53 28c29 -32 71 -61 141 -61c88 0 148 55 157 124c8 69 -44 123 -131 123c-57 0 -101 -20 -133 -48c-15 -8 -32 -5 -43 4s-15 22 -11 40l60 275c4 17 15 22 34 22h345c16 0 23 -24 20 -44l-1 -8
c-3 -20 -15 -42 -31 -42h-280l-30 -138c34 13 75 20 123 20c125 0 211 -89 195 -211c-15 -124 -127 -214 -281 -214z" />
    <glyph glyph-name="five.dnom" horiz-adv-x="283" 
d="M129 -10c-47 0 -83 13 -101 33c-8 8 -7 21 0 33c6 14 21 23 31 18c16 -14 38 -28 74 -28c44 0 74 24 78 56s-21 55 -67 55c-29 0 -51 -9 -69 -22c-8 -4 -17 -2 -24 3s-9 12 -8 22l32 138c2 9 9 12 20 12h186c8 0 12 -14 11 -25l-1 -5c-1 -12 -8 -24 -17 -24h-148l-13 -60
c17 5 38 8 62 8c72 0 114 -41 106 -104c-7 -63 -66 -110 -152 -110z" />
    <glyph glyph-name="five.numr" horiz-adv-x="289" 
d="M148 303c-47 0 -83 13 -101 33c-8 8 -7 21 0 33c6 14 21 23 31 18c16 -14 38 -28 74 -28c44 0 74 24 78 56s-21 55 -67 55c-29 0 -51 -9 -69 -22c-8 -4 -17 -2 -24 3s-9 12 -8 22l32 138c2 9 9 12 20 12h186c8 0 12 -14 11 -25l-1 -5c-1 -12 -8 -24 -17 -24h-148l-13 -60
c17 5 38 8 62 8c72 0 114 -41 106 -104c-7 -63 -66 -110 -152 -110z" />
    <glyph glyph-name="four" unicode="4" horiz-adv-x="564" 
d="M458 15c-2 -17 -28 -27 -55 -27h-13c-26 0 -49 10 -47 27l10 84h-305c-16 0 -28 21 -25 45l1 10c3 20 7 36 16 52c63 143 201 303 328 388c19 18 49 29 78 29h41c26 0 45 -9 42 -27l-49 -403h83c16 0 22 -23 19 -44v-7c-3 -21 -15 -43 -31 -43h-83zM132 193h233l41 332
c-102 -67 -221 -212 -274 -332z" />
    <glyph glyph-name="four.dnom" horiz-adv-x="305" 
d="M250 10c-1 -10 -16 -16 -33 -16h-7c-15 0 -29 6 -28 16l5 37h-161c-10 0 -16 12 -14 26v6c2 11 5 21 9 30c33 66 103 143 168 188c12 10 30 17 47 17h24c16 0 27 -6 26 -16l-24 -196h41c10 0 13 -14 11 -25v-5c-1 -12 -9 -25 -18 -25h-41zM77 102h116l19 155
c-49 -32 -108 -100 -135 -155z" />
    <glyph glyph-name="four.numr" horiz-adv-x="305" 
d="M269 323c-1 -10 -16 -16 -33 -16h-7c-15 0 -29 6 -28 16l5 37h-161c-10 0 -16 12 -14 26v6c2 11 5 21 9 30c33 66 103 143 168 188c12 10 30 17 47 17h24c16 0 27 -6 26 -16l-24 -196h41c10 0 13 -14 11 -25v-5c-1 -12 -9 -25 -18 -25h-41zM96 415h116l19 155
c-49 -32 -108 -100 -135 -155z" />
    <glyph glyph-name="fraction" unicode="&#x2044;" horiz-adv-x="154" 
d="M284 593c16 20 31 28 58 28h13c26 0 39 -17 27 -32l-438 -573c-15 -19 -31 -28 -58 -28h-12c-27 0 -40 17 -27 33z" />
    <glyph glyph-name="g" unicode="g" horiz-adv-x="605" 
d="M423 29l6 50c-41 -55 -106 -89 -179 -89c-122 0 -205 99 -188 242c18 144 123 242 252 242c68 0 125 -30 154 -83l6 52c2 17 32 26 57 26h12c26 0 53 -9 51 -26l-51 -414c-15 -129 -145 -219 -298 -219c-64 0 -120 12 -159 37c-16 8 -26 27 -18 51c9 23 27 36 43 29
c28 -17 70 -32 129 -32c92 0 173 51 183 134zM338 397c-87 0 -148 -70 -160 -165c-11 -94 35 -163 117 -163c76 0 136 59 149 134l7 56c10 79 -41 138 -113 138z" />
    <glyph glyph-name="g.alt" horiz-adv-x="573" 
d="M283 6c-145 0 -236 103 -220 237s120 236 282 236c47 0 89 -11 124 -30c18 24 54 64 65 78c12 15 33 16 56 3l7 -6c22 -13 33 -28 18 -46c-10 -13 -63 -61 -87 -79c33 -41 49 -96 41 -157c-9 -78 -51 -146 -116 -189c49 -14 81 -48 74 -105c-9 -73 -107 -138 -281 -138
c-81 0 -145 15 -183 39c-17 8 -28 29 -19 53c8 23 27 36 44 29c29 -18 80 -36 152 -36c102 0 169 30 174 72c3 27 -11 43 -37 52c-29 -8 -60 -13 -94 -13zM297 87c88 0 145 63 157 156c10 88 -38 157 -118 157c-88 0 -145 -64 -157 -157c-10 -88 38 -156 118 -156z" />
    <glyph glyph-name="greater" unicode="&#x3e;" 
d="M125 452c12 18 34 34 46 27l306 -185c11 -6 14 -28 12 -45c-3 -17 -10 -38 -23 -45l-351 -185c-14 -7 -32 9 -40 27l-4 8c-9 19 -9 45 4 51l283 144l-247 144c-12 7 -6 32 7 51z" />
    <glyph glyph-name="guillemetleft" unicode="&#xab;" horiz-adv-x="391" 
d="M69 316l94 131c11 17 30 22 53 22h11c22 0 35 -13 27 -26l-102 -148l64 -147c6 -12 -10 -24 -33 -24h-10c-23 0 -41 5 -48 21l-61 130c-6 12 -4 27 5 41zM225 316l94 131c11 17 30 22 53 22h10c23 0 36 -13 28 -26l-102 -148l64 -147c6 -12 -11 -24 -33 -24h-10
c-23 0 -42 5 -48 21l-61 130c-6 13 -4 27 5 41z" />
    <glyph glyph-name="guillemetright" unicode="&#xbb;" horiz-adv-x="388" 
d="M355 276l-94 -131c-11 -17 -30 -22 -53 -22h-11c-22 0 -35 13 -27 26l102 148l-64 147c-6 12 10 24 33 24h10c23 0 41 -5 48 -21l61 -130c6 -12 4 -27 -5 -41zM199 276l-94 -131c-11 -17 -30 -22 -53 -22h-10c-23 0 -36 13 -28 26l102 148l-64 147c-6 12 11 24 33 24h10
c23 0 42 -5 48 -21l61 -130c6 -13 4 -27 -5 -41z" />
    <glyph glyph-name="h" unicode="h" horiz-adv-x="604" 
d="M187 14c-2 -17 -32 -26 -59 -26h-11c-25 0 -52 9 -50 26l76 617c2 17 32 26 57 26h12c26 0 53 -9 51 -26l-30 -246c41 55 106 89 180 89c111 0 175 -71 162 -181l-35 -279c-2 -17 -32 -26 -58 -26h-12c-25 0 -52 9 -50 26l31 255c9 75 -28 123 -96 123
c-73 0 -129 -61 -138 -139h-1z" />
    <glyph glyph-name="hyphen" unicode="-" horiz-adv-x="309" 
d="M63 199c-16 0 -24 22 -21 44l1 9c2 21 14 45 30 45h235c16 0 22 -24 19 -46l-1 -9c-2 -21 -14 -43 -30 -43h-233z" />
    <glyph glyph-name="i" unicode="i" horiz-adv-x="250" 
d="M191 545c-42 0 -65 24 -61 58c4 33 33 57 76 57s66 -24 62 -57c-5 -34 -33 -58 -77 -58zM187 14c-2 -17 -32 -26 -59 -26h-11c-25 0 -52 9 -50 26l52 425c2 17 32 26 57 26h12c26 0 53 -9 51 -26z" />
    <glyph glyph-name="i.alt" horiz-adv-x="277" 
d="M191 545c-42 0 -65 24 -61 58c4 33 33 57 76 57s66 -24 62 -57c-5 -34 -33 -58 -77 -58zM78 101l41 338c2 17 32 26 57 26h12c26 0 53 -9 51 -26l-38 -307c-5 -42 15 -58 57 -58c15 0 23 -14 20 -35c-3 -26 -31 -51 -78 -51h-16c-77 0 -114 47 -106 113z" />
    <glyph glyph-name="iacute" unicode="&#xed;" horiz-adv-x="250" 
d="M231 537c-11 -14 -27 -24 -51 -24h-10c-23 0 -39 9 -31 24l79 130c11 17 39 26 64 26h11c27 0 52 -14 42 -27zM187 14c-2 -17 -32 -26 -59 -26h-11c-25 0 -52 9 -50 26l53 430c2 17 31 26 57 26h11c26 0 54 -9 52 -26z" />
    <glyph glyph-name="iacute.alt" horiz-adv-x="277" 
d="M231 537c-11 -14 -27 -24 -51 -24h-10c-23 0 -39 9 -31 24l79 130c11 17 39 26 64 26h11c27 0 52 -14 42 -27zM201 132c-5 -42 15 -58 57 -58c15 0 23 -14 20 -35c-3 -26 -31 -51 -78 -51h-16c-77 0 -114 47 -106 113l42 343c2 17 31 26 57 26h11c26 0 54 -9 52 -26z" />
    <glyph glyph-name="j" unicode="j" horiz-adv-x="250" 
d="M192 545c-43 0 -66 24 -61 58c3 33 33 57 76 57s65 -24 61 -57c-4 -34 -33 -58 -76 -58zM60 -41l59 480c2 17 32 26 57 26h12c26 0 53 -9 51 -26l-60 -484c-11 -93 -89 -145 -180 -145c-28 0 -53 4 -71 12c-18 7 -26 26 -18 50c9 25 26 34 41 31c13 -4 25 -7 40 -7
c37 0 65 26 69 63z" />
    <glyph glyph-name="k" unicode="k" horiz-adv-x="546" 
d="M187 14c-2 -17 -32 -26 -59 -26h-11c-25 0 -52 9 -50 26l76 617c2 17 32 26 57 26h12c26 0 53 -9 51 -26l-43 -346h14c92 0 211 110 217 158c2 17 29 26 52 26h11c24 0 51 -11 49 -29c-6 -52 -82 -140 -185 -198c89 -58 152 -159 144 -224c-2 -17 -31 -29 -58 -29h-13
c-25 0 -51 9 -50 26c6 51 -87 181 -181 181h-11z" />
    <glyph glyph-name="k.alt" horiz-adv-x="561" 
d="M187 14c-2 -17 -32 -26 -59 -26h-11c-25 0 -52 9 -50 26l76 617c2 17 32 26 57 26h12c26 0 53 -9 51 -26l-42 -339h5c108 0 219 103 225 151c2 17 29 26 52 26h11c24 0 51 -11 49 -29c-9 -69 -84 -145 -179 -190c29 -113 78 -154 118 -154c9 0 17 1 24 3
c18 0 27 -20 29 -44c1 -23 -7 -49 -24 -55c-17 -7 -34 -11 -57 -11c-95 0 -162 61 -196 225c-22 -4 -44 -6 -65 -6h-2z" />
    <glyph glyph-name="l" unicode="l" horiz-adv-x="250" 
d="M187 14c-2 -17 -32 -26 -59 -26h-11c-25 0 -52 9 -50 26l76 617c2 17 32 26 57 26h12c26 0 53 -9 51 -26z" />
    <glyph glyph-name="l.alt" horiz-adv-x="286" 
d="M200 -12h-16c-77 0 -114 47 -106 113l65 530c2 17 32 26 57 26h12c26 0 53 -9 51 -26l-62 -499c-5 -42 15 -58 57 -58c15 0 23 -14 20 -35c-3 -26 -31 -51 -78 -51z" />
    <glyph glyph-name="less" unicode="&#x3c;" 
d="M436 46c-12 -18 -34 -34 -46 -27l-306 185c-11 6 -14 28 -12 45c3 17 10 38 23 45l351 185c14 7 32 -9 40 -27l4 -8c9 -19 9 -45 -4 -51l-283 -144l247 -144c12 -7 6 -32 -7 -51z" />
    <glyph glyph-name="litre" unicode="&#x2113;" horiz-adv-x="354" 
d="M118 403c22 180 92 251 172 251c78 0 109 -58 98 -150c-11 -88 -63 -183 -168 -249l-14 -113c-4 -39 15 -58 54 -59h7c18 0 28 -12 25 -41c-4 -30 -31 -54 -78 -54h-14c-77 0 -126 50 -118 123l11 87c-10 -3 -20 -6 -31 -9c-15 -3 -25 8 -27 26c-3 17 3 33 16 37
c18 5 35 10 50 16zM241 425l-11 -86c58 49 82 106 89 164c6 51 -1 75 -20 75c-22 0 -42 -28 -58 -153z" />
    <glyph glyph-name="m" unicode="m" horiz-adv-x="937" 
d="M187 14c-2 -17 -32 -26 -59 -26h-11c-25 0 -52 9 -50 26l53 429c2 17 31 26 57 26h11c26 0 54 -9 52 -26l-7 -57c41 54 105 88 175 88c82 0 138 -42 154 -110c39 67 110 110 189 110c107 0 170 -71 157 -181l-34 -279c-2 -17 -32 -26 -59 -26h-12c-25 0 -51 9 -49 26
l31 255c9 75 -29 123 -91 123c-69 0 -125 -61 -134 -139l-30 -239c-2 -17 -32 -26 -58 -26h-12c-25 0 -52 9 -50 26l31 255c9 75 -28 123 -91 123c-68 0 -124 -61 -133 -139z" />
    <glyph glyph-name="minus" unicode="&#x2212;" 
d="M88 200c-16 0 -25 23 -22 44l1 11c2 20 14 44 30 44h379c16 0 22 -24 19 -45l-1 -10c-3 -22 -14 -44 -30 -44h-376z" />
    <glyph glyph-name="multiply" unicode="&#xd7;" 
d="M159 78c-13 -11 -36 -3 -49 13l-7 7c-12 14 -20 37 -8 49l116 103l-90 102c-10 11 4 35 21 50l7 7c18 15 41 24 51 14l90 -103l115 103c13 10 34 0 48 -16l6 -6c13 -15 20 -38 7 -49l-115 -102l89 -102c10 -11 -2 -36 -18 -50l-8 -7c-17 -15 -41 -26 -51 -15l-91 103z
" />
    <glyph glyph-name="n" unicode="n" horiz-adv-x="604" 
d="M187 14c-2 -17 -32 -26 -59 -26h-11c-25 0 -52 9 -50 26l53 429c2 17 31 26 57 26h11c26 0 54 -9 52 -26l-7 -57c41 54 106 88 180 88c111 0 175 -71 162 -181l-35 -279c-2 -17 -32 -26 -58 -26h-12c-25 0 -52 9 -50 26l31 255c9 75 -28 123 -96 123
c-73 0 -129 -61 -138 -139z" />
    <glyph glyph-name="nine" unicode="9" horiz-adv-x="584" 
d="M579 310c-23 -191 -156 -330 -328 -330c-92 0 -153 36 -182 81c-12 14 -11 35 1 57c13 25 40 41 57 31c24 -36 58 -71 131 -71c104 0 170 76 194 195c-42 -43 -100 -72 -173 -72c-129 0 -213 92 -198 212c14 120 118 217 265 217c168 0 256 -137 233 -320zM195 410
c-9 -75 37 -132 113 -132c78 0 142 58 155 136c-3 27 -8 51 -19 71c-19 37 -55 61 -104 61c-77 0 -136 -59 -145 -136z" />
    <glyph glyph-name="nine.dnom" horiz-adv-x="314" 
d="M312 156c-12 -98 -85 -166 -179 -166c-49 0 -80 16 -96 37c-8 7 -8 20 -1 33c7 14 23 23 33 18c14 -16 32 -32 69 -32c53 0 85 32 98 88c-22 -19 -52 -32 -88 -32c-72 0 -115 42 -108 103c8 61 63 112 146 112c94 0 137 -68 126 -161zM108 206c-5 -35 17 -61 58 -61
c38 0 69 25 76 61c-1 13 -4 24 -9 33c-10 18 -27 29 -53 29c-39 0 -68 -27 -72 -62z" />
    <glyph glyph-name="nine.numr" horiz-adv-x="314" 
d="M331 469c-12 -98 -85 -166 -179 -166c-49 0 -80 16 -96 37c-8 7 -8 20 -1 33c7 14 23 23 33 18c14 -16 32 -32 69 -32c53 0 85 32 98 88c-22 -19 -52 -32 -88 -32c-72 0 -115 42 -108 103c8 61 63 112 146 112c94 0 137 -68 126 -161zM127 519c-5 -35 17 -61 58 -61
c38 0 69 25 76 61c-1 13 -4 24 -9 33c-10 18 -27 29 -53 29c-39 0 -68 -27 -72 -62z" />
    <glyph glyph-name="ntilde" unicode="&#xf1;" horiz-adv-x="604" 
d="M192 543c-16 9 -21 24 -16 35c25 53 70 97 136 97c72 0 91 -45 139 -45c33 0 54 18 74 49c7 10 27 15 44 4c16 -10 20 -24 15 -36c-24 -53 -69 -96 -136 -96c-71 0 -90 45 -139 45c-33 0 -54 -18 -74 -49c-7 -11 -26 -15 -43 -4zM187 14c-2 -17 -32 -26 -59 -26h-11
c-25 0 -52 9 -50 26l53 429c2 17 31 26 57 26h11c26 0 54 -9 52 -26l-7 -57c41 54 106 88 180 88c111 0 175 -71 162 -181l-35 -279c-2 -17 -32 -26 -58 -26h-12c-25 0 -52 9 -50 26l31 255c9 75 -28 123 -96 123c-73 0 -129 -61 -138 -139z" />
    <glyph glyph-name="numbersign" unicode="#" horiz-adv-x="661" 
d="M53 158c-16 0 -25 23 -22 44l1 10c3 20 14 44 31 44h117l47 114h-84c-17 0 -24 23 -22 45l1 9c3 21 14 44 30 44h115l49 120c10 23 38 33 65 33h12c27 0 40 -15 33 -32l-49 -121h111l49 120c10 23 38 33 65 33h12c27 0 40 -15 33 -32l-49 -121h89c16 0 23 -23 20 -45
l-1 -9c-3 -21 -15 -44 -31 -44h-117l-47 -114h86c16 0 22 -24 20 -45l-2 -9c-2 -22 -14 -44 -30 -44h-114l-56 -137c-9 -21 -39 -33 -66 -33h-12c-26 0 -39 16 -32 33l56 137h-111l-56 -137c-9 -21 -39 -33 -66 -33h-12c-26 0 -39 16 -32 33l56 137h-87zM290 256h111l47 114
h-111z" />
    <glyph glyph-name="o" unicode="o" horiz-adv-x="573" 
d="M285 -21c-152 0 -240 114 -222 255c16 140 123 245 281 245c151 0 239 -114 223 -254c-18 -140 -125 -246 -282 -246zM295 65c84 0 144 66 156 162c11 92 -35 168 -118 168c-84 0 -143 -66 -155 -163c-11 -92 34 -167 117 -167z" />
    <glyph glyph-name="oacute" unicode="&#xf3;" horiz-adv-x="573" 
d="M371 537c-11 -14 -27 -24 -51 -24h-10c-23 0 -39 9 -31 24l79 130c11 17 39 26 64 26h11c27 0 52 -14 42 -27zM285 -21c-152 0 -240 114 -222 255c16 140 123 245 281 245c151 0 239 -114 223 -254c-18 -140 -125 -246 -282 -246zM295 65c84 0 144 66 156 162
c11 92 -35 168 -118 168c-84 0 -143 -66 -155 -163c-11 -92 34 -167 117 -167z" />
    <glyph glyph-name="one" unicode="1" horiz-adv-x="368" 
d="M115 427c-14 -8 -33 11 -40 31l-3 9c-8 20 -7 46 9 54l177 86c13 6 33 11 49 11h13c26 0 50 -10 48 -27l-71 -576c-2 -17 -33 -27 -61 -27h-12c-26 0 -54 10 -52 27l57 467z" />
    <glyph glyph-name="one.dnom" horiz-adv-x="207" 
d="M62 206c-8 -4 -19 7 -24 19l-2 5c-4 12 -3 27 5 31l96 43c7 4 19 7 29 7h8c15 0 29 -5 28 -15l-36 -286c-1 -10 -19 -16 -35 -16h-7c-16 0 -32 6 -31 16l27 222z" />
    <glyph glyph-name="one.numr" horiz-adv-x="207" 
d="M81 519c-8 -4 -19 7 -24 19l-2 5c-4 12 -3 27 5 31l96 43c7 4 19 7 29 7h8c15 0 29 -5 28 -15l-36 -286c-1 -10 -19 -16 -35 -16h-7c-16 0 -32 6 -31 16l27 222z" />
    <glyph glyph-name="onehalf" unicode="&#xbd;" horiz-adv-x="672" 
d="M110 519c-8 -4 -19 7 -24 19l-2 5c-4 12 -3 27 5 31l96 43c7 4 19 7 29 7h8c15 0 29 -5 28 -15l-36 -286c-1 -10 -19 -16 -35 -16h-7c-16 0 -32 6 -31 16l27 222zM506 593c16 20 31 28 58 28h13c26 0 39 -17 27 -32l-438 -573c-15 -19 -31 -28 -58 -28h-12
c-27 0 -40 17 -27 33zM551 317c77 0 119 -44 112 -104c-6 -52 -67 -106 -166 -158h148c8 0 13 -14 12 -27l-1 -6c-1 -13 -8 -28 -17 -28h-236c-9 0 -12 15 -11 29l1 5c1 9 2 20 11 24c128 69 179 117 183 154c4 31 -19 52 -51 52s-56 -16 -73 -41c-5 -8 -17 -11 -32 -4
c-13 7 -17 18 -14 27c22 45 72 77 134 77z" />
    <glyph glyph-name="onequarter" unicode="&#xbc;" horiz-adv-x="672" 
d="M116 519c-8 -4 -19 7 -24 19l-2 5c-4 12 -3 27 5 31l96 43c7 4 19 7 29 7h8c15 0 29 -5 28 -15l-36 -286c-1 -10 -19 -16 -35 -16h-7c-16 0 -32 6 -31 16l27 222zM528 593c16 20 31 28 58 28h13c26 0 39 -17 27 -32l-438 -573c-15 -19 -31 -28 -58 -28h-12
c-27 0 -40 17 -27 33zM593 10c-1 -10 -16 -16 -33 -16h-7c-15 0 -29 6 -28 16l5 37h-161c-10 0 -16 12 -14 26v6c2 11 5 21 9 30c33 66 103 143 168 188c12 10 30 17 47 17h24c16 0 27 -6 26 -16l-24 -196h41c10 0 13 -14 11 -25v-5c-1 -12 -9 -25 -18 -25h-41zM420 102h116
l19 155c-49 -32 -108 -100 -135 -155z" />
    <glyph glyph-name="ordfeminine" unicode="&#xaa;" horiz-adv-x="396" 
d="M398 336c-2 -11 -23 -17 -43 -17h-9c-18 0 -37 6 -36 17l4 34c-27 -34 -69 -54 -117 -54c-83 0 -131 57 -119 149c11 93 80 156 163 156c44 0 80 -17 98 -49l4 28c1 12 22 18 41 18h8c20 0 39 -6 38 -18zM259 565c-53 0 -90 -41 -97 -97s19 -95 71 -95c48 0 86 36 92 84
l4 35c2 43 -25 73 -70 73z" />
    <glyph glyph-name="ordmasculine" unicode="&#xba;" horiz-adv-x="376" 
d="M226 312c-107 0 -159 68 -148 156c11 89 79 156 186 156s160 -67 149 -156c-11 -88 -81 -156 -187 -156zM233 374c54 0 89 37 96 94c6 54 -19 96 -72 96s-88 -38 -95 -96c-6 -54 19 -94 71 -94z" />
    <glyph glyph-name="p" unicode="p" horiz-adv-x="605" 
d="M166 -156c-2 -17 -32 -26 -59 -26h-11c-25 0 -52 9 -50 26l74 599c2 17 31 26 57 26h11c26 0 54 -9 52 -26l-7 -58c41 55 106 89 179 89c121 0 205 -100 187 -245c-18 -146 -122 -245 -252 -245c-68 0 -125 30 -153 84zM323 63c87 0 148 70 160 166
c12 95 -35 164 -116 164c-80 0 -141 -64 -151 -145l-7 -54c-6 -76 44 -131 114 -131z" />
    <glyph glyph-name="paragraph" unicode="&#xb6;" horiz-adv-x="688" 
d="M90 387c18 143 137 231 281 231h101c25 0 49 -9 47 -25l-89 -727c-2 -16 -29 -25 -54 -25h-11c-25 0 -48 9 -47 25l36 290h-43c-144 0 -239 90 -221 231zM589 590c2 16 29 28 54 28h11c25 0 49 -9 47 -25l-90 -727c-1 -16 -28 -25 -54 -25h-11c-24 0 -48 9 -46 25z" />
    <glyph glyph-name="parenleft" unicode="(" horiz-adv-x="308" 
d="M304 638c15 3 33 -14 39 -35l1 -3c7 -23 8 -48 -6 -55c-53 -14 -113 -128 -135 -310c-22 -181 9 -295 59 -309c13 -6 7 -33 -7 -54l-2 -4c-13 -20 -33 -39 -48 -35c-89 16 -139 157 -110 402c29 236 115 386 209 403z" />
    <glyph glyph-name="parenright" unicode=")" horiz-adv-x="307" 
d="M61 -167c-15 -3 -33 14 -39 35l-1 3c-7 23 -8 48 6 55c53 14 113 128 135 310c22 181 -9 295 -59 309c-13 6 -7 33 7 54l2 4c13 20 33 39 48 35c89 -16 139 -157 110 -402c-29 -236 -115 -386 -209 -403z" />
    <glyph glyph-name="percent" unicode="%" horiz-adv-x="672" 
d="M199 303c-94 0 -137 70 -126 163c12 93 72 164 166 164s137 -70 126 -163c-12 -94 -72 -164 -166 -164zM539 593c16 20 31 28 58 28h13c26 0 39 -17 27 -32l-438 -573c-15 -19 -31 -28 -58 -28h-12c-27 0 -40 17 -27 33zM206 362c49 0 76 43 83 104c7 57 -11 105 -58 105
c-48 0 -76 -44 -83 -105c-7 -57 11 -104 58 -104zM510 -10c-94 0 -137 70 -126 163c12 93 72 164 166 164s137 -70 126 -163c-12 -94 -72 -164 -166 -164zM517 49c49 0 76 43 83 104c7 57 -11 105 -58 105c-48 0 -76 -44 -83 -105c-7 -57 11 -104 58 -104z" />
    <glyph glyph-name="period" unicode="." horiz-adv-x="199" 
d="M98 -12c-43 0 -65 27 -61 64c5 37 34 63 76 63c44 0 67 -26 62 -63s-33 -64 -77 -64z" />
    <glyph glyph-name="periodcentered" unicode="&#xb7;" horiz-adv-x="199" 
d="M125 204c-43 0 -65 27 -61 64c5 37 34 63 76 63c44 0 67 -26 62 -63s-33 -64 -77 -64z" />
    <glyph glyph-name="plus" unicode="+" 
d="M88 200c-16 0 -25 23 -22 44l1 11c2 20 14 44 30 44h140l18 145c2 16 28 25 49 25h10c21 0 42 -9 40 -25l-18 -145h140c16 0 22 -24 19 -45l-1 -10c-3 -22 -14 -44 -30 -44h-140l-17 -143c-2 -16 -26 -27 -48 -27h-10c-20 0 -44 8 -42 25l18 145h-137z" />
    <glyph glyph-name="plusminus" unicode="&#xb1;" 
d="M100 299c-16 0 -25 23 -22 44l1 11c3 20 15 44 31 44h139l11 85c2 16 27 25 48 25h10c21 0 43 -9 42 -25l-11 -85h139c16 0 23 -24 20 -45l-1 -10c-3 -21 -16 -44 -31 -44h-140l-10 -82c-1 -16 -26 -28 -47 -28h-10c-21 0 -44 9 -43 25l11 85h-137zM70 53
c-16 0 -25 23 -22 44l1 11c2 20 14 44 30 44h379c16 0 22 -24 19 -45l-1 -10c-3 -22 -14 -44 -30 -44h-376z" />
    <glyph glyph-name="q" unicode="q" horiz-adv-x="605" 
d="M521 -156c-2 -17 -32 -26 -59 -26h-12c-25 0 -51 9 -49 26l28 229c-40 -56 -103 -89 -174 -89c-124 0 -210 100 -193 246c18 145 123 244 252 244c68 0 126 -30 154 -85l6 49c2 22 32 31 57 31h12c26 0 53 -9 51 -26zM338 395c-87 0 -148 -70 -160 -166
c-11 -95 35 -164 117 -164c78 0 140 63 151 143l6 48h-1c10 80 -41 139 -113 139z" />
    <glyph glyph-name="q.alt" horiz-adv-x="573" 
d="M537 -181c-22 -7 -41 -9 -64 -9c-97 0 -199 54 -236 173c-122 22 -190 126 -174 251c16 140 123 245 281 245c151 0 239 -114 223 -254c-16 -123 -100 -220 -227 -241c36 -59 92 -79 144 -79c16 0 30 2 46 6c20 4 30 -15 32 -39c3 -24 -6 -48 -25 -53zM295 65
c84 0 144 66 156 162c11 92 -35 168 -118 168c-84 0 -143 -66 -155 -163c-11 -92 34 -167 117 -167z" />
    <glyph glyph-name="question" unicode="?" 
d="M399 413c9 70 -41 118 -101 118c-64 0 -113 -35 -147 -92c-8 -14 -34 -17 -57 -4c-22 12 -28 29 -21 45c43 88 133 149 247 149c128 0 223 -85 207 -214c-18 -144 -162 -220 -278 -242c-15 -2 -26 18 -27 42c-2 23 3 46 17 48c70 20 150 69 160 150zM242 -12
c-43 0 -65 26 -61 62c5 36 34 61 76 61c44 0 67 -25 62 -61s-33 -62 -77 -62z" />
    <glyph glyph-name="questiondown" unicode="&#xbf;" 
d="M324 543c43 0 65 -26 61 -62c-5 -36 -34 -61 -76 -61c-44 0 -67 25 -62 61s33 62 77 62zM167 118c-9 -70 41 -118 101 -118c64 0 113 35 147 92c8 14 34 17 57 4c22 -12 28 -29 21 -45c-43 -88 -133 -149 -247 -149c-128 0 -223 85 -207 214c18 144 162 220 278 242
c15 2 26 -18 27 -42c2 -23 -3 -46 -17 -48c-70 -20 -150 -69 -160 -150z" />
    <glyph glyph-name="quotedbl" unicode="&#x22;" horiz-adv-x="347" 
d="M191 430c-4 -16 -21 -24 -45 -24h-10c-23 0 -38 8 -37 24l8 168c1 17 32 26 58 26h11c28 0 51 -10 48 -27zM353 430c-4 -16 -21 -24 -45 -24h-10c-23 0 -38 8 -37 24l8 168c1 17 32 26 58 26h11c28 0 51 -10 48 -27z" />
    <glyph glyph-name="quotedblleft" unicode="&#x201c;" horiz-adv-x="373" 
d="M149 604c11 12 23 20 45 20h10c21 0 33 -11 26 -26c-10 -19 -22 -44 -30 -73c20 -11 32 -32 28 -59c-4 -36 -33 -62 -76 -62c-44 0 -67 30 -61 83c6 42 44 99 58 117zM321 604c11 12 23 20 45 20h10c21 0 33 -11 26 -26c-10 -19 -22 -44 -30 -73c20 -11 32 -32 28 -59
c-4 -36 -33 -62 -76 -62c-44 0 -67 30 -61 83c6 42 44 99 58 117z" />
    <glyph glyph-name="quotedblright" unicode="&#x201d;" horiz-adv-x="373" 
d="M179 424c-11 -12 -23 -20 -45 -20h-10c-21 0 -33 11 -26 26c10 19 22 44 30 73c-20 11 -32 32 -28 59c4 36 33 62 76 62c44 0 67 -30 61 -83c-6 -42 -44 -99 -58 -117zM351 424c-11 -12 -23 -20 -45 -20h-10c-21 0 -33 11 -26 26c10 19 22 44 30 73c-20 11 -32 32 -28 59
c4 36 33 62 76 62c44 0 67 -30 61 -83c-6 -42 -44 -99 -58 -117z" />
    <glyph glyph-name="quoteleft" unicode="&#x2018;" horiz-adv-x="201" 
d="M149 604c11 12 23 20 45 20h10c21 0 33 -11 26 -26c-10 -19 -22 -44 -30 -73c20 -11 32 -32 28 -59c-4 -36 -33 -62 -76 -62c-44 0 -67 30 -61 83c6 42 44 99 58 117z" />
    <glyph glyph-name="quoteright" unicode="&#x2019;" horiz-adv-x="201" 
d="M179 424c-11 -12 -23 -20 -45 -20h-10c-21 0 -33 11 -26 26c10 19 22 44 30 73c-20 11 -32 32 -28 59c4 36 33 62 76 62c44 0 67 -30 61 -83c-6 -42 -44 -99 -58 -117z" />
    <glyph glyph-name="quotesingle" unicode="'" horiz-adv-x="185" 
d="M191 430c-4 -16 -21 -24 -45 -24h-10c-23 0 -38 8 -37 24l8 168c1 17 32 26 58 26h11c28 0 51 -10 48 -27z" />
    <glyph glyph-name="r" unicode="r" horiz-adv-x="396" 
d="M187 14c-2 -17 -32 -26 -59 -26h-11c-25 0 -52 9 -50 26l53 429c2 17 31 26 57 26h11c26 0 54 -9 52 -26l-8 -66c40 62 100 97 163 97c13 0 25 -1 36 -5c17 -4 16 -23 7 -51c-8 -28 -23 -46 -39 -44c-12 2 -22 5 -36 5c-79 0 -140 -68 -149 -149z" />
    <glyph glyph-name="r_t" horiz-adv-x="662" 
d="M187 14c-2 -17 -32 -26 -59 -26h-11c-25 0 -52 9 -50 26l53 429c2 17 31 26 57 26h11c26 0 54 -9 52 -26l-9 -72c42 60 108 92 178 92h52l10 78c2 17 32 26 58 26h11c26 0 53 -9 51 -26l-10 -78h89c16 0 22 -23 20 -45l-2 -9c-2 -21 -14 -44 -30 -44h-89l-27 -223
c-5 -38 14 -59 57 -59h9c18 0 28 -12 25 -41c-4 -30 -31 -54 -78 -54h-27c-77 0 -119 50 -111 113l32 264h-72c-89 0 -147 -52 -162 -123z" />
    <glyph glyph-name="registered" unicode="&#xae;" horiz-adv-x="614" 
d="M322 123c-159 0 -273 129 -253 289c19 159 165 289 324 289s273 -130 253 -289c-20 -160 -165 -289 -324 -289zM329 180c127 0 246 104 261 232c16 127 -76 232 -204 232c-127 0 -244 -105 -260 -232c-16 -128 76 -232 203 -232zM247 563c1 10 9 13 21 13h109
c75 0 124 -40 116 -106c-5 -42 -31 -73 -68 -90c41 -35 59 -80 54 -114c-1 -11 -20 -18 -38 -18h-7c-18 0 -35 6 -34 16c3 18 -10 61 -53 101h-44l-12 -101c-1 -10 -21 -16 -39 -16h-8c-17 0 -35 6 -33 16zM361 523h-38l-13 -106h41c34 0 59 23 62 53c4 31 -19 53 -52 53z
" />
    <glyph glyph-name="s" unicode="s" horiz-adv-x="511" 
d="M236 -21c-79 0 -153 27 -182 63c-13 12 -12 30 -1 48c12 20 30 34 46 26c26 -27 74 -53 143 -53c76 0 124 26 129 64c5 41 -42 53 -140 71c-102 18 -150 56 -141 134c11 88 98 147 233 147c81 0 144 -26 173 -62c13 -11 14 -28 2 -48c-13 -21 -31 -33 -47 -25
c-26 26 -68 51 -138 51s-110 -23 -115 -60c-5 -42 43 -50 141 -66c105 -18 155 -62 145 -139c-11 -89 -104 -151 -248 -151z" />
    <glyph glyph-name="section" unicode="&#xa7;" horiz-adv-x="536" 
d="M474 -7c-13 -104 -115 -169 -241 -169c-98 0 -162 40 -189 82c-12 11 -9 34 2 54c11 22 33 39 48 29c22 -31 75 -75 142 -75c66 0 119 31 124 77c6 49 -56 73 -147 92c-101 22 -148 80 -137 167c7 61 46 106 102 132c-34 29 -51 70 -44 119c13 105 113 165 234 165
c81 0 142 -33 169 -75c12 -13 11 -34 1 -54c-12 -22 -37 -39 -52 -30c-22 32 -64 70 -131 70c-60 0 -108 -27 -114 -73c-6 -50 59 -69 149 -88c103 -21 148 -82 137 -167c-8 -63 -46 -106 -104 -129c38 -31 57 -74 51 -127zM184 256c-6 -46 40 -69 118 -88
c61 4 106 32 112 75c6 46 -36 70 -119 89c-60 -3 -105 -33 -111 -76z" />
    <glyph glyph-name="semicolon" unicode=";" horiz-adv-x="199" 
d="M130 245c-43 0 -65 27 -61 64c5 37 34 63 76 63c44 0 67 -26 62 -63s-33 -64 -77 -64zM107 -99c-6 -15 -21 -24 -45 -24h-11c-23 0 -40 9 -37 24l41 188c3 17 33 26 58 26h11c27 0 54 -11 48 -27z" />
    <glyph glyph-name="seven" unicode="7" horiz-adv-x="523" 
d="M114 511c-15 0 -24 25 -21 48l1 9c3 22 15 48 31 48h437c15 0 22 -26 19 -49l-1 -9c-2 -16 -8 -33 -17 -41c-128 -124 -252 -374 -268 -503c-2 -16 -27 -26 -59 -26h-12c-34 0 -57 12 -55 29c16 129 125 352 256 494h-311z" />
    <glyph glyph-name="seven.dnom" horiz-adv-x="283" 
d="M58 249c-9 0 -14 14 -12 28v5c2 13 10 28 18 28h236c9 0 13 -15 11 -29v-4c-2 -10 -6 -20 -10 -25c-67 -61 -130 -183 -138 -243c-1 -9 -15 -15 -35 -15h-6c-20 0 -34 7 -33 17c8 60 62 167 130 238h-161z" />
    <glyph glyph-name="seven.numr" horiz-adv-x="283" 
d="M77 562c-9 0 -14 14 -12 28v5c2 13 10 28 18 28h236c9 0 13 -15 11 -29v-4c-2 -10 -6 -20 -10 -25c-67 -61 -130 -183 -138 -243c-1 -9 -15 -15 -35 -15h-6c-20 0 -34 7 -33 17c8 60 62 167 130 238h-161z" />
    <glyph glyph-name="six" unicode="6" horiz-adv-x="585" 
d="M578 196c-14 -120 -118 -217 -265 -217c-168 0 -256 137 -233 320c23 191 156 330 328 330c92 0 153 -36 182 -81c12 -14 11 -35 -1 -57c-13 -25 -40 -41 -57 -31c-24 36 -58 71 -131 71c-104 0 -170 -76 -194 -195c42 43 100 72 173 72c129 0 213 -92 198 -212zM215 124
c19 -37 55 -61 104 -61c77 0 136 59 145 136c9 75 -37 132 -113 132c-78 0 -142 -58 -155 -136c3 -27 8 -51 19 -71z" />
    <glyph glyph-name="six.dnom" horiz-adv-x="315" 
d="M312 102c-7 -61 -62 -112 -146 -112c-94 0 -138 67 -126 160c12 99 85 167 180 167c49 0 79 -16 95 -37c8 -8 8 -21 1 -34c-7 -14 -23 -24 -33 -19c-13 16 -32 32 -69 32c-54 0 -85 -32 -99 -87c23 20 53 33 89 33c72 0 116 -43 108 -103zM119 67c10 -18 27 -29 53 -29
c38 0 68 27 73 63c4 34 -18 60 -59 60c-40 0 -72 -27 -76 -62c1 -12 4 -23 9 -32z" />
    <glyph glyph-name="six.numr" horiz-adv-x="315" 
d="M331 415c-7 -61 -62 -112 -146 -112c-94 0 -138 67 -126 160c12 99 85 167 180 167c49 0 79 -16 95 -37c8 -8 8 -21 1 -34c-7 -14 -23 -24 -33 -19c-13 16 -32 32 -69 32c-54 0 -85 -32 -99 -87c23 20 53 33 89 33c72 0 116 -43 108 -103zM138 380c10 -18 27 -29 53 -29
c38 0 68 27 73 63c4 34 -18 60 -59 60c-40 0 -72 -27 -76 -62c1 -12 4 -23 9 -32z" />
    <glyph glyph-name="slash" unicode="/" horiz-adv-x="392" 
d="M349 593c13 22 36 28 63 28h12c27 0 41 -16 33 -32l-339 -573c-11 -21 -36 -28 -63 -28h-12c-27 0 -42 16 -32 33z" />
    <glyph glyph-name="soundcopyright" unicode="&#x2117;" horiz-adv-x="614" 
d="M322 123c-159 0 -273 129 -253 289c19 159 165 289 324 289s273 -130 253 -289c-20 -160 -165 -289 -324 -289zM329 180c127 0 246 104 261 232c16 127 -76 232 -204 232c-127 0 -244 -105 -260 -232c-16 -128 76 -232 203 -232zM372 365h-49l-12 -101
c-2 -10 -22 -16 -40 -16h-7c-17 0 -35 6 -34 16l37 299c1 10 9 13 21 13h108c75 0 124 -40 117 -106c-8 -65 -66 -105 -141 -105zM381 523h-39l-13 -106h41c34 0 59 23 63 53c4 31 -20 53 -52 53z" />
    <glyph glyph-name="space" unicode=" " horiz-adv-x="221" 
 />
    <glyph glyph-name="sterling" unicode="&#xa3;" horiz-adv-x="545" 
d="M68 201c-11 0 -19 15 -17 30l1 6c2 15 11 31 23 31h69v47h-62c-11 0 -18 15 -17 31l1 6c2 14 11 30 23 30h56c0 17 1 32 3 45c15 121 115 202 235 202c80 0 139 -31 168 -73c12 -10 13 -32 1 -56c-11 -23 -29 -35 -42 -29c-23 31 -56 63 -116 63s-114 -44 -122 -107
c-2 -13 -2 -28 -3 -45h207c11 0 16 -16 14 -31v-6c-2 -15 -11 -30 -22 -30h-198v-47h192c11 0 16 -16 14 -31v-6c-2 -15 -11 -30 -22 -30h-187c0 -5 0 -9 -1 -13c-5 -43 -28 -73 -60 -94h310c16 0 21 -25 19 -47l-1 -9c-2 -21 -15 -45 -30 -45h-471c-16 0 -25 24 -22 46l1 9
c2 21 14 46 31 46h37c35 18 55 39 60 82c1 7 2 15 2 25h-74z" />
    <glyph glyph-name="t" unicode="t" horiz-adv-x="297" 
d="M210 14c-2 -17 -32 -26 -59 -26h-12c-25 0 -51 9 -49 26l42 346h-54c-16 0 -25 23 -22 44l1 10c3 20 14 44 31 44h56l10 83c2 17 32 26 58 26h11c27 0 53 -9 51 -26l-10 -83h58c16 0 22 -24 19 -45l-1 -9c-3 -21 -14 -44 -30 -44h-58z" />
    <glyph glyph-name="t.alt" horiz-adv-x="358" 
d="M239 -12h-22c-77 0 -119 50 -111 113l32 259h-54c-16 0 -25 23 -22 44l1 10c3 20 14 44 31 44h56l10 83c2 17 32 26 58 26h12c26 0 52 -9 50 -26l-10 -83h89c16 0 22 -24 19 -45l-1 -9c-3 -21 -14 -44 -30 -44h-89l-27 -218c-4 -38 14 -57 57 -58c2 0 8 -1 10 -1
c15 0 23 -13 20 -39c-4 -30 -32 -56 -79 -56z" />
    <glyph glyph-name="t_t" horiz-adv-x="629" 
d="M210 14c-2 -17 -32 -26 -59 -26h-12c-25 0 -51 9 -50 26l43 346h-60c-17 0 -25 23 -22 44l1 10c2 20 14 44 30 44h63l10 83c2 17 32 26 58 26h11c26 0 53 -9 51 -26l-10 -83h208l10 83c2 17 32 26 57 26h12c26 0 53 -9 51 -26l-10 -83h68c16 0 22 -24 19 -45l-1 -9
c-3 -21 -14 -44 -30 -44h-68l-43 -346c-2 -17 -32 -26 -58 -26h-12c-25 0 -52 9 -50 26l43 346h-208z" />
    <glyph glyph-name="three" unicode="3" horiz-adv-x="533" 
d="M248 -21c-99 0 -165 42 -193 86c-13 13 -12 36 0 58c11 24 39 41 55 31c25 -37 66 -76 142 -76c78 0 141 35 148 93c7 59 -51 97 -188 97c-16 0 -24 13 -21 36l1 9c2 17 12 35 29 35c119 0 189 37 197 97c7 54 -40 87 -106 87c-75 0 -117 -43 -150 -78
c-19 -12 -43 2 -49 26c-8 22 -1 44 15 58c39 46 112 91 215 91c124 0 208 -69 196 -167c-9 -73 -58 -125 -145 -148c91 -24 132 -81 122 -158c-13 -107 -124 -177 -268 -177z" />
    <glyph glyph-name="three.dnom" horiz-adv-x="287" 
d="M130 -10c-52 0 -86 19 -101 40c-9 7 -8 20 -1 33c6 13 23 24 32 19c14 -16 36 -35 75 -35s71 15 74 41c4 28 -26 44 -98 44c-9 0 -14 7 -12 20v6c1 9 8 19 17 19c62 0 98 16 101 44c3 24 -21 40 -54 40c-39 0 -60 -22 -78 -37c-10 -6 -25 2 -28 16c-4 13 0 25 9 33
c22 22 60 44 116 44c67 0 113 -36 107 -85c-5 -36 -30 -61 -74 -74c47 -11 67 -38 63 -76c-7 -55 -64 -92 -148 -92z" />
    <glyph glyph-name="three.numr" horiz-adv-x="286" 
d="M149 303c-52 0 -86 19 -101 40c-9 7 -8 20 -1 33c6 13 23 24 32 19c14 -16 36 -35 75 -35s71 15 74 41c4 28 -26 44 -98 44c-9 0 -14 7 -12 20v6c1 9 8 19 17 19c62 0 98 16 101 44c3 24 -21 40 -54 40c-39 0 -60 -22 -78 -37c-10 -6 -25 2 -28 16c-4 13 0 25 9 33
c22 22 60 44 116 44c67 0 113 -36 107 -85c-5 -36 -30 -61 -74 -74c47 -11 67 -38 63 -76c-7 -55 -64 -92 -148 -92z" />
    <glyph glyph-name="threequarters" unicode="&#xbe;" horiz-adv-x="672" 
d="M168 303c-52 0 -86 19 -101 40c-9 7 -8 20 -1 33c6 13 23 24 32 19c14 -16 36 -35 75 -35s71 15 74 41c4 28 -26 44 -98 44c-9 0 -14 7 -12 20v6c1 9 8 19 17 19c62 0 98 16 101 44c3 24 -21 40 -54 40c-39 0 -60 -22 -78 -37c-10 -6 -25 2 -28 16c-4 13 0 25 9 33
c22 22 60 44 116 44c67 0 113 -36 107 -85c-5 -36 -30 -61 -74 -74c47 -11 67 -38 63 -76c-7 -55 -64 -92 -148 -92zM548 593c16 20 31 28 58 28h13c26 0 39 -17 27 -32l-438 -573c-15 -19 -31 -28 -58 -28h-12c-27 0 -40 17 -27 33zM598 10c-1 -10 -16 -16 -33 -16h-7
c-15 0 -29 6 -28 16l5 37h-161c-10 0 -16 12 -14 26v6c2 11 5 21 9 30c33 66 103 143 168 188c12 10 30 17 47 17h24c16 0 27 -6 26 -16l-24 -196h41c10 0 13 -14 11 -25v-5c-1 -12 -9 -25 -18 -25h-41zM425 102h116l19 155c-49 -32 -108 -100 -135 -155z" />
    <glyph glyph-name="tilde" unicode="&#x2dc;" 
d="M137 543c-16 9 -21 24 -16 35c25 53 70 97 136 97c72 0 91 -45 139 -45c33 0 54 18 74 49c7 10 27 15 44 4c16 -10 20 -24 15 -36c-24 -53 -69 -96 -136 -96c-71 0 -90 45 -139 45c-33 0 -54 -18 -74 -49c-7 -11 -26 -15 -43 -4z" />
    <glyph glyph-name="tilde.cap" 
d="M151 662c-16 10 -19 24 -14 35c25 54 70 97 134 97c71 0 92 -48 140 -48c32 0 55 18 74 47c7 10 26 14 43 4c16 -10 19 -24 14 -36c-25 -53 -69 -96 -133 -96c-72 0 -92 47 -141 47c-33 0 -54 -17 -74 -46c-6 -11 -26 -15 -43 -4z" />
    <glyph glyph-name="two" unicode="2" horiz-adv-x="528" 
d="M328 629c133 0 219 -89 203 -206c-13 -107 -134 -220 -330 -330h293c15 0 24 -25 22 -47l-1 -10c-3 -22 -15 -48 -32 -48h-437c-15 0 -21 26 -18 49l1 9c1 16 5 34 18 42c244 141 346 246 356 326c8 69 -42 114 -101 114c-64 0 -111 -34 -144 -89c-9 -14 -31 -18 -55 -6
c-22 13 -30 31 -24 47c44 88 135 149 249 149z" />
    <glyph glyph-name="two.dnom" horiz-adv-x="286" 
d="M174 317c77 0 119 -44 112 -104c-6 -52 -67 -106 -166 -158h148c8 0 13 -14 12 -27l-1 -6c-1 -13 -8 -28 -17 -28h-236c-9 0 -12 15 -11 29l1 5c1 9 2 20 11 24c128 69 179 117 183 154c4 31 -19 52 -51 52s-56 -16 -73 -41c-5 -8 -17 -11 -32 -4c-13 7 -17 18 -14 27
c22 45 72 77 134 77z" />
    <glyph glyph-name="two.numr" horiz-adv-x="287" 
d="M193 630c77 0 119 -44 112 -104c-6 -52 -67 -106 -166 -158h148c8 0 13 -14 12 -27l-1 -6c-1 -13 -8 -28 -17 -28h-236c-9 0 -12 15 -11 29l1 5c1 9 2 20 11 24c128 69 179 117 183 154c4 31 -19 52 -51 52s-56 -16 -73 -41c-5 -8 -17 -11 -32 -4c-13 7 -17 18 -14 27
c22 45 72 77 134 77z" />
    <glyph glyph-name="u" unicode="u" horiz-adv-x="594" 
d="M120 443c2 17 31 26 58 26h11c25 0 53 -9 51 -26l-32 -254c-9 -75 26 -123 91 -123c67 0 120 55 133 127l31 250c2 17 31 26 58 26h12c25 0 52 -9 50 -26l-53 -429c-2 -17 -32 -26 -57 -26h-12c-26 0 -53 9 -51 26l7 58c-40 -54 -104 -88 -176 -88
c-108 0 -169 72 -156 181z" />
    <glyph glyph-name="u.alt" horiz-adv-x="620" 
d="M120 443c2 17 31 26 58 26h11c25 0 53 -9 51 -26l-32 -254c-9 -75 26 -123 91 -123c69 0 121 57 134 131l30 246c2 17 31 26 57 26h12c26 0 53 -9 51 -26l-38 -311c-6 -42 14 -58 56 -58c16 0 23 -14 21 -35c-3 -26 -31 -51 -78 -51h-17c-67 0 -103 35 -107 88
c-40 -57 -105 -92 -179 -92c-108 0 -169 72 -156 181z" />
    <glyph glyph-name="uacute" unicode="&#xfa;" horiz-adv-x="594" 
d="M401 537c-11 -14 -27 -24 -51 -24h-10c-23 0 -39 9 -31 24l79 130c11 17 39 26 64 26h11c27 0 52 -14 42 -27zM120 443c2 17 31 26 58 26h11c25 0 53 -9 51 -26l-32 -254c-9 -75 26 -123 91 -123c67 0 120 55 133 127l31 250c2 17 31 26 58 26h12c25 0 52 -9 50 -26
l-53 -429c-2 -17 -32 -26 -57 -26h-12c-26 0 -53 9 -51 26l7 58c-40 -54 -104 -88 -176 -88c-108 0 -169 72 -156 181z" />
    <glyph glyph-name="uacute.alt" horiz-adv-x="620" 
d="M391 537c-11 -14 -27 -24 -51 -24h-10c-23 0 -39 9 -31 24l79 130c11 17 39 26 64 26h11c27 0 52 -14 42 -27zM120 443c2 17 31 26 58 26h11c25 0 53 -9 51 -26l-32 -254c-9 -75 26 -123 91 -123c69 0 121 57 134 131l30 246c2 17 31 26 57 26h12c26 0 53 -9 51 -26
l-38 -311c-6 -42 14 -58 56 -58c16 0 23 -14 21 -35c-3 -26 -31 -51 -78 -51h-17c-67 0 -103 35 -107 88c-40 -57 -105 -92 -179 -92c-108 0 -169 72 -156 181z" />
    <glyph glyph-name="udieresis" unicode="&#xfc;" horiz-adv-x="594" 
d="M280 544c-40 0 -60 24 -56 58s30 58 70 58c39 0 60 -24 56 -58s-31 -58 -70 -58zM458 544c-40 0 -60 24 -56 58s30 58 70 58c39 0 60 -24 56 -58s-31 -58 -70 -58zM120 443c2 17 31 26 58 26h11c25 0 53 -9 51 -26l-32 -254c-9 -75 26 -123 91 -123c67 0 120 55 133 127
l31 250c2 17 31 26 58 26h12c25 0 52 -9 50 -26l-53 -429c-2 -17 -32 -26 -57 -26h-12c-26 0 -53 9 -51 26l7 58c-40 -54 -104 -88 -176 -88c-108 0 -169 72 -156 181z" />
    <glyph glyph-name="underscore" unicode="_" horiz-adv-x="415" 
d="M25 -118c-16 0 -25 22 -22 44l1 9c3 21 14 44 30 44h341c16 0 22 -23 19 -45v-9c-3 -21 -15 -43 -31 -43h-338z" />
    <glyph glyph-name="v" unicode="v" horiz-adv-x="544" 
d="M352 9c-16 -15 -47 -21 -86 -21c-38 0 -65 7 -76 22c-69 80 -127 324 -114 430c2 18 31 29 58 29h12c25 0 52 -9 50 -26c-7 -58 20 -255 89 -366c95 115 173 309 180 366c2 17 29 26 52 26h11c24 0 51 -11 49 -29c-14 -104 -132 -350 -225 -431z" />
    <glyph glyph-name="w" unicode="w" horiz-adv-x="839" 
d="M696 10c-13 -15 -43 -22 -81 -22c-39 0 -79 9 -83 30l-71 323l-150 -323c-9 -21 -51 -30 -90 -30c-38 0 -66 7 -76 22c-60 111 -79 305 -63 430c2 18 31 29 58 29h12c26 0 52 -9 50 -26c-9 -75 -16 -231 40 -361l158 355c7 21 45 30 84 30c38 0 69 -11 72 -30l72 -353
c86 129 118 285 127 359c2 17 31 26 56 26h13c26 0 44 -11 41 -29c-15 -125 -82 -319 -169 -430z" />
    <glyph glyph-name="x" unicode="x" horiz-adv-x="538" 
d="M144 15c-2 -17 -32 -26 -58 -26h-11c-27 0 -53 12 -51 29c8 69 75 159 179 227c-90 62 -122 139 -115 195c3 18 33 29 57 29h11c23 0 49 -9 47 -26c-4 -34 19 -95 108 -155c89 61 130 122 134 155c2 17 30 26 53 26h11c24 0 52 -11 50 -29c-7 -55 -66 -135 -174 -199
c96 -66 143 -152 134 -223c-2 -17 -32 -29 -58 -29h-13c-25 0 -51 9 -49 26c4 34 -21 112 -111 178c-97 -69 -140 -142 -144 -178z" />
    <glyph glyph-name="y" unicode="y" horiz-adv-x="555" 
d="M145 -181c-19 -12 -48 -11 -67 0l-9 6c-24 14 -25 39 -7 52c47 27 97 61 154 116c-106 113 -152 351 -140 447c2 18 31 29 58 29h12c25 0 52 -9 50 -26c-6 -54 22 -245 98 -366c84 102 173 304 181 366c2 17 30 26 52 26h12c24 0 50 -11 48 -29
c-12 -92 -105 -276 -183 -376c-91 -118 -185 -207 -259 -245z" />
    <glyph glyph-name="y.alt" horiz-adv-x="589" 
d="M408 29l7 59c-40 -55 -104 -89 -176 -89c-109 0 -170 71 -156 181l32 263c2 17 32 26 59 26h11c25 0 52 -9 50 -26l-29 -239c-9 -75 25 -123 90 -123c71 0 126 61 135 139l28 223c2 17 31 26 57 26h11c27 0 54 -9 52 -26l-51 -414c-16 -129 -140 -219 -293 -219
c-64 0 -115 12 -154 37c-16 8 -26 27 -18 51c9 23 27 36 42 29c29 -17 66 -32 124 -32c93 0 168 51 179 134z" />
    <glyph glyph-name="yen" unicode="&#xa5;" horiz-adv-x="612" 
d="M87 87c-12 0 -19 15 -17 30l1 6c2 15 10 30 22 30h168l6 48h-166c-12 0 -19 15 -17 30l1 7c2 14 11 30 22 30h109c-88 102 -129 243 -120 318c2 18 31 31 61 31h13c28 0 53 -10 51 -28c-5 -45 25 -173 124 -274c123 101 185 229 190 274c2 18 31 28 59 28h12
c31 0 55 -13 53 -31c-9 -75 -83 -216 -196 -318h99c11 0 16 -16 14 -31v-6c-2 -15 -11 -30 -23 -30h-161l-6 -48h161c12 0 17 -15 16 -30l-1 -7c-2 -15 -11 -29 -23 -29h-161l-9 -72c-2 -17 -33 -27 -60 -27h-12c-27 0 -55 10 -53 27l9 72h-166z" />
    <glyph glyph-name="z" unicode="z" 
d="M479 40c-3 -21 -14 -40 -30 -40h-393c-16 0 -23 15 -21 34l1 4c20 168 271 222 337 329h-262c-16 0 -26 19 -23 41l1 9c3 21 14 41 31 41h370c16 0 23 -15 20 -37v-4c-20 -161 -273 -213 -339 -326h289c16 0 22 -20 20 -42z" />
    <glyph glyph-name="zero" unicode="0" horiz-adv-x="620" 
d="M308 -21c-169 0 -251 142 -228 325s134 325 308 325c169 0 250 -141 227 -324c-22 -183 -134 -326 -307 -326zM319 73c97 0 151 96 168 232c15 128 -21 231 -111 231c-96 0 -151 -97 -168 -232c-16 -129 22 -231 111 -231z" />
    <glyph glyph-name="zero.dnom" horiz-adv-x="334" 
d="M166 -10c-94 0 -137 70 -126 163c12 93 72 164 166 164s137 -70 126 -163c-12 -94 -72 -164 -166 -164zM173 49c49 0 76 43 83 104c7 57 -11 105 -58 105c-48 0 -76 -44 -83 -105c-7 -57 11 -104 58 -104z" />
    <glyph glyph-name="zero.numr" horiz-adv-x="334" 
d="M185 303c-94 0 -137 70 -126 163c12 93 72 164 166 164s137 -70 126 -163c-12 -94 -72 -164 -166 -164zM192 362c49 0 76 43 83 104c7 57 -11 105 -58 105c-48 0 -76 -44 -83 -105c-7 -57 11 -104 58 -104z" />
    </font>
</defs>
</svg>
