<?xml version="1.0" standalone="no"?>
<!DOCTYPE svg PUBLIC "-//W3C//DTD SVG 1.1//EN" "http://www.w3.org/Graphics/SVG/1.1/DTD/svg11.dtd" >
<svg xmlns="http://www.w3.org/2000/svg" xmlns:xlink="http://www.w3.org/1999/xlink" version="1.1">
<metadata>
Created by FontForge 20180905 at Mon May  7 19:28:43 2012
 By convertio
Copyright (c) 2011 by Hannes von Doehren. All rights reserved.
</metadata>
<defs>
<font id="PlutoLight" horiz-adv-x="600" >
  <font-face 
    font-family="Pluto Light"
    font-weight="370"
    font-stretch="normal"
    units-per-em="1000"
    panose-1="2 11 3 3 2 2 3 6 2 4"
    ascent="750"
    descent="-250"
    x-height="523"
    cap-height="680"
    bbox="-138 -246 1199 907"
    underline-thickness="50"
    underline-position="-100"
    stemh="61"
    stemv="68"
    unicode-range="U+0020-FB02"
  />
<missing-glyph horiz-adv-x="612" 
d="M50 720h512v-720h-512v720zM266 283h48c0 95 136 100 136 197c0 65 -48 119 -138 119c-111 0 -133 -91 -133 -136h47c0 49 24 93 86 93c56 0 87 -34 87 -76c0 -71 -133 -85 -133 -197zM255 194v-71h68v71h-68z" />
    <glyph glyph-name=".notdef" horiz-adv-x="612" 
d="M50 720h512v-720h-512v720zM266 283h48c0 95 136 100 136 197c0 65 -48 119 -138 119c-111 0 -133 -91 -133 -136h47c0 49 24 93 86 93c56 0 87 -34 87 -76c0 -71 -133 -85 -133 -197zM255 194v-71h68v71h-68z" />
    <glyph glyph-name=".null" horiz-adv-x="0" 
 />
    <glyph glyph-name=".null" horiz-adv-x="0" 
 />
    <glyph glyph-name="space" unicode=" " horiz-adv-x="250" 
 />
    <glyph glyph-name="exclam" unicode="!" horiz-adv-x="279" 
d="M113 231l-8 448h69l-9 -448h-52zM85 45c0 36 19 56 54 56s55 -20 55 -56c0 -37 -20 -56 -55 -56s-54 19 -54 56z" />
    <glyph glyph-name="quotedbl" unicode="&#x22;" horiz-adv-x="423" 
d="M137 680l-2 -240h-52l-2 240h56zM342 680l-3 -240h-51l-2 240h56z" />
    <glyph glyph-name="numbersign" unicode="#" horiz-adv-x="697" 
d="M367 6l39 155h-209l-40 -161h-56v6l39 155h-95v54h108l64 254h-89v54h102l40 157h55v-6l-38 -151h209l40 157h54v-6l-38 -151h102v-54h-115l-64 -254h96v-54h-109l-40 -161h-55v6zM274 469l-64 -254h209l64 254h-209z" />
    <glyph glyph-name="dollar" unicode="$" 
d="M278 -129v119c-93 2 -180 34 -221 60l17 64c40 -25 119 -59 204 -61v263l-80 20c-95 23 -152 77 -152 163c0 93 73 179 232 189v81h46v-80c87 -3 170 -29 218 -55l-22 -64c-42 27 -123 52 -196 55v-252l46 -11c117 -29 184 -76 184 -171c0 -113 -93 -188 -230 -199v-121
h-46zM343 301l-19 4v-250c96 10 159 58 159 131c0 60 -48 93 -140 115zM116 503c0 -56 39 -88 109 -105l53 -13v240c-112 -8 -162 -63 -162 -122z" />
    <glyph glyph-name="percent" unicode="%" horiz-adv-x="850" 
d="M459 161c0 98 73 173 174 173c102 0 174 -75 174 -173s-72 -171 -174 -171c-101 0 -174 73 -174 171zM514 161c0 -68 49 -119 119 -119s119 51 119 119s-49 120 -119 120s-119 -52 -119 -120zM209 6l360 674h62v-6l-360 -674h-62v6zM44 517c0 98 73 172 174 172
c102 0 174 -74 174 -172s-72 -171 -174 -171c-101 0 -174 73 -174 171zM99 517c0 -68 49 -119 119 -119s119 51 119 119s-49 120 -119 120s-119 -52 -119 -120z" />
    <glyph glyph-name="ampersand" unicode="&#x26;" horiz-adv-x="728" 
d="M683 10v-10h-88l-80 76c-60 -52 -135 -85 -226 -85c-140 0 -228 69 -228 183c0 99 81 149 163 182c-51 51 -99 99 -99 170c0 95 74 164 199 164c114 0 200 -69 200 -161c0 -98 -61 -144 -138 -173l-50 -19l181 -171c46 57 82 131 102 214l55 -33
c-22 -80 -59 -160 -112 -223zM295 50c65 0 125 25 176 69l-201 193c-70 -27 -141 -63 -141 -135c0 -76 64 -127 166 -127zM192 524c0 -56 57 -106 98 -143l69 25c66 24 98 59 98 117c0 60 -57 107 -133 107c-88 0 -132 -45 -132 -106z" />
    <glyph glyph-name="quotesingle" unicode="'" horiz-adv-x="218" 
d="M137 680l-2 -240h-52l-2 240h56z" />
    <glyph glyph-name="parenleft" unicode="(" horiz-adv-x="283" 
d="M247 690c-45 -62 -128 -209 -128 -429c0 -218 83 -367 128 -428l-42 -26c-49 53 -148 213 -148 454c0 242 99 401 148 454z" />
    <glyph glyph-name="parenright" unicode=")" horiz-adv-x="283" 
d="M36 690l42 25c49 -53 148 -212 148 -454c0 -241 -99 -401 -148 -454l-42 26c46 61 128 210 128 428c0 220 -82 367 -128 429z" />
    <glyph glyph-name="asterisk" unicode="*" horiz-adv-x="529" 
d="M248 517c-8 51 -13 103 -13 153c0 25 15 37 29 37c16 0 29 -12 29 -36c0 -49 -5 -102 -15 -151c43 23 87 45 138 62c30 9 44 -10 44 -27c0 -16 -10 -27 -26 -32c-47 -14 -96 -24 -149 -31c33 -31 83 -85 109 -115c20 -25 3 -51 -18 -51c-11 0 -23 5 -32 17
c-23 30 -65 95 -81 131c-19 -41 -54 -97 -74 -129c-11 -16 -25 -20 -35 -20c-24 0 -35 29 -17 53c22 29 70 83 101 111c-45 7 -109 27 -144 38c-18 5 -26 16 -26 29c0 20 16 38 45 28c31 -11 95 -42 135 -67z" />
    <glyph glyph-name="plus" unicode="+" 
d="M328 531v-201h200v-56h-200v-200h-56v200h-200v56h200v201h56z" />
    <glyph glyph-name="comma" unicode="," horiz-adv-x="259" 
d="M77 -153l47 141c-34 3 -50 25 -50 52c0 38 20 58 55 58c36 0 56 -25 56 -58c0 -59 -46 -173 -67 -210z" />
    <glyph glyph-name="hyphen" unicode="-" horiz-adv-x="530" 
d="M80 331h371v-57h-371v57z" />
    <glyph glyph-name="period" unicode="." horiz-adv-x="258" 
d="M74 45c0 36 19 56 54 56s55 -20 55 -56c0 -37 -20 -56 -55 -56s-54 19 -54 56z" />
    <glyph glyph-name="slash" unicode="/" horiz-adv-x="488" 
d="M33 6l361 674h61v-6l-360 -674h-62v6z" />
    <glyph glyph-name="zero" unicode="0" horiz-adv-x="724" 
d="M75 339c0 206 87 351 286 351c201 0 288 -145 288 -351c0 -204 -87 -349 -288 -349c-199 0 -286 145 -286 349zM141 339c0 -160 59 -285 220 -285c163 0 222 125 222 285c0 162 -59 288 -222 288c-161 0 -220 -126 -220 -288z" />
    <glyph glyph-name="one" unicode="1" horiz-adv-x="480" 
d="M22 543l289 137h54v-680h-68v603l-250 -113z" />
    <glyph glyph-name="two" unicode="2" horiz-adv-x="641" 
d="M578 61v-61h-502v54l288 218c85 64 124 122 124 198c0 87 -55 157 -171 157c-124 0 -187 -76 -189 -178l-63 10c4 136 92 231 253 231c163 0 239 -100 239 -215c0 -91 -37 -164 -142 -241l-232 -173h395z" />
    <glyph glyph-name="three" unicode="3" horiz-adv-x="646" 
d="M151 321v61h177c101 0 153 59 153 124c0 80 -79 124 -184 124c-91 0 -171 -30 -206 -49l-19 59c43 20 128 50 224 50c156 0 254 -64 254 -179c0 -74 -48 -143 -129 -156c98 -20 153 -76 153 -171c0 -121 -110 -194 -278 -194c-107 0 -192 33 -227 47l19 58
c34 -16 112 -45 208 -45c117 0 209 52 209 143c0 79 -61 128 -177 128h-177z" />
    <glyph glyph-name="four" unicode="4" horiz-adv-x="707" 
d="M661 151h-148v-151h-65v151h-409v50l388 479h86v-471h148v-58zM111 209h337v414z" />
    <glyph glyph-name="five" unicode="5" horiz-adv-x="642" 
d="M553 680v-61h-371l-17 -214h133c162 0 277 -54 277 -189c0 -160 -134 -226 -283 -226c-123 0 -199 33 -235 49l20 58c34 -17 106 -47 213 -47c109 0 216 44 216 164c0 102 -92 137 -211 137h-194l-4 5l28 324h428z" />
    <glyph glyph-name="six" unicode="6" horiz-adv-x="702" 
d="M608 626l-25 -56c-35 27 -107 60 -198 60c-160 0 -244 -119 -244 -289v-13c34 46 113 126 245 126c154 0 250 -83 250 -225s-111 -239 -259 -239c-193 0 -304 140 -304 351c0 207 111 349 306 349c108 0 192 -38 229 -64zM377 396c-125 0 -201 -91 -230 -133
c22 -126 102 -210 230 -210c110 0 191 76 191 176c0 111 -80 167 -191 167z" />
    <glyph glyph-name="seven" unicode="7" horiz-adv-x="537" 
d="M132 7l304 612h-409v61h487v-51l-306 -629h-76v7z" />
    <glyph glyph-name="eight" unicode="8" horiz-adv-x="694" 
d="M347 -10c-165 0 -275 73 -275 194c0 97 65 155 172 171c-92 12 -148 82 -148 156c0 115 98 179 251 179s251 -64 251 -179c0 -74 -56 -144 -148 -156c107 -16 172 -74 172 -171c0 -121 -110 -194 -275 -194zM349 320c-144 0 -208 -53 -208 -130c0 -88 89 -141 206 -141
s206 53 206 141c0 77 -61 130 -204 130zM347 632c-107 0 -183 -41 -183 -124c0 -62 51 -123 185 -123c131 0 181 61 181 123c0 83 -76 124 -183 124z" />
    <glyph glyph-name="nine" unicode="9" horiz-adv-x="702" 
d="M94 54l24 56c36 -27 108 -60 199 -60c160 0 244 119 244 289v13c-35 -46 -114 -126 -245 -126c-154 0 -250 83 -250 225s111 239 259 239c193 0 304 -140 304 -351c0 -207 -111 -349 -306 -349c-108 0 -192 38 -229 64zM325 284c125 0 201 91 229 132
c-22 126 -101 211 -229 211c-111 0 -191 -76 -191 -176c0 -111 80 -167 191 -167z" />
    <glyph glyph-name="colon" unicode=":" horiz-adv-x="266" 
d="M78 483c0 35 19 55 54 55s54 -20 54 -55c0 -37 -19 -56 -54 -56s-54 19 -54 56zM78 45c0 35 19 55 54 55s54 -20 54 -55c0 -37 -19 -56 -54 -56s-54 19 -54 56z" />
    <glyph glyph-name="semicolon" unicode=";" horiz-adv-x="274" 
d="M87 -151l47 139c-34 3 -50 25 -50 52c0 37 20 57 55 57s55 -25 55 -57c0 -59 -45 -172 -66 -208zM81 483c0 35 19 55 54 55s54 -20 54 -55c0 -37 -19 -56 -54 -56s-54 19 -54 56z" />
    <glyph glyph-name="less" unicode="&#x3c;" 
d="M72 274v55l449 207h7v-55l-399 -178l399 -178v-56h-7z" />
    <glyph glyph-name="equal" unicode="=" 
d="M72 189h456v-56h-456v56zM72 472h456v-56h-456v56z" />
    <glyph glyph-name="greater" unicode="&#x3e;" 
d="M527 329v-55l-449 -205h-6v56l398 178l-398 178v55h6z" />
    <glyph glyph-name="question" unicode="?" horiz-adv-x="483" 
d="M235 231h-58c-4 12 -6 25 -6 41c0 35 17 58 53 82l59 43c39 29 71 57 71 118c0 72 -56 117 -128 117c-77 0 -127 -39 -154 -81l-26 50c31 44 88 89 189 89c111 0 188 -70 188 -171c0 -89 -46 -126 -92 -160l-62 -44c-29 -21 -38 -32 -38 -57c0 -7 1 -17 4 -27zM154 45
c0 36 19 56 53 56c35 0 55 -20 55 -56c0 -37 -20 -56 -55 -56c-34 0 -53 19 -53 56z" />
    <glyph glyph-name="at" unicode="@" horiz-adv-x="1003" 
d="M706 491v-370c0 -38 10 -60 52 -60c66 0 147 80 147 260c0 199 -158 348 -395 348c-235 0 -403 -169 -403 -406c0 -235 168 -407 403 -407c69 0 133 14 189 41l19 -45c-62 -30 -132 -46 -208 -46c-261 0 -454 196 -454 457c0 263 193 456 454 456
c263 0 446 -170 446 -398c0 -209 -105 -310 -220 -310c-58 0 -82 24 -92 66c-35 -38 -93 -66 -162 -66c-138 0 -228 101 -228 242c0 143 90 246 228 246c68 0 124 -26 158 -62v54h66zM640 377c-28 32 -81 63 -142 63c-109 0 -177 -77 -177 -187c0 -107 68 -183 177 -183
c61 0 112 30 142 61v246z" />
    <glyph glyph-name="A" unicode="A" horiz-adv-x="695" 
d="M20 0l292 680h78l277 -680h-69l-68 165h-370l-71 -165h-69zM351 611l-171 -393h332z" />
    <glyph glyph-name="B" unicode="B" horiz-adv-x="696" 
d="M112 0v680h241c139 0 226 -55 226 -176c0 -78 -49 -128 -123 -151c109 -16 177 -71 177 -176c0 -108 -79 -177 -234 -177h-287zM180 60h212c111 0 169 45 169 124c0 94 -73 134 -191 134h-190v-258zM180 379h158c101 0 171 38 171 119c0 87 -64 122 -164 122h-165v-241z
" />
    <glyph glyph-name="C" unicode="C" horiz-adv-x="754" 
d="M656 152l36 -52c-61 -58 -166 -110 -279 -110c-201 0 -345 130 -345 349c0 221 144 351 345 351c174 0 274 -98 278 -257l-63 -13c-4 128 -78 206 -216 206c-163 0 -274 -106 -274 -287c0 -179 111 -285 276 -285c96 0 188 47 242 98z" />
    <glyph glyph-name="D" unicode="D" horiz-adv-x="792" 
d="M112 0v680h261c201 -1 351 -120 351 -341c0 -219 -150 -339 -351 -339h-261zM370 619h-190v-558h190c165 0 284 97 284 278c0 183 -119 280 -284 280z" />
    <glyph glyph-name="E" unicode="E" horiz-adv-x="700" 
d="M629 0h-517v680h517v-61h-451v-234h378v-61h-378v-263h451v-61z" />
    <glyph glyph-name="F" unicode="F" horiz-adv-x="648" 
d="M555 282h-377v-282h-66v680h497v-61h-431v-276h377v-61z" />
    <glyph glyph-name="G" unicode="G" horiz-adv-x="789" 
d="M400 360h312v-282c-63 -49 -179 -88 -283 -88c-201 0 -362 130 -362 349c0 221 161 351 362 351c110 0 189 -37 257 -96l-35 -52c-59 52 -127 84 -221 84c-163 0 -293 -106 -293 -287c0 -179 130 -285 296 -285c80 0 161 25 211 60v186h-244v60z" />
    <glyph glyph-name="H" unicode="H" horiz-adv-x="839" 
d="M659 0v311h-479v-311h-68v680h68v-308h479v308h68v-680h-68z" />
    <glyph glyph-name="I" unicode="I" horiz-adv-x="292" 
d="M112 0v680h68v-680h-68z" />
    <glyph glyph-name="J" unicode="J" horiz-adv-x="656" 
d="M484 680h69v-421c0 -159 -93 -271 -262 -271c-168 0 -249 104 -259 262l67 7c9 -126 66 -205 193 -205s192 83 192 210v418z" />
    <glyph glyph-name="K" unicode="K" horiz-adv-x="768" 
d="M112 0v680h68v-311h179l224 311h72v-10l-243 -332c59 -61 121 -287 247 -287c29 0 62 9 88 21l9 -56c-28 -14 -69 -26 -108 -26c-169 0 -232 260 -296 319h-172v-309h-68z" />
    <glyph glyph-name="L" unicode="L" horiz-adv-x="597" 
d="M571 0h-459v680h68v-619h391v-61z" />
    <glyph glyph-name="M" unicode="M" horiz-adv-x="948" 
d="M768 0v571l-286 -346h-16l-286 346v-571h-68v680h63l299 -363l300 363h62v-680h-68z" />
    <glyph glyph-name="N" unicode="N" horiz-adv-x="836" 
d="M663 0l-483 571v-571h-68v680h61l483 -573v573h68v-680h-61z" />
    <glyph glyph-name="O" unicode="O" horiz-adv-x="832" 
d="M66 339c0 201 150 351 349 351c201 0 351 -150 351 -351c0 -199 -150 -349 -351 -349c-199 0 -349 150 -349 349zM133 339c0 -163 120 -285 282 -285c165 0 284 122 284 285c0 165 -119 286 -284 286c-162 0 -282 -121 -282 -286z" />
    <glyph glyph-name="P" unicode="P" horiz-adv-x="690" 
d="M112 0v680h292c128 0 237 -75 237 -238c0 -147 -109 -235 -237 -235h-224v-207h-68zM395 619h-215v-351h215c96 0 176 64 176 174c0 120 -80 177 -176 177z" />
    <glyph glyph-name="Q" unicode="Q" horiz-adv-x="832" 
d="M839 -103l10 -58c-26 -9 -73 -19 -125 -19c-170 0 -261 155 -309 170c-199 0 -349 150 -349 349c0 201 150 351 349 351c201 0 351 -150 351 -351c0 -170 -110 -304 -268 -336c51 -41 119 -122 230 -122c46 0 87 8 111 16zM133 339c0 -163 120 -284 282 -284
c165 0 284 121 284 284c0 165 -119 286 -284 286c-162 0 -282 -121 -282 -286z" />
    <glyph glyph-name="R" unicode="R" horiz-adv-x="764" 
d="M112 0v680h293c122 0 239 -62 239 -214c0 -129 -105 -210 -225 -210h-12c68 -70 157 -206 255 -206c28 0 62 10 88 22l9 -56c-28 -14 -66 -26 -106 -26c-151 0 -260 216 -335 266h-138v-256h-68zM411 619h-231v-307h231c88 0 163 55 163 152c0 106 -75 155 -163 155z" />
    <glyph glyph-name="S" unicode="S" horiz-adv-x="639" 
d="M363 301l-145 35c-94 23 -152 77 -152 163c0 99 83 190 263 190c92 0 183 -27 233 -55l-21 -64c-46 29 -137 56 -214 56c-132 0 -191 -59 -191 -123c0 -56 39 -88 109 -105l145 -36c117 -29 184 -76 184 -171c0 -123 -109 -201 -267 -201c-96 0 -187 34 -230 60l17 64
c43 -26 126 -61 214 -61c116 0 196 52 196 133c0 60 -49 93 -141 115z" />
    <glyph glyph-name="T" unicode="T" horiz-adv-x="627" 
d="M604 619h-249v-619h-68v619h-263v61h580v-61z" />
    <glyph glyph-name="U" unicode="U" horiz-adv-x="788" 
d="M171 680v-401c0 -134 69 -227 222 -227c155 0 224 101 224 228v400h68v-404c0 -154 -97 -288 -292 -288c-194 0 -290 121 -290 288v404h68z" />
    <glyph glyph-name="V" unicode="V" horiz-adv-x="698" 
d="M304 0l-277 680h74l244 -619l260 619h73l-291 -680h-83z" />
    <glyph glyph-name="W" unicode="W" horiz-adv-x="1075" 
d="M690 0l-152 367l-161 -367h-73l-277 680h73l245 -603l164 370l-95 233h73l239 -594l256 594h73l-292 -680h-73z" />
    <glyph glyph-name="X" unicode="X" horiz-adv-x="699" 
d="M665 680v-6l-268 -334l268 -334v-6h-79l-236 293l-237 -293h-79v6l267 334l-267 334v6h78l238 -294l237 294h78z" />
    <glyph glyph-name="Y" unicode="Y" horiz-adv-x="667" 
d="M299 0v287l-284 387v6h76l242 -330l243 330h75v-6l-284 -386v-288h-68z" />
    <glyph glyph-name="Z" unicode="Z" horiz-adv-x="616" 
d="M57 51l414 568h-414v61h501v-51l-413 -568h413v-61h-501v51z" />
    <glyph glyph-name="bracketleft" unicode="[" horiz-adv-x="324" 
d="M294 -188h-198v898h198v-56h-141v-785h141v-57z" />
    <glyph glyph-name="backslash" unicode="\" horiz-adv-x="488" 
d="M94 680l361 -674v-6h-62l-360 674v6h61z" />
    <glyph glyph-name="bracketright" unicode="]" horiz-adv-x="324" 
d="M30 710h197v-898h-197v57h141v785h-141v56z" />
    <glyph glyph-name="asciicircum" unicode="^" 
d="M270 680h53l185 -267v-7h-64l-148 220l-144 -220h-64v7z" />
    <glyph glyph-name="underscore" unicode="_" horiz-adv-x="752" 
d="M126 -42h500v-56h-500v56z" />
    <glyph glyph-name="grave" unicode="`" 
d="M321 604l-90 137h70l82 -137h-62z" />
    <glyph glyph-name="a" unicode="a" horiz-adv-x="689" 
d="M557 523v-408c0 -40 12 -66 48 -66c20 0 38 9 58 22l8 -55c-22 -14 -56 -26 -88 -26c-54 0 -82 28 -90 78c-39 -42 -104 -78 -181 -78c-154 0 -255 112 -255 269c0 159 101 273 255 273c75 0 138 -32 177 -71v62h68zM489 121v279c-32 36 -92 71 -161 71
c-123 0 -202 -87 -202 -212c0 -122 79 -208 202 -208c68 0 128 35 161 70z" />
    <glyph glyph-name="b" unicode="b" horiz-adv-x="653" 
d="M596 262c0 -158 -101 -272 -255 -272c-78 0 -139 32 -178 72v-62h-68v710h68v-248c40 39 102 70 178 70c154 0 255 -112 255 -270zM527 262c0 123 -80 209 -202 209c-69 0 -129 -36 -162 -73v-276c31 -35 92 -71 162 -71c122 0 202 87 202 211z" />
    <glyph glyph-name="c" unicode="c" horiz-adv-x="608" 
d="M523 114l28 -55c-55 -44 -131 -73 -215 -73c-197 0 -280 117 -280 274c0 160 107 277 274 277c143 0 221 -80 226 -198l-62 -14c-5 91 -57 151 -164 151c-127 0 -204 -91 -204 -214c0 -121 62 -215 217 -215c64 0 131 30 180 67z" />
    <glyph glyph-name="d" unicode="d" horiz-adv-x="690" 
d="M490 710h68v-596c0 -41 11 -65 48 -65c18 0 37 9 57 22l9 -55c-22 -14 -58 -26 -89 -26c-53 0 -82 24 -91 75c-39 -41 -100 -75 -180 -75c-153 0 -256 114 -256 272s103 270 256 270c76 0 138 -32 178 -71v249zM125 262c0 -124 80 -211 203 -211c70 0 131 36 162 71v276
c-33 37 -93 73 -162 73c-122 0 -203 -86 -203 -209z" />
    <glyph glyph-name="e" unicode="e" horiz-adv-x="616" 
d="M521 108l29 -51c-54 -43 -126 -71 -214 -71c-197 0 -281 124 -281 274c0 152 105 277 273 277c159 0 230 -99 230 -218c0 -29 -4 -63 -9 -82h-425c7 -109 72 -193 214 -193c77 0 139 30 183 64zM490 292c1 11 3 24 3 37c0 79 -50 150 -166 150c-123 0 -195 -86 -201 -187
h364z" />
    <glyph glyph-name="f" unicode="f" horiz-adv-x="446" 
d="M41 436v55h110v52c0 99 47 177 163 177c63 0 109 -29 132 -52l-20 -56c-20 21 -55 47 -106 47c-75 0 -101 -49 -101 -116v-52h196v-55h-196v-436h-68v436h-110z" />
    <glyph glyph-name="g" unicode="g" horiz-adv-x="653" 
d="M57 280c0 139 102 252 256 252c77 0 138 -32 177 -71v62h68v-477c0 -158 -105 -244 -238 -244c-102 0 -161 39 -193 56l17 62c32 -21 91 -57 176 -57c90 0 170 55 170 171v66c-40 -39 -102 -70 -177 -70c-154 0 -256 113 -256 250zM127 280c0 -106 79 -189 201 -189
c70 0 129 34 162 70v237c-31 36 -92 73 -162 73c-123 0 -201 -84 -201 -191z" />
    <glyph glyph-name="h" unicode="h" horiz-adv-x="678" 
d="M95 710h68v-283c36 66 103 105 191 105c135 0 199 -100 199 -231v-186c0 -40 13 -66 48 -66c19 0 38 9 59 22l8 -55c-22 -14 -56 -26 -89 -26c-64 0 -94 38 -94 112v190c0 101 -49 176 -152 176c-89 0 -151 -60 -170 -132v-336h-68v710z" />
    <glyph glyph-name="i" unicode="i" horiz-adv-x="299" 
d="M163 523v-408c0 -39 12 -66 48 -66c20 0 42 11 57 22l9 -55c-15 -12 -53 -26 -89 -26c-63 0 -93 38 -93 112v421h68zM81 672c0 34 19 46 49 46c28 0 47 -12 47 -46c0 -33 -19 -46 -47 -46c-30 0 -49 13 -49 46z" />
    <glyph glyph-name="j" unicode="j" horiz-adv-x="257" 
d="M163 523v-502c0 -115 -59 -180 -138 -218l-38 47c62 34 108 78 108 169v504h68zM82 672c0 34 18 46 48 46c29 0 46 -12 46 -46c0 -33 -17 -46 -46 -46c-30 0 -48 13 -48 46z" />
    <glyph glyph-name="k" unicode="k" horiz-adv-x="605" 
d="M484 523h68c-26 -134 -87 -213 -173 -256l187 -256v-11h-77l-171 244c-46 -13 -99 -19 -155 -19v-225h-68v710h68v-423c153 1 277 38 321 236z" />
    <glyph glyph-name="l" unicode="l" horiz-adv-x="308" 
d="M92 710h68v-588c0 -51 25 -73 62 -73c26 0 45 9 65 22l9 -55c-22 -14 -57 -26 -96 -26c-64 0 -108 34 -108 118v602z" />
    <glyph glyph-name="m" unicode="m" horiz-adv-x="1040" 
d="M95 523h68v-98c35 64 96 107 184 107c100 0 154 -45 179 -124c32 71 99 124 196 124c135 0 193 -100 193 -231v-186c0 -40 11 -66 47 -66c18 0 38 9 58 22l9 -55c-22 -14 -58 -26 -89 -26c-63 0 -93 38 -93 112v190c0 101 -44 176 -147 176c-88 0 -143 -63 -161 -134
v-334h-68v292c0 103 -42 176 -145 176c-89 0 -144 -62 -163 -134v-334h-68v523z" />
    <glyph glyph-name="n" unicode="n" horiz-adv-x="678" 
d="M95 523h68v-96c36 65 103 105 191 105c135 0 199 -100 199 -231v-186c0 -40 13 -66 48 -66c19 0 39 9 59 22l8 -55c-23 -15 -56 -26 -89 -26c-64 0 -94 38 -94 112v190c0 101 -49 176 -152 176c-89 0 -151 -60 -170 -132v-336h-68v523z" />
    <glyph glyph-name="o" unicode="o" horiz-adv-x="666" 
d="M55 260c0 159 115 277 277 277c164 0 279 -118 279 -277c0 -157 -115 -274 -279 -274c-162 0 -277 117 -277 274zM121 260c0 -120 87 -211 211 -211c126 0 213 91 213 211c0 122 -87 214 -213 214c-124 0 -211 -92 -211 -214z" />
    <glyph glyph-name="p" unicode="p" horiz-adv-x="689" 
d="M200 -188h-68v596c0 42 -12 66 -48 66c-21 0 -42 -9 -59 -21l-8 55c15 11 52 26 89 26c53 0 83 -26 91 -77c39 41 101 75 180 75c153 0 256 -113 256 -272c0 -157 -103 -270 -256 -270c-75 0 -138 30 -177 69v-247zM361 471c-69 0 -129 -36 -161 -72v-279
c33 -35 93 -69 161 -69c123 0 203 86 203 209c0 124 -80 211 -203 211z" />
    <glyph glyph-name="q" unicode="q" horiz-adv-x="652" 
d="M57 260c0 159 101 272 255 272c77 0 138 -32 177 -73v64h68v-711h-68v247c-40 -39 -102 -69 -177 -69c-154 0 -255 113 -255 270zM328 51c69 0 128 34 161 70v277c-31 36 -92 73 -161 73c-123 0 -202 -87 -202 -211c0 -123 79 -209 202 -209z" />
    <glyph glyph-name="r" unicode="r" horiz-adv-x="458" 
d="M132 0v407c0 40 -12 66 -48 66c-20 0 -42 -10 -58 -21l-8 54c15 13 52 26 88 26c63 0 93 -36 94 -108c28 64 68 108 142 108c49 0 81 -17 96 -42l-17 -58c-15 23 -44 36 -87 36c-81 0 -115 -77 -134 -156v-312h-68z" />
    <glyph glyph-name="s" unicode="s" horiz-adv-x="519" 
d="M457 493l-18 -60c-42 21 -110 40 -170 40c-86 0 -146 -38 -146 -97c0 -48 31 -60 93 -75l115 -26c85 -19 132 -56 132 -128c0 -91 -72 -157 -201 -157c-88 0 -156 25 -195 45l15 60c40 -21 102 -47 177 -47c89 0 137 41 137 94c0 45 -41 62 -99 75l-111 25
c-84 20 -132 52 -132 130c0 93 84 160 219 160c66 0 146 -20 184 -39z" />
    <glyph glyph-name="t" unicode="t" horiz-adv-x="472" 
d="M138 656h61v-133h217v-56h-218v-306c0 -73 34 -110 98 -110c41 0 93 18 124 41l24 -54c-43 -28 -101 -48 -167 -48c-92 0 -147 56 -147 159v318h-104v56h105z" />
    <glyph glyph-name="u" unicode="u" horiz-adv-x="677" 
d="M477 523h68v-408c0 -39 12 -66 47 -66c19 0 38 9 59 22l8 -55c-22 -15 -57 -26 -89 -26c-58 0 -88 32 -93 94c-38 -59 -105 -94 -191 -94c-135 0 -200 95 -200 230v303h68v-294c0 -106 45 -176 153 -176c89 0 148 57 170 119v351z" />
    <glyph glyph-name="v" unicode="v" horiz-adv-x="681" 
d="M131 220v188c0 41 -11 65 -48 65c-19 0 -38 -7 -58 -20l-8 54c23 15 56 26 88 26c64 0 94 -37 94 -112v-193c0 -113 64 -175 163 -175c101 0 180 73 180 197c0 117 -37 223 -58 273h72c16 -42 54 -152 54 -276c0 -155 -104 -257 -248 -257c-143 0 -231 87 -231 230z" />
    <glyph glyph-name="w" unicode="w" horiz-adv-x="1033" 
d="M511 523h68v-296c0 -102 49 -174 149 -174c110 0 165 90 165 199c0 117 -39 224 -57 271h71c16 -42 54 -152 54 -276c0 -155 -89 -257 -229 -257c-104 0 -159 42 -189 132c-32 -89 -102 -132 -201 -132c-139 0 -210 85 -210 230v188c0 42 -10 66 -49 66
c-20 0 -41 -9 -58 -21l-8 55c24 12 56 24 91 24c71 0 92 -47 92 -110v-194c0 -114 50 -175 149 -175s162 71 162 177v293z" />
    <glyph glyph-name="x" unicode="x" horiz-adv-x="567" 
d="M534 523v-6l-203 -257l203 -254v-6h-77l-173 218l-173 -218h-77v6l202 254l-202 257v6h75l175 -221l175 221h75z" />
    <glyph glyph-name="y" unicode="y" horiz-adv-x="576" 
d="M17 523h75l207 -448l189 448h69l-240 -559c-42 -102 -87 -162 -188 -162c-53 0 -94 20 -119 36l13 57c26 -17 58 -34 106 -34c65 0 94 37 122 103l17 41z" />
    <glyph glyph-name="z" unicode="z" horiz-adv-x="520" 
d="M51 51l332 416h-332v56h418v-51l-331 -416h331v-56h-418v51z" />
    <glyph glyph-name="braceleft" unicode="{" horiz-adv-x="294" 
d="M246 710v-51h-31c-49 0 -78 -31 -78 -71c0 -63 63 -157 63 -240c0 -51 -20 -78 -75 -89c55 -11 75 -39 75 -93c0 -81 -63 -175 -63 -238c0 -40 29 -71 78 -71h31v-51h-37c-92 0 -128 51 -128 111c0 74 63 161 63 246c0 49 -29 73 -97 73v45c68 0 97 26 97 75
c0 85 -63 171 -63 245c0 58 36 109 128 109h37z" />
    <glyph glyph-name="bar" unicode="|" horiz-adv-x="249" 
d="M96 -188v898h57v-898h-57z" />
    <glyph glyph-name="braceright" unicode="}" horiz-adv-x="293" 
d="M47 710h37c92 0 128 -51 128 -109c0 -74 -62 -160 -62 -245c0 -49 28 -75 96 -75v-45c-68 0 -96 -24 -96 -73c0 -85 62 -172 62 -246c0 -60 -36 -111 -128 -111h-37v51h32c49 0 77 31 77 71c0 63 -62 157 -62 238c0 54 20 82 75 93c-55 11 -75 38 -75 89
c0 83 62 177 62 240c0 40 -28 71 -77 71h-32v51z" />
    <glyph glyph-name="asciitilde" unicode="~" horiz-adv-x="517" 
d="M414 352l29 -29c-11 -53 -47 -91 -98 -91c-70 0 -109 86 -172 86c-30 0 -62 -21 -70 -67l-29 30c8 48 44 90 97 90c71 0 117 -86 172 -86c39 0 61 27 71 67z" />
    <glyph glyph-name="uni00A0" unicode="&#xa0;" horiz-adv-x="250" 
 />
    <glyph glyph-name="Agrave" unicode="&#xc0;" horiz-adv-x="695" 
d="M20 0l292 680h78l277 -680h-69l-68 165h-370l-71 -165h-69zM351 611l-171 -393h332zM324 761l-90 137h70l82 -137h-62z" />
    <glyph glyph-name="Aacute" unicode="&#xc1;" horiz-adv-x="695" 
d="M20 0l292 680h78l277 -680h-69l-68 165h-370l-71 -165h-69zM351 611l-171 -393h332zM459 898l-90 -137h-62l82 137h70z" />
    <glyph glyph-name="Acircumflex" unicode="&#xc2;" horiz-adv-x="695" 
d="M20 0l292 680h78l277 -680h-69l-68 165h-370l-71 -165h-69zM351 611l-171 -393h332zM434 761l-84 98l-83 -98h-60l109 137h69l109 -137h-60z" />
    <glyph glyph-name="Atilde" unicode="&#xc3;" horiz-adv-x="695" 
d="M20 0l292 680h78l277 -680h-69l-68 165h-370l-71 -165h-69zM351 611l-171 -393h332zM208 783l-26 30c17 34 52 70 96 70c55 0 103 -68 143 -68c34 0 57 22 70 49l26 -29c-19 -38 -53 -70 -95 -70c-54 0 -104 68 -143 68c-34 0 -56 -23 -71 -50z" />
    <glyph glyph-name="Adieresis" unicode="&#xc4;" horiz-adv-x="695" 
d="M20 0l292 680h78l277 -680h-69l-68 165h-370l-71 -165h-69zM351 611l-171 -393h332zM181 828c0 33 19 45 46 45c25 0 45 -12 45 -45c0 -31 -20 -44 -45 -44c-27 0 -46 13 -46 44zM430 828c0 33 20 45 47 45c25 0 44 -12 44 -45c0 -31 -19 -44 -44 -44
c-27 0 -47 13 -47 44z" />
    <glyph glyph-name="Amacron" unicode="&#x100;" horiz-adv-x="695" 
d="M20 0l292 680h78l277 -680h-69l-68 165h-370l-71 -165h-69zM351 611l-171 -393h332zM470 793h-239v50h239v-50z" />
    <glyph glyph-name="Abreve" unicode="&#x102;" horiz-adv-x="695" 
d="M20 0l292 680h78l277 -680h-69l-68 165h-370l-71 -165h-69zM351 611l-171 -393h332zM219 845l24 30c18 -25 51 -56 108 -56c56 0 90 30 107 56l24 -30c-20 -35 -61 -75 -131 -75c-69 0 -112 40 -132 75z" />
    <glyph glyph-name="Aring" unicode="&#xc5;" horiz-adv-x="695" 
d="M252 748c0 54 44 98 98 98s98 -44 98 -98c0 -37 -21 -70 -51 -86l270 -662h-69l-68 165h-370l-71 -165h-69l284 661c-31 17 -52 49 -52 87zM351 611l-171 -393h332zM287 748c0 -35 28 -63 63 -63s63 28 63 63s-28 63 -63 63s-63 -28 -63 -63z" />
    <glyph glyph-name="Aringacute" unicode="&#x1fa;" horiz-adv-x="695" 
d="M20 0l283 661c-29 11 -49 34 -49 71c0 54 43 79 97 79s97 -25 97 -79c0 -37 -20 -61 -50 -72l269 -660h-69l-68 165h-370l-71 -165h-69zM351 611l-171 -393h332zM288 732c0 -35 28 -47 63 -47s63 12 63 47s-28 47 -63 47s-63 -12 -63 -47zM425 907l-52 -73h-49l45 73h56z
" />
    <glyph glyph-name="Aogonek" unicode="&#x104;" horiz-adv-x="694" 
d="M20 0l292 680h78l277 -680h-23c-54 -2 -99 -29 -99 -77c0 -38 25 -58 61 -58c19 0 39 5 57 16l8 -36c-18 -10 -44 -18 -73 -18c-53 0 -92 32 -92 89c0 53 48 85 88 93l-64 156h-370l-71 -165h-69zM351 611l-171 -393h332z" />
    <glyph glyph-name="AE" unicode="&#xc6;" horiz-adv-x="1060" 
d="M472 0v165h-285l-106 -165h-75l432 680h551v-61h-451v-236h378v-57h-378v-265h451v-61h-517zM217 218h255v403z" />
    <glyph glyph-name="AEacute" unicode="&#x1fc;" horiz-adv-x="1060" 
d="M472 0v165h-285l-106 -165h-75l432 680h551v-61h-451v-236h378v-57h-378v-265h451v-61h-517zM217 218h255v403zM804 898l-90 -137h-62l82 137h70z" />
    <glyph glyph-name="Cacute" unicode="&#x106;" horiz-adv-x="754" 
d="M656 152l36 -52c-61 -58 -166 -110 -279 -110c-201 0 -345 130 -345 349c0 221 144 351 345 351c174 0 274 -98 278 -257l-63 -13c-4 128 -78 206 -216 206c-163 0 -274 -106 -274 -287c0 -179 111 -285 276 -285c96 0 188 47 242 98zM533 898l-90 -137h-62l82 137h70z
" />
    <glyph glyph-name="Ccircumflex" unicode="&#x108;" horiz-adv-x="754" 
d="M656 152l36 -52c-61 -58 -166 -110 -279 -110c-201 0 -345 130 -345 349c0 221 144 351 345 351c174 0 274 -98 278 -257l-63 -13c-4 128 -78 206 -216 206c-163 0 -274 -106 -274 -287c0 -179 111 -285 276 -285c96 0 188 47 242 98zM499 761l-84 98l-83 -98h-60
l109 137h69l109 -137h-60z" />
    <glyph glyph-name="Ccaron" unicode="&#x10c;" horiz-adv-x="754" 
d="M656 152l36 -52c-61 -58 -166 -110 -279 -110c-201 0 -345 130 -345 349c0 221 144 351 345 351c174 0 274 -98 278 -257l-63 -13c-4 128 -78 206 -216 206c-163 0 -274 -106 -274 -287c0 -179 111 -285 276 -285c96 0 188 47 242 98zM334 898l84 -98l83 98h60l-109 -137
h-69l-109 137h60z" />
    <glyph glyph-name="Cdotaccent" unicode="&#x10a;" horiz-adv-x="754" 
d="M656 152l36 -52c-61 -58 -166 -110 -279 -110c-201 0 -345 130 -345 349c0 221 144 351 345 351c174 0 274 -98 278 -257l-63 -13c-4 128 -78 206 -216 206c-163 0 -274 -106 -274 -287c0 -179 111 -285 276 -285c96 0 188 47 242 98zM369 829c0 34 19 46 49 46
c28 0 47 -12 47 -46c0 -33 -19 -46 -47 -46c-30 0 -49 13 -49 46z" />
    <glyph glyph-name="Ccedilla" unicode="&#xc7;" horiz-adv-x="755" 
d="M336 -96l24 90c-172 21 -291 146 -291 345c0 221 144 351 345 351c174 0 274 -98 278 -257l-63 -13c-4 128 -78 206 -216 206c-163 0 -274 -106 -274 -287c0 -179 111 -285 276 -285c96 0 188 47 242 98l36 -52c-61 -58 -166 -110 -279 -110c-7 0 -13 0 -20 1l-15 -58
c9 2 22 4 33 4c52 0 83 -26 83 -63c0 -47 -45 -72 -101 -72c-24 0 -49 4 -73 12l8 30c20 -7 41 -12 64 -12c37 0 64 13 64 41c0 22 -19 35 -58 35c-20 0 -45 -3 -60 -8z" />
    <glyph glyph-name="Dcaron" unicode="&#x10e;" horiz-adv-x="792" 
d="M112 0v680h261c201 -1 351 -120 351 -341c0 -219 -150 -339 -351 -339h-261zM370 619h-190v-558h190c165 0 284 97 284 278c0 183 -119 280 -284 280zM258 898l84 -98l83 98h60l-109 -137h-69l-109 137h60z" />
    <glyph glyph-name="Dcroat" unicode="&#x110;" horiz-adv-x="792" 
d="M113 0v313h-65v56h65v311h260c201 -1 351 -120 351 -341c0 -219 -150 -339 -351 -339h-260zM356 313h-175v-252h190c164 0 284 97 284 278c0 183 -120 280 -284 280h-190v-250h175v-56z" />
    <glyph glyph-name="Eth" unicode="&#xd0;" horiz-adv-x="792" 
d="M113 0v313h-65v56h65v311h260c201 -1 351 -120 351 -341c0 -219 -150 -339 -351 -339h-260zM356 313h-175v-252h190c164 0 284 97 284 278c0 183 -120 280 -284 280h-190v-250h175v-56z" />
    <glyph glyph-name="Egrave" unicode="&#xc8;" horiz-adv-x="700" 
d="M629 0h-517v680h517v-61h-451v-234h378v-61h-378v-263h451v-61zM343 761l-90 137h70l82 -137h-62z" />
    <glyph glyph-name="Eacute" unicode="&#xc9;" horiz-adv-x="700" 
d="M629 0h-517v680h517v-61h-451v-234h378v-61h-378v-263h451v-61zM481 898l-90 -137h-62l82 137h70z" />
    <glyph glyph-name="Ecircumflex" unicode="&#xca;" horiz-adv-x="700" 
d="M629 0h-517v680h517v-61h-451v-234h378v-61h-378v-263h451v-61zM453 761l-84 98l-83 -98h-60l109 137h69l109 -137h-60z" />
    <glyph glyph-name="Ecaron" unicode="&#x11a;" horiz-adv-x="700" 
d="M629 0h-517v680h517v-61h-451v-234h378v-61h-378v-263h451v-61zM286 898l84 -98l83 98h60l-109 -137h-69l-109 137h60z" />
    <glyph glyph-name="Edieresis" unicode="&#xcb;" horiz-adv-x="700" 
d="M629 0h-517v680h517v-61h-451v-234h378v-61h-378v-263h451v-61zM200 828c0 33 19 45 46 45c25 0 45 -12 45 -45c0 -31 -20 -44 -45 -44c-27 0 -46 13 -46 44zM449 828c0 33 20 45 47 45c25 0 44 -12 44 -45c0 -31 -19 -44 -44 -44c-27 0 -47 13 -47 44z" />
    <glyph glyph-name="Emacron" unicode="&#x112;" horiz-adv-x="700" 
d="M629 0h-517v680h517v-61h-451v-234h378v-61h-378v-263h451v-61zM489 793h-239v50h239v-50z" />
    <glyph glyph-name="Ebreve" unicode="&#x114;" horiz-adv-x="700" 
d="M629 0h-517v680h517v-61h-451v-234h378v-61h-378v-263h451v-61zM237 845l24 30c18 -25 51 -56 108 -56c56 0 90 30 107 56l24 -30c-20 -35 -61 -75 -131 -75c-69 0 -112 40 -132 75z" />
    <glyph glyph-name="Edotaccent" unicode="&#x116;" horiz-adv-x="700" 
d="M629 0h-517v680h517v-61h-451v-234h378v-61h-378v-263h451v-61zM320 829c0 34 19 46 49 46c28 0 47 -12 47 -46c0 -33 -19 -46 -47 -46c-30 0 -49 13 -49 46z" />
    <glyph glyph-name="Eogonek" unicode="&#x118;" horiz-adv-x="700" 
d="M629 0h-13c-54 -2 -99 -29 -99 -77c0 -38 25 -58 61 -58c19 0 39 5 57 16l8 -36c-18 -10 -44 -18 -73 -18c-53 0 -92 32 -92 89c0 41 28 70 59 84h-425v680h517v-61h-451v-234h378v-61h-378v-263h451v-61z" />
    <glyph glyph-name="Gcircumflex" unicode="&#x11c;" horiz-adv-x="789" 
d="M400 360h312v-282c-63 -49 -179 -88 -283 -88c-201 0 -362 130 -362 349c0 221 161 351 362 351c110 0 189 -37 257 -96l-35 -52c-59 52 -127 84 -221 84c-163 0 -293 -106 -293 -287c0 -179 130 -285 296 -285c80 0 161 25 211 60v186h-244v60zM512 761l-84 98l-83 -98
h-60l109 137h69l109 -137h-60z" />
    <glyph glyph-name="Gbreve" unicode="&#x11e;" horiz-adv-x="789" 
d="M400 360h312v-282c-63 -49 -179 -88 -283 -88c-201 0 -362 130 -362 349c0 221 161 351 362 351c110 0 189 -37 257 -96l-35 -52c-59 52 -127 84 -221 84c-163 0 -293 -106 -293 -287c0 -179 130 -285 296 -285c80 0 161 25 211 60v186h-244v60zM299 845l24 30
c18 -25 51 -56 108 -56c56 0 90 30 107 56l24 -30c-20 -35 -61 -75 -131 -75c-69 0 -112 40 -132 75z" />
    <glyph glyph-name="Gdotaccent" unicode="&#x120;" horiz-adv-x="789" 
d="M400 360h312v-282c-63 -49 -179 -88 -283 -88c-201 0 -362 130 -362 349c0 221 161 351 362 351c110 0 189 -37 257 -96l-35 -52c-59 52 -127 84 -221 84c-163 0 -293 -106 -293 -287c0 -179 130 -285 296 -285c80 0 161 25 211 60v186h-244v60zM378 829
c0 34 19 46 49 46c28 0 47 -12 47 -46c0 -33 -19 -46 -47 -46c-30 0 -49 13 -49 46z" />
    <glyph glyph-name="Gcommaaccent" unicode="&#x122;" horiz-adv-x="789" 
d="M400 360h312v-282c-63 -49 -179 -88 -283 -88c-201 0 -362 130 -362 349c0 221 161 351 362 351c110 0 189 -37 257 -96l-35 -52c-59 52 -127 84 -221 84c-163 0 -293 -106 -293 -287c0 -179 130 -285 296 -285c80 0 161 25 211 60v186h-244v60zM390 -232l24 69
c-33 3 -50 21 -50 44c0 33 20 50 49 50c36 0 55 -22 55 -54c0 -42 -19 -90 -41 -123z" />
    <glyph glyph-name="Hcircumflex" unicode="&#x124;" horiz-adv-x="839" 
d="M659 0v311h-479v-311h-68v680h68v-308h479v308h68v-680h-68zM501 761l-84 98l-83 -98h-60l109 137h69l109 -137h-60z" />
    <glyph glyph-name="Hbar" unicode="&#x126;" horiz-adv-x="839" 
d="M112 0v504h-46v56h46v120h68v-120h479v120h68v-120h52v-56h-52v-504h-68v311h-479v-311h-68zM180 504v-132h479v132h-479z" />
    <glyph glyph-name="Igrave" unicode="&#xcc;" horiz-adv-x="292" 
d="M112 0v680h68v-680h-68zM123 761l-90 137h70l82 -137h-62z" />
    <glyph glyph-name="Iacute" unicode="&#xcd;" horiz-adv-x="292" 
d="M112 0v680h68v-680h-68zM264 898l-90 -137h-62l82 137h70z" />
    <glyph glyph-name="Ibreve" unicode="&#x12c;" horiz-adv-x="292" 
d="M112 0v680h68v-680h-68zM14 845l24 30c18 -25 51 -56 108 -56c56 0 90 30 107 56l24 -30c-20 -35 -61 -75 -131 -75c-69 0 -112 40 -132 75z" />
    <glyph glyph-name="Icircumflex" unicode="&#xce;" horiz-adv-x="292" 
d="M112 0v680h68v-680h-68zM229 761l-84 98l-83 -98h-60l109 137h69l109 -137h-60z" />
    <glyph glyph-name="Itilde" unicode="&#x128;" horiz-adv-x="292" 
d="M112 0v680h68v-680h-68zM4 783l-26 30c17 34 52 70 96 70c55 0 103 -68 143 -68c34 0 57 22 70 49l26 -29c-19 -38 -53 -70 -95 -70c-54 0 -104 68 -143 68c-34 0 -56 -23 -71 -50z" />
    <glyph glyph-name="Idieresis" unicode="&#xcf;" horiz-adv-x="292" 
d="M112 0v680h68v-680h-68zM-25 828c0 33 19 45 46 45c25 0 45 -12 45 -45c0 -31 -20 -44 -45 -44c-27 0 -46 13 -46 44zM224 828c0 33 20 45 47 45c25 0 44 -12 44 -45c0 -31 -19 -44 -44 -44c-27 0 -47 13 -47 44z" />
    <glyph glyph-name="Imacron" unicode="&#x12a;" horiz-adv-x="292" 
d="M112 0v680h68v-680h-68zM265 793h-239v50h239v-50z" />
    <glyph glyph-name="Idotaccent" unicode="&#x130;" horiz-adv-x="292" 
d="M112 0v680h68v-680h-68zM97 829c0 34 19 46 49 46c28 0 47 -12 47 -46c0 -33 -19 -46 -47 -46c-30 0 -49 13 -49 46z" />
    <glyph glyph-name="Iogonek" unicode="&#x12e;" horiz-adv-x="294" 
d="M181 0h-23c-52 -3 -95 -30 -95 -77c0 -38 25 -58 61 -58c19 0 39 5 57 16l8 -36c-18 -10 -44 -18 -73 -18c-53 0 -92 32 -92 89c0 54 48 86 89 93v671h68v-680z" />
    <glyph glyph-name="Jcircumflex" unicode="&#x134;" horiz-adv-x="656" 
d="M484 680h69v-421c0 -159 -93 -271 -262 -271c-168 0 -249 104 -259 262l67 7c9 -126 66 -205 193 -205s192 83 192 210v418zM600 761l-84 98l-83 -98h-60l109 137h69l109 -137h-60z" />
    <glyph glyph-name="Kcommaaccent" unicode="&#x136;" horiz-adv-x="768" 
d="M112 0v680h68v-311h179l224 311h72v-10l-243 -332c59 -61 121 -287 247 -287c29 0 62 9 88 21l9 -56c-28 -14 -69 -26 -108 -26c-169 0 -232 260 -296 319h-172v-309h-68zM315 -232l24 69c-33 3 -50 21 -50 44c0 33 20 50 49 50c36 0 55 -22 55 -54
c0 -42 -19 -90 -41 -123z" />
    <glyph glyph-name="Lacute" unicode="&#x139;" horiz-adv-x="597" 
d="M571 0h-459v680h68v-619h391v-61zM264 898l-90 -137h-62l82 137h70z" />
    <glyph glyph-name="Lcaron" unicode="&#x13d;" horiz-adv-x="601" 
d="M571 0h-459v680h68v-619h391v-61zM426 526l24 69c-33 3 -50 21 -50 44c0 33 20 50 49 50c36 0 55 -22 55 -54c0 -42 -19 -90 -41 -123z" />
    <glyph glyph-name="Lcommaaccent" unicode="&#x13b;" horiz-adv-x="598" 
d="M571 0h-459v680h68v-619h391v-61zM307 -232l24 69c-33 3 -50 21 -50 44c0 33 20 50 49 50c36 0 55 -22 55 -54c0 -42 -19 -90 -41 -123z" />
    <glyph glyph-name="Lslash" unicode="&#x141;" horiz-adv-x="597" 
d="M571 0h-458v282l-56 -28v58l56 28v340h68v-305l142 73v-59l-142 -72v-256h390v-61z" />
    <glyph glyph-name="Ldot" unicode="&#x13f;" horiz-adv-x="607" 
d="M571 0h-459v680h68v-619h391v-61zM345 367c0 36 19 56 54 56s55 -20 55 -56c0 -37 -20 -56 -55 -56s-54 19 -54 56z" />
    <glyph glyph-name="Nacute" unicode="&#x143;" horiz-adv-x="836" 
d="M663 0l-483 571v-571h-68v680h61l483 -573v573h68v-680h-61zM535 898l-90 -137h-62l82 137h70z" />
    <glyph glyph-name="Ncaron" unicode="&#x147;" horiz-adv-x="836" 
d="M663 0l-483 571v-571h-68v680h61l483 -573v573h68v-680h-61zM345 898l84 -98l83 98h60l-109 -137h-69l-109 137h60z" />
    <glyph glyph-name="Ntilde" unicode="&#xd1;" horiz-adv-x="836" 
d="M663 0l-483 571v-571h-68v680h61l483 -573v573h68v-680h-61zM283 783l-26 30c17 34 52 70 96 70c55 0 103 -68 143 -68c34 0 57 22 70 49l26 -29c-19 -38 -53 -70 -95 -70c-54 0 -104 68 -143 68c-34 0 -56 -23 -71 -50z" />
    <glyph glyph-name="Ncommaaccent" unicode="&#x145;" horiz-adv-x="836" 
d="M663 0l-483 571v-571h-68v680h61l483 -573v573h68v-680h-61zM376 -232l24 69c-33 3 -50 21 -50 44c0 33 20 50 49 50c36 0 55 -22 55 -54c0 -42 -19 -90 -41 -123z" />
    <glyph glyph-name="Ograve" unicode="&#xd2;" horiz-adv-x="832" 
d="M66 339c0 201 150 351 349 351c201 0 351 -150 351 -351c0 -199 -150 -349 -351 -349c-199 0 -349 150 -349 349zM133 339c0 -163 120 -285 282 -285c165 0 284 122 284 285c0 165 -119 286 -284 286c-162 0 -282 -121 -282 -286zM387 761l-90 137h70l82 -137h-62z" />
    <glyph glyph-name="Oacute" unicode="&#xd3;" horiz-adv-x="832" 
d="M66 339c0 201 150 351 349 351c201 0 351 -150 351 -351c0 -199 -150 -349 -351 -349c-199 0 -349 150 -349 349zM133 339c0 -163 120 -285 282 -285c165 0 284 122 284 285c0 165 -119 286 -284 286c-162 0 -282 -121 -282 -286zM533 898l-90 -137h-62l82 137h70z" />
    <glyph glyph-name="Ocircumflex" unicode="&#xd4;" horiz-adv-x="832" 
d="M66 339c0 201 150 351 349 351c201 0 351 -150 351 -351c0 -199 -150 -349 -351 -349c-199 0 -349 150 -349 349zM133 339c0 -163 120 -285 282 -285c165 0 284 122 284 285c0 165 -119 286 -284 286c-162 0 -282 -121 -282 -286zM498 761l-84 98l-83 -98h-60l109 137h69
l109 -137h-60z" />
    <glyph glyph-name="Otilde" unicode="&#xd5;" horiz-adv-x="832" 
d="M66 339c0 201 150 351 349 351c201 0 351 -150 351 -351c0 -199 -150 -349 -351 -349c-199 0 -349 150 -349 349zM133 339c0 -163 120 -285 282 -285c165 0 284 122 284 285c0 165 -119 286 -284 286c-162 0 -282 -121 -282 -286zM273 783l-26 30c17 34 52 70 96 70
c55 0 103 -68 143 -68c34 0 57 22 70 49l26 -29c-19 -38 -53 -70 -95 -70c-54 0 -104 68 -143 68c-34 0 -56 -23 -71 -50z" />
    <glyph glyph-name="Odieresis" unicode="&#xd6;" horiz-adv-x="832" 
d="M66 339c0 201 150 351 349 351c201 0 351 -150 351 -351c0 -199 -150 -349 -351 -349c-199 0 -349 150 -349 349zM133 339c0 -163 120 -285 282 -285c165 0 284 122 284 285c0 165 -119 286 -284 286c-162 0 -282 -121 -282 -286zM245 828c0 33 19 45 46 45
c25 0 45 -12 45 -45c0 -31 -20 -44 -45 -44c-27 0 -46 13 -46 44zM494 828c0 33 20 45 47 45c25 0 44 -12 44 -45c0 -31 -19 -44 -44 -44c-27 0 -47 13 -47 44z" />
    <glyph glyph-name="Omacron" unicode="&#x14c;" horiz-adv-x="832" 
d="M66 339c0 201 150 351 349 351c201 0 351 -150 351 -351c0 -199 -150 -349 -351 -349c-199 0 -349 150 -349 349zM133 339c0 -163 120 -285 282 -285c165 0 284 122 284 285c0 165 -119 286 -284 286c-162 0 -282 -121 -282 -286zM534 793h-239v50h239v-50z" />
    <glyph glyph-name="Obreve" unicode="&#x14e;" horiz-adv-x="832" 
d="M66 339c0 201 150 351 349 351c201 0 351 -150 351 -351c0 -199 -150 -349 -351 -349c-199 0 -349 150 -349 349zM133 339c0 -163 120 -285 282 -285c165 0 284 122 284 285c0 165 -119 286 -284 286c-162 0 -282 -121 -282 -286zM283 845l24 30c18 -25 51 -56 108 -56
c56 0 90 30 107 56l24 -30c-20 -35 -61 -75 -131 -75c-69 0 -112 40 -132 75z" />
    <glyph glyph-name="Ohungarumlaut" unicode="&#x150;" horiz-adv-x="832" 
d="M66 339c0 201 150 351 349 351c201 0 351 -150 351 -351c0 -199 -150 -349 -351 -349c-199 0 -349 150 -349 349zM133 339c0 -163 120 -285 282 -285c165 0 284 122 284 285c0 165 -119 286 -284 286c-162 0 -282 -121 -282 -286zM465 898l-91 -137h-62l82 137h71z
M633 898l-90 -137h-62l82 137h70z" />
    <glyph glyph-name="Oslash" unicode="&#xd8;" horiz-adv-x="832" 
d="M66 339c0 201 150 351 349 351c79 0 150 -23 207 -63l43 53h54v-6l-62 -76c68 -63 109 -154 109 -259c0 -199 -150 -349 -351 -349c-77 0 -146 22 -202 60l-41 -50h-53v6l59 72c-70 63 -112 155 -112 261zM132 339c0 -85 32 -159 87 -210l362 447c-46 31 -103 50 -166 50
c-163 0 -283 -122 -283 -287zM699 339c0 84 -31 156 -83 208l-362 -446c45 -30 100 -47 161 -47c165 0 284 122 284 285z" />
    <glyph glyph-name="Oslashacute" unicode="&#x1fe;" horiz-adv-x="832" 
d="M66 339c0 201 150 351 349 351c79 0 150 -23 207 -63l43 53h54v-6l-62 -76c68 -63 109 -154 109 -259c0 -199 -150 -349 -351 -349c-77 0 -146 22 -202 60l-41 -50h-53v6l59 72c-70 63 -112 155 -112 261zM132 339c0 -85 32 -159 87 -210l362 447c-46 31 -103 50 -166 50
c-163 0 -283 -122 -283 -287zM699 339c0 84 -31 156 -83 208l-362 -446c45 -30 100 -47 161 -47c165 0 284 122 284 285zM533 898l-90 -137h-62l82 137h70z" />
    <glyph glyph-name="OE" unicode="&#x152;" horiz-adv-x="1212" 
d="M624 0v63c-57 -45 -130 -73 -210 -73c-199 0 -348 150 -348 349c0 201 149 351 348 351c82 0 153 -29 210 -74v64h516v-61h-451v-236h378v-57h-378v-265h451v-61h-516zM132 339c0 -163 120 -285 285 -285c83 0 157 32 207 82v406c-50 50 -123 83 -207 83
c-165 0 -285 -122 -285 -286z" />
    <glyph glyph-name="Racute" unicode="&#x154;" horiz-adv-x="764" 
d="M112 0v680h293c122 0 239 -62 239 -214c0 -129 -105 -210 -225 -210h-12c68 -70 157 -206 255 -206c28 0 62 10 88 22l9 -56c-28 -14 -66 -26 -106 -26c-151 0 -260 216 -335 266h-138v-256h-68zM411 619h-231v-307h231c88 0 163 55 163 152c0 106 -75 155 -163 155z
M456 898l-90 -137h-62l82 137h70z" />
    <glyph glyph-name="Rcaron" unicode="&#x158;" horiz-adv-x="764" 
d="M112 0v680h293c122 0 239 -62 239 -214c0 -129 -105 -210 -225 -210h-12c68 -70 157 -206 255 -206c28 0 62 10 88 22l9 -56c-28 -14 -66 -26 -106 -26c-151 0 -260 216 -335 266h-138v-256h-68zM411 619h-231v-307h231c88 0 163 55 163 152c0 106 -75 155 -163 155z
M247 898l84 -98l83 98h60l-109 -137h-69l-109 137h60z" />
    <glyph glyph-name="Rcommaaccent" unicode="&#x156;" horiz-adv-x="764" 
d="M112 0v680h293c122 0 239 -62 239 -214c0 -129 -105 -210 -225 -210h-12c68 -70 157 -206 255 -206c28 0 62 10 88 22l9 -56c-28 -14 -66 -26 -106 -26c-151 0 -260 216 -335 266h-138v-256h-68zM411 619h-231v-307h231c88 0 163 55 163 152c0 106 -75 155 -163 155z
M325 -232l24 69c-33 3 -50 21 -50 44c0 33 20 50 49 50c36 0 55 -22 55 -54c0 -42 -19 -90 -41 -123z" />
    <glyph glyph-name="Sacute" unicode="&#x15a;" horiz-adv-x="639" 
d="M363 301l-145 35c-94 23 -152 77 -152 163c0 99 83 190 263 190c92 0 183 -27 233 -55l-21 -64c-46 29 -137 56 -214 56c-132 0 -191 -59 -191 -123c0 -56 39 -88 109 -105l145 -36c117 -29 184 -76 184 -171c0 -123 -109 -201 -267 -201c-96 0 -187 34 -230 60l17 64
c43 -26 126 -61 214 -61c116 0 196 52 196 133c0 60 -49 93 -141 115zM445 898l-90 -137h-62l82 137h70z" />
    <glyph glyph-name="Scircumflex" unicode="&#x15c;" horiz-adv-x="639" 
d="M363 301l-145 35c-94 23 -152 77 -152 163c0 99 83 190 263 190c92 0 183 -27 233 -55l-21 -64c-46 29 -137 56 -214 56c-132 0 -191 -59 -191 -123c0 -56 39 -88 109 -105l145 -36c117 -29 184 -76 184 -171c0 -123 -109 -201 -267 -201c-96 0 -187 34 -230 60l17 64
c43 -26 126 -61 214 -61c116 0 196 52 196 133c0 60 -49 93 -141 115zM405 761l-84 98l-83 -98h-60l109 137h69l109 -137h-60z" />
    <glyph glyph-name="Scaron" unicode="&#x160;" horiz-adv-x="639" 
d="M363 301l-145 35c-94 23 -152 77 -152 163c0 99 83 190 263 190c92 0 183 -27 233 -55l-21 -64c-46 29 -137 56 -214 56c-132 0 -191 -59 -191 -123c0 -56 39 -88 109 -105l145 -36c117 -29 184 -76 184 -171c0 -123 -109 -201 -267 -201c-96 0 -187 34 -230 60l17 64
c43 -26 126 -61 214 -61c116 0 196 52 196 133c0 60 -49 93 -141 115zM231 898l84 -98l83 98h60l-109 -137h-69l-109 137h60z" />
    <glyph glyph-name="Scedilla" unicode="&#x15e;" horiz-adv-x="639" 
d="M252 -96l23 87c-84 6 -160 36 -198 59l17 64c43 -26 126 -61 214 -61c116 0 196 52 196 133c0 60 -49 93 -141 115l-145 35c-94 23 -152 77 -152 163c0 99 83 190 263 190c92 0 183 -27 233 -55l-21 -64c-46 29 -137 56 -214 56c-132 0 -191 -59 -191 -123
c0 -56 39 -88 109 -105l145 -36c117 -29 184 -76 184 -171c0 -122 -108 -200 -264 -201l-15 -57c9 2 22 4 33 4c52 0 83 -26 83 -63c0 -47 -45 -72 -101 -72c-24 0 -49 4 -73 12l8 30c20 -7 41 -12 64 -12c37 0 64 13 64 41c0 22 -19 35 -58 35c-20 0 -45 -3 -60 -8z" />
    <glyph glyph-name="Scommaaccent" unicode="&#x218;" horiz-adv-x="640" 
d="M363 301l-145 35c-94 23 -152 77 -152 163c0 99 83 190 263 190c92 0 183 -27 233 -55l-21 -64c-46 29 -137 56 -214 56c-132 0 -191 -59 -191 -123c0 -56 39 -88 109 -105l145 -36c117 -29 184 -76 184 -171c0 -123 -109 -201 -267 -201c-96 0 -187 34 -230 60l17 64
c43 -26 126 -61 214 -61c116 0 196 52 196 133c0 60 -49 93 -141 115zM281 -232l24 69c-33 3 -50 21 -50 44c0 33 20 50 49 50c36 0 55 -22 55 -54c0 -42 -19 -90 -41 -123z" />
    <glyph glyph-name="Tcaron" unicode="&#x164;" horiz-adv-x="627" 
d="M604 619h-249v-619h-68v619h-263v61h580v-61zM237 898l84 -98l83 98h60l-109 -137h-69l-109 137h60z" />
    <glyph glyph-name="Tcommaaccent" unicode="&#x162;" horiz-adv-x="627" 
d="M604 619h-249v-619h-20l-17 -67c8 2 22 4 32 4c53 0 84 -26 84 -63c0 -47 -46 -72 -101 -72c-24 0 -49 4 -73 12l8 30c19 -7 41 -12 63 -12c38 0 65 13 65 41c0 22 -20 35 -58 35c-20 0 -45 -3 -61 -8l-3 4l27 96h-14v619h-263v61h580v-61z" />
    <glyph glyph-name="uni021A" unicode="&#x21a;" horiz-adv-x="629" 
d="M604 619h-249v-619h-68v619h-263v61h580v-61zM288 -232l24 69c-33 3 -50 21 -50 44c0 33 20 50 49 50c36 0 55 -22 55 -54c0 -42 -19 -90 -41 -123z" />
    <glyph glyph-name="Tbar" unicode="&#x166;" horiz-adv-x="627" 
d="M604 619h-249v-260h122v-56h-122v-303h-68v303h-119v56h119v260h-263v61h580v-61z" />
    <glyph glyph-name="Thorn" unicode="&#xde;" horiz-adv-x="690" 
d="M112 0v680h68v-110h224c128 0 237 -60 237 -223c0 -147 -109 -219 -237 -219h-224v-128h-68zM396 510h-216v-322h216c96 0 176 50 176 160c0 119 -80 162 -176 162z" />
    <glyph glyph-name="Ugrave" unicode="&#xd9;" horiz-adv-x="788" 
d="M171 680v-401c0 -134 69 -227 222 -227c155 0 224 101 224 228v400h68v-404c0 -154 -97 -288 -292 -288c-194 0 -290 121 -290 288v404h68zM365 761l-90 137h70l82 -137h-62z" />
    <glyph glyph-name="Uacute" unicode="&#xda;" horiz-adv-x="788" 
d="M171 680v-401c0 -134 69 -227 222 -227c155 0 224 101 224 228v400h68v-404c0 -154 -97 -288 -292 -288c-194 0 -290 121 -290 288v404h68zM512 898l-90 -137h-62l82 137h70z" />
    <glyph glyph-name="Ucircumflex" unicode="&#xdb;" horiz-adv-x="788" 
d="M171 680v-401c0 -134 69 -227 222 -227c155 0 224 101 224 228v400h68v-404c0 -154 -97 -288 -292 -288c-194 0 -290 121 -290 288v404h68zM476 761l-84 98l-83 -98h-60l109 137h69l109 -137h-60z" />
    <glyph glyph-name="Utilde" unicode="&#x168;" horiz-adv-x="788" 
d="M171 680v-401c0 -134 69 -227 222 -227c155 0 224 101 224 228v400h68v-404c0 -154 -97 -288 -292 -288c-194 0 -290 121 -290 288v404h68zM251 783l-26 30c17 34 52 70 96 70c55 0 103 -68 143 -68c34 0 57 22 70 49l26 -29c-19 -38 -53 -70 -95 -70
c-54 0 -104 68 -143 68c-34 0 -56 -23 -71 -50z" />
    <glyph glyph-name="Udieresis" unicode="&#xdc;" horiz-adv-x="788" 
d="M171 680v-401c0 -134 69 -227 222 -227c155 0 224 101 224 228v400h68v-404c0 -154 -97 -288 -292 -288c-194 0 -290 121 -290 288v404h68zM223 828c0 33 19 45 46 45c25 0 45 -12 45 -45c0 -31 -20 -44 -45 -44c-27 0 -46 13 -46 44zM472 828c0 33 20 45 47 45
c25 0 44 -12 44 -45c0 -31 -19 -44 -44 -44c-27 0 -47 13 -47 44z" />
    <glyph glyph-name="Umacron" unicode="&#x16a;" horiz-adv-x="788" 
d="M171 680v-401c0 -134 69 -227 222 -227c155 0 224 101 224 228v400h68v-404c0 -154 -97 -288 -292 -288c-194 0 -290 121 -290 288v404h68zM512 793h-239v50h239v-50z" />
    <glyph glyph-name="Ubreve" unicode="&#x16c;" horiz-adv-x="788" 
d="M171 680v-401c0 -134 69 -227 222 -227c155 0 224 101 224 228v400h68v-404c0 -154 -97 -288 -292 -288c-194 0 -290 121 -290 288v404h68zM261 845l24 30c18 -25 51 -56 108 -56c56 0 90 30 107 56l24 -30c-20 -35 -61 -75 -131 -75c-69 0 -112 40 -132 75z" />
    <glyph glyph-name="Uring" unicode="&#x16e;" horiz-adv-x="788" 
d="M171 680v-401c0 -134 69 -227 222 -227c155 0 224 101 224 228v400h68v-404c0 -154 -97 -288 -292 -288c-194 0 -290 121 -290 288v404h68zM295 787c0 54 44 98 98 98s98 -44 98 -98s-44 -98 -98 -98s-98 44 -98 98zM330 787c0 -35 28 -63 63 -63s63 28 63 63
s-28 63 -63 63s-63 -28 -63 -63z" />
    <glyph glyph-name="Uhungarumlaut" unicode="&#x170;" horiz-adv-x="788" 
d="M171 680v-401c0 -134 69 -227 222 -227c155 0 224 101 224 228v400h68v-404c0 -154 -97 -288 -292 -288c-194 0 -290 121 -290 288v404h68zM428 898l-91 -137h-62l82 137h71zM596 898l-90 -137h-62l82 137h70z" />
    <glyph glyph-name="Uogonek" unicode="&#x172;" horiz-adv-x="789" 
d="M171 680v-401c0 -134 69 -227 222 -227c155 0 225 101 225 228v400h68v-404c0 -139 -79 -261 -237 -284c-34 -12 -60 -33 -60 -69c0 -38 25 -58 61 -58c19 0 39 5 58 16l7 -36c-18 -10 -43 -18 -73 -18c-53 0 -92 32 -92 89c0 33 18 57 41 72c-192 1 -288 121 -288 288
v404h68z" />
    <glyph glyph-name="Wacute" unicode="&#x1e82;" horiz-adv-x="1075" 
d="M690 0l-152 367l-161 -367h-73l-277 680h73l245 -603l164 370l-95 233h73l239 -594l256 594h73l-292 -680h-73zM649 898l-90 -137h-62l82 137h70z" />
    <glyph glyph-name="Wcircumflex" unicode="&#x174;" horiz-adv-x="1075" 
d="M690 0l-152 367l-161 -367h-73l-277 680h73l245 -603l164 370l-95 233h73l239 -594l256 594h73l-292 -680h-73zM621 761l-84 98l-83 -98h-60l109 137h69l109 -137h-60z" />
    <glyph glyph-name="Wdieresis" unicode="&#x1e84;" horiz-adv-x="1075" 
d="M690 0l-152 367l-161 -367h-73l-277 680h73l245 -603l164 370l-95 233h73l239 -594l256 594h73l-292 -680h-73zM368 828c0 33 19 45 46 45c25 0 45 -12 45 -45c0 -31 -20 -44 -45 -44c-27 0 -46 13 -46 44zM617 828c0 33 20 45 47 45c25 0 44 -12 44 -45
c0 -31 -19 -44 -44 -44c-27 0 -47 13 -47 44z" />
    <glyph glyph-name="Wgrave" unicode="&#x1e80;" horiz-adv-x="1075" 
d="M690 0l-152 367l-161 -367h-73l-277 680h73l245 -603l164 370l-95 233h73l239 -594l256 594h73l-292 -680h-73zM512 761l-90 137h70l82 -137h-62z" />
    <glyph glyph-name="Yacute" unicode="&#xdd;" horiz-adv-x="667" 
d="M299 0v287l-284 387v6h76l242 -330l243 330h75v-6l-284 -386v-288h-68zM451 898l-90 -137h-62l82 137h70z" />
    <glyph glyph-name="Ycircumflex" unicode="&#x176;" horiz-adv-x="667" 
d="M299 0v287l-284 387v6h76l242 -330l243 330h75v-6l-284 -386v-288h-68zM416 761l-84 98l-83 -98h-60l109 137h69l109 -137h-60z" />
    <glyph glyph-name="Ydieresis" unicode="&#x178;" horiz-adv-x="667" 
d="M299 0v287l-284 387v6h76l242 -330l243 330h75v-6l-284 -386v-288h-68zM162 828c0 33 19 45 46 45c25 0 45 -12 45 -45c0 -31 -20 -44 -45 -44c-27 0 -46 13 -46 44zM411 828c0 33 20 45 47 45c25 0 44 -12 44 -45c0 -31 -19 -44 -44 -44c-27 0 -47 13 -47 44z" />
    <glyph glyph-name="Ygrave" unicode="&#x1ef2;" horiz-adv-x="667" 
d="M299 0v287l-284 387v6h76l242 -330l243 330h75v-6l-284 -386v-288h-68zM304 761l-90 137h70l82 -137h-62z" />
    <glyph glyph-name="Zacute" unicode="&#x179;" horiz-adv-x="616" 
d="M57 51l414 568h-414v61h501v-51l-413 -568h413v-61h-501v51zM425 898l-90 -137h-62l82 137h70z" />
    <glyph glyph-name="Zcaron" unicode="&#x17d;" horiz-adv-x="616" 
d="M57 51l414 568h-414v61h501v-51l-413 -568h413v-61h-501v51zM229 898l84 -98l83 98h60l-109 -137h-69l-109 137h60z" />
    <glyph glyph-name="Zdotaccent" unicode="&#x17b;" horiz-adv-x="616" 
d="M57 51l414 568h-414v61h501v-51l-413 -568h413v-61h-501v51zM265 829c0 34 19 46 49 46c28 0 47 -12 47 -46c0 -33 -19 -46 -47 -46c-30 0 -49 13 -49 46z" />
    <glyph glyph-name="agrave" unicode="&#xe0;" horiz-adv-x="689" 
d="M557 523v-408c0 -40 12 -66 48 -66c20 0 38 9 58 22l8 -55c-22 -14 -56 -26 -88 -26c-54 0 -82 28 -90 78c-39 -42 -104 -78 -181 -78c-154 0 -255 112 -255 269c0 159 101 273 255 273c75 0 138 -32 177 -71v62h68zM489 121v279c-32 36 -92 71 -161 71
c-123 0 -202 -87 -202 -212c0 -122 79 -208 202 -208c68 0 128 35 161 70zM324 604l-90 137h70l82 -137h-62z" />
    <glyph glyph-name="aacute" unicode="&#xe1;" horiz-adv-x="689" 
d="M557 523v-408c0 -40 12 -66 48 -66c20 0 38 9 58 22l8 -55c-22 -14 -56 -26 -88 -26c-54 0 -82 28 -90 78c-39 -42 -104 -78 -181 -78c-154 0 -255 112 -255 269c0 159 101 273 255 273c75 0 138 -32 177 -71v62h68zM489 121v279c-32 36 -92 71 -161 71
c-123 0 -202 -87 -202 -212c0 -122 79 -208 202 -208c68 0 128 35 161 70zM460 741l-90 -137h-62l82 137h70z" />
    <glyph glyph-name="acircumflex" unicode="&#xe2;" horiz-adv-x="689" 
d="M557 523v-408c0 -40 12 -66 48 -66c20 0 38 9 58 22l8 -55c-22 -14 -56 -26 -88 -26c-54 0 -82 28 -90 78c-39 -42 -104 -78 -181 -78c-154 0 -255 112 -255 269c0 159 101 273 255 273c75 0 138 -32 177 -71v62h68zM489 121v279c-32 36 -92 71 -161 71
c-123 0 -202 -87 -202 -212c0 -122 79 -208 202 -208c68 0 128 35 161 70zM418 604l-84 98l-83 -98h-60l109 137h69l109 -137h-60z" />
    <glyph glyph-name="atilde" unicode="&#xe3;" horiz-adv-x="689" 
d="M557 523v-408c0 -40 12 -66 48 -66c20 0 38 9 58 22l8 -55c-22 -14 -56 -26 -88 -26c-54 0 -82 28 -90 78c-39 -42 -104 -78 -181 -78c-154 0 -255 112 -255 269c0 159 101 273 255 273c75 0 138 -32 177 -71v62h68zM489 121v279c-32 36 -92 71 -161 71
c-123 0 -202 -87 -202 -212c0 -122 79 -208 202 -208c68 0 128 35 161 70zM195 626l-26 30c17 34 52 70 96 70c55 0 103 -68 143 -68c34 0 57 22 70 49l26 -29c-19 -38 -53 -70 -95 -70c-54 0 -104 68 -143 68c-34 0 -56 -23 -71 -50z" />
    <glyph glyph-name="adieresis" unicode="&#xe4;" horiz-adv-x="689" 
d="M557 523v-408c0 -40 12 -66 48 -66c20 0 38 9 58 22l8 -55c-22 -14 -56 -26 -88 -26c-54 0 -82 28 -90 78c-39 -42 -104 -78 -181 -78c-154 0 -255 112 -255 269c0 159 101 273 255 273c75 0 138 -32 177 -71v62h68zM489 121v279c-32 36 -92 71 -161 71
c-123 0 -202 -87 -202 -212c0 -122 79 -208 202 -208c68 0 128 35 161 70zM182 671c0 33 19 45 46 45c25 0 45 -12 45 -45c0 -31 -20 -44 -45 -44c-27 0 -46 13 -46 44zM431 671c0 33 20 45 47 45c25 0 44 -12 44 -45c0 -31 -19 -44 -44 -44c-27 0 -47 13 -47 44z" />
    <glyph glyph-name="amacron" unicode="&#x101;" horiz-adv-x="689" 
d="M557 523v-408c0 -40 12 -66 48 -66c20 0 38 9 58 22l8 -55c-22 -14 -56 -26 -88 -26c-54 0 -82 28 -90 78c-39 -42 -104 -78 -181 -78c-154 0 -255 112 -255 269c0 159 101 273 255 273c75 0 138 -32 177 -71v62h68zM489 121v279c-32 36 -92 71 -161 71
c-123 0 -202 -87 -202 -212c0 -122 79 -208 202 -208c68 0 128 35 161 70zM461 636h-239v50h239v-50z" />
    <glyph glyph-name="abreve" unicode="&#x103;" horiz-adv-x="689" 
d="M557 523v-408c0 -40 12 -66 48 -66c20 0 38 9 58 22l8 -55c-22 -14 -56 -26 -88 -26c-54 0 -82 28 -90 78c-39 -42 -104 -78 -181 -78c-154 0 -255 112 -255 269c0 159 101 273 255 273c75 0 138 -32 177 -71v62h68zM489 121v279c-32 36 -92 71 -161 71
c-123 0 -202 -87 -202 -212c0 -122 79 -208 202 -208c68 0 128 35 161 70zM210 688l24 30c18 -25 51 -56 108 -56c56 0 90 30 107 56l24 -30c-20 -35 -61 -75 -131 -75c-69 0 -112 40 -132 75z" />
    <glyph glyph-name="aring" unicode="&#xe5;" horiz-adv-x="689" 
d="M557 523v-408c0 -40 12 -66 48 -66c20 0 38 9 58 22l8 -55c-22 -14 -56 -26 -88 -26c-54 0 -82 28 -90 78c-39 -42 -104 -78 -181 -78c-154 0 -255 112 -255 269c0 159 101 273 255 273c75 0 138 -32 177 -71v62h68zM489 121v279c-32 36 -92 71 -161 71
c-123 0 -202 -87 -202 -212c0 -122 79 -208 202 -208c68 0 128 35 161 70zM244 670c0 54 44 98 98 98s98 -44 98 -98s-44 -98 -98 -98s-98 44 -98 98zM279 670c0 -35 28 -63 63 -63s63 28 63 63s-28 63 -63 63s-63 -28 -63 -63z" />
    <glyph glyph-name="aringacute" unicode="&#x1fb;" horiz-adv-x="689" 
d="M417 832l-52 -74h-49l46 74h55zM246 657c0 54 44 80 98 80s98 -26 98 -80s-44 -80 -98 -80s-98 26 -98 80zM280 657c0 -35 29 -47 64 -47c34 0 62 12 62 47s-28 47 -62 47c-35 0 -64 -12 -64 -47zM557 523v-408c0 -40 12 -66 48 -66c20 0 38 9 58 22l8 -55
c-22 -14 -56 -26 -88 -26c-54 0 -82 28 -90 78c-39 -42 -104 -78 -181 -78c-154 0 -255 112 -255 269c0 159 101 273 255 273c75 0 138 -32 177 -71v62h68zM489 121v279c-32 36 -92 71 -161 71c-123 0 -202 -87 -202 -212c0 -122 79 -208 202 -208c68 0 128 35 161 70z" />
    <glyph glyph-name="aogonek" unicode="&#x105;" horiz-adv-x="688" 
d="M557 523v-408c0 -40 12 -66 48 -66c20 0 38 9 58 22l8 -55c-19 -12 -45 -22 -72 -25c-33 -13 -59 -32 -59 -68c0 -38 25 -58 61 -58c19 0 40 5 58 16l7 -36c-18 -10 -43 -18 -73 -18c-53 0 -92 32 -92 89c0 37 24 62 52 78c-35 8 -54 34 -60 74
c-39 -42 -104 -78 -181 -78c-154 0 -255 112 -255 269c0 159 101 273 255 273c75 0 138 -32 177 -71v62h68zM489 121v279c-32 36 -92 71 -161 71c-123 0 -202 -87 -202 -212c0 -122 79 -208 202 -208c68 0 128 35 161 70z" />
    <glyph glyph-name="ae" unicode="&#xe6;" horiz-adv-x="930" 
d="M864 237h-384c3 -111 44 -193 183 -193c74 0 128 29 172 63l29 -50c-54 -43 -118 -71 -206 -71c-106 0 -171 41 -202 104c-40 -39 -111 -105 -220 -105c-117 0 -190 67 -190 164c0 124 105 185 261 185c34 0 78 -3 104 -9c0 106 -23 153 -128 153
c-63 0 -128 -15 -173 -37l-14 60c58 26 135 36 194 36c129 0 157 -61 170 -131c24 58 86 131 193 131c152 0 219 -101 219 -218c0 -29 -3 -62 -8 -82zM654 479c-115 0 -167 -98 -169 -187h323c1 11 2 22 2 33c0 84 -51 154 -156 154zM114 154c0 -67 52 -110 135 -110
c77 0 129 48 161 78v147c-21 5 -61 11 -104 10c-108 -1 -192 -34 -192 -125z" />
    <glyph glyph-name="aeacute" unicode="&#x1fd;" horiz-adv-x="930" 
d="M864 237h-384c3 -111 44 -193 183 -193c74 0 128 29 172 63l29 -50c-54 -43 -118 -71 -206 -71c-106 0 -171 41 -202 104c-40 -39 -111 -105 -220 -105c-117 0 -190 67 -190 164c0 124 105 185 261 185c34 0 78 -3 104 -9c0 106 -23 153 -128 153
c-63 0 -128 -15 -173 -37l-14 60c58 26 135 36 194 36c129 0 157 -61 170 -131c24 58 86 131 193 131c152 0 219 -101 219 -218c0 -29 -3 -62 -8 -82zM654 479c-115 0 -167 -98 -169 -187h323c1 11 2 22 2 33c0 84 -51 154 -156 154zM114 154c0 -67 52 -110 135 -110
c77 0 129 48 161 78v147c-21 5 -61 11 -104 10c-108 -1 -192 -34 -192 -125zM585 741l-90 -137h-62l82 137h70z" />
    <glyph glyph-name="cacute" unicode="&#x107;" horiz-adv-x="608" 
d="M523 114l28 -55c-55 -44 -131 -73 -215 -73c-197 0 -280 117 -280 274c0 160 107 277 274 277c143 0 221 -80 226 -198l-62 -14c-5 91 -57 151 -164 151c-127 0 -204 -91 -204 -214c0 -121 62 -215 217 -215c64 0 131 30 180 67zM443 741l-90 -137h-62l82 137h70z" />
    <glyph glyph-name="ccircumflex" unicode="&#x109;" horiz-adv-x="608" 
d="M523 114l28 -55c-55 -44 -131 -73 -215 -73c-197 0 -280 117 -280 274c0 160 107 277 274 277c143 0 221 -80 226 -198l-62 -14c-5 91 -57 151 -164 151c-127 0 -204 -91 -204 -214c0 -121 62 -215 217 -215c64 0 131 30 180 67zM414 604l-84 98l-83 -98h-60l109 137h69
l109 -137h-60z" />
    <glyph glyph-name="ccaron" unicode="&#x10d;" horiz-adv-x="608" 
d="M523 114l28 -55c-55 -44 -131 -73 -215 -73c-197 0 -280 117 -280 274c0 160 107 277 274 277c143 0 221 -80 226 -198l-62 -14c-5 91 -57 151 -164 151c-127 0 -204 -91 -204 -214c0 -121 62 -215 217 -215c64 0 131 30 180 67zM252 741l84 -98l83 98h60l-109 -137h-69
l-109 137h60z" />
    <glyph glyph-name="cdotaccent" unicode="&#x10b;" horiz-adv-x="608" 
d="M523 114l28 -55c-55 -44 -131 -73 -215 -73c-197 0 -280 117 -280 274c0 160 107 277 274 277c143 0 221 -80 226 -198l-62 -14c-5 91 -57 151 -164 151c-127 0 -204 -91 -204 -214c0 -121 62 -215 217 -215c64 0 131 30 180 67zM286 672c0 34 19 46 49 46
c28 0 47 -12 47 -46c0 -33 -19 -46 -47 -46c-30 0 -49 13 -49 46z" />
    <glyph glyph-name="ccedilla" unicode="&#xe7;" horiz-adv-x="609" 
d="M260 -96l23 86c-158 19 -226 128 -226 270c0 160 107 277 274 277c143 0 221 -80 226 -198l-62 -14c-5 91 -57 151 -164 151c-127 0 -204 -91 -204 -214c0 -121 62 -215 217 -215c64 0 131 30 180 67l28 -55c-55 -44 -131 -73 -215 -73c-7 0 -13 0 -20 1l-14 -54
c9 2 22 4 33 4c52 0 83 -26 83 -63c0 -47 -45 -72 -101 -72c-24 0 -49 4 -73 12l8 30c20 -7 41 -12 64 -12c37 0 64 13 64 41c0 22 -19 35 -58 35c-20 0 -45 -3 -60 -8z" />
    <glyph glyph-name="dcaron" unicode="&#x10f;" horiz-adv-x="699" 
d="M490 710h68v-596c0 -41 11 -65 48 -65c18 0 37 9 57 22l9 -55c-22 -14 -58 -26 -89 -26c-53 0 -82 24 -91 75c-39 -41 -100 -75 -180 -75c-153 0 -256 114 -256 272s103 270 256 270c76 0 138 -32 178 -71v249zM125 262c0 -124 80 -211 203 -211c70 0 131 36 162 71v276
c-33 37 -93 73 -162 73c-122 0 -203 -86 -203 -209zM650 526l24 69c-33 3 -50 21 -50 44c0 33 20 50 49 50c36 0 55 -22 55 -54c0 -42 -19 -90 -41 -123z" />
    <glyph glyph-name="dcroat" unicode="&#x111;" horiz-adv-x="690" 
d="M490 710h68v-71h104v-52h-104v-473c0 -41 11 -65 48 -65c18 0 37 9 57 22l9 -55c-22 -14 -58 -26 -89 -26c-53 0 -82 24 -91 75c-39 -41 -100 -75 -180 -75c-153 0 -256 114 -256 272s103 270 256 270c76 0 138 -32 178 -71v126h-136v52h136v71zM125 262
c0 -124 80 -211 203 -211c70 0 131 36 162 71v276c-33 37 -93 73 -162 73c-122 0 -203 -86 -203 -209z" />
    <glyph glyph-name="eth" unicode="&#xf0;" horiz-adv-x="626" 
d="M485 705l-62 -64c77 -67 133 -171 133 -300c0 -211 -98 -351 -270 -351c-132 0 -230 97 -230 239c0 138 84 225 217 225c113 0 183 -78 215 -126v13c0 110 -47 196 -108 255l-67 -69l-23 21l66 69c-33 26 -69 46 -104 58l27 45c41 -11 82 -31 120 -59l62 65zM288 53
c109 0 176 85 195 212c-26 43 -92 131 -197 131c-94 0 -162 -59 -162 -168c0 -99 68 -175 164 -175z" />
    <glyph glyph-name="egrave" unicode="&#xe8;" horiz-adv-x="616" 
d="M521 108l29 -51c-54 -43 -126 -71 -214 -71c-197 0 -281 124 -281 274c0 152 105 277 273 277c159 0 230 -99 230 -218c0 -29 -4 -63 -9 -82h-425c7 -109 72 -193 214 -193c77 0 139 30 183 64zM490 292c1 11 3 24 3 37c0 79 -50 150 -166 150c-123 0 -195 -86 -201 -187
h364zM315 604l-90 137h70l82 -137h-62z" />
    <glyph glyph-name="eacute" unicode="&#xe9;" horiz-adv-x="616" 
d="M521 108l29 -51c-54 -43 -126 -71 -214 -71c-197 0 -281 124 -281 274c0 152 105 277 273 277c159 0 230 -99 230 -218c0 -29 -4 -63 -9 -82h-425c7 -109 72 -193 214 -193c77 0 139 30 183 64zM490 292c1 11 3 24 3 37c0 79 -50 150 -166 150c-123 0 -195 -86 -201 -187
h364zM442 741l-90 -137h-62l82 137h70z" />
    <glyph glyph-name="ecircumflex" unicode="&#xea;" horiz-adv-x="616" 
d="M521 108l29 -51c-54 -43 -126 -71 -214 -71c-197 0 -281 124 -281 274c0 152 105 277 273 277c159 0 230 -99 230 -218c0 -29 -4 -63 -9 -82h-425c7 -109 72 -193 214 -193c77 0 139 30 183 64zM490 292c1 11 3 24 3 37c0 79 -50 150 -166 150c-123 0 -195 -86 -201 -187
h364zM416 604l-84 98l-83 -98h-60l109 137h69l109 -137h-60z" />
    <glyph glyph-name="ecaron" unicode="&#x11b;" horiz-adv-x="616" 
d="M521 108l29 -51c-54 -43 -126 -71 -214 -71c-197 0 -281 124 -281 274c0 152 105 277 273 277c159 0 230 -99 230 -218c0 -29 -4 -63 -9 -82h-425c7 -109 72 -193 214 -193c77 0 139 30 183 64zM490 292c1 11 3 24 3 37c0 79 -50 150 -166 150c-123 0 -195 -86 -201 -187
h364zM245 741l84 -98l83 98h60l-109 -137h-69l-109 137h60z" />
    <glyph glyph-name="edieresis" unicode="&#xeb;" horiz-adv-x="616" 
d="M521 108l29 -51c-54 -43 -126 -71 -214 -71c-197 0 -281 124 -281 274c0 152 105 277 273 277c159 0 230 -99 230 -218c0 -29 -4 -63 -9 -82h-425c7 -109 72 -193 214 -193c77 0 139 30 183 64zM490 292c1 11 3 24 3 37c0 79 -50 150 -166 150c-123 0 -195 -86 -201 -187
h364zM162 671c0 33 19 45 46 45c25 0 45 -12 45 -45c0 -31 -20 -44 -45 -44c-27 0 -46 13 -46 44zM411 671c0 33 20 45 47 45c25 0 44 -12 44 -45c0 -31 -19 -44 -44 -44c-27 0 -47 13 -47 44z" />
    <glyph glyph-name="emacron" unicode="&#x113;" horiz-adv-x="616" 
d="M521 108l29 -51c-54 -43 -126 -71 -214 -71c-197 0 -281 124 -281 274c0 152 105 277 273 277c159 0 230 -99 230 -218c0 -29 -4 -63 -9 -82h-425c7 -109 72 -193 214 -193c77 0 139 30 183 64zM490 292c1 11 3 24 3 37c0 79 -50 150 -166 150c-123 0 -195 -86 -201 -187
h364zM447 636h-239v50h239v-50z" />
    <glyph glyph-name="ebreve" unicode="&#x115;" horiz-adv-x="616" 
d="M521 108l29 -51c-54 -43 -126 -71 -214 -71c-197 0 -281 124 -281 274c0 152 105 277 273 277c159 0 230 -99 230 -218c0 -29 -4 -63 -9 -82h-425c7 -109 72 -193 214 -193c77 0 139 30 183 64zM490 292c1 11 3 24 3 37c0 79 -50 150 -166 150c-123 0 -195 -86 -201 -187
h364zM199 688l24 30c18 -25 51 -56 108 -56c56 0 90 30 107 56l24 -30c-20 -35 -61 -75 -131 -75c-69 0 -112 40 -132 75z" />
    <glyph glyph-name="edotaccent" unicode="&#x117;" horiz-adv-x="616" 
d="M521 108l29 -51c-54 -43 -126 -71 -214 -71c-197 0 -281 124 -281 274c0 152 105 277 273 277c159 0 230 -99 230 -218c0 -29 -4 -63 -9 -82h-425c7 -109 72 -193 214 -193c77 0 139 30 183 64zM490 292c1 11 3 24 3 37c0 79 -50 150 -166 150c-123 0 -195 -86 -201 -187
h364zM283 672c0 34 19 46 49 46c28 0 47 -12 47 -46c0 -33 -19 -46 -47 -46c-30 0 -49 13 -49 46z" />
    <glyph glyph-name="eogonek" unicode="&#x119;" horiz-adv-x="616" 
d="M521 108l29 -51c-40 -32 -90 -56 -150 -66c-34 -12 -61 -32 -61 -68c0 -38 26 -58 62 -58c19 0 39 5 57 16l8 -36c-18 -10 -44 -18 -73 -18c-53 0 -92 32 -92 89c0 32 16 54 38 70h-3c-197 0 -281 124 -281 274c0 152 105 277 273 277c159 0 230 -99 230 -218
c0 -29 -4 -63 -9 -82h-425c7 -109 72 -193 214 -193c77 0 139 30 183 64zM490 292c1 11 3 24 3 37c0 79 -50 150 -166 150c-123 0 -195 -86 -201 -187h364z" />
    <glyph glyph-name="gcircumflex" unicode="&#x11d;" horiz-adv-x="653" 
d="M414 604l-84 98l-83 -98h-60l109 137h69l109 -137h-60zM57 280c0 139 102 252 256 252c77 0 138 -32 177 -71v62h68v-477c0 -158 -105 -244 -238 -244c-102 0 -161 39 -193 56l17 62c32 -21 91 -57 176 -57c90 0 170 55 170 171v66c-40 -39 -102 -70 -177 -70
c-154 0 -256 113 -256 250zM127 280c0 -106 79 -189 201 -189c70 0 129 34 162 70v237c-31 36 -92 73 -162 73c-123 0 -201 -84 -201 -191z" />
    <glyph glyph-name="gbreve" unicode="&#x11f;" horiz-adv-x="653" 
d="M203 688l24 30c18 -25 51 -56 108 -56c56 0 90 30 107 56l24 -30c-20 -35 -61 -75 -131 -75c-69 0 -112 40 -132 75zM57 280c0 139 102 252 256 252c77 0 138 -32 177 -71v62h68v-477c0 -158 -105 -244 -238 -244c-102 0 -161 39 -193 56l17 62c32 -21 91 -57 176 -57
c90 0 170 55 170 171v66c-40 -39 -102 -70 -177 -70c-154 0 -256 113 -256 250zM127 280c0 -106 79 -189 201 -189c70 0 129 34 162 70v237c-31 36 -92 73 -162 73c-123 0 -201 -84 -201 -191z" />
    <glyph glyph-name="gdotaccent" unicode="&#x121;" horiz-adv-x="653" 
d="M292 672c0 34 19 46 49 46c28 0 47 -12 47 -46c0 -33 -19 -46 -47 -46c-30 0 -49 13 -49 46zM57 280c0 139 102 252 256 252c77 0 138 -32 177 -71v62h68v-477c0 -158 -105 -244 -238 -244c-102 0 -161 39 -193 56l17 62c32 -21 91 -57 176 -57c90 0 170 55 170 171v66
c-40 -39 -102 -70 -177 -70c-154 0 -256 113 -256 250zM127 280c0 -106 79 -189 201 -189c70 0 129 34 162 70v237c-31 36 -92 73 -162 73c-123 0 -201 -84 -201 -191z" />
    <glyph glyph-name="gcommaaccent" unicode="&#x123;" horiz-adv-x="653" 
d="M57 280c0 139 102 252 256 252c77 0 138 -32 177 -71v62h68v-477c0 -158 -105 -244 -238 -244c-102 0 -161 39 -193 56l17 62c32 -21 91 -57 176 -57c90 0 170 55 170 171v66c-40 -39 -102 -70 -177 -70c-154 0 -256 113 -256 250zM127 280c0 -106 79 -189 201 -189
c70 0 129 34 162 70v237c-31 36 -92 73 -162 73c-123 0 -201 -84 -201 -191zM360 766l-23 -70c33 -2 50 -21 50 -44c0 -32 -20 -49 -50 -49c-35 0 -55 21 -55 53c0 42 19 92 41 124z" />
    <glyph glyph-name="hcircumflex" unicode="&#x125;" horiz-adv-x="678" 
d="M95 710h68v-283c36 66 103 105 191 105c135 0 199 -100 199 -231v-186c0 -40 13 -66 48 -66c19 0 38 9 59 22l8 -55c-22 -14 -56 -26 -89 -26c-64 0 -94 38 -94 112v190c0 101 -49 176 -152 176c-89 0 -151 -60 -170 -132v-336h-68v710zM414 753l-84 98l-83 -98h-60
l109 137h69l109 -137h-60z" />
    <glyph glyph-name="hbar" unicode="&#x127;" horiz-adv-x="678" 
d="M95 710h68v-71h158v-52h-158v-160c36 66 103 105 191 105c135 0 199 -100 199 -231v-186c0 -40 13 -66 48 -66c19 0 38 9 59 22l8 -55c-22 -14 -56 -26 -89 -26c-64 0 -94 38 -94 112v190c0 101 -49 176 -152 176c-89 0 -151 -60 -170 -132v-336h-68v587h-82v52h82v71z
" />
    <glyph glyph-name="dotlessi" unicode="&#x131;" horiz-adv-x="299" 
d="M95 523h68v-408c0 -39 12 -66 48 -66c20 0 42 11 57 22l9 -55c-15 -12 -53 -26 -89 -26c-63 0 -93 38 -93 112v421z" />
    <glyph glyph-name="igrave" unicode="&#xec;" horiz-adv-x="299" 
d="M95 523h68v-408c0 -39 12 -66 48 -66c20 0 42 11 57 22l9 -55c-15 -12 -53 -26 -89 -26c-63 0 -93 38 -93 112v421zM114 604l-90 137h70l82 -137h-62z" />
    <glyph glyph-name="iacute" unicode="&#xed;" horiz-adv-x="299" 
d="M95 523h68v-408c0 -39 12 -66 48 -66c20 0 42 11 57 22l9 -55c-15 -12 -53 -26 -89 -26c-63 0 -93 38 -93 112v421zM248 741l-90 -137h-62l82 137h70z" />
    <glyph glyph-name="ibreve" unicode="&#x12d;" horiz-adv-x="299" 
d="M95 523h68v-408c0 -39 12 -66 48 -66c20 0 42 11 57 22l9 -55c-15 -12 -53 -26 -89 -26c-63 0 -93 38 -93 112v421zM-2 688l24 30c18 -25 51 -56 108 -56c56 0 90 30 107 56l24 -30c-20 -35 -61 -75 -131 -75c-69 0 -112 40 -132 75z" />
    <glyph glyph-name="icircumflex" unicode="&#xee;" horiz-adv-x="299" 
d="M95 523h68v-408c0 -39 12 -66 48 -66c20 0 42 11 57 22l9 -55c-15 -12 -53 -26 -89 -26c-63 0 -93 38 -93 112v421zM212 604l-84 98l-83 -98h-60l109 137h69l109 -137h-60z" />
    <glyph glyph-name="itilde" unicode="&#x129;" horiz-adv-x="299" 
d="M95 523h68v-408c0 -39 12 -66 48 -66c20 0 42 11 57 22l9 -55c-15 -12 -53 -26 -89 -26c-63 0 -93 38 -93 112v421zM-14 626l-26 30c17 34 52 70 96 70c55 0 103 -68 143 -68c34 0 57 22 70 49l26 -29c-19 -38 -53 -70 -95 -70c-54 0 -104 68 -143 68
c-34 0 -56 -23 -71 -50z" />
    <glyph glyph-name="idieresis" unicode="&#xef;" horiz-adv-x="299" 
d="M95 523h68v-408c0 -39 12 -66 48 -66c20 0 42 11 57 22l9 -55c-15 -12 -53 -26 -89 -26c-63 0 -93 38 -93 112v421zM-41 671c0 33 19 45 46 45c25 0 45 -12 45 -45c0 -31 -20 -44 -45 -44c-27 0 -46 13 -46 44zM208 671c0 33 20 45 47 45c25 0 44 -12 44 -45
c0 -31 -19 -44 -44 -44c-27 0 -47 13 -47 44z" />
    <glyph glyph-name="imacron" unicode="&#x12b;" horiz-adv-x="299" 
d="M95 523h68v-408c0 -39 12 -66 48 -66c20 0 42 11 57 22l9 -55c-15 -12 -53 -26 -89 -26c-63 0 -93 38 -93 112v421zM248 636h-239v50h239v-50z" />
    <glyph glyph-name="iogonek" unicode="&#x12f;" horiz-adv-x="299" 
d="M96 102v421h68v-408c0 -39 12 -66 48 -66c20 0 42 11 57 22l9 -55c-14 -11 -46 -23 -79 -26c-33 -12 -57 -32 -57 -67c0 -38 26 -58 62 -58c19 0 39 5 57 16l8 -36c-18 -10 -44 -18 -73 -18c-53 0 -92 32 -92 89c0 38 25 63 54 78c-42 11 -62 47 -62 108zM81 672
c0 34 19 46 49 46c28 0 47 -12 47 -46c0 -33 -19 -46 -47 -46c-30 0 -49 13 -49 46z" />
    <glyph glyph-name="dotlessj" unicode="&#x237;" horiz-adv-x="257" 
d="M95 523h68v-502c0 -115 -59 -180 -138 -218l-38 47c62 34 108 78 108 169v504z" />
    <glyph glyph-name="jcircumflex" unicode="&#x135;" horiz-adv-x="257" 
d="M95 523h68v-502c0 -115 -59 -180 -138 -218l-38 47c62 34 108 78 108 169v504zM210 604l-84 98l-83 -98h-60l109 137h69l109 -137h-60z" />
    <glyph glyph-name="kcommaaccent" unicode="&#x137;" horiz-adv-x="604" 
d="M484 523h68c-26 -134 -87 -213 -173 -256l187 -256v-11h-77l-171 244c-46 -13 -99 -19 -155 -19v-225h-68v710h68v-423c153 1 277 38 321 236zM272 -232l24 69c-33 3 -50 21 -50 44c0 33 20 50 49 50c36 0 55 -22 55 -54c0 -42 -19 -90 -41 -123z" />
    <glyph glyph-name="kgreenlandic" unicode="&#x138;" horiz-adv-x="605" 
d="M163 0h-68v523h68v-250c153 1 277 52 321 250h68c-27 -135 -88 -218 -175 -263l189 -249v-11h-77l-173 235c-46 -14 -97 -20 -153 -20v-215z" />
    <glyph glyph-name="lacute" unicode="&#x13a;" horiz-adv-x="308" 
d="M92 710h68v-588c0 -51 25 -73 62 -73c26 0 45 9 65 22l9 -55c-22 -14 -57 -26 -96 -26c-64 0 -108 34 -108 118v602zM237 890l-90 -137h-62l82 137h70z" />
    <glyph glyph-name="lcaron" unicode="&#x13e;" horiz-adv-x="326" 
d="M92 710h68v-588c0 -51 25 -73 62 -73c26 0 45 9 65 22l9 -55c-22 -14 -57 -26 -96 -26c-64 0 -108 34 -108 118v602zM253 526l24 69c-33 3 -50 21 -50 44c0 33 20 50 49 50c36 0 55 -22 55 -54c0 -42 -19 -90 -41 -123z" />
    <glyph glyph-name="lcommaaccent" unicode="&#x13c;" horiz-adv-x="309" 
d="M92 710h68v-588c0 -51 25 -73 62 -73c26 0 45 9 65 22l9 -55c-22 -14 -57 -26 -96 -26c-64 0 -108 34 -108 118v602zM150 -232l24 69c-33 3 -50 21 -50 44c0 33 20 50 49 50c36 0 55 -22 55 -54c0 -42 -19 -90 -41 -123z" />
    <glyph glyph-name="lslash" unicode="&#x142;" horiz-adv-x="313" 
d="M163 710v-291l91 47v-58l-91 -47v-239c0 -51 25 -73 62 -73c26 0 45 9 65 22l9 -55c-22 -14 -57 -26 -96 -26c-64 0 -108 34 -108 118v218l-51 -26v58l51 26v326h68z" />
    <glyph glyph-name="ldot" unicode="&#x140;" horiz-adv-x="372" 
d="M92 710h68v-588c0 -51 25 -73 62 -73c26 0 45 9 65 22l9 -55c-22 -14 -57 -26 -96 -26c-64 0 -108 34 -108 118v602zM255 367c0 36 19 56 54 56s55 -20 55 -56c0 -37 -20 -56 -55 -56s-54 19 -54 56z" />
    <glyph glyph-name="nacute" unicode="&#x144;" horiz-adv-x="678" 
d="M95 523h68v-96c36 65 103 105 191 105c135 0 199 -100 199 -231v-186c0 -40 13 -66 48 -66c19 0 39 9 59 22l8 -55c-23 -15 -56 -26 -89 -26c-64 0 -94 38 -94 112v190c0 101 -49 176 -152 176c-89 0 -151 -60 -170 -132v-336h-68v523zM451 741l-90 -137h-62l82 137h70z
" />
    <glyph glyph-name="ncaron" unicode="&#x148;" horiz-adv-x="678" 
d="M95 523h68v-96c36 65 103 105 191 105c135 0 199 -100 199 -231v-186c0 -40 13 -66 48 -66c19 0 39 9 59 22l8 -55c-23 -15 -56 -26 -89 -26c-64 0 -94 38 -94 112v190c0 101 -49 176 -152 176c-89 0 -151 -60 -170 -132v-336h-68v523zM246 741l84 -98l83 98h60
l-109 -137h-69l-109 137h60z" />
    <glyph glyph-name="ntilde" unicode="&#xf1;" horiz-adv-x="678" 
d="M95 523h68v-96c36 65 103 105 191 105c135 0 199 -100 199 -231v-186c0 -40 13 -66 48 -66c19 0 39 9 59 22l8 -55c-23 -15 -56 -26 -89 -26c-64 0 -94 38 -94 112v190c0 101 -49 176 -152 176c-89 0 -151 -60 -170 -132v-336h-68v523zM191 626l-26 30c17 34 52 70 96 70
c55 0 103 -68 143 -68c34 0 57 22 70 49l26 -29c-19 -38 -53 -70 -95 -70c-54 0 -104 68 -143 68c-34 0 -56 -23 -71 -50z" />
    <glyph glyph-name="ncommaaccent" unicode="&#x146;" horiz-adv-x="679" 
d="M95 523h68v-96c36 65 103 105 191 105c135 0 199 -100 199 -231v-186c0 -40 13 -66 48 -66c19 0 39 9 59 22l8 -55c-23 -15 -56 -26 -89 -26c-64 0 -94 38 -94 112v190c0 101 -49 176 -152 176c-89 0 -151 -60 -170 -132v-336h-68v523zM306 -232l24 69
c-33 3 -50 21 -50 44c0 33 20 50 49 50c36 0 55 -22 55 -54c0 -42 -19 -90 -41 -123z" />
    <glyph glyph-name="napostrophe" unicode="&#x149;" horiz-adv-x="711" 
d="M128 523h68v-96c36 65 103 105 191 105c135 0 199 -100 199 -231v-186c0 -40 13 -66 48 -66c19 0 39 9 59 22l8 -55c-23 -15 -56 -26 -89 -26c-64 0 -94 38 -94 112v190c0 101 -49 176 -152 176c-89 0 -151 -60 -170 -132v-336h-68v523z" />
    <glyph glyph-name="ograve" unicode="&#xf2;" horiz-adv-x="666" 
d="M55 260c0 159 115 277 277 277c164 0 279 -118 279 -277c0 -157 -115 -274 -279 -274c-162 0 -277 117 -277 274zM121 260c0 -120 87 -211 211 -211c126 0 213 91 213 211c0 122 -87 214 -213 214c-124 0 -211 -92 -211 -214zM304 604l-90 137h70l82 -137h-62z" />
    <glyph glyph-name="oacute" unicode="&#xf3;" horiz-adv-x="666" 
d="M55 260c0 159 115 277 277 277c164 0 279 -118 279 -277c0 -157 -115 -274 -279 -274c-162 0 -277 117 -277 274zM121 260c0 -120 87 -211 211 -211c126 0 213 91 213 211c0 122 -87 214 -213 214c-124 0 -211 -92 -211 -214zM450 741l-90 -137h-62l82 137h70z" />
    <glyph glyph-name="ocircumflex" unicode="&#xf4;" horiz-adv-x="666" 
d="M55 260c0 159 115 277 277 277c164 0 279 -118 279 -277c0 -157 -115 -274 -279 -274c-162 0 -277 117 -277 274zM121 260c0 -120 87 -211 211 -211c126 0 213 91 213 211c0 122 -87 214 -213 214c-124 0 -211 -92 -211 -214zM415 604l-84 98l-83 -98h-60l109 137h69
l109 -137h-60z" />
    <glyph glyph-name="otilde" unicode="&#xf5;" horiz-adv-x="666" 
d="M55 260c0 159 115 277 277 277c164 0 279 -118 279 -277c0 -157 -115 -274 -279 -274c-162 0 -277 117 -277 274zM121 260c0 -120 87 -211 211 -211c126 0 213 91 213 211c0 122 -87 214 -213 214c-124 0 -211 -92 -211 -214zM190 626l-26 30c17 34 52 70 96 70
c55 0 103 -68 143 -68c34 0 57 22 70 49l26 -29c-19 -38 -53 -70 -95 -70c-54 0 -104 68 -143 68c-34 0 -56 -23 -71 -50z" />
    <glyph glyph-name="odieresis" unicode="&#xf6;" horiz-adv-x="666" 
d="M55 260c0 159 115 277 277 277c164 0 279 -118 279 -277c0 -157 -115 -274 -279 -274c-162 0 -277 117 -277 274zM121 260c0 -120 87 -211 211 -211c126 0 213 91 213 211c0 122 -87 214 -213 214c-124 0 -211 -92 -211 -214zM162 671c0 33 19 45 46 45
c25 0 45 -12 45 -45c0 -31 -20 -44 -45 -44c-27 0 -46 13 -46 44zM411 671c0 33 20 45 47 45c25 0 44 -12 44 -45c0 -31 -19 -44 -44 -44c-27 0 -47 13 -47 44z" />
    <glyph glyph-name="omacron" unicode="&#x14d;" horiz-adv-x="666" 
d="M55 260c0 159 115 277 277 277c164 0 279 -118 279 -277c0 -157 -115 -274 -279 -274c-162 0 -277 117 -277 274zM121 260c0 -120 87 -211 211 -211c126 0 213 91 213 211c0 122 -87 214 -213 214c-124 0 -211 -92 -211 -214zM451 636h-239v50h239v-50z" />
    <glyph glyph-name="obreve" unicode="&#x14f;" horiz-adv-x="666" 
d="M55 260c0 159 115 277 277 277c164 0 279 -118 279 -277c0 -157 -115 -274 -279 -274c-162 0 -277 117 -277 274zM121 260c0 -120 87 -211 211 -211c126 0 213 91 213 211c0 122 -87 214 -213 214c-124 0 -211 -92 -211 -214zM200 688l24 30c18 -25 51 -56 108 -56
c56 0 90 30 107 56l24 -30c-20 -35 -61 -75 -131 -75c-69 0 -112 40 -132 75z" />
    <glyph glyph-name="ohungarumlaut" unicode="&#x151;" horiz-adv-x="666" 
d="M55 260c0 159 115 277 277 277c164 0 279 -118 279 -277c0 -157 -115 -274 -279 -274c-162 0 -277 117 -277 274zM121 260c0 -120 87 -211 211 -211c126 0 213 91 213 211c0 122 -87 214 -213 214c-124 0 -211 -92 -211 -214zM371 741l-91 -137h-62l82 137h71zM539 741
l-90 -137h-62l82 137h70z" />
    <glyph glyph-name="oslash" unicode="&#xf8;" horiz-adv-x="666" 
d="M55 260c0 159 115 277 277 277c67 0 126 -20 172 -55l33 40h41v-6l-47 -57c50 -49 80 -119 80 -199c0 -157 -115 -274 -279 -274c-58 0 -110 15 -153 41l-22 -27h-42v6l35 42c-60 50 -95 124 -95 212zM121 260c0 -66 26 -123 70 -161l272 333c-35 27 -80 42 -131 42
c-124 0 -211 -92 -211 -214zM545 260c0 58 -20 110 -55 148l-270 -330c32 -19 70 -29 112 -29c126 0 213 91 213 211z" />
    <glyph glyph-name="oslashacute" unicode="&#x1ff;" horiz-adv-x="666" 
d="M55 260c0 159 115 277 277 277c67 0 126 -20 172 -55l33 40h41v-6l-47 -57c50 -49 80 -119 80 -199c0 -157 -115 -274 -279 -274c-58 0 -110 15 -153 41l-22 -27h-42v6l35 42c-60 50 -95 124 -95 212zM121 260c0 -66 26 -123 70 -161l272 333c-35 27 -80 42 -131 42
c-124 0 -211 -92 -211 -214zM545 260c0 58 -20 110 -55 148l-270 -330c32 -19 70 -29 112 -29c126 0 213 91 213 211zM450 741l-90 -137h-62l82 137h70z" />
    <glyph glyph-name="oe" unicode="&#x153;" horiz-adv-x="1119" 
d="M1053 237h-427c5 -110 66 -193 218 -193c74 0 136 29 180 63l29 -50c-54 -43 -126 -71 -214 -71c-145 0 -226 70 -256 166c-36 -100 -130 -166 -251 -166c-162 0 -277 117 -277 274c0 159 115 277 277 277c123 0 217 -69 252 -172c33 99 121 172 247 172
c159 0 230 -101 230 -218c0 -29 -3 -62 -8 -82zM121 260c0 -120 87 -211 211 -211c126 0 213 91 213 211c0 122 -87 214 -213 214c-124 0 -211 -92 -211 -214zM827 479c-120 0 -194 -83 -200 -187h368c2 11 3 24 3 36c0 84 -59 151 -171 151z" />
    <glyph glyph-name="racute" unicode="&#x155;" horiz-adv-x="458" 
d="M132 0v407c0 40 -12 66 -48 66c-20 0 -42 -10 -58 -21l-8 54c15 13 52 26 88 26c63 0 93 -36 94 -108c28 64 68 108 142 108c49 0 81 -17 96 -42l-17 -58c-15 23 -44 36 -87 36c-81 0 -115 -77 -134 -156v-312h-68zM322 741l-90 -137h-62l82 137h70z" />
    <glyph glyph-name="rcaron" unicode="&#x159;" horiz-adv-x="458" 
d="M132 0v407c0 40 -12 66 -48 66c-20 0 -42 -10 -58 -21l-8 54c15 13 52 26 88 26c63 0 93 -36 94 -108c28 64 68 108 142 108c49 0 81 -17 96 -42l-17 -58c-15 23 -44 36 -87 36c-81 0 -115 -77 -134 -156v-312h-68zM138 741l84 -98l83 98h60l-109 -137h-69l-109 137h60z
" />
    <glyph glyph-name="rcommaaccent" unicode="&#x157;" horiz-adv-x="457" 
d="M132 0v407c0 40 -12 66 -48 66c-20 0 -42 -10 -58 -21l-8 54c15 13 52 26 88 26c63 0 93 -36 94 -108c28 64 68 108 142 108c49 0 81 -17 96 -42l-17 -58c-15 23 -44 36 -87 36c-81 0 -115 -77 -134 -156v-312h-68zM131 -232l24 69c-33 3 -50 21 -50 44c0 33 20 50 49 50
c36 0 55 -22 55 -54c0 -42 -19 -90 -41 -123z" />
    <glyph glyph-name="sacute" unicode="&#x15b;" horiz-adv-x="519" 
d="M457 493l-18 -60c-42 21 -110 40 -170 40c-86 0 -146 -38 -146 -97c0 -48 31 -60 93 -75l115 -26c85 -19 132 -56 132 -128c0 -91 -72 -157 -201 -157c-88 0 -156 25 -195 45l15 60c40 -21 102 -47 177 -47c89 0 137 41 137 94c0 45 -41 62 -99 75l-111 25
c-84 20 -132 52 -132 130c0 93 84 160 219 160c66 0 146 -20 184 -39zM374 741l-90 -137h-62l82 137h70z" />
    <glyph glyph-name="scircumflex" unicode="&#x15d;" horiz-adv-x="519" 
d="M457 493l-18 -60c-42 21 -110 40 -170 40c-86 0 -146 -38 -146 -97c0 -48 31 -60 93 -75l115 -26c85 -19 132 -56 132 -128c0 -91 -72 -157 -201 -157c-88 0 -156 25 -195 45l15 60c40 -21 102 -47 177 -47c89 0 137 41 137 94c0 45 -41 62 -99 75l-111 25
c-84 20 -132 52 -132 130c0 93 84 160 219 160c66 0 146 -20 184 -39zM349 604l-84 98l-83 -98h-60l109 137h69l109 -137h-60z" />
    <glyph glyph-name="scaron" unicode="&#x161;" horiz-adv-x="519" 
d="M457 493l-18 -60c-42 21 -110 40 -170 40c-86 0 -146 -38 -146 -97c0 -48 31 -60 93 -75l115 -26c85 -19 132 -56 132 -128c0 -91 -72 -157 -201 -157c-88 0 -156 25 -195 45l15 60c40 -21 102 -47 177 -47c89 0 137 41 137 94c0 45 -41 62 -99 75l-111 25
c-84 20 -132 52 -132 130c0 93 84 160 219 160c66 0 146 -20 184 -39zM182 741l84 -98l83 98h60l-109 -137h-69l-109 137h60z" />
    <glyph glyph-name="scedilla" unicode="&#x15f;" horiz-adv-x="520" 
d="M199 -96l23 88c-69 6 -122 26 -155 43l15 60c40 -21 102 -47 177 -47c89 0 137 41 137 94c0 45 -41 62 -99 75l-111 25c-84 20 -132 52 -132 130c0 93 84 160 219 160c66 0 146 -20 184 -39l-18 -60c-42 21 -110 40 -170 40c-86 0 -146 -38 -146 -97c0 -48 31 -60 93 -75
l115 -26c85 -19 132 -56 132 -128c0 -91 -72 -157 -201 -157h-5l-15 -57c9 2 22 4 33 4c52 0 83 -26 83 -63c0 -47 -45 -72 -101 -72c-24 0 -49 4 -73 12l8 30c20 -7 41 -12 64 -12c37 0 64 13 64 41c0 22 -19 35 -58 35c-20 0 -45 -3 -60 -8z" />
    <glyph glyph-name="scommaaccent" unicode="&#x219;" horiz-adv-x="520" 
d="M457 493l-18 -60c-42 21 -110 40 -170 40c-86 0 -146 -38 -146 -97c0 -48 31 -60 93 -75l115 -26c85 -19 132 -56 132 -128c0 -91 -72 -157 -201 -157c-88 0 -156 25 -195 45l15 60c40 -21 102 -47 177 -47c89 0 137 41 137 94c0 45 -41 62 -99 75l-111 25
c-84 20 -132 52 -132 130c0 93 84 160 219 160c66 0 146 -20 184 -39zM230 -232l24 69c-33 3 -50 21 -50 44c0 33 20 50 49 50c36 0 55 -22 55 -54c0 -42 -19 -90 -41 -123z" />
    <glyph glyph-name="germandbls" unicode="&#xdf;" horiz-adv-x="659" 
d="M335 720c134 0 217 -89 217 -192c0 -97 -93 -145 -93 -171c0 -23 149 -80 149 -201c0 -109 -83 -166 -193 -166c-71 0 -123 18 -151 33l12 57c27 -16 69 -31 122 -31c79 0 137 42 137 112c0 102 -151 146 -151 190c0 45 99 82 99 174c0 80 -69 134 -152 134
c-105 0 -168 -78 -168 -200v-459h-68v454c0 170 102 266 240 266z" />
    <glyph glyph-name="tcaron" unicode="&#x165;" horiz-adv-x="463" 
d="M138 656h61v-133h217v-56h-218v-306c0 -73 34 -110 98 -110c41 0 93 18 124 41l24 -54c-43 -28 -101 -48 -167 -48c-92 0 -147 56 -147 159v318h-104v56h105zM438 526l24 69c-33 3 -50 21 -50 44c0 33 20 50 49 50c36 0 55 -22 55 -54c0 -42 -19 -90 -41 -123z" />
    <glyph glyph-name="tcommaaccent" unicode="&#x163;" horiz-adv-x="473" 
d="M210 -96l24 91c-65 15 -103 68 -103 154v318h-104v56h105l7 133h61v-133h217v-56h-218v-306c0 -73 34 -110 98 -110c41 0 93 18 124 41l24 -54c-43 -28 -101 -48 -167 -48h-10l-15 -57c9 2 22 4 33 4c52 0 83 -26 83 -63c0 -47 -45 -72 -101 -72c-24 0 -49 4 -73 12l8 30
c20 -7 41 -12 64 -12c37 0 64 13 64 41c0 22 -19 35 -58 35c-20 0 -45 -3 -60 -8z" />
    <glyph glyph-name="uni021B" unicode="&#x21b;" horiz-adv-x="471" 
d="M138 656h61v-133h217v-56h-218v-306c0 -73 34 -110 98 -110c41 0 93 18 124 41l24 -54c-43 -28 -101 -48 -167 -48c-92 0 -147 56 -147 159v318h-104v56h105zM229 -232l24 69c-33 3 -50 21 -50 44c0 33 20 50 49 50c36 0 55 -22 55 -54c0 -42 -19 -90 -41 -123z" />
    <glyph glyph-name="tbar" unicode="&#x167;" horiz-adv-x="473" 
d="M138 656h61v-133h217v-56h-218v-165h155v-52h-155v-89c0 -73 34 -110 98 -110c41 0 93 18 124 41l24 -54c-43 -28 -101 -48 -167 -48c-92 0 -147 56 -147 159v101h-85v52h85v165h-104v56h105z" />
    <glyph glyph-name="thorn" unicode="&#xfe;" horiz-adv-x="653" 
d="M596 262c0 -158 -101 -272 -255 -272c-78 0 -139 32 -178 72v-250h-68v898h68v-248c40 39 102 70 178 70c154 0 255 -112 255 -270zM527 262c0 123 -80 209 -202 209c-70 0 -130 -37 -162 -74v-275c31 -35 92 -71 162 -71c122 0 202 87 202 211z" />
    <glyph glyph-name="ugrave" unicode="&#xf9;" horiz-adv-x="677" 
d="M477 523h68v-408c0 -39 12 -66 47 -66c19 0 38 9 59 22l8 -55c-22 -15 -57 -26 -89 -26c-58 0 -88 32 -93 94c-38 -59 -105 -94 -191 -94c-135 0 -200 95 -200 230v303h68v-294c0 -106 45 -176 153 -176c89 0 148 57 170 119v351zM291 604l-90 137h70l82 -137h-62z" />
    <glyph glyph-name="uacute" unicode="&#xfa;" horiz-adv-x="677" 
d="M477 523h68v-408c0 -39 12 -66 47 -66c19 0 38 9 59 22l8 -55c-22 -15 -57 -26 -89 -26c-58 0 -88 32 -93 94c-38 -59 -105 -94 -191 -94c-135 0 -200 95 -200 230v303h68v-294c0 -106 45 -176 153 -176c89 0 148 57 170 119v351zM439 741l-90 -137h-62l82 137h70z" />
    <glyph glyph-name="ucircumflex" unicode="&#xfb;" horiz-adv-x="677" 
d="M477 523h68v-408c0 -39 12 -66 47 -66c19 0 38 9 59 22l8 -55c-22 -15 -57 -26 -89 -26c-58 0 -88 32 -93 94c-38 -59 -105 -94 -191 -94c-135 0 -200 95 -200 230v303h68v-294c0 -106 45 -176 153 -176c89 0 148 57 170 119v351zM405 604l-84 98l-83 -98h-60l109 137h69
l109 -137h-60z" />
    <glyph glyph-name="utilde" unicode="&#x169;" horiz-adv-x="677" 
d="M477 523h68v-408c0 -39 12 -66 47 -66c19 0 38 9 59 22l8 -55c-22 -15 -57 -26 -89 -26c-58 0 -88 32 -93 94c-38 -59 -105 -94 -191 -94c-135 0 -200 95 -200 230v303h68v-294c0 -106 45 -176 153 -176c89 0 148 57 170 119v351zM179 626l-26 30c17 34 52 70 96 70
c55 0 103 -68 143 -68c34 0 57 22 70 49l26 -29c-19 -38 -53 -70 -95 -70c-54 0 -104 68 -143 68c-34 0 -56 -23 -71 -50z" />
    <glyph glyph-name="udieresis" unicode="&#xfc;" horiz-adv-x="677" 
d="M477 523h68v-408c0 -39 12 -66 47 -66c19 0 38 9 59 22l8 -55c-22 -15 -57 -26 -89 -26c-58 0 -88 32 -93 94c-38 -59 -105 -94 -191 -94c-135 0 -200 95 -200 230v303h68v-294c0 -106 45 -176 153 -176c89 0 148 57 170 119v351zM150 671c0 33 19 45 46 45
c25 0 45 -12 45 -45c0 -31 -20 -44 -45 -44c-27 0 -46 13 -46 44zM399 671c0 33 20 45 47 45c25 0 44 -12 44 -45c0 -31 -19 -44 -44 -44c-27 0 -47 13 -47 44z" />
    <glyph glyph-name="umacron" unicode="&#x16b;" horiz-adv-x="677" 
d="M477 523h68v-408c0 -39 12 -66 47 -66c19 0 38 9 59 22l8 -55c-22 -15 -57 -26 -89 -26c-58 0 -88 32 -93 94c-38 -59 -105 -94 -191 -94c-135 0 -200 95 -200 230v303h68v-294c0 -106 45 -176 153 -176c89 0 148 57 170 119v351zM441 636h-239v50h239v-50z" />
    <glyph glyph-name="ubreve" unicode="&#x16d;" horiz-adv-x="677" 
d="M477 523h68v-408c0 -39 12 -66 47 -66c19 0 38 9 59 22l8 -55c-22 -15 -57 -26 -89 -26c-58 0 -88 32 -93 94c-38 -59 -105 -94 -191 -94c-135 0 -200 95 -200 230v303h68v-294c0 -106 45 -176 153 -176c89 0 148 57 170 119v351zM190 688l24 30c18 -25 51 -56 108 -56
c56 0 90 30 107 56l24 -30c-20 -35 -61 -75 -131 -75c-69 0 -112 40 -132 75z" />
    <glyph glyph-name="uring" unicode="&#x16f;" horiz-adv-x="677" 
d="M477 523h68v-408c0 -39 12 -66 47 -66c19 0 38 9 59 22l8 -55c-22 -15 -57 -26 -89 -26c-58 0 -88 32 -93 94c-38 -59 -105 -94 -191 -94c-135 0 -200 95 -200 230v303h68v-294c0 -106 45 -176 153 -176c89 0 148 57 170 119v351zM219 670c0 54 44 98 98 98
s98 -44 98 -98s-44 -98 -98 -98s-98 44 -98 98zM254 670c0 -35 28 -63 63 -63s63 28 63 63s-28 63 -63 63s-63 -28 -63 -63z" />
    <glyph glyph-name="uhungarumlaut" unicode="&#x171;" horiz-adv-x="677" 
d="M477 523h68v-408c0 -39 12 -66 47 -66c19 0 38 9 59 22l8 -55c-22 -15 -57 -26 -89 -26c-58 0 -88 32 -93 94c-38 -59 -105 -94 -191 -94c-135 0 -200 95 -200 230v303h68v-294c0 -106 45 -176 153 -176c89 0 148 57 170 119v351zM352 741l-91 -137h-62l82 137h71z
M520 741l-90 -137h-62l82 137h70z" />
    <glyph glyph-name="uogonek" unicode="&#x173;" horiz-adv-x="677" 
d="M477 523h68v-408c0 -39 12 -66 47 -66c19 0 38 9 59 22l8 -55c-17 -11 -40 -20 -64 -24c-35 -13 -62 -32 -62 -69c0 -38 25 -58 61 -58c19 0 39 5 58 16l7 -36c-18 -10 -43 -18 -73 -18c-53 0 -92 32 -92 89c0 37 23 61 50 77c-41 8 -63 39 -67 91
c-38 -59 -105 -94 -191 -94c-135 0 -200 95 -200 230v303h68v-294c0 -106 45 -176 153 -176c89 0 148 57 170 119v351z" />
    <glyph glyph-name="wacute" unicode="&#x1e83;" horiz-adv-x="1033" 
d="M511 523h68v-296c0 -102 49 -174 149 -174c110 0 165 90 165 199c0 117 -39 224 -57 271h71c16 -42 54 -152 54 -276c0 -155 -89 -257 -229 -257c-104 0 -159 42 -189 132c-32 -89 -102 -132 -201 -132c-139 0 -210 85 -210 230v188c0 42 -10 66 -49 66
c-20 0 -41 -9 -58 -21l-8 55c24 12 56 24 91 24c71 0 92 -47 92 -110v-194c0 -114 50 -175 149 -175s162 71 162 177v293zM656 741l-90 -137h-62l82 137h70z" />
    <glyph glyph-name="wcircumflex" unicode="&#x175;" horiz-adv-x="1033" 
d="M511 523h68v-296c0 -102 49 -174 149 -174c110 0 165 90 165 199c0 117 -39 224 -57 271h71c16 -42 54 -152 54 -276c0 -155 -89 -257 -229 -257c-104 0 -159 42 -189 132c-32 -89 -102 -132 -201 -132c-139 0 -210 85 -210 230v188c0 42 -10 66 -49 66
c-20 0 -41 -9 -58 -21l-8 55c24 12 56 24 91 24c71 0 92 -47 92 -110v-194c0 -114 50 -175 149 -175s162 71 162 177v293zM626 604l-84 98l-83 -98h-60l109 137h69l109 -137h-60z" />
    <glyph glyph-name="wdieresis" unicode="&#x1e85;" horiz-adv-x="1033" 
d="M511 523h68v-296c0 -102 49 -174 149 -174c110 0 165 90 165 199c0 117 -39 224 -57 271h71c16 -42 54 -152 54 -276c0 -155 -89 -257 -229 -257c-104 0 -159 42 -189 132c-32 -89 -102 -132 -201 -132c-139 0 -210 85 -210 230v188c0 42 -10 66 -49 66
c-20 0 -41 -9 -58 -21l-8 55c24 12 56 24 91 24c71 0 92 -47 92 -110v-194c0 -114 50 -175 149 -175s162 71 162 177v293zM372 671c0 33 19 45 46 45c25 0 45 -12 45 -45c0 -31 -20 -44 -45 -44c-27 0 -46 13 -46 44zM621 671c0 33 20 45 47 45c25 0 44 -12 44 -45
c0 -31 -19 -44 -44 -44c-27 0 -47 13 -47 44z" />
    <glyph glyph-name="wgrave" unicode="&#x1e81;" horiz-adv-x="1033" 
d="M511 523h68v-296c0 -102 49 -174 149 -174c110 0 165 90 165 199c0 117 -39 224 -57 271h71c16 -42 54 -152 54 -276c0 -155 -89 -257 -229 -257c-104 0 -159 42 -189 132c-32 -89 -102 -132 -201 -132c-139 0 -210 85 -210 230v188c0 42 -10 66 -49 66
c-20 0 -41 -9 -58 -21l-8 55c24 12 56 24 91 24c71 0 92 -47 92 -110v-194c0 -114 50 -175 149 -175s162 71 162 177v293zM512 604l-90 137h70l82 -137h-62z" />
    <glyph glyph-name="yacute" unicode="&#xfd;" horiz-adv-x="576" 
d="M17 523h75l207 -448l189 448h69l-240 -559c-42 -102 -87 -162 -188 -162c-53 0 -94 20 -119 36l13 57c26 -17 58 -34 106 -34c65 0 94 37 122 103l17 41zM410 741l-90 -137h-62l82 137h70z" />
    <glyph glyph-name="ycircumflex" unicode="&#x177;" horiz-adv-x="576" 
d="M17 523h75l207 -448l189 448h69l-240 -559c-42 -102 -87 -162 -188 -162c-53 0 -94 20 -119 36l13 57c26 -17 58 -34 106 -34c65 0 94 37 122 103l17 41zM377 604l-84 98l-83 -98h-60l109 137h69l109 -137h-60z" />
    <glyph glyph-name="ydieresis" unicode="&#xff;" horiz-adv-x="576" 
d="M17 523h75l207 -448l189 448h69l-240 -559c-42 -102 -87 -162 -188 -162c-53 0 -94 20 -119 36l13 57c26 -17 58 -34 106 -34c65 0 94 37 122 103l17 41zM125 671c0 33 19 45 46 45c25 0 45 -12 45 -45c0 -31 -20 -44 -45 -44c-27 0 -46 13 -46 44zM374 671
c0 33 20 45 47 45c25 0 44 -12 44 -45c0 -31 -19 -44 -44 -44c-27 0 -47 13 -47 44z" />
    <glyph glyph-name="ygrave" unicode="&#x1ef3;" horiz-adv-x="576" 
d="M17 523h75l207 -448l189 448h69l-240 -559c-42 -102 -87 -162 -188 -162c-53 0 -94 20 -119 36l13 57c26 -17 58 -34 106 -34c65 0 94 37 122 103l17 41zM274 604l-90 137h70l82 -137h-62z" />
    <glyph glyph-name="zacute" unicode="&#x17a;" horiz-adv-x="520" 
d="M51 51l332 416h-332v56h418v-51l-331 -416h331v-56h-418v51zM375 741l-90 -137h-62l82 137h70z" />
    <glyph glyph-name="zcaron" unicode="&#x17e;" horiz-adv-x="520" 
d="M51 51l332 416h-332v56h418v-51l-331 -416h331v-56h-418v51zM181 741l84 -98l83 98h60l-109 -137h-69l-109 137h60z" />
    <glyph glyph-name="zdotaccent" unicode="&#x17c;" horiz-adv-x="520" 
d="M51 51l332 416h-332v56h418v-51l-331 -416h331v-56h-418v51zM221 672c0 34 19 46 49 46c28 0 47 -12 47 -46c0 -33 -19 -46 -47 -46c-30 0 -49 13 -49 46z" />
    <glyph glyph-name="IJ" unicode="&#x132;" horiz-adv-x="948" 
d="M112 0v680h68v-680h-68zM776 680h69v-421c0 -159 -93 -271 -262 -271c-168 0 -249 104 -259 262l67 7c9 -126 66 -205 193 -205s192 83 192 210v418z" />
    <glyph glyph-name="ij" unicode="&#x133;" horiz-adv-x="556" 
d="M163 523v-408c0 -39 12 -66 48 -66c20 0 42 11 57 22l9 -55c-15 -12 -53 -26 -89 -26c-63 0 -93 38 -93 112v421h68zM81 672c0 34 19 46 49 46c28 0 47 -12 47 -46c0 -33 -19 -46 -47 -46c-30 0 -49 13 -49 46zM462 523v-502c0 -115 -59 -180 -138 -218l-38 47
c62 34 108 78 108 169v504h68zM381 672c0 34 18 46 48 46c29 0 46 -12 46 -46c0 -33 -17 -46 -46 -46c-30 0 -48 13 -48 46z" />
    <glyph glyph-name="fi" unicode="&#xfb01;" horiz-adv-x="764" 
d="M41 436v55h110v52c0 99 47 177 163 177c63 0 109 -29 132 -52l-20 -56c-20 21 -55 47 -106 47c-75 0 -101 -49 -101 -116v-52h196v-55h-196v-436h-68v436h-110zM628 523v-408c0 -39 12 -66 48 -66c20 0 42 11 57 22l9 -55c-15 -12 -53 -26 -89 -26c-63 0 -93 38 -93 112
v421h68zM546 672c0 34 19 46 49 46c28 0 47 -12 47 -46c0 -33 -19 -46 -47 -46c-30 0 -49 13 -49 46z" />
    <glyph glyph-name="fl" unicode="&#xfb02;" horiz-adv-x="768" 
d="M41 436v55h110v52c0 99 47 177 163 177c63 0 109 -29 132 -52l-20 -56c-20 21 -55 47 -106 47c-75 0 -101 -49 -101 -116v-52h196v-55h-196v-436h-68v436h-110zM551 710h68v-588c0 -51 25 -73 62 -73c26 0 45 9 65 22l9 -55c-22 -14 -57 -26 -96 -26
c-64 0 -108 34 -108 118v602z" />
    <glyph glyph-name="acute" unicode="&#xb4;" 
d="M383 741l-90 -137h-62l82 137h70z" />
    <glyph glyph-name="circumflex" unicode="&#x2c6;" 
d="M390 604l-84 98l-83 -98h-60l109 137h69l109 -137h-60z" />
    <glyph glyph-name="caron" unicode="&#x2c7;" 
d="M223 741l84 -98l83 98h60l-109 -137h-69l-109 137h60z" />
    <glyph glyph-name="tilde" unicode="&#x2dc;" 
d="M165 626l-26 30c17 34 52 70 96 70c55 0 103 -68 143 -68c34 0 57 22 70 49l26 -29c-19 -38 -53 -70 -95 -70c-54 0 -104 68 -143 68c-34 0 -56 -23 -71 -50z" />
    <glyph glyph-name="dieresis" unicode="&#xa8;" 
d="M137 671c0 33 19 45 46 45c25 0 45 -12 45 -45c0 -31 -20 -44 -45 -44c-27 0 -46 13 -46 44zM386 671c0 33 20 45 47 45c25 0 44 -12 44 -45c0 -31 -19 -44 -44 -44c-27 0 -47 13 -47 44z" />
    <glyph glyph-name="macron" unicode="&#xaf;" 
d="M426 636h-239v50h239v-50z" />
    <glyph glyph-name="breve" unicode="&#x2d8;" 
d="M175 688l24 30c18 -25 51 -56 108 -56c56 0 90 30 107 56l24 -30c-20 -35 -61 -75 -131 -75c-69 0 -112 40 -132 75z" />
    <glyph glyph-name="ring" unicode="&#x2da;" 
d="M209 630c0 54 44 98 98 98s98 -44 98 -98s-44 -98 -98 -98s-98 44 -98 98zM244 630c0 -35 28 -63 63 -63s63 28 63 63s-28 63 -63 63s-63 -28 -63 -63z" />
    <glyph glyph-name="hungarumlaut" unicode="&#x2dd;" 
d="M299 741l-91 -137h-62l82 137h71zM467 741l-90 -137h-62l82 137h70z" />
    <glyph glyph-name="dotaccent" unicode="&#x2d9;" 
d="M259 672c0 34 19 46 49 46c28 0 47 -12 47 -46c0 -33 -19 -46 -47 -46c-30 0 -49 13 -49 46z" />
    <glyph glyph-name="cedilla" unicode="&#xb8;" 
d="M228 -96l26 96h35l-18 -67c9 2 22 4 33 4c52 0 83 -26 83 -63c0 -47 -45 -72 -101 -72c-24 0 -49 4 -73 12l8 30c20 -7 41 -12 64 -12c37 0 64 13 64 41c0 22 -19 35 -58 35c-20 0 -45 -3 -60 -8z" />
    <glyph glyph-name="ogonek" unicode="&#x2db;" 
d="M318 11l37 -11c-54 -2 -99 -29 -99 -77c0 -38 25 -58 61 -58c19 0 39 5 57 16l8 -36c-18 -10 -44 -18 -73 -18c-53 0 -92 32 -92 89c0 59 59 92 101 95z" />
    <glyph glyph-name="commaaccent" unicode="&#xf6c3;" 
d="M277 -232l24 69c-33 3 -50 21 -50 44c0 33 20 50 49 50c36 0 55 -22 55 -54c0 -42 -19 -90 -41 -123z" />
    <glyph glyph-name="commaaccent.alt" 
d="M321 759l-23 -70c33 -2 50 -21 50 -44c0 -32 -20 -49 -50 -49c-35 0 -55 21 -55 53c0 42 19 92 41 124z" />
    <glyph glyph-name="ellipsis" unicode="&#x2026;" horiz-adv-x="703" 
d="M75 40c0 35 19 55 52 55c34 0 54 -20 54 -55c0 -36 -20 -55 -54 -55c-33 0 -52 19 -52 55zM299 40c0 35 19 55 52 55c34 0 54 -20 54 -55c0 -36 -20 -55 -54 -55c-33 0 -52 19 -52 55zM523 40c0 35 19 55 52 55c34 0 54 -20 54 -55c0 -36 -20 -55 -54 -55
c-33 0 -52 19 -52 55z" />
    <glyph glyph-name="uni00AD" unicode="&#xad;" horiz-adv-x="530" 
d="M80 331h371v-57h-371v57z" />
    <glyph glyph-name="exclamdown" unicode="&#xa1;" horiz-adv-x="263" 
d="M158 291l8 -448h-69l8 448h53zM187 480c0 -37 -20 -58 -55 -58c-36 0 -57 21 -57 58s21 57 57 57c35 0 55 -20 55 -57z" />
    <glyph glyph-name="questiondown" unicode="&#xbf;" horiz-adv-x="475" 
d="M242 291h59c4 -12 6 -25 6 -41c0 -35 -18 -58 -53 -82l-59 -43c-39 -29 -71 -57 -71 -118c0 -72 56 -117 127 -117c78 0 128 39 154 81l27 -50c-31 -44 -88 -89 -189 -89c-111 0 -188 70 -188 171c0 89 46 126 92 160l62 44c29 21 37 32 37 57c0 7 -1 17 -4 27zM326 480
c0 -37 -20 -58 -55 -58c-36 0 -57 21 -57 58s21 57 57 57c35 0 55 -20 55 -57z" />
    <glyph glyph-name="quoteleft" unicode="&#x2018;" horiz-adv-x="247" 
d="M173 673l-46 -140c34 -4 51 -26 51 -53c0 -37 -21 -58 -56 -58c-36 0 -56 25 -56 58c0 60 44 173 66 210z" />
    <glyph glyph-name="quoteright" unicode="&#x2019;" horiz-adv-x="243" 
d="M77 437l47 141c-34 3 -50 25 -50 52c0 38 20 58 55 58c36 0 56 -25 56 -58c0 -59 -46 -173 -67 -210z" />
    <glyph glyph-name="quotedblleft" unicode="&#x201c;" horiz-adv-x="422" 
d="M349 675l-45 -137c32 -3 48 -23 48 -49c0 -35 -18 -54 -51 -54c-34 0 -52 24 -52 54c0 57 43 167 63 201zM166 675l-44 -137c32 -3 48 -23 48 -49c0 -35 -19 -54 -51 -54c-34 0 -52 24 -52 54c0 57 43 167 63 201z" />
    <glyph glyph-name="quotedblright" unicode="&#x201d;" horiz-adv-x="416" 
d="M76 449l44 136c-32 4 -48 24 -48 49c0 35 19 54 51 54c34 0 52 -23 52 -54c0 -56 -42 -167 -62 -201zM258 449l45 136c-33 4 -49 24 -49 49c0 35 19 54 52 54c34 0 52 -23 52 -54c0 -56 -43 -167 -63 -201z" />
    <glyph glyph-name="quotesinglbase" unicode="&#x201a;" horiz-adv-x="259" 
d="M77 -153l47 141c-34 3 -50 25 -50 52c0 38 20 58 55 58c36 0 56 -25 56 -58c0 -59 -46 -173 -67 -210z" />
    <glyph glyph-name="quotedblbase" unicode="&#x201e;" horiz-adv-x="433" 
d="M78 -155l45 138c-33 2 -49 23 -49 48c0 35 19 55 51 55c34 0 53 -24 53 -55c0 -56 -43 -166 -63 -201zM260 -155l45 138c-33 2 -49 23 -49 48c0 35 19 55 52 55s52 -24 52 -55c0 -56 -43 -166 -63 -201z" />
    <glyph glyph-name="guilsinglleft" unicode="&#x2039;" horiz-adv-x="311" 
d="M53 295v15l159 199h6l24 -21l-130 -185l131 -186l-25 -20h-6z" />
    <glyph glyph-name="guilsinglright" unicode="&#x203a;" horiz-adv-x="311" 
d="M259 310v-15l-159 -198h-6l-24 20l129 186l-130 185l25 21h6z" />
    <glyph glyph-name="guillemotleft" unicode="&#xab;" horiz-adv-x="517" 
d="M53 295v15l159 199h6l24 -21l-130 -185l131 -186l-25 -20h-6zM259 295v15l159 199h6l24 -21l-130 -185l131 -186l-25 -20h-6z" />
    <glyph glyph-name="guillemotright" unicode="&#xbb;" horiz-adv-x="517" 
d="M259 310v-15l-159 -198h-6l-24 20l129 186l-130 185l25 21h6zM465 310v-15l-159 -198h-6l-24 20l129 186l-130 185l25 21h6z" />
    <glyph glyph-name="endash" unicode="&#x2013;" horiz-adv-x="623" 
d="M80 331h463v-57h-463v57z" />
    <glyph glyph-name="emdash" unicode="&#x2014;" horiz-adv-x="855" 
d="M80 331h695v-57h-695v57z" />
    <glyph glyph-name="bullet" unicode="&#x2022;" horiz-adv-x="317" 
d="M75 302c0 57 30 88 82 88c54 0 85 -31 85 -88c0 -58 -31 -89 -85 -89c-52 0 -82 31 -82 89z" />
    <glyph glyph-name="periodcentered" unicode="&#xb7;" horiz-adv-x="263" 
d="M77 298c0 36 19 56 54 56s55 -20 55 -56c0 -37 -20 -56 -55 -56s-54 19 -54 56z" />
    <glyph glyph-name="uni2219" unicode="&#x2219;" horiz-adv-x="263" 
d="M77 298c0 36 19 56 54 56s55 -20 55 -56c0 -37 -20 -56 -55 -56s-54 19 -54 56z" />
    <glyph glyph-name="dagger" unicode="&#x2020;" horiz-adv-x="608" 
d="M573 375h-241v-563h-56v563h-241v57h241v278h56v-278h241v-57z" />
    <glyph glyph-name="daggerdbl" unicode="&#x2021;" horiz-adv-x="662" 
d="M600 75h-240v-263h-57v263h-241v57h241v243h-241v57h241v278h57v-278h240v-57h-240v-243h240v-57z" />
    <glyph glyph-name="section" unicode="&#xa7;" horiz-adv-x="656" 
d="M88 -52l16 60c42 -19 134 -48 229 -48c98 0 178 28 178 86c0 44 -43 59 -120 73l-163 30c-106 20 -151 65 -151 142c0 56 33 110 106 140c-57 13 -103 45 -103 109c0 79 81 150 245 150c106 0 192 -23 241 -44l-19 -58c-46 21 -140 46 -228 46c-116 0 -173 -44 -173 -89
c0 -38 32 -55 76 -62l175 -29c115 -19 183 -76 183 -157c0 -63 -40 -111 -111 -137c68 -19 111 -51 111 -108c0 -93 -106 -149 -253 -149c-107 0 -197 27 -239 45zM377 399l-85 13c-109 -5 -151 -64 -151 -114c0 -51 27 -79 108 -94l101 -19c99 1 163 42 163 106
c0 58 -46 94 -136 108z" />
    <glyph glyph-name="paragraph" unicode="&#xb6;" horiz-adv-x="526" 
d="M272 523v-711h-55v482h-58c-68 0 -119 40 -119 114s51 114 119 115h113zM374 -188v711h56v-711h-56z" />
    <glyph glyph-name="brokenbar" unicode="&#xa6;" horiz-adv-x="260" 
d="M158 375h-56v335h56v-335zM102 159h56v-347h-56v347z" />
    <glyph glyph-name="copyright" unicode="&#xa9;" horiz-adv-x="839" 
d="M69 339c0 201 150 351 349 351c201 0 351 -150 351 -351c0 -199 -150 -349 -351 -349c-199 0 -349 150 -349 349zM113 339c0 -175 130 -307 305 -307c177 0 308 132 308 307c0 177 -131 309 -308 309c-175 0 -305 -132 -305 -309zM530 257l31 -38
c-31 -29 -83 -55 -140 -55c-100 0 -173 65 -173 175s73 175 173 175c87 0 137 -49 139 -128l-46 -11c-1 56 -34 89 -93 89c-70 0 -118 -46 -118 -125s48 -125 120 -125c42 0 83 21 107 43z" />
    <glyph glyph-name="uni2117" unicode="&#x2117;" horiz-adv-x="839" 
d="M69 339c0 201 150 351 349 351c201 0 351 -150 351 -351c0 -199 -150 -349 -351 -349c-199 0 -349 150 -349 349zM113 339c0 -175 130 -307 305 -307c177 0 308 132 308 307c0 177 -131 309 -308 309c-175 0 -305 -132 -305 -309zM317 169v340h152c64 0 119 -38 119 -121
c0 -75 -55 -119 -119 -119h-99v-100h-53zM462 464h-92v-149h92c40 0 74 27 74 74c0 50 -34 75 -74 75z" />
    <glyph glyph-name="registered" unicode="&#xae;" horiz-adv-x="839" 
d="M69 339c0 201 150 351 349 351c201 0 351 -150 351 -351c0 -199 -150 -349 -351 -349c-199 0 -349 150 -349 349zM113 339c0 -175 130 -307 305 -307c177 0 308 132 308 307c0 177 -131 309 -308 309c-175 0 -305 -132 -305 -309zM336 169h-53v340h151
c72 0 121 -40 121 -110c0 -69 -48 -104 -109 -105c33 -32 73 -82 116 -82c14 0 30 4 43 10l6 -45c-14 -7 -34 -13 -55 -13c-83 0 -146 112 -181 129h-39v-124zM434 464h-98v-128h98c38 0 69 21 69 61c0 46 -32 67 -69 67z" />
    <glyph glyph-name="trademark" unicode="&#x2122;" horiz-adv-x="851" 
d="M706 357v240l-120 -148h-9l-120 148v-240h-43v306h38l130 -157l129 157h38v-306h-43zM334 621h-107v-264h-43v264h-111v42h261v-42z" />
    <glyph glyph-name="currency" unicode="&#xa4;" horiz-adv-x="567" 
d="M441 500l41 -40l-60 -59c21 -27 33 -62 33 -100s-12 -72 -32 -98l59 -58l-41 -40l-58 58c-27 -20 -62 -32 -102 -32c-38 0 -72 11 -98 30l-56 -56l-41 40l56 54c-22 27 -35 63 -35 102c0 41 13 76 35 103l-56 56l41 40l56 -58c26 20 60 32 98 32c40 0 75 -12 102 -34z
M158 301c0 -69 51 -122 123 -122c73 0 123 53 123 122c0 70 -50 124 -123 124c-72 0 -123 -54 -123 -124z" />
    <glyph glyph-name="Euro" unicode="&#x20ac;" 
d="M552 612l-26 -53c-47 43 -104 68 -162 68c-104 0 -178 -68 -197 -209h294l-22 -46h-276c-1 -11 -1 -22 -1 -33c0 -14 0 -28 1 -41h244l-19 -45h-220c21 -134 93 -199 194 -199c73 0 127 27 168 59l27 -56c-52 -40 -119 -67 -199 -67c-138 0 -235 91 -259 263h-56v45h51
c-1 13 -1 27 -1 41c0 11 0 22 1 33h-51v46h54c22 178 121 272 262 272c86 0 144 -35 193 -78z" />
    <glyph glyph-name="cent" unicode="&#xa2;" 
d="M517 112l28 -53c-56 -44 -132 -73 -215 -73c-21 0 -41 2 -60 4l-34 -125l-44 12l34 123c-123 34 -176 134 -176 260c0 160 107 277 274 277c17 0 34 -1 50 -4l29 105l44 -11l-29 -105c82 -28 127 -95 131 -183l-57 -12c-4 67 -33 117 -90 139l-116 -418
c15 -2 32 -3 49 -3c69 0 133 31 182 67zM115 262c0 -97 39 -174 127 -204l116 419c-11 2 -22 3 -34 3c-129 0 -209 -92 -209 -218z" />
    <glyph glyph-name="sterling" unicode="&#xa3;" 
d="M457 325h-225c10 -53 20 -104 20 -151c0 -10 0 -20 -1 -29c43 -24 108 -96 161 -96c70 0 91 63 91 163h55v-22c0 -121 -41 -200 -136 -200c-69 0 -134 76 -182 107c-16 -59 -46 -107 -113 -107c-58 0 -88 39 -88 93c0 55 40 94 100 94c20 0 44 -6 54 -12v10
c0 44 -13 95 -26 150h-100v46h90c-8 39 -13 81 -13 124c0 109 63 195 196 195c100 0 171 -64 194 -90l-26 -57c-27 30 -71 84 -157 84c-94 0 -139 -62 -139 -145c0 -37 5 -74 11 -111h234v-46zM144 135c-33 0 -59 -21 -59 -53c0 -26 11 -48 43 -48c42 0 55 41 61 87
c-10 7 -28 14 -45 14z" />
    <glyph glyph-name="florin" unicode="&#x192;" horiz-adv-x="446" 
d="M406 325h-162v-364c0 -90 -45 -159 -142 -159c-51 0 -95 24 -115 44l17 56c17 -16 42 -39 84 -39c64 0 88 42 88 98v364h-161v46h161v193c0 89 44 156 141 156c55 0 95 -25 115 -44l-16 -58c-17 17 -43 41 -85 41c-64 0 -87 -42 -87 -99v-189h162v-46z" />
    <glyph glyph-name="yen" unicode="&#xa5;" 
d="M507 155h-174v-155h-68v155h-174v46h174v73h-174v46h155l-203 354v6h71l185 -336l186 336h72v-6l-206 -354h156v-46h-174v-73h174v-46z" />
    <glyph glyph-name="ordfeminine" unicode="&#xaa;" horiz-adv-x="496" 
d="M124 620l-10 45c27 13 77 22 110 22c77 0 127 -32 127 -108v-151c0 -24 7 -39 29 -39c10 0 22 5 35 13l4 -40c-14 -8 -36 -16 -58 -16c-32 0 -49 16 -56 44c-22 -22 -56 -44 -107 -44c-69 0 -114 39 -114 104c0 76 68 114 166 114c18 0 37 -3 51 -6v17
c0 50 -23 69 -76 69c-36 0 -75 -10 -101 -24zM98 258h303v-43h-303v43zM132 453c0 -40 32 -64 79 -64c43 0 72 20 90 36v97c-11 4 -31 6 -49 6c-72 0 -120 -21 -120 -75z" />
    <glyph glyph-name="ordmasculine" unicode="&#xba;" horiz-adv-x="509" 
d="M81 517c0 98 73 172 174 172c102 0 174 -74 174 -172s-72 -171 -174 -171c-101 0 -174 73 -174 171zM128 517c0 -72 52 -126 127 -126s126 54 126 126s-51 127 -126 127s-127 -55 -127 -127zM104 258h303v-43h-303v43z" />
    <glyph glyph-name="onesuperior" unicode="&#xb9;" horiz-adv-x="252" 
d="M18 717l135 67h35v-319h-43v272l-110 -54z" />
    <glyph glyph-name="twosuperior" unicode="&#xb2;" horiz-adv-x="330" 
d="M288 466h-239v34l131 99c37 27 55 53 55 85c0 37 -24 66 -72 66c-54 0 -80 -33 -81 -77l-40 6c2 66 45 111 121 111c78 0 115 -45 115 -105c0 -39 -21 -78 -68 -112l-94 -69h172v-38z" />
    <glyph glyph-name="threesuperior" unicode="&#xb3;" horiz-adv-x="327" 
d="M79 648h82c43 0 67 26 67 52c0 37 -31 52 -79 52c-41 0 -67 -8 -96 -22l-10 38c20 8 61 22 106 22c76 0 122 -31 122 -86c0 -34 -21 -65 -60 -72c45 -8 71 -35 71 -79c0 -57 -51 -92 -133 -92c-50 0 -91 15 -107 21l11 37c16 -7 53 -20 96 -20c50 0 89 22 89 60
c0 33 -27 52 -77 52h-82v37z" />
    <glyph glyph-name="fraction" unicode="&#x2044;" horiz-adv-x="138" 
d="M-138 6l369 674h44v-6l-368 -674h-45v6z" />
    <glyph glyph-name="uni2215" unicode="&#x2215;" horiz-adv-x="138" 
d="M-138 6l369 674h44v-6l-368 -674h-45v6z" />
    <glyph glyph-name="onehalf" unicode="&#xbd;" horiz-adv-x="733" 
d="M131 6l369 674h44v-6l-368 -674h-45v6zM442 0v34l131 99c37 27 55 53 55 85c0 37 -24 66 -72 66c-54 0 -80 -33 -81 -77l-40 6c2 66 45 111 121 111c78 0 115 -45 115 -105c0 -39 -21 -78 -68 -112l-94 -69h172v-38h-239zM35 612l135 67h35v-319h-43v272l-110 -54z" />
    <glyph glyph-name="onethird" unicode="&#x2153;" horiz-adv-x="761" 
d="M131 6l369 674h44v-6l-368 -674h-45v6zM35 612l135 67h35v-319h-43v272l-110 -54zM504 182h82c43 0 67 25 67 51c0 37 -31 52 -79 52c-41 0 -67 -8 -96 -21l-10 37c20 8 61 22 106 22c76 0 122 -31 122 -86c0 -33 -21 -65 -60 -72c45 -8 71 -35 71 -79
c0 -57 -51 -92 -133 -92c-50 0 -91 15 -107 21l11 37c16 -7 53 -20 96 -20c50 0 89 22 89 60c0 33 -27 52 -77 52h-82v38z" />
    <glyph glyph-name="onequarter" unicode="&#xbc;" horiz-adv-x="756" 
d="M715 67h-67v-67h-43v67h-189v31l179 221l10 -2v2h43v-218h67v-34zM131 6l369 674h44v-6l-368 -674h-45v6zM35 617l135 67h35v-319h-43v272l-110 -54zM462 101h143v176z" />
    <glyph glyph-name="oneeighth" unicode="&#x215b;" horiz-adv-x="761" 
d="M131 6l369 674h44v-6l-368 -674h-45v6zM575 -6c-81 0 -131 35 -131 92c0 44 30 72 80 80c-42 6 -69 38 -69 71c0 55 46 86 120 86c75 0 121 -31 121 -86c0 -33 -27 -65 -69 -71c50 -8 80 -36 80 -80c0 -57 -51 -92 -132 -92zM576 149c-61 0 -89 -25 -89 -57
c0 -38 38 -62 88 -62c51 0 89 24 89 62c0 32 -27 57 -88 57zM575 287c-45 0 -78 -18 -78 -53c0 -27 23 -54 79 -54c55 0 77 27 77 54c0 35 -31 53 -78 53zM35 617l135 67h35v-319h-43v272l-110 -54z" />
    <glyph glyph-name="twothirds" unicode="&#x2154;" horiz-adv-x="833" 
d="M207 6l369 674h44v-6l-368 -674h-45v6zM581 182h82c43 0 67 25 67 51c0 37 -31 52 -79 52c-41 0 -67 -8 -96 -21l-10 37c20 8 61 22 106 22c76 0 122 -31 122 -86c0 -33 -21 -65 -60 -72c45 -8 71 -35 71 -79c0 -57 -51 -92 -133 -92c-50 0 -91 15 -107 21l11 37
c16 -7 53 -20 96 -20c50 0 89 22 89 60c0 33 -27 52 -77 52h-82v38zM302 366h-239v34l131 99c37 27 55 53 55 85c0 37 -24 66 -72 66c-54 0 -80 -33 -81 -77l-40 6c2 66 45 111 121 111c78 0 115 -45 115 -105c0 -39 -21 -78 -68 -112l-94 -69h172v-38z" />
    <glyph glyph-name="threequarters" unicode="&#xbe;" horiz-adv-x="820" 
d="M782 67h-67v-67h-43v67h-189v31l179 221l10 -2v2h43v-218h67v-34zM198 6l369 674h44v-6l-368 -674h-45v6zM94 548h82c43 0 67 26 67 52c0 37 -31 52 -79 52c-41 0 -67 -8 -96 -22l-10 38c20 8 61 22 106 22c76 0 122 -31 122 -86c0 -34 -21 -65 -60 -72
c45 -8 71 -35 71 -79c0 -57 -51 -92 -133 -92c-50 0 -91 15 -107 21l11 37c16 -7 53 -20 96 -20c50 0 89 22 89 60c0 33 -27 52 -77 52h-82v37zM529 101h143v176z" />
    <glyph glyph-name="threeeighths" unicode="&#x215c;" horiz-adv-x="821" 
d="M196 6l369 674h44v-6l-368 -674h-45v6zM640 -6c-81 0 -131 35 -131 92c0 44 30 72 80 80c-42 6 -69 38 -69 71c0 55 46 86 120 86c75 0 121 -31 121 -86c0 -33 -27 -65 -69 -71c50 -8 80 -36 80 -80c0 -57 -51 -92 -132 -92zM641 149c-61 0 -89 -25 -89 -57
c0 -38 38 -62 88 -62c51 0 89 24 89 62c0 32 -27 57 -88 57zM640 287c-45 0 -78 -18 -78 -53c0 -27 23 -54 79 -54c55 0 77 27 77 54c0 35 -31 53 -78 53zM92 548h82c43 0 67 26 67 52c0 37 -31 52 -79 52c-41 0 -67 -8 -96 -22l-10 38c20 8 61 22 106 22
c76 0 122 -31 122 -86c0 -34 -21 -65 -60 -72c45 -8 71 -35 71 -79c0 -57 -51 -92 -133 -92c-50 0 -91 15 -107 21l11 37c16 -7 53 -20 96 -20c50 0 89 22 89 60c0 33 -27 52 -77 52h-82v37z" />
    <glyph glyph-name="fiveeighths" unicode="&#x215d;" horiz-adv-x="821" 
d="M639 -6c-81 0 -131 35 -131 92c0 44 30 72 80 80c-42 6 -69 38 -69 71c0 55 46 86 120 86c75 0 121 -31 121 -86c0 -33 -27 -65 -69 -71c50 -8 80 -36 80 -80c0 -57 -51 -92 -132 -92zM195 6l369 674h44v-6l-368 -674h-45v6zM71 524l-2 2l13 158h203v-38h-166l-7 -88h52
c78 0 131 -27 131 -90c0 -76 -61 -108 -134 -108c-56 0 -94 16 -110 23l12 36c16 -7 50 -21 96 -21c47 0 93 19 93 68c0 43 -38 58 -90 58h-91zM640 149c-61 0 -89 -25 -89 -57c0 -38 38 -62 88 -62c51 0 89 24 89 62c0 32 -27 57 -88 57zM639 287c-45 0 -78 -18 -78 -53
c0 -27 23 -54 79 -54c55 0 77 27 77 54c0 35 -31 53 -78 53z" />
    <glyph glyph-name="seveneighths" unicode="&#x215e;" horiz-adv-x="763" 
d="M137 6l369 674h44v-6l-368 -674h-45v6zM581 -6c-81 0 -131 35 -131 92c0 44 30 72 80 80c-42 6 -69 38 -69 71c0 55 46 86 120 86c75 0 121 -31 121 -86c0 -33 -27 -65 -69 -71c50 -8 80 -36 80 -80c0 -57 -51 -92 -132 -92zM582 149c-61 0 -89 -25 -89 -57
c0 -38 38 -62 88 -62c51 0 89 24 89 62c0 32 -27 57 -88 57zM581 287c-45 0 -78 -18 -78 -53c0 -27 23 -54 79 -54c55 0 77 27 77 54c0 35 -31 53 -78 53zM83 369l138 277h-182v38h230v-32l-139 -287h-47v4z" />
    <glyph glyph-name="perthousand" unicode="&#x2030;" horiz-adv-x="1240" 
d="M851 161c0 98 73 173 174 173c102 0 174 -75 174 -173s-72 -171 -174 -171c-101 0 -174 73 -174 171zM906 161c0 -68 49 -119 119 -119c71 0 119 51 119 119s-48 120 -119 120c-70 0 -119 -52 -119 -120zM459 161c0 98 73 173 174 173c102 0 174 -75 174 -173
s-72 -171 -174 -171c-101 0 -174 73 -174 171zM514 161c0 -68 49 -119 119 -119s119 51 119 119s-49 120 -119 120s-119 -52 -119 -120zM209 6l360 674h62v-6l-360 -674h-62v6zM44 517c0 98 73 172 174 172c102 0 174 -74 174 -172s-72 -171 -174 -171
c-101 0 -174 73 -174 171zM99 517c0 -68 49 -119 119 -119s119 51 119 119s-49 120 -119 120s-119 -52 -119 -120z" />
    <glyph glyph-name="minus" unicode="&#x2212;" 
d="M72 330h456v-56h-456v56z" />
    <glyph glyph-name="plusminus" unicode="&#xb1;" 
d="M328 641v-200h200v-56h-200v-157h-56v157h-200v56h200v200h56zM72 137h456v-56h-456v56z" />
    <glyph glyph-name="multiply" unicode="&#xd7;" 
d="M481 443l-142 -141l142 -141l-40 -40l-141 142l-141 -142l-40 40l141 141l-141 141l40 40l141 -141l141 141z" />
    <glyph glyph-name="divide" unicode="&#xf7;" 
d="M72 330h456v-56h-456v56zM241 478c0 34 18 54 51 54s53 -20 53 -54c0 -35 -20 -54 -53 -54s-51 19 -51 54zM241 127c0 34 18 53 51 53s53 -19 53 -53c0 -36 -20 -54 -53 -54s-51 18 -51 54z" />
    <glyph glyph-name="notequal" unicode="&#x2260;" 
d="M175 42l33 91h-136v56h156l83 227h-239v56h259l41 112l44 -14l-36 -98h148v-56h-168l-82 -227h250v-56h-270l-38 -105z" />
    <glyph glyph-name="approxequal" unicode="&#x2248;" 
d="M512 473l22 -41c-33 -45 -69 -60 -112 -60c-78 0 -172 67 -241 67c-25 0 -65 -6 -93 -44l-21 42c27 41 64 59 111 59c78 0 179 -67 241 -67c32 0 67 12 93 44zM512 196l21 -41c-33 -44 -68 -59 -112 -59c-78 0 -172 66 -241 66c-24 0 -65 -6 -93 -44l-21 43
c28 40 65 58 111 58c79 0 180 -66 242 -66c32 0 66 11 93 43z" />
    <glyph glyph-name="lessequal" unicode="&#x2264;" 
d="M71 137h456v-56h-456v56zM71 385v55l451 182h6v-53l-393 -156l393 -154v-54h-6z" />
    <glyph glyph-name="greaterequal" unicode="&#x2265;" 
d="M72 137h456v-56h-456v56zM528 440v-55l-451 -180h-6v54l393 154l-393 156v53h6z" />
    <glyph glyph-name="logicalnot" unicode="&#xac;" 
d="M472 134v200h-401v56h457v-256h-56z" />
    <glyph glyph-name="Delta" unicode="&#x2206;" horiz-adv-x="714" 
d="M33 0l292 680h78l276 -680h-646zM363 611l-242 -557h471z" />
    <glyph glyph-name="uni0394" unicode="&#x394;" horiz-adv-x="714" 
d="M33 0l292 680h78l276 -680h-646zM363 611l-242 -557h471z" />
    <glyph glyph-name="Omega" unicode="&#x2126;" horiz-adv-x="846" 
d="M479 0v57c129 34 228 141 228 282c0 165 -118 287 -285 287c-165 0 -282 -122 -282 -287c0 -144 92 -250 226 -282v-57h-273v56h164c-108 48 -184 158 -184 293c0 191 148 341 349 341c204 0 351 -150 351 -341c0 -133 -77 -243 -183 -293h163v-56h-274z" />
    <glyph glyph-name="uni03A9" unicode="&#x3a9;" horiz-adv-x="846" 
d="M479 0v57c129 34 228 141 228 282c0 165 -118 287 -285 287c-165 0 -282 -122 -282 -287c0 -144 92 -250 226 -282v-57h-273v56h164c-108 48 -184 158 -184 293c0 191 148 341 349 341c204 0 351 -150 351 -341c0 -133 -77 -243 -183 -293h163v-56h-274z" />
    <glyph glyph-name="mu" unicode="&#xb5;" horiz-adv-x="644" 
d="M172 523v-297c2 -106 46 -173 152 -173c91 0 150 59 171 122v348h68v-523h-68v85c-39 -60 -106 -95 -192 -95c-56 0 -99 16 -131 44v-222h-68v711h68z" />
    <glyph glyph-name="uni03BC" unicode="&#x3bc;" horiz-adv-x="648" 
d="M163 523v-297c2 -106 46 -173 152 -173c91 0 150 59 171 122v348h68v-523h-68v85c-39 -60 -106 -95 -192 -95c-56 0 -99 16 -131 44v-222h-68v711h68z" />
    <glyph glyph-name="pi" unicode="&#x3c0;" horiz-adv-x="708" 
d="M31 523h648v-56h-139v-352c0 -39 12 -66 48 -66c20 0 42 11 57 22l9 -55c-15 -12 -53 -26 -89 -26c-63 0 -93 38 -93 112v365h-242v-467h-68v467h-131v56z" />
    <glyph glyph-name="degree" unicode="&#xb0;" horiz-adv-x="462" 
d="M57 517c0 98 73 172 174 172c102 0 174 -74 174 -172s-72 -171 -174 -171c-101 0 -174 73 -174 171zM108 517c0 -70 51 -122 123 -122c73 0 123 52 123 122s-50 123 -123 123c-72 0 -123 -53 -123 -123z" />
    <glyph glyph-name="afii61289" unicode="&#x2113;" horiz-adv-x="411" 
d="M78 127l-30 50l67 46v270c0 124 51 196 141 196c75 0 109 -50 109 -135c0 -152 -91 -288 -169 -355v-56c0 -61 24 -82 67 -82c28 0 51 10 67 21l-2 -79c-18 -7 -51 -13 -84 -13c-81 0 -129 35 -129 129v36zM196 502v-228c53 52 111 144 111 287c0 46 -16 69 -47 69
c-35 0 -64 -40 -64 -128z" />
    <glyph glyph-name="estimated" unicode="&#x212e;" horiz-adv-x="698" 
d="M355 601c196 0 279 -151 279 -307v-26h-431v-169c37 -36 88 -58 152 -58c89 0 149 37 184 104h66c-38 -92 -119 -157 -250 -157c-194 0 -278 151 -278 306c0 156 84 307 278 307zM355 548c-64 0 -115 -21 -152 -58v-170h304v170c-37 37 -87 58 -152 58z" />
    <glyph glyph-name="eng" unicode="&#x14b;" horiz-adv-x="640" 
d="M485 18v274c0 101 -49 176 -152 176c-89 0 -151 -60 -170 -132v-336h-68v523h68v-96c36 65 103 105 191 105c135 0 199 -100 199 -231v-279c0 -115 -58 -180 -137 -218l-38 42c62 35 107 83 107 172z" />
    <glyph glyph-name="Eng" unicode="&#x14a;" horiz-adv-x="836" 
d="M656 15l-476 556v-571h-68v680h61l483 -571v571h68v-658c0 -115 -59 -180 -138 -218l-38 42c62 35 108 83 108 169z" />
    <glyph glyph-name="infinity" unicode="&#x221e;" horiz-adv-x="845" 
d="M131 299c0 -73 47 -112 109 -112c40 0 73 22 103 58l45 54l-45 54c-30 37 -63 58 -103 58c-62 0 -109 -40 -109 -112zM423 264l-46 -54c-40 -45 -83 -74 -143 -74c-88 0 -156 62 -156 163s68 163 156 163c60 0 104 -29 143 -74l45 -54l47 54c40 44 81 74 142 74
c89 0 156 -62 156 -163s-67 -163 -156 -163c-61 0 -102 29 -143 74zM714 299c0 72 -47 112 -109 112c-40 0 -72 -21 -103 -58l-45 -54l45 -54c31 -37 63 -58 103 -58c62 0 109 39 109 112z" />
    <glyph glyph-name="partialdiff" unicode="&#x2202;" horiz-adv-x="618" 
d="M265 454c113 0 183 -78 215 -126v13c0 181 -123 296 -236 334l27 45c137 -36 277 -175 277 -379c0 -211 -98 -351 -270 -351c-132 0 -230 97 -230 239c0 138 84 225 217 225zM280 53c110 0 177 85 195 213c-26 43 -92 130 -197 130c-94 0 -162 -59 -162 -168
c0 -99 68 -175 164 -175z" />
    <glyph glyph-name="integral" unicode="&#x222b;" horiz-adv-x="456" 
d="M194 -39v602c0 89 45 156 141 156c56 0 95 -25 116 -44l-17 -58c-16 17 -43 41 -85 41c-63 0 -87 -41 -87 -98v-600c0 -90 -45 -159 -142 -159c-51 0 -94 24 -115 45l18 56c17 -17 42 -39 84 -39c63 0 87 41 87 98z" />
    <glyph glyph-name="radical" unicode="&#x221a;" horiz-adv-x="634" 
d="M172 442l185 -366l194 622l42 -15l-216 -683h-48l-187 364l-95 -50l-24 47z" />
    <glyph glyph-name="summation" unicode="&#x2211;" horiz-adv-x="526" 
d="M59 0v41l211 299l-213 300v40h408v-56h-324l199 -284l-197 -284h322v-56h-406z" />
    <glyph glyph-name="product" unicode="&#x220f;" horiz-adv-x="711" 
d="M175 -188h-65v868h491v-868h-65v807h-361v-807z" />
    <glyph glyph-name="lozenge" unicode="&#x25ca;" horiz-adv-x="558" 
d="M517 330l-215 -330h-47l-214 330l214 349h47zM456 329l-177 290l-177 -290l177 -271z" />
    <glyph glyph-name="uniF8FF" unicode="&#xf8ff;" horiz-adv-x="612" 
d="M50 720h512v-720h-512v720zM266 283h48c0 95 136 100 136 197c0 65 -48 119 -138 119c-111 0 -133 -91 -133 -136h47c0 49 24 93 86 93c56 0 87 -34 87 -76c0 -71 -133 -85 -133 -197zM255 194v-71h68v71h-68z" />
    <glyph glyph-name="zero.tf" 
d="M43 339c0 206 78 351 256 351c179 0 257 -145 257 -351c0 -204 -78 -349 -257 -349c-178 0 -256 145 -256 349zM110 339c0 -160 49 -284 189 -284c141 0 191 124 191 284c0 162 -50 288 -191 288c-140 0 -189 -126 -189 -288z" />
    <glyph glyph-name="one.tf" 
d="M543 0h-482v61h236v544l-216 -99l-23 55l254 119h53v-619h178v-61z" />
    <glyph glyph-name="two.tf" 
d="M546 0h-482v54l275 218c80 64 116 122 116 198c0 87 -50 157 -160 157c-117 0 -177 -76 -179 -178l-62 10c3 136 88 231 241 231c158 0 230 -95 230 -215c0 -91 -36 -165 -133 -241l-224 -173h378v-61z" />
    <glyph glyph-name="three.tf" 
d="M131 381h175c101 0 152 60 152 125c0 80 -78 124 -183 124c-90 0 -169 -30 -205 -49l-18 59c43 20 126 50 223 50c155 0 252 -64 252 -179c0 -74 -53 -143 -138 -156c98 -16 162 -74 162 -171c0 -121 -109 -194 -276 -194c-108 0 -191 33 -226 47l19 59
c33 -15 111 -46 207 -46c116 0 206 52 206 143c0 79 -59 128 -175 128h-175v60z" />
    <glyph glyph-name="four.tf" 
d="M566 150h-88v-150h-68v150h-376v48l357 482h87v-477h88v-53zM107 203h303v409z" />
    <glyph glyph-name="five.tf" 
d="M96 351l-3 5l26 324h406v-61h-349l-17 -214h124c154 0 263 -54 263 -189c0 -160 -127 -226 -269 -226c-116 0 -189 33 -223 49l20 59c32 -16 103 -48 201 -48c102 0 201 44 201 164c0 102 -85 137 -197 137h-183z" />
    <glyph glyph-name="six.tf" 
d="M525 626l-24 -56c-31 27 -95 60 -173 60c-140 0 -210 -119 -210 -289v-8c31 46 99 121 211 121c137 0 220 -83 220 -225s-98 -239 -229 -239c-172 0 -270 140 -270 351c0 207 98 349 272 349c95 0 170 -38 203 -64zM318 396c-104 0 -169 -86 -195 -129
c18 -128 84 -214 194 -214c96 0 165 76 165 176c0 110 -68 167 -164 167z" />
    <glyph glyph-name="seven.tf" 
d="M164 7l296 612h-397v61h474v-51l-297 -629h-76v7z" />
    <glyph glyph-name="eight.tf" 
d="M300 -10c-154 0 -255 73 -255 194c0 97 59 155 157 171c-84 12 -135 82 -135 156c0 115 91 179 233 179s233 -64 233 -179c0 -74 -51 -144 -135 -156c98 -16 157 -74 157 -171c0 -121 -101 -194 -255 -194zM302 320c-130 0 -188 -53 -188 -130c0 -88 81 -141 186 -141
s186 53 186 141c0 77 -55 130 -184 130zM300 632c-97 0 -165 -41 -165 -124c0 -62 45 -123 167 -123c118 0 163 61 163 123c0 83 -68 124 -165 124z" />
    <glyph glyph-name="nine.tf" 
d="M271 50c140 0 210 119 210 289v8c-32 -47 -100 -121 -211 -121c-137 0 -220 83 -220 225s97 239 229 239c173 0 270 -140 270 -351c0 -207 -97 -349 -271 -349c-96 0 -171 38 -204 64l23 56c32 -27 96 -60 174 -60zM282 284c102 0 168 86 194 129
c-19 128 -86 214 -194 214c-94 0 -165 -76 -165 -176c0 -110 69 -167 165 -167z" />
    <glyph glyph-name="Euro.tf" 
d="M552 612l-26 -53c-47 43 -104 68 -162 68c-104 0 -178 -68 -197 -209h294l-22 -46h-276c-1 -11 -1 -22 -1 -33c0 -14 0 -28 1 -41h244l-19 -45h-220c21 -134 93 -199 194 -199c73 0 127 27 168 59l27 -56c-52 -40 -119 -67 -199 -67c-138 0 -235 91 -259 263h-56v45h51
c-1 13 -1 27 -1 41c0 11 0 22 1 33h-51v46h54c22 178 121 272 262 272c86 0 144 -35 193 -78z" />
    <glyph glyph-name="cent.tf" 
d="M517 112l28 -53c-56 -44 -132 -73 -215 -73c-21 0 -41 2 -60 4l-34 -125l-44 12l34 123c-123 34 -176 134 -176 260c0 160 107 277 274 277c17 0 34 -1 50 -4l29 105l44 -11l-29 -105c82 -28 127 -95 131 -183l-57 -12c-4 67 -33 117 -90 139l-116 -418
c15 -2 32 -3 49 -3c69 0 133 31 182 67zM115 262c0 -97 39 -174 127 -204l116 419c-11 2 -22 3 -34 3c-129 0 -209 -92 -209 -218z" />
    <glyph glyph-name="sterling.tf" 
d="M457 325h-225c10 -53 20 -104 20 -151c0 -10 0 -20 -1 -29c43 -24 108 -96 161 -96c70 0 91 63 91 163h55v-22c0 -121 -41 -200 -136 -200c-69 0 -134 76 -182 107c-16 -59 -46 -107 -113 -107c-58 0 -88 39 -88 93c0 55 40 94 100 94c20 0 44 -6 54 -12v10
c0 44 -13 95 -26 150h-100v46h90c-8 39 -13 81 -13 124c0 109 63 195 196 195c100 0 171 -64 194 -90l-26 -57c-27 30 -71 84 -157 84c-94 0 -139 -62 -139 -145c0 -37 5 -74 11 -111h234v-46zM144 135c-33 0 -59 -21 -59 -53c0 -26 11 -48 43 -48c42 0 55 41 61 87
c-10 7 -28 14 -45 14z" />
    <glyph glyph-name="florin.tf" horiz-adv-x="446" 
d="M406 325h-162v-364c0 -90 -45 -159 -142 -159c-51 0 -95 24 -115 44l17 56c17 -16 42 -39 84 -39c64 0 88 42 88 98v364h-161v46h161v193c0 89 44 156 141 156c55 0 95 -25 115 -44l-16 -58c-17 17 -43 41 -85 41c-64 0 -87 -42 -87 -99v-189h162v-46z" />
    <glyph glyph-name="yen.tf" 
d="M507 155h-174v-155h-68v155h-174v46h174v73h-174v46h155l-203 354v6h71l185 -336l186 336h72v-6l-206 -354h156v-46h-174v-73h174v-46z" />
    <glyph glyph-name="dollar.tf" 
d="M278 -129v119c-93 2 -180 34 -221 60l17 64c40 -25 119 -59 204 -61v263l-80 20c-95 23 -152 77 -152 163c0 93 73 179 232 189v81h46v-80c87 -3 170 -29 218 -55l-22 -64c-42 27 -123 52 -196 55v-252l46 -11c117 -29 184 -76 184 -171c0 -113 -93 -188 -230 -199v-121
h-46zM343 301l-19 4v-250c96 10 159 58 159 131c0 60 -48 93 -140 115zM116 503c0 -56 39 -88 109 -105l53 -13v240c-112 -8 -162 -63 -162 -122z" />
    <glyph glyph-name="zerosuperior" unicode="&#x2070;" horiz-adv-x="364" 
d="M45 625c0 98 43 165 137 165s137 -67 137 -165c0 -97 -43 -164 -137 -164s-137 67 -137 164zM87 625c0 -69 25 -124 95 -124s95 55 95 124c0 70 -25 125 -95 125s-95 -55 -95 -125z" />
    <glyph glyph-name="foursuperior" unicode="&#x2074;" horiz-adv-x="352" 
d="M324 532h-67v-67h-43v67h-189v31l179 221l10 -2v2h43v-218h67v-34zM71 566h143v176z" />
    <glyph glyph-name="fivesuperior" unicode="&#x2075;" horiz-adv-x="324" 
d="M58 624l-2 2l13 158h203v-38h-166l-7 -88h52c78 0 131 -27 131 -90c0 -76 -61 -108 -134 -108c-56 0 -94 16 -110 23l12 36c16 -7 50 -21 96 -21c47 0 93 19 93 68c0 43 -38 58 -90 58h-91z" />
    <glyph glyph-name="sixsuperior" unicode="&#x2076;" horiz-adv-x="352" 
d="M194 752c-72 0 -107 -52 -107 -126c16 20 51 51 107 51c74 0 117 -37 117 -104s-52 -112 -123 -112c-92 0 -144 66 -144 165c0 97 52 164 145 164c51 0 91 -17 109 -29l-14 -35c-16 11 -50 26 -90 26zM188 643c-51 0 -84 -34 -98 -52c10 -54 43 -90 98 -90
c47 0 81 32 81 72c0 48 -34 70 -81 70z" />
    <glyph glyph-name="sevensuperior" unicode="&#x2077;" horiz-adv-x="277" 
d="M69 469l138 277h-182v38h230v-32l-139 -287h-47v4z" />
    <glyph glyph-name="eightsuperior" unicode="&#x2078;" horiz-adv-x="352" 
d="M176 461c-81 0 -131 35 -131 92c0 44 30 71 79 80c-41 6 -68 37 -68 71c0 55 45 86 120 86s120 -31 120 -86c0 -34 -26 -65 -68 -71c49 -9 80 -36 80 -80c0 -57 -51 -92 -132 -92zM177 615c-62 0 -88 -24 -88 -56c0 -38 37 -63 87 -63c51 0 88 25 88 63
c0 32 -26 56 -87 56zM176 754c-45 0 -77 -18 -77 -53c0 -27 22 -55 78 -55c55 0 76 28 76 55c0 35 -31 53 -77 53z" />
    <glyph glyph-name="ninesuperior" unicode="&#x2079;" horiz-adv-x="352" 
d="M159 499c71 0 106 52 106 125c-17 -20 -51 -51 -107 -51c-73 0 -117 38 -117 104c0 67 53 113 124 113c91 0 143 -66 143 -165c0 -97 -52 -164 -144 -164c-51 0 -92 17 -109 28l13 36c17 -12 51 -26 91 -26zM164 608c51 0 84 33 98 51c-9 54 -42 91 -97 91
c-48 0 -81 -32 -81 -73c0 -47 33 -69 80 -69z" />
    <glyph glyph-name="zeroinferior" unicode="&#x2080;" horiz-adv-x="364" 
d="M45 59c0 98 43 165 137 165s137 -67 137 -165c0 -97 -43 -164 -137 -164s-137 67 -137 164zM87 59c0 -69 25 -124 95 -124s95 55 95 124c0 70 -25 125 -95 125s-95 -55 -95 -125z" />
    <glyph glyph-name="oneinferior" unicode="&#x2081;" horiz-adv-x="253" 
d="M19 151l135 68h35v-319h-43v270l-110 -51z" />
    <glyph glyph-name="twoinferior" unicode="&#x2082;" horiz-adv-x="328" 
d="M49 -100v34l131 99c37 27 55 53 55 85c0 37 -24 66 -72 66c-54 0 -80 -33 -81 -77l-40 6c2 66 45 111 121 111c78 0 115 -45 115 -105c0 -39 -21 -78 -68 -112l-94 -69h172v-38h-239z" />
    <glyph glyph-name="threeinferior" unicode="&#x2083;" horiz-adv-x="326" 
d="M79 83h82c43 0 67 25 67 51c0 37 -31 52 -79 52c-41 0 -67 -8 -96 -21l-10 37c20 8 61 22 106 22c76 0 122 -31 122 -86c0 -33 -21 -65 -60 -72c45 -8 71 -35 71 -79c0 -57 -51 -92 -133 -92c-50 0 -91 15 -107 21l11 37c16 -7 53 -20 96 -20c50 0 89 22 89 60
c0 33 -27 52 -77 52h-82v38z" />
    <glyph glyph-name="fourinferior" unicode="&#x2084;" horiz-adv-x="352" 
d="M324 -33h-67v-67h-43v67h-189v31l179 221l10 -2v2h43v-218h67v-34zM71 1h143v176z" />
    <glyph glyph-name="fiveinferior" unicode="&#x2085;" horiz-adv-x="324" 
d="M58 59l-3 2l14 158h203v-38h-167l-7 -89h53c79 0 131 -26 131 -90c0 -75 -61 -107 -134 -107c-57 0 -94 16 -111 23l12 36c16 -7 51 -21 97 -21c47 0 93 18 93 68c0 43 -39 58 -90 58h-91z" />
    <glyph glyph-name="sixinferior" unicode="&#x2086;" horiz-adv-x="352" 
d="M194 186c-72 0 -107 -52 -107 -126c16 20 51 52 107 52c74 0 117 -38 117 -104c0 -68 -52 -113 -123 -113c-92 0 -144 66 -144 165c0 97 52 164 145 164c51 0 91 -17 109 -28l-14 -36c-16 12 -50 26 -90 26zM188 77c-51 0 -84 -34 -98 -52c10 -53 43 -90 98 -90
c47 0 81 32 81 73c0 47 -34 69 -81 69z" />
    <glyph glyph-name="seveninferior" unicode="&#x2087;" horiz-adv-x="278" 
d="M70 -96l139 277h-184v38h231v-32l-139 -287h-47v4z" />
    <glyph glyph-name="eightinferior" unicode="&#x2088;" horiz-adv-x="351" 
d="M175 -105c-81 0 -131 35 -131 92c0 44 30 72 80 80c-42 6 -69 38 -69 71c0 55 46 86 120 86c75 0 121 -31 121 -86c0 -33 -27 -65 -69 -71c50 -8 80 -36 80 -80c0 -57 -51 -92 -132 -92zM176 50c-61 0 -89 -25 -89 -57c0 -38 38 -62 88 -62c51 0 89 24 89 62
c0 32 -27 57 -88 57zM175 188c-45 0 -78 -18 -78 -53c0 -27 23 -54 79 -54c55 0 77 27 77 54c0 35 -31 53 -78 53z" />
    <glyph glyph-name="nineinferior" unicode="&#x2089;" horiz-adv-x="352" 
d="M159 -67c71 0 106 52 106 126c-17 -20 -50 -51 -107 -51c-73 0 -117 37 -117 103c0 68 53 113 124 113c91 0 143 -66 143 -165c0 -97 -52 -164 -144 -164c-51 0 -92 17 -109 29l13 35c17 -11 51 -26 91 -26zM164 42c51 0 84 33 98 51c-9 54 -42 91 -97 91
c-48 0 -81 -32 -81 -73c0 -47 33 -69 80 -69z" />
    <glyph glyph-name="zero.denom" horiz-adv-x="364" 
d="M45 159c0 98 43 165 137 165s137 -67 137 -165c0 -97 -43 -164 -137 -164s-137 67 -137 164zM87 159c0 -69 25 -124 95 -124s95 55 95 124c0 70 -25 125 -95 125s-95 -55 -95 -125z" />
    <glyph glyph-name="one.denom" horiz-adv-x="253" 
d="M19 251l135 68h35v-319h-43v270l-110 -51z" />
    <glyph glyph-name="two.denom" horiz-adv-x="328" 
d="M49 0v34l131 99c37 27 55 53 55 85c0 37 -24 66 -72 66c-54 0 -80 -33 -81 -77l-40 6c2 66 45 111 121 111c78 0 115 -45 115 -105c0 -39 -21 -78 -68 -112l-94 -69h172v-38h-239z" />
    <glyph glyph-name="three.denom" horiz-adv-x="326" 
d="M79 183h82c43 0 67 25 67 51c0 37 -31 52 -79 52c-41 0 -67 -8 -96 -21l-10 37c20 8 61 22 106 22c76 0 122 -31 122 -86c0 -33 -21 -65 -60 -72c45 -8 71 -35 71 -79c0 -57 -51 -92 -133 -92c-50 0 -91 15 -107 21l11 37c16 -7 53 -20 96 -20c50 0 89 22 89 60
c0 33 -27 52 -77 52h-82v38z" />
    <glyph glyph-name="four.denom" horiz-adv-x="352" 
d="M324 67h-67v-67h-43v67h-189v31l179 221l10 -2v2h43v-218h67v-34zM71 101h143v176z" />
    <glyph glyph-name="five.denom" horiz-adv-x="324" 
d="M58 159l-3 2l14 158h203v-38h-167l-7 -89h53c79 0 131 -26 131 -90c0 -75 -61 -107 -134 -107c-57 0 -94 16 -111 23l12 36c16 -7 51 -21 97 -21c47 0 93 18 93 68c0 43 -39 58 -90 58h-91z" />
    <glyph glyph-name="six.denom" horiz-adv-x="352" 
d="M194 286c-72 0 -107 -52 -107 -126c16 20 51 52 107 52c74 0 117 -38 117 -104c0 -68 -52 -113 -123 -113c-92 0 -144 66 -144 165c0 97 52 164 145 164c51 0 91 -17 109 -28l-14 -36c-16 12 -50 26 -90 26zM188 177c-51 0 -84 -34 -98 -52c10 -54 43 -90 98 -90
c47 0 81 32 81 73c0 47 -34 69 -81 69z" />
    <glyph glyph-name="seven.denom" horiz-adv-x="278" 
d="M70 4l139 277h-184v38h231v-32l-139 -287h-47v4z" />
    <glyph glyph-name="eight.denom" horiz-adv-x="351" 
d="M175 -5c-81 0 -131 35 -131 92c0 44 30 72 80 80c-42 6 -69 38 -69 71c0 55 46 86 120 86c75 0 121 -31 121 -86c0 -33 -27 -65 -69 -71c50 -8 80 -36 80 -80c0 -57 -51 -92 -132 -92zM176 150c-61 0 -89 -25 -89 -57c0 -38 38 -62 88 -62c51 0 89 24 89 62
c0 32 -27 57 -88 57zM175 288c-45 0 -78 -18 -78 -53c0 -27 23 -54 79 -54c55 0 77 27 77 54c0 35 -31 53 -78 53z" />
    <glyph glyph-name="nine.denom" horiz-adv-x="352" 
d="M159 33c71 0 106 52 106 126c-17 -20 -50 -51 -107 -51c-73 0 -117 37 -117 103c0 68 53 113 124 113c91 0 143 -66 143 -165c0 -97 -52 -164 -144 -164c-51 0 -92 17 -109 29l13 35c17 -11 51 -26 91 -26zM164 142c51 0 84 33 98 51c-9 54 -42 91 -97 91
c-48 0 -81 -32 -81 -73c0 -47 33 -69 80 -69z" />
    <glyph glyph-name="zero.num" horiz-adv-x="364" 
d="M45 520c0 98 43 165 137 165s137 -67 137 -165c0 -97 -43 -164 -137 -164s-137 67 -137 164zM87 520c0 -69 25 -124 95 -124s95 55 95 124c0 70 -25 125 -95 125s-95 -55 -95 -125z" />
    <glyph glyph-name="one.num" horiz-adv-x="252" 
d="M19 612l135 67h35v-319h-43v272l-110 -54z" />
    <glyph glyph-name="two.num" horiz-adv-x="329" 
d="M288 361h-239v34l131 99c37 27 55 53 55 85c0 37 -24 66 -72 66c-54 0 -80 -33 -81 -77l-40 6c2 66 45 111 121 111c78 0 115 -45 115 -105c0 -39 -21 -78 -68 -112l-94 -69h172v-38z" />
    <glyph glyph-name="three.num" horiz-adv-x="327" 
d="M79 543h82c43 0 67 26 67 52c0 37 -31 52 -79 52c-41 0 -67 -8 -96 -22l-10 38c20 8 61 22 106 22c76 0 122 -31 122 -86c0 -34 -21 -65 -60 -72c45 -8 71 -35 71 -79c0 -57 -51 -92 -133 -92c-50 0 -91 15 -107 21l11 37c16 -7 53 -20 96 -20c50 0 89 22 89 60
c0 33 -27 52 -77 52h-82v37z" />
    <glyph glyph-name="four.num" horiz-adv-x="351" 
d="M323 427h-67v-67h-43v67h-189v31l179 221l10 -2v2h43v-218h67v-34zM70 461h143v176z" />
    <glyph glyph-name="five.num" horiz-adv-x="324" 
d="M57 519l-2 2l13 158h203v-38h-166l-7 -88h52c78 0 131 -27 131 -90c0 -76 -61 -108 -134 -108c-56 0 -94 16 -110 23l12 36c16 -7 50 -21 96 -21c47 0 93 19 93 68c0 43 -38 58 -90 58h-91z" />
    <glyph glyph-name="six.num" horiz-adv-x="352" 
d="M194 647c-72 0 -107 -52 -107 -126c16 20 51 51 107 51c74 0 117 -37 117 -104s-52 -112 -123 -112c-92 0 -144 66 -144 165c0 97 52 164 145 164c51 0 91 -17 109 -29l-14 -35c-16 11 -50 26 -90 26zM188 538c-51 0 -84 -34 -98 -52c10 -54 43 -90 98 -90
c47 0 81 32 81 72c0 48 -34 70 -81 70z" />
    <glyph glyph-name="seven.num" horiz-adv-x="279" 
d="M70 364l138 277h-182v38h230v-32l-139 -287h-47v4z" />
    <glyph glyph-name="eight.num" horiz-adv-x="351" 
d="M175 356c-81 0 -131 35 -131 92c0 44 30 71 79 80c-41 6 -68 37 -68 71c0 55 45 86 120 86s120 -31 120 -86c0 -34 -26 -65 -68 -71c49 -9 80 -36 80 -80c0 -57 -51 -92 -132 -92zM176 510c-62 0 -88 -24 -88 -56c0 -38 37 -63 87 -63c51 0 88 25 88 63
c0 32 -26 56 -87 56zM175 649c-45 0 -77 -18 -77 -53c0 -27 22 -55 78 -55c55 0 76 28 76 55c0 35 -31 53 -77 53z" />
    <glyph glyph-name="nine.num" horiz-adv-x="352" 
d="M159 394c71 0 106 52 106 125c-17 -20 -51 -51 -107 -51c-73 0 -117 38 -117 104c0 67 53 113 124 113c91 0 143 -66 143 -165c0 -97 -52 -164 -144 -164c-51 0 -92 17 -109 28l13 36c17 -12 51 -26 91 -26zM164 503c51 0 84 33 98 51c-9 54 -42 91 -97 91
c-48 0 -81 -32 -81 -73c0 -47 33 -69 80 -69z" />
    <glyph glyph-name="arrowleft" unicode="&#x2190;" horiz-adv-x="723" 
d="M172 327h474v-54h-473l183 -177l-35 -36l-244 241l244 238l36 -39z" />
    <glyph glyph-name="arrowup" unicode="&#x2191;" horiz-adv-x="723" 
d="M389 487v-473h-54v473l-177 -184l-36 36l240 244l238 -244l-38 -36z" />
    <glyph glyph-name="arrowright" unicode="&#x2192;" horiz-adv-x="723" 
d="M550 271h-473v54h473l-184 177l36 37l244 -242l-244 -237l-37 38z" />
    <glyph glyph-name="arrowdown" unicode="&#x2193;" horiz-adv-x="723" 
d="M333 109v474h54v-473l177 184l36 -35l-241 -245l-237 244l38 36z" />
    <glyph glyph-name="uni2196" unicode="&#x2196;" horiz-adv-x="723" 
d="M247 453l335 -336l-37 -38l-335 335l5 -255l-51 -1l-3 344l341 -5l-1 -53z" />
    <glyph glyph-name="uni2197" unicode="&#x2197;" horiz-adv-x="723" 
d="M514 413l-335 -335l-38 37l334 335l-255 -5v51l343 3l-4 -341c-18 0 -35 1 -53 1z" />
    <glyph glyph-name="uni2198" unicode="&#x2198;" horiz-adv-x="723" 
d="M476 146l-335 334l37 39l335 -335l-5 255l51 1l3 -343l-342 4l2 53z" />
    <glyph glyph-name="uni2199" unicode="&#x2199;" horiz-adv-x="723" 
d="M207 185l335 334l39 -37l-335 -335l255 5l1 -51l-344 -3l5 341l52 -1z" />
    <glyph glyph-name="parenleft.case" horiz-adv-x="283" 
d="M247 770c-45 -62 -128 -209 -128 -429c0 -218 83 -367 128 -428l-42 -26c-49 53 -148 213 -148 454c0 242 99 401 148 454z" />
    <glyph glyph-name="parenright.case" horiz-adv-x="283" 
d="M36 770l42 25c49 -53 148 -212 148 -454c0 -241 -99 -401 -148 -454l-42 26c46 61 128 210 128 428c0 220 -82 367 -128 429z" />
    <glyph glyph-name="hyphen.case" horiz-adv-x="530" 
d="M80 371h371v-57h-371v57z" />
    <glyph glyph-name="bracketleft.case" horiz-adv-x="324" 
d="M294 -108h-198v898h198v-56h-141v-785h141v-57z" />
    <glyph glyph-name="bracketright.case" horiz-adv-x="324" 
d="M30 790h197v-898h-197v57h141v785h-141v56z" />
    <glyph glyph-name="braceleft.case" horiz-adv-x="294" 
d="M246 790v-51h-31c-49 0 -78 -31 -78 -71c0 -63 63 -157 63 -240c0 -51 -20 -78 -75 -89c55 -11 75 -39 75 -93c0 -81 -63 -175 -63 -238c0 -40 29 -71 78 -71h31v-51h-37c-92 0 -128 51 -128 111c0 74 63 161 63 246c0 49 -29 73 -97 73v45c68 0 97 26 97 75
c0 85 -63 171 -63 245c0 58 36 109 128 109h37z" />
    <glyph glyph-name="bar.case" horiz-adv-x="249" 
d="M96 -108v898h57v-898h-57z" />
    <glyph glyph-name="braceright.case" horiz-adv-x="293" 
d="M47 790h37c92 0 128 -51 128 -109c0 -74 -62 -160 -62 -245c0 -49 28 -75 96 -75v-45c-68 0 -96 -24 -96 -73c0 -85 62 -172 62 -246c0 -60 -36 -111 -128 -111h-37v51h32c49 0 77 31 77 71c0 63 -62 157 -62 238c0 54 20 82 75 93c-55 11 -75 38 -75 89
c0 83 62 177 62 240c0 40 -28 71 -77 71h-32v51z" />
    <glyph glyph-name="guilsinglleft.case" horiz-adv-x="292" 
d="M41 335v15l159 199h6l24 -21l-130 -185l131 -186l-25 -20h-6z" />
    <glyph glyph-name="guilsinglright.case" horiz-adv-x="293" 
d="M252 350v-15l-159 -198h-6l-24 20l129 186l-130 185l25 21h6z" />
    <glyph glyph-name="guillemotleft.case" horiz-adv-x="498" 
d="M41 335v15l159 199h6l24 -21l-130 -185l131 -186l-25 -20h-6zM247 335v15l159 199h6l24 -21l-130 -185l131 -186l-25 -20h-6z" />
    <glyph glyph-name="guillemotright.case" horiz-adv-x="499" 
d="M252 350v-15l-159 -198h-6l-24 20l129 186l-130 185l25 21h6zM458 350v-15l-159 -198h-6l-24 20l129 186l-130 185l25 21h6z" />
    <glyph glyph-name="endash.case" horiz-adv-x="623" 
d="M80 371h463v-57h-463v57z" />
    <glyph glyph-name="emdash.case" horiz-adv-x="855" 
d="M80 371h695v-57h-695v57z" />
    <glyph glyph-name="bullet.case" horiz-adv-x="316" 
d="M74 342c0 57 30 88 82 88c54 0 85 -31 85 -88c0 -58 -31 -89 -85 -89c-52 0 -82 31 -82 89z" />
    <glyph glyph-name="periodcentered.case" horiz-adv-x="262" 
d="M76 338c0 36 19 56 54 56s55 -20 55 -56c0 -37 -20 -56 -55 -56s-54 19 -54 56z" />
    <glyph glyph-name="a.alt" horiz-adv-x="595" 
d="M109 435l-13 61c48 22 127 36 196 36c130 0 187 -59 187 -175v-242c0 -40 12 -66 48 -66c18 0 38 9 58 22l8 -55c-22 -15 -56 -26 -88 -26c-50 0 -80 22 -90 68c-37 -34 -95 -68 -182 -68c-117 0 -187 62 -187 159c0 128 107 185 267 185c34 0 69 -4 98 -11v28
c0 87 -42 120 -130 120c-58 0 -125 -13 -172 -36zM114 154c0 -66 51 -104 135 -104c77 0 130 35 162 63v155c-23 6 -62 11 -99 11c-116 0 -198 -34 -198 -125z" />
    <glyph glyph-name="agrave.alt" horiz-adv-x="595" 
d="M109 435l-13 61c48 22 127 36 196 36c130 0 187 -59 187 -175v-242c0 -40 12 -66 48 -66c18 0 38 9 58 22l8 -55c-22 -15 -56 -26 -88 -26c-50 0 -80 22 -90 68c-37 -34 -95 -68 -182 -68c-117 0 -187 62 -187 159c0 128 107 185 267 185c34 0 69 -4 98 -11v28
c0 87 -42 120 -130 120c-58 0 -125 -13 -172 -36zM114 154c0 -66 51 -104 135 -104c77 0 130 35 162 63v155c-23 6 -62 11 -99 11c-116 0 -198 -34 -198 -125zM269 604l-90 137h70l82 -137h-62z" />
    <glyph glyph-name="aacute.alt" horiz-adv-x="595" 
d="M109 435l-13 61c48 22 127 36 196 36c130 0 187 -59 187 -175v-242c0 -40 12 -66 48 -66c18 0 38 9 58 22l8 -55c-22 -15 -56 -26 -88 -26c-50 0 -80 22 -90 68c-37 -34 -95 -68 -182 -68c-117 0 -187 62 -187 159c0 128 107 185 267 185c34 0 69 -4 98 -11v28
c0 87 -42 120 -130 120c-58 0 -125 -13 -172 -36zM114 154c0 -66 51 -104 135 -104c77 0 130 35 162 63v155c-23 6 -62 11 -99 11c-116 0 -198 -34 -198 -125zM404 741l-90 -137h-62l82 137h70z" />
    <glyph glyph-name="acircumflex.alt" horiz-adv-x="595" 
d="M109 435l-13 61c48 22 127 36 196 36c130 0 187 -59 187 -175v-242c0 -40 12 -66 48 -66c18 0 38 9 58 22l8 -55c-22 -15 -56 -26 -88 -26c-50 0 -80 22 -90 68c-37 -34 -95 -68 -182 -68c-117 0 -187 62 -187 159c0 128 107 185 267 185c34 0 69 -4 98 -11v28
c0 87 -42 120 -130 120c-58 0 -125 -13 -172 -36zM114 154c0 -66 51 -104 135 -104c77 0 130 35 162 63v155c-23 6 -62 11 -99 11c-116 0 -198 -34 -198 -125zM378 604l-84 98l-83 -98h-60l109 137h69l109 -137h-60z" />
    <glyph glyph-name="atilde.alt" horiz-adv-x="595" 
d="M109 435l-13 61c48 22 127 36 196 36c130 0 187 -59 187 -175v-242c0 -40 12 -66 48 -66c18 0 38 9 58 22l8 -55c-22 -15 -56 -26 -88 -26c-50 0 -80 22 -90 68c-37 -34 -95 -68 -182 -68c-117 0 -187 62 -187 159c0 128 107 185 267 185c34 0 69 -4 98 -11v28
c0 87 -42 120 -130 120c-58 0 -125 -13 -172 -36zM114 154c0 -66 51 -104 135 -104c77 0 130 35 162 63v155c-23 6 -62 11 -99 11c-116 0 -198 -34 -198 -125zM163 626l-26 30c17 34 52 70 96 70c55 0 103 -68 143 -68c34 0 57 22 70 49l26 -29c-19 -38 -53 -70 -95 -70
c-54 0 -104 68 -143 68c-34 0 -56 -23 -71 -50z" />
    <glyph glyph-name="adieresis.alt" horiz-adv-x="595" 
d="M109 435l-13 61c48 22 127 36 196 36c130 0 187 -59 187 -175v-242c0 -40 12 -66 48 -66c18 0 38 9 58 22l8 -55c-22 -15 -56 -26 -88 -26c-50 0 -80 22 -90 68c-37 -34 -95 -68 -182 -68c-117 0 -187 62 -187 159c0 128 107 185 267 185c34 0 69 -4 98 -11v28
c0 87 -42 120 -130 120c-58 0 -125 -13 -172 -36zM114 154c0 -66 51 -104 135 -104c77 0 130 35 162 63v155c-23 6 -62 11 -99 11c-116 0 -198 -34 -198 -125zM390 671c0 33 20 45 47 45c25 0 44 -12 44 -45c0 -31 -19 -44 -44 -44c-27 0 -47 13 -47 44zM141 671
c0 33 19 45 46 45c25 0 45 -12 45 -45c0 -31 -20 -44 -45 -44c-27 0 -46 13 -46 44z" />
    <glyph glyph-name="amacron.alt" horiz-adv-x="595" 
d="M109 435l-13 61c48 22 127 36 196 36c130 0 187 -59 187 -175v-242c0 -40 12 -66 48 -66c18 0 38 9 58 22l8 -55c-22 -15 -56 -26 -88 -26c-50 0 -80 22 -90 68c-37 -34 -95 -68 -182 -68c-117 0 -187 62 -187 159c0 128 107 185 267 185c34 0 69 -4 98 -11v28
c0 87 -42 120 -130 120c-58 0 -125 -13 -172 -36zM114 154c0 -66 51 -104 135 -104c77 0 130 35 162 63v155c-23 6 -62 11 -99 11c-116 0 -198 -34 -198 -125zM414 636h-239v50h239v-50z" />
    <glyph glyph-name="abreve.alt" horiz-adv-x="595" 
d="M109 435l-13 61c48 22 127 36 196 36c130 0 187 -59 187 -175v-242c0 -40 12 -66 48 -66c18 0 38 9 58 22l8 -55c-22 -15 -56 -26 -88 -26c-50 0 -80 22 -90 68c-37 -34 -95 -68 -182 -68c-117 0 -187 62 -187 159c0 128 107 185 267 185c34 0 69 -4 98 -11v28
c0 87 -42 120 -130 120c-58 0 -125 -13 -172 -36zM114 154c0 -66 51 -104 135 -104c77 0 130 35 162 63v155c-23 6 -62 11 -99 11c-116 0 -198 -34 -198 -125zM168 688l24 30c18 -25 51 -56 108 -56c56 0 90 30 107 56l24 -30c-20 -35 -61 -75 -131 -75
c-69 0 -112 40 -132 75z" />
    <glyph glyph-name="aring.alt" horiz-adv-x="595" 
d="M109 435l-13 61c48 22 127 36 196 36c130 0 187 -59 187 -175v-242c0 -40 12 -66 48 -66c18 0 38 9 58 22l8 -55c-22 -15 -56 -26 -88 -26c-50 0 -80 22 -90 68c-37 -34 -95 -68 -182 -68c-117 0 -187 62 -187 159c0 128 107 185 267 185c34 0 69 -4 98 -11v28
c0 87 -42 120 -130 120c-58 0 -125 -13 -172 -36zM114 154c0 -66 51 -104 135 -104c77 0 130 35 162 63v155c-23 6 -62 11 -99 11c-116 0 -198 -34 -198 -125zM197 670c0 54 44 98 98 98s98 -44 98 -98s-44 -98 -98 -98s-98 44 -98 98zM232 670c0 -35 28 -63 63 -63
s63 28 63 63s-28 63 -63 63s-63 -28 -63 -63z" />
    <glyph glyph-name="aringacute.alt" horiz-adv-x="595" 
d="M109 435l-13 61c48 22 127 36 196 36c130 0 187 -59 187 -175v-242c0 -40 12 -66 48 -66c18 0 38 9 58 22l8 -55c-22 -15 -56 -26 -88 -26c-50 0 -80 22 -90 68c-37 -34 -95 -68 -182 -68c-117 0 -187 62 -187 159c0 128 107 185 267 185c34 0 69 -4 98 -11v28
c0 87 -42 120 -130 120c-58 0 -125 -13 -172 -36zM114 154c0 -66 51 -104 135 -104c77 0 130 35 162 63v155c-23 6 -62 11 -99 11c-116 0 -198 -34 -198 -125zM199 657c0 54 44 80 98 80s98 -26 98 -80s-44 -80 -98 -80s-98 26 -98 80zM234 657c0 -35 28 -47 63 -47
s63 12 63 47s-28 47 -63 47s-63 -12 -63 -47zM370 832l-52 -74h-49l46 74h55z" />
    <glyph glyph-name="aogonek.alt" horiz-adv-x="594" 
d="M109 435l-13 61c48 22 127 36 196 36c130 0 187 -59 187 -175v-242c0 -40 12 -66 48 -66c18 0 38 9 58 22l8 -55c-18 -12 -39 -20 -64 -23c-35 -13 -64 -32 -64 -70s25 -58 61 -58c19 0 39 5 57 16l8 -36c-18 -10 -43 -18 -73 -18c-53 0 -92 32 -92 89c0 37 23 62 51 77
c-33 7 -54 29 -62 65c-37 -34 -95 -68 -182 -68c-117 0 -187 62 -187 159c0 128 107 185 267 185c34 0 69 -4 98 -11v28c0 87 -42 120 -130 120c-58 0 -125 -13 -172 -36zM114 154c0 -66 51 -104 135 -104c77 0 130 35 162 63v155c-23 6 -62 11 -99 11
c-116 0 -198 -34 -198 -125z" />
    <glyph glyph-name="g.alt" horiz-adv-x="642" 
d="M479 523h68v-457c0 -168 -114 -264 -241 -264c-105 0 -171 53 -171 138c0 64 37 131 132 146c-117 9 -213 68 -213 219c0 126 85 227 245 227c73 0 142 -31 180 -67v58zM479 134v272c-32 32 -96 65 -163 65c-127 0 -194 -75 -194 -166c0 -130 104 -171 195 -171h162z
M479 76h-75c-118 0 -207 -39 -207 -121c0 -59 47 -94 111 -94c95 0 171 78 171 183v32z" />
    <glyph glyph-name="y.alt" horiz-adv-x="575" 
d="M22 523h73l201 -449l190 449h70l-228 -535c-54 -131 -96 -186 -184 -186c-70 0 -119 41 -119 110c0 92 88 140 214 144zM259 -12l7 17c-116 0 -177 -34 -177 -92c0 -27 16 -52 52 -52c58 0 82 39 118 127z" />
    <glyph glyph-name="asterisk.alt" horiz-adv-x="464" 
d="M110 368l79 131l-144 37l15 54l147 -43l-3 153h56l-3 -153l147 43l15 -54l-148 -38l83 -130l-44 -29l-79 132l-77 -132z" />
    <glyph glyph-name="gcircumflex.alt" horiz-adv-x="642" 
d="M479 523h68v-457c0 -168 -114 -264 -241 -264c-105 0 -171 53 -171 138c0 64 37 131 132 146c-117 9 -213 68 -213 219c0 126 85 227 245 227c73 0 142 -31 180 -67v58zM479 134v272c-32 32 -96 65 -163 65c-127 0 -194 -75 -194 -166c0 -130 104 -171 195 -171h162z
M479 76h-75c-118 0 -207 -39 -207 -121c0 -59 47 -94 111 -94c95 0 171 78 171 183v32zM410 604l-84 98l-83 -98h-60l109 137h69l109 -137h-60z" />
    <glyph glyph-name="gbreve.alt" horiz-adv-x="642" 
d="M199 688l24 30c18 -25 51 -56 108 -56c56 0 90 30 107 56l24 -30c-20 -35 -61 -75 -131 -75c-69 0 -112 40 -132 75zM479 523h68v-457c0 -168 -114 -264 -241 -264c-105 0 -171 53 -171 138c0 64 37 131 132 146c-117 9 -213 68 -213 219c0 126 85 227 245 227
c73 0 142 -31 180 -67v58zM479 134v272c-32 32 -96 65 -163 65c-127 0 -194 -75 -194 -166c0 -130 104 -171 195 -171h162zM479 76h-75c-118 0 -207 -39 -207 -121c0 -59 47 -94 111 -94c95 0 171 78 171 183v32z" />
    <glyph glyph-name="gdotaccent.alt" horiz-adv-x="642" 
d="M479 523h68v-457c0 -168 -114 -264 -241 -264c-105 0 -171 53 -171 138c0 64 37 131 132 146c-117 9 -213 68 -213 219c0 126 85 227 245 227c73 0 142 -31 180 -67v58zM479 134v272c-32 32 -96 65 -163 65c-127 0 -194 -75 -194 -166c0 -130 104 -171 195 -171h162z
M479 76h-75c-118 0 -207 -39 -207 -121c0 -59 47 -94 111 -94c95 0 171 78 171 183v32zM287 672c0 34 19 46 49 46c28 0 47 -12 47 -46c0 -33 -19 -46 -47 -46c-30 0 -49 13 -49 46z" />
    <glyph glyph-name="gcommaaccent.alt" horiz-adv-x="642" 
d="M479 523h68v-457c0 -168 -114 -264 -241 -264c-105 0 -171 53 -171 138c0 64 37 131 132 146c-117 9 -213 68 -213 219c0 126 85 227 245 227c73 0 142 -31 180 -67v58zM479 134v272c-32 32 -96 65 -163 65c-127 0 -194 -75 -194 -166c0 -130 104 -171 195 -171h162z
M479 76h-75c-118 0 -207 -39 -207 -121c0 -59 47 -94 111 -94c95 0 171 78 171 183v32zM356 766l-23 -70c33 -2 50 -21 50 -44c0 -32 -20 -49 -50 -49c-35 0 -55 21 -55 53c0 42 19 92 41 124z" />
    <glyph glyph-name="yacute.alt" horiz-adv-x="575" 
d="M413 741l-90 -137h-62l82 137h70zM22 523h73l201 -449l190 449h70l-228 -535c-54 -131 -96 -186 -184 -186c-70 0 -119 41 -119 110c0 92 88 140 214 144zM259 -12l7 17c-116 0 -177 -34 -177 -92c0 -27 16 -52 52 -52c58 0 82 39 118 127z" />
    <glyph glyph-name="ycircumflex.alt" horiz-adv-x="575" 
d="M22 523h73l201 -449l190 449h70l-228 -535c-54 -131 -96 -186 -184 -186c-70 0 -119 41 -119 110c0 92 88 140 214 144zM259 -12l7 17c-116 0 -177 -34 -177 -92c0 -27 16 -52 52 -52c58 0 82 39 118 127zM379 604l-84 98l-83 -98h-60l109 137h69l109 -137h-60z" />
    <glyph glyph-name="ydieresis.alt" horiz-adv-x="575" 
d="M22 523h73l201 -449l190 449h70l-228 -535c-54 -131 -96 -186 -184 -186c-70 0 -119 41 -119 110c0 92 88 140 214 144zM259 -12l7 17c-116 0 -177 -34 -177 -92c0 -27 16 -52 52 -52c58 0 82 39 118 127zM133 661c0 30 17 41 42 41c23 0 41 -11 41 -41
c0 -28 -18 -40 -41 -40c-25 0 -42 12 -42 40zM382 661c0 30 18 41 43 41c23 0 40 -11 40 -41c0 -28 -17 -40 -40 -40c-25 0 -43 12 -43 40z" />
    <glyph glyph-name="ygrave.alt" horiz-adv-x="575" 
d="M277 604l-90 137h70l82 -137h-62zM22 523h73l201 -449l190 449h70l-228 -535c-54 -131 -96 -186 -184 -186c-70 0 -119 41 -119 110c0 92 88 140 214 144zM259 -12l7 17c-116 0 -177 -34 -177 -92c0 -27 16 -52 52 -52c58 0 82 39 118 127z" />
    </font>
</defs>
</svg>
