<?xml version="1.0" standalone="no"?>
<!DOCTYPE svg PUBLIC "-//W3C//DTD SVG 1.1//EN" "http://www.w3.org/Graphics/SVG/1.1/DTD/svg11.dtd" >
<svg xmlns="http://www.w3.org/2000/svg" xmlns:xlink="http://www.w3.org/1999/xlink" version="1.1">
<metadata>
Created by FontForge 20161003 at Thu Oct  4 21:36:09 2018
 By www-data
Copyright (c) 2011 by Hannes von Doehren. All rights reserved.
</metadata>
<defs>
<font id="PlutoMedium" horiz-adv-x="600" >
  <font-face 
    font-family="Pluto Medium"
    font-weight="500"
    font-stretch="normal"
    units-per-em="1000"
    panose-1="2 11 6 3 2 2 3 6 2 4"
    ascent="750"
    descent="-250"
    x-height="523"
    cap-height="680"
    bbox="-134 -279 1267 907"
    underline-thickness="50"
    underline-position="-100"
    stemh="122"
    stemv="140"
    unicode-range="U+0020-FB02"
  />
<missing-glyph horiz-adv-x="612" 
d="M50 720h512v-720h-512v720zM266 283h48c0 95 136 100 136 197c0 65 -48 119 -138 119c-111 0 -133 -91 -133 -136h47c0 49 24 93 86 93c56 0 87 -34 87 -76c0 -71 -133 -85 -133 -197zM255 194v-71h68v71h-68z" />
    <glyph glyph-name=".notdef" horiz-adv-x="612" 
d="M50 720h512v-720h-512v720zM266 283h48c0 95 136 100 136 197c0 65 -48 119 -138 119c-111 0 -133 -91 -133 -136h47c0 49 24 93 86 93c56 0 87 -34 87 -76c0 -71 -133 -85 -133 -197zM255 194v-71h68v71h-68z" />
    <glyph glyph-name=".null" horiz-adv-x="0" 
 />
    <glyph glyph-name=".null" horiz-adv-x="0" 
 />
    <glyph glyph-name="space" unicode=" " horiz-adv-x="250" 
 />
    <glyph glyph-name="exclam" unicode="!" horiz-adv-x="314" 
d="M107 245l-21 435h141l-21 -435h-99zM71 71c0 54 31 85 86 85s87 -31 87 -85s-32 -84 -87 -84s-86 30 -86 84z" />
    <glyph glyph-name="quotedbl" unicode="&#x22;" horiz-adv-x="473" 
d="M182 680l-6 -254h-98l-6 254h110zM401 680l-6 -254h-98l-6 254h110z" />
    <glyph glyph-name="numbersign" unicode="#" horiz-adv-x="704" 
d="M334 11l36 142h-137l-38 -153h-105v11l36 142h-83v104h109l41 162h-79v104h106l40 157h103v-10l-37 -147h138l40 157h103v-10l-37 -147h92v-104h-118l-41 -162h88v-104h-114l-38 -153h-105v11zM300 419l-41 -162h137l41 162h-137z" />
    <glyph glyph-name="dollar" unicode="$" 
d="M260 -129v120c-90 6 -173 35 -213 58l33 133c43 -28 109 -56 180 -63v163l-68 19c-103 27 -156 90 -156 182c0 103 70 189 224 204v82h84v-81c84 -6 162 -29 208 -53l-40 -131c-41 26 -106 48 -168 55v-156l37 -10c123 -35 183 -91 183 -188c0 -113 -88 -194 -220 -211
v-123h-84zM181 495c0 -37 25 -52 74 -66l5 -2v131c-55 -8 -79 -32 -79 -63zM418 194c0 32 -27 50 -74 65v-136c48 11 74 37 74 71z" />
    <glyph glyph-name="percent" unicode="%" horiz-adv-x="896" 
d="M488 171c0 104 78 183 185 183c108 0 186 -79 186 -183s-78 -181 -186 -181c-107 0 -185 77 -185 181zM595 171c0 -44 32 -79 78 -79s78 35 78 79c0 45 -32 80 -78 80s-78 -35 -78 -80zM212 11l349 669h120v-10l-348 -670h-121v11zM37 507c0 104 78 183 185 183
c108 0 186 -79 186 -183s-78 -181 -186 -181c-107 0 -185 77 -185 181zM144 507c0 -44 32 -79 78 -79s78 35 78 79c0 45 -32 80 -78 80s-78 -35 -78 -80z" />
    <glyph glyph-name="ampersand" unicode="&#x26;" horiz-adv-x="781" 
d="M754 20v-20h-184l-55 52c-63 -38 -137 -62 -225 -62c-148 0 -239 75 -239 200c0 91 54 139 139 175c-42 44 -66 83 -66 148c0 93 78 177 222 177c132 0 225 -73 225 -175c0 -111 -70 -160 -155 -190l114 -102c42 47 77 104 102 168l106 -75c-26 -58 -65 -122 -116 -177z
M305 109c41 0 82 11 119 30l-146 140c-50 -19 -86 -40 -86 -80c0 -54 45 -90 113 -90zM261 505c0 -37 30 -67 61 -95l32 11c56 19 80 36 80 79c0 39 -31 70 -88 70c-60 0 -85 -30 -85 -65z" />
    <glyph glyph-name="quotesingle" unicode="'" horiz-adv-x="254" 
d="M182 680l-6 -254h-98l-6 254h110z" />
    <glyph glyph-name="parenleft" unicode="(" horiz-adv-x="321" 
d="M287 671c-49 -74 -116 -218 -116 -410c0 -190 67 -335 116 -409l-79 -45c-59 57 -160 221 -160 455s101 397 160 454z" />
    <glyph glyph-name="parenright" unicode=")" horiz-adv-x="321" 
d="M34 671l79 45c59 -57 160 -220 160 -454s-101 -398 -160 -455l-79 45c50 74 116 219 116 409c0 192 -66 336 -116 410z" />
    <glyph glyph-name="asterisk" unicode="*" horiz-adv-x="543" 
d="M238 531c-12 45 -17 89 -17 125c0 38 25 56 51 56c25 0 50 -18 50 -55s-9 -83 -19 -120c35 22 74 47 122 57c46 10 64 -22 64 -49c0 -29 -17 -45 -41 -51c-42 -10 -85 -14 -132 -14c34 -27 80 -71 100 -100c27 -38 -3 -80 -36 -80c-19 0 -37 6 -50 24
c-20 28 -47 83 -58 120c-14 -41 -38 -85 -57 -115c-17 -25 -41 -29 -53 -29c-43 0 -61 50 -33 86c19 24 58 63 89 87c-41 1 -91 14 -125 24c-25 7 -38 26 -38 45c0 33 24 66 69 52c31 -10 80 -39 114 -63z" />
    <glyph glyph-name="plus" unicode="+" 
d="M355 542v-184h184v-110h-184v-184h-110v184h-184v110h184v184h110z" />
    <glyph glyph-name="comma" unicode="," horiz-adv-x="293" 
d="M73 -141l44 130c-38 9 -57 39 -57 79c0 56 31 88 85 88c55 0 87 -35 87 -88c0 -75 -48 -186 -80 -240z" />
    <glyph glyph-name="hyphen" unicode="-" horiz-adv-x="546" 
d="M73 358h400v-110h-400v110z" />
    <glyph glyph-name="period" unicode="." horiz-adv-x="293" 
d="M60 71c0 54 31 85 86 85s87 -31 87 -85s-32 -84 -87 -84s-86 30 -86 84z" />
    <glyph glyph-name="slash" unicode="/" horiz-adv-x="502" 
d="M17 11l349 669h120v-10l-348 -670h-121v11z" />
    <glyph glyph-name="zero" unicode="0" horiz-adv-x="726" 
d="M65 339c0 213 98 351 297 351c201 0 299 -138 299 -351c0 -211 -98 -349 -299 -349c-199 0 -297 138 -297 349zM201 339c0 -122 39 -220 161 -220c125 0 163 98 163 220c0 124 -38 223 -163 223c-122 0 -161 -99 -161 -223z" />
    <glyph glyph-name="one" unicode="1" horiz-adv-x="515" 
d="M15 522l294 158h103v-680h-140v521l-204 -105z" />
    <glyph glyph-name="two" unicode="2" horiz-adv-x="663" 
d="M600 122v-122h-524v105l265 199c70 52 98 97 98 152c0 58 -38 106 -115 106c-94 0 -138 -58 -138 -139l-128 24c4 147 100 243 268 243c174 0 256 -108 256 -222c0 -85 -22 -156 -134 -236l-154 -110h306z" />
    <glyph glyph-name="three" unicode="3" horiz-adv-x="642" 
d="M147 288v122h152c76 0 114 32 114 79c0 54 -54 81 -129 81c-84 0 -168 -28 -197 -41l-32 119c43 17 139 42 227 42c178 0 273 -66 273 -187c0 -69 -37 -131 -105 -148c91 -29 129 -79 129 -169c0 -119 -103 -196 -297 -196c-99 0 -191 30 -226 42l34 117
c34 -15 111 -40 192 -40c91 0 153 37 153 98c0 57 -46 81 -136 81h-152z" />
    <glyph glyph-name="four" unicode="4" horiz-adv-x="716" 
d="M657 131h-116v-131h-133v131h-358v95l315 454h176v-433h116v-116zM193 247h215v307z" />
    <glyph glyph-name="five" unicode="5" horiz-adv-x="640" 
d="M556 680v-122h-322l-11 -142h72c175 0 283 -58 283 -193c0 -160 -123 -233 -294 -233c-114 0 -200 31 -236 45l36 116c34 -16 107 -42 193 -42c87 0 158 33 158 111c0 67 -60 93 -148 93h-195l-6 6l31 361h439z" />
    <glyph glyph-name="six" unicode="6" horiz-adv-x="701" 
d="M614 637l-39 -114c-35 21 -105 48 -181 48c-120 0 -175 -72 -187 -180c37 29 98 62 189 62c160 0 249 -83 249 -220c0 -148 -113 -243 -269 -243c-200 0 -312 140 -312 351c0 208 112 349 314 349c108 0 199 -33 236 -53zM375 339c-74 0 -131 -41 -164 -71
c17 -89 69 -150 165 -150c79 0 130 51 130 115c0 75 -55 106 -131 106z" />
    <glyph glyph-name="seven" unicode="7" horiz-adv-x="571" 
d="M112 13l274 545h-351v122h508v-98l-277 -582h-154v13z" />
    <glyph glyph-name="eight" unicode="8" horiz-adv-x="706" 
d="M353 -10c-187 0 -289 77 -289 196c0 94 46 150 144 169c-80 15 -121 79 -121 148c0 121 94 187 266 187s266 -66 266 -187c0 -69 -41 -133 -121 -148c99 -19 145 -75 145 -169c0 -119 -103 -196 -290 -196zM354 288c-103 0 -149 -36 -149 -87c0 -57 59 -93 148 -93
s148 36 148 93c0 51 -44 87 -147 87zM353 575c-78 0 -127 -26 -127 -80c0 -44 36 -79 128 -79c91 0 126 35 126 79c0 54 -49 80 -127 80z" />
    <glyph glyph-name="nine" unicode="9" horiz-adv-x="701" 
d="M87 43l39 114c36 -21 106 -48 181 -48c120 0 175 72 187 181c-36 -29 -97 -63 -188 -63c-160 0 -250 83 -250 220c0 148 114 243 270 243c200 0 311 -140 311 -351c0 -208 -111 -349 -313 -349c-108 0 -200 33 -237 53zM327 341c75 0 132 41 163 71
c-17 89 -69 150 -164 150c-80 0 -130 -51 -130 -115c0 -75 54 -106 131 -106z" />
    <glyph glyph-name="colon" unicode=":" horiz-adv-x="315" 
d="M72 454c0 53 30 83 84 83s85 -30 85 -83c0 -52 -31 -82 -85 -82s-84 30 -84 82zM72 68c0 53 30 83 84 83s85 -30 85 -83c0 -52 -31 -82 -85 -82s-84 30 -84 82z" />
    <glyph glyph-name="semicolon" unicode=";" horiz-adv-x="318" 
d="M90 -138l43 126c-37 9 -56 38 -56 77c0 55 31 86 83 86c54 0 85 -34 85 -86c0 -73 -47 -181 -78 -233zM72 454c0 53 30 83 84 83s85 -30 85 -83c0 -52 -31 -82 -85 -82s-84 30 -84 82z" />
    <glyph glyph-name="less" unicode="&#x3c;" 
d="M61 246v108l467 190h11v-106l-367 -136l367 -134v-107h-11z" />
    <glyph glyph-name="equal" unicode="=" 
d="M61 218h478v-110h-478v110zM61 497h478v-110h-478v110z" />
    <glyph glyph-name="greater" unicode="&#x3e;" 
d="M538 354v-108l-467 -185h-10v107l366 134l-366 136v106h10z" />
    <glyph glyph-name="question" unicode="?" horiz-adv-x="491" 
d="M266 245h-115c-6 17 -11 34 -11 62c0 34 16 60 56 84l57 36c29 20 49 38 49 76c0 44 -34 71 -81 71c-58 0 -115 -31 -145 -63l-38 109c40 35 105 70 204 70c125 0 201 -74 201 -178c0 -87 -42 -126 -89 -155l-59 -36c-24 -16 -33 -26 -33 -49c0 -8 1 -17 4 -27zM123 71
c0 54 31 85 86 85s87 -31 87 -85s-32 -84 -87 -84s-86 30 -86 84z" />
    <glyph glyph-name="at" unicode="@" horiz-adv-x="986" 
d="M720 491v-335c0 -30 3 -51 37 -51c38 0 92 58 92 212c0 181 -133 308 -348 308s-356 -145 -356 -362c0 -215 141 -363 356 -363c62 0 122 13 173 38l35 -86c-62 -30 -132 -46 -208 -46c-264 0 -454 193 -454 457c0 266 190 456 454 456c266 0 446 -163 446 -401
c0 -211 -101 -307 -245 -307c-58 0 -88 20 -108 58c-33 -38 -83 -57 -147 -57c-131 0 -219 101 -219 242c0 143 88 245 219 245c61 0 108 -16 138 -50v42h135zM585 342c-21 21 -60 40 -100 40c-74 0 -120 -51 -120 -128c0 -75 46 -126 120 -126c39 0 75 17 100 40v174z" />
    <glyph glyph-name="A" unicode="A" horiz-adv-x="726" 
d="M12 0l271 680h164l263 -680h-142l-52 136h-309l-53 -136h-142zM365 541l-122 -301h238z" />
    <glyph glyph-name="B" unicode="B" horiz-adv-x="725" 
d="M99 0v680h284c148 0 236 -57 236 -181c0 -71 -40 -120 -105 -145c99 -19 159 -73 159 -172c0 -112 -85 -182 -244 -182h-330zM239 120h170c77 0 114 25 114 80c0 62 -45 84 -126 84h-158v-164zM239 407h121c71 0 114 20 114 76c0 59 -40 77 -111 77h-124v-153z" />
    <glyph glyph-name="C" unicode="C" horiz-adv-x="741" 
d="M622 205l66 -105c-61 -58 -166 -110 -279 -110c-201 0 -350 130 -350 349c0 221 149 351 350 351c175 0 274 -98 278 -257l-129 -27c-2 95 -50 154 -151 154c-120 0 -203 -80 -203 -221c0 -139 83 -219 208 -219c84 0 160 39 210 85z" />
    <glyph glyph-name="D" unicode="D" horiz-adv-x="802" 
d="M99 0v680h293c201 -1 351 -120 351 -341c0 -219 -150 -339 -351 -339h-293zM386 558h-147v-436h147c125 0 212 77 212 217c0 142 -87 219 -212 219z" />
    <glyph glyph-name="E" unicode="E" horiz-adv-x="696" 
d="M637 0h-538v680h538v-123h-404v-147h331v-123h-331v-164h404v-123z" />
    <glyph glyph-name="F" unicode="F" horiz-adv-x="661" 
d="M563 239h-330v-239h-134v680h518v-123h-384v-195h330v-123z" />
    <glyph glyph-name="G" unicode="G" horiz-adv-x="779" 
d="M391 402h319v-319c-63 -50 -186 -93 -290 -93c-201 0 -362 130 -362 349c0 221 161 351 362 351c110 0 196 -37 264 -92l-65 -107c-53 44 -116 69 -196 69c-124 0 -220 -80 -220 -221c0 -139 96 -219 226 -219c54 0 104 14 141 36v125h-179v121z" />
    <glyph glyph-name="H" unicode="H" horiz-adv-x="843" 
d="M604 0v282h-365v-282h-140v680h140v-276h365v276h140v-680h-140z" />
    <glyph glyph-name="I" unicode="I" horiz-adv-x="338" 
d="M99 0v680h140v-680h-140z" />
    <glyph glyph-name="J" unicode="J" horiz-adv-x="657" 
d="M425 680h141v-410c0 -165 -89 -281 -272 -281c-182 0 -260 108 -270 272l139 13c7 -97 40 -155 133 -155c94 0 129 60 129 160v401z" />
    <glyph glyph-name="K" unicode="K" horiz-adv-x="788" 
d="M99 0v680h140v-283h134l185 283h145v-21l-225 -327c50 -56 108 -220 203 -220c24 0 54 5 76 15l15 -111c-28 -14 -75 -26 -119 -26c-168 0 -235 219 -295 285h-119v-275h-140z" />
    <glyph glyph-name="L" unicode="L" horiz-adv-x="616" 
d="M592 0h-493v680h140v-558h353v-122z" />
    <glyph glyph-name="M" unicode="M" horiz-adv-x="958" 
d="M719 0v459l-228 -274h-25l-227 274v-459h-140v680h126l254 -303l254 303h126v-680h-140z" />
    <glyph glyph-name="N" unicode="N" horiz-adv-x="842" 
d="M621 0l-382 457v-457h-140v680h122l382 -458v458h140v-680h-122z" />
    <glyph glyph-name="O" unicode="O" horiz-adv-x="814" 
d="M57 339c0 201 150 351 349 351c201 0 351 -150 351 -351c0 -199 -150 -349 -351 -349c-199 0 -349 150 -349 349zM195 339c0 -123 89 -218 212 -218c125 0 212 95 212 218c0 125 -87 218 -212 218c-123 0 -212 -93 -212 -218z" />
    <glyph glyph-name="P" unicode="P" horiz-adv-x="712" 
d="M99 0v680h325c133 0 247 -78 247 -248c0 -153 -114 -244 -247 -244h-185v-188h-140zM402 558h-163v-248h163c69 0 124 47 124 123c0 81 -55 125 -124 125z" />
    <glyph glyph-name="Q" unicode="Q" horiz-adv-x="815" 
d="M815 -48l15 -113c-26 -9 -73 -19 -125 -19c-159 0 -249 142 -300 170c-198 1 -347 150 -347 349c0 201 150 351 349 351c201 0 351 -150 351 -351c0 -147 -82 -267 -206 -320c44 -39 94 -81 163 -81c39 0 79 6 100 14zM195 339c0 -123 89 -217 212 -217
c125 0 212 94 212 217c0 125 -87 218 -212 218c-123 0 -212 -93 -212 -218z" />
    <glyph glyph-name="R" unicode="R" horiz-adv-x="777" 
d="M99 0v680h299c134 0 271 -54 271 -221c0 -113 -83 -194 -192 -211c64 -62 130 -137 201 -137c23 0 54 6 76 16l14 -111c-28 -14 -68 -26 -112 -26c-152 0 -264 192 -349 255h-68v-245h-140zM413 558h-174v-203h174c64 0 110 38 110 101c0 67 -46 102 -110 102z" />
    <glyph glyph-name="S" unicode="S" horiz-adv-x="642" 
d="M343 266l-129 35c-103 27 -156 90 -156 182c0 113 85 206 272 206c98 0 192 -26 244 -54l-40 -131c-50 32 -135 57 -209 57c-86 0 -122 -27 -122 -66c0 -37 25 -52 74 -66l126 -36c123 -35 183 -91 183 -188c0 -128 -113 -215 -277 -215c-99 0 -196 34 -240 59l33 133
c49 -32 128 -64 210 -64s128 31 128 76c0 37 -36 55 -97 72z" />
    <glyph glyph-name="T" unicode="T" horiz-adv-x="638" 
d="M609 557h-216v-557h-140v557h-224v123h580v-123z" />
    <glyph glyph-name="U" unicode="U" horiz-adv-x="801" 
d="M231 680v-384c0 -108 55 -177 168 -177c115 0 171 73 171 178v383h140v-393c0 -160 -108 -298 -311 -298c-201 0 -308 125 -308 298v393h140z" />
    <glyph glyph-name="V" unicode="V" horiz-adv-x="737" 
d="M279 0l-263 680h153l198 -551l205 551h153l-270 -680h-176z" />
    <glyph glyph-name="W" unicode="W" horiz-adv-x="1104" 
d="M669 0l-115 291l-123 -291h-152l-263 680h151l200 -523l126 300l-84 223h152l182 -500l196 500h153l-271 -680h-152z" />
    <glyph glyph-name="X" unicode="X" horiz-adv-x="740" 
d="M710 680v-10l-242 -331l242 -328v-11h-162l-178 247l-178 -247h-162v11l241 328l-241 331v10h161l179 -249l180 249h160z" />
    <glyph glyph-name="Y" unicode="Y" horiz-adv-x="686" 
d="M273 0v269l-266 401v10h156l180 -282l180 282h156v-10l-266 -400v-270h-140z" />
    <glyph glyph-name="Z" unicode="Z" horiz-adv-x="654" 
d="M62 98l350 460h-350v122h530v-98l-348 -460h348v-122h-530v98z" />
    <glyph glyph-name="bracketleft" unicode="[" horiz-adv-x="360" 
d="M322 -188h-236v898h236v-110h-125v-678h125v-110z" />
    <glyph glyph-name="backslash" unicode="\" horiz-adv-x="502" 
d="M137 680l349 -669v-11h-121l-348 670v10h120z" />
    <glyph glyph-name="bracketright" unicode="]" horiz-adv-x="359" 
d="M38 710h235v-898h-235v110h125v678h-125v110z" />
    <glyph glyph-name="asciicircum" unicode="^" 
d="M245 680h104l188 -283v-11h-128l-112 185l-111 -185h-127v11z" />
    <glyph glyph-name="underscore" unicode="_" horiz-adv-x="696" 
d="M98 -31h500v-110h-500v110z" />
    <glyph glyph-name="grave" unicode="`" 
d="M299 589l-102 152h139l81 -152h-118z" />
    <glyph glyph-name="a" unicode="a" horiz-adv-x="713" 
d="M590 523v-362c0 -30 8 -53 36 -53c20 0 36 7 53 16l6 -111c-26 -12 -69 -23 -114 -23c-59 0 -96 24 -111 76c-36 -42 -94 -75 -166 -75c-146 0 -245 112 -245 269c0 159 99 272 245 272c68 0 121 -19 156 -54v45h140zM450 159v204c-24 25 -70 47 -117 47
c-87 0 -142 -60 -142 -150c0 -88 56 -148 142 -148c46 0 89 21 117 47z" />
    <glyph glyph-name="b" unicode="b" horiz-adv-x="673" 
d="M625 262c0 -158 -99 -272 -246 -272c-71 0 -122 22 -157 57v-47h-140v710h140v-231c36 32 90 53 157 53c147 0 246 -112 246 -270zM482 262c0 89 -56 148 -142 148c-47 0 -91 -22 -118 -49v-201c24 -24 69 -48 118 -48c86 0 142 60 142 150z" />
    <glyph glyph-name="c" unicode="c" horiz-adv-x="602" 
d="M500 167l54 -109c-56 -44 -135 -72 -222 -72c-197 0 -284 117 -284 274c0 160 109 277 276 277c152 0 231 -84 236 -205l-124 -28c-5 68 -36 110 -111 110c-83 0 -133 -64 -133 -150c0 -84 46 -155 157 -155c52 0 113 28 151 58z" />
    <glyph glyph-name="d" unicode="d" horiz-adv-x="713" 
d="M450 710h140v-549c0 -31 7 -53 36 -53c16 0 33 7 52 16l7 -111c-25 -12 -71 -23 -115 -23c-55 0 -93 20 -110 67c-34 -41 -89 -67 -167 -67c-145 0 -245 114 -245 272s100 270 245 270c67 0 120 -21 157 -53v231zM190 262c0 -90 56 -150 143 -150c47 0 93 23 117 47v203
c-27 27 -71 48 -117 48c-86 0 -143 -59 -143 -148z" />
    <glyph glyph-name="e" unicode="e" horiz-adv-x="607" 
d="M499 157l53 -100c-54 -44 -131 -71 -220 -71c-197 0 -285 120 -285 274c0 156 108 277 276 277c159 0 234 -97 234 -218c0 -32 -5 -82 -11 -102h-355c13 -73 60 -114 145 -114c66 0 127 27 163 54zM422 325c1 5 1 13 1 18c0 42 -32 78 -103 78c-75 0 -115 -45 -125 -96
h227z" />
    <glyph glyph-name="f" unicode="f" horiz-adv-x="456" 
d="M36 389v109h96v36c0 101 54 186 180 186c55 0 107 -16 135 -30l-31 -121c-21 14 -55 28 -88 28c-40 0 -56 -24 -56 -64v-35h157v-109h-157v-389h-140v389h-96z" />
    <glyph glyph-name="g" unicode="g" horiz-adv-x="673" 
d="M49 280c0 139 99 252 245 252c70 0 122 -20 157 -53v44h140v-458c0 -175 -110 -263 -268 -263c-105 0 -169 35 -204 52l30 124c34 -21 96 -53 174 -53c67 0 128 24 128 111v47c-37 -32 -90 -53 -157 -53c-146 0 -245 113 -245 250zM192 280c0 -75 55 -128 141 -128
c47 0 91 21 118 48v161c-24 25 -70 49 -118 49c-87 0 -141 -54 -141 -130z" />
    <glyph glyph-name="h" unicode="h" horiz-adv-x="696" 
d="M82 710h140v-249c37 43 95 71 168 71c135 0 194 -102 194 -231v-140c0 -30 8 -53 36 -53c17 0 34 7 53 16l6 -111c-25 -12 -67 -23 -114 -23c-78 0 -121 40 -121 138v150c0 77 -36 125 -106 125c-59 0 -100 -50 -116 -92v-311h-140v710z" />
    <glyph glyph-name="i" unicode="i" horiz-adv-x="345" 
d="M220 523v-362c0 -30 7 -53 36 -53c21 0 45 11 52 16l7 -111c-7 -6 -59 -23 -115 -23c-77 0 -120 41 -120 138v395h140zM69 671c0 51 33 69 82 69c48 0 80 -18 80 -69s-32 -70 -80 -70c-49 0 -82 19 -82 70z" />
    <glyph glyph-name="j" unicode="j" horiz-adv-x="304" 
d="M222 523v-475c0 -134 -67 -203 -145 -245l-83 91c48 30 88 68 88 148v481h140zM72 671c0 51 32 69 81 69s80 -18 80 -69s-31 -70 -80 -70s-81 19 -81 70z" />
    <glyph glyph-name="k" unicode="k" horiz-adv-x="643" 
d="M452 523h140c-18 -127 -65 -212 -142 -262l156 -238v-23h-151l-128 214c-32 -6 -67 -10 -105 -10v-204h-140v710h140v-382c116 0 199 26 230 195z" />
    <glyph glyph-name="l" unicode="l" horiz-adv-x="345" 
d="M77 710h140v-545c0 -36 14 -57 43 -57c20 0 38 7 56 16l7 -111c-24 -10 -69 -23 -118 -23c-78 0 -128 38 -128 141v579z" />
    <glyph glyph-name="m" unicode="m" horiz-adv-x="1042" 
d="M82 523h140v-58c37 41 92 68 165 68c88 0 142 -28 168 -93c35 54 98 92 184 92c135 0 191 -102 191 -231v-140c0 -30 7 -53 35 -53c16 0 35 7 53 16l7 -111c-25 -12 -72 -23 -115 -23c-77 0 -120 40 -120 138v150c0 77 -35 125 -104 125c-57 0 -94 -39 -109 -80v-323
h-140v279c0 76 -33 124 -103 124c-59 0 -96 -40 -112 -82v-321h-140v523z" />
    <glyph glyph-name="n" unicode="n" horiz-adv-x="696" 
d="M82 523h140v-64c37 43 95 73 168 73c135 0 194 -102 194 -231v-140c0 -30 8 -53 36 -53c17 0 36 7 53 16l6 -111c-26 -13 -68 -23 -114 -23c-78 0 -121 40 -121 138v150c0 77 -36 125 -106 125c-59 0 -100 -50 -116 -92v-311h-140v523z" />
    <glyph glyph-name="o" unicode="o" horiz-adv-x="654" 
d="M46 260c0 159 118 277 280 277c164 0 282 -118 282 -277c0 -157 -118 -274 -282 -274c-162 0 -280 117 -280 274zM181 260c0 -82 59 -146 145 -146c88 0 147 64 147 146c0 84 -59 149 -147 149c-86 0 -145 -65 -145 -149z" />
    <glyph glyph-name="p" unicode="p" horiz-adv-x="712" 
d="M262 -188h-140v549c0 32 -7 53 -36 53c-21 0 -45 -9 -53 -16l-6 112c7 5 58 23 114 23c55 0 93 -20 110 -68c35 40 90 67 167 67c146 0 246 -113 246 -272c0 -157 -100 -270 -246 -270c-67 0 -120 20 -156 52v-230zM379 410c-48 0 -94 -23 -117 -48v-203
c27 -26 71 -47 117 -47c86 0 143 59 143 148c0 90 -56 150 -143 150z" />
    <glyph glyph-name="q" unicode="q" horiz-adv-x="672" 
d="M49 260c0 159 99 272 245 272c69 0 121 -22 156 -56v47h140v-711h-140v230c-37 -31 -90 -52 -156 -52c-146 0 -245 113 -245 270zM333 112c46 0 90 21 117 47v203c-24 25 -70 48 -117 48c-87 0 -142 -60 -142 -150c0 -89 56 -148 142 -148z" />
    <glyph glyph-name="r" unicode="r" horiz-adv-x="498" 
d="M122 0v361c0 31 -7 53 -36 53c-21 0 -45 -10 -53 -15l-6 110c7 7 59 23 114 23c60 0 99 -24 114 -79c25 49 63 79 131 79c49 0 87 -18 94 -30l-20 -126c-8 11 -48 27 -96 27c-67 0 -93 -58 -102 -119v-284h-140z" />
    <glyph glyph-name="s" unicode="s" horiz-adv-x="524" 
d="M473 494l-37 -121c-47 24 -112 42 -166 42c-44 0 -80 -12 -80 -43c0 -26 18 -33 57 -43l100 -25c92 -23 127 -72 127 -148c0 -102 -78 -166 -213 -166c-91 0 -163 25 -203 45l26 119c46 -24 110 -48 171 -48c50 0 80 9 80 40c0 21 -26 31 -66 41l-91 23
c-85 22 -129 70 -129 151c0 101 89 171 232 171c68 0 152 -19 192 -38z" />
    <glyph glyph-name="t" unicode="t" horiz-adv-x="507" 
d="M137 656h123v-133h191v-109h-191v-213c0 -63 25 -89 71 -89c38 0 80 19 106 38l44 -108c-50 -31 -116 -52 -194 -52c-103 0 -167 63 -167 183v241h-93v109h93z" />
    <glyph glyph-name="u" unicode="u" horiz-adv-x="700" 
d="M437 523h140v-362c0 -30 7 -53 35 -53c18 0 35 7 53 16l7 -111c-25 -13 -70 -23 -115 -23c-55 0 -93 21 -110 68c-39 -45 -101 -68 -178 -68c-135 0 -194 92 -194 231v302h140v-281c0 -86 24 -124 106 -124c61 0 98 37 116 70v335z" />
    <glyph glyph-name="v" unicode="v" horiz-adv-x="673" 
d="M112 221v140c0 32 -7 53 -36 53c-17 0 -35 -5 -53 -15l-6 110c27 14 69 23 114 23c78 0 121 -39 121 -138v-152c0 -83 34 -124 102 -124c69 0 118 47 118 139c0 108 -34 202 -62 266h148c16 -42 54 -149 54 -275c0 -155 -96 -258 -258 -258c-161 0 -242 88 -242 231z" />
    <glyph glyph-name="w" unicode="w" horiz-adv-x="1000" 
d="M453 523h140v-284c0 -72 27 -121 95 -121c74 0 111 60 111 142c0 111 -39 208 -63 263h149c16 -42 54 -149 54 -275c0 -155 -89 -258 -242 -258c-94 0 -145 31 -178 97c-34 -66 -98 -97 -188 -97c-147 0 -218 88 -218 231v140c0 32 -6 53 -37 53c-20 0 -44 -9 -53 -16
l-6 112c33 12 72 22 119 22c86 0 117 -55 117 -135v-155c0 -83 30 -124 95 -124s105 46 105 129v276z" />
    <glyph glyph-name="x" unicode="x" horiz-adv-x="605" 
d="M575 523v-10l-176 -253l176 -249v-11h-152l-120 180l-120 -180h-153v11l175 249l-175 253v10h151l122 -183l122 183h150z" />
    <glyph glyph-name="y" unicode="y" horiz-adv-x="596" 
d="M7 523h155l144 -370l139 370h141l-217 -528c-52 -131 -105 -193 -222 -193c-48 0 -94 18 -120 35l21 113c25 -14 61 -30 99 -30c46 0 67 22 87 67l11 27z" />
    <glyph glyph-name="z" unicode="z" horiz-adv-x="537" 
d="M55 98l253 315h-253v110h428v-98l-251 -315h251v-110h-428v98z" />
    <glyph glyph-name="braceleft" unicode="{" horiz-adv-x="347" 
d="M298 710v-98h-38c-42 0 -61 -27 -61 -56c0 -55 52 -132 52 -204c0 -52 -25 -83 -84 -94c59 -11 84 -42 84 -95c0 -71 -52 -148 -52 -203c0 -30 19 -57 61 -57h38v-98h-52c-108 0 -157 47 -157 128c0 74 52 144 52 220c0 46 -31 64 -105 64v83c74 0 105 23 105 71
c0 74 -52 143 -52 217c0 75 49 122 157 122h52z" />
    <glyph glyph-name="bar" unicode="|" horiz-adv-x="283" 
d="M86 -188v898h111v-898h-111z" />
    <glyph glyph-name="braceright" unicode="}" horiz-adv-x="346" 
d="M49 710h51c108 0 158 -47 158 -122c0 -74 -52 -143 -52 -217c0 -48 30 -71 104 -71v-83c-74 0 -104 -18 -104 -64c0 -76 52 -146 52 -220c0 -81 -50 -128 -158 -128h-51v98h38c42 0 61 27 61 57c0 55 -52 132 -52 203c0 53 25 84 84 95c-59 11 -84 42 -84 94
c0 72 52 149 52 204c0 29 -19 56 -61 56h-38v98z" />
    <glyph glyph-name="asciitilde" unicode="~" horiz-adv-x="534" 
d="M430 372l47 -66c-18 -57 -65 -95 -120 -95c-75 0 -112 72 -177 72c-32 0 -63 -21 -77 -58l-45 69c14 48 59 91 117 91c80 0 123 -72 178 -72c36 0 61 23 77 59z" />
    <glyph glyph-name="uni00A0" unicode="&#xa0;" horiz-adv-x="250" 
 />
    <glyph glyph-name="Agrave" unicode="&#xc0;" horiz-adv-x="726" 
d="M12 0l271 680h164l263 -680h-142l-52 136h-309l-53 -136h-142zM365 541l-122 -301h238zM316 746l-102 152h139l81 -152h-118z" />
    <glyph glyph-name="Aacute" unicode="&#xc1;" horiz-adv-x="726" 
d="M12 0l271 680h164l263 -680h-142l-52 136h-309l-53 -136h-142zM365 541l-122 -301h238zM510 898l-102 -152h-118l81 152h139z" />
    <glyph glyph-name="Acircumflex" unicode="&#xc2;" horiz-adv-x="726" 
d="M12 0l271 680h164l263 -680h-142l-52 136h-309l-53 -136h-142zM365 541l-122 -301h238zM430 746l-66 84l-66 -84h-106l104 152h136l103 -152h-105z" />
    <glyph glyph-name="Atilde" unicode="&#xc3;" horiz-adv-x="726" 
d="M12 0l271 680h164l263 -680h-142l-52 136h-309l-53 -136h-142zM365 541l-122 -301h238zM218 757l-42 55c20 45 64 84 112 84c67 0 108 -59 152 -59c33 0 56 19 69 44l43 -54c-25 -52 -64 -85 -112 -85c-62 0 -110 59 -151 59c-32 0 -54 -17 -71 -44z" />
    <glyph glyph-name="Adieresis" unicode="&#xc4;" horiz-adv-x="726" 
d="M12 0l271 680h164l263 -680h-142l-52 136h-309l-53 -136h-142zM365 541l-122 -301h238zM162 826c0 48 31 66 76 66c44 0 75 -18 75 -66c0 -47 -31 -66 -75 -66c-45 0 -76 19 -76 66zM417 826c0 48 31 66 77 66c44 0 74 -18 74 -66c0 -47 -30 -66 -74 -66
c-46 0 -77 19 -77 66z" />
    <glyph glyph-name="Amacron" unicode="&#x100;" horiz-adv-x="726" 
d="M12 0l271 680h164l263 -680h-142l-52 136h-309l-53 -136h-142zM365 541l-122 -301h238zM492 767h-255v96h255v-96z" />
    <glyph glyph-name="Abreve" unicode="&#x102;" horiz-adv-x="726" 
d="M12 0l271 680h164l263 -680h-142l-52 136h-309l-53 -136h-142zM365 541l-122 -301h238zM217 830l35 55c19 -23 57 -45 112 -45c53 0 92 21 111 45l36 -55c-24 -42 -71 -83 -146 -83s-124 41 -148 83z" />
    <glyph glyph-name="Aring" unicode="&#xc5;" horiz-adv-x="726" 
d="M267 732c0 54 44 98 98 98s98 -44 98 -98c0 -20 -6 -38 -16 -53l263 -679h-142l-52 136h-309l-53 -136h-142l270 679c-10 15 -15 33 -15 53zM365 541l-122 -301h238zM324 732c0 -23 18 -41 41 -41c22 0 40 18 40 41c0 22 -18 40 -40 40c-23 0 -41 -18 -41 -40z" />
    <glyph glyph-name="Aringacute" unicode="&#x1fa;" horiz-adv-x="726" 
d="M12 0l269 675c-9 12 -14 28 -14 47c0 54 44 84 98 84s98 -30 98 -84c0 -19 -5 -35 -14 -47l261 -675h-142l-52 136h-309l-53 -136h-142zM365 541l-122 -301h238zM472 907l-66 -83h-86l51 83h101zM324 722c0 -23 18 -31 41 -31c22 0 40 8 40 31c0 22 -18 30 -40 30
c-23 0 -41 -8 -41 -30z" />
    <glyph glyph-name="Aogonek" unicode="&#x104;" horiz-adv-x="725" 
d="M12 0l271 680h164l263 -680h-45c-51 -1 -87 -28 -87 -69c0 -32 19 -51 52 -51c19 0 37 7 54 18l14 -60c-21 -13 -48 -23 -87 -23c-60 0 -99 38 -99 97c0 42 27 73 57 88h-1l-52 136h-309l-53 -136h-142zM365 541l-122 -301h238z" />
    <glyph glyph-name="AE" unicode="&#xc6;" horiz-adv-x="1070" 
d="M473 0v136h-250l-79 -136h-149l393 680h623v-123h-404v-152h331v-113h-331v-170h404v-122h-538zM276 240h197v349z" />
    <glyph glyph-name="AEacute" unicode="&#x1fc;" horiz-adv-x="1070" 
d="M473 0v136h-250l-79 -136h-149l393 680h623v-123h-404v-152h331v-113h-331v-170h404v-122h-538zM276 240h197v349zM834 898l-102 -152h-118l81 152h139z" />
    <glyph glyph-name="Cacute" unicode="&#x106;" horiz-adv-x="741" 
d="M622 205l66 -105c-61 -58 -166 -110 -279 -110c-201 0 -350 130 -350 349c0 221 149 351 350 351c175 0 274 -98 278 -257l-129 -27c-2 95 -50 154 -151 154c-120 0 -203 -80 -203 -221c0 -139 83 -219 208 -219c84 0 160 39 210 85zM566 898l-102 -152h-118l81 152h139z
" />
    <glyph glyph-name="Ccircumflex" unicode="&#x108;" horiz-adv-x="741" 
d="M622 205l66 -105c-61 -58 -166 -110 -279 -110c-201 0 -350 130 -350 349c0 221 149 351 350 351c175 0 274 -98 278 -257l-129 -27c-2 95 -50 154 -151 154c-120 0 -203 -80 -203 -221c0 -139 83 -219 208 -219c84 0 160 39 210 85zM474 746l-66 84l-66 -84h-106
l104 152h136l103 -152h-105z" />
    <glyph glyph-name="Ccaron" unicode="&#x10c;" horiz-adv-x="741" 
d="M622 205l66 -105c-61 -58 -166 -110 -279 -110c-201 0 -350 130 -350 349c0 221 149 351 350 351c175 0 274 -98 278 -257l-129 -27c-2 95 -50 154 -151 154c-120 0 -203 -80 -203 -221c0 -139 83 -219 208 -219c84 0 160 39 210 85zM344 898l66 -83l66 83h105l-103 -152
h-136l-104 152h106z" />
    <glyph glyph-name="Cdotaccent" unicode="&#x10a;" horiz-adv-x="741" 
d="M622 205l66 -105c-61 -58 -166 -110 -279 -110c-201 0 -350 130 -350 349c0 221 149 351 350 351c175 0 274 -98 278 -257l-129 -27c-2 95 -50 154 -151 154c-120 0 -203 -80 -203 -221c0 -139 83 -219 208 -219c84 0 160 39 210 85zM326 828c0 51 33 69 82 69
c48 0 80 -18 80 -69s-32 -70 -80 -70c-49 0 -82 19 -82 70z" />
    <glyph glyph-name="Ccedilla" unicode="&#xc7;" horiz-adv-x="741" 
d="M315 -97l27 92c-166 26 -283 150 -283 344c0 221 149 351 350 351c175 0 274 -98 278 -257l-129 -27c-2 95 -50 154 -151 154c-120 0 -203 -80 -203 -221c0 -139 83 -219 208 -219c84 0 160 39 210 85l66 -105c-61 -58 -166 -110 -279 -110h-11l-14 -47c7 2 17 3 26 3
c56 0 87 -28 87 -67c0 -49 -49 -77 -114 -77c-25 0 -52 3 -78 11l12 46c20 -6 40 -11 62 -11c32 0 54 9 54 29c0 17 -18 27 -52 27c-20 0 -48 -3 -62 -6z" />
    <glyph glyph-name="Dcaron" unicode="&#x10e;" horiz-adv-x="802" 
d="M99 0v680h293c201 -1 351 -120 351 -341c0 -219 -150 -339 -351 -339h-293zM386 558h-147v-436h147c125 0 212 77 212 217c0 142 -87 219 -212 219zM286 898l66 -83l66 83h105l-103 -152h-136l-104 152h106z" />
    <glyph glyph-name="Dcroat" unicode="&#x110;" horiz-adv-x="803" 
d="M100 0v284h-63v110h63v286h293c201 -1 351 -120 351 -341c0 -219 -150 -339 -351 -339h-293zM374 284h-134v-162h147c125 0 214 77 214 217c0 142 -89 219 -214 219h-147v-164h134v-110z" />
    <glyph glyph-name="Eth" unicode="&#xd0;" horiz-adv-x="803" 
d="M100 0v284h-63v110h63v286h293c201 -1 351 -120 351 -341c0 -219 -150 -339 -351 -339h-293zM374 284h-134v-162h147c125 0 214 77 214 217c0 142 -89 219 -214 219h-147v-164h134v-110z" />
    <glyph glyph-name="Egrave" unicode="&#xc8;" horiz-adv-x="696" 
d="M637 0h-538v680h538v-123h-404v-147h331v-123h-331v-164h404v-123zM319 746l-102 152h139l81 -152h-118z" />
    <glyph glyph-name="Eacute" unicode="&#xc9;" horiz-adv-x="696" 
d="M637 0h-538v680h538v-123h-404v-147h331v-123h-331v-164h404v-123zM515 898l-102 -152h-118l81 152h139z" />
    <glyph glyph-name="Ecircumflex" unicode="&#xca;" horiz-adv-x="696" 
d="M637 0h-538v680h538v-123h-404v-147h331v-123h-331v-164h404v-123zM434 746l-66 84l-66 -84h-106l104 152h136l103 -152h-105z" />
    <glyph glyph-name="Ecaron" unicode="&#x11a;" horiz-adv-x="696" 
d="M637 0h-538v680h538v-123h-404v-147h331v-123h-331v-164h404v-123zM302 898l66 -83l66 83h105l-103 -152h-136l-104 152h106z" />
    <glyph glyph-name="Edieresis" unicode="&#xcb;" horiz-adv-x="696" 
d="M637 0h-538v680h538v-123h-404v-147h331v-123h-331v-164h404v-123zM165 826c0 48 31 66 76 66c44 0 75 -18 75 -66c0 -47 -31 -66 -75 -66c-45 0 -76 19 -76 66zM420 826c0 48 31 66 77 66c44 0 74 -18 74 -66c0 -47 -30 -66 -74 -66c-46 0 -77 19 -77 66z" />
    <glyph glyph-name="Emacron" unicode="&#x112;" horiz-adv-x="696" 
d="M637 0h-538v680h538v-123h-404v-147h331v-123h-331v-164h404v-123zM495 767h-255v96h255v-96z" />
    <glyph glyph-name="Ebreve" unicode="&#x114;" horiz-adv-x="696" 
d="M637 0h-538v680h538v-123h-404v-147h331v-123h-331v-164h404v-123zM220 830l35 55c19 -23 57 -45 112 -45c53 0 92 21 111 45l36 -55c-24 -42 -71 -83 -146 -83s-124 41 -148 83z" />
    <glyph glyph-name="Edotaccent" unicode="&#x116;" horiz-adv-x="696" 
d="M637 0h-538v680h538v-123h-404v-147h331v-123h-331v-164h404v-123zM285 828c0 51 33 69 82 69c48 0 80 -18 80 -69s-32 -70 -80 -70c-49 0 -82 19 -82 70z" />
    <glyph glyph-name="Eogonek" unicode="&#x118;" horiz-adv-x="696" 
d="M637 0h-18c-51 -1 -87 -28 -87 -69c0 -32 19 -51 52 -51c19 0 37 7 54 18l14 -60c-21 -13 -48 -23 -87 -23c-60 0 -99 38 -99 97c0 42 27 73 57 88h-424v680h538v-123h-404v-147h331v-123h-331v-164h404v-123z" />
    <glyph glyph-name="Gcircumflex" unicode="&#x11c;" horiz-adv-x="779" 
d="M391 402h319v-319c-63 -50 -186 -93 -290 -93c-201 0 -362 130 -362 349c0 221 161 351 362 351c110 0 196 -37 264 -92l-65 -107c-53 44 -116 69 -196 69c-124 0 -220 -80 -220 -221c0 -139 96 -219 226 -219c54 0 104 14 141 36v125h-179v121zM487 746l-66 84l-66 -84
h-106l104 152h136l103 -152h-105z" />
    <glyph glyph-name="Gbreve" unicode="&#x11e;" horiz-adv-x="779" 
d="M391 402h319v-319c-63 -50 -186 -93 -290 -93c-201 0 -362 130 -362 349c0 221 161 351 362 351c110 0 196 -37 264 -92l-65 -107c-53 44 -116 69 -196 69c-124 0 -220 -80 -220 -221c0 -139 96 -219 226 -219c54 0 104 14 141 36v125h-179v121zM275 830l35 55
c19 -23 57 -45 112 -45c53 0 92 21 111 45l36 -55c-24 -42 -71 -83 -146 -83s-124 41 -148 83z" />
    <glyph glyph-name="Gdotaccent" unicode="&#x120;" horiz-adv-x="779" 
d="M391 402h319v-319c-63 -50 -186 -93 -290 -93c-201 0 -362 130 -362 349c0 221 161 351 362 351c110 0 196 -37 264 -92l-65 -107c-53 44 -116 69 -196 69c-124 0 -220 -80 -220 -221c0 -139 96 -219 226 -219c54 0 104 14 141 36v125h-179v121zM338 828
c0 51 33 69 82 69c48 0 80 -18 80 -69s-32 -70 -80 -70c-49 0 -82 19 -82 70z" />
    <glyph glyph-name="Gcommaaccent" unicode="&#x122;" horiz-adv-x="779" 
d="M391 402h319v-319c-63 -50 -186 -93 -290 -93c-201 0 -362 130 -362 349c0 221 161 351 362 351c110 0 196 -37 264 -92l-65 -107c-53 44 -116 69 -196 69c-124 0 -220 -80 -220 -221c0 -139 96 -219 226 -219c54 0 104 14 141 36v125h-179v121zM360 -255l24 65
c-37 7 -56 31 -56 63c0 43 31 68 72 68c54 0 85 -27 85 -79c0 -47 -25 -98 -58 -141z" />
    <glyph glyph-name="Hcircumflex" unicode="&#x124;" horiz-adv-x="843" 
d="M604 0v282h-365v-282h-140v680h140v-276h365v276h140v-680h-140zM486 746l-66 84l-66 -84h-106l104 152h136l103 -152h-105z" />
    <glyph glyph-name="Hbar" unicode="&#x126;" horiz-adv-x="843" 
d="M99 0v505h-46v110h46v65h140v-65h365v65h140v-65h49v-110h-49v-505h-140v282h-365v-282h-140zM239 505v-101h365v101h-365z" />
    <glyph glyph-name="Igrave" unicode="&#xcc;" horiz-adv-x="338" 
d="M99 0v680h140v-680h-140zM117 746l-102 152h139l81 -152h-118z" />
    <glyph glyph-name="Iacute" unicode="&#xcd;" horiz-adv-x="338" 
d="M99 0v680h140v-680h-140zM324 898l-102 -152h-118l81 152h139z" />
    <glyph glyph-name="Ibreve" unicode="&#x12c;" horiz-adv-x="338" 
d="M99 0v680h140v-680h-140zM21 830l35 55c19 -23 57 -45 112 -45c53 0 92 21 111 45l36 -55c-24 -42 -71 -83 -146 -83s-124 41 -148 83z" />
    <glyph glyph-name="Icircumflex" unicode="&#xce;" horiz-adv-x="338" 
d="M99 0v680h140v-680h-140zM234 746l-66 84l-66 -84h-106l104 152h136l103 -152h-105z" />
    <glyph glyph-name="Itilde" unicode="&#x128;" horiz-adv-x="338" 
d="M99 0v680h140v-680h-140zM23 757l-42 55c20 45 64 84 112 84c67 0 108 -59 152 -59c33 0 56 19 69 44l43 -54c-25 -52 -64 -85 -112 -85c-62 0 -110 59 -151 59c-32 0 -54 -17 -71 -44z" />
    <glyph glyph-name="Idieresis" unicode="&#xcf;" horiz-adv-x="338" 
d="M99 0v680h140v-680h-140zM-35 826c0 48 31 66 76 66c44 0 75 -18 75 -66c0 -47 -31 -66 -75 -66c-45 0 -76 19 -76 66zM220 826c0 48 31 66 77 66c44 0 74 -18 74 -66c0 -47 -30 -66 -74 -66c-46 0 -77 19 -77 66z" />
    <glyph glyph-name="Imacron" unicode="&#x12a;" horiz-adv-x="338" 
d="M99 0v680h140v-680h-140zM296 767h-255v96h255v-96z" />
    <glyph glyph-name="Idotaccent" unicode="&#x130;" horiz-adv-x="338" 
d="M99 0v680h140v-680h-140zM87 828c0 51 33 69 82 69c48 0 80 -18 80 -69s-32 -70 -80 -70c-49 0 -82 19 -82 70z" />
    <glyph glyph-name="Iogonek" unicode="&#x12e;" horiz-adv-x="338" 
d="M99 0v680h140v-680h-39c-49 -2 -83 -29 -83 -69c0 -32 19 -51 52 -51c19 0 37 7 54 18l14 -60c-21 -13 -48 -23 -87 -23c-60 0 -99 38 -99 97c0 42 27 73 57 88h-9z" />
    <glyph glyph-name="Jcircumflex" unicode="&#x134;" horiz-adv-x="658" 
d="M425 680h141v-410c0 -165 -89 -281 -272 -281c-182 0 -260 108 -270 272l139 13c7 -97 40 -155 133 -155c94 0 129 60 129 160v401zM557 746l-66 84l-66 -84h-106l104 152h136l103 -152h-105z" />
    <glyph glyph-name="Kcommaaccent" unicode="&#x136;" horiz-adv-x="788" 
d="M99 0v680h140v-283h134l185 283h145v-21l-225 -327c50 -56 108 -220 203 -220c24 0 54 5 76 15l15 -111c-28 -14 -75 -26 -119 -26c-168 0 -235 219 -295 285h-119v-275h-140zM318 -255l24 65c-37 7 -56 31 -56 63c0 43 31 68 72 68c54 0 85 -27 85 -79
c0 -47 -25 -98 -58 -141z" />
    <glyph glyph-name="Lacute" unicode="&#x139;" horiz-adv-x="616" 
d="M592 0h-493v680h140v-558h353v-122zM325 898l-102 -152h-118l81 152h139z" />
    <glyph glyph-name="Lcaron" unicode="&#x13d;" horiz-adv-x="621" 
d="M592 0h-493v680h140v-558h353v-122zM421 493l24 65c-37 7 -56 31 -56 63c0 43 31 68 72 68c54 0 85 -27 85 -79c0 -47 -25 -98 -58 -141z" />
    <glyph glyph-name="Lcommaaccent" unicode="&#x13b;" horiz-adv-x="615" 
d="M592 0h-493v680h140v-558h353v-122zM290 -255l24 65c-37 7 -56 31 -56 63c0 43 31 68 72 68c54 0 85 -27 85 -79c0 -47 -25 -98 -58 -141z" />
    <glyph glyph-name="Lslash" unicode="&#x141;" horiz-adv-x="617" 
d="M593 0h-493v255l-47 -23v111l47 23v314h140v-243l115 58v-111l-115 -58v-204h353v-122z" />
    <glyph glyph-name="Ldot" unicode="&#x13f;" horiz-adv-x="630" 
d="M592 0h-493v680h140v-558h353v-122zM358 390c0 54 31 85 86 85s87 -31 87 -85s-32 -84 -87 -84s-86 30 -86 84z" />
    <glyph glyph-name="Nacute" unicode="&#x143;" horiz-adv-x="842" 
d="M621 0l-382 457v-457h-140v680h122l382 -458v458h140v-680h-122zM579 898l-102 -152h-118l81 152h139z" />
    <glyph glyph-name="Ncaron" unicode="&#x147;" horiz-adv-x="842" 
d="M621 0l-382 457v-457h-140v680h122l382 -458v458h140v-680h-122zM360 898l66 -83l66 83h105l-103 -152h-136l-104 152h106z" />
    <glyph glyph-name="Ntilde" unicode="&#xd1;" horiz-adv-x="842" 
d="M621 0l-382 457v-457h-140v680h122l382 -458v458h140v-680h-122zM278 757l-42 55c20 45 64 84 112 84c67 0 108 -59 152 -59c33 0 56 19 69 44l43 -54c-25 -52 -64 -85 -112 -85c-62 0 -110 59 -151 59c-32 0 -54 -17 -71 -44z" />
    <glyph glyph-name="Ncommaaccent" unicode="&#x145;" horiz-adv-x="842" 
d="M621 0l-382 457v-457h-140v680h122l382 -458v458h140v-680h-122zM362 -255l24 65c-37 7 -56 31 -56 63c0 43 31 68 72 68c54 0 85 -27 85 -79c0 -47 -25 -98 -58 -141z" />
    <glyph glyph-name="Ograve" unicode="&#xd2;" horiz-adv-x="814" 
d="M57 339c0 201 150 351 349 351c201 0 351 -150 351 -351c0 -199 -150 -349 -351 -349c-199 0 -349 150 -349 349zM195 339c0 -123 89 -218 212 -218c125 0 212 95 212 218c0 125 -87 218 -212 218c-123 0 -212 -93 -212 -218zM352 746l-102 152h139l81 -152h-118z" />
    <glyph glyph-name="Oacute" unicode="&#xd3;" horiz-adv-x="814" 
d="M57 339c0 201 150 351 349 351c201 0 351 -150 351 -351c0 -199 -150 -349 -351 -349c-199 0 -349 150 -349 349zM195 339c0 -123 89 -218 212 -218c125 0 212 95 212 218c0 125 -87 218 -212 218c-123 0 -212 -93 -212 -218zM562 898l-102 -152h-118l81 152h139z" />
    <glyph glyph-name="Ocircumflex" unicode="&#xd4;" horiz-adv-x="814" 
d="M57 339c0 201 150 351 349 351c201 0 351 -150 351 -351c0 -199 -150 -349 -351 -349c-199 0 -349 150 -349 349zM195 339c0 -123 89 -218 212 -218c125 0 212 95 212 218c0 125 -87 218 -212 218c-123 0 -212 -93 -212 -218zM472 746l-66 84l-66 -84h-106l104 152h136
l103 -152h-105z" />
    <glyph glyph-name="Otilde" unicode="&#xd5;" horiz-adv-x="814" 
d="M57 339c0 201 150 351 349 351c201 0 351 -150 351 -351c0 -199 -150 -349 -351 -349c-199 0 -349 150 -349 349zM195 339c0 -123 89 -218 212 -218c125 0 212 95 212 218c0 125 -87 218 -212 218c-123 0 -212 -93 -212 -218zM260 757l-42 55c20 45 64 84 112 84
c67 0 108 -59 152 -59c33 0 56 19 69 44l43 -54c-25 -52 -64 -85 -112 -85c-62 0 -110 59 -151 59c-32 0 -54 -17 -71 -44z" />
    <glyph glyph-name="Odieresis" unicode="&#xd6;" horiz-adv-x="814" 
d="M57 339c0 201 150 351 349 351c201 0 351 -150 351 -351c0 -199 -150 -349 -351 -349c-199 0 -349 150 -349 349zM195 339c0 -123 89 -218 212 -218c125 0 212 95 212 218c0 125 -87 218 -212 218c-123 0 -212 -93 -212 -218zM203 826c0 48 31 66 76 66
c44 0 75 -18 75 -66c0 -47 -31 -66 -75 -66c-45 0 -76 19 -76 66zM458 826c0 48 31 66 77 66c44 0 74 -18 74 -66c0 -47 -30 -66 -74 -66c-46 0 -77 19 -77 66z" />
    <glyph glyph-name="Omacron" unicode="&#x14c;" horiz-adv-x="814" 
d="M57 339c0 201 150 351 349 351c201 0 351 -150 351 -351c0 -199 -150 -349 -351 -349c-199 0 -349 150 -349 349zM195 339c0 -123 89 -218 212 -218c125 0 212 95 212 218c0 125 -87 218 -212 218c-123 0 -212 -93 -212 -218zM533 767h-255v96h255v-96z" />
    <glyph glyph-name="Obreve" unicode="&#x14e;" horiz-adv-x="814" 
d="M57 339c0 201 150 351 349 351c201 0 351 -150 351 -351c0 -199 -150 -349 -351 -349c-199 0 -349 150 -349 349zM195 339c0 -123 89 -218 212 -218c125 0 212 95 212 218c0 125 -87 218 -212 218c-123 0 -212 -93 -212 -218zM259 830l35 55c19 -23 57 -45 112 -45
c53 0 92 21 111 45l36 -55c-24 -42 -71 -83 -146 -83s-124 41 -148 83z" />
    <glyph glyph-name="Ohungarumlaut" unicode="&#x150;" horiz-adv-x="814" 
d="M57 339c0 201 150 351 349 351c201 0 351 -150 351 -351c0 -199 -150 -349 -351 -349c-199 0 -349 150 -349 349zM195 339c0 -123 89 -218 212 -218c125 0 212 95 212 218c0 125 -87 218 -212 218c-123 0 -212 -93 -212 -218zM475 898l-103 -152h-117l81 152h139z
M680 898l-102 -152h-117l81 152h138z" />
    <glyph glyph-name="Oslash" unicode="&#xd8;" horiz-adv-x="814" 
d="M57 339c0 201 150 351 349 351c73 0 139 -20 193 -55l37 45h100v-10l-72 -88c58 -62 93 -147 93 -243c0 -199 -150 -349 -351 -349c-68 0 -130 17 -183 48l-31 -38h-101v11l65 80c-62 62 -99 149 -99 248zM192 339c0 -55 18 -105 49 -143l273 335c-31 18 -68 28 -108 28
c-123 0 -214 -95 -214 -220zM620 339c0 52 -16 99 -43 136l-269 -332c29 -15 62 -23 98 -23c125 0 214 96 214 219z" />
    <glyph glyph-name="Oslashacute" unicode="&#x1fe;" horiz-adv-x="814" 
d="M57 339c0 201 150 351 349 351c73 0 139 -20 193 -55l37 45h100v-10l-72 -88c58 -62 93 -147 93 -243c0 -199 -150 -349 -351 -349c-68 0 -130 17 -183 48l-31 -38h-101v11l65 80c-62 62 -99 149 -99 248zM192 339c0 -55 18 -105 49 -143l273 335c-31 18 -68 28 -108 28
c-123 0 -214 -95 -214 -220zM620 339c0 52 -16 99 -43 136l-269 -332c29 -15 62 -23 98 -23c125 0 214 96 214 219zM562 898l-102 -152h-118l81 152h139z" />
    <glyph glyph-name="OE" unicode="&#x152;" horiz-adv-x="1171" 
d="M574 0v41c-50 -32 -108 -52 -171 -52c-199 0 -346 150 -346 349c0 201 147 351 346 351c66 0 123 -19 171 -51v42h538v-123h-404v-152h331v-113h-331v-170h404v-122h-538zM192 338c0 -123 91 -218 220 -218c65 0 124 25 162 63v312c-38 37 -96 63 -164 63
c-127 0 -218 -95 -218 -220z" />
    <glyph glyph-name="Racute" unicode="&#x154;" horiz-adv-x="777" 
d="M99 0v680h299c134 0 271 -54 271 -221c0 -113 -83 -194 -192 -211c64 -62 130 -137 201 -137c23 0 54 6 76 16l14 -111c-28 -14 -68 -26 -112 -26c-152 0 -264 192 -349 255h-68v-245h-140zM413 558h-174v-203h174c64 0 110 38 110 101c0 67 -46 102 -110 102zM499 898
l-102 -152h-118l81 152h139z" />
    <glyph glyph-name="Rcaron" unicode="&#x158;" horiz-adv-x="777" 
d="M99 0v680h299c134 0 271 -54 271 -221c0 -113 -83 -194 -192 -211c64 -62 130 -137 201 -137c23 0 54 6 76 16l14 -111c-28 -14 -68 -26 -112 -26c-152 0 -264 192 -349 255h-68v-245h-140zM413 558h-174v-203h174c64 0 110 38 110 101c0 67 -46 102 -110 102zM274 898
l66 -83l66 83h105l-103 -152h-136l-104 152h106z" />
    <glyph glyph-name="Rcommaaccent" unicode="&#x156;" horiz-adv-x="778" 
d="M99 0v680h299c134 0 271 -54 271 -221c0 -113 -83 -194 -192 -211c64 -62 130 -137 201 -137c23 0 54 6 76 16l14 -111c-28 -14 -68 -26 -112 -26c-152 0 -264 192 -349 255h-68v-245h-140zM413 558h-174v-203h174c64 0 110 38 110 101c0 67 -46 102 -110 102zM326 -255
l24 65c-37 7 -56 31 -56 63c0 43 31 68 72 68c54 0 85 -27 85 -79c0 -47 -25 -98 -58 -141z" />
    <glyph glyph-name="Sacute" unicode="&#x15a;" horiz-adv-x="642" 
d="M343 266l-129 35c-103 27 -156 90 -156 182c0 113 85 206 272 206c98 0 192 -26 244 -54l-40 -131c-50 32 -135 57 -209 57c-86 0 -122 -27 -122 -66c0 -37 25 -52 74 -66l126 -36c123 -35 183 -91 183 -188c0 -128 -113 -215 -277 -215c-99 0 -196 34 -240 59l33 133
c49 -32 128 -64 210 -64s128 31 128 76c0 37 -36 55 -97 72zM487 898l-102 -152h-118l81 152h139z" />
    <glyph glyph-name="Scircumflex" unicode="&#x15c;" horiz-adv-x="642" 
d="M343 266l-129 35c-103 27 -156 90 -156 182c0 113 85 206 272 206c98 0 192 -26 244 -54l-40 -131c-50 32 -135 57 -209 57c-86 0 -122 -27 -122 -66c0 -37 25 -52 74 -66l126 -36c123 -35 183 -91 183 -188c0 -128 -113 -215 -277 -215c-99 0 -196 34 -240 59l33 133
c49 -32 128 -64 210 -64s128 31 128 76c0 37 -36 55 -97 72zM390 746l-66 84l-66 -84h-106l104 152h136l103 -152h-105z" />
    <glyph glyph-name="Scaron" unicode="&#x160;" horiz-adv-x="642" 
d="M343 266l-129 35c-103 27 -156 90 -156 182c0 113 85 206 272 206c98 0 192 -26 244 -54l-40 -131c-50 32 -135 57 -209 57c-86 0 -122 -27 -122 -66c0 -37 25 -52 74 -66l126 -36c123 -35 183 -91 183 -188c0 -128 -113 -215 -277 -215c-99 0 -196 34 -240 59l33 133
c49 -32 128 -64 210 -64s128 31 128 76c0 37 -36 55 -97 72zM252 898l66 -83l66 83h105l-103 -152h-136l-104 152h106z" />
    <glyph glyph-name="Scedilla" unicode="&#x15e;" horiz-adv-x="643" 
d="M241 -97l26 89c-83 8 -160 35 -197 57l33 133c49 -32 128 -64 210 -64s128 31 128 76c0 37 -36 55 -97 72l-129 35c-103 27 -156 90 -156 182c0 113 85 206 272 206c98 0 192 -26 244 -54l-40 -131c-50 32 -135 57 -209 57c-86 0 -122 -27 -122 -66c0 -37 25 -52 74 -66
l126 -36c123 -35 183 -91 183 -188c0 -125 -107 -210 -263 -215l-14 -47c7 2 17 3 26 3c56 0 87 -28 87 -67c0 -49 -49 -77 -114 -77c-25 0 -52 3 -78 11l12 46c20 -6 40 -11 62 -11c32 0 54 9 54 29c0 17 -18 27 -52 27c-20 0 -48 -3 -62 -6z" />
    <glyph glyph-name="Scommaaccent" unicode="&#x218;" horiz-adv-x="642" 
d="M343 266l-129 35c-103 27 -156 90 -156 182c0 113 85 206 272 206c98 0 192 -26 244 -54l-40 -131c-50 32 -135 57 -209 57c-86 0 -122 -27 -122 -66c0 -37 25 -52 74 -66l126 -36c123 -35 183 -91 183 -188c0 -128 -113 -215 -277 -215c-99 0 -196 34 -240 59l33 133
c49 -32 128 -64 210 -64s128 31 128 76c0 37 -36 55 -97 72zM265 -255l24 65c-37 7 -56 31 -56 63c0 43 31 68 72 68c54 0 85 -27 85 -79c0 -47 -25 -98 -58 -141z" />
    <glyph glyph-name="Tcaron" unicode="&#x164;" horiz-adv-x="638" 
d="M609 557h-216v-557h-140v557h-224v123h580v-123zM256 898l66 -83l66 83h105l-103 -152h-136l-104 152h106z" />
    <glyph glyph-name="Tcommaaccent" unicode="&#x162;" horiz-adv-x="638" 
d="M609 557h-216v-557h-49l-18 -57c7 2 17 3 26 3c56 0 87 -28 87 -67c0 -49 -49 -77 -114 -77c-25 0 -52 3 -78 11l12 46c20 -6 40 -11 62 -11c32 0 54 9 54 29c0 17 -18 27 -52 27c-20 0 -48 -3 -62 -6l-4 5l30 97h-34v557h-224v123h580v-123z" />
    <glyph glyph-name="uni021A" unicode="&#x21a;" horiz-adv-x="638" 
d="M609 557h-216v-557h-140v557h-224v123h580v-123zM268 -255l24 65c-37 7 -56 31 -56 63c0 43 31 68 72 68c54 0 85 -27 85 -79c0 -47 -25 -98 -58 -141z" />
    <glyph glyph-name="Tbar" unicode="&#x166;" horiz-adv-x="638" 
d="M609 557h-216v-190h101v-110h-101v-257h-140v257h-96v110h96v190h-224v123h580v-123z" />
    <glyph glyph-name="Thorn" unicode="&#xde;" horiz-adv-x="713" 
d="M99 0v680h140v-94h185c133 0 247 -71 247 -240c0 -154 -114 -237 -247 -237h-185v-109h-140zM404 464h-165v-233h165c69 0 124 40 124 116c0 80 -55 117 -124 117z" />
    <glyph glyph-name="Ugrave" unicode="&#xd9;" horiz-adv-x="801" 
d="M231 680v-384c0 -108 55 -177 168 -177c115 0 171 73 171 178v383h140v-393c0 -160 -108 -298 -311 -298c-201 0 -308 125 -308 298v393h140zM346 746l-102 152h139l81 -152h-118z" />
    <glyph glyph-name="Uacute" unicode="&#xda;" horiz-adv-x="801" 
d="M231 680v-384c0 -108 55 -177 168 -177c115 0 171 73 171 178v383h140v-393c0 -160 -108 -298 -311 -298c-201 0 -308 125 -308 298v393h140zM556 898l-102 -152h-118l81 152h139z" />
    <glyph glyph-name="Ucircumflex" unicode="&#xdb;" horiz-adv-x="801" 
d="M231 680v-384c0 -108 55 -177 168 -177c115 0 171 73 171 178v383h140v-393c0 -160 -108 -298 -311 -298c-201 0 -308 125 -308 298v393h140zM466 746l-66 84l-66 -84h-106l104 152h136l103 -152h-105z" />
    <glyph glyph-name="Utilde" unicode="&#x168;" horiz-adv-x="801" 
d="M231 680v-384c0 -108 55 -177 168 -177c115 0 171 73 171 178v383h140v-393c0 -160 -108 -298 -311 -298c-201 0 -308 125 -308 298v393h140zM254 757l-42 55c20 45 64 84 112 84c67 0 108 -59 152 -59c33 0 56 19 69 44l43 -54c-25 -52 -64 -85 -112 -85
c-62 0 -110 59 -151 59c-32 0 -54 -17 -71 -44z" />
    <glyph glyph-name="Udieresis" unicode="&#xdc;" horiz-adv-x="801" 
d="M231 680v-384c0 -108 55 -177 168 -177c115 0 171 73 171 178v383h140v-393c0 -160 -108 -298 -311 -298c-201 0 -308 125 -308 298v393h140zM197 826c0 48 31 66 76 66c44 0 75 -18 75 -66c0 -47 -31 -66 -75 -66c-45 0 -76 19 -76 66zM452 826c0 48 31 66 77 66
c44 0 74 -18 74 -66c0 -47 -30 -66 -74 -66c-46 0 -77 19 -77 66z" />
    <glyph glyph-name="Umacron" unicode="&#x16a;" horiz-adv-x="801" 
d="M231 680v-384c0 -108 55 -177 168 -177c115 0 171 73 171 178v383h140v-393c0 -160 -108 -298 -311 -298c-201 0 -308 125 -308 298v393h140zM527 767h-255v96h255v-96z" />
    <glyph glyph-name="Ubreve" unicode="&#x16c;" horiz-adv-x="801" 
d="M231 680v-384c0 -108 55 -177 168 -177c115 0 171 73 171 178v383h140v-393c0 -160 -108 -298 -311 -298c-201 0 -308 125 -308 298v393h140zM253 830l35 55c19 -23 57 -45 112 -45c53 0 92 21 111 45l36 -55c-24 -42 -71 -83 -146 -83s-124 41 -148 83z" />
    <glyph glyph-name="Uring" unicode="&#x16e;" horiz-adv-x="801" 
d="M231 680v-384c0 -108 55 -177 168 -177c115 0 171 73 171 178v383h140v-393c0 -160 -108 -298 -311 -298c-201 0 -308 125 -308 298v393h140zM302 787c0 54 44 98 98 98s98 -44 98 -98s-44 -98 -98 -98s-98 44 -98 98zM359 787c0 -23 18 -41 41 -41c22 0 40 18 40 41
c0 22 -18 40 -40 40c-23 0 -41 -18 -41 -40z" />
    <glyph glyph-name="Uhungarumlaut" unicode="&#x170;" horiz-adv-x="801" 
d="M231 680v-384c0 -108 55 -177 168 -177c115 0 171 73 171 178v383h140v-393c0 -160 -108 -298 -311 -298c-201 0 -308 125 -308 298v393h140zM453 898l-103 -152h-117l81 152h139zM658 898l-102 -152h-117l81 152h138z" />
    <glyph glyph-name="Uogonek" unicode="&#x172;" horiz-adv-x="802" 
d="M232 680v-384c0 -108 55 -179 168 -179c115 0 171 75 171 180v383h140v-393c0 -141 -84 -265 -243 -292c-34 -12 -57 -31 -57 -64c0 -32 19 -51 53 -51c19 0 36 7 54 18l13 -60c-20 -13 -48 -23 -87 -23c-59 0 -99 38 -99 97c0 34 18 60 41 77c-192 6 -294 129 -294 298
v393h140z" />
    <glyph glyph-name="Wacute" unicode="&#x1e82;" horiz-adv-x="1104" 
d="M669 0l-115 291l-123 -291h-152l-263 680h151l200 -523l126 300l-84 223h152l182 -500l196 500h153l-271 -680h-152zM704 898l-102 -152h-118l81 152h139z" />
    <glyph glyph-name="Wcircumflex" unicode="&#x174;" horiz-adv-x="1104" 
d="M669 0l-115 291l-123 -291h-152l-263 680h151l200 -523l126 300l-84 223h152l182 -500l196 500h153l-271 -680h-152zM618 746l-66 84l-66 -84h-106l104 152h136l103 -152h-105z" />
    <glyph glyph-name="Wdieresis" unicode="&#x1e84;" horiz-adv-x="1104" 
d="M669 0l-115 291l-123 -291h-152l-263 680h151l200 -523l126 300l-84 223h152l182 -500l196 500h153l-271 -680h-152zM349 826c0 48 31 66 76 66c44 0 75 -18 75 -66c0 -47 -31 -66 -75 -66c-45 0 -76 19 -76 66zM604 826c0 48 31 66 77 66c44 0 74 -18 74 -66
c0 -47 -30 -66 -74 -66c-46 0 -77 19 -77 66z" />
    <glyph glyph-name="Wgrave" unicode="&#x1e80;" horiz-adv-x="1104" 
d="M669 0l-115 291l-123 -291h-152l-263 680h151l200 -523l126 300l-84 223h152l182 -500l196 500h153l-271 -680h-152zM504 746l-102 152h139l81 -152h-118z" />
    <glyph glyph-name="Yacute" unicode="&#xdd;" horiz-adv-x="686" 
d="M273 0v269l-266 401v10h156l180 -282l180 282h156v-10l-266 -400v-270h-140zM498 898l-102 -152h-118l81 152h139z" />
    <glyph glyph-name="Ycircumflex" unicode="&#x176;" horiz-adv-x="686" 
d="M273 0v269l-266 401v10h156l180 -282l180 282h156v-10l-266 -400v-270h-140zM408 746l-66 84l-66 -84h-106l104 152h136l103 -152h-105z" />
    <glyph glyph-name="Ydieresis" unicode="&#x178;" horiz-adv-x="686" 
d="M273 0v269l-266 401v10h156l180 -282l180 282h156v-10l-266 -400v-270h-140zM139 826c0 48 31 66 76 66c44 0 75 -18 75 -66c0 -47 -31 -66 -75 -66c-45 0 -76 19 -76 66zM394 826c0 48 31 66 77 66c44 0 74 -18 74 -66c0 -47 -30 -66 -74 -66c-46 0 -77 19 -77 66z" />
    <glyph glyph-name="Ygrave" unicode="&#x1ef2;" horiz-adv-x="686" 
d="M273 0v269l-266 401v10h156l180 -282l180 282h156v-10l-266 -400v-270h-140zM288 746l-102 152h139l81 -152h-118z" />
    <glyph glyph-name="Zacute" unicode="&#x179;" horiz-adv-x="654" 
d="M62 98l350 460h-350v122h530v-98l-348 -460h348v-122h-530v98zM482 898l-102 -152h-118l81 152h139z" />
    <glyph glyph-name="Zcaron" unicode="&#x17d;" horiz-adv-x="654" 
d="M62 98l350 460h-350v122h530v-98l-348 -460h348v-122h-530v98zM266 898l66 -83l66 83h105l-103 -152h-136l-104 152h106z" />
    <glyph glyph-name="Zdotaccent" unicode="&#x17b;" horiz-adv-x="654" 
d="M62 98l350 460h-350v122h530v-98l-348 -460h348v-122h-530v98zM253 828c0 51 33 69 82 69c48 0 80 -18 80 -69s-32 -70 -80 -70c-49 0 -82 19 -82 70z" />
    <glyph glyph-name="agrave" unicode="&#xe0;" horiz-adv-x="713" 
d="M590 523v-362c0 -30 8 -53 36 -53c20 0 36 7 53 16l6 -111c-26 -12 -69 -23 -114 -23c-59 0 -96 24 -111 76c-36 -42 -94 -75 -166 -75c-146 0 -245 112 -245 269c0 159 99 272 245 272c68 0 121 -19 156 -54v45h140zM450 159v204c-24 25 -70 47 -117 47
c-87 0 -142 -60 -142 -150c0 -88 56 -148 142 -148c46 0 89 21 117 47zM305 589l-102 152h139l81 -152h-118z" />
    <glyph glyph-name="aacute" unicode="&#xe1;" horiz-adv-x="713" 
d="M590 523v-362c0 -30 8 -53 36 -53c20 0 36 7 53 16l6 -111c-26 -12 -69 -23 -114 -23c-59 0 -96 24 -111 76c-36 -42 -94 -75 -166 -75c-146 0 -245 112 -245 269c0 159 99 272 245 272c68 0 121 -19 156 -54v45h140zM450 159v204c-24 25 -70 47 -117 47
c-87 0 -142 -60 -142 -150c0 -88 56 -148 142 -148c46 0 89 21 117 47zM503 741l-102 -152h-118l81 152h139z" />
    <glyph glyph-name="acircumflex" unicode="&#xe2;" horiz-adv-x="713" 
d="M590 523v-362c0 -30 8 -53 36 -53c20 0 36 7 53 16l6 -111c-26 -12 -69 -23 -114 -23c-59 0 -96 24 -111 76c-36 -42 -94 -75 -166 -75c-146 0 -245 112 -245 269c0 159 99 272 245 272c68 0 121 -19 156 -54v45h140zM450 159v204c-24 25 -70 47 -117 47
c-87 0 -142 -60 -142 -150c0 -88 56 -148 142 -148c46 0 89 21 117 47zM411 589l-66 84l-66 -84h-106l104 152h136l103 -152h-105z" />
    <glyph glyph-name="atilde" unicode="&#xe3;" horiz-adv-x="713" 
d="M590 523v-362c0 -30 8 -53 36 -53c20 0 36 7 53 16l6 -111c-26 -12 -69 -23 -114 -23c-59 0 -96 24 -111 76c-36 -42 -94 -75 -166 -75c-146 0 -245 112 -245 269c0 159 99 272 245 272c68 0 121 -19 156 -54v45h140zM450 159v204c-24 25 -70 47 -117 47
c-87 0 -142 -60 -142 -150c0 -88 56 -148 142 -148c46 0 89 21 117 47zM205 600l-42 55c20 45 64 84 112 84c67 0 108 -59 152 -59c33 0 56 19 69 44l43 -54c-25 -52 -64 -85 -112 -85c-62 0 -110 59 -151 59c-32 0 -54 -17 -71 -44z" />
    <glyph glyph-name="adieresis" unicode="&#xe4;" horiz-adv-x="713" 
d="M590 523v-362c0 -30 8 -53 36 -53c20 0 36 7 53 16l6 -111c-26 -12 -69 -23 -114 -23c-59 0 -96 24 -111 76c-36 -42 -94 -75 -166 -75c-146 0 -245 112 -245 269c0 159 99 272 245 272c68 0 121 -19 156 -54v45h140zM450 159v204c-24 25 -70 47 -117 47
c-87 0 -142 -60 -142 -150c0 -88 56 -148 142 -148c46 0 89 21 117 47zM154 669c0 48 31 66 76 66c44 0 75 -18 75 -66c0 -47 -31 -66 -75 -66c-45 0 -76 19 -76 66zM409 669c0 48 31 66 77 66c44 0 74 -18 74 -66c0 -47 -30 -66 -74 -66c-46 0 -77 19 -77 66z" />
    <glyph glyph-name="amacron" unicode="&#x101;" horiz-adv-x="713" 
d="M590 523v-362c0 -30 8 -53 36 -53c20 0 36 7 53 16l6 -111c-26 -12 -69 -23 -114 -23c-59 0 -96 24 -111 76c-36 -42 -94 -75 -166 -75c-146 0 -245 112 -245 269c0 159 99 272 245 272c68 0 121 -19 156 -54v45h140zM450 159v204c-24 25 -70 47 -117 47
c-87 0 -142 -60 -142 -150c0 -88 56 -148 142 -148c46 0 89 21 117 47zM476 610h-255v96h255v-96z" />
    <glyph glyph-name="abreve" unicode="&#x103;" horiz-adv-x="713" 
d="M590 523v-362c0 -30 8 -53 36 -53c20 0 36 7 53 16l6 -111c-26 -12 -69 -23 -114 -23c-59 0 -96 24 -111 76c-36 -42 -94 -75 -166 -75c-146 0 -245 112 -245 269c0 159 99 272 245 272c68 0 121 -19 156 -54v45h140zM450 159v204c-24 25 -70 47 -117 47
c-87 0 -142 -60 -142 -150c0 -88 56 -148 142 -148c46 0 89 21 117 47zM202 673l35 55c19 -23 57 -45 112 -45c53 0 92 21 111 45l36 -55c-24 -42 -71 -83 -146 -83s-124 41 -148 83z" />
    <glyph glyph-name="aring" unicode="&#xe5;" horiz-adv-x="713" 
d="M590 523v-362c0 -30 8 -53 36 -53c20 0 36 7 53 16l6 -111c-26 -12 -69 -23 -114 -23c-59 0 -96 24 -111 76c-36 -42 -94 -75 -166 -75c-146 0 -245 112 -245 269c0 159 99 272 245 272c68 0 121 -19 156 -54v45h140zM450 159v204c-24 25 -70 47 -117 47
c-87 0 -142 -60 -142 -150c0 -88 56 -148 142 -148c46 0 89 21 117 47zM251 670c0 54 44 98 98 98s98 -44 98 -98s-44 -98 -98 -98s-98 44 -98 98zM308 670c0 -23 18 -41 41 -41c22 0 40 18 40 41c0 22 -18 40 -40 40c-23 0 -41 -18 -41 -40z" />
    <glyph glyph-name="aringacute" unicode="&#x1fb;" horiz-adv-x="713" 
d="M456 839l-66 -83h-86l51 83h101zM251 654c0 54 44 84 98 84s98 -30 98 -84s-44 -84 -98 -84s-98 30 -98 84zM308 654c0 -23 18 -31 41 -31c22 0 40 8 40 31c0 22 -18 30 -40 30c-23 0 -41 -8 -41 -30zM590 523v-362c0 -30 8 -53 36 -53c20 0 36 7 53 16l6 -111
c-26 -12 -69 -23 -114 -23c-59 0 -96 24 -111 76c-36 -42 -94 -75 -166 -75c-146 0 -245 112 -245 269c0 159 99 272 245 272c68 0 121 -19 156 -54v45h140zM450 159v204c-24 25 -70 47 -117 47c-87 0 -142 -60 -142 -150c0 -88 56 -148 142 -148c46 0 89 21 117 47z" />
    <glyph glyph-name="aogonek" unicode="&#x105;" horiz-adv-x="713" 
d="M590 523v-362c0 -30 8 -53 36 -53c20 0 36 7 53 16l6 -111c-19 -9 -46 -16 -77 -20c-32 -12 -55 -30 -55 -62s20 -51 53 -51c19 0 37 7 54 18l13 -60c-20 -13 -48 -23 -87 -23c-59 0 -99 38 -99 97c0 37 22 64 48 81c-38 8 -64 32 -75 73c-36 -42 -94 -75 -166 -75
c-146 0 -245 112 -245 269c0 159 99 272 245 272c68 0 121 -19 156 -54v45h140zM450 159v204c-24 25 -70 47 -117 47c-87 0 -142 -60 -142 -150c0 -88 56 -148 142 -148c46 0 89 21 117 47z" />
    <glyph glyph-name="ae" unicode="&#xe6;" horiz-adv-x="911" 
d="M851 217h-343c4 -77 42 -114 145 -114c57 0 114 26 150 53l53 -99c-54 -44 -127 -71 -216 -71c-102 0 -162 29 -199 82c-45 -39 -112 -83 -216 -83c-116 0 -186 66 -186 161c0 111 88 186 255 186c21 0 54 -2 72 -5c0 68 -19 90 -84 90c-64 0 -134 -18 -173 -37l-25 122
c67 24 148 35 212 35c109 0 143 -41 163 -90c30 46 88 90 174 90c164 0 228 -101 228 -218c0 -32 -3 -78 -10 -102zM631 421c-67 0 -109 -40 -112 -96h214c1 5 1 8 1 10c0 52 -34 86 -103 86zM179 159c0 -37 31 -56 78 -56c46 0 86 22 107 39v76c-15 3 -40 6 -73 6
c-64 0 -112 -19 -112 -65z" />
    <glyph glyph-name="aeacute" unicode="&#x1fd;" horiz-adv-x="911" 
d="M851 217h-343c4 -77 42 -114 145 -114c57 0 114 26 150 53l53 -99c-54 -44 -127 -71 -216 -71c-102 0 -162 29 -199 82c-45 -39 -112 -83 -216 -83c-116 0 -186 66 -186 161c0 111 88 186 255 186c21 0 54 -2 72 -5c0 68 -19 90 -84 90c-64 0 -134 -18 -173 -37l-25 122
c67 24 148 35 212 35c109 0 143 -41 163 -90c30 46 88 90 174 90c164 0 228 -101 228 -218c0 -32 -3 -78 -10 -102zM631 421c-67 0 -109 -40 -112 -96h214c1 5 1 8 1 10c0 52 -34 86 -103 86zM179 159c0 -37 31 -56 78 -56c46 0 86 22 107 39v76c-15 3 -40 6 -73 6
c-64 0 -112 -19 -112 -65zM620 741l-102 -152h-118l81 152h139z" />
    <glyph glyph-name="cacute" unicode="&#x107;" horiz-adv-x="602" 
d="M500 167l54 -109c-56 -44 -135 -72 -222 -72c-197 0 -284 117 -284 274c0 160 109 277 276 277c152 0 231 -84 236 -205l-124 -28c-5 68 -36 110 -111 110c-83 0 -133 -64 -133 -150c0 -84 46 -155 157 -155c52 0 113 28 151 58zM476 741l-102 -152h-118l81 152h139z" />
    <glyph glyph-name="ccircumflex" unicode="&#x109;" horiz-adv-x="602" 
d="M500 167l54 -109c-56 -44 -135 -72 -222 -72c-197 0 -284 117 -284 274c0 160 109 277 276 277c152 0 231 -84 236 -205l-124 -28c-5 68 -36 110 -111 110c-83 0 -133 -64 -133 -150c0 -84 46 -155 157 -155c52 0 113 28 151 58zM391 589l-66 84l-66 -84h-106l104 152
h136l103 -152h-105z" />
    <glyph glyph-name="ccaron" unicode="&#x10d;" horiz-adv-x="602" 
d="M500 167l54 -109c-56 -44 -135 -72 -222 -72c-197 0 -284 117 -284 274c0 160 109 277 276 277c152 0 231 -84 236 -205l-124 -28c-5 68 -36 110 -111 110c-83 0 -133 -64 -133 -150c0 -84 46 -155 157 -155c52 0 113 28 151 58zM263 741l66 -83l66 83h105l-103 -152
h-136l-104 152h106z" />
    <glyph glyph-name="cdotaccent" unicode="&#x10b;" horiz-adv-x="602" 
d="M500 167l54 -109c-56 -44 -135 -72 -222 -72c-197 0 -284 117 -284 274c0 160 109 277 276 277c152 0 231 -84 236 -205l-124 -28c-5 68 -36 110 -111 110c-83 0 -133 -64 -133 -150c0 -84 46 -155 157 -155c52 0 113 28 151 58zM248 671c0 51 33 69 82 69
c48 0 80 -18 80 -69s-32 -70 -80 -70c-49 0 -82 19 -82 70z" />
    <glyph glyph-name="ccedilla" unicode="&#xe7;" horiz-adv-x="603" 
d="M245 -97l26 88c-154 22 -222 129 -222 269c0 160 109 277 276 277c152 0 231 -84 236 -205l-124 -28c-5 68 -36 110 -111 110c-83 0 -133 -64 -133 -150c0 -84 46 -155 157 -155c52 0 113 28 151 58l54 -109c-56 -44 -135 -72 -222 -72h-6l-13 -43c7 2 17 3 26 3
c56 0 87 -28 87 -67c0 -49 -49 -77 -114 -77c-25 0 -52 3 -78 11l12 46c20 -6 40 -11 62 -11c32 0 54 9 54 29c0 17 -18 27 -52 27c-20 0 -48 -3 -62 -6z" />
    <glyph glyph-name="dcaron" unicode="&#x10f;" horiz-adv-x="743" 
d="M450 710h140v-549c0 -31 7 -53 36 -53c16 0 33 7 52 16l7 -111c-25 -12 -71 -23 -115 -23c-55 0 -93 20 -110 67c-34 -41 -89 -67 -167 -67c-145 0 -245 114 -245 272s100 270 245 270c67 0 120 -21 157 -53v231zM190 262c0 -90 56 -150 143 -150c47 0 93 23 117 47v203
c-27 27 -71 48 -117 48c-86 0 -143 -59 -143 -148zM677 493l24 65c-37 7 -56 31 -56 63c0 43 31 68 72 68c54 0 85 -27 85 -79c0 -47 -25 -98 -58 -141z" />
    <glyph glyph-name="dcroat" unicode="&#x111;" horiz-adv-x="713" 
d="M450 710h140v-49h88v-100h-88v-400c0 -31 7 -53 36 -53c16 0 33 7 52 16l7 -111c-25 -12 -71 -23 -115 -23c-55 0 -93 20 -110 67c-34 -41 -89 -67 -167 -67c-145 0 -245 114 -245 272s100 270 245 270c67 0 120 -21 157 -53v82h-109v100h109v49zM190 262
c0 -90 56 -150 143 -150c47 0 93 23 117 47v203c-27 27 -71 48 -117 48c-86 0 -143 -59 -143 -148z" />
    <glyph glyph-name="eth" unicode="&#xf0;" horiz-adv-x="623" 
d="M460 700l-46 -49c85 -67 147 -175 147 -310c0 -211 -99 -351 -280 -351c-140 0 -241 95 -241 243c0 127 78 220 212 220c75 0 131 -35 165 -66c-10 74 -45 131 -89 173l-52 -55l-37 32l51 54c-25 18 -52 32 -78 41l55 88c36 -8 72 -22 106 -41l49 52zM286 118
c78 0 118 62 131 153c-28 30 -74 68 -132 68c-64 0 -106 -37 -106 -107c0 -62 40 -114 107 -114z" />
    <glyph glyph-name="egrave" unicode="&#xe8;" horiz-adv-x="607" 
d="M499 157l53 -100c-54 -44 -131 -71 -220 -71c-197 0 -285 120 -285 274c0 156 108 277 276 277c159 0 234 -97 234 -218c0 -32 -5 -82 -11 -102h-355c13 -73 60 -114 145 -114c66 0 127 27 163 54zM422 325c1 5 1 13 1 18c0 42 -32 78 -103 78c-75 0 -115 -45 -125 -96
h227zM285 589l-102 152h139l81 -152h-118z" />
    <glyph glyph-name="eacute" unicode="&#xe9;" horiz-adv-x="607" 
d="M499 157l53 -100c-54 -44 -131 -71 -220 -71c-197 0 -285 120 -285 274c0 156 108 277 276 277c159 0 234 -97 234 -218c0 -32 -5 -82 -11 -102h-355c13 -73 60 -114 145 -114c66 0 127 27 163 54zM422 325c1 5 1 13 1 18c0 42 -32 78 -103 78c-75 0 -115 -45 -125 -96
h227zM476 741l-102 -152h-118l81 152h139z" />
    <glyph glyph-name="ecircumflex" unicode="&#xea;" horiz-adv-x="607" 
d="M499 157l53 -100c-54 -44 -131 -71 -220 -71c-197 0 -285 120 -285 274c0 156 108 277 276 277c159 0 234 -97 234 -218c0 -32 -5 -82 -11 -102h-355c13 -73 60 -114 145 -114c66 0 127 27 163 54zM422 325c1 5 1 13 1 18c0 42 -32 78 -103 78c-75 0 -115 -45 -125 -96
h227zM393 589l-66 84l-66 -84h-106l104 152h136l103 -152h-105z" />
    <glyph glyph-name="ecaron" unicode="&#x11b;" horiz-adv-x="607" 
d="M499 157l53 -100c-54 -44 -131 -71 -220 -71c-197 0 -285 120 -285 274c0 156 108 277 276 277c159 0 234 -97 234 -218c0 -32 -5 -82 -11 -102h-355c13 -73 60 -114 145 -114c66 0 127 27 163 54zM422 325c1 5 1 13 1 18c0 42 -32 78 -103 78c-75 0 -115 -45 -125 -96
h227zM258 741l66 -83l66 83h105l-103 -152h-136l-104 152h106z" />
    <glyph glyph-name="edieresis" unicode="&#xeb;" horiz-adv-x="607" 
d="M499 157l53 -100c-54 -44 -131 -71 -220 -71c-197 0 -285 120 -285 274c0 156 108 277 276 277c159 0 234 -97 234 -218c0 -32 -5 -82 -11 -102h-355c13 -73 60 -114 145 -114c66 0 127 27 163 54zM422 325c1 5 1 13 1 18c0 42 -32 78 -103 78c-75 0 -115 -45 -125 -96
h227zM123 669c0 48 31 66 76 66c44 0 75 -18 75 -66c0 -47 -31 -66 -75 -66c-45 0 -76 19 -76 66zM378 669c0 48 31 66 77 66c44 0 74 -18 74 -66c0 -47 -30 -66 -74 -66c-46 0 -77 19 -77 66z" />
    <glyph glyph-name="emacron" unicode="&#x113;" horiz-adv-x="607" 
d="M499 157l53 -100c-54 -44 -131 -71 -220 -71c-197 0 -285 120 -285 274c0 156 108 277 276 277c159 0 234 -97 234 -218c0 -32 -5 -82 -11 -102h-355c13 -73 60 -114 145 -114c66 0 127 27 163 54zM422 325c1 5 1 13 1 18c0 42 -32 78 -103 78c-75 0 -115 -45 -125 -96
h227zM451 610h-255v96h255v-96z" />
    <glyph glyph-name="ebreve" unicode="&#x115;" horiz-adv-x="607" 
d="M499 157l53 -100c-54 -44 -131 -71 -220 -71c-197 0 -285 120 -285 274c0 156 108 277 276 277c159 0 234 -97 234 -218c0 -32 -5 -82 -11 -102h-355c13 -73 60 -114 145 -114c66 0 127 27 163 54zM422 325c1 5 1 13 1 18c0 42 -32 78 -103 78c-75 0 -115 -45 -125 -96
h227zM180 673l35 55c19 -23 57 -45 112 -45c53 0 92 21 111 45l36 -55c-24 -42 -71 -83 -146 -83s-124 41 -148 83z" />
    <glyph glyph-name="edotaccent" unicode="&#x117;" horiz-adv-x="607" 
d="M499 157l53 -100c-54 -44 -131 -71 -220 -71c-197 0 -285 120 -285 274c0 156 108 277 276 277c159 0 234 -97 234 -218c0 -32 -5 -82 -11 -102h-355c13 -73 60 -114 145 -114c66 0 127 27 163 54zM422 325c1 5 1 13 1 18c0 42 -32 78 -103 78c-75 0 -115 -45 -125 -96
h227zM246 671c0 51 33 69 82 69c48 0 80 -18 80 -69s-32 -70 -80 -70c-49 0 -82 19 -82 70z" />
    <glyph glyph-name="eogonek" unicode="&#x119;" horiz-adv-x="608" 
d="M499 157l53 -100c-39 -32 -90 -55 -149 -65c-33 -11 -56 -29 -56 -61s20 -51 53 -51c19 0 37 7 54 18l13 -60c-20 -13 -48 -23 -87 -23c-59 0 -99 38 -99 97c0 32 15 57 37 74c-187 6 -271 123 -271 274c0 156 108 277 276 277c159 0 234 -97 234 -218
c0 -32 -5 -82 -11 -102h-355c13 -73 60 -114 145 -114c66 0 127 27 163 54zM422 325c1 5 1 13 1 18c0 42 -32 78 -103 78c-75 0 -115 -45 -125 -96h227z" />
    <glyph glyph-name="gcircumflex" unicode="&#x11d;" horiz-adv-x="673" 
d="M408 589l-66 84l-66 -84h-106l104 152h136l103 -152h-105zM49 280c0 139 99 252 245 252c70 0 122 -20 157 -53v44h140v-458c0 -175 -110 -263 -268 -263c-105 0 -169 35 -204 52l30 124c34 -21 96 -53 174 -53c67 0 128 24 128 111v47c-37 -32 -90 -53 -157 -53
c-146 0 -245 113 -245 250zM192 280c0 -75 55 -128 141 -128c47 0 91 21 118 48v161c-24 25 -70 49 -118 49c-87 0 -141 -54 -141 -130z" />
    <glyph glyph-name="gbreve" unicode="&#x11f;" horiz-adv-x="673" 
d="M198 673l35 55c19 -23 57 -45 112 -45c53 0 92 21 111 45l36 -55c-24 -42 -71 -83 -146 -83s-124 41 -148 83zM49 280c0 139 99 252 245 252c70 0 122 -20 157 -53v44h140v-458c0 -175 -110 -263 -268 -263c-105 0 -169 35 -204 52l30 124c34 -21 96 -53 174 -53
c67 0 128 24 128 111v47c-37 -32 -90 -53 -157 -53c-146 0 -245 113 -245 250zM192 280c0 -75 55 -128 141 -128c47 0 91 21 118 48v161c-24 25 -70 49 -118 49c-87 0 -141 -54 -141 -130z" />
    <glyph glyph-name="gdotaccent" unicode="&#x121;" horiz-adv-x="673" 
d="M271 671c0 51 33 69 82 69c48 0 80 -18 80 -69s-32 -70 -80 -70c-49 0 -82 19 -82 70zM49 280c0 139 99 252 245 252c70 0 122 -20 157 -53v44h140v-458c0 -175 -110 -263 -268 -263c-105 0 -169 35 -204 52l30 124c34 -21 96 -53 174 -53c67 0 128 24 128 111v47
c-37 -32 -90 -53 -157 -53c-146 0 -245 113 -245 250zM192 280c0 -75 55 -128 141 -128c47 0 91 21 118 48v161c-24 25 -70 49 -118 49c-87 0 -141 -54 -141 -130z" />
    <glyph glyph-name="gcommaaccent" unicode="&#x123;" horiz-adv-x="673" 
d="M49 280c0 139 99 252 245 252c70 0 122 -20 157 -53v44h140v-458c0 -175 -110 -263 -268 -263c-105 0 -169 35 -204 52l30 124c34 -21 96 -53 174 -53c67 0 128 24 128 111v47c-37 -32 -90 -53 -157 -53c-146 0 -245 113 -245 250zM192 280c0 -75 55 -128 141 -128
c47 0 91 21 118 48v161c-24 25 -70 49 -118 49c-87 0 -141 -54 -141 -130zM387 779l-24 -65c38 -7 57 -31 57 -63c0 -43 -31 -68 -73 -68c-54 0 -85 27 -85 79c0 46 25 99 58 141z" />
    <glyph glyph-name="hcircumflex" unicode="&#x125;" horiz-adv-x="696" 
d="M82 710h140v-249c37 43 95 71 168 71c135 0 194 -102 194 -231v-140c0 -30 8 -53 36 -53c17 0 34 7 53 16l6 -111c-25 -12 -67 -23 -114 -23c-78 0 -121 40 -121 138v150c0 77 -36 125 -106 125c-59 0 -100 -50 -116 -92v-311h-140v710zM404 752l-66 84l-66 -84h-106
l104 152h136l103 -152h-105z" />
    <glyph glyph-name="hbar" unicode="&#x127;" horiz-adv-x="696" 
d="M82 710h140v-49h126v-100h-126v-100c37 43 95 71 168 71c135 0 194 -102 194 -231v-140c0 -30 8 -53 36 -53c17 0 34 7 53 16l6 -111c-25 -12 -67 -23 -114 -23c-78 0 -121 40 -121 138v150c0 77 -36 125 -106 125c-59 0 -100 -50 -116 -92v-311h-140v561h-71v100h71v49z
" />
    <glyph glyph-name="dotlessi" unicode="&#x131;" horiz-adv-x="345" 
d="M80 523h140v-362c0 -30 7 -53 36 -53c21 0 45 11 52 16l7 -111c-7 -6 -59 -23 -115 -23c-77 0 -120 41 -120 138v395z" />
    <glyph glyph-name="igrave" unicode="&#xec;" horiz-adv-x="345" 
d="M80 523h140v-362c0 -30 7 -53 36 -53c21 0 45 11 52 16l7 -111c-7 -6 -59 -23 -115 -23c-77 0 -120 41 -120 138v395zM109 589l-102 152h139l81 -152h-118z" />
    <glyph glyph-name="iacute" unicode="&#xed;" horiz-adv-x="345" 
d="M80 523h140v-362c0 -30 7 -53 36 -53c21 0 45 11 52 16l7 -111c-7 -6 -59 -23 -115 -23c-77 0 -120 41 -120 138v395zM303 741l-102 -152h-118l81 152h139z" />
    <glyph glyph-name="ibreve" unicode="&#x12d;" horiz-adv-x="345" 
d="M80 523h140v-362c0 -30 7 -53 36 -53c21 0 45 11 52 16l7 -111c-7 -6 -59 -23 -115 -23c-77 0 -120 41 -120 138v395zM4 673l35 55c19 -23 57 -45 112 -45c53 0 92 21 111 45l36 -55c-24 -42 -71 -83 -146 -83s-124 41 -148 83z" />
    <glyph glyph-name="icircumflex" unicode="&#xee;" horiz-adv-x="345" 
d="M80 523h140v-362c0 -30 7 -53 36 -53c21 0 45 11 52 16l7 -111c-7 -6 -59 -23 -115 -23c-77 0 -120 41 -120 138v395zM216 589l-66 84l-66 -84h-106l104 152h136l103 -152h-105z" />
    <glyph glyph-name="itilde" unicode="&#x129;" horiz-adv-x="345" 
d="M80 523h140v-362c0 -30 7 -53 36 -53c21 0 45 11 52 16l7 -111c-7 -6 -59 -23 -115 -23c-77 0 -120 41 -120 138v395zM2 600l-42 55c20 45 64 84 112 84c67 0 108 -59 152 -59c33 0 56 19 69 44l43 -54c-25 -52 -64 -85 -112 -85c-62 0 -110 59 -151 59
c-32 0 -54 -17 -71 -44z" />
    <glyph glyph-name="idieresis" unicode="&#xef;" horiz-adv-x="345" 
d="M80 523h140v-362c0 -30 7 -53 36 -53c21 0 45 11 52 16l7 -111c-7 -6 -59 -23 -115 -23c-77 0 -120 41 -120 138v395zM-52 669c0 48 31 66 76 66c44 0 75 -18 75 -66c0 -47 -31 -66 -75 -66c-45 0 -76 19 -76 66zM203 669c0 48 31 66 77 66c44 0 74 -18 74 -66
c0 -47 -30 -66 -74 -66c-46 0 -77 19 -77 66z" />
    <glyph glyph-name="imacron" unicode="&#x12b;" horiz-adv-x="345" 
d="M80 523h140v-362c0 -30 7 -53 36 -53c21 0 45 11 52 16l7 -111c-7 -6 -59 -23 -115 -23c-77 0 -120 41 -120 138v395zM276 610h-255v96h255v-96z" />
    <glyph glyph-name="iogonek" unicode="&#x12f;" horiz-adv-x="346" 
d="M81 128v395h140v-362c0 -30 7 -53 36 -53c21 0 45 11 52 16l7 -111c-6 -5 -40 -16 -81 -21c-34 -11 -56 -29 -56 -61s20 -51 53 -51c19 0 37 7 54 18l14 -60c-21 -13 -49 -23 -88 -23c-59 0 -99 38 -99 97c0 38 24 65 51 82c-54 12 -83 53 -83 134zM69 671
c0 51 33 69 82 69c48 0 80 -18 80 -69s-32 -70 -80 -70c-49 0 -82 19 -82 70z" />
    <glyph glyph-name="dotlessj" unicode="&#x237;" horiz-adv-x="304" 
d="M82 523h140v-475c0 -134 -67 -203 -145 -245l-83 91c48 30 88 68 88 148v481z" />
    <glyph glyph-name="jcircumflex" unicode="&#x135;" horiz-adv-x="304" 
d="M82 523h140v-475c0 -134 -67 -203 -145 -245l-83 91c48 30 88 68 88 148v481zM217 589l-66 84l-66 -84h-106l104 152h136l103 -152h-105z" />
    <glyph glyph-name="kcommaaccent" unicode="&#x137;" horiz-adv-x="642" 
d="M452 523h140c-18 -127 -65 -212 -142 -262l156 -238v-23h-151l-128 214c-32 -6 -67 -10 -105 -10v-204h-140v710h140v-382c116 0 199 26 230 195zM273 -255l24 65c-37 7 -56 31 -56 63c0 43 31 68 72 68c54 0 85 -27 85 -79c0 -47 -25 -98 -58 -141z" />
    <glyph glyph-name="kgreenlandic" unicode="&#x138;" horiz-adv-x="643" 
d="M222 0h-140v523h140v-216c116 1 199 47 230 216h140c-18 -129 -67 -218 -146 -271l160 -229v-23h-151l-130 203c-32 -7 -66 -10 -103 -10v-193z" />
    <glyph glyph-name="lacute" unicode="&#x13a;" horiz-adv-x="345" 
d="M77 710h140v-545c0 -36 14 -57 43 -57c20 0 38 7 56 16l7 -111c-24 -10 -69 -23 -118 -23c-78 0 -128 38 -128 141v579zM295 904l-102 -152h-118l81 152h139z" />
    <glyph glyph-name="lcaron" unicode="&#x13e;" horiz-adv-x="377" 
d="M77 710h140v-545c0 -36 14 -57 43 -57c20 0 38 7 56 16l7 -111c-24 -10 -69 -23 -118 -23c-78 0 -128 38 -128 141v579zM304 493l24 65c-37 7 -56 31 -56 63c0 43 31 68 72 68c54 0 85 -27 85 -79c0 -47 -25 -98 -58 -141z" />
    <glyph glyph-name="lcommaaccent" unicode="&#x13c;" horiz-adv-x="346" 
d="M77 710h140v-545c0 -36 14 -57 43 -57c20 0 38 7 56 16l7 -111c-24 -10 -69 -23 -118 -23c-78 0 -128 38 -128 141v579zM138 -255l24 65c-37 7 -56 31 -56 63c0 43 31 68 72 68c54 0 85 -27 85 -79c0 -47 -25 -98 -58 -141z" />
    <glyph glyph-name="lslash" unicode="&#x142;" horiz-adv-x="353" 
d="M223 710v-248l74 38v-111l-74 -38v-186c0 -36 14 -57 43 -57c20 0 38 7 56 16l7 -111c-24 -10 -69 -23 -118 -23c-78 0 -128 38 -128 141v148l-46 -23v112l46 23v319h140z" />
    <glyph glyph-name="ldot" unicode="&#x140;" horiz-adv-x="443" 
d="M77 710h140v-545c0 -36 14 -57 43 -57c20 0 38 7 56 16l7 -111c-24 -10 -69 -23 -118 -23c-78 0 -128 38 -128 141v579zM285 390c0 54 31 85 86 85s87 -31 87 -85s-32 -84 -87 -84s-86 30 -86 84z" />
    <glyph glyph-name="nacute" unicode="&#x144;" horiz-adv-x="696" 
d="M82 523h140v-64c37 43 95 73 168 73c135 0 194 -102 194 -231v-140c0 -30 8 -53 36 -53c17 0 36 7 53 16l6 -111c-26 -13 -68 -23 -114 -23c-78 0 -121 40 -121 138v150c0 77 -36 125 -106 125c-59 0 -100 -50 -116 -92v-311h-140v523zM498 741l-102 -152h-118l81 152
h139z" />
    <glyph glyph-name="ncaron" unicode="&#x148;" horiz-adv-x="696" 
d="M82 523h140v-64c37 43 95 73 168 73c135 0 194 -102 194 -231v-140c0 -30 8 -53 36 -53c17 0 36 7 53 16l6 -111c-26 -13 -68 -23 -114 -23c-78 0 -121 40 -121 138v150c0 77 -36 125 -106 125c-59 0 -100 -50 -116 -92v-311h-140v523zM271 741l66 -83l66 83h105
l-103 -152h-136l-104 152h106z" />
    <glyph glyph-name="ntilde" unicode="&#xf1;" horiz-adv-x="696" 
d="M82 523h140v-64c37 43 95 73 168 73c135 0 194 -102 194 -231v-140c0 -30 8 -53 36 -53c17 0 36 7 53 16l6 -111c-26 -13 -68 -23 -114 -23c-78 0 -121 40 -121 138v150c0 77 -36 125 -106 125c-59 0 -100 -50 -116 -92v-311h-140v523zM195 600l-42 55
c20 45 64 84 112 84c67 0 108 -59 152 -59c33 0 56 19 69 44l43 -54c-25 -52 -64 -85 -112 -85c-62 0 -110 59 -151 59c-32 0 -54 -17 -71 -44z" />
    <glyph glyph-name="ncommaaccent" unicode="&#x146;" horiz-adv-x="696" 
d="M82 523h140v-64c37 43 95 73 168 73c135 0 194 -102 194 -231v-140c0 -30 8 -53 36 -53c17 0 36 7 53 16l6 -111c-26 -13 -68 -23 -114 -23c-78 0 -121 40 -121 138v150c0 77 -36 125 -106 125c-59 0 -100 -50 -116 -92v-311h-140v523zM298 -255l24 65
c-37 7 -56 31 -56 63c0 43 31 68 72 68c54 0 85 -27 85 -79c0 -47 -25 -98 -58 -141z" />
    <glyph glyph-name="napostrophe" unicode="&#x149;" horiz-adv-x="778" 
d="M164 523h140v-64c37 43 95 73 168 73c135 0 194 -102 194 -231v-140c0 -30 8 -53 36 -53c17 0 36 7 53 16l6 -111c-26 -13 -68 -23 -114 -23c-78 0 -121 40 -121 138v150c0 77 -36 125 -106 125c-59 0 -100 -50 -116 -92v-311h-140v523z" />
    <glyph glyph-name="ograve" unicode="&#xf2;" horiz-adv-x="654" 
d="M46 260c0 159 118 277 280 277c164 0 282 -118 282 -277c0 -157 -118 -274 -282 -274c-162 0 -280 117 -280 274zM181 260c0 -82 59 -146 145 -146c88 0 147 64 147 146c0 84 -59 149 -147 149c-86 0 -145 -65 -145 -149zM272 589l-102 152h139l81 -152h-118z" />
    <glyph glyph-name="oacute" unicode="&#xf3;" horiz-adv-x="654" 
d="M46 260c0 159 118 277 280 277c164 0 282 -118 282 -277c0 -157 -118 -274 -282 -274c-162 0 -280 117 -280 274zM181 260c0 -82 59 -146 145 -146c88 0 147 64 147 146c0 84 -59 149 -147 149c-86 0 -145 -65 -145 -149zM482 741l-102 -152h-118l81 152h139z" />
    <glyph glyph-name="ocircumflex" unicode="&#xf4;" horiz-adv-x="654" 
d="M46 260c0 159 118 277 280 277c164 0 282 -118 282 -277c0 -157 -118 -274 -282 -274c-162 0 -280 117 -280 274zM181 260c0 -82 59 -146 145 -146c88 0 147 64 147 146c0 84 -59 149 -147 149c-86 0 -145 -65 -145 -149zM392 589l-66 84l-66 -84h-106l104 152h136
l103 -152h-105z" />
    <glyph glyph-name="otilde" unicode="&#xf5;" horiz-adv-x="654" 
d="M46 260c0 159 118 277 280 277c164 0 282 -118 282 -277c0 -157 -118 -274 -282 -274c-162 0 -280 117 -280 274zM181 260c0 -82 59 -146 145 -146c88 0 147 64 147 146c0 84 -59 149 -147 149c-86 0 -145 -65 -145 -149zM180 600l-42 55c20 45 64 84 112 84
c67 0 108 -59 152 -59c33 0 56 19 69 44l43 -54c-25 -52 -64 -85 -112 -85c-62 0 -110 59 -151 59c-32 0 -54 -17 -71 -44z" />
    <glyph glyph-name="odieresis" unicode="&#xf6;" horiz-adv-x="654" 
d="M46 260c0 159 118 277 280 277c164 0 282 -118 282 -277c0 -157 -118 -274 -282 -274c-162 0 -280 117 -280 274zM181 260c0 -82 59 -146 145 -146c88 0 147 64 147 146c0 84 -59 149 -147 149c-86 0 -145 -65 -145 -149zM123 669c0 48 31 66 76 66c44 0 75 -18 75 -66
c0 -47 -31 -66 -75 -66c-45 0 -76 19 -76 66zM378 669c0 48 31 66 77 66c44 0 74 -18 74 -66c0 -47 -30 -66 -74 -66c-46 0 -77 19 -77 66z" />
    <glyph glyph-name="omacron" unicode="&#x14d;" horiz-adv-x="654" 
d="M46 260c0 159 118 277 280 277c164 0 282 -118 282 -277c0 -157 -118 -274 -282 -274c-162 0 -280 117 -280 274zM181 260c0 -82 59 -146 145 -146c88 0 147 64 147 146c0 84 -59 149 -147 149c-86 0 -145 -65 -145 -149zM453 610h-255v96h255v-96z" />
    <glyph glyph-name="obreve" unicode="&#x14f;" horiz-adv-x="654" 
d="M46 260c0 159 118 277 280 277c164 0 282 -118 282 -277c0 -157 -118 -274 -282 -274c-162 0 -280 117 -280 274zM181 260c0 -82 59 -146 145 -146c88 0 147 64 147 146c0 84 -59 149 -147 149c-86 0 -145 -65 -145 -149zM179 673l35 55c19 -23 57 -45 112 -45
c53 0 92 21 111 45l36 -55c-24 -42 -71 -83 -146 -83s-124 41 -148 83z" />
    <glyph glyph-name="ohungarumlaut" unicode="&#x151;" horiz-adv-x="654" 
d="M46 260c0 159 118 277 280 277c164 0 282 -118 282 -277c0 -157 -118 -274 -282 -274c-162 0 -280 117 -280 274zM181 260c0 -82 59 -146 145 -146c88 0 147 64 147 146c0 84 -59 149 -147 149c-86 0 -145 -65 -145 -149zM382 741l-103 -152h-117l81 152h139zM587 741
l-102 -152h-117l81 152h138z" />
    <glyph glyph-name="oslash" unicode="&#xf8;" horiz-adv-x="654" 
d="M46 260c0 159 118 277 280 277c61 0 116 -16 161 -45l26 31h69v-11l-49 -59c47 -49 75 -116 75 -193c0 -157 -118 -274 -282 -274c-55 0 -106 14 -148 37l-19 -23h-71v11l41 49c-52 49 -83 119 -83 200zM181 260c0 -37 12 -71 33 -97l188 226c-22 13 -47 20 -76 20
c-86 0 -145 -65 -145 -149zM473 260c0 33 -9 64 -26 88l-184 -222c18 -9 40 -13 63 -13c88 0 147 65 147 147z" />
    <glyph glyph-name="oslashacute" unicode="&#x1ff;" horiz-adv-x="654" 
d="M46 260c0 159 118 277 280 277c61 0 116 -16 161 -45l26 31h69v-11l-49 -59c47 -49 75 -116 75 -193c0 -157 -118 -274 -282 -274c-55 0 -106 14 -148 37l-19 -23h-71v11l41 49c-52 49 -83 119 -83 200zM181 260c0 -37 12 -71 33 -97l188 226c-22 13 -47 20 -76 20
c-86 0 -145 -65 -145 -149zM473 260c0 33 -9 64 -26 88l-184 -222c18 -9 40 -13 63 -13c88 0 147 65 147 147zM482 741l-102 -152h-118l81 152h139z" />
    <glyph glyph-name="oe" unicode="&#x153;" horiz-adv-x="1063" 
d="M1004 217h-359c8 -76 46 -114 156 -114c57 0 118 26 154 53l53 -99c-54 -44 -131 -71 -220 -71c-122 0 -198 48 -236 120c-43 -74 -125 -120 -226 -120c-162 0 -280 117 -280 274c0 159 118 277 280 277c103 0 186 -50 228 -127c40 75 120 127 225 127
c160 0 234 -102 234 -219c0 -32 -3 -77 -9 -101zM181 260c0 -82 59 -147 145 -147c88 0 147 65 147 147c0 84 -59 149 -147 149c-86 0 -145 -65 -145 -149zM771 421c-69 0 -115 -37 -125 -96h238c1 6 1 13 1 17c0 54 -55 79 -114 79z" />
    <glyph glyph-name="racute" unicode="&#x155;" horiz-adv-x="498" 
d="M122 0v361c0 31 -7 53 -36 53c-21 0 -45 -10 -53 -15l-6 110c7 7 59 23 114 23c60 0 99 -24 114 -79c25 49 63 79 131 79c49 0 87 -18 94 -30l-20 -126c-8 11 -48 27 -96 27c-67 0 -93 -58 -102 -119v-284h-140zM391 741l-102 -152h-118l81 152h139z" />
    <glyph glyph-name="rcaron" unicode="&#x159;" horiz-adv-x="498" 
d="M122 0v361c0 31 -7 53 -36 53c-21 0 -45 -10 -53 -15l-6 110c7 7 59 23 114 23c60 0 99 -24 114 -79c25 49 63 79 131 79c49 0 87 -18 94 -30l-20 -126c-8 11 -48 27 -96 27c-67 0 -93 -58 -102 -119v-284h-140zM184 741l66 -83l66 83h105l-103 -152h-136l-104 152h106z
" />
    <glyph glyph-name="rcommaaccent" unicode="&#x157;" horiz-adv-x="498" 
d="M122 0v361c0 31 -7 53 -36 53c-21 0 -45 -10 -53 -15l-6 110c7 7 59 23 114 23c60 0 99 -24 114 -79c25 49 63 79 131 79c49 0 87 -18 94 -30l-20 -126c-8 11 -48 27 -96 27c-67 0 -93 -58 -102 -119v-284h-140zM137 -255l24 65c-37 7 -56 31 -56 63c0 43 31 68 72 68
c54 0 85 -27 85 -79c0 -47 -25 -98 -58 -141z" />
    <glyph glyph-name="sacute" unicode="&#x15b;" horiz-adv-x="524" 
d="M473 494l-37 -121c-47 24 -112 42 -166 42c-44 0 -80 -12 -80 -43c0 -26 18 -33 57 -43l100 -25c92 -23 127 -72 127 -148c0 -102 -78 -166 -213 -166c-91 0 -163 25 -203 45l26 119c46 -24 110 -48 171 -48c50 0 80 9 80 40c0 21 -26 31 -66 41l-91 23
c-85 22 -129 70 -129 151c0 101 89 171 232 171c68 0 152 -19 192 -38zM412 741l-102 -152h-118l81 152h139z" />
    <glyph glyph-name="scircumflex" unicode="&#x15d;" horiz-adv-x="524" 
d="M473 494l-37 -121c-47 24 -112 42 -166 42c-44 0 -80 -12 -80 -43c0 -26 18 -33 57 -43l100 -25c92 -23 127 -72 127 -148c0 -102 -78 -166 -213 -166c-91 0 -163 25 -203 45l26 119c46 -24 110 -48 171 -48c50 0 80 9 80 40c0 21 -26 31 -66 41l-91 23
c-85 22 -129 70 -129 151c0 101 89 171 232 171c68 0 152 -19 192 -38zM334 589l-66 84l-66 -84h-106l104 152h136l103 -152h-105z" />
    <glyph glyph-name="scaron" unicode="&#x161;" horiz-adv-x="524" 
d="M473 494l-37 -121c-47 24 -112 42 -166 42c-44 0 -80 -12 -80 -43c0 -26 18 -33 57 -43l100 -25c92 -23 127 -72 127 -148c0 -102 -78 -166 -213 -166c-91 0 -163 25 -203 45l26 119c46 -24 110 -48 171 -48c50 0 80 9 80 40c0 21 -26 31 -66 41l-91 23
c-85 22 -129 70 -129 151c0 101 89 171 232 171c68 0 152 -19 192 -38zM201 741l66 -83l66 83h105l-103 -152h-136l-104 152h106z" />
    <glyph glyph-name="scedilla" unicode="&#x15f;" horiz-adv-x="526" 
d="M187 -97l26 90c-68 6 -122 25 -154 42l26 119c46 -24 110 -48 171 -48c50 0 80 9 80 40c0 21 -26 31 -66 41l-91 23c-85 22 -129 70 -129 151c0 101 89 171 232 171c68 0 152 -19 192 -38l-37 -121c-47 24 -112 42 -166 42c-44 0 -80 -12 -80 -43c0 -26 18 -33 57 -43
l100 -25c92 -23 127 -72 127 -148c0 -100 -75 -163 -205 -166l-14 -47c7 2 17 3 26 3c56 0 87 -28 87 -67c0 -49 -49 -77 -114 -77c-25 0 -52 3 -78 11l12 46c20 -6 40 -11 62 -11c32 0 54 9 54 29c0 17 -18 27 -52 27c-20 0 -48 -3 -62 -6z" />
    <glyph glyph-name="scommaaccent" unicode="&#x219;" horiz-adv-x="525" 
d="M473 494l-37 -121c-47 24 -112 42 -166 42c-44 0 -80 -12 -80 -43c0 -26 18 -33 57 -43l100 -25c92 -23 127 -72 127 -148c0 -102 -78 -166 -213 -166c-91 0 -163 25 -203 45l26 119c46 -24 110 -48 171 -48c50 0 80 9 80 40c0 21 -26 31 -66 41l-91 23
c-85 22 -129 70 -129 151c0 101 89 171 232 171c68 0 152 -19 192 -38zM215 -255l24 65c-37 7 -56 31 -56 63c0 43 31 68 72 68c54 0 85 -27 85 -79c0 -47 -25 -98 -58 -141z" />
    <glyph glyph-name="germandbls" unicode="&#xdf;" horiz-adv-x="691" 
d="M354 720c162 0 238 -108 238 -208c0 -90 -65 -130 -65 -153c0 -24 119 -83 119 -196c0 -117 -80 -173 -193 -173c-72 0 -123 17 -151 28l21 113c22 -12 51 -23 88 -23c55 0 84 27 84 66c0 75 -124 124 -124 169c0 51 78 79 78 160c0 56 -45 95 -107 95
c-78 0 -120 -62 -120 -155v-443h-140v432c0 202 128 288 272 288z" />
    <glyph glyph-name="tcaron" unicode="&#x165;" horiz-adv-x="536" 
d="M137 656h123v-133h191v-109h-191v-213c0 -63 25 -89 71 -89c38 0 80 19 106 38l44 -108c-50 -31 -116 -52 -194 -52c-103 0 -167 63 -167 183v241h-93v109h93zM480 493l24 65c-37 7 -56 31 -56 63c0 43 31 68 72 68c54 0 85 -27 85 -79c0 -47 -25 -98 -58 -141z" />
    <glyph glyph-name="tcommaaccent" unicode="&#x163;" horiz-adv-x="510" 
d="M212 -97l27 93c-73 17 -117 77 -117 177v241h-93v109h93l17 133h123v-133h191v-109h-191v-213c0 -63 25 -89 71 -89c38 0 80 19 106 38l44 -108c-49 -30 -113 -51 -188 -52l-14 -47c7 2 17 3 26 3c56 0 87 -28 87 -67c0 -49 -49 -77 -114 -77c-25 0 -52 3 -78 11l12 46
c20 -6 40 -11 62 -11c32 0 54 9 54 29c0 17 -18 27 -52 27c-20 0 -48 -3 -62 -6z" />
    <glyph glyph-name="uni021B" unicode="&#x21b;" horiz-adv-x="507" 
d="M137 656h123v-133h191v-109h-191v-213c0 -63 25 -89 71 -89c38 0 80 19 106 38l44 -108c-50 -31 -116 -52 -194 -52c-103 0 -167 63 -167 183v241h-93v109h93zM224 -255l24 65c-37 7 -56 31 -56 63c0 43 31 68 72 68c54 0 85 -27 85 -79c0 -47 -25 -98 -58 -141z" />
    <glyph glyph-name="tbar" unicode="&#x167;" horiz-adv-x="508" 
d="M137 656h123v-133h191v-109h-191v-86h121v-100h-121v-27c0 -63 25 -89 71 -89c38 0 80 19 106 38l44 -108c-50 -31 -116 -52 -194 -52c-103 0 -167 63 -167 183v55h-76v100h76v86h-93v109h93z" />
    <glyph glyph-name="thorn" unicode="&#xfe;" horiz-adv-x="673" 
d="M625 262c0 -158 -99 -272 -246 -272c-71 0 -122 22 -157 57v-235h-140v898h140v-231c36 32 90 53 157 53c147 0 246 -112 246 -270zM482 262c0 89 -56 148 -142 148c-47 0 -91 -22 -118 -50v-200c24 -24 69 -48 118 -48c86 0 142 60 142 150z" />
    <glyph glyph-name="ugrave" unicode="&#xf9;" horiz-adv-x="700" 
d="M437 523h140v-362c0 -30 7 -53 35 -53c18 0 35 7 53 16l7 -111c-25 -13 -70 -23 -115 -23c-55 0 -93 21 -110 68c-39 -45 -101 -68 -178 -68c-135 0 -194 92 -194 231v302h140v-281c0 -86 24 -124 106 -124c61 0 98 37 116 70v335zM270 589l-102 152h139l81 -152h-118z
" />
    <glyph glyph-name="uacute" unicode="&#xfa;" horiz-adv-x="700" 
d="M437 523h140v-362c0 -30 7 -53 35 -53c18 0 35 7 53 16l7 -111c-25 -13 -70 -23 -115 -23c-55 0 -93 21 -110 68c-39 -45 -101 -68 -178 -68c-135 0 -194 92 -194 231v302h140v-281c0 -86 24 -124 106 -124c61 0 98 37 116 70v335zM490 741l-102 -152h-118l81 152h139z
" />
    <glyph glyph-name="ucircumflex" unicode="&#xfb;" horiz-adv-x="700" 
d="M437 523h140v-362c0 -30 7 -53 35 -53c18 0 35 7 53 16l7 -111c-25 -13 -70 -23 -115 -23c-55 0 -93 21 -110 68c-39 -45 -101 -68 -178 -68c-135 0 -194 92 -194 231v302h140v-281c0 -86 24 -124 106 -124c61 0 98 37 116 70v335zM395 589l-66 84l-66 -84h-106l104 152
h136l103 -152h-105z" />
    <glyph glyph-name="utilde" unicode="&#x169;" horiz-adv-x="700" 
d="M437 523h140v-362c0 -30 7 -53 35 -53c18 0 35 7 53 16l7 -111c-25 -13 -70 -23 -115 -23c-55 0 -93 21 -110 68c-39 -45 -101 -68 -178 -68c-135 0 -194 92 -194 231v302h140v-281c0 -86 24 -124 106 -124c61 0 98 37 116 70v335zM184 600l-42 55c20 45 64 84 112 84
c67 0 108 -59 152 -59c33 0 56 19 69 44l43 -54c-25 -52 -64 -85 -112 -85c-62 0 -110 59 -151 59c-32 0 -54 -17 -71 -44z" />
    <glyph glyph-name="udieresis" unicode="&#xfc;" horiz-adv-x="700" 
d="M437 523h140v-362c0 -30 7 -53 35 -53c18 0 35 7 53 16l7 -111c-25 -13 -70 -23 -115 -23c-55 0 -93 21 -110 68c-39 -45 -101 -68 -178 -68c-135 0 -194 92 -194 231v302h140v-281c0 -86 24 -124 106 -124c61 0 98 37 116 70v335zM127 669c0 48 31 66 76 66
c44 0 75 -18 75 -66c0 -47 -31 -66 -75 -66c-45 0 -76 19 -76 66zM382 669c0 48 31 66 77 66c44 0 74 -18 74 -66c0 -47 -30 -66 -74 -66c-46 0 -77 19 -77 66z" />
    <glyph glyph-name="umacron" unicode="&#x16b;" horiz-adv-x="700" 
d="M437 523h140v-362c0 -30 7 -53 35 -53c18 0 35 7 53 16l7 -111c-25 -13 -70 -23 -115 -23c-55 0 -93 21 -110 68c-39 -45 -101 -68 -178 -68c-135 0 -194 92 -194 231v302h140v-281c0 -86 24 -124 106 -124c61 0 98 37 116 70v335zM457 610h-255v96h255v-96z" />
    <glyph glyph-name="ubreve" unicode="&#x16d;" horiz-adv-x="700" 
d="M437 523h140v-362c0 -30 7 -53 35 -53c18 0 35 7 53 16l7 -111c-25 -13 -70 -23 -115 -23c-55 0 -93 21 -110 68c-39 -45 -101 -68 -178 -68c-135 0 -194 92 -194 231v302h140v-281c0 -86 24 -124 106 -124c61 0 98 37 116 70v335zM182 673l35 55c19 -23 57 -45 112 -45
c53 0 92 21 111 45l36 -55c-24 -42 -71 -83 -146 -83s-124 41 -148 83z" />
    <glyph glyph-name="uring" unicode="&#x16f;" horiz-adv-x="700" 
d="M437 523h140v-362c0 -30 7 -53 35 -53c18 0 35 7 53 16l7 -111c-25 -13 -70 -23 -115 -23c-55 0 -93 21 -110 68c-39 -45 -101 -68 -178 -68c-135 0 -194 92 -194 231v302h140v-281c0 -86 24 -124 106 -124c61 0 98 37 116 70v335zM228 670c0 54 44 98 98 98
s98 -44 98 -98s-44 -98 -98 -98s-98 44 -98 98zM285 670c0 -23 18 -41 41 -41c22 0 40 18 40 41c0 22 -18 40 -40 40c-23 0 -41 -18 -41 -40z" />
    <glyph glyph-name="uhungarumlaut" unicode="&#x171;" horiz-adv-x="700" 
d="M437 523h140v-362c0 -30 7 -53 35 -53c18 0 35 7 53 16l7 -111c-25 -13 -70 -23 -115 -23c-55 0 -93 21 -110 68c-39 -45 -101 -68 -178 -68c-135 0 -194 92 -194 231v302h140v-281c0 -86 24 -124 106 -124c61 0 98 37 116 70v335zM386 741l-103 -152h-117l81 152h139z
M591 741l-102 -152h-117l81 152h138z" />
    <glyph glyph-name="uogonek" unicode="&#x173;" horiz-adv-x="700" 
d="M437 523h140v-362c0 -30 7 -53 35 -53c18 0 35 7 53 16l7 -111c-16 -8 -40 -15 -67 -19c-33 -11 -53 -30 -53 -63c0 -32 19 -51 53 -51c19 0 36 7 54 18l13 -60c-20 -13 -48 -23 -87 -23c-59 0 -99 38 -99 97c0 36 20 63 46 80c-42 5 -70 26 -85 66
c-39 -45 -101 -68 -178 -68c-135 0 -194 92 -194 231v302h140v-281c0 -86 24 -124 106 -124c61 0 98 37 116 70v335z" />
    <glyph glyph-name="wacute" unicode="&#x1e83;" horiz-adv-x="1000" 
d="M453 523h140v-284c0 -72 27 -121 95 -121c74 0 111 60 111 142c0 111 -39 208 -63 263h149c16 -42 54 -149 54 -275c0 -155 -89 -258 -242 -258c-94 0 -145 31 -178 97c-34 -66 -98 -97 -188 -97c-147 0 -218 88 -218 231v140c0 32 -6 53 -37 53c-20 0 -44 -9 -53 -16
l-6 112c33 12 72 22 119 22c86 0 117 -55 117 -135v-155c0 -83 30 -124 95 -124s105 46 105 129v276zM668 741l-102 -152h-118l81 152h139z" />
    <glyph glyph-name="wcircumflex" unicode="&#x175;" horiz-adv-x="1000" 
d="M453 523h140v-284c0 -72 27 -121 95 -121c74 0 111 60 111 142c0 111 -39 208 -63 263h149c16 -42 54 -149 54 -275c0 -155 -89 -258 -242 -258c-94 0 -145 31 -178 97c-34 -66 -98 -97 -188 -97c-147 0 -218 88 -218 231v140c0 32 -6 53 -37 53c-20 0 -44 -9 -53 -16
l-6 112c33 12 72 22 119 22c86 0 117 -55 117 -135v-155c0 -83 30 -124 95 -124s105 46 105 129v276zM586 589l-66 84l-66 -84h-106l104 152h136l103 -152h-105z" />
    <glyph glyph-name="wdieresis" unicode="&#x1e85;" horiz-adv-x="1000" 
d="M453 523h140v-284c0 -72 27 -121 95 -121c74 0 111 60 111 142c0 111 -39 208 -63 263h149c16 -42 54 -149 54 -275c0 -155 -89 -258 -242 -258c-94 0 -145 31 -178 97c-34 -66 -98 -97 -188 -97c-147 0 -218 88 -218 231v140c0 32 -6 53 -37 53c-20 0 -44 -9 -53 -16
l-6 112c33 12 72 22 119 22c86 0 117 -55 117 -135v-155c0 -83 30 -124 95 -124s105 46 105 129v276zM316 669c0 48 31 66 76 66c44 0 75 -18 75 -66c0 -47 -31 -66 -75 -66c-45 0 -76 19 -76 66zM571 669c0 48 31 66 77 66c44 0 74 -18 74 -66c0 -47 -30 -66 -74 -66
c-46 0 -77 19 -77 66z" />
    <glyph glyph-name="wgrave" unicode="&#x1e81;" horiz-adv-x="1000" 
d="M453 523h140v-284c0 -72 27 -121 95 -121c74 0 111 60 111 142c0 111 -39 208 -63 263h149c16 -42 54 -149 54 -275c0 -155 -89 -258 -242 -258c-94 0 -145 31 -178 97c-34 -66 -98 -97 -188 -97c-147 0 -218 88 -218 231v140c0 32 -6 53 -37 53c-20 0 -44 -9 -53 -16
l-6 112c33 12 72 22 119 22c86 0 117 -55 117 -135v-155c0 -83 30 -124 95 -124s105 46 105 129v276zM470 589l-102 152h139l81 -152h-118z" />
    <glyph glyph-name="yacute" unicode="&#xfd;" horiz-adv-x="596" 
d="M7 523h155l144 -370l139 370h141l-217 -528c-52 -131 -105 -193 -222 -193c-48 0 -94 18 -120 35l21 113c25 -14 61 -30 99 -30c46 0 67 22 87 67l11 27zM457 741l-102 -152h-118l81 152h139z" />
    <glyph glyph-name="ycircumflex" unicode="&#x177;" horiz-adv-x="596" 
d="M7 523h155l144 -370l139 370h141l-217 -528c-52 -131 -105 -193 -222 -193c-48 0 -94 18 -120 35l21 113c25 -14 61 -30 99 -30c46 0 67 22 87 67l11 27zM370 589l-66 84l-66 -84h-106l104 152h136l103 -152h-105z" />
    <glyph glyph-name="ydieresis" unicode="&#xff;" horiz-adv-x="596" 
d="M7 523h155l144 -370l139 370h141l-217 -528c-52 -131 -105 -193 -222 -193c-48 0 -94 18 -120 35l21 113c25 -14 61 -30 99 -30c46 0 67 22 87 67l11 27zM102 669c0 48 31 66 76 66c44 0 75 -18 75 -66c0 -47 -31 -66 -75 -66c-45 0 -76 19 -76 66zM357 669
c0 48 31 66 77 66c44 0 74 -18 74 -66c0 -47 -30 -66 -74 -66c-46 0 -77 19 -77 66z" />
    <glyph glyph-name="ygrave" unicode="&#x1ef3;" horiz-adv-x="596" 
d="M7 523h155l144 -370l139 370h141l-217 -528c-52 -131 -105 -193 -222 -193c-48 0 -94 18 -120 35l21 113c25 -14 61 -30 99 -30c46 0 67 22 87 67l11 27zM252 589l-102 152h139l81 -152h-118z" />
    <glyph glyph-name="zacute" unicode="&#x17a;" horiz-adv-x="537" 
d="M55 98l253 315h-253v110h428v-98l-251 -315h251v-110h-428v98zM423 741l-102 -152h-118l81 152h139z" />
    <glyph glyph-name="zcaron" unicode="&#x17e;" horiz-adv-x="537" 
d="M55 98l253 315h-253v110h428v-98l-251 -315h251v-110h-428v98zM205 741l66 -83l66 83h105l-103 -152h-136l-104 152h106z" />
    <glyph glyph-name="zdotaccent" unicode="&#x17c;" horiz-adv-x="537" 
d="M55 98l253 315h-253v110h428v-98l-251 -315h251v-110h-428v98zM198 671c0 51 33 69 82 69c48 0 80 -18 80 -69s-32 -70 -80 -70c-49 0 -82 19 -82 70z" />
    <glyph glyph-name="IJ" unicode="&#x132;" horiz-adv-x="995" 
d="M99 0v680h140v-680h-140zM763 680h141v-410c0 -165 -89 -281 -272 -281c-182 0 -260 108 -270 272l139 13c7 -97 40 -155 133 -155c94 0 129 60 129 160v401z" />
    <glyph glyph-name="ij" unicode="&#x133;" horiz-adv-x="649" 
d="M220 523v-362c0 -30 7 -53 36 -53c21 0 45 11 52 16l7 -111c-7 -6 -59 -23 -115 -23c-77 0 -120 41 -120 138v395h140zM69 671c0 51 33 69 82 69c48 0 80 -18 80 -69s-32 -70 -80 -70c-49 0 -82 19 -82 70zM567 523v-475c0 -134 -67 -203 -145 -245l-83 91
c48 30 88 68 88 148v481h140zM417 671c0 51 32 69 81 69s80 -18 80 -69s-31 -70 -80 -70s-81 19 -81 70z" />
    <glyph glyph-name="fi" unicode="&#xfb01;" horiz-adv-x="810" 
d="M36 389v109h96v36c0 101 54 186 180 186c55 0 107 -16 135 -30l-31 -121c-21 14 -55 28 -88 28c-40 0 -56 -24 -56 -64v-35h157v-109h-157v-389h-140v389h-96zM685 523v-362c0 -30 7 -53 36 -53c21 0 45 11 52 16l7 -111c-7 -6 -59 -23 -115 -23c-77 0 -120 41 -120 138
v395h140zM534 671c0 51 33 69 82 69c48 0 80 -18 80 -69s-32 -70 -80 -70c-49 0 -82 19 -82 70z" />
    <glyph glyph-name="fl" unicode="&#xfb02;" horiz-adv-x="808" 
d="M36 389v109h96v36c0 101 54 186 180 186c55 0 107 -16 135 -30l-31 -121c-21 14 -55 28 -88 28c-40 0 -56 -24 -56 -64v-35h157v-109h-157v-389h-140v389h-96zM540 710h140v-545c0 -36 14 -57 43 -57c20 0 38 7 56 16l7 -111c-24 -10 -69 -23 -118 -23
c-78 0 -128 38 -128 141v579z" />
    <glyph glyph-name="acute" unicode="&#xb4;" 
d="M417 741l-102 -152h-118l81 152h139z" />
    <glyph glyph-name="circumflex" unicode="&#x2c6;" 
d="M373 589l-66 84l-66 -84h-106l104 152h136l103 -152h-105z" />
    <glyph glyph-name="caron" unicode="&#x2c7;" 
d="M241 741l66 -83l66 83h105l-103 -152h-136l-104 152h106z" />
    <glyph glyph-name="tilde" unicode="&#x2dc;" 
d="M161 600l-42 55c20 45 64 84 112 84c67 0 108 -59 152 -59c33 0 56 19 69 44l43 -54c-25 -52 -64 -85 -112 -85c-62 0 -110 59 -151 59c-32 0 -54 -17 -71 -44z" />
    <glyph glyph-name="dieresis" unicode="&#xa8;" 
d="M104 669c0 48 31 66 76 66c44 0 75 -18 75 -66c0 -47 -31 -66 -75 -66c-45 0 -76 19 -76 66zM359 669c0 48 31 66 77 66c44 0 74 -18 74 -66c0 -47 -30 -66 -74 -66c-46 0 -77 19 -77 66z" />
    <glyph glyph-name="macron" unicode="&#xaf;" 
d="M434 610h-255v96h255v-96z" />
    <glyph glyph-name="breve" unicode="&#x2d8;" 
d="M160 673l35 55c19 -23 57 -45 112 -45c53 0 92 21 111 45l36 -55c-24 -42 -71 -83 -146 -83s-124 41 -148 83z" />
    <glyph glyph-name="ring" unicode="&#x2da;" 
d="M209 630c0 54 44 98 98 98s98 -44 98 -98s-44 -98 -98 -98s-98 44 -98 98zM266 630c0 -23 18 -41 41 -41c22 0 40 18 40 41c0 22 -18 40 -40 40c-23 0 -41 -18 -41 -40z" />
    <glyph glyph-name="hungarumlaut" unicode="&#x2dd;" 
d="M314 741l-103 -152h-117l81 152h139zM519 741l-102 -152h-117l81 152h138z" />
    <glyph glyph-name="dotaccent" unicode="&#x2d9;" 
d="M226 671c0 51 33 69 82 69c48 0 80 -18 80 -69s-32 -70 -80 -70c-49 0 -82 19 -82 70z" />
    <glyph glyph-name="cedilla" unicode="&#xb8;" 
d="M214 -97l29 97h57l-17 -57c7 2 17 3 26 3c56 0 87 -28 87 -67c0 -49 -49 -77 -114 -77c-25 0 -52 3 -78 11l12 46c20 -6 40 -11 62 -11c32 0 54 9 54 29c0 17 -18 27 -52 27c-20 0 -48 -3 -62 -6z" />
    <glyph glyph-name="ogonek" unicode="&#x2db;" 
d="M290 9l70 -9c-51 -1 -87 -28 -87 -69c0 -32 19 -51 52 -51c19 0 37 7 54 18l14 -60c-21 -13 -48 -23 -87 -23c-60 0 -99 38 -99 97c0 53 44 89 83 97z" />
    <glyph glyph-name="commaaccent" unicode="&#xf6c3;" 
d="M255 -255l24 65c-37 7 -56 31 -56 63c0 43 31 68 72 68c54 0 85 -27 85 -79c0 -47 -25 -98 -58 -141z" />
    <glyph glyph-name="commaaccent.alt" 
d="M343 761l-24 -65c38 -7 57 -31 57 -63c0 -43 -31 -68 -73 -68c-54 0 -85 27 -85 79c0 46 25 99 58 141z" />
    <glyph glyph-name="ellipsis" unicode="&#x2026;" horiz-adv-x="803" 
d="M61 63c0 50 29 79 80 79c50 0 81 -29 81 -79c0 -51 -31 -78 -81 -78c-51 0 -80 27 -80 78zM321 63c0 50 29 79 80 79c50 0 81 -29 81 -79c0 -51 -31 -78 -81 -78c-51 0 -80 27 -80 78zM581 63c0 50 29 79 80 79c50 0 81 -29 81 -79c0 -51 -31 -78 -81 -78
c-51 0 -80 27 -80 78z" />
    <glyph glyph-name="uni00AD" unicode="&#xad;" horiz-adv-x="546" 
d="M73 358h400v-110h-400v110z" />
    <glyph glyph-name="exclamdown" unicode="&#xa1;" horiz-adv-x="299" 
d="M199 277l21 -435h-141l21 435h99zM236 452c0 -54 -31 -86 -87 -86c-55 0 -88 32 -88 86c0 55 33 85 88 85c56 0 87 -30 87 -85z" />
    <glyph glyph-name="questiondown" unicode="&#xbf;" horiz-adv-x="481" 
d="M219 277h115c6 -17 11 -34 11 -62c0 -34 -16 -60 -56 -84l-57 -36c-29 -20 -49 -38 -49 -76c0 -44 34 -71 81 -71c59 0 115 31 145 63l38 -109c-40 -35 -105 -70 -204 -70c-124 0 -201 74 -201 178c0 87 42 126 89 155l59 36c24 16 33 26 33 49c0 8 -1 17 -4 27zM363 452
c0 -54 -31 -86 -87 -86c-55 0 -88 32 -88 86c0 55 33 85 88 85c56 0 87 -30 87 -85z" />
    <glyph glyph-name="quoteleft" unicode="&#x2018;" horiz-adv-x="287" 
d="M213 658l-43 -129c38 -10 58 -39 58 -80c0 -55 -31 -87 -86 -87c-54 0 -86 34 -86 87c0 75 46 187 79 241z" />
    <glyph glyph-name="quoteright" unicode="&#x2019;" horiz-adv-x="284" 
d="M74 392l44 130c-38 9 -57 39 -57 79c0 56 31 88 85 88c55 0 87 -35 87 -88c0 -75 -48 -186 -80 -240z" />
    <glyph glyph-name="quotedblleft" unicode="&#x201c;" horiz-adv-x="486" 
d="M414 663l-40 -121c35 -8 52 -34 52 -70c0 -49 -27 -78 -75 -78c-49 0 -77 31 -77 78c0 67 43 170 72 218zM197 663l-40 -121c35 -8 52 -34 52 -70c0 -49 -27 -78 -76 -78c-48 0 -76 31 -76 78c0 67 43 170 72 218z" />
    <glyph glyph-name="quotedblright" unicode="&#x201d;" horiz-adv-x="482" 
d="M72 421l40 120c-35 8 -52 35 -52 71c0 49 27 77 76 77c48 0 76 -31 76 -77c0 -68 -42 -171 -71 -219zM290 421l39 120c-34 8 -52 35 -52 71c0 49 28 77 76 77c49 0 77 -31 77 -77c0 -68 -43 -171 -72 -219z" />
    <glyph glyph-name="quotesinglbase" unicode="&#x201a;" horiz-adv-x="293" 
d="M73 -141l44 130c-38 9 -57 39 -57 79c0 56 31 88 85 88c55 0 87 -35 87 -88c0 -75 -48 -186 -80 -240z" />
    <glyph glyph-name="quotedblbase" unicode="&#x201e;" horiz-adv-x="491" 
d="M73 -145l40 121c-35 7 -52 34 -52 70c0 49 27 78 75 78c49 0 77 -31 77 -78c0 -68 -43 -170 -72 -218zM290 -145l40 121c-35 7 -52 34 -52 70c0 49 27 78 76 78c48 0 76 -31 76 -78c0 -68 -43 -170 -72 -218z" />
    <glyph glyph-name="guilsinglleft" unicode="&#x2039;" horiz-adv-x="330" 
d="M48 288v27l162 205h10l51 -27l-106 -191l106 -191l-51 -27h-10z" />
    <glyph glyph-name="guilsinglright" unicode="&#x203a;" horiz-adv-x="330" 
d="M282 315v-27l-161 -204h-11l-50 26l105 192l-106 190l51 28h11z" />
    <glyph glyph-name="guillemotleft" unicode="&#xab;" horiz-adv-x="563" 
d="M48 288v27l162 205h10l51 -27l-106 -191l106 -191l-51 -27h-10zM281 288v27l162 205h10l51 -27l-106 -191l106 -191l-51 -27h-10z" />
    <glyph glyph-name="guillemotright" unicode="&#xbb;" horiz-adv-x="563" 
d="M282 315v-27l-161 -204h-11l-50 26l105 192l-106 190l51 28h11zM515 315v-27l-161 -204h-11l-50 26l105 192l-106 190l51 28h11z" />
    <glyph glyph-name="endash" unicode="&#x2013;" horiz-adv-x="642" 
d="M73 358h496v-110h-496v110z" />
    <glyph glyph-name="emdash" unicode="&#x2014;" horiz-adv-x="890" 
d="M73 358h744v-110h-744v110z" />
    <glyph glyph-name="bullet" unicode="&#x2022;" horiz-adv-x="365" 
d="M61 302c0 79 44 124 121 124s122 -45 122 -124c0 -80 -45 -124 -122 -124s-121 44 -121 124z" />
    <glyph glyph-name="periodcentered" unicode="&#xb7;" horiz-adv-x="307" 
d="M67 295c0 54 31 85 86 85s87 -31 87 -85s-32 -84 -87 -84s-86 30 -86 84z" />
    <glyph glyph-name="uni2219" unicode="&#x2219;" horiz-adv-x="307" 
d="M67 295c0 54 31 85 86 85s87 -31 87 -85s-32 -84 -87 -84s-86 30 -86 84z" />
    <glyph glyph-name="dagger" unicode="&#x2020;" horiz-adv-x="604" 
d="M571 349h-214v-537h-110v537h-214v110h214v251h110v-251h214v-110z" />
    <glyph glyph-name="daggerdbl" unicode="&#x2021;" horiz-adv-x="650" 
d="M594 49h-214v-237h-110v237h-214v110h214v190h-214v110h214v251h110v-251h214v-110h-214v-190h214v-110z" />
    <glyph glyph-name="section" unicode="&#xa7;" horiz-adv-x="652" 
d="M80 -50l32 120c48 -24 146 -52 231 -52c53 0 99 10 99 41c0 21 -21 33 -83 45l-137 27c-107 22 -153 76 -153 155c0 50 24 95 73 127c-46 22 -71 57 -71 110c0 93 80 167 252 167c109 0 198 -22 248 -43l-37 -118c-50 24 -151 49 -225 49s-103 -17 -103 -41
c0 -23 25 -31 56 -37l143 -27c120 -23 179 -88 179 -164c0 -54 -27 -99 -76 -130c50 -25 76 -60 76 -107c0 -100 -100 -168 -257 -168c-110 0 -204 27 -247 46zM361 364l-78 14c-60 -6 -84 -46 -84 -75c0 -33 16 -52 71 -63l86 -18c56 3 92 32 92 71c0 40 -30 61 -87 71z
" />
    <glyph glyph-name="paragraph" unicode="&#xb6;" horiz-adv-x="595" 
d="M345 523v-711h-108v433h-60c-82 0 -144 49 -144 139s62 138 144 139h168zM421 -188v711h108v-711h-108z" />
    <glyph glyph-name="brokenbar" unicode="&#xa6;" horiz-adv-x="292" 
d="M201 375h-110v335h110v-335zM91 159h110v-347h-110v347z" />
    <glyph glyph-name="copyright" unicode="&#xa9;" horiz-adv-x="822" 
d="M61 339c0 201 150 351 349 351c201 0 351 -150 351 -351c0 -199 -150 -349 -351 -349c-199 0 -349 150 -349 349zM139 339c0 -157 114 -274 271 -274c158 0 272 117 272 274c0 158 -114 276 -272 276c-157 0 -271 -118 -271 -276zM495 292l58 -73
c-31 -29 -83 -55 -140 -55c-100 0 -175 65 -175 175s75 175 175 175c88 0 137 -49 139 -128l-87 -21c-1 32 -17 52 -52 52c-41 0 -68 -28 -68 -78s27 -78 71 -78c32 0 60 14 79 31z" />
    <glyph glyph-name="uni2117" unicode="&#x2117;" horiz-adv-x="822" 
d="M61 339c0 201 150 351 349 351c201 0 351 -150 351 -351c0 -199 -150 -349 -351 -349c-199 0 -349 150 -349 349zM139 339c0 -157 114 -274 271 -274c158 0 272 117 272 274c0 158 -114 276 -272 276c-157 0 -271 -118 -271 -276zM296 169v340h169c67 0 125 -40 125 -126
c0 -78 -58 -124 -125 -124h-66v-90h-103zM451 424h-52v-80h52c21 0 38 15 38 40s-17 40 -38 40z" />
    <glyph glyph-name="registered" unicode="&#xae;" horiz-adv-x="822" 
d="M61 339c0 201 150 351 349 351c201 0 351 -150 351 -351c0 -199 -150 -349 -351 -349c-199 0 -349 150 -349 349zM139 339c0 -157 114 -274 271 -274c158 0 272 117 272 274c0 158 -114 276 -272 276c-157 0 -271 -118 -271 -276zM266 169v340h162c72 0 130 -39 130 -117
c0 -49 -31 -88 -76 -103c26 -18 52 -33 79 -33c11 0 26 3 36 7l9 -86c-14 -7 -35 -13 -58 -13c-77 0 -134 71 -178 97v-92h-104zM423 424h-53v-68h53c21 0 34 14 34 34c0 22 -13 34 -34 34z" />
    <glyph glyph-name="trademark" unicode="&#x2122;" horiz-adv-x="851" 
d="M683 357v187l-92 -112h-14l-92 112v-187h-76v306h64l111 -131l111 131h64v-306h-76zM335 587h-92v-230h-76v230h-93v76h261v-76z" />
    <glyph glyph-name="currency" unicode="&#xa4;" horiz-adv-x="577" 
d="M427 519l79 -78l-58 -57c14 -23 22 -52 22 -82c0 -31 -8 -59 -21 -82l57 -56l-79 -78l-57 57c-24 -14 -53 -22 -86 -22c-30 0 -57 7 -79 19l-54 -54l-79 78l51 51c-15 24 -24 54 -24 87s9 63 24 87l-51 52l79 78l54 -55c23 13 49 20 79 20c33 0 62 -8 86 -23zM196 302
c0 -50 37 -89 88 -89c53 0 88 39 88 89c0 49 -35 89 -88 89c-51 0 -88 -40 -88 -89z" />
    <glyph glyph-name="Euro" unicode="&#x20ac;" 
d="M559 607l-50 -104c-37 37 -86 59 -133 59c-68 0 -119 -37 -140 -121h245l-38 -84h-218v-18c0 -11 0 -21 1 -31h197l-33 -84h-151c22 -74 69 -106 133 -106c56 0 103 22 141 51l52 -115c-61 -44 -129 -64 -204 -64c-139 0 -237 83 -268 234h-58v84h48c-1 10 -1 20 -1 31
v18h-47v84h55c29 160 128 249 274 249c89 0 145 -36 195 -83z" />
    <glyph glyph-name="cent" unicode="&#xa2;" 
d="M498 164l52 -106c-56 -44 -135 -72 -222 -72c-19 0 -37 2 -54 4l-35 -127l-82 22l34 125c-101 42 -147 135 -147 250c0 160 109 277 276 277c6 0 11 -1 17 -1l31 112l83 -22l-29 -105c85 -29 130 -99 134 -189l-113 -24c-3 46 -20 81 -53 100l-84 -303c10 -1 22 -2 34 -2
c66 0 120 31 158 61zM176 265c0 -55 17 -99 51 -127l79 286c-80 -7 -130 -71 -130 -159z" />
    <glyph glyph-name="sterling" unicode="&#xa3;" 
d="M464 304h-178c6 -38 11 -75 11 -111c0 -12 -1 -24 -2 -35c27 -16 68 -50 101 -50c48 0 62 34 62 97v21h110c1 -14 2 -31 2 -45c0 -113 -43 -191 -147 -191c-59 0 -109 48 -157 82c-28 -51 -62 -82 -132 -82c-69 0 -106 47 -106 109c0 61 43 103 104 103c17 0 37 -5 47 -9
c0 34 -9 71 -20 111h-97v85h76c-7 33 -11 67 -11 104c0 110 66 197 213 197c90 0 176 -47 208 -75l-41 -120c-29 26 -71 67 -139 67c-69 0 -101 -43 -101 -103c0 -21 2 -45 6 -70h191v-85zM146 126c-20 0 -34 -13 -34 -30c0 -15 7 -27 24 -27c25 0 33 25 37 49
c-6 4 -16 8 -27 8z" />
    <glyph glyph-name="florin" unicode="&#x192;" horiz-adv-x="473" 
d="M430 304h-131v-326c0 -96 -53 -176 -164 -176c-45 0 -103 15 -131 31l22 118c18 -12 45 -26 75 -26c41 0 58 17 58 55v324h-131v85h131v156c0 96 53 175 164 175c56 0 104 -17 131 -31l-21 -122c-18 12 -46 30 -76 30c-40 0 -58 -21 -58 -60v-148h131v-85z" />
    <glyph glyph-name="yen" unicode="&#xa5;" 
d="M517 116h-150v-116h-140v116h-150v84h150v51h-150v85h116l-166 334v10h144l126 -299l132 299h144v-10l-172 -334h116v-85h-150v-51h150v-84z" />
    <glyph glyph-name="ordfeminine" unicode="&#xaa;" horiz-adv-x="508" 
d="M121 582l-17 82c41 15 82 23 131 23c110 0 139 -45 139 -119v-130c0 -18 4 -33 23 -33c10 0 22 4 34 11l4 -74c-18 -7 -47 -16 -79 -16c-34 0 -56 16 -67 41c-23 -22 -56 -41 -102 -41c-71 0 -112 43 -112 105c0 76 67 117 179 117c9 0 17 -1 25 -1v12
c0 38 -19 49 -58 49c-34 0 -77 -12 -100 -26zM97 250h315v-76h-315v76zM165 440c0 -28 24 -37 54 -37c27 0 47 10 60 20v65c-6 1 -16 1 -22 1c-62 0 -92 -16 -92 -49z" />
    <glyph glyph-name="ordmasculine" unicode="&#xba;" horiz-adv-x="508" 
d="M69 507c0 104 78 183 185 183c108 0 186 -79 186 -183s-78 -181 -186 -181c-107 0 -185 77 -185 181zM156 507c0 -55 40 -99 98 -99s98 44 98 99c0 56 -40 100 -98 100s-98 -44 -98 -100zM97 250h315v-76h-315v76z" />
    <glyph glyph-name="onesuperior" unicode="&#xb9;" horiz-adv-x="277" 
d="M13 703l147 81h57v-338h-78v250l-96 -51z" />
    <glyph glyph-name="twosuperior" unicode="&#xb2;" horiz-adv-x="350" 
d="M311 446h-264v58l129 97c33 24 46 46 46 71c0 26 -17 47 -51 47c-43 0 -63 -27 -63 -65l-71 13c2 75 51 123 135 123c88 0 130 -48 130 -118c0 -36 -22 -81 -72 -116l-59 -42h140v-68z" />
    <glyph glyph-name="threesuperior" unicode="&#xb3;" horiz-adv-x="338" 
d="M77 652h78c35 0 53 15 53 35c0 25 -22 36 -59 36c-36 0 -68 -7 -97 -19l-17 66c21 8 70 20 114 20c90 0 138 -34 138 -95c0 -33 -23 -63 -61 -72c44 -10 72 -38 72 -84c0 -59 -50 -98 -149 -98c-49 0 -96 14 -114 20l20 65c16 -7 55 -19 94 -19c42 0 69 17 69 44
c0 25 -21 35 -63 35h-78v66z" />
    <glyph glyph-name="fraction" unicode="&#x2044;" horiz-adv-x="180" 
d="M-134 11l369 669h80v-10l-368 -670h-81v11z" />
    <glyph glyph-name="uni2215" unicode="&#x2215;" horiz-adv-x="180" 
d="M-134 11l369 669h80v-10l-368 -670h-81v11z" />
    <glyph glyph-name="onehalf" unicode="&#xbd;" horiz-adv-x="800" 
d="M147 11l369 669h80v-10l-368 -670h-81v11zM487 0v58l129 97c33 24 46 46 46 71c0 26 -17 47 -51 47c-43 0 -63 -27 -63 -65l-71 13c2 75 51 123 135 123c88 0 130 -48 130 -118c0 -36 -22 -81 -72 -116l-59 -42h140v-68h-264zM31 599l147 81h57v-338h-78v250l-96 -51z
" />
    <glyph glyph-name="onethird" unicode="&#x2153;" horiz-adv-x="815" 
d="M147 11l369 669h80v-10l-368 -670h-81v11zM31 599l147 81h57v-338h-78v250l-96 -51zM545 203h78c35 0 53 15 53 35c0 25 -22 36 -59 36c-36 0 -68 -7 -97 -19l-17 66c21 8 70 20 114 20c90 0 138 -34 138 -95c0 -33 -23 -63 -61 -72c44 -10 72 -38 72 -84
c0 -59 -50 -98 -149 -98c-49 0 -96 14 -114 20l20 65c16 -7 55 -19 94 -19c42 0 69 17 69 44c0 25 -21 35 -63 35h-78v66z" />
    <glyph glyph-name="onequarter" unicode="&#xbc;" horiz-adv-x="806" 
d="M764 61h-57v-61h-78v61h-183v51l157 226l26 -1v1h78v-219h57v-58zM147 11l369 669h80v-10l-368 -670h-81v11zM31 603l147 81h57v-338h-78v250l-96 -51zM524 119h105v151z" />
    <glyph glyph-name="oneeighth" unicode="&#x215b;" horiz-adv-x="815" 
d="M147 11l369 669h80v-10l-368 -670h-81v11zM620 -5c-96 0 -146 39 -146 98c0 46 26 74 75 84c-39 8 -63 39 -63 72c0 61 46 95 134 95s134 -34 134 -95c0 -33 -24 -64 -63 -72c49 -10 75 -38 75 -84c0 -59 -50 -98 -146 -98zM620 149c-47 0 -67 -20 -67 -44
c0 -27 26 -48 67 -48s67 21 67 48c0 24 -20 44 -67 44zM620 282c-35 0 -57 -15 -57 -40c0 -21 17 -41 57 -41c41 0 57 20 57 41c0 25 -21 40 -57 40zM31 603l147 81h57v-338h-78v250l-96 -51z" />
    <glyph glyph-name="twothirds" unicode="&#x2154;" horiz-adv-x="870" 
d="M209 11l369 669h80v-10l-368 -670h-81v11zM607 203h78c35 0 53 15 53 35c0 25 -22 36 -59 36c-36 0 -68 -7 -97 -19l-17 66c21 8 70 20 114 20c90 0 138 -34 138 -95c0 -33 -23 -63 -61 -72c44 -10 72 -38 72 -84c0 -59 -50 -98 -149 -98c-49 0 -96 14 -114 20l20 65
c16 -7 55 -19 94 -19c42 0 69 17 69 44c0 25 -21 35 -63 35h-78v66zM321 346h-264v58l129 97c33 24 46 46 46 71c0 26 -17 47 -51 47c-43 0 -63 -27 -63 -65l-71 13c2 75 51 123 135 123c88 0 130 -48 130 -118c0 -36 -22 -81 -72 -116l-59 -42h140v-68z" />
    <glyph glyph-name="threequarters" unicode="&#xbe;" horiz-adv-x="851" 
d="M814 61h-57v-61h-78v61h-183v51l157 226l26 -1v1h78v-219h57v-58zM197 11l369 669h80v-10l-368 -670h-81v11zM90 552h78c35 0 53 15 53 35c0 25 -22 36 -59 36c-36 0 -68 -7 -97 -19l-17 66c21 8 70 20 114 20c90 0 138 -34 138 -95c0 -33 -23 -63 -61 -72
c44 -10 72 -38 72 -84c0 -59 -50 -98 -149 -98c-49 0 -96 14 -114 20l20 65c16 -7 55 -19 94 -19c42 0 69 17 69 44c0 25 -21 35 -63 35h-78v66zM574 119h105v151z" />
    <glyph glyph-name="threeeighths" unicode="&#x215c;" horiz-adv-x="856" 
d="M195 11l369 669h80v-10l-368 -670h-81v11zM668 -5c-96 0 -146 39 -146 98c0 46 26 74 75 84c-39 8 -63 39 -63 72c0 61 46 95 134 95s134 -34 134 -95c0 -33 -24 -64 -63 -72c49 -10 75 -38 75 -84c0 -59 -50 -98 -146 -98zM668 149c-47 0 -67 -20 -67 -44
c0 -27 26 -48 67 -48s67 21 67 48c0 24 -20 44 -67 44zM668 282c-35 0 -57 -15 -57 -40c0 -21 17 -41 57 -41c41 0 57 20 57 41c0 25 -21 40 -57 40zM88 552h78c35 0 53 15 53 35c0 25 -22 36 -59 36c-36 0 -68 -7 -97 -19l-17 66c21 8 70 20 114 20c90 0 138 -34 138 -95
c0 -33 -23 -63 -61 -72c44 -10 72 -38 72 -84c0 -59 -50 -98 -149 -98c-49 0 -96 14 -114 20l20 65c16 -7 55 -19 94 -19c42 0 69 17 69 44c0 25 -21 35 -63 35h-78v66z" />
    <glyph glyph-name="fiveeighths" unicode="&#x215d;" horiz-adv-x="853" 
d="M665 -5c-96 0 -146 39 -146 98c0 46 26 74 75 84c-39 8 -63 39 -63 72c0 61 46 95 134 95s134 -34 134 -95c0 -33 -24 -64 -63 -72c49 -10 75 -38 75 -84c0 -59 -50 -98 -146 -98zM192 11l369 669h80v-10l-368 -670h-81v11zM64 497l-3 3l15 184h220v-67h-154l-6 -63h30
c88 0 141 -29 141 -96c0 -80 -60 -117 -147 -117c-56 0 -100 15 -118 22l20 64c17 -8 53 -20 93 -20c41 0 73 15 73 49c0 30 -26 41 -67 41h-97zM665 149c-47 0 -67 -20 -67 -44c0 -27 26 -48 67 -48s67 21 67 48c0 24 -20 44 -67 44zM665 282c-35 0 -57 -15 -57 -40
c0 -21 17 -41 57 -41c41 0 57 20 57 41c0 25 -21 40 -57 40z" />
    <glyph glyph-name="seveneighths" unicode="&#x215e;" horiz-adv-x="806" 
d="M144 11l369 669h80v-10l-368 -670h-81v11zM617 -5c-96 0 -146 39 -146 98c0 46 26 74 75 84c-39 8 -63 39 -63 72c0 61 46 95 134 95s134 -34 134 -95c0 -33 -24 -64 -63 -72c49 -10 75 -38 75 -84c0 -59 -50 -98 -146 -98zM617 149c-47 0 -67 -20 -67 -44
c0 -27 26 -48 67 -48s67 21 67 48c0 24 -20 44 -67 44zM617 282c-35 0 -57 -15 -57 -40c0 -21 17 -41 57 -41c41 0 57 20 57 41c0 25 -21 40 -57 40zM72 353l133 264h-168v67h255v-53l-135 -285h-85v7z" />
    <glyph glyph-name="perthousand" unicode="&#x2030;" horiz-adv-x="1304" 
d="M896 171c0 104 78 183 186 183c107 0 185 -79 185 -183s-78 -181 -185 -181c-108 0 -186 77 -186 181zM1003 171c0 -44 32 -79 79 -79c46 0 77 35 77 79c0 45 -31 80 -77 80c-47 0 -79 -35 -79 -80zM488 171c0 104 78 183 185 183c108 0 186 -79 186 -183
s-78 -181 -186 -181c-107 0 -185 77 -185 181zM595 171c0 -44 32 -79 78 -79s78 35 78 79c0 45 -32 80 -78 80s-78 -35 -78 -80zM212 11l349 669h120v-10l-348 -670h-121v11zM37 507c0 104 78 183 185 183c108 0 186 -79 186 -183s-78 -181 -186 -181
c-107 0 -185 77 -185 181zM144 507c0 -44 32 -79 78 -79s78 35 78 79c0 45 -32 80 -78 80s-78 -35 -78 -80z" />
    <glyph glyph-name="minus" unicode="&#x2212;" 
d="M61 358h478v-110h-478v110z" />
    <glyph glyph-name="plusminus" unicode="&#xb1;" 
d="M355 654v-184h184v-110h-184v-121h-110v121h-184v110h184v184h110zM61 162h478v-110h-478v110z" />
    <glyph glyph-name="multiply" unicode="&#xd7;" 
d="M508 432l-131 -129l131 -130l-79 -78l-129 130l-130 -130l-78 78l130 130l-130 129l78 79l130 -131l129 131z" />
    <glyph glyph-name="divide" unicode="&#xf7;" 
d="M61 358h478v-110h-478v110zM221 496c0 48 28 76 77 76s78 -28 78 -76c0 -49 -29 -76 -78 -76s-77 27 -77 76zM221 108c0 48 28 76 77 76s78 -28 78 -76c0 -49 -29 -76 -78 -76s-77 27 -77 76z" />
    <glyph glyph-name="notequal" unicode="&#x2260;" 
d="M152 37l25 71h-116v110h156l61 169h-217v110h257l40 109l82 -28l-30 -81h129v-110h-168l-62 -169h230v-110h-270l-35 -98z" />
    <glyph glyph-name="approxequal" unicode="&#x2248;" 
d="M512 500l33 -85c-33 -50 -76 -66 -127 -66c-79 0 -164 52 -232 52c-29 0 -72 -8 -99 -40l-31 89c28 42 70 63 124 63c84 0 175 -52 234 -52c32 0 71 9 98 39zM511 233l33 -85c-34 -50 -76 -66 -127 -66c-79 0 -164 52 -233 52c-28 0 -72 -8 -98 -40l-32 89
c29 42 71 63 125 63c84 0 175 -52 233 -52c33 0 72 9 99 39z" />
    <glyph glyph-name="lessequal" unicode="&#x2264;" 
d="M60 162h478v-110h-478v110zM60 361v108l469 158h10v-101l-350 -109l350 -108v-102h-10z" />
    <glyph glyph-name="greaterequal" unicode="&#x2265;" 
d="M61 162h478v-110h-478v110zM539 469v-108l-468 -154h-10v102l349 108l-349 109v101h10z" />
    <glyph glyph-name="logicalnot" unicode="&#xac;" 
d="M428 124v184h-368v110h479l-1 -294h-110z" />
    <glyph glyph-name="Delta" unicode="&#x2206;" horiz-adv-x="758" 
d="M30 0l271 680h164l262 -680h-697zM382 541l-175 -437h344z" />
    <glyph glyph-name="uni0394" unicode="&#x394;" horiz-adv-x="758" 
d="M30 0l271 680h164l262 -680h-697zM382 541l-175 -437h344z" />
    <glyph glyph-name="Omega" unicode="&#x2126;" horiz-adv-x="832" 
d="M468 0v112c94 38 162 120 162 227c0 125 -84 220 -215 220c-129 0 -213 -95 -213 -220c0 -109 63 -186 160 -227v-112h-277v109h116c-80 45 -135 140 -135 256c0 175 144 325 349 325c207 0 351 -150 351 -325c0 -115 -56 -210 -135 -256h115v-109h-278z" />
    <glyph glyph-name="uni03A9" unicode="&#x3a9;" horiz-adv-x="832" 
d="M468 0v112c94 38 162 120 162 227c0 125 -84 220 -215 220c-129 0 -213 -95 -213 -220c0 -109 63 -186 160 -227v-112h-277v109h116c-80 45 -135 140 -135 256c0 175 144 325 349 325c207 0 351 -150 351 -325c0 -115 -56 -210 -135 -256h115v-109h-278z" />
    <glyph glyph-name="mu" unicode="&#xb5;" horiz-adv-x="666" 
d="M232 523v-267c0 -100 24 -138 106 -138c61 0 98 37 116 70v335h140v-523h-140v47c-39 -38 -97 -57 -168 -57c-20 0 -38 2 -54 6v-184h-140v711h140z" />
    <glyph glyph-name="uni03BC" unicode="&#x3bc;" horiz-adv-x="666" 
d="M222 523v-267c0 -100 24 -138 106 -138c61 0 98 37 116 70v335h140v-523h-140v47c-39 -38 -97 -57 -168 -57c-20 0 -38 2 -54 6v-184h-140v711h140z" />
    <glyph glyph-name="pi" unicode="&#x3c0;" horiz-adv-x="749" 
d="M30 523h674v-109h-115v-253c0 -30 7 -53 36 -53c21 0 45 11 52 16l7 -111c-7 -6 -59 -23 -115 -23c-77 0 -120 41 -120 138v286h-166v-414h-140v414h-113v109z" />
    <glyph glyph-name="degree" unicode="&#xb0;" horiz-adv-x="469" 
d="M49 507c0 104 78 183 185 183c108 0 186 -79 186 -183s-78 -181 -186 -181c-107 0 -185 77 -185 181zM146 507c0 -49 37 -89 88 -89c53 0 88 40 88 89c0 50 -35 90 -88 90c-51 0 -88 -40 -88 -90z" />
    <glyph glyph-name="afii61289" unicode="&#x2113;" horiz-adv-x="429" 
d="M66 123l-30 53l75 52v261c0 138 63 200 159 200c82 0 124 -45 124 -139c0 -147 -82 -270 -166 -341v-43c0 -61 23 -77 63 -77c29 0 51 12 66 21l-5 -102c-25 -11 -63 -18 -109 -18c-84 0 -132 41 -132 134v30zM228 507v-219c53 52 99 136 99 265c0 48 -16 67 -45 67
c-33 0 -54 -35 -54 -113z" />
    <glyph glyph-name="estimated" unicode="&#x212e;" horiz-adv-x="679" 
d="M345 601c196 0 279 -151 279 -307v-26h-431v-169c37 -37 88 -58 152 -58c89 0 150 38 184 104h66c-38 -92 -119 -157 -250 -157c-194 0 -278 151 -278 306c0 156 84 307 278 307zM345 548c-64 0 -115 -20 -152 -58v-170h305v170c-37 38 -88 58 -153 58z" />
    <glyph glyph-name="eng" unicode="&#x14b;" horiz-adv-x="659" 
d="M444 39v239c0 77 -36 125 -106 125c-59 0 -100 -50 -116 -92v-311h-140v523h140v-64c37 43 95 73 168 73c135 0 194 -102 194 -231v-251c0 -134 -67 -203 -145 -245l-83 81c48 30 88 78 88 153z" />
    <glyph glyph-name="Eng" unicode="&#x14a;" horiz-adv-x="842" 
d="M603 38l-364 419v-457h-140v680h122l382 -452v452h140v-630c0 -134 -67 -203 -145 -245l-83 81c48 30 88 78 88 152z" />
    <glyph glyph-name="infinity" unicode="&#x221e;" horiz-adv-x="826" 
d="M169 300c0 -48 31 -73 70 -73c24 0 43 16 67 37l40 36l-40 36c-24 22 -43 37 -67 37c-39 0 -70 -25 -70 -73zM413 236l-43 -38c-49 -43 -87 -69 -147 -69c-84 0 -156 64 -156 171c0 108 72 172 156 172c60 0 100 -26 147 -69l42 -38l44 38c48 42 86 69 147 69
c84 0 156 -64 156 -172c0 -107 -72 -171 -156 -171c-61 0 -98 26 -147 69zM655 300c0 48 -30 73 -69 73c-24 0 -43 -15 -67 -37l-40 -36l40 -36c24 -21 43 -37 67 -37c39 0 69 25 69 73z" />
    <glyph glyph-name="partialdiff" unicode="&#x2202;" horiz-adv-x="622" 
d="M252 453c75 0 131 -35 165 -66c-19 134 -119 215 -205 245l55 88c151 -30 294 -173 294 -379c0 -211 -99 -351 -280 -351c-140 0 -241 95 -241 243c0 127 78 220 212 220zM286 118c78 0 118 62 131 153c-28 30 -74 68 -132 68c-64 0 -106 -37 -106 -107
c0 -62 40 -114 107 -114z" />
    <glyph glyph-name="integral" unicode="&#x222b;" horiz-adv-x="466" 
d="M163 -20v565c0 96 53 175 164 175c56 0 104 -17 131 -31l-21 -122c-18 12 -46 30 -76 30c-40 0 -58 -21 -58 -60v-559c0 -96 -53 -176 -164 -176c-45 0 -103 15 -131 31l22 118c18 -12 45 -26 75 -26c41 0 58 17 58 55z" />
    <glyph glyph-name="radical" unicode="&#x221a;" horiz-adv-x="654" 
d="M214 472l157 -317l177 554l76 -25l-222 -684h-90l-159 320l-93 -46l-47 92z" />
    <glyph glyph-name="summation" unicode="&#x2211;" horiz-adv-x="569" 
d="M63 0v75l184 266l-186 267v72h444v-110h-276l155 -230l-153 -230h274v-110h-442z" />
    <glyph glyph-name="product" unicode="&#x220f;" horiz-adv-x="742" 
d="M231 -188h-133v868h546v-868h-133v745h-280v-745z" />
    <glyph glyph-name="lozenge" unicode="&#x25ca;" horiz-adv-x="581" 
d="M544 332l-210 -332h-88l-209 332l209 348h88zM426 331l-136 226l-135 -226l135 -213z" />
    <glyph glyph-name="uniF8FF" unicode="&#xf8ff;" horiz-adv-x="612" 
d="M50 720h512v-720h-512v720zM266 283h48c0 95 136 100 136 197c0 65 -48 119 -138 119c-111 0 -133 -91 -133 -136h47c0 49 24 93 86 93c56 0 87 -34 87 -76c0 -71 -133 -85 -133 -197zM255 194v-71h68v71h-68z" />
    <glyph glyph-name="zero.tf" 
d="M33 339c0 213 89 351 265 351c179 0 268 -138 268 -351c0 -211 -89 -349 -268 -349c-176 0 -265 138 -265 349zM169 339c0 -122 30 -220 129 -220c102 0 131 98 131 220c0 124 -29 223 -131 223c-99 0 -129 -99 -129 -223z" />
    <glyph glyph-name="one.tf" 
d="M557 0h-504v122h203v405l-166 -79l-47 112l249 120h104v-558h161v-122z" />
    <glyph glyph-name="two.tf" 
d="M555 0h-493v105l245 199c63 52 87 97 87 152c0 58 -32 106 -100 106c-83 0 -122 -58 -123 -139l-126 24c3 147 94 243 251 243c165 0 242 -96 242 -222c0 -85 -23 -159 -119 -233l-147 -113h283v-122z" />
    <glyph glyph-name="three.tf" 
d="M134 409h148c76 0 110 33 110 80c0 54 -50 81 -125 81c-83 0 -164 -28 -193 -41l-32 119c43 17 135 42 223 42c178 0 269 -66 269 -187c0 -69 -47 -131 -125 -148c91 -19 149 -75 149 -169c0 -119 -99 -196 -293 -196c-99 0 -187 30 -222 42l34 117
c34 -15 107 -40 188 -40c91 0 149 37 149 98c0 57 -42 82 -132 82h-148v120z" />
    <glyph glyph-name="four.tf" 
d="M571 128h-77v-128h-140v128h-326v92l279 460h187v-448h77v-104zM165 232h189v315z" />
    <glyph glyph-name="five.tf" 
d="M88 313l-6 6l30 361h421v-122h-304l-11 -142h65c168 0 271 -58 271 -193c0 -160 -117 -233 -282 -233c-109 0 -192 31 -226 45l35 116c33 -16 103 -42 184 -42s146 33 146 111c0 67 -54 93 -137 93h-186z" />
    <glyph glyph-name="six.tf" 
d="M532 637l-38 -114c-31 21 -93 48 -157 48c-103 0 -146 -71 -156 -176c33 28 84 58 158 58c143 0 221 -83 221 -220c0 -148 -101 -243 -241 -243c-181 0 -280 140 -280 351c0 208 99 349 282 349c95 0 178 -33 211 -53zM313 339c-56 0 -102 -38 -130 -67
c13 -91 53 -154 130 -154c67 0 108 51 108 115c0 72 -42 106 -108 106z" />
    <glyph glyph-name="seven.tf" 
d="M124 13l271 545h-347v122h503v-98l-273 -582h-154v13z" />
    <glyph glyph-name="eight.tf" 
d="M300 -10c-173 0 -263 77 -263 196c0 94 38 150 125 169c-70 15 -104 79 -104 148c0 121 84 187 242 187s242 -66 242 -187c0 -69 -34 -133 -103 -148c86 -19 124 -75 124 -169c0 -119 -90 -196 -263 -196zM301 288c-85 0 -122 -36 -122 -87c0 -57 47 -93 121 -93
s121 36 121 93c0 51 -36 87 -120 87zM300 575c-65 0 -103 -26 -103 -80c0 -44 29 -79 104 -79c73 0 102 35 102 79c0 54 -38 80 -103 80z" />
    <glyph glyph-name="nine.tf" 
d="M262 109c101 0 145 70 155 176c-32 -28 -83 -58 -157 -58c-144 0 -221 83 -221 220c0 148 100 243 241 243c181 0 280 -140 280 -351c0 -208 -99 -349 -281 -349c-97 0 -180 33 -213 53l38 114c32 -21 94 -48 158 -48zM287 341c55 0 101 37 128 67
c-13 91 -56 154 -129 154c-64 0 -108 -51 -108 -115c0 -72 44 -106 109 -106z" />
    <glyph glyph-name="Euro.tf" 
d="M559 607l-50 -104c-37 37 -86 59 -133 59c-68 0 -119 -37 -140 -121h245l-38 -84h-218v-18c0 -11 0 -21 1 -31h197l-33 -84h-151c22 -74 69 -106 133 -106c56 0 103 22 141 51l52 -115c-61 -44 -129 -64 -204 -64c-139 0 -237 83 -268 234h-58v84h48c-1 10 -1 20 -1 31
v18h-47v84h55c29 160 128 249 274 249c89 0 145 -36 195 -83z" />
    <glyph glyph-name="cent.tf" 
d="M498 164l52 -106c-56 -44 -135 -72 -222 -72c-19 0 -37 2 -54 4l-35 -127l-82 22l34 125c-101 42 -147 135 -147 250c0 160 109 277 276 277c6 0 11 -1 17 -1l31 112l83 -22l-29 -105c85 -29 130 -99 134 -189l-113 -24c-3 46 -20 81 -53 100l-84 -303c10 -1 22 -2 34 -2
c66 0 120 31 158 61zM176 265c0 -55 17 -99 51 -127l79 286c-80 -7 -130 -71 -130 -159z" />
    <glyph glyph-name="sterling.tf" 
d="M464 304h-178c6 -38 11 -75 11 -111c0 -12 -1 -24 -2 -35c27 -16 68 -50 101 -50c48 0 62 34 62 97v21h110c1 -14 2 -31 2 -45c0 -113 -43 -191 -147 -191c-59 0 -109 48 -157 82c-28 -51 -62 -82 -132 -82c-69 0 -106 47 -106 109c0 61 43 103 104 103c17 0 37 -5 47 -9
c0 34 -9 71 -20 111h-97v85h76c-7 33 -11 67 -11 104c0 110 66 197 213 197c90 0 176 -47 208 -75l-41 -120c-29 26 -71 67 -139 67c-69 0 -101 -43 -101 -103c0 -21 2 -45 6 -70h191v-85zM146 126c-20 0 -34 -13 -34 -30c0 -15 7 -27 24 -27c25 0 33 25 37 49
c-6 4 -16 8 -27 8z" />
    <glyph glyph-name="florin.tf" horiz-adv-x="473" 
d="M430 304h-131v-326c0 -96 -53 -176 -164 -176c-45 0 -103 15 -131 31l22 118c18 -12 45 -26 75 -26c41 0 58 17 58 55v324h-131v85h131v156c0 96 53 175 164 175c56 0 104 -17 131 -31l-21 -122c-18 12 -46 30 -76 30c-40 0 -58 -21 -58 -60v-148h131v-85z" />
    <glyph glyph-name="yen.tf" 
d="M517 116h-150v-116h-140v116h-150v84h150v51h-150v85h116l-166 334v10h144l126 -299l132 299h144v-10l-172 -334h116v-85h-150v-51h150v-84z" />
    <glyph glyph-name="dollar.tf" 
d="M260 -129v120c-90 6 -173 35 -213 58l33 133c43 -28 109 -56 180 -63v163l-68 19c-103 27 -156 90 -156 182c0 103 70 189 224 204v82h84v-81c84 -6 162 -29 208 -53l-40 -131c-41 26 -106 48 -168 55v-156l37 -10c123 -35 183 -91 183 -188c0 -113 -88 -194 -220 -211
v-123h-84zM181 495c0 -37 25 -52 74 -66l5 -2v131c-55 -8 -79 -32 -79 -63zM418 194c0 32 -27 50 -74 65v-136c48 11 74 37 74 71z" />
    <glyph glyph-name="zerosuperior" unicode="&#x2070;" horiz-adv-x="379" 
d="M40 615c0 107 50 175 149 175c100 0 150 -68 150 -175c0 -106 -50 -174 -150 -174c-99 0 -149 68 -149 174zM115 615c0 -56 17 -102 74 -102s74 46 74 102c0 57 -17 104 -74 104s-74 -47 -74 -104z" />
    <glyph glyph-name="foursuperior" unicode="&#x2074;" horiz-adv-x="368" 
d="M341 507h-57v-61h-78v61h-183v51l157 226h104v-219h57v-58zM101 565h105v152z" />
    <glyph glyph-name="fivesuperior" unicode="&#x2075;" horiz-adv-x="334" 
d="M53 597l-3 3l15 184h220v-67h-154l-6 -63h30c88 0 141 -29 141 -96c0 -80 -60 -117 -147 -117c-56 0 -100 15 -118 22l20 64c17 -8 53 -20 93 -20c41 0 73 15 73 49c0 30 -26 41 -67 41h-97z" />
    <glyph glyph-name="sixsuperior" unicode="&#x2076;" horiz-adv-x="365" 
d="M205 724c-60 0 -84 -37 -88 -90c18 17 47 35 89 35c81 0 124 -39 124 -107c0 -74 -56 -121 -135 -121c-101 0 -156 70 -156 175c0 104 55 174 157 174c54 0 100 -16 119 -25l-21 -64c-18 10 -53 23 -89 23zM194 611c-33 0 -59 -16 -75 -28c8 -42 31 -71 76 -71
c36 0 58 23 58 50c0 34 -24 49 -59 49z" />
    <glyph glyph-name="sevensuperior" unicode="&#x2077;" horiz-adv-x="302" 
d="M61 453l133 264h-168v67h255v-53l-135 -285h-85v7z" />
    <glyph glyph-name="eightsuperior" unicode="&#x2078;" horiz-adv-x="370" 
d="M185 441c-96 0 -146 39 -146 98c0 46 26 74 75 84c-39 8 -63 39 -63 72c0 61 46 95 134 95s134 -34 134 -95c0 -33 -24 -64 -63 -72c49 -10 75 -38 75 -84c0 -59 -50 -98 -146 -98zM185 595c-47 0 -67 -20 -67 -44c0 -27 26 -48 67 -48s67 21 67 48c0 24 -20 44 -67 44z
M185 728c-35 0 -57 -15 -57 -40c0 -21 17 -41 57 -41c41 0 57 20 57 41c0 25 -21 40 -57 40z" />
    <glyph glyph-name="ninesuperior" unicode="&#x2079;" horiz-adv-x="365" 
d="M160 507c58 0 83 36 87 89c-18 -16 -46 -34 -88 -34c-81 0 -124 39 -124 106c0 74 57 122 135 122c100 0 156 -70 156 -175c0 -104 -56 -174 -157 -174c-54 0 -100 16 -118 25l21 64c17 -10 52 -23 88 -23zM170 620c33 0 60 16 75 28c-7 41 -31 71 -75 71
c-36 0 -57 -23 -57 -51c0 -33 23 -48 57 -48z" />
    <glyph glyph-name="zeroinferior" unicode="&#x2080;" horiz-adv-x="379" 
d="M40 69c0 107 50 175 149 175c100 0 150 -68 150 -175c0 -106 -50 -174 -150 -174c-99 0 -149 68 -149 174zM115 69c0 -56 17 -102 74 -102s74 46 74 102c0 57 -17 104 -74 104s-74 -47 -74 -104z" />
    <glyph glyph-name="oneinferior" unicode="&#x2081;" horiz-adv-x="278" 
d="M13 157l148 81h57v-338h-78v250l-96 -51z" />
    <glyph glyph-name="twoinferior" unicode="&#x2082;" horiz-adv-x="348" 
d="M47 -100v58l129 97c33 24 46 46 46 71c0 26 -17 47 -51 47c-43 0 -63 -27 -63 -65l-71 13c2 75 51 123 135 123c88 0 130 -48 130 -118c0 -36 -22 -81 -72 -116l-59 -42h140v-68h-264z" />
    <glyph glyph-name="threeinferior" unicode="&#x2083;" horiz-adv-x="337" 
d="M77 106h78c35 0 53 15 53 35c0 25 -22 36 -59 36c-36 0 -68 -7 -97 -19l-17 66c21 8 70 20 114 20c90 0 138 -34 138 -95c0 -33 -23 -63 -61 -72c44 -10 72 -38 72 -84c0 -59 -50 -98 -149 -98c-49 0 -96 14 -114 20l20 65c16 -7 55 -19 94 -19c42 0 69 17 69 44
c0 25 -21 35 -63 35h-78v66z" />
    <glyph glyph-name="fourinferior" unicode="&#x2084;" horiz-adv-x="369" 
d="M341 -39h-57v-61h-78v61h-183v51l157 226l26 -1v1h78v-219h57v-58zM101 19h105v151z" />
    <glyph glyph-name="fiveinferior" unicode="&#x2085;" horiz-adv-x="335" 
d="M54 51l-4 3l16 184h220v-67h-155l-5 -63h29c89 0 142 -29 142 -96c0 -80 -60 -117 -147 -117c-57 0 -101 15 -118 22l19 64c18 -8 53 -20 94 -20s72 15 72 49c0 30 -26 41 -66 41h-97z" />
    <glyph glyph-name="sixinferior" unicode="&#x2086;" horiz-adv-x="365" 
d="M205 178c-60 0 -84 -37 -88 -90c18 17 47 35 89 35c81 0 124 -39 124 -107c0 -74 -56 -121 -135 -121c-101 0 -156 70 -156 175c0 104 55 174 157 174c54 0 100 -16 119 -25l-21 -64c-18 10 -53 23 -89 23zM194 65c-33 0 -59 -16 -75 -28c8 -41 31 -71 76 -71
c36 0 58 23 58 50c0 34 -24 49 -59 49z" />
    <glyph glyph-name="seveninferior" unicode="&#x2087;" horiz-adv-x="301" 
d="M61 -93l133 264h-168v67h255v-53l-135 -285h-85v7z" />
    <glyph glyph-name="eightinferior" unicode="&#x2088;" horiz-adv-x="370" 
d="M185 -105c-96 0 -146 39 -146 98c0 46 26 74 75 84c-39 8 -63 39 -63 72c0 61 46 95 134 95s134 -34 134 -95c0 -33 -24 -64 -63 -72c49 -10 75 -38 75 -84c0 -59 -50 -98 -146 -98zM185 49c-47 0 -67 -20 -67 -44c0 -27 26 -48 67 -48s67 21 67 48c0 24 -20 44 -67 44z
M185 182c-35 0 -57 -15 -57 -40c0 -21 17 -41 57 -41c41 0 57 20 57 41c0 25 -21 40 -57 40z" />
    <glyph glyph-name="nineinferior" unicode="&#x2089;" horiz-adv-x="365" 
d="M160 -39c58 0 83 37 87 89c-18 -16 -46 -34 -88 -34c-81 0 -124 39 -124 106c0 74 57 122 135 122c100 0 156 -70 156 -175c0 -104 -56 -174 -157 -174c-54 0 -100 16 -118 25l21 64c17 -10 52 -23 88 -23zM170 74c33 0 60 16 75 28c-7 41 -31 71 -75 71
c-36 0 -57 -23 -57 -51c0 -33 23 -48 57 -48z" />
    <glyph glyph-name="zero.denom" horiz-adv-x="379" 
d="M40 169c0 107 50 175 149 175c100 0 150 -68 150 -175c0 -106 -50 -174 -150 -174c-99 0 -149 68 -149 174zM115 169c0 -56 17 -102 74 -102s74 46 74 102c0 57 -17 104 -74 104s-74 -47 -74 -104z" />
    <glyph glyph-name="one.denom" horiz-adv-x="278" 
d="M13 257l148 81h57v-338h-78v250l-96 -51z" />
    <glyph glyph-name="two.denom" horiz-adv-x="348" 
d="M47 0v58l129 97c33 24 46 46 46 71c0 26 -17 47 -51 47c-43 0 -63 -27 -63 -65l-71 13c2 75 51 123 135 123c88 0 130 -48 130 -118c0 -36 -22 -81 -72 -116l-59 -42h140v-68h-264z" />
    <glyph glyph-name="three.denom" horiz-adv-x="337" 
d="M77 206h78c35 0 53 15 53 35c0 25 -22 36 -59 36c-36 0 -68 -7 -97 -19l-17 66c21 8 70 20 114 20c90 0 138 -34 138 -95c0 -33 -23 -63 -61 -72c44 -10 72 -38 72 -84c0 -59 -50 -98 -149 -98c-49 0 -96 14 -114 20l20 65c16 -7 55 -19 94 -19c42 0 69 17 69 44
c0 25 -21 35 -63 35h-78v66z" />
    <glyph glyph-name="four.denom" horiz-adv-x="369" 
d="M341 61h-57v-61h-78v61h-183v51l157 226l26 -1v1h78v-219h57v-58zM101 119h105v151z" />
    <glyph glyph-name="five.denom" horiz-adv-x="335" 
d="M54 151l-4 3l16 184h220v-67h-155l-5 -63h29c89 0 142 -29 142 -96c0 -80 -60 -117 -147 -117c-57 0 -101 15 -118 22l19 64c18 -8 53 -20 94 -20s72 15 72 49c0 30 -26 41 -66 41h-97z" />
    <glyph glyph-name="six.denom" horiz-adv-x="365" 
d="M205 278c-60 0 -84 -37 -88 -90c18 17 47 35 89 35c81 0 124 -39 124 -107c0 -74 -56 -121 -135 -121c-101 0 -156 70 -156 175c0 104 55 174 157 174c54 0 100 -16 119 -25l-21 -64c-18 10 -53 23 -89 23zM194 165c-33 0 -59 -16 -75 -28c8 -42 31 -71 76 -71
c36 0 58 23 58 50c0 34 -24 49 -59 49z" />
    <glyph glyph-name="seven.denom" horiz-adv-x="301" 
d="M61 7l133 264h-168v67h255v-53l-135 -285h-85v7z" />
    <glyph glyph-name="eight.denom" horiz-adv-x="370" 
d="M185 -5c-96 0 -146 39 -146 98c0 46 26 74 75 84c-39 8 -63 39 -63 72c0 61 46 95 134 95s134 -34 134 -95c0 -33 -24 -64 -63 -72c49 -10 75 -38 75 -84c0 -59 -50 -98 -146 -98zM185 149c-47 0 -67 -20 -67 -44c0 -27 26 -48 67 -48s67 21 67 48c0 24 -20 44 -67 44z
M185 282c-35 0 -57 -15 -57 -40c0 -21 17 -41 57 -41c41 0 57 20 57 41c0 25 -21 40 -57 40z" />
    <glyph glyph-name="nine.denom" horiz-adv-x="365" 
d="M160 61c58 0 83 36 87 89c-18 -16 -46 -34 -88 -34c-81 0 -124 39 -124 106c0 74 57 122 135 122c100 0 156 -70 156 -175c0 -104 -56 -174 -157 -174c-54 0 -100 16 -118 25l21 64c17 -10 52 -23 88 -23zM170 174c33 0 60 16 75 28c-7 41 -31 71 -75 71
c-36 0 -57 -23 -57 -51c0 -33 23 -48 57 -48z" />
    <glyph glyph-name="zero.num" horiz-adv-x="379" 
d="M40 510c0 107 50 175 149 175c100 0 150 -68 150 -175c0 -106 -50 -174 -150 -174c-99 0 -149 68 -149 174zM115 510c0 -56 17 -102 74 -102s74 46 74 102c0 57 -17 104 -74 104s-74 -47 -74 -104z" />
    <glyph glyph-name="one.num" horiz-adv-x="277" 
d="M13 599l147 81h57v-338h-78v250l-96 -51z" />
    <glyph glyph-name="two.num" horiz-adv-x="350" 
d="M311 341h-264v58l129 97c33 24 46 46 46 71c0 26 -17 47 -51 47c-43 0 -63 -27 -63 -65l-71 13c2 75 51 123 135 123c88 0 130 -48 130 -118c0 -36 -22 -81 -72 -116l-59 -42h140v-68z" />
    <glyph glyph-name="three.num" horiz-adv-x="338" 
d="M77 547h78c35 0 53 15 53 35c0 25 -22 36 -59 36c-36 0 -68 -7 -97 -19l-17 66c21 8 70 20 114 20c90 0 138 -34 138 -95c0 -33 -23 -63 -61 -72c44 -10 72 -38 72 -84c0 -59 -50 -98 -149 -98c-49 0 -96 14 -114 20l20 65c16 -7 55 -19 94 -19c42 0 69 17 69 44
c0 25 -21 35 -63 35h-78v66z" />
    <glyph glyph-name="four.num" horiz-adv-x="368" 
d="M341 403h-57v-61h-78v61h-183v51l157 226h104v-219h57v-58zM101 461h105v152z" />
    <glyph glyph-name="five.num" horiz-adv-x="334" 
d="M53 493l-3 3l15 184h220v-67h-154l-6 -63h30c88 0 141 -29 141 -96c0 -80 -60 -117 -147 -117c-56 0 -100 15 -118 22l20 64c17 -8 53 -20 93 -20c41 0 73 15 73 49c0 30 -26 41 -67 41h-97z" />
    <glyph glyph-name="six.num" horiz-adv-x="365" 
d="M205 619c-60 0 -84 -37 -88 -90c18 17 47 35 89 35c81 0 124 -39 124 -107c0 -74 -56 -121 -135 -121c-101 0 -156 70 -156 175c0 104 55 174 157 174c54 0 100 -16 119 -25l-21 -64c-18 10 -53 23 -89 23zM194 506c-33 0 -59 -16 -75 -28c8 -42 31 -71 76 -71
c36 0 58 23 58 50c0 34 -24 49 -59 49z" />
    <glyph glyph-name="seven.num" horiz-adv-x="302" 
d="M61 349l133 264h-168v67h255v-53l-135 -285h-85v7z" />
    <glyph glyph-name="eight.num" horiz-adv-x="370" 
d="M185 336c-96 0 -146 39 -146 98c0 46 26 74 75 84c-39 8 -63 39 -63 72c0 61 46 95 134 95s134 -34 134 -95c0 -33 -24 -64 -63 -72c49 -10 75 -38 75 -84c0 -59 -50 -98 -146 -98zM185 490c-47 0 -67 -20 -67 -44c0 -27 26 -48 67 -48s67 21 67 48c0 24 -20 44 -67 44z
M185 623c-35 0 -57 -15 -57 -40c0 -21 17 -41 57 -41c41 0 57 20 57 41c0 25 -21 40 -57 40z" />
    <glyph glyph-name="nine.num" horiz-adv-x="365" 
d="M160 402c58 0 83 36 87 89c-18 -16 -46 -34 -88 -34c-81 0 -124 39 -124 106c0 74 57 122 135 122c100 0 156 -70 156 -175c0 -104 -56 -174 -157 -174c-54 0 -100 16 -118 25l21 64c17 -10 52 -23 88 -23zM170 515c33 0 60 16 75 28c-7 41 -31 71 -75 71
c-36 0 -57 -23 -57 -51c0 -33 23 -48 57 -48z" />
    <glyph glyph-name="arrowleft" unicode="&#x2190;" horiz-adv-x="718" 
d="M242 348h412v-101h-411l147 -142l-67 -70l-259 264l257 260l69 -72z" />
    <glyph glyph-name="arrowup" unicode="&#x2191;" horiz-adv-x="718" 
d="M409 413v-411h-101v410l-142 -147l-69 67l263 259l260 -257l-72 -69z" />
    <glyph glyph-name="arrowright" unicode="&#x2192;" horiz-adv-x="718" 
d="M476 246h-412v101h411l-148 142l68 70l259 -264l-257 -260l-70 72z" />
    <glyph glyph-name="arrowdown" unicode="&#x2193;" horiz-adv-x="718" 
d="M307 179v412h102v-410l141 147l70 -67l-264 -259l-259 257l71 69z" />
    <glyph glyph-name="uni2196" unicode="&#x2196;" horiz-adv-x="718" 
d="M312 416l291 -292l-71 -71l-291 290l5 -204l-98 -2l3 370l366 2l-1 -100z" />
    <glyph glyph-name="uni2197" unicode="&#x2197;" horiz-adv-x="718" 
d="M477 343l-291 -291l-72 71l290 291l-204 -4c0 32 -1 65 -1 97l369 -3l2 -366l-99 2z" />
    <glyph glyph-name="uni2198" unicode="&#x2198;" horiz-adv-x="718" 
d="M406 178l-291 291l71 72l290 -290l-4 204l97 2l-3 -370l-366 -2l2 100z" />
    <glyph glyph-name="uni2199" unicode="&#x2199;" horiz-adv-x="718" 
d="M239 250l292 290l72 -70l-291 -291l204 4l2 -97l-370 3l-2 366l100 -2z" />
    <glyph glyph-name="parenleft.case" horiz-adv-x="321" 
d="M287 751c-49 -74 -116 -218 -116 -410c0 -190 67 -335 116 -409l-79 -45c-59 57 -160 221 -160 455s101 397 160 454z" />
    <glyph glyph-name="parenright.case" horiz-adv-x="321" 
d="M34 751l79 45c59 -57 160 -220 160 -454s-101 -398 -160 -455l-79 45c50 74 116 219 116 409c0 192 -66 336 -116 410z" />
    <glyph glyph-name="hyphen.case" horiz-adv-x="546" 
d="M73 398h400v-110h-400v110z" />
    <glyph glyph-name="bracketleft.case" horiz-adv-x="360" 
d="M322 -108h-236v898h236v-110h-125v-678h125v-110z" />
    <glyph glyph-name="bracketright.case" horiz-adv-x="359" 
d="M38 790h235v-898h-235v110h125v678h-125v110z" />
    <glyph glyph-name="braceleft.case" horiz-adv-x="347" 
d="M298 790v-98h-38c-42 0 -61 -27 -61 -56c0 -55 52 -132 52 -204c0 -52 -25 -83 -84 -94c59 -11 84 -42 84 -95c0 -71 -52 -148 -52 -203c0 -30 19 -57 61 -57h38v-98h-52c-108 0 -157 47 -157 128c0 74 52 144 52 220c0 46 -31 64 -105 64v83c74 0 105 23 105 71
c0 74 -52 143 -52 217c0 75 49 122 157 122h52z" />
    <glyph glyph-name="bar.case" horiz-adv-x="283" 
d="M86 -108v898h111v-898h-111z" />
    <glyph glyph-name="braceright.case" horiz-adv-x="346" 
d="M49 790h51c108 0 158 -47 158 -122c0 -74 -52 -143 -52 -217c0 -48 30 -71 104 -71v-83c-74 0 -104 -18 -104 -64c0 -76 52 -146 52 -220c0 -81 -50 -128 -158 -128h-51v98h38c42 0 61 27 61 57c0 55 -52 132 -52 203c0 53 25 84 84 95c-59 11 -84 42 -84 94
c0 72 52 149 52 204c0 29 -19 56 -61 56h-38v98z" />
    <glyph glyph-name="guilsinglleft.case" horiz-adv-x="314" 
d="M37 328v27l162 205h10l51 -27l-106 -191l106 -191l-51 -27h-10z" />
    <glyph glyph-name="guilsinglright.case" horiz-adv-x="315" 
d="M277 355v-27l-161 -204h-11l-50 26l105 192l-106 190l51 28h11z" />
    <glyph glyph-name="guillemotleft.case" horiz-adv-x="547" 
d="M37 328v27l162 205h10l51 -27l-106 -191l106 -191l-51 -27h-10zM270 328v27l162 205h10l51 -27l-106 -191l106 -191l-51 -27h-10z" />
    <glyph glyph-name="guillemotright.case" horiz-adv-x="548" 
d="M277 355v-27l-161 -204h-11l-50 26l105 192l-106 190l51 28h11zM510 355v-27l-161 -204h-11l-50 26l105 192l-106 190l51 28h11z" />
    <glyph glyph-name="endash.case" horiz-adv-x="642" 
d="M73 398h496v-110h-496v110z" />
    <glyph glyph-name="emdash.case" horiz-adv-x="890" 
d="M73 398h744v-110h-744v110z" />
    <glyph glyph-name="bullet.case" horiz-adv-x="362" 
d="M60 342c0 79 44 124 121 124s122 -45 122 -124c0 -80 -45 -124 -122 -124s-121 44 -121 124z" />
    <glyph glyph-name="periodcentered.case" horiz-adv-x="305" 
d="M66 335c0 54 31 85 86 85s87 -31 87 -85s-32 -84 -87 -84s-86 30 -86 84z" />
    <glyph glyph-name="a.alt" horiz-adv-x="620" 
d="M108 374l-24 123c51 20 131 35 220 35c146 0 201 -66 201 -180v-191c0 -30 8 -53 37 -53c16 0 35 7 53 16l6 -111c-26 -13 -69 -23 -115 -23c-50 0 -87 16 -106 55c-35 -30 -87 -55 -163 -55c-116 0 -178 61 -178 156c0 121 93 186 269 186c20 0 39 -2 57 -4v9
c0 62 -32 73 -87 73c-53 0 -126 -16 -170 -36zM179 159c0 -36 27 -49 78 -49c48 0 86 18 108 34v74c-16 3 -37 6 -58 6c-83 0 -128 -19 -128 -65z" />
    <glyph glyph-name="agrave.alt" horiz-adv-x="620" 
d="M108 374l-24 123c51 20 131 35 220 35c146 0 201 -66 201 -180v-191c0 -30 8 -53 37 -53c16 0 35 7 53 16l6 -111c-26 -13 -69 -23 -115 -23c-50 0 -87 16 -106 55c-35 -30 -87 -55 -163 -55c-116 0 -178 61 -178 156c0 121 93 186 269 186c20 0 39 -2 57 -4v9
c0 62 -32 73 -87 73c-53 0 -126 -16 -170 -36zM257 589l-102 152h139l81 -152h-118zM179 159c0 -36 27 -49 78 -49c48 0 86 18 108 34v74c-16 3 -37 6 -58 6c-83 0 -128 -19 -128 -65z" />
    <glyph glyph-name="aacute.alt" horiz-adv-x="620" 
d="M108 374l-24 123c51 20 131 35 220 35c146 0 201 -66 201 -180v-191c0 -30 8 -53 37 -53c16 0 35 7 53 16l6 -111c-26 -13 -69 -23 -115 -23c-50 0 -87 16 -106 55c-35 -30 -87 -55 -163 -55c-116 0 -178 61 -178 156c0 121 93 186 269 186c20 0 39 -2 57 -4v9
c0 62 -32 73 -87 73c-53 0 -126 -16 -170 -36zM449 741l-102 -152h-118l81 152h139zM179 159c0 -36 27 -49 78 -49c48 0 86 18 108 34v74c-16 3 -37 6 -58 6c-83 0 -128 -19 -128 -65z" />
    <glyph glyph-name="acircumflex.alt" horiz-adv-x="620" 
d="M108 374l-24 123c51 20 131 35 220 35c146 0 201 -66 201 -180v-191c0 -30 8 -53 37 -53c16 0 35 7 53 16l6 -111c-26 -13 -69 -23 -115 -23c-50 0 -87 16 -106 55c-35 -30 -87 -55 -163 -55c-116 0 -178 61 -178 156c0 121 93 186 269 186c20 0 39 -2 57 -4v9
c0 62 -32 73 -87 73c-53 0 -126 -16 -170 -36zM371 589l-66 84l-66 -84h-106l104 152h136l103 -152h-105zM179 159c0 -36 27 -49 78 -49c48 0 86 18 108 34v74c-16 3 -37 6 -58 6c-83 0 -128 -19 -128 -65z" />
    <glyph glyph-name="atilde.alt" horiz-adv-x="620" 
d="M108 374l-24 123c51 20 131 35 220 35c146 0 201 -66 201 -180v-191c0 -30 8 -53 37 -53c16 0 35 7 53 16l6 -111c-26 -13 -69 -23 -115 -23c-50 0 -87 16 -106 55c-35 -30 -87 -55 -163 -55c-116 0 -178 61 -178 156c0 121 93 186 269 186c20 0 39 -2 57 -4v9
c0 62 -32 73 -87 73c-53 0 -126 -16 -170 -36zM169 600l-42 55c20 45 64 84 112 84c67 0 108 -59 152 -59c33 0 56 19 69 44l43 -54c-25 -52 -64 -85 -112 -85c-62 0 -110 59 -151 59c-32 0 -54 -17 -71 -44zM179 159c0 -36 27 -49 78 -49c48 0 86 18 108 34v74
c-16 3 -37 6 -58 6c-83 0 -128 -19 -128 -65z" />
    <glyph glyph-name="adieresis.alt" horiz-adv-x="620" 
d="M108 374l-24 123c51 20 131 35 220 35c146 0 201 -66 201 -180v-191c0 -30 8 -53 37 -53c16 0 35 7 53 16l6 -111c-26 -13 -69 -23 -115 -23c-50 0 -87 16 -106 55c-35 -30 -87 -55 -163 -55c-116 0 -178 61 -178 156c0 121 93 186 269 186c20 0 39 -2 57 -4v9
c0 62 -32 73 -87 73c-53 0 -126 -16 -170 -36zM179 159c0 -36 27 -49 78 -49c48 0 86 18 108 34v74c-16 3 -37 6 -58 6c-83 0 -128 -19 -128 -65zM368 669c0 48 31 66 77 66c44 0 74 -18 74 -66c0 -47 -30 -66 -74 -66c-46 0 -77 19 -77 66zM113 669c0 48 31 66 76 66
c44 0 75 -18 75 -66c0 -47 -31 -66 -75 -66c-45 0 -76 19 -76 66z" />
    <glyph glyph-name="amacron.alt" horiz-adv-x="620" 
d="M108 374l-24 123c51 20 131 35 220 35c146 0 201 -66 201 -180v-191c0 -30 8 -53 37 -53c16 0 35 7 53 16l6 -111c-26 -13 -69 -23 -115 -23c-50 0 -87 16 -106 55c-35 -30 -87 -55 -163 -55c-116 0 -178 61 -178 156c0 121 93 186 269 186c20 0 39 -2 57 -4v9
c0 62 -32 73 -87 73c-53 0 -126 -16 -170 -36zM436 610h-255v96h255v-96zM179 159c0 -36 27 -49 78 -49c48 0 86 18 108 34v74c-16 3 -37 6 -58 6c-83 0 -128 -19 -128 -65z" />
    <glyph glyph-name="abreve.alt" horiz-adv-x="620" 
d="M108 374l-24 123c51 20 131 35 220 35c146 0 201 -66 201 -180v-191c0 -30 8 -53 37 -53c16 0 35 7 53 16l6 -111c-26 -13 -69 -23 -115 -23c-50 0 -87 16 -106 55c-35 -30 -87 -55 -163 -55c-116 0 -178 61 -178 156c0 121 93 186 269 186c20 0 39 -2 57 -4v9
c0 62 -32 73 -87 73c-53 0 -126 -16 -170 -36zM160 673l35 55c19 -23 57 -45 112 -45c53 0 92 21 111 45l36 -55c-24 -42 -71 -83 -146 -83s-124 41 -148 83zM179 159c0 -36 27 -49 78 -49c48 0 86 18 108 34v74c-16 3 -37 6 -58 6c-83 0 -128 -19 -128 -65z" />
    <glyph glyph-name="aring.alt" horiz-adv-x="620" 
d="M108 374l-24 123c51 20 131 35 220 35c146 0 201 -66 201 -180v-191c0 -30 8 -53 37 -53c16 0 35 7 53 16l6 -111c-26 -13 -69 -23 -115 -23c-50 0 -87 16 -106 55c-35 -30 -87 -55 -163 -55c-116 0 -178 61 -178 156c0 121 93 186 269 186c20 0 39 -2 57 -4v9
c0 62 -32 73 -87 73c-53 0 -126 -16 -170 -36zM207 670c0 54 44 98 98 98s98 -44 98 -98s-44 -98 -98 -98s-98 44 -98 98zM179 159c0 -36 27 -49 78 -49c48 0 86 18 108 34v74c-16 3 -37 6 -58 6c-83 0 -128 -19 -128 -65zM264 670c0 -23 18 -41 41 -41c22 0 40 18 40 41
c0 22 -18 40 -40 40c-23 0 -41 -18 -41 -40z" />
    <glyph glyph-name="aringacute.alt" horiz-adv-x="620" 
d="M108 374l-24 123c51 20 131 35 220 35c146 0 201 -66 201 -180v-191c0 -30 8 -53 37 -53c16 0 35 7 53 16l6 -111c-26 -13 -69 -23 -115 -23c-50 0 -87 16 -106 55c-35 -30 -87 -55 -163 -55c-116 0 -178 61 -178 156c0 121 93 186 269 186c20 0 39 -2 57 -4v9
c0 62 -32 73 -87 73c-53 0 -126 -16 -170 -36zM207 654c0 54 44 84 98 84s98 -30 98 -84s-44 -84 -98 -84s-98 30 -98 84zM179 159c0 -36 27 -49 78 -49c48 0 86 18 108 34v74c-16 3 -37 6 -58 6c-83 0 -128 -19 -128 -65zM413 839l-67 -83h-86l52 83h101zM265 654
c0 -23 18 -31 40 -31c23 0 41 8 41 31c0 22 -18 30 -41 30c-22 0 -40 -8 -40 -30z" />
    <glyph glyph-name="aogonek.alt" horiz-adv-x="620" 
d="M108 374l-24 123c51 20 131 35 220 35c146 0 201 -66 201 -180v-191c0 -30 8 -53 37 -53c16 0 35 7 53 16l6 -111c-19 -10 -47 -17 -78 -21c-29 -12 -48 -31 -48 -61c0 -32 19 -51 52 -51c19 0 37 7 54 18l14 -60c-21 -13 -48 -23 -87 -23c-60 0 -99 38 -99 97
c0 36 21 63 46 80c-34 6 -60 23 -75 53c-35 -30 -87 -55 -163 -55c-116 0 -178 61 -178 156c0 121 93 186 269 186c20 0 39 -2 57 -4v9c0 62 -32 73 -87 73c-53 0 -126 -16 -170 -36zM179 159c0 -36 27 -49 78 -49c48 0 86 18 108 34v74c-16 3 -37 6 -58 6
c-83 0 -128 -19 -128 -65z" />
    <glyph glyph-name="g.alt" horiz-adv-x="656" 
d="M435 523h140v-431c0 -204 -131 -290 -260 -290c-110 0 -174 52 -174 136c0 56 37 107 102 124c-110 16 -196 91 -196 228c0 138 85 242 234 242c65 0 120 -22 154 -54v45zM435 169v195c-25 23 -67 46 -113 46c-84 0 -133 -51 -133 -120c0 -87 68 -121 133 -121h113z
M435 53h-29c-86 0 -141 -32 -141 -79c0 -36 24 -54 55 -54c63 0 115 47 115 117v16z" />
    <glyph glyph-name="y.alt" 
d="M26 523h150l136 -373l136 373h140l-198 -516c-58 -156 -112 -205 -217 -205c-85 0 -144 47 -144 130c0 76 64 143 181 153zM247 -1l4 13c-78 0 -115 -15 -115 -55c0 -22 17 -37 40 -37c41 0 55 27 71 79z" />
    <glyph glyph-name="asterisk.alt" horiz-adv-x="492" 
d="M88 354l78 114l-128 31l29 106l132 -46l-8 141h110l-8 -142l132 47l29 -106l-131 -32l80 -112l-83 -59l-75 122l-73 -121z" />
    <glyph glyph-name="gcircumflex.alt" horiz-adv-x="656" 
d="M435 523h140v-431c0 -204 -131 -290 -260 -290c-110 0 -174 52 -174 136c0 56 37 107 102 124c-110 16 -196 91 -196 228c0 138 85 242 234 242c65 0 120 -22 154 -54v45zM435 169v195c-25 23 -67 46 -113 46c-84 0 -133 -51 -133 -120c0 -87 68 -121 133 -121h113z
M435 53h-29c-86 0 -141 -32 -141 -79c0 -36 24 -54 55 -54c63 0 115 47 115 117v16zM407 589l-66 84l-66 -84h-106l104 152h136l103 -152h-105z" />
    <glyph glyph-name="gbreve.alt" horiz-adv-x="656" 
d="M194 673l35 55c19 -23 57 -45 112 -45c53 0 92 21 111 45l36 -55c-24 -42 -71 -83 -146 -83s-124 41 -148 83zM435 523h140v-431c0 -204 -131 -290 -260 -290c-110 0 -174 52 -174 136c0 56 37 107 102 124c-110 16 -196 91 -196 228c0 138 85 242 234 242
c65 0 120 -22 154 -54v45zM435 169v195c-25 23 -67 46 -113 46c-84 0 -133 -51 -133 -120c0 -87 68 -121 133 -121h113zM435 53h-29c-86 0 -141 -32 -141 -79c0 -36 24 -54 55 -54c63 0 115 47 115 117v16z" />
    <glyph glyph-name="gdotaccent.alt" horiz-adv-x="656" 
d="M435 523h140v-431c0 -204 -131 -290 -260 -290c-110 0 -174 52 -174 136c0 56 37 107 102 124c-110 16 -196 91 -196 228c0 138 85 242 234 242c65 0 120 -22 154 -54v45zM435 169v195c-25 23 -67 46 -113 46c-84 0 -133 -51 -133 -120c0 -87 68 -121 133 -121h113z
M435 53h-29c-86 0 -141 -32 -141 -79c0 -36 24 -54 55 -54c63 0 115 47 115 117v16zM267 671c0 51 33 69 82 69c48 0 80 -18 80 -69s-32 -70 -80 -70c-49 0 -82 19 -82 70z" />
    <glyph glyph-name="gcommaaccent.alt" horiz-adv-x="656" 
d="M435 523h140v-431c0 -204 -131 -290 -260 -290c-110 0 -174 52 -174 136c0 56 37 107 102 124c-110 16 -196 91 -196 228c0 138 85 242 234 242c65 0 120 -22 154 -54v45zM435 169v195c-25 23 -67 46 -113 46c-84 0 -133 -51 -133 -120c0 -87 68 -121 133 -121h113z
M435 53h-29c-86 0 -141 -32 -141 -79c0 -36 24 -54 55 -54c63 0 115 47 115 117v16zM384 779l-24 -65c38 -7 57 -31 57 -63c0 -43 -31 -68 -73 -68c-54 0 -85 27 -85 79c0 46 25 99 58 141z" />
    <glyph glyph-name="yacute.alt" 
d="M472 741l-102 -152h-118l81 152h139zM26 523h150l136 -373l136 373h140l-198 -516c-58 -156 -112 -205 -217 -205c-85 0 -144 47 -144 130c0 76 64 143 181 153zM247 -1l4 13c-78 0 -115 -15 -115 -55c0 -22 17 -37 40 -37c41 0 55 27 71 79z" />
    <glyph glyph-name="ycircumflex.alt" 
d="M26 523h150l136 -373l136 373h140l-198 -516c-58 -156 -112 -205 -217 -205c-85 0 -144 47 -144 130c0 76 64 143 181 153zM247 -1l4 13c-78 0 -115 -15 -115 -55c0 -22 17 -37 40 -37c41 0 55 27 71 79zM379 589l-66 84l-66 -84h-106l104 152h136l103 -152h-105z" />
    <glyph glyph-name="ydieresis.alt" 
d="M26 523h150l136 -373l136 373h140l-198 -516c-58 -156 -112 -205 -217 -205c-85 0 -144 47 -144 130c0 76 64 143 181 153zM247 -1l4 13c-78 0 -115 -15 -115 -55c0 -22 17 -37 40 -37c41 0 55 27 71 79zM119 659c0 46 30 63 73 63c42 0 72 -17 72 -63
c0 -45 -30 -63 -72 -63c-43 0 -73 18 -73 63zM374 659c0 46 30 63 74 63c42 0 71 -17 71 -63c0 -45 -29 -63 -71 -63c-44 0 -74 18 -74 63z" />
    <glyph glyph-name="ygrave.alt" 
d="M266 589l-102 152h139l81 -152h-118zM26 523h150l136 -373l136 373h140l-198 -516c-58 -156 -112 -205 -217 -205c-85 0 -144 47 -144 130c0 76 64 143 181 153zM247 -1l4 13c-78 0 -115 -15 -115 -55c0 -22 17 -37 40 -37c41 0 55 27 71 79z" />
    </font>
</defs>
</svg>
